<?xml version="1.0" encoding="UTF-8" standalone="no"?>
<svg width="74px" height="24px" viewBox="0 0 74 24" version="1.1" xmlns="http://www.w3.org/2000/svg" xmlns:xlink="http://www.w3.org/1999/xlink" xmlns:sketch="http://www.bohemiancoding.com/sketch/ns">
    <!-- Generator: Sketch 3.3.3 (12081) - http://www.bohemiancoding.com/sketch -->
    <title>Payment/AliPay/AliPay-alt</title>
    <desc>Created with Sketch.</desc>
    <defs></defs>
    <g id="Icons:-Payment" stroke="none" stroke-width="1" fill="none" fill-rule="evenodd" sketch:type="MSPage">
        <g id="AliPay-alt" sketch:type="MSArtboardGroup" transform="translate(-13.000000, -18.000000)">
            <g id="Payment/AliPay/AliPay-alt" sketch:type="MSLayerGroup" transform="translate(13.000000, 18.000000)">
                <path d="M57.7390422,0 L56.8438631,0.0696586834 C56.8438631,0.0696586834 55.9142542,0.278636238 55.9142542,0.696591348 L55.9142542,2.08977555 L51.8859493,2.22909367 L51.8859493,1.46284288 L50.0267309,1.46284288 C50.0267309,1.46284288 48.1675133,1.602161 48.1675133,2.15943498 L48.1675133,7.24455574 L55.9142542,7.24455574 L55.9142542,10.7275155 L50.5776107,10.7275155 L50.5776107,12.1206989 L55.9142542,12.1206989 L55.9142542,20.0966761 L59.8736997,19.678721 L59.8736997,12.1206989 L65.5546433,12.1206989 L65.5546433,10.7275155 L59.8736997,10.7275155 L59.8736997,7.24455574 L66.5531115,7.24455574 L66.5531115,6.54796364 L66.7252615,6.54796364 C66.7252615,6.54796364 67.2417109,6.54796364 67.5515805,5.71205342 L67.8614501,3.41330031 C67.8614501,3.41330031 67.8270204,1.74147987 66.0710926,1.74147987 L59.8736997,1.95045743 L59.8736997,0 L57.7390422,0 L57.7390422,0 Z M63.8675749,3.20432276 C63.8675749,3.20432276 64.418454,3.16949266 64.4528844,3.76159599 L64.1774445,5.88620163 L51.8859493,5.88620163 L51.8859493,3.58744777 L55.9142542,3.482959 L55.9142542,3.51778909 L59.8736997,3.34364088 L63.8675749,3.20432276 L63.8675749,3.20432276 Z" id="path215" fill="#FFFFFF" sketch:type="MSShapeGroup"></path>
                <path d="M33.6725004,10.7275155 L34.9464085,12.2251877 L36.4268971,13.5487125 C36.4268971,13.5487125 36.8400566,13.9666676 37.2532161,13.5487125 L38.6992743,12.2251877 L39.9731832,10.7275155 C39.9731832,10.7275155 40.4207723,10.3443897 39.9731832,9.85677517 L38.6992743,8.39393229 L37.2532161,7.10523762 C37.2532161,7.10523762 36.8400566,6.68728251 36.4268971,7.10523762 L34.980839,8.39393229 L33.6725004,9.85677517 C33.6725004,9.85677517 33.2937706,10.3443897 33.6725004,10.7275155" id="path971" fill="#EC6C00" sketch:type="MSShapeGroup"></path>
                <path d="M66.7252615,15.3250217 C66.7252615,15.3250217 66.966271,15.0115554 66.7252615,14.6632597 L65.7267926,13.5487125 L64.6250337,12.5734841 C64.6250337,12.5734841 64.3151641,12.2600178 63.9708648,12.5734841 L62.8691059,13.5487125 L61.9050674,14.6632597 C61.9050674,14.6632597 61.6296275,15.0115554 61.9050674,15.3250217 L62.8691059,16.4395689 L63.9708648,17.4147972 C63.9708648,17.4147972 64.3151641,17.7630937 64.6250337,17.4147972 L65.7267926,16.4395689 L66.7252615,15.3250217" id="path973" fill="#EC6C00" sketch:type="MSShapeGroup"></path>
                <path d="M7.67788078,9.05569429 L19.4873571,9.05569429 C19.4873571,9.05569429 19.1430578,10.4140492 18.2823084,12.1206989 C18.2823084,12.1206989 16.8018205,15.0463855 14.5294426,17.2406498 C14.5294426,17.2406498 10.2601283,21.2808828 7.5057315,21.2808828 C7.5057315,21.2808828 5.4743636,21.2808828 4.16602515,20.514632 C4.16602515,20.514632 2.54781703,19.5045735 2.54781703,17.4147972 C2.54781703,17.4147972 2.54781703,14.6632597 6.7138421,13.8621788 C6.7138421,13.8621788 4.02830528,13.6880306 2.61667696,15.1160441 C2.61667696,15.1160441 1.30833852,16.3699095 1.30833852,18.5641745 C1.30833852,18.5641745 1.30833852,20.6539501 3.20198625,21.9078154 C3.20198625,21.9078154 4.88905431,23.057192 7.29915146,23.0223626 L7.85003081,23.057192 C7.85003081,23.057192 12.5325054,22.8133851 16.8706799,19.1562771 C16.8706799,19.1562771 20.5891159,16.0216138 22.4483336,11.5285956 C22.4483336,11.5285956 23.0336431,10.1354122 23.3435127,8.74222796 L23.5500932,7.66251085 L23.5500932,7.69734019 L17.1805495,7.69734019 L17.1805495,4.6323363 L25.2027311,4.6323363 L25.2027311,3.27398144 L17.1805495,3.27398144 L17.1805495,0.104488777 L15.0803224,0.104488777 L14.1851433,0.174147461 C14.1851433,0.174147461 13.2555345,0.383125016 13.2555345,0.801080125 L13.2555345,3.27398144 L5.50879353,3.27398144 L5.50879353,4.6323363 L13.2555345,4.6323363 L13.2555345,7.69734019 L7.67788078,7.69734019 L7.67788078,9.05569429" id="path979" fill="#FFFFFF" sketch:type="MSShapeGroup"></path>
                <path d="M34.15452,0 L34.0856599,0.661762006 L33.6380707,2.2987531 C33.6380707,2.2987531 33.156051,3.41330031 32.4330219,4.28403987 L32.4330219,19.9921873 L28.4735765,19.5045735 L28.4735765,7.03557818 C28.4735765,7.03557818 26.9930886,7.80182897 25.7191804,8.28944351 L25.2027311,7.45353329 C25.2027311,7.45353329 26.5454994,6.51313429 27.888267,5.18960953 C27.888267,5.18960953 30.5393738,2.50773066 30.5393738,0.696591348 C30.5393738,0.696591348 30.5393738,0.278636238 31.4689827,0.0696586834 L32.3641618,0 L34.15452,0" id="path981" fill="#FFFFFF" sketch:type="MSShapeGroup"></path>
                <path d="M33.0527612,6.02551975 L40.4896325,6.02551975 L40.4896325,20.514632 L44.449078,20.5842907 L44.449078,6.02551975 L46.5148754,6.02551975 L46.5148754,4.6323363 L44.449078,4.6323363 L44.449078,0 L42.3144204,0 L41.4192413,0.0696586834 C41.4192413,0.0696586834 40.4896325,0.278636238 40.4896325,0.696591348 L40.4896325,4.6323363 L33.0527612,4.6323363 L33.0527612,6.02551975" id="path983" fill="#FFFFFF" sketch:type="MSShapeGroup"></path>
                <path d="M15.045892,14.4542821 C15.045892,14.4542821 10.0191181,12.2251877 6.92042192,12.1206989 C6.92042192,12.1206989 4.37260489,11.9813808 2.27237735,13.479053 C2.27237735,13.479053 0.0688599377,15.0463855 0,17.3799679 C0,17.3799679 0,20.0966761 2.13465755,21.6291784 C2.13465755,21.6291784 4.09716521,23.057192 7.26472146,23.057192 L7.57459091,23.057192 L7.05814172,23.0223626 C7.05814172,23.0223626 4.75133444,23.0223626 3.13312631,21.8729861 C3.13312631,21.8729861 1.34276845,20.5842907 1.34276845,18.4596858 C1.34276845,18.4596858 1.34276845,16.1609319 2.92654657,14.976726 C2.92654657,14.976726 4.26931502,14.0014969 6.43840243,13.9666676 L9.50266872,14.3149633 L11.8783357,15.255363 L17.5592793,18.1810488 C17.5592793,18.1810488 21.4498646,20.235995 25.1683006,21.4898603 C25.1683006,21.4898603 38.1139655,25.8435596 67.0695609,22.9875325 L68.6189096,22.6740662 C68.6189096,22.6740662 69.1697887,22.4302593 69.6173779,21.6988379 C69.6173779,21.6988379 69.9961077,21.1067345 72.5783544,18.7731521 C72.5783544,18.7731521 74.4375743,17.0665016 73.8178336,16.5092283 L72.9226545,16.6485465 C72.9226545,16.6485465 63.4544154,18.8079814 49.0282627,19.4000848 C49.0282627,19.4000848 32.8117517,20.0618468 24.7895716,17.7282643 C24.7895716,17.7282643 19.2463476,16.1261026 15.045892,14.4542821" id="path985" fill="#EC6C00" sketch:type="MSShapeGroup"></path>
            </g>
        </g>
    </g>
</svg>