<?xml version="1.0" encoding="UTF-8" standalone="no"?>
<svg width="100px" height="60px" viewBox="0 0 100 60" version="1.1" xmlns="http://www.w3.org/2000/svg" xmlns:xlink="http://www.w3.org/1999/xlink" xmlns:sketch="http://www.bohemiancoding.com/sketch/ns">
    <!-- Generator: Sketch 3.3.3 (12081) - http://www.bohemiancoding.com/sketch -->
    <title>Payment/AliPay/AliPay-card-flat</title>
    <desc>Created with Sketch.</desc>
    <defs></defs>
    <g id="Icons:-Payment" stroke="none" stroke-width="1" fill="none" fill-rule="evenodd" sketch:type="MSPage">
        <g id="AliPay-card-flat" sketch:type="MSArtboardGroup" fill="#9B9B9B">
            <g id="Payment/AliPay/AliPay-card-flat" sketch:type="MSLayerGroup">
                <path d="M0,4.0065556 C0,1.79379604 1.79952991,0 3.99732351,0 L96.0026765,0 C98.2103373,0 100,1.79568082 100,4.0065556 L100,55.9934444 C100,58.206204 98.2004701,60 96.0026765,60 L3.99732351,60 C1.78966269,60 0,58.2043192 0,55.9934444 L0,4.0065556 Z M68.9142542,36.9820928 L68.9142542,30.1206989 L63.5776107,30.1206989 L63.5776107,28.7275155 L68.9142542,28.7275155 L68.9142542,25.2445557 L61.1675133,25.2445557 L61.1675133,20.159435 C61.1675133,19.602161 63.0267309,19.4628429 63.0267309,19.4628429 L64.8859493,19.4628429 L64.8859493,20.2290937 L68.9142542,20.0897755 L68.9142542,18.6965913 C68.9142542,18.2786362 69.8438631,18.0696587 69.8438631,18.0696587 L70.7390422,18 L72.8736997,18 L72.8736997,19.9504574 L79.0710926,19.7414799 C80.8270204,19.7414799 80.8614501,21.4133003 80.8614501,21.4133003 L80.5515805,23.7120534 C80.2417109,24.5479636 79.7252615,24.5479636 79.7252615,24.5479636 L79.5531115,24.5479636 L79.5531115,25.2445557 L72.8736997,25.2445557 L72.8736997,28.7275155 L78.5546433,28.7275155 L78.5546433,30.1206989 L72.8736997,30.1206989 L72.8736997,36.6166648 C81.0113342,35.7686784 85.9226545,34.6485465 85.9226545,34.6485465 L86.8178336,34.5092283 C87.4375743,35.0665016 85.5783544,36.7731521 85.5783544,36.7731521 C82.9961077,39.1067345 82.6173779,39.6988379 82.6173779,39.6988379 C82.1697887,40.4302593 81.6189096,40.6740662 81.6189096,40.6740662 L80.0695609,40.9875325 C51.1139655,43.8435596 38.1683006,39.4898603 38.1683006,39.4898603 C34.9793368,38.4145343 31.6637584,36.7500188 30.7841976,36.2977969 C30.2313493,36.8522307 29.8706799,37.1562771 29.8706799,37.1562771 C25.5325054,40.8133851 20.8500308,41.057192 20.8500308,41.057192 L20.2991515,41.0223626 C20.1289544,41.0248222 19.9623631,41.0213762 19.7997169,41.0128465 C19.9637334,41.0223626 20.0581417,41.0223626 20.0581417,41.0223626 L20.5745909,41.057192 L20.2647215,41.057192 C17.0971652,41.057192 15.1346575,39.6291784 15.1346575,39.6291784 C13,38.0966761 13,35.3799679 13,35.3799679 C13.0688599,33.0463855 15.2723773,31.479053 15.2723773,31.479053 C17.3726049,29.9813808 19.9204219,30.1206989 19.9204219,30.1206989 C23.0191181,30.2251877 28.045892,32.4542821 28.045892,32.4542821 C28.5064723,32.6375974 28.983197,32.8200751 29.4669878,32.999695 C30.6063949,31.4564146 31.2823084,30.1206989 31.2823084,30.1206989 C32.1430578,28.4140492 32.4873571,27.0556943 32.4873571,27.0556943 L20.6778808,27.0556943 L20.6778808,25.6973402 L26.2555345,25.6973402 L26.2555345,22.6323363 L18.5087935,22.6323363 L18.5087935,21.2739814 L26.2555345,21.2739814 L26.2555345,18.8010801 C26.2555345,18.383125 27.1851433,18.1741475 27.1851433,18.1741475 L28.0803224,18.1044888 L30.1805495,18.1044888 L30.1805495,21.2739814 L38.2027311,21.2739814 L38.2027311,22.6323363 L30.1805495,22.6323363 L30.1805495,25.6973402 L36.5500932,25.6973402 L36.5500932,25.6625108 L36.3435127,26.742228 C36.0336431,28.1354122 35.4483336,29.5285956 35.4483336,29.5285956 C34.7088943,31.3155377 33.6753686,32.8876186 32.6986444,34.1330916 C35.4721373,35.0584547 37.7895716,35.7282643 37.7895716,35.7282643 C38.8854091,36.0470339 40.1341514,36.3099109 41.4735765,36.5262171 L41.4735765,25.0355782 C41.4735765,25.0355782 39.9930886,25.801829 38.7191804,26.2894435 L38.2027311,25.4535333 C38.2027311,25.4535333 39.5454994,24.5131343 40.888267,23.1896095 C40.888267,23.1896095 43.5393738,20.5077307 43.5393738,18.6965913 C43.5393738,18.6965913 43.5393738,18.2786362 44.4689827,18.0696587 L45.3641618,18 L47.15452,18 L47.0856599,18.661762 L46.6380707,20.2987531 C46.6380707,20.2987531 46.156051,21.4133003 45.4330219,22.2840399 L45.4330219,37.0198871 C48.140418,37.2750278 50.959626,37.3991834 53.4896325,37.4524316 L53.4896325,24.0255197 L46.0527612,24.0255197 L46.0527612,22.6323363 L53.4896325,22.6323363 L53.4896325,18.6965913 C53.4896325,18.2786362 54.4192413,18.0696587 54.4192413,18.0696587 L55.3144204,18 L57.449078,18 L57.449078,22.6323363 L59.5148754,22.6323363 L59.5148754,24.0255197 L57.449078,24.0255197 L57.449078,37.48554 C60.19176,37.4750286 62.0282627,37.4000848 62.0282627,37.4000848 C64.4733368,37.2997298 66.7759873,37.1543508 68.9142542,36.9820928 L68.9142542,36.9820928 Z M27.9372883,34.8307235 C27.8044061,34.9695433 27.6684051,35.1064642 27.5294426,35.2406498 C27.5294426,35.2406498 23.2601283,39.2808828 20.5057315,39.2808828 C20.5057315,39.2808828 18.4743636,39.2808828 17.1660252,38.514632 C17.1660252,38.514632 15.547817,37.5045735 15.547817,35.4147972 C15.547817,35.4147972 15.547817,32.8912378 19.206957,31.974016 C19.2830145,31.9704032 19.360171,31.9679238 19.4384024,31.9666676 L22.5026687,32.3149633 L24.8783357,33.255363 L27.9372883,34.8307235 L27.9372883,34.8307235 L27.9372883,34.8307235 Z M79.7252615,33.3250217 C79.7252615,33.3250217 79.966271,33.0115554 79.7252615,32.6632597 L78.7267926,31.5487125 L77.6250337,30.5734841 C77.6250337,30.5734841 77.3151641,30.2600178 76.9708648,30.5734841 L75.8691059,31.5487125 L74.9050674,32.6632597 C74.9050674,32.6632597 74.6296275,33.0115554 74.9050674,33.3250217 L75.8691059,34.4395689 L76.9708648,35.4147972 C76.9708648,35.4147972 77.3151641,35.7630937 77.6250337,35.4147972 L78.7267926,34.4395689 L79.7252615,33.3250217 Z M76.8675749,21.2043228 C76.8675749,21.2043228 77.418454,21.1694927 77.4528844,21.761596 L77.1774445,23.8862016 L64.8859493,23.8862016 L64.8859493,21.5874478 L68.9142542,21.482959 L68.9142542,21.5177891 L72.8736997,21.3436409 L76.8675749,21.2043228 Z M46.6725004,28.7275155 L47.9464085,30.2251877 L49.4268971,31.5487125 C49.4268971,31.5487125 49.8400566,31.9666676 50.2532161,31.5487125 L51.6992743,30.2251877 L52.9731832,28.7275155 C52.9731832,28.7275155 53.4207723,28.3443897 52.9731832,27.8567752 L51.6992743,26.3939323 L50.2532161,25.1052376 C50.2532161,25.1052376 49.8400566,24.6872825 49.4268971,25.1052376 L47.980839,26.3939323 L46.6725004,27.8567752 C46.6725004,27.8567752 46.2937706,28.3443897 46.6725004,28.7275155 Z" id="Rectangle" sketch:type="MSShapeGroup"></path>
            </g>
        </g>
    </g>
</svg>