<?xml version="1.0" encoding="UTF-8" standalone="no"?>
<svg width="78px" height="22px" viewBox="0 0 78 22" version="1.1" xmlns="http://www.w3.org/2000/svg" xmlns:xlink="http://www.w3.org/1999/xlink" xmlns:sketch="http://www.bohemiancoding.com/sketch/ns">
    <!-- Generator: Sketch 3.3.3 (12081) - http://www.bohemiancoding.com/sketch -->
    <title>Payment/Ingenico/Ingenico-alt</title>
    <desc>Created with Sketch.</desc>
    <defs></defs>
    <g id="Icons:-Payment" stroke="none" stroke-width="1" fill="none" fill-rule="evenodd" sketch:type="MSPage">
        <g id="Ingenico-alt" sketch:type="MSArtboardGroup" transform="translate(-11.000000, -19.000000)" fill="#FFFFFF">
            <g id="Payment/Ingenico/Ingenico-alt" sketch:type="MSLayerGroup" transform="translate(11.000000, 19.000000)">
                <path d="M0.54965625,5.97208333 L3.00909375,5.97208333 L3.00909375,17.0258611 L0.54965625,17.0258611 L0.54965625,5.97208333 Z" id="Fill-4" sketch:type="MSShapeGroup"></path>
                <path d="M6.10654687,0.962194444 L49.915125,0.962194444 L49.915125,2.70936111 L6.10654687,2.70936111 L6.10654687,0.962194444 Z" id="Fill-5" sketch:type="MSShapeGroup"></path>
                <path d="M24.5346563,8.12136111 C24.1227188,8.08102778 23.6461875,8.00158333 22.9313906,8.00158333 C20.8631719,8.00158333 20.0453906,9.51836111 20.0453906,11.5790278 C20.0453906,14.21475 21.0874219,15.1271389 22.7065313,15.1271389 C23.4450938,15.1271389 24.0593438,14.8221944 24.5346563,14.5826389 L24.5346563,8.12136111 L24.5346563,8.12136111 Z M22.2165938,21.5890278 C20.6596406,21.5890278 19.2312656,21.2596389 18.3513281,20.9956389 L18.7273125,18.89525 C19.6675781,19.1103611 21.0368438,19.31875 21.8028281,19.31875 C23.4450938,19.31875 24.5492813,19.0315278 24.5492813,17.0918611 C24.5870625,17.0521389 24.5492813,16.5394167 24.5492813,16.4825833 C24.0465469,16.8908056 23.3323594,17.2116389 22.5791719,17.2116389 C20.2227188,17.2116389 17.5999688,16.5644722 17.5999688,11.5631389 C17.5999688,7.79319444 20.0210156,5.78691667 22.9551563,5.78691667 C24.1227188,5.78691667 25.3902188,5.95680556 26.9959219,6.22080556 L26.9959219,17.3699167 C26.9959219,20.46825 24.4005938,21.5890278 22.2165938,21.5890278 L22.2165938,21.5890278 Z" id="Fill-6" sketch:type="MSShapeGroup"></path>
                <path d="M34.0585781,7.73880556 C33.0049687,7.73880556 31.9135781,8.50391667 31.8008437,10.3641389 L35.9007187,10.3641389 C35.9153437,8.66280556 35.1103594,7.73880556 34.0585781,7.73880556 L34.0585781,7.73880556 Z M31.7484375,12.2500278 C31.7630625,14.6626944 33.154875,15.0073611 35.0000625,15.0073611 C35.7136406,15.0073611 36.9689531,14.90225 37.7824687,14.7176944 L38.1590625,16.7881389 C37.3455469,17.0668056 35.7885937,17.2116389 34.5472969,17.2116389 C31.3352812,17.2116389 29.289,16.0211944 29.289,11.6829167 C29.289,7.18636111 31.3870781,5.70869444 34.2846562,5.70869444 C37.2553594,5.70869444 38.4594844,7.81763889 38.4594844,11.2740833 L38.4594844,12.2500278 L31.7484375,12.2500278 L31.7484375,12.2500278 Z" id="Fill-7" sketch:type="MSShapeGroup"></path>
                <path d="M53.0113594,5.97208333 L55.4829844,5.97208333 L55.4829844,17.0258611 L53.0113594,17.0258611 L53.0113594,5.97208333 Z" id="Fill-8" sketch:type="MSShapeGroup"></path>
                <path d="M65.5169531,8.35969444 C64.842375,8.08102778 64.2013125,7.88180556 63.1714688,7.88180556 C61.5919688,7.88180556 60.3896719,8.84736111 60.3896719,11.4458056 C60.3896719,13.9379167 61.0027031,15.0458611 63.7132031,15.0458611 C64.5523125,15.0458611 65.1184219,14.8875833 65.7972656,14.7824722 L66.13425,16.8523056 C65.329875,17.0258611 64.6552969,17.2116389 63.5395313,17.2116389 C59.4110156,17.2116389 57.8528438,15.5341389 57.8528438,11.40425 C57.8528438,7.89708333 59.9143594,5.69219444 63.1714688,5.69219444 C64.6290938,5.69219444 65.5565625,5.99713889 66.2335781,6.39497222 L65.5169531,8.35969444" id="Fill-9" sketch:type="MSShapeGroup"></path>
                <path d="M72.56925,7.81763889 C70.5491719,7.81763889 70.0104844,9.59963889 70.0104844,11.5246389 C70.0104844,13.5846944 70.6247344,15.1271389 72.6052031,15.1271389 C74.611875,15.1271389 75.1005937,13.5034167 75.1005937,11.4983611 C75.1005937,9.61369444 74.611875,7.81763889 72.56925,7.81763889 L72.56925,7.81763889 Z M72.4559062,17.2739722 C69.2938594,17.2739722 67.5272812,15.14975 67.5272812,11.6040833 C67.5272812,7.88180556 69.5729531,5.69219444 72.6204375,5.69219444 C76.045125,5.69219444 77.6368125,7.81763889 77.6368125,11.4983611 C77.6368125,15.3110833 75.4174687,17.2739722 72.4559062,17.2739722 L72.4559062,17.2739722 Z" id="Fill-10" sketch:type="MSShapeGroup"></path>
                <path d="M3.19678125,1.83669444 C3.19678125,2.61341667 2.559375,3.25141667 1.78546875,3.25141667 C0.998765625,3.25141667 0.3631875,2.61341667 0.3631875,1.83669444 C0.3631875,1.04958333 0.998765625,0.410972222 1.78546875,0.410972222 C2.559375,0.410972222 3.19678125,1.04958333 3.19678125,1.83669444" id="Fill-11" sketch:type="MSShapeGroup"></path>
                <path d="M55.6688437,1.83669444 C55.6688437,2.61341667 55.0326562,3.25141667 54.2471719,3.25141667 C53.4629062,3.25141667 52.8370781,2.61341667 52.8370781,1.83669444 C52.8370781,1.04958333 53.4629062,0.410972222 54.2471719,0.410972222 C55.0326562,0.410972222 55.6688437,1.04958333 55.6688437,1.83669444" id="Fill-12" sketch:type="MSShapeGroup"></path>
                <path d="M12.0302812,5.66897222 C10.4745469,5.66897222 9.29479687,6.60397222 8.59401562,7.13136111 L8.59401562,7.10508333 C8.57634375,7.13441667 8.54648437,7.15519444 8.5190625,7.18391667 C8.28079687,6.29780556 7.64278125,6.03930556 7.06753125,5.97208333 L6.11020312,5.97208333 L6.11020312,17.0258611 L8.59401562,17.0258611 L8.59401562,8.92619444 C9.08273437,8.64813889 10.2119062,7.97652778 11.24175,7.97652778 C12.6323438,7.97652778 12.9193594,8.70313889 12.9193594,10.30975 L12.9193594,17.0258611 L15.3794062,17.0258611 L15.3794062,10.0060278 C15.3794062,7.73880556 15.1783125,5.66897222 12.0302812,5.66897222" id="Fill-13" sketch:type="MSShapeGroup"></path>
                <path d="M46.5812344,5.66897222 C45.0273281,5.66897222 43.8372187,6.60397222 43.1455781,7.13136111 L43.1455781,7.10508333 C43.1163281,7.13441667 43.0895156,7.15519444 43.0694062,7.18391667 C42.8213906,6.29780556 42.1943437,6.03930556 41.6075156,5.97208333 L40.662375,5.97208333 L40.662375,17.0258611 L43.1455781,17.0258611 L43.1455781,8.92619444 C43.6336875,8.64813889 44.76225,7.97652778 45.7933125,7.97652778 C47.1845156,7.97652778 47.4623906,8.70313889 47.4623906,10.30975 L47.4623906,17.0258611 L49.9309688,17.0258611 L49.9309688,10.0060278 C49.9309688,7.73880556 49.7195156,5.66897222 46.5812344,5.66897222" id="Fill-14" sketch:type="MSShapeGroup"></path>
            </g>
        </g>
    </g>
</svg>