<?xml version="1.0" encoding="UTF-8" standalone="no"?>
<svg width="82px" height="18px" viewBox="0 0 82 18" version="1.1" xmlns="http://www.w3.org/2000/svg" xmlns:xlink="http://www.w3.org/1999/xlink" xmlns:sketch="http://www.bohemiancoding.com/sketch/ns">
    <!-- Generator: Sketch 3.3.3 (12081) - http://www.bohemiancoding.com/sketch -->
    <title>Payment/WesternUnion/WesternUnion</title>
    <desc>Created with Sketch.</desc>
    <defs></defs>
    <g id="Icons:-Payment" stroke="none" stroke-width="1" fill="none" fill-rule="evenodd" sketch:type="MSPage">
        <g id="WesternUnion" sketch:type="MSArtboardGroup" transform="translate(-9.000000, -21.000000)" fill="#000000">
            <g id="Payment/WesternUnion/WesternUnion" sketch:type="MSLayerGroup" transform="translate(9.000000, 21.000000)">
                <path d="M22.7908715,2.61223771 C22.7908715,3.64243736 23.2220683,4.38828327 24.451544,4.75363122 L26.6949086,5.40915985 C26.9944124,5.49772905 27.2339035,5.6637963 27.2338988,5.96271736 C27.2338988,6.31757686 26.9274028,6.61824599 26.4618318,6.61824599 C26.1629107,6.61824599 25.9723611,6.51103064 25.8500051,6.35603454 C25.7282224,6.18996728 25.6751974,5.96563082 25.6751974,5.74420782 L22.6451984,5.74420782 C22.6451984,7.82674943 24.4177385,8.42459154 26.3452933,8.42459154 C28.6049734,8.42459154 30.1910706,7.60299566 30.1910613,5.6422367 C30.1910613,4.67846394 29.756373,3.96524879 28.7488983,3.54454509 C27.9401217,3.20133943 26.8236882,2.97875105 26.2141876,2.80161264 C25.8814704,2.70197229 25.6897647,2.57960695 25.6897647,2.29175704 C25.6897647,2.04760905 25.9082882,1.82560335 26.4181299,1.82560335 C26.8277624,1.82560335 27.1063032,1.99691484 27.1173604,2.49569928 L29.9579845,2.49569928 C29.9579845,0.634580675 28.4558042,0.0046905 26.4618318,0.0046905 C24.1246537,0.0046905 22.7908761,0.9503998 22.7908715,2.61223771 Z" id="Path" sketch:type="MSShapeGroup"></path>
                <path d="M70.1346057,0.0629597113 L70.1346057,17.8205019 L71.1397496,17.8205019 L71.1397496,0.0629597113 L70.1346057,0.0629597113 L70.1346057,0.0629597113 Z" id="Path" sketch:type="MSShapeGroup"></path>
                <path d="M80.2588811,0.121228923 C79.6680313,0.121228923 79.1808961,0.599619148 79.1809007,1.18464203 C79.1809007,1.77549183 79.668036,2.24805514 80.2588811,2.24805514 C80.8468175,2.24805514 81.3222849,1.77549183 81.3222942,1.18464203 C81.3222942,0.599619148 80.8468221,0.121228923 80.2588811,0.121228923 Z M80.2588811,0.252334648 C80.7763117,0.252334648 81.1475006,0.667211433 81.1474866,1.18464203 C81.1474866,1.70789955 80.7763164,2.10238211 80.2588811,2.10238211 C79.7385371,2.10238211 79.3556944,1.70789955 79.3557084,1.18464203 C79.3557084,0.667211433 79.7385417,0.252334648 80.2588811,0.252334648 Z" id="Path" sketch:type="MSShapeGroup"></path>
                <path d="M0.677705755,0.223200043 L2.41121479,8.2206493 L5.84909826,8.2206493 L6.59203071,3.03468949 L6.60659801,3.03468949 L7.34953045,8.2206493 L10.7874139,8.2206493 L12.520923,0.223200043 L9.68029891,0.223200043 L9.01020298,5.24891952 L8.98106837,5.24891952 L8.23813593,0.223200043 L4.96049279,0.223200043 L4.21756034,5.24891952 L4.20299304,5.24891952 L3.51832981,0.223200043 L0.677705755,0.223200043 L0.677705755,0.223200043 Z" id="Path" sketch:type="MSShapeGroup"></path>
                <path d="M14.4583742,0.223200043 L14.4583742,8.2206493 L20.6349106,8.2206493 L20.6349106,6.13752499 L17.4883732,6.13752499 L17.4883732,5.23435222 L20.2998627,5.23435222 L20.2998627,3.15122791 L17.4883732,3.15122791 L17.4883732,2.30632435 L20.5329395,2.30632435 L20.5329395,0.223200043 L14.4583742,0.223200043 L14.4583742,0.223200043 Z" id="Path" sketch:type="MSShapeGroup"></path>
                <path d="M31.9974068,0.223200043 L31.9974068,2.36459356 L33.97856,2.36459356 L33.97856,8.2206493 L37.1396647,8.2206493 L37.1396647,2.36459356 L39.1208179,2.36459356 L39.1208179,0.223200043 L31.9974068,0.223200043 L31.9974068,0.223200043 Z" id="Path" sketch:type="MSShapeGroup"></path>
                <path d="M41.2622115,0.223200043 L41.2622115,8.2206493 L47.4533152,8.2206493 L47.4533152,6.13752499 L44.3067777,6.13752499 L44.3067777,5.23435222 L47.1182672,5.23435222 L47.1182672,3.15122791 L44.3067777,3.15122791 L44.3067777,2.30632435 L47.351344,2.30632435 L47.351344,0.223200043 L41.2622115,0.223200043 L41.2622115,0.223200043 Z" id="Path" sketch:type="MSShapeGroup"></path>
                <path d="M49.7986509,0.223200043 L49.7986509,8.2206493 L52.9014864,8.2206493 L52.9014864,5.36545794 L53.265669,5.36545794 C53.7749419,5.36545794 53.9713091,5.52045405 54.037736,5.91901545 C54.1484475,6.60600945 54.242853,7.6222245 54.4310532,8.2206493 L57.5338887,8.2206493 C57.1685408,7.01272855 57.2011622,5.87706162 57.0240331,5.19065031 C56.869037,4.58115436 56.4442405,4.23736601 55.669274,4.17093911 L55.669274,4.15637181 C56.8655409,3.86793921 57.2571146,3.16754329 57.25711,2.24805514 C57.25711,0.741213331 56.2502227,0.223200043 54.5330243,0.223200043 L49.7986509,0.223200043 Z M52.9014864,2.0441129 L53.1928325,2.0441129 C53.8133996,2.0441129 54.212539,2.15657247 54.2125437,2.74334343 C54.2125437,3.34176823 53.7731938,3.55911239 53.1636979,3.55911239 L52.9014864,3.55911239 L52.9014864,2.0441129 Z" id="Path" sketch:type="MSShapeGroup"></path>
                <path d="M59.7481187,0.223200043 L59.7481187,8.2206493 L62.311964,8.2206493 L62.311964,3.34060285 L62.3410987,3.34060285 L64.0309058,8.2206493 L67.8329718,8.2206493 L67.8329718,0.223200043 L65.2545592,0.223200043 L65.2545592,5.05954458 L65.2400152,5.05954458 L63.5502081,0.223200043 L59.7481421,0.223200043 L59.7481187,0.223200043 L59.7481187,0.223200043 Z" id="Path" sketch:type="MSShapeGroup"></path>
                <path d="M77.3017187,0.223200043 L77.3017187,17.7913673 L78.3068626,17.7913673 L78.3068626,0.223200043 L77.3017187,0.223200043 L77.3017187,0.223200043 Z" id="Path" sketch:type="MSShapeGroup"></path>
                <path d="M79.865564,0.587382613 L79.865564,1.78190145 L80.011237,1.78190145 L80.011237,1.22834394 L80.2734484,1.22834394 L80.6084964,1.78190145 L80.783304,1.78190145 L80.4336888,1.22834394 C80.6446233,1.22251702 80.7978807,1.14152281 80.7978713,0.907863276 C80.7978713,0.711496034 80.6906513,0.587382613 80.3754196,0.587382613 L79.865564,0.587382613 Z M80.011237,0.689353733 L80.346285,0.689353733 C80.4925407,0.689353733 80.6376263,0.707999881 80.637631,0.893295973 C80.637631,1.13569589 80.3981446,1.11180552 80.2297465,1.11180552 L80.011237,1.11180552 L80.011237,0.689353733 Z" id="Path" sketch:type="MSShapeGroup"></path>
                <path d="M53.2219671,9.57540846 C50.4635026,9.57540846 49.0848531,11.2931848 49.0848531,13.785359 C49.0848531,16.2781158 50.4634933,17.9953095 53.2219671,17.9953095 C55.9804315,17.9953095 57.3445231,16.2781158 57.3445138,13.785359 C57.3445138,11.2931848 55.9804222,9.57540846 53.2219671,9.57540846 Z M53.2219671,11.6585328 C53.7318227,11.6585328 54.06688,11.9801788 54.0668706,13.785359 C54.0668706,15.6354064 53.7090884,15.9121805 53.2219671,15.9121852 C52.7348365,15.9121852 52.3624962,15.6354064 52.3624962,13.785359 C52.3624962,11.9801788 52.7126848,11.6585328 53.2219671,11.6585328 Z" id="Path" sketch:type="MSShapeGroup"></path>
                <path d="M22.52866,9.7793507 L22.52866,15.0964162 C22.52866,17.0239617 23.9154812,17.9953095 26.330726,17.9953095 C28.7454022,17.9953095 30.1327921,17.0239617 30.1327921,15.0964162 L30.1327921,9.7793507 L26.9571201,9.7793507 L26.9571201,14.9653105 C26.9571201,15.5963661 26.6628745,15.8393487 26.330726,15.8393487 C25.9985915,15.8393487 25.7043367,15.5963661 25.704332,14.9653105 L25.704332,9.7793507 L22.52866,9.7793507 L22.52866,9.7793507 Z" id="Path" sketch:type="MSShapeGroup"></path>
                <path d="M32.7549066,9.7793507 L32.7549066,17.7768 L35.3333192,17.7768 L35.3333192,12.9113208 L35.3478865,12.9113208 L37.0376936,17.7768 L40.8397597,17.7768 L40.8397597,9.7793507 L38.2759144,9.7793507 L38.2759144,14.6302625 L38.2467798,14.6302625 L36.5569726,9.7793507 L32.7549066,9.7793507 L32.7549066,9.7793507 Z" id="Path" sketch:type="MSShapeGroup"></path>
                <path d="M43.5201434,9.7793507 L43.5201434,17.7768 L46.6958154,17.7768 L46.6958154,9.7793507 L43.5201434,9.7793507 L43.5201434,9.7793507 Z" id="Path" sketch:type="MSShapeGroup"></path>
                <path d="M59.7481187,9.7793507 L59.7481187,17.7768 L62.311964,17.7768 L62.311964,12.9113208 L62.3410987,12.9113208 L64.0309058,17.7768 L67.8329718,17.7768 L67.8329718,9.7793507 L65.2545592,9.7793507 L65.2545592,14.6302625 L65.2400152,14.6302625 L63.5502081,9.7793507 L59.7481421,9.7793507 L59.7481187,9.7793507 L59.7481187,9.7793507 Z" id="Path" sketch:type="MSShapeGroup"></path>
            </g>
        </g>
    </g>
</svg>