<?xml version="1.0" encoding="UTF-8" standalone="no"?>
<svg width="76px" height="20px" viewBox="0 0 76 20" version="1.1" xmlns="http://www.w3.org/2000/svg" xmlns:xlink="http://www.w3.org/1999/xlink" xmlns:sketch="http://www.bohemiancoding.com/sketch/ns">
    <!-- Generator: Sketch 3.3.3 (12081) - http://www.bohemiancoding.com/sketch -->
    <title>Payment/Square/Square-alt</title>
    <desc>Created with Sketch.</desc>
    <defs></defs>
    <g id="Icons:-Payment" stroke="none" stroke-width="1" fill="none" fill-rule="evenodd" sketch:type="MSPage">
        <g id="Square-alt" sketch:type="MSArtboardGroup" transform="translate(-12.000000, -20.000000)" fill="#FFFFFF">
            <g id="Payment/Square/Square-alt" sketch:type="MSLayerGroup" transform="translate(12.000000, 20.000000)">
                <path d="M22.3229421,7.2723301 C22.3229421,8.18854369 22.584539,8.89135922 23.1222821,9.41864078 C23.6263325,9.91203883 24.3837481,10.2643689 25.5069018,10.5287379 C28.2672141,11.1770874 28.8346297,12.0027184 28.8363526,13.0428155 C28.8363526,14.4298058 27.5428212,15.5579612 25.9524685,15.5579612 L25.9430882,15.5579612 C25.1165642,15.5579612 24.3270831,15.2396117 23.7772796,14.6838835 C23.3111335,14.2131068 23.0558539,13.6085437 23.0558539,12.9817476 L21.9152796,12.9817476 C21.9152796,13.9176699 22.2918338,14.8116505 22.9724836,15.5014563 C23.7348766,16.2719417 24.8158186,16.7129126 25.9417481,16.7129126 L25.9529471,16.7129126 C27.0191486,16.7129126 28.0220806,16.3398058 28.7784433,15.6613592 C29.5506952,14.9670874 29.9761612,14.0369903 29.9761612,13.0428155 C29.9705139,10.7051456 27.8442368,9.89135922 25.7640957,9.40300971 C23.8184383,8.94592233 23.4608363,8.32708738 23.4608363,7.2723301 C23.4608363,6.11854369 24.5732695,5.14262136 25.889869,5.14262136 C27.2357582,5.14262136 28.3284736,6.09213592 28.3284736,7.25805825 L29.4695264,7.25805825 C29.4695264,6.3638835 29.0872292,5.53058252 28.3931788,4.91436893 C27.7208564,4.31631068 26.8324987,3.98805825 25.889869,3.98805825 C23.9238237,3.98805825 22.3229421,5.46116505 22.3229421,7.2723301" id="Fill-1" sketch:type="MSShapeGroup"></path>
                <path d="M32.4546801,12.1283495 C32.4546801,10.0678641 33.93333,8.51893204 35.9799698,8.51893204 C37.9338589,8.51893204 39.4278237,10.1627184 39.4278237,12.1113592 C39.4278237,14.0597087 37.9338589,15.6726214 35.9799698,15.6726214 C33.9653955,15.6726214 32.4546801,14.1715534 32.4546801,12.1283495 M31.3512443,12.0798058 C31.3512443,14.7141748 33.3991285,16.6779612 35.9799698,16.6779612 C37.3195416,16.6779612 38.593068,16.0867961 39.3336373,14.9382524 L39.3655113,14.9382524 L39.3655113,20 L40.4664584,20 L40.4664584,7.73601942 L39.3655113,7.73601942 L39.3655113,9.26941748 L39.3336373,9.26941748 C38.593068,8.10407767 37.3195416,7.5131068 35.9799698,7.5131068 C33.4477531,7.5131068 31.3512443,9.46106796 31.3512443,12.0798058" id="Fill-2" sketch:type="MSShapeGroup"></path>
                <path d="M52.7557733,12.1283495 C52.7557733,10.0678641 54.2357632,8.51893204 56.2820202,8.51893204 C58.2341864,8.51893204 59.7279597,10.1627184 59.7279597,12.1113592 C59.7279597,14.0597087 58.2341864,15.6726214 56.2820202,15.6726214 C54.2664887,15.6726214 52.7557733,14.1715534 52.7557733,12.1283495 M51.6529118,12.0798058 C51.6529118,14.7141748 53.7003174,16.6779612 56.2820202,16.6779612 C57.6207305,16.6779612 58.8794207,16.0867961 59.6343476,14.9382524 L59.6669874,14.9382524 L59.6669874,16.4707767 L60.7682217,16.4707767 L60.7682217,7.73601942 L59.6669874,7.73601942 L59.6669874,9.26941748 L59.6343476,9.26941748 C58.894927,8.08776699 57.6356625,7.5131068 56.2820202,7.5131068 C53.747602,7.5131068 51.6529118,9.46106796 51.6529118,12.0798058" id="Fill-3" sketch:type="MSShapeGroup"></path>
                <path d="M64.1001612,8.9976699 L64.071063,8.9976699 L64.071063,7.73601942 L62.9680101,7.73601942 L62.9680101,16.4707767 L64.071063,16.4707767 L64.071063,11.3609709 C64.071063,9.7961165 65.0146499,8.8215534 66.5257481,8.69446602 L66.5257481,7.5131068 C65.4062317,7.59271845 64.5731033,7.87893204 64.1001612,8.9976699" id="Fill-4" sketch:type="MSShapeGroup"></path>
                <path d="M71.4592393,8.51893204 C73.1907758,8.51893204 74.5431738,9.7961165 74.8267859,11.5045631 L68.1047103,11.5045631 C68.3736776,9.7961165 69.7421562,8.51893204 71.4592393,8.51893204 M66.9718892,12.1113592 C66.9718892,14.6174757 68.9709572,16.6779612 71.4592393,16.6779612 C73.3643123,16.6779612 75.0634962,15.4335922 75.6928413,13.612233 L74.5280504,13.612233 C74.0564484,14.9061165 72.7651184,15.6726214 71.4431587,15.6726214 C69.7576625,15.6726214 68.1833904,14.2353398 68.1047103,12.5104854 L75.9441008,12.5104854 C75.9441008,12.398932 75.9612343,12.3029126 75.9612343,12.1917476 C75.9612343,9.66815534 73.962262,7.5131068 71.4431587,7.5131068 C68.9709572,7.5131068 66.9718892,9.62 66.9718892,12.1113592" id="Fill-5" sketch:type="MSShapeGroup"></path>
                <path d="M48.9544332,7.70728155 L48.9544332,12.3431068 C48.9544332,13.3696117 48.8138237,14.2363107 48.0539194,14.9749515 C47.5153149,15.4884466 46.9463678,15.6803883 46.2192947,15.6803883 C44.2415718,15.6803883 43.5927003,14.348835 43.5927003,12.5356311 L43.5927003,7.70728155 L42.4862015,7.70728155 L42.4862015,12.5521359 C42.4862015,13.5306796 42.6289169,14.5892233 43.2449572,15.3747573 C43.9572897,16.2894175 45.0956625,16.6905825 46.2192947,16.6905825 C47.3587204,16.6905825 48.4808212,16.1940777 48.9867859,15.1183495 L49.0182771,15.1183495 L49.0182771,16.4814563 L50.0623678,16.4814563 L50.0623678,7.70728155 L48.9544332,7.70728155" id="Fill-6" sketch:type="MSShapeGroup"></path>
                <path d="M7.76530479,7.27660194 C7.43641814,7.27660194 7.16792947,7.5492233 7.16792947,7.88262136 L7.16792947,12.1226214 C7.16792947,12.4560194 7.43641814,12.7287379 7.76530479,12.7287379 L11.9466448,12.7287379 C12.2751486,12.7287379 12.5441159,12.4560194 12.5441159,12.1226214 L12.5441159,7.88262136 C12.5441159,7.5492233 12.2751486,7.27660194 11.9466448,7.27660194 L7.76530479,7.27660194 L7.76530479,7.27660194 Z M3.58425189,15.3039806 L3.58425189,4.70135922 C3.58425189,4.1184466 4.05460957,3.64174757 4.62891688,3.64174757 L15.0833199,3.64174757 C15.6577229,3.64174757 16.127602,4.1184466 16.127602,4.70135922 L16.127602,15.3039806 C16.127602,15.8868932 15.6577229,16.3637864 15.0833199,16.3637864 L4.62891688,16.3637864 C4.05460957,16.3637864 3.58425189,15.8868932 3.58425189,15.3039806 L3.58425189,15.3039806 Z M3.28570781,0.00524271845 C1.47836272,0.00524271845 0,1.50495146 0,3.33776699 L0,16.6673786 C0,18.5007767 1.47836272,20 3.28570781,20 L16.4267204,20 C18.2339698,20 19.7123325,18.5007767 19.7123325,16.6673786 L19.7123325,3.33776699 C19.7123325,1.50495146 18.2339698,0.00524271845 16.4267204,0.00524271845 L3.28570781,0.00524271845 L3.28570781,0.00524271845 Z" id="Fill-8" sketch:type="MSShapeGroup"></path>
            </g>
        </g>
    </g>
</svg>