<?xml version="1.0" encoding="UTF-8" standalone="no"?>
<svg width="68px" height="24px" viewBox="0 0 68 24" version="1.1" xmlns="http://www.w3.org/2000/svg" xmlns:xlink="http://www.w3.org/1999/xlink" xmlns:sketch="http://www.bohemiancoding.com/sketch/ns">
    <!-- Generator: Sketch 3.3.3 (12081) - http://www.bohemiancoding.com/sketch -->
    <title>Payment/Payoneer/Payoneer</title>
    <desc>Created with Sketch.</desc>
    <defs></defs>
    <g id="Icons:-Payment" stroke="none" stroke-width="1" fill="none" fill-rule="evenodd" sketch:type="MSPage">
        <g id="Payoneer" sketch:type="MSArtboardGroup" transform="translate(-16.000000, -18.000000)">
            <g id="Payment/Payoneer/Payoneer" sketch:type="MSLayerGroup" transform="translate(16.000000, 18.000000)">
                <path d="M39.7146312,0.0160283655 C39.9366385,0.0655129015 40.1586457,0.139739706 40.380653,0.172729396 C41.3015719,0.321183005 42.0415961,0.816028365 42.6747279,1.46757476 C42.8309553,1.62427579 42.9871826,1.93767785 42.9214027,2.1026263 C42.8474002,2.2840696 42.5513906,2.45726548 42.3293833,2.49025517 C40.2573156,2.79540981 38.2428053,3.33973971 36.31052,4.13973971 C35.1922612,4.60159538 34.0986699,5.16242012 33.0297461,5.73149228 C30.7027811,6.98510053 28.8116082,8.7912861 26.9615478,10.6469562 C25.0045949,12.6098428 23.1792019,14.6881933 21.5840387,16.9562346 C20.5891173,18.3665438 19.6599758,19.8263376 18.7719468,21.3108737 C18.3279323,22.0531418 18.0401451,22.8861315 17.6783555,23.677884 C17.6207981,23.793348 17.4974607,23.9995335 17.4563482,23.9830387 C17.3001209,23.9335541 17.0698912,23.8428325 17.0287787,23.7191211 C16.9301088,23.4139665 16.8314389,23.0593273 16.8889964,22.7541727 C17.201451,21.0964407 17.8921403,19.5706675 18.6568319,18.077884 C20.1451028,15.1912861 22.0116082,12.5603583 24.1905683,10.1686057 C25.4321644,8.80778094 26.714873,7.47994589 28.0386941,6.2098428 C30.0285369,4.28819331 32.2486094,2.66345105 34.7235792,1.4098428 C35.8665054,0.832523211 37.0505441,0.395409809 38.3085852,0.156234551 C38.52237,0.114997438 38.7279323,0.0655129015 38.9334946,0.0242757881 C39.2048368,0.0160283655 39.459734,0.0160283655 39.7146312,0.0160283655 L39.7146312,0.0160283655 Z" id="Shape" fill="#F78223" sketch:type="MSShapeGroup"></path>
                <path d="M0.0411124547,18.4407706 C0.156227328,17.8222139 0.246674728,17.2531418 0.361789601,16.6840696 C0.953808948,13.5582964 1.55405079,10.4407706 2.14607013,7.31499744 C2.18718259,7.11705929 2.24474002,6.98510053 2.44207981,6.95211084 C3.97968561,6.721183 5.52551391,6.55623455 7.06311971,6.94386342 C8.40338573,7.27376032 9.3407497,8.22221393 9.49697703,9.33561599 C9.81765417,11.5541727 8.5267231,13.3273686 6.61088271,13.9624201 C5.59951632,14.292317 4.57170496,14.3747913 3.52744861,14.2758222 C3.28077388,14.2510799 3.20677146,14.3170593 3.16565901,14.5562346 C2.94365175,15.7686057 2.71342201,16.9727294 2.47496977,18.1768531 C2.45852479,18.2758222 2.36807739,18.4325232 2.31051995,18.4325232 C1.56227328,18.4490181 0.830471584,18.4407706 0.0411124547,18.4407706 L0.0411124547,18.4407706 Z M3.57678356,12.3129356 C4.0783555,12.3129356 4.5305925,12.3541727 4.96638452,12.3046882 C5.82152358,12.2139665 6.50399033,11.8263376 6.8904474,11.0098428 C7.32623942,10.0861315 7.01378476,9.10468816 6.19153567,8.81602837 C5.60773881,8.6098428 5.00749698,8.65107991 4.40725514,8.73355414 C4.33325272,8.74180156 4.23458283,8.85726548 4.21813785,8.93149228 C4.01257557,10.0119047 3.8070133,11.1005644 3.57678356,12.3129356 L3.57678356,12.3129356 Z" id="Shape" fill="#616161" sketch:type="MSShapeGroup"></path>
                <path d="M14.6195889,16.8572655 C14.2084643,17.2861315 13.8795647,17.7232449 13.4602177,18.0448943 C12.5968561,18.7129356 11.6101572,18.8613892 10.6152358,18.3995335 C9.62853688,17.9459253 9.22563482,17.063451 9.18452237,16.0242758 C9.09407497,13.8387088 9.85876663,12.0325232 11.6923821,10.778915 C12.8435308,9.98716239 14.1673519,9.74798713 15.5405079,9.82221393 C16.2394196,9.86345105 16.9301088,10.0283995 17.6290206,10.1273686 C17.9085852,10.1686057 17.9496977,10.3253067 17.9003628,10.564482 C17.5879081,12.1974717 17.2590085,13.8222139 16.9958888,15.4552036 C16.8561064,16.321183 16.814994,17.2119047 16.7574365,18.0861315 C16.7409915,18.350049 16.6752116,18.4572655 16.4038694,18.4490181 C15.894075,18.4325232 15.3842805,18.4325232 14.8744861,18.4490181 C14.6113664,18.4572655 14.520919,18.3582964 14.5455865,18.1026263 C14.5784764,17.70675 14.5949214,17.2943789 14.6195889,16.8572655 L14.6195889,16.8572655 Z M15.1951632,11.7603583 C14.3975816,11.5376778 13.7315599,11.6943789 13.1724305,12.164482 C12.1199516,13.0552036 11.6430472,14.2098428 11.7334946,15.5871624 C11.758162,16.0077809 11.9226119,16.4119047 12.3666264,16.593348 C12.8106409,16.7747913 13.2135429,16.6428325 13.5588875,16.3459253 C13.7644498,16.164482 13.9617896,15.9582964 14.1097944,15.7273686 C14.8909311,14.5314923 14.9073761,13.1294304 15.1951632,11.7603583 L15.1951632,11.7603583 Z" id="Shape" fill="#616161" sketch:type="MSShapeGroup"></path>
                <path d="M30.7192261,18.6387088 C28.540266,18.6387088 27.2986699,17.8304614 26.8464329,16.378915 C26.0981862,13.9871624 27.5371221,10.2510799 31.0563482,9.85520362 C32.1088271,9.73973971 33.095526,9.87169847 33.9588875,10.5149974 C34.7811366,11.1253067 35.1840387,11.9830387 35.2415961,12.9974717 C35.3073761,14.0531418 35.1264813,15.0593273 34.6331318,15.9995335 C33.7039903,17.7479871 32.2157195,18.5974717 30.7192261,18.6387088 L30.7192261,18.6387088 Z M29.1898428,15.0428325 C29.1898428,15.1665438 29.1816203,15.2985026 29.1898428,15.4222139 C29.2556227,16.2881933 29.8723096,16.8407706 30.6863362,16.7665438 C31.1385732,16.7253067 31.4921403,16.4861315 31.771705,16.1397397 C32.5035067,15.2077809 32.7830713,14.135616 32.6844015,12.9727294 C32.6021765,12.0242758 31.8868198,11.521183 31.0152358,11.7191211 C30.5876663,11.8180902 30.2669891,12.0820077 30.0120919,12.4283995 C29.44474,13.2119047 29.2145103,14.0943789 29.1898428,15.0428325 L29.1898428,15.0428325 Z" id="Shape" fill="#616161" sketch:type="MSShapeGroup"></path>
                <path d="M37.198549,10.0283995 L39.2870617,10.0283995 C39.2541717,10.4737603 39.2212817,10.9026263 39.1801693,11.3397397 C39.4186215,11.1170593 39.6324063,10.9026263 39.8544135,10.7129356 C40.6684401,10.0036572 41.5975816,9.69025517 42.6747279,9.86345105 C43.562757,10.0119047 44.1794438,10.663451 44.2781137,11.578915 C44.3932285,12.6015954 44.1794438,13.5912861 43.9903265,14.5809768 C43.7600967,15.7768531 43.5380895,16.9727294 43.2996372,18.1603583 C43.2749698,18.2675748 43.1516324,18.4242758 43.0694075,18.4325232 C42.3622733,18.4490181 41.6551391,18.4407706 40.9480048,18.4325232 C40.9151149,18.4325232 40.8822249,18.4077809 40.816445,18.3747913 C40.9480048,17.6902552 41.0795647,16.9974717 41.2029021,16.3046882 C41.3920193,15.2407706 41.5729141,14.1851005 41.737364,13.121183 C41.7702539,12.9397397 41.7538089,12.750049 41.7291415,12.5686057 C41.6633615,11.9335541 41.1946796,11.6448943 40.5862152,11.8345851 C39.9941959,12.0242758 39.6406288,12.4861315 39.3528416,12.9974717 C38.9252721,13.7479871 38.7772672,14.5809768 38.6292624,15.4139665 C38.4648126,16.3294304 38.3085852,17.2366469 38.1276904,18.1521108 C38.103023,18.2593273 37.9796856,18.4242758 37.8974607,18.4325232 C37.1738815,18.4572655 36.4420798,18.4490181 35.6362757,18.4490181 C36.1789601,15.6119047 36.6887545,12.8325232 37.198549,10.0283995 L37.198549,10.0283995 Z" id="Shape" fill="#616161" sketch:type="MSShapeGroup"></path>
                <path d="M47.6575574,15.1418016 C47.6,15.9995335 48.1837969,16.6098428 49.0553809,16.7170593 C49.9022975,16.8160284 50.7163241,16.6840696 51.5056832,16.378915 C51.5879081,16.3459253 51.6783555,16.3129356 51.7688029,16.2799459 C51.7852479,16.2716985 51.8099154,16.2799459 51.8756953,16.2799459 C51.9250302,16.7830387 51.9825877,17.2861315 52.0072551,17.7892242 C52.0154776,17.8881933 51.9003628,18.0448943 51.8016929,18.0861315 C50.4285369,18.6469562 49.0060459,18.8448943 47.5588875,18.4737603 C46.210399,18.1273686 45.4703748,17.1541727 45.32237,15.793348 C45.1085852,13.8716985 45.6677146,12.1892242 47.1559855,10.9191211 C48.3811366,9.87169847 49.8200726,9.54180156 51.3823458,10.0119047 C52.4266022,10.3253067 53.010399,11.1088119 53.0844015,12.1892242 C53.1584039,13.2531418 52.6979444,14.0696366 51.7112455,14.564482 C50.9383313,14.9521108 50.1078597,15.092317 49.2609432,15.1418016 C48.7347037,15.1665438 48.2002418,15.1418016 47.6575574,15.1418016 L47.6575574,15.1418016 Z M47.8960097,13.3521108 C48.5291415,13.4840696 49.828295,13.3273686 50.329867,13.063451 C50.6752116,12.8820077 50.8478839,12.593348 50.7903265,12.2469562 C50.732769,11.892317 50.4943168,11.7191211 50.1654172,11.6366469 C49.1869407,11.3974717 48.0275695,12.2552036 47.8960097,13.3521108 L47.8960097,13.3521108 Z" id="Shape" fill="#616161" sketch:type="MSShapeGroup"></path>
                <path d="M55.8718259,15.1747913 C55.7978235,15.9830387 56.3733978,16.6015954 57.2532044,16.7170593 C58.0754534,16.8160284 58.8648126,16.692317 59.6377267,16.4119047 C59.7692866,16.3624201 59.8926239,16.3129356 60.0652963,16.2469562 C60.1146312,16.7830387 60.1804111,17.2861315 60.2050786,17.7892242 C60.2133011,17.8881933 60.0981862,18.0448943 60.0077388,18.0861315 C58.6099154,18.663451 57.1709794,18.8613892 55.6991536,18.4572655 C54.3753325,18.0943789 53.6846433,17.1294304 53.5201935,15.8098428 C53.3146312,14.1191211 53.7504232,12.593348 54.9262394,11.3397397 C56.192503,9.99540981 57.7465538,9.51705929 59.5390568,10.0119047 C60.6326481,10.3170593 61.216445,11.1088119 61.2822249,12.2222139 C61.3480048,13.3108737 60.8546554,14.1273686 59.826844,14.6057191 C58.7908102,15.0840696 57.6889964,15.1582964 56.5707376,15.1830387 C56.3487304,15.1747913 56.1185006,15.1747913 55.8718259,15.1747913 L55.8718259,15.1747913 Z M56.1102781,13.4180902 C56.6365175,13.3851005 57.129867,13.3768531 57.614994,13.3108737 C57.9438936,13.2696366 58.2727932,13.1706675 58.5688029,13.0304614 C58.88948,12.8902552 59.0457074,12.593348 58.9963724,12.2304614 C58.9470375,11.8840696 58.7168077,11.7191211 58.3961306,11.6366469 C57.4258767,11.3727294 56.2171705,12.263451 56.1102781,13.4180902 L56.1102781,13.4180902 Z" id="Shape" fill="#616161" sketch:type="MSShapeGroup"></path>
                <path d="M61.4220073,18.4407706 C61.5288996,17.8304614 61.6275695,17.277884 61.7344619,16.7170593 C62.1620314,14.5809768 62.5978235,12.4448943 62.7787183,10.2593273 C62.7869407,10.1686057 62.9102781,10.0201521 62.976058,10.0119047 C63.6009674,9.99540981 64.2258767,10.0036572 64.9001209,10.0036572 C64.850786,10.5892242 64.8096735,11.1418016 64.7685611,11.6861315 C65.5250302,10.5727294 66.3966143,9.6655129 67.9588875,9.83046136 C67.8026602,10.6139665 67.6711004,11.3397397 67.514873,12.0572655 C67.4984281,12.1149974 67.3915357,12.1892242 67.3257557,12.1974717 C65.705925,12.4119047 65.0234583,12.9892242 64.6205562,14.6552036 C64.3409915,15.8098428 64.1518742,16.9974717 63.913422,18.1686057 C63.896977,18.2675748 63.8065296,18.4242758 63.7489722,18.4242758 C62.992503,18.4490181 62.2360339,18.4407706 61.4220073,18.4407706 L61.4220073,18.4407706 Z" id="Shape" fill="#616161" sketch:type="MSShapeGroup"></path>
                <path d="M21.756711,7.9912861 C21.7320435,9.14592527 21.5347037,10.2593273 21.1400242,11.3314923 C21.0989117,11.4469562 21.0166868,11.5459253 20.9344619,11.6448943 C20.7535671,11.8840696 20.5562273,11.9088119 20.416445,11.6448943 C20.2355502,11.2985026 20.0875453,10.9273686 19.9970979,10.5562346 C19.7339782,9.39334795 19.4873035,8.22221393 19.2652963,7.04283249 C18.9775091,5.54180156 18.7226119,4.03252321 18.4594921,2.53149228 C18.4183797,2.31705929 18.4019347,2.09437888 18.3854897,1.87994589 C18.3690447,1.63252321 18.5088271,1.50881187 18.7226119,1.5912861 C18.9363966,1.6655129 19.1501814,1.78922424 19.3064087,1.94592527 C20.6137848,3.33973971 21.4360339,4.96448197 21.6580411,6.87788404 C21.7073761,7.24901806 21.723821,7.62015208 21.756711,7.9912861 L21.756711,7.9912861 Z" id="Shape" fill="#F78223" sketch:type="MSShapeGroup"></path>
            </g>
        </g>
    </g>
</svg>