<?xml version="1.0" encoding="UTF-8" standalone="no"?>
<svg width="56px" height="20px" viewBox="0 0 56 20" version="1.1" xmlns="http://www.w3.org/2000/svg" xmlns:xlink="http://www.w3.org/1999/xlink" xmlns:sketch="http://www.bohemiancoding.com/sketch/ns">
    <!-- Generator: Sketch 3.3.3 (12081) - http://www.bohemiancoding.com/sketch -->
    <title>Payment/Bitpay/Bitpay-flat</title>
    <desc>Created with Sketch.</desc>
    <defs></defs>
    <g id="Icons:-Payment" stroke="none" stroke-width="1" fill="none" fill-rule="evenodd" sketch:type="MSPage">
        <g id="Bitpay-flat" sketch:type="MSArtboardGroup" transform="translate(-22.000000, -20.000000)" fill="#9B9B9B">
            <g id="Payment/Bitpay/Bitpay-flat" sketch:type="MSLayerGroup" transform="translate(22.000000, 20.000000)">
                <path d="M55.9655726,4.82985075 L53.0611082,4.82985075 L51.3716517,12.0095522 L51.3746069,12.0095522 L51.1424802,12.9971642 C50.9803905,13.0431343 50.8190396,13.0844776 50.6588707,13.1168657 C50.3581847,13.1776119 50.0474512,13.2080597 49.7266702,13.2080597 C49.3522533,13.2080597 49.0582164,13.1541791 48.8445594,13.0459701 C48.6306069,12.9380597 48.4803377,12.7862687 48.3934565,12.5902985 C48.3064274,12.3947761 48.2731821,12.1619403 48.293277,11.8916418 C48.313372,11.621791 48.3634617,11.3316418 48.4436939,11.0208955 L49.325657,7.29477612 L49.9070818,4.8241791 L49.9072296,4.82343284 L46.9399683,4.82343284 L45.5968549,10.5552239 C45.4365383,11.2437313 45.3428602,11.8986567 45.3162639,12.5195522 C45.2892243,13.140597 45.3829024,13.6908955 45.5968549,14.1698507 C45.8105119,14.6492537 46.1713351,15.0274627 46.6794723,15.3040299 C47.1871662,15.5804478 47.9023113,15.7191045 48.8244644,15.7191045 C49.4660264,15.7191045 50.0205594,15.6650746 50.4885066,15.5570149 C50.5074195,15.5526866 50.5255937,15.5480597 50.5440633,15.5434328 L50.5427335,15.548806 C50.4127071,16.1401493 50.1494037,16.6197015 49.7268179,16.9940299 C49.3037889,17.3686567 48.6761161,17.5559701 47.8437995,17.5559701 C47.4884433,17.5559701 47.1655937,17.5346269 46.8730343,17.4937313 L46.3013615,19.9232836 C46.6880422,19.9738806 47.116686,20 47.5901003,20 C48.4745752,20 49.2488232,19.8979104 49.9122533,19.6943284 C50.5756834,19.490597 51.1445488,19.1819403 51.6194406,18.7679104 C52.0941847,18.3540299 52.4909129,17.8347761 52.8097731,17.2110448 C53.1283377,16.5867164 53.3852876,15.8479104 53.5804749,14.9935821 L55.5902691,6.45910448 C55.5877573,6.45791045 55.5853931,6.45701493 55.583029,6.45597015 L55.9655726,4.82985075" id="Fill-1" sketch:type="MSShapeGroup"></path>
                <path d="M41.7191135,7.29701493 C40.3647704,7.29701493 40.1061953,7.29701493 39.551219,7.58776119 C39.1572982,7.79402985 38.8311979,8.1041791 38.5448443,8.46597015 C38.2581953,8.82791045 38.0336042,9.24552239 37.8709235,9.71910448 C37.7077995,10.1929851 37.626533,10.6862687 37.626533,11.199403 C37.626533,11.8308955 37.7307018,12.331194 37.9393351,12.699403 C38.1473773,13.0679104 38.5318417,13.2519403 39.0919894,13.2519403 C39.3914934,13.2519403 39.6617414,13.1928358 39.9028813,13.0743284 C40.1437256,12.9559701 40.4011187,12.7585075 40.6746174,12.4822388 C40.7006227,12.1535821 40.743029,11.808209 40.8016887,11.4461194 C40.8602005,11.0844776 40.9345224,10.7491045 40.9998311,10.4461194 L41.7191135,7.29701493 M43.7813615,10.9625373 C43.5987335,11.7126866 43.546723,12.4658209 43.6248865,13.2223881 C43.7031979,13.9792537 43.9896992,15.1386567 44.2691082,15.7191045 L41.4583219,15.7191045 C41.114934,15.1323881 41.1304485,14.8574627 41.0654354,14.6729851 C40.7006227,14.9758209 40.2968021,15.2256716 39.8541214,15.4229851 C39.4111451,15.6202985 38.9161583,15.7191045 38.3690132,15.7191045 C37.7176992,15.7191045 37.1608021,15.6037313 36.6986174,15.3737313 C36.2359894,15.1435821 35.8583219,14.8343284 35.5653193,14.4461194 C35.2721689,14.058209 35.060285,13.6041791 34.9304063,13.0843284 C34.7999367,12.5646269 34.7349235,12.0086567 34.7349235,11.4165672 C34.7349235,10.5086567 34.8942058,9.65343284 35.213657,8.85089552 C35.5326649,8.04835821 35.9756412,7.34761194 36.5422902,6.74880597 C37.1087916,6.15014925 38.476285,4.83 40.7202744,4.83 C41.6900053,4.83 42.993372,4.82985075 45.2264274,4.82985075 L43.7813615,10.9625373" id="Fill-2" sketch:type="MSShapeGroup"></path>
                <path d="M26.7869129,13.2147761 C27.0098786,13.2679104 27.2851504,13.2943284 27.6131715,13.2943284 C28.1245594,13.2943284 28.589847,13.1983582 29.0097731,13.0062687 C29.4292559,12.8143284 29.7866807,12.5461194 30.081752,12.2014925 C30.3768232,11.8571642 30.6059947,11.4434328 30.770153,10.9597015 C30.9338681,10.4762687 31.0160211,9.94328358 31.0160211,9.36029851 C31.0160211,8.79089552 30.891314,8.30716418 30.642343,7.90985075 C30.3930765,7.51238806 29.9561583,7.30119403 29.3398628,7.29865672 C28.9090026,7.29701493 28.1934142,7.29701493 28.1934142,7.29701493 L26.7869129,13.2147761 L26.7869129,13.2147761 Z M33.9271346,9.14164179 C33.9271346,10.108806 33.7697731,10.9929851 33.4550501,11.7941791 C33.1404749,12.5958209 32.7042955,13.2879104 32.1471029,13.8704478 C31.589467,14.4535821 30.9207177,14.9071642 30.1407071,15.2316418 C29.3604011,15.5559701 28.5112401,15.7183582 27.593372,15.7183582 C27.1474406,15.7183582 26.7015092,15.6786567 26.2558734,15.5991045 L25.3706596,19.1953731 L22.4595462,19.1953731 L25.8387546,4.83014925 C26.330343,4.82985075 28.9310185,4.83014925 29.7178259,4.83014925 C30.4520317,4.83014925 31.084876,4.94283582 31.6159156,5.16791045 C32.1471029,5.39328358 32.5828391,5.70119403 32.9240106,6.09179104 C33.2647388,6.48268657 33.5171082,6.93970149 33.6812665,7.46268657 C33.8449815,7.98626866 33.9271346,8.54567164 33.9271346,9.14164179 L33.9271346,9.14164179 Z" id="Fill-3" sketch:type="MSShapeGroup"></path>
                <path d="M20.6730132,13.2101493 C20.2987441,13.2101493 20.0045594,13.1564179 19.7910501,13.048209 C19.5769499,12.9402985 19.4266807,12.7883582 19.3399472,12.5925373 C19.2527704,12.3970149 19.2196728,12.1640299 19.2396201,11.8938806 C19.259715,11.6240299 19.3098047,11.3338806 19.3900369,11.0231343 L20.2721478,7.29701493 L23.5799894,7.29701493 L24.1813615,4.82641791 L20.8534248,4.82641791 L21.6152612,1.68746269 L18.5079261,2.17358209 L16.5431979,10.5573134 C16.3828813,11.2458209 16.2892032,11.9008955 16.2626069,12.5216418 C16.2355673,13.1428358 16.3292454,13.6929851 16.5431979,14.1720896 C16.7568549,14.6514925 17.1176781,15.0295522 17.6258153,15.3061194 C18.1335092,15.5826866 18.8486544,15.721194 19.7709551,15.721194 C20.4123694,15.721194 20.9669024,15.6671642 21.4348496,15.5592537 C21.4831662,15.5480597 21.5566016,15.5301493 21.6041794,15.5185075 L22.2090976,12.9625373 C22.0059314,13.0325373 21.8018786,13.079403 21.6052137,13.1191045 C21.3045277,13.1798507 20.9937942,13.2101493 20.6730132,13.2101493" id="Fill-4" sketch:type="MSShapeGroup"></path>
                <path d="M13.2646121,4.82358209 L10.7004327,15.721194 L13.6050449,15.721194 L16.1692243,4.82358209 L13.2646121,4.82358209" id="Fill-5" sketch:type="MSShapeGroup"></path>
                <path d="M16.470058,3.56358209 L16.9155462,1.67059701 L14.010934,1.67059701 L13.5654459,3.56358209 L16.470058,3.56358209" id="Fill-6" sketch:type="MSShapeGroup"></path>
                <path d="M4.28392612,13.2886567 C4.74020053,13.2886567 5.17061741,13.1768657 5.57488127,12.9528358 C5.97899736,12.7289552 6.32814776,12.4291045 6.62159367,12.0537313 C6.91489182,11.678209 7.14627968,11.2534328 7.31590501,10.7792537 C7.48523483,10.3050746 7.57019525,9.81104478 7.57019525,9.29716418 C7.57019525,8.66492537 7.46573087,8.17089552 7.25724538,7.81537313 C7.04846438,7.45955224 6.61479683,7.29701493 6.05435356,7.29701493 C5.87157784,7.29701493 5.68259631,7.31477612 5.3891504,7.38059701 C5.09570449,7.44671642 4.84259631,7.58343284 4.60795778,7.79402985 L3.33251715,13.2143284 C3.70974142,13.2810448 3.84035884,13.2886567 3.93182058,13.2886567 L4.28392612,13.2886567 L4.28392612,13.2886567 Z M6.8268285,4.83164179 C7.45287599,4.83164179 7.9938153,4.94373134 8.45053298,5.16761194 C8.90680739,5.39164179 9.28491821,5.69447761 9.58501319,6.07641791 C9.88481266,6.45865672 10.1064485,6.90626866 10.2500686,7.42014925 C10.3933931,7.9338806 10.4653509,8.48716418 10.4653509,9.07985075 C10.4653509,9.98880597 10.299124,10.8483582 9.96652243,11.6585075 C9.63392084,12.4686567 9.18074934,13.1734328 8.60700792,13.7728358 C8.03297098,14.3723881 7.35506069,14.8465672 6.57253826,15.1953731 C5.79016359,15.5443284 4.94233245,15.7191045 4.02963588,15.7191045 C3.91231662,15.7191045 3.70693404,15.7156716 3.41348813,15.7092537 C3.12004222,15.7023881 2.78404222,15.6728358 2.4059314,15.6202985 C2.02767282,15.5674627 1.62665963,15.4885075 1.20303958,15.3831343 C0.778976253,15.2779104 0.378110818,15.1331343 0,14.9485075 L3.38408443,0.583283582 L6.41621108,0.109104478 L5.21819525,5.20029851 C5.47883905,5.08179104 5.72470712,4.99656716 5.9857942,4.93044776 C6.24643799,4.86462687 6.52673351,4.83164179 6.8268285,4.83164179 L6.8268285,4.83164179 Z" id="Fill-7" sketch:type="MSShapeGroup"></path>
            </g>
        </g>
    </g>
</svg>