<?xml version="1.0" encoding="UTF-8" standalone="no"?>
<svg width="76px" height="22px" viewBox="0 0 76 22" version="1.1" xmlns="http://www.w3.org/2000/svg" xmlns:xlink="http://www.w3.org/1999/xlink" xmlns:sketch="http://www.bohemiancoding.com/sketch/ns">
    <!-- Generator: Sketch 3.3.3 (12081) - http://www.bohemiancoding.com/sketch -->
    <title>Payment/Shopify/Shopify</title>
    <desc>Created with Sketch.</desc>
    <defs></defs>
    <g id="Icons:-Payment" stroke="none" stroke-width="1" fill="none" fill-rule="evenodd" sketch:type="MSPage">
        <g id="Shopify" sketch:type="MSArtboardGroup" transform="translate(-12.000000, -19.000000)">
            <g id="Payment/Shopify/Shopify" sketch:type="MSLayerGroup" transform="translate(12.000000, 19.000000)">
                <path d="M8.69792857,0.78375 C8.81549107,0.78375 8.93390179,0.824140625 9.04722321,0.903203125 C8.17441071,1.3193125 7.23883036,2.36740625 6.84373214,4.46032812 C6.26626786,4.64148437 5.70186607,4.81851562 5.18004464,4.9823125 C5.64283036,3.3859375 6.74177679,0.78375 8.69792857,0.78375 L8.69792857,0.78375 Z M9.507125,1.55976562 C9.6745625,1.98498437 9.78347321,2.59514062 9.78347321,3.41859375 C9.78347321,3.46070312 9.78313393,3.49920312 9.78279464,3.53821875 C9.11983036,3.7461875 8.39986607,3.97203125 7.67803571,4.1985625 C8.0833125,2.613875 8.84297321,1.84851562 9.507125,1.55976562 L9.507125,1.55976562 Z M11.5162054,2.99475 C11.2137321,3.089625 10.8698661,3.19739062 10.4971607,3.31426562 C10.4975,3.2415625 10.4976696,3.16989062 10.4976696,3.0916875 C10.4976696,2.40934375 10.4043661,1.86003125 10.2542321,1.4245 C10.8568036,1.50115625 11.2580089,2.19553125 11.5162054,2.99475 L11.5162054,2.99475 Z M16.4073482,4.20939062 C16.3927589,4.10179687 16.2997946,4.04232812 16.2229464,4.03579687 C16.1462679,4.02926562 14.523125,3.90740625 14.523125,3.90740625 C14.523125,3.90740625 13.3958482,2.77354687 13.2721786,2.64807812 C13.1483393,2.52278125 12.9065982,2.56076562 12.8127857,2.58878125 C12.798875,2.59290625 12.5664643,2.66560937 12.1818839,2.78609375 C11.8052768,1.68832812 11.1407857,0.679421875 9.97160714,0.679421875 C9.939375,0.679421875 9.906125,0.680796875 9.872875,0.6826875 C9.540375,0.2371875 9.12848214,0.04365625 8.77274107,0.04365625 C6.04929464,0.04365625 4.74813393,3.49301562 4.34014286,5.24596875 C3.28191071,5.57820312 2.53005357,5.81435937 2.43403571,5.84495312 C1.84316964,6.03264062 1.82467857,6.05154687 1.74715179,6.61546875 C1.688625,7.04240625 0.143008929,19.1527187 0.143008929,19.1527187 L12.1868036,21.439 L18.712625,20.0086562 C18.712625,20.0086562 16.4217679,4.31698437 16.4073482,4.20939062 L16.4073482,4.20939062 Z" id="Fill-3" fill="#8CB849" sketch:type="MSShapeGroup"></path>
                <path d="M16.2229464,4.03579688 C16.1462679,4.02926563 14.523125,3.90740625 14.523125,3.90740625 C14.523125,3.90740625 13.3958482,2.77354688 13.2721786,2.64825 C13.2258661,2.60132813 13.1634375,2.5774375 13.098125,2.567125 L12.1874821,21.4388281 L18.712625,20.0086563 C18.712625,20.0086563 16.4217679,4.31715625 16.4073482,4.20939063 C16.3927589,4.10179688 16.2997946,4.04232813 16.2229464,4.03579688" id="Fill-4" fill="#5A873D" sketch:type="MSShapeGroup"></path>
                <path d="M9.97160714,7.689 L9.16699107,10.1139844 C9.16699107,10.1139844 8.46195536,9.73276562 7.59779464,9.73276562 C6.33090179,9.73276562 6.26711607,10.5383437 6.26711607,10.7413281 C6.26711607,11.8488906 9.11660714,12.27325 9.11660714,14.8675312 C9.11660714,16.9085469 7.83902679,18.222875 6.11613393,18.222875 C4.04852679,18.222875 2.99148214,16.9192031 2.99148214,16.9192031 L3.54502679,15.0662187 C3.54502679,15.0662187 4.63175893,16.0115312 5.54884821,16.0115312 C6.14785714,16.0115312 6.39180357,15.5335469 6.39180357,15.1842969 C6.39180357,13.7395156 4.05395536,13.6750625 4.05395536,11.301125 C4.05395536,9.30307812 5.46928571,7.36948437 8.32675,7.36948437 C9.42773214,7.36948437 9.97160714,7.689 9.97160714,7.689" id="Fill-5" fill="#FFFFFF" sketch:type="MSShapeGroup"></path>
                <path d="M26.3199196,12.2350937 C25.6691696,11.87725 25.3344643,11.5757812 25.3344643,11.1612187 C25.3344643,10.6337344 25.7992857,10.294625 26.5245089,10.294625 C27.3691607,10.294625 28.1235625,10.6526406 28.1235625,10.6526406 L28.7186696,8.80635937 C28.7186696,8.80635937 28.1715714,8.3730625 26.5616607,8.3730625 C24.3210179,8.3730625 22.7682768,9.67295312 22.7682768,11.5005 C22.7682768,12.5365625 23.4935,13.327875 24.4604643,13.893 C25.2415,14.3450312 25.5203929,14.6654062 25.5203929,15.1365156 C25.5203929,15.6263594 25.129875,16.0218437 24.4046518,16.0218437 C23.3243661,16.0218437 22.3034554,15.4567187 22.3034554,15.4567187 L21.6711964,17.303 C21.6711964,17.303 22.6139018,17.9434062 24.2000625,17.9434062 C26.5060179,17.9434062 28.1608839,16.79425 28.1608839,14.7219531 C28.1608839,13.6104375 27.3240357,12.819125 26.3199196,12.2350937" id="Fill-6" fill="#000000" sketch:type="MSShapeGroup"></path>
                <path d="M35.5057411,8.35415625 C34.3715089,8.35415625 33.4790179,8.90054687 32.7909464,9.7295 L32.7537946,9.71059375 L33.73925,4.492125 L31.1732321,4.492125 L28.6815179,17.7739375 L31.2475357,17.7739375 L32.1030446,13.2336875 C32.43775,11.5192344 33.3115804,10.4642656 34.1297679,10.4642656 C34.7062143,10.4642656 34.9294643,10.85975 34.9294643,11.4250469 C34.9294643,11.7828906 34.8921429,12.2161875 34.8178393,12.5742031 L33.850875,17.7739375 L36.4170625,17.7739375 L37.4210089,12.4047344 C37.5326339,11.8394375 37.6071071,11.1612187 37.6071071,10.7091875 C37.6071071,9.23965625 36.8445625,8.35415625 35.5057411,8.35415625" id="Fill-7" fill="#000000" sketch:type="MSShapeGroup"></path>
                <path d="M42.144375,15.9652969 C41.270375,15.9652969 40.8985179,15.2117969 40.8985179,14.2699219 C40.8985179,12.7814844 41.6608929,10.3511719 43.0555268,10.3511719 C43.9665089,10.3511719 44.2640625,11.1424844 44.2640625,11.9148906 C44.2640625,13.51625 43.5016875,15.9652969 42.144375,15.9652969 L42.144375,15.9652969 Z M43.4087232,8.35415625 C40.3220714,8.35415625 38.2766875,11.180125 38.2766875,14.3262969 C38.2766875,16.3422187 39.5038839,17.9623125 41.8096696,17.9623125 C44.8405089,17.9623125 46.8858929,15.2117969 46.8858929,11.9901719 C46.8858929,10.1251562 45.8074732,8.35415625 43.4087232,8.35415625 L43.4087232,8.35415625 Z" id="Fill-8" fill="#000000" sketch:type="MSShapeGroup"></path>
                <path d="M50.9956607,16.0029375 C50.3293036,16.0029375 49.9357321,15.6263594 49.9357321,15.6263594 L50.3634018,13.195875 C50.6609554,11.5757812 51.4976339,10.5019062 52.3902946,10.5019062 C53.1711607,10.5019062 53.4129018,11.2366719 53.4129018,11.933625 C53.4129018,13.6104375 52.4274464,16.0029375 50.9956607,16.0029375 L50.9956607,16.0029375 Z M53.4502232,8.35415625 C51.7183393,8.35415625 50.7352589,9.89896875 50.7352589,9.89896875 L50.6981071,9.89896875 L50.8468839,8.50489062 L48.5784196,8.50489062 C48.4667946,9.4469375 48.2622054,10.8786562 48.0576161,11.9525312 L46.2724643,21.4665 L48.8386518,21.4665 L49.5452143,17.6232031 L49.6010268,17.6232031 C49.6010268,17.6232031 50.1279375,17.9623125 51.1072857,17.9623125 C54.1196339,17.9623125 56.0905446,14.8350469 56.0905446,11.6699687 C56.0905446,9.917875 55.3281696,8.35415625 53.4502232,8.35415625 L53.4502232,8.35415625 Z" id="Fill-9" fill="#000000" sketch:type="MSShapeGroup"></path>
                <path d="M59.7539821,4.62395313 C58.9359643,4.62395313 58.2850446,5.28326563 58.2850446,6.131125 C58.2850446,6.90353125 58.7685268,7.4311875 59.49375,7.4311875 L59.5309018,7.4311875 C60.3304286,7.4311875 61.0185,6.884625 61.0371607,5.92401563 C61.0371607,5.17034375 60.5350179,4.62395313 59.7539821,4.62395313" id="Fill-10" fill="#000000" sketch:type="MSShapeGroup"></path>
                <path d="M56.1651875,17.7739375 L58.731375,17.7739375 L60.4792054,8.5614375 L57.8945268,8.5614375 L56.1651875,17.7739375" id="Fill-11" fill="#000000" sketch:type="MSShapeGroup"></path>
                <path d="M67.005875,8.54253125 L65.2207232,8.54253125 L65.3136875,8.10923438 C65.4624643,7.22390625 65.9830982,6.43259375 66.8386071,6.43259375 C67.2952857,6.43259375 67.656625,6.56442188 67.656625,6.56442188 L68.1587679,4.52976563 C68.1587679,4.52976563 67.7124375,4.30375 66.7641339,4.30375 C65.8529821,4.30375 64.9418304,4.56757813 64.2537589,5.17034375 C63.3799286,5.92401563 62.97075,7.016625 62.7663304,8.10923438 L62.6918571,8.54253125 L61.5018125,8.54253125 L61.1299554,10.5019063 L62.32,10.5019063 L60.9625179,17.7739375 L63.5285357,17.7739375 L64.8860179,10.5019063 L66.6525089,10.5019063 L67.005875,8.54253125" id="Fill-12" fill="#000000" sketch:type="MSShapeGroup"></path>
                <path d="M73.1793482,8.5614375 C73.1793482,8.5614375 71.575375,12.6563594 70.8550714,14.8915938 L70.8179196,14.8915938 C70.7685536,14.1719531 70.1856607,8.5614375 70.1856607,8.5614375 L67.4893571,8.5614375 L69.0327679,17.0204375 C69.0699196,17.2086406 69.0514286,17.3217344 68.9769554,17.4537344 C68.6794018,18.0377656 68.1774286,18.6028906 67.5823214,19.0172813 C67.0990089,19.3752969 66.5597143,19.6013125 66.1320446,19.7520469 L66.8386071,21.9563438 C67.3592411,21.84325 68.4378304,21.4099531 69.3488125,20.5433594 C70.5203661,19.4318438 71.5987857,17.7173906 72.7145268,15.3812656 L75.8569911,8.5614375 L73.1793482,8.5614375" id="Fill-13" fill="#000000" sketch:type="MSShapeGroup"></path>
            </g>
        </g>
    </g>
</svg>