<?xml version="1.0" encoding="UTF-8" standalone="no"?>
<svg width="100px" height="60px" viewBox="0 0 100 60" version="1.1" xmlns="http://www.w3.org/2000/svg" xmlns:xlink="http://www.w3.org/1999/xlink" xmlns:sketch="http://www.bohemiancoding.com/sketch/ns">
    <!-- Generator: Sketch 3.3.3 (12081) - http://www.bohemiancoding.com/sketch -->
    <title>Payment/Shopify/Shopify-card-flat</title>
    <desc>Created with Sketch.</desc>
    <defs></defs>
    <g id="Icons:-Payment" stroke="none" stroke-width="1" fill="none" fill-rule="evenodd" sketch:type="MSPage">
        <g id="Shopify-card-flat" sketch:type="MSArtboardGroup" fill="#9B9B9B">
            <g id="Payment/Shopify/Shopify-card-flat" sketch:type="MSLayerGroup">
                <path d="M0,4.0065556 C0,1.79379604 1.79952991,0 3.99732351,0 L96.0026765,0 C98.2103373,0 100,1.79568082 100,4.0065556 L100,55.9934444 C100,58.206204 98.2004701,60 96.0026765,60 L3.99732351,60 C1.78966269,60 0,58.2043192 0,55.9934444 L0,4.0065556 Z M20.6979286,19.78375 C20.8154911,19.78375 20.9339018,19.8241406 21.0472232,19.9032031 C20.1744107,20.3193125 19.2388304,21.3674063 18.8437321,23.4603281 C18.2662679,23.6414844 17.7018661,23.8185156 17.1800446,23.9823125 C17.6428304,22.3859375 18.7417768,19.78375 20.6979286,19.78375 Z M21.507125,20.5597656 C21.6745625,20.9849844 21.7834732,21.5951406 21.7834732,22.4185937 C21.7834732,22.4607031 21.7831339,22.4992031 21.7827946,22.5382187 C21.1198304,22.7461875 20.3998661,22.9720312 19.6780357,23.1985625 C20.0833125,21.613875 20.8429732,20.8485156 21.507125,20.5597656 L21.507125,20.5597656 L21.507125,20.5597656 Z M23.5162054,21.99475 C23.2137321,22.089625 22.8698661,22.1973906 22.4971607,22.3142656 C22.4975,22.2415625 22.4976696,22.1698906 22.4976696,22.0916875 C22.4976696,21.4093438 22.4043661,20.8600313 22.2542321,20.4245 C22.8568036,20.5011563 23.2580089,21.1955313 23.5162054,21.99475 L23.5162054,21.99475 L23.5162054,21.99475 Z M26.5190288,22.9032861 C26.4450185,22.8288423 25.3914956,21.769131 25.2721786,21.6480781 C25.2513991,21.6270541 25.2273001,21.6106271 25.2011374,21.5979789 C25.2272282,21.6106803 25.2513355,21.6271327 25.2721786,21.64825 C25.3914903,21.7691316 26.444925,22.8287485 26.5190189,22.9032762 L26.5190288,22.9032861 Z M17.6881462,20.9874551 C16.9714263,22.0689141 16.5441384,23.3694922 16.3401429,24.2459687 C15.2819107,24.5782031 14.5300536,24.8143594 14.4340357,24.8449531 C13.8431696,25.0326406 13.8246786,25.0515469 13.7471518,25.6154687 C13.688625,26.0424062 12.1430089,38.1527187 12.1430089,38.1527187 L24.1868036,40.439 L30.712625,39.0086562 C30.712625,39.0086562 28.4217679,23.3169844 28.4073482,23.2093906 C28.4000536,23.1555937 28.3731652,23.1138281 28.3384944,23.0846953 C28.3731652,23.1138281 28.4000536,23.1555937 28.4073482,23.2093906 C28.414558,23.2631875 28.9908772,27.2130039 29.565394,31.1493711 C30.1399107,35.0857813 30.712625,39.0086563 30.712625,39.0086563 L24.1874821,40.4388281 L24.6428036,31.0029766 L24.1874821,40.4388281 L30.712625,39.0086563 C30.712625,39.0086563 28.4217679,23.3171563 28.4073482,23.2093906 C28.3927589,23.1017969 28.2997946,23.0423281 28.2229464,23.0357969 C28.1510603,23.0296738 26.719977,22.9221882 26.5413724,22.9087764 C26.523125,22.9074062 26.523125,22.9074062 26.523125,22.9074062 C26.523125,22.9074062 26.5247101,22.9075253 26.5277836,22.907756 C26.5247145,22.9075256 26.523125,22.9074063 26.523125,22.9074063 C26.523125,22.9074063 26.2413058,22.6239414 25.9440279,22.3248145 C25.6468943,22.0257898 25.3340277,21.710827 25.2721786,21.6480781 C25.1483393,21.5227812 24.9065982,21.5607656 24.8127857,21.5887812 C24.798875,21.5929062 24.5664643,21.6656094 24.1818839,21.7860937 C23.8052768,20.6883281 23.1407857,19.6794219 21.9716071,19.6794219 C21.939375,19.6794219 21.906125,19.6807969 21.872875,19.6826875 C21.540375,19.2371875 21.1284821,19.0436562 20.7727411,19.0436562 C19.4110179,19.0436562 18.4048661,19.9059961 17.6881462,20.9874551 Z M28.3384944,23.0846953 C28.3038237,23.0555625 28.2613705,23.0390625 28.2229464,23.0357969 C28.1510603,23.0296738 26.719977,22.9221882 26.5413724,22.9087764 C26.523125,22.9074062 26.523125,22.9074062 26.523125,22.9074062 C26.523125,22.9074062 28.1462679,23.0292656 28.2229464,23.0357969 C28.2613705,23.0390625 28.3038237,23.0555625 28.3384944,23.0846953 L28.3384944,23.0846953 Z M21.9716071,26.689 L21.1669911,29.1139844 C21.1669911,29.1139844 20.4619554,28.7327656 19.5977946,28.7327656 C18.3309018,28.7327656 18.2671161,29.5383437 18.2671161,29.7413281 C18.2671161,30.8488906 21.1166071,31.27325 21.1166071,33.8675312 C21.1166071,35.9085469 19.8390268,37.222875 18.1161339,37.222875 C16.0485268,37.222875 14.9914821,35.9192031 14.9914821,35.9192031 L15.5450268,34.0662187 C15.5450268,34.0662187 16.6317589,35.0115312 17.5488482,35.0115312 C18.1478571,35.0115312 18.3918036,34.5335469 18.3918036,34.1842969 C18.3918036,32.7395156 16.0539554,32.6750625 16.0539554,30.301125 C16.0539554,28.3030781 17.4692857,26.3694844 20.32675,26.3694844 C21.4277321,26.3694844 21.9716071,26.689 21.9716071,26.689 Z M38.3199196,31.2350937 C37.6691696,30.87725 37.3344643,30.5757812 37.3344643,30.1612187 C37.3344643,29.6337344 37.7992857,29.294625 38.5245089,29.294625 C39.3691607,29.294625 40.1235625,29.6526406 40.1235625,29.6526406 L40.7186696,27.8063594 C40.7186696,27.8063594 40.1715714,27.3730625 38.5616607,27.3730625 C36.3210179,27.3730625 34.7682768,28.6729531 34.7682768,30.5005 C34.7682768,31.5365625 35.4935,32.327875 36.4604643,32.893 C37.2415,33.3450312 37.5203929,33.6654062 37.5203929,34.1365156 C37.5203929,34.6263594 37.129875,35.0218437 36.4046518,35.0218437 C35.3243661,35.0218437 34.3034554,34.4567187 34.3034554,34.4567187 L33.6711964,36.303 C33.6711964,36.303 34.6139018,36.9434062 36.2000625,36.9434062 C38.5060179,36.9434062 40.1608839,35.79425 40.1608839,33.7219531 C40.1608839,32.6104375 39.3240357,31.819125 38.3199196,31.2350937 Z M47.5057411,27.3541562 C46.3715089,27.3541562 45.4790179,27.9005469 44.7909464,28.7295 L44.7537946,28.7105937 L45.73925,23.492125 L43.1732321,23.492125 L40.6815179,36.7739375 L43.2475357,36.7739375 L44.1030446,32.2336875 C44.43775,30.5192344 45.3115804,29.4642656 46.1297679,29.4642656 C46.7062143,29.4642656 46.9294643,29.85975 46.9294643,30.4250469 C46.9294643,30.7828906 46.8921429,31.2161875 46.8178393,31.5742031 L45.850875,36.7739375 L48.4170625,36.7739375 L49.4210089,31.4047344 C49.5326339,30.8394375 49.6071071,30.1612187 49.6071071,29.7091875 C49.6071071,28.2396562 48.8445625,27.3541562 47.5057411,27.3541562 Z M54.144375,34.9652969 C53.270375,34.9652969 52.8985179,34.2117969 52.8985179,33.2699219 C52.8985179,31.7814844 53.6608929,29.3511719 55.0555268,29.3511719 C55.9665089,29.3511719 56.2640625,30.1424844 56.2640625,30.9148906 C56.2640625,32.51625 55.5016875,34.9652969 54.144375,34.9652969 Z M55.4087232,27.3541562 C52.3220714,27.3541562 50.2766875,30.180125 50.2766875,33.3262969 C50.2766875,35.3422187 51.5038839,36.9623125 53.8096696,36.9623125 C56.8405089,36.9623125 58.8858929,34.2117969 58.8858929,30.9901719 C58.8858929,29.1251562 57.8074732,27.3541562 55.4087232,27.3541562 Z M62.9956607,35.0029375 C62.3293036,35.0029375 61.9357321,34.6263594 61.9357321,34.6263594 L62.3634018,32.195875 C62.6609554,30.5757813 63.4976339,29.5019063 64.3902946,29.5019063 C65.1711607,29.5019063 65.4129018,30.2366719 65.4129018,30.933625 C65.4129018,32.6104375 64.4274464,35.0029375 62.9956607,35.0029375 Z M65.4502232,27.3541562 C63.7183393,27.3541562 62.7352589,28.8989687 62.7352589,28.8989687 L62.6981071,28.8989687 L62.8468839,27.5048906 L60.5784196,27.5048906 C60.4667946,28.4469375 60.2622054,29.8786562 60.0576161,30.9525312 L58.2724643,40.4665 L60.8386518,40.4665 L61.5452143,36.6232031 L61.6010268,36.6232031 C61.6010268,36.6232031 62.1279375,36.9623125 63.1072857,36.9623125 C66.1196339,36.9623125 68.0905446,33.8350469 68.0905446,30.6699687 C68.0905446,28.917875 67.3281696,27.3541562 65.4502232,27.3541562 Z M71.7539821,23.6239531 C70.9359643,23.6239531 70.2850446,24.2832656 70.2850446,25.131125 C70.2850446,25.9035313 70.7685268,26.4311875 71.49375,26.4311875 L71.5309018,26.4311875 C72.3304286,26.4311875 73.0185,25.884625 73.0371607,24.9240156 C73.0371607,24.1703438 72.5350179,23.6239531 71.7539821,23.6239531 Z M68.1651875,36.7739375 L70.731375,36.7739375 L72.4792054,27.5614375 L69.8945268,27.5614375 L68.1651875,36.7739375 Z M79.005875,27.5425313 L77.2207232,27.5425313 L77.3136875,27.1092344 C77.4624643,26.2239063 77.9830982,25.4325938 78.8386071,25.4325938 C79.2952857,25.4325938 79.656625,25.5644219 79.656625,25.5644219 L80.1587679,23.5297656 C80.1587679,23.5297656 79.7124375,23.30375 78.7641339,23.30375 C77.8529821,23.30375 76.9418304,23.5675781 76.2537589,24.1703438 C75.3799286,24.9240156 74.97075,26.016625 74.7663304,27.1092344 L74.6918571,27.5425313 L73.5018125,27.5425313 L73.1299554,29.5019063 L74.32,29.5019063 L72.9625179,36.7739375 L75.5285357,36.7739375 L76.8860179,29.5019063 L78.6525089,29.5019063 L79.005875,27.5425313 Z M85.1793482,27.5614375 C85.1793482,27.5614375 83.575375,31.6563594 82.8550714,33.8915938 L82.8179196,33.8915938 C82.7685536,33.1719531 82.1856607,27.5614375 82.1856607,27.5614375 L79.4893571,27.5614375 L81.0327679,36.0204375 C81.0699196,36.2086406 81.0514286,36.3217344 80.9769554,36.4537344 C80.6794018,37.0377656 80.1774286,37.6028906 79.5823214,38.0172813 C79.0990089,38.3752969 78.5597143,38.6013125 78.1320446,38.7520469 L78.8386071,40.9563438 C79.3592411,40.84325 80.4378304,40.4099531 81.3488125,39.5433594 C82.5203661,38.4318438 83.5987857,36.7173906 84.7145268,34.3812656 L87.8569911,27.5614375 L85.1793482,27.5614375 Z" id="Rectangle" sketch:type="MSShapeGroup"></path>
            </g>
        </g>
    </g>
</svg>