<?xml version="1.0" encoding="UTF-8" standalone="no"?>
<svg width="76px" height="13px" viewBox="0 0 76 13" version="1.1" xmlns="http://www.w3.org/2000/svg" xmlns:xlink="http://www.w3.org/1999/xlink" xmlns:sketch="http://www.bohemiancoding.com/sketch/ns">
    <!-- Generator: Sketch 3.3.3 (12081) - http://www.bohemiancoding.com/sketch -->
    <title>Credit Card/Discover/Discover-flat</title>
    <desc>Created with Sketch.</desc>
    <defs></defs>
    <g id="Icons:-Credit-card" stroke="none" stroke-width="1" fill="none" fill-rule="evenodd" sketch:type="MSPage">
        <g id="Discover-flat" sketch:type="MSArtboardGroup" transform="translate(-12.000000, -23.000000)" fill="#9B9B9B">
            <g id="Credit-Card/Discover/Discover-flat" sketch:type="MSLayerGroup" transform="translate(12.000000, 23.000000)">
                <path d="M6.2885834,9.82201507 C5.5378699,10.4639095 4.58220269,10.7445978 3.0539813,10.7445978 L2.41984698,10.7445978 L2.41984698,3.08459705 L3.0539813,3.08459705 C4.58220269,3.08459705 5.50120387,3.34639283 6.2885834,4.0202246 C7.1013471,4.71654741 7.58975744,5.79071982 7.58975744,6.90177753 C7.58975744,8.0182331 7.1013471,9.13064029 6.2885834,9.82201507 L6.2885834,9.82201507 Z M3.52734917,1.12247811 L0.0577084023,1.12247811 L0.0577084023,12.7076164 L3.50619569,12.7076164 C5.34137758,12.7076164 6.66605549,12.2897327 7.82714649,11.3675998 C9.20635338,10.2754346 10.024758,8.62639101 10.024758,6.91797109 C10.024758,3.49798249 7.35471878,1.12247811 3.52734917,1.12247811 L3.52734917,1.12247811 Z" id="Fill-13" sketch:type="MSShapeGroup"></path>
                <path d="M11.1139272,1.12247811 L13.4666642,1.12247811 L13.4666642,12.7076164 L11.1139272,12.7076164 L11.1139272,1.12247811 Z" id="Fill-14" sketch:type="MSShapeGroup"></path>
                <path d="M19.2443847,5.5626606 C17.824281,5.064259 17.4092028,4.73229115 17.4092028,4.1061404 C17.4092028,3.37833012 18.1509848,2.82639983 19.1710526,2.82639983 C19.8780489,2.82639983 20.4604747,3.09719203 21.0809768,3.75887864 L22.3092888,2.21689246 C21.2943919,1.36223267 20.0797121,0.929504931 18.7555042,0.929504931 C16.6128918,0.929504931 14.9798431,2.35588713 14.9798431,4.24198632 C14.9798431,5.84334887 15.739018,6.65572548 17.9544925,7.42716839 C18.8805448,7.73529573 19.3510922,7.94581193 19.5894214,8.08840517 C20.0613791,8.38033896 20.2964177,8.79867243 20.2964177,9.28222994 C20.2964177,10.2246048 19.5160894,10.9173291 18.4612358,10.9173291 C17.3382211,10.9173291 16.4295616,10.3793432 15.8856821,9.36904538 L14.3635718,10.7796838 C15.4518008,12.3054765 16.7562654,12.987405 18.553371,12.987405 C21.0043542,12.987405 22.7314183,11.4170801 22.7314183,9.18057041 C22.7314183,7.33765402 21.9304065,6.50233654 19.2443847,5.5626606" id="Fill-15" sketch:type="MSShapeGroup"></path>
                <path d="M23.4732003,6.91797109 C23.4732003,10.3249149 26.26781,12.964914 29.8653118,12.964914 C30.8797387,12.964914 31.7493818,12.7732902 32.8202179,12.2897327 L32.8202179,9.6272426 C31.8739523,10.5372304 31.0433256,10.8961875 29.9687288,10.8961875 C27.5915478,10.8961875 25.9077308,9.25029265 25.9077308,6.90177753 C25.9077308,4.68281084 27.6460768,2.92491061 29.8653118,2.92491061 C30.985036,2.92491061 31.8405768,3.30455949 32.8202179,4.22804187 L32.8202179,1.56870048 C31.7855777,1.06804978 30.9366181,0.860682327 29.9137298,0.860682327 C26.3369114,0.860682327 23.4732003,3.55241082 23.4732003,6.91797109" id="Fill-16" sketch:type="MSShapeGroup"></path>
                <path d="M51.9486046,8.90033196 L48.7201135,1.12247811 L46.14597,1.12247811 L51.2782743,13 L52.5441926,13 L57.7761532,1.12247811 L55.2222231,1.12247811 L51.9486046,8.90033196" id="Fill-17" sketch:type="MSShapeGroup"></path>
                <path d="M58.8474595,12.7076164 L65.5427709,12.7076164 L65.5427709,10.7445978 L61.209598,10.7445978 L61.209598,7.61744265 L65.3782438,7.61744265 L65.3782438,5.65487389 L61.209598,5.65487389 L61.209598,3.08459705 L65.5427709,3.08459705 L65.5427709,1.12247811 L58.8474595,1.12247811 L58.8474595,12.7076164" id="Fill-18" sketch:type="MSShapeGroup"></path>
                <path d="M70.1542294,6.44970749 L69.4688567,6.44970749 L69.4688567,2.94560238 L70.1927758,2.94560238 C71.6678784,2.94560238 72.4580784,3.53801655 72.4580784,4.66661729 C72.4580784,5.82625567 71.6678784,6.44970749 70.1542294,6.44970749 L70.1542294,6.44970749 Z M74.8893184,4.54066743 C74.8893184,2.37118104 73.3343026,1.12247811 70.6083241,1.12247811 L67.1015473,1.12247811 L67.1015473,12.7076164 L69.4688567,12.7076164 L69.4688567,8.04972057 L69.7758172,8.04972057 L73.0376838,12.7076164 L75.9422916,12.7076164 L72.133255,7.8248101 C73.9134378,7.47664869 74.8893184,6.31341175 74.8893184,4.54066743 L74.8893184,4.54066743 Z" id="Fill-19" sketch:type="MSShapeGroup"></path>
                <path d="M46.4787848,6.94496034 C46.4787848,10.2803826 43.6545602,12.9838064 40.1675266,12.9838064 C36.6814331,12.9838064 33.8567384,10.2803826 33.8567384,6.94496034 C33.8567384,3.60908826 36.6814331,0.9052146 40.1675266,0.9052146 C43.6545602,0.9052146 46.4787848,3.60908826 46.4787848,6.94496034" id="Fill-20" sketch:type="MSShapeGroup"></path>
            </g>
        </g>
    </g>
</svg>