<?xml version="1.0" encoding="UTF-8" standalone="no"?>
<svg width="100px" height="60px" viewBox="0 0 100 60" version="1.1" xmlns="http://www.w3.org/2000/svg" xmlns:xlink="http://www.w3.org/1999/xlink" xmlns:sketch="http://www.bohemiancoding.com/sketch/ns">
    <!-- Generator: Sketch 3.3.3 (12081) - http://www.bohemiancoding.com/sketch -->
    <title>Payment/PayPal/Paypal-card-dark</title>
    <desc>Created with Sketch.</desc>
    <defs></defs>
    <g id="Icons:-Payment" stroke="none" stroke-width="1" fill="none" fill-rule="evenodd" sketch:type="MSPage">
        <g id="Paypal-card-dark" sketch:type="MSArtboardGroup">
            <g id="Payment/PayPal/Paypal-card-dark" sketch:type="MSLayerGroup">
                <rect id="Rectangle-Copy" fill="#00457C" sketch:type="MSShapeGroup" x="0" y="0" width="100" height="60" rx="4"></rect>
                <path d="M78.4262145,34.9525062 L76.4094495,22.1207364 C76.370166,21.8723632 76.5621484,21.6474334 76.8136896,21.6474334 L78.842493,21.6474334 C79.1783037,21.6474334 79.4646932,21.892005 79.5166488,22.224014 L81.5055351,34.8251515 C81.5448186,35.0735247 81.3528363,35.2984545 81.1006614,35.2984545 L78.8310881,35.2984545 C78.6289681,35.2984545 78.4572611,35.1520918 78.4262145,34.9525062" id="Shape-Copy" fill="#FFFFFF" sketch:type="MSShapeGroup" transform="translate(78.957492, 28.472944) scale(-1, 1) rotate(-180.000000) translate(-78.957492, -28.472944) "></path>
                <path d="M53.1349179,38.4825734 L50.7696702,38.4825734 C50.5434732,38.4825734 50.3318491,38.3704253 50.2051281,38.1828782 L46.942062,33.3776174 L45.5595358,37.9953311 C45.4727319,38.284255 45.2066177,38.4825734 44.9050217,38.4825734 L42.5803248,38.4825734 C42.2996377,38.4825734 42.1019529,38.2063216 42.1925585,37.9408411 L44.7966753,30.2957624 L42.3471581,26.8394467 C42.1551758,26.5682638 42.3490589,26.1931696 42.6817016,26.1931696 L45.0444148,26.1931696 C45.2680774,26.1931696 45.4778007,26.3027833 45.6057889,26.4865287 L53.4713622,37.8394643 C53.6595429,38.1112808 53.4656598,38.4825734 53.1349179,38.4825734" id="Shape-Copy-2" fill="#FFFFFF" sketch:type="MSShapeGroup" transform="translate(47.857694, 32.337871) scale(-1, 1) rotate(-180.000000) translate(-47.857694, -32.337871) "></path>
                <path d="M72.3731318,30.714512 C72.1456676,29.370002 71.0786767,28.4671148 69.7170594,28.4671148 C69.0346668,28.4671148 68.4878656,28.6869758 68.1368484,29.1026207 C67.7883656,29.514464 67.657843,30.1018159 67.7680902,30.7550627 C67.9797143,32.0881677 69.0644462,33.0195672 70.4051545,33.0195672 C71.0736079,33.0195672 71.6159738,32.7978054 71.9739607,32.3783589 C72.3344819,31.9557443 72.4764095,31.3652244 72.3731318,30.714512 M75.6526717,35.294843 L73.2994624,35.294843 C73.097976,35.294843 72.9262691,35.1484802 72.8945888,34.9488946 L72.7913112,34.2912126 L72.6265739,34.5294481 C72.1171554,35.2688652 70.9811015,35.5166047 69.8469485,35.5166047 C67.2472669,35.5166047 65.0264811,33.546093 64.5943625,30.7829413 C64.3694327,29.4042167 64.6887696,28.0869518 65.4706383,27.1675908 C66.1885128,26.3229953 67.2130522,25.9713445 68.4340092,25.9713445 C70.5299747,25.9713445 71.6920064,27.3171216 71.6920064,27.3171216 L71.586828,26.6632412 C71.5475444,26.414868 71.7395268,26.1899382 71.9917016,26.1899382 L74.1104769,26.1899382 C74.4469212,26.1899382 74.7326771,26.4338761 74.7852663,26.7658852 L76.0575453,34.82154 C76.0968288,35.0699132 75.9042129,35.294843 75.6526717,35.294843" id="Shape-Copy-3" fill="#FFFFFF" sketch:type="MSShapeGroup" transform="translate(70.293276, 30.743975) scale(-1, 1) rotate(-180.000000) translate(-70.293276, -30.743975) "></path>
                <path d="M37.3222264,30.714512 C37.0947622,29.370002 36.0277713,28.4671148 34.666154,28.4671148 C33.9837613,28.4671148 33.4369601,28.6869758 33.0859429,29.1026207 C32.7380938,29.514464 32.6069375,30.1018159 32.7171848,30.7550627 C32.9288089,32.0881677 34.0135408,33.0195672 35.3542491,33.0195672 C36.0227024,33.0195672 36.5650684,32.7978054 36.9230552,32.3783589 C37.2835765,31.9557443 37.425504,31.3652244 37.3222264,30.714512 M40.6017662,35.294843 L38.248557,35.294843 C38.0470706,35.294843 37.8753636,35.1484802 37.8436834,34.9488946 L37.7404057,34.2912126 L37.576302,34.5294481 C37.06625,35.2688652 35.9301961,35.5166047 34.796043,35.5166047 C32.1963614,35.5166047 29.9755757,33.546093 29.543457,30.7829413 C29.3185272,29.4042167 29.6378642,28.0869518 30.4197328,27.1675908 C31.1376074,26.3229953 32.1621468,25.9713445 33.3831037,25.9713445 C35.4790693,25.9713445 36.641101,27.3171216 36.641101,27.3171216 L36.5359225,26.6632412 C36.496639,26.414868 36.6886213,26.1899382 36.9407962,26.1899382 L39.0595715,26.1899382 C39.3960158,26.1899382 39.6817717,26.4338761 39.7343609,26.7658852 L41.0066399,34.82154 C41.0459234,35.0699132 40.8533074,35.294843 40.6017662,35.294843" id="Shape-Copy-4" fill="#FFFFFF" sketch:type="MSShapeGroup" transform="translate(35.242371, 30.743975) scale(-1, 1) rotate(-180.000000) translate(-35.242371, -30.743975) "></path>
                <path d="M26.4804201,30.6956305 C26.2117715,28.931674 24.8647271,28.931674 23.5614015,28.931674 L22.8200836,28.931674 L23.3402734,32.2251532 C23.37132,32.4241051 23.543027,32.5704679 23.7445134,32.5704679 L24.0847593,32.5704679 C24.9718064,32.5704679 25.8094323,32.5704679 26.241551,32.0654847 C26.5000618,31.7632551 26.5779952,31.3146627 26.4804201,30.6956305 M25.9133435,35.2981377 L20.9991027,35.2981377 C20.6626584,35.2981377 20.3769025,35.0535662 20.3243133,34.7215571 L18.3373278,22.1204196 C18.2980443,21.8720464 18.4900266,21.6471166 18.7415678,21.6471166 L21.088441,21.6471166 C21.4242516,21.6471166 21.7100075,21.8916882 21.7625968,22.2230636 L22.2992602,25.6229884 C22.3512159,25.9549974 22.6376053,26.199569 22.973416,26.199569 L24.5282829,26.199569 C27.7653711,26.199569 29.6338725,27.7658407 30.1217484,30.8711391 C30.3416093,32.2283212 30.1306188,33.2953121 29.495113,34.0423325 C28.7962466,34.8634846 27.5575487,35.2981377 25.9133435,35.2981377" id="Shape-Copy-5" fill="#FFFFFF" sketch:type="MSShapeGroup" transform="translate(24.269106, 28.472627) scale(-1, 1) rotate(-180.000000) translate(-24.269106, -28.472627) "></path>
                <path d="M61.5312621,30.6956305 C61.2626136,28.931674 59.9155692,28.931674 58.6122436,28.931674 L57.8709257,28.931674 L58.3911154,32.2251532 C58.4221621,32.4241051 58.5938691,32.5704679 58.7953555,32.5704679 L59.1356014,32.5704679 C60.0226485,32.5704679 60.8602744,32.5704679 61.292393,32.0654847 C61.5509039,31.7632551 61.6288373,31.3146627 61.5312621,30.6956305 M60.9641856,35.2981377 L56.0499447,35.2981377 C55.7135004,35.2981377 55.4277446,35.0535662 55.3751553,34.7215571 L53.3881699,22.1204196 C53.3488863,21.8720464 53.5415023,21.6471166 53.7924099,21.6471166 L56.314158,21.6471166 C56.5492255,21.6471166 56.7494447,21.81819 56.7861938,22.0500894 L57.3501023,25.6229884 C57.4020579,25.9549974 57.6884474,26.199569 58.0242581,26.199569 L59.5791249,26.199569 C62.8162132,26.199569 64.6847146,27.7658407 65.1725905,30.8711391 C65.3924514,32.2283212 65.1814609,33.2953121 64.545955,34.0423325 C63.8470887,34.8634846 62.6083908,35.2981377 60.9641856,35.2981377" id="Shape-Copy-6" fill="#FFFFFF" sketch:type="MSShapeGroup" transform="translate(59.319955, 28.472627) scale(-1, 1) rotate(-180.000000) translate(-59.319955, -28.472627) "></path>
            </g>
        </g>
    </g>
</svg>