<?xml version="1.0" encoding="UTF-8" standalone="no"?>
<svg width="64px" height="18px" viewBox="0 0 64 18" version="1.1" xmlns="http://www.w3.org/2000/svg" xmlns:xlink="http://www.w3.org/1999/xlink" xmlns:sketch="http://www.bohemiancoding.com/sketch/ns">
    <!-- Generator: Sketch 3.3.3 (12081) - http://www.bohemiancoding.com/sketch -->
    <title>Payment/PayPal/Paypal-flat</title>
    <desc>Created with Sketch.</desc>
    <defs></defs>
    <g id="Icons:-Payment" stroke="none" stroke-width="1" fill="none" fill-rule="evenodd" sketch:type="MSPage">
        <g id="Paypal-flat" sketch:type="MSArtboardGroup" transform="translate(-17.000000, -21.000000)" fill="#9B9B9B">
            <g id="Payment/PayPal/Paypal-flat" sketch:type="MSLayerGroup" transform="translate(17.000000, 21.000000)">
                <path d="M43.5312621,9.69563053 C43.2626136,7.93167403 41.9155692,7.93167403 40.6122436,7.93167403 L39.8709257,7.93167403 L40.3911154,11.2251532 C40.4221621,11.4241051 40.5938691,11.5704679 40.7953555,11.5704679 L41.1356014,11.5704679 C42.0226485,11.5704679 42.8602744,11.5704679 43.292393,11.0654847 C43.5509039,10.7632551 43.6288373,10.3146627 43.5312621,9.69563053 M42.9641856,14.2981377 L38.0499447,14.2981377 C37.7135004,14.2981377 37.4277446,14.0535662 37.3751553,13.7215571 L35.3881699,1.12041959 C35.3488863,0.872046404 35.5415023,0.647116607 35.7924099,0.647116607 L38.314158,0.647116607 C38.5492255,0.647116607 38.7494447,0.818189974 38.7861938,1.05008943 L39.3501023,4.62298839 C39.4020579,4.95499744 39.6884474,5.19956899 40.0242581,5.19956899 L41.5791249,5.19956899 C44.8162132,5.19956899 46.6847146,6.76584071 47.1725905,9.87113913 C47.3924514,11.2283212 47.1814609,12.2953121 46.545955,13.0423325 C45.8470887,13.8634846 44.6083908,14.2981377 42.9641856,14.2981377" id="Shape-Copy-6" sketch:type="MSShapeGroup" transform="translate(41.319955, 7.472627) scale(-1, 1) rotate(-180.000000) translate(-41.319955, -7.472627) "></path>
                <path d="M8.48042006,9.69563053 C8.21177152,7.93167403 6.86472715,7.93167403 5.56140153,7.93167403 L4.82008361,7.93167403 L5.34027336,11.2251532 C5.37132001,11.4241051 5.54302698,11.5704679 5.74451339,11.5704679 L6.08475931,11.5704679 C6.9718064,11.5704679 7.8094323,11.5704679 8.24155095,11.0654847 C8.50006182,10.7632551 8.57799524,10.3146627 8.48042006,9.69563053 M7.91334353,14.2981377 L2.99910265,14.2981377 C2.66265836,14.2981377 2.37690248,14.0535662 2.32431326,13.7215571 L0.337327775,1.12041959 C0.298044261,0.872046404 0.490026596,0.647116607 0.741567806,0.647116607 L3.08844096,0.647116607 C3.42425165,0.647116607 3.71000753,0.891688161 3.76259675,1.22306361 L4.29926024,4.62298839 C4.35121586,4.95499744 4.63760535,5.19956899 4.97341603,5.19956899 L6.52828286,5.19956899 C9.76537113,5.19956899 11.6338725,6.76584071 12.1217484,9.87113913 C12.3416093,11.2283212 12.1306188,12.2953121 11.495113,13.0423325 C10.7962466,13.8634846 9.55754867,14.2981377 7.91334353,14.2981377" id="Shape-Copy" sketch:type="MSShapeGroup" transform="translate(6.269106, 7.472627) scale(-1, 1) rotate(-180.000000) translate(-6.269106, -7.472627) "></path>
                <path d="M19.3222264,9.71451196 C19.0947622,8.37000202 18.0277713,7.4671148 16.666154,7.4671148 C15.9837613,7.4671148 15.4369601,7.68697576 15.0859429,8.10262068 C14.7380938,8.51446397 14.6069375,9.10181587 14.7171848,9.75506269 C14.9288089,11.0881677 16.0135408,12.0195672 17.3542491,12.0195672 C18.0227024,12.0195672 18.5650684,11.7978054 18.9230552,11.3783589 C19.2835765,10.9557443 19.425504,10.3652244 19.3222264,9.71451196 M22.6017662,14.294843 L20.248557,14.294843 C20.0470706,14.294843 19.8753636,14.1484802 19.8436834,13.9488946 L19.7404057,13.2912126 L19.576302,13.5294481 C19.06625,14.2688652 17.9301961,14.5166047 16.796043,14.5166047 C14.1963614,14.5166047 11.9755757,12.546093 11.543457,9.78294131 C11.3185272,8.40421669 11.6378642,7.08695176 12.4197328,6.16759081 C13.1376074,5.32299526 14.1621468,4.97134445 15.3831037,4.97134445 C17.4790693,4.97134445 18.641101,6.31712161 18.641101,6.31712161 L18.5359225,5.66324118 C18.496639,5.414868 18.6886213,5.1899382 18.9407962,5.1899382 L21.0595715,5.1899382 C21.3960158,5.1899382 21.6817717,5.43387615 21.7343609,5.7658852 L23.0066399,13.82154 C23.0459234,14.0699132 22.8533074,14.294843 22.6017662,14.294843" id="Shape-Copy-2" sketch:type="MSShapeGroup" transform="translate(17.242371, 9.743975) scale(-1, 1) rotate(-180.000000) translate(-17.242371, -9.743975) "></path>
                <path d="M54.3731318,9.71451196 C54.1456676,8.37000202 53.0786767,7.4671148 51.7170594,7.4671148 C51.0346668,7.4671148 50.4878656,7.68697576 50.1368484,8.10262068 C49.7883656,8.51446397 49.657843,9.10181587 49.7680902,9.75506269 C49.9797143,11.0881677 51.0644462,12.0195672 52.4051545,12.0195672 C53.0736079,12.0195672 53.6159738,11.7978054 53.9739607,11.3783589 C54.3344819,10.9557443 54.4764095,10.3652244 54.3731318,9.71451196 M57.6526717,14.294843 L55.2994624,14.294843 C55.097976,14.294843 54.9262691,14.1484802 54.8945888,13.9488946 L54.7913112,13.2912126 L54.6265739,13.5294481 C54.1171554,14.2688652 52.9811015,14.5166047 51.8469485,14.5166047 C49.2472669,14.5166047 47.0264811,12.546093 46.5943625,9.78294131 C46.3694327,8.40421669 46.6887696,7.08695176 47.4706383,6.16759081 C48.1885128,5.32299526 49.2130522,4.97134445 50.4340092,4.97134445 C52.5299747,4.97134445 53.6920064,6.31712161 53.6920064,6.31712161 L53.586828,5.66324118 C53.5475444,5.414868 53.7395268,5.1899382 53.9917016,5.1899382 L56.1104769,5.1899382 C56.4469212,5.1899382 56.7326771,5.43387615 56.7852663,5.7658852 L58.0575453,13.82154 C58.0968288,14.0699132 57.9042129,14.294843 57.6526717,14.294843" id="Shape-Copy-3" sketch:type="MSShapeGroup" transform="translate(52.293276, 9.743975) scale(-1, 1) rotate(-180.000000) translate(-52.293276, -9.743975) "></path>
                <path d="M35.1349179,17.4825734 L32.7696702,17.4825734 C32.5434732,17.4825734 32.3318491,17.3704253 32.2051281,17.1828782 L28.942062,12.3776174 L27.5595358,16.9953311 C27.4727319,17.284255 27.2066177,17.4825734 26.9050217,17.4825734 L24.5803248,17.4825734 C24.2996377,17.4825734 24.1019529,17.2063216 24.1925585,16.9408411 L26.7966753,9.29576238 L24.3471581,5.83944675 C24.1551758,5.56826378 24.3490589,5.19316958 24.6817016,5.19316958 L27.0444148,5.19316958 C27.2680774,5.19316958 27.4778007,5.30278326 27.6057889,5.48652873 L35.4713622,16.8394643 C35.6595429,17.1112808 35.4656598,17.4825734 35.1349179,17.4825734" id="Shape-Copy-4" sketch:type="MSShapeGroup" transform="translate(29.857694, 11.337871) scale(-1, 1) rotate(-180.000000) translate(-29.857694, -11.337871) "></path>
                <path d="M60.4262145,13.9525062 L58.4094495,1.12073639 C58.370166,0.872363207 58.5621484,0.647433409 58.8136896,0.647433409 L60.842493,0.647433409 C61.1783037,0.647433409 61.4646932,0.892004964 61.5166488,1.22401402 L63.5055351,13.8251515 C63.5448186,14.0735247 63.3528363,14.2984545 63.1006614,14.2984545 L60.8310881,14.2984545 C60.6289681,14.2984545 60.4572611,14.1520918 60.4262145,13.9525062" id="Shape-Copy-5" sketch:type="MSShapeGroup" transform="translate(60.957492, 7.472944) scale(-1, 1) rotate(-180.000000) translate(-60.957492, -7.472944) "></path>
            </g>
        </g>
    </g>
</svg>