<?xml version="1.0" encoding="UTF-8" standalone="no"?>
<svg width="40px" height="47px" viewBox="0 0 40 47" version="1.1" xmlns="http://www.w3.org/2000/svg" xmlns:xlink="http://www.w3.org/1999/xlink" xmlns:sketch="http://www.bohemiancoding.com/sketch/ns">
    <!-- Generator: Sketch 3.3.3 (12081) - http://www.bohemiancoding.com/sketch -->
    <title>Payment/Laser/Laser-alt</title>
    <desc>Created with Sketch.</desc>
    <defs></defs>
    <g id="Icons:-Payment" stroke="none" stroke-width="1" fill="none" fill-rule="evenodd" sketch:type="MSPage">
        <g id="Laser-alt" sketch:type="MSArtboardGroup" transform="translate(-30.000000, -6.000000)">
            <g id="Payment/Laser/Laser-alt" sketch:type="MSLayerGroup" transform="translate(30.000000, 6.000000)">
                <path d="M20.103,43.0814433 C19.823,42.9512731 19.541,42.8259965 19.264,42.6928901 C19.126,42.6273157 18.986,42.5568476 18.864,42.4658263 C18.687,42.3336986 18.639,42.1487199 18.693,41.9353582 C18.745,41.7327625 18.885,41.6251029 19.086,41.6006348 C19.253,41.5800816 19.426,41.5722518 19.594,41.5879114 C19.885,41.6182518 20.175,41.6701242 20.481,41.7141667 C20.547,41.4440391 20.616,41.1680391 20.692,40.8577837 C20.362,40.803954 20.048,40.7354433 19.733,40.7031455 C19.245,40.6532306 18.764,40.683571 18.298,40.8656135 C17.131,41.3207199 17.072,42.8367625 17.819,43.3946348 C18.027,43.5492731 18.264,43.6657412 18.496,43.7880816 C18.728,43.910422 18.977,44.0004646 19.203,44.1316135 C19.474,44.2872306 19.546,44.4819965 19.477,44.7619114 C19.423,44.9782093 19.247,45.1230603 18.951,45.1289327 C18.659,45.134805 18.363,45.1162093 18.073,45.0741242 C17.831,45.0388901 17.596,44.9566774 17.349,44.8930603 C17.267,45.1759114 17.186,45.4548476 17.101,45.7455284 C17.664,45.9481242 18.226,46.0567625 18.812,46.0459965 C19.29,46.0362093 19.74,45.9383369 20.16,45.6995284 C20.988,45.2258263 21.275,43.6236561 20.103,43.0814433 L20.103,43.0814433 Z" id="Path" fill="#FFFFFF" sketch:type="MSShapeGroup"></path>
                <path d="M4.926,40.8117837 L3.605,40.8117837 L3.605,45.9373582 L6.769,45.9373582 C6.811,45.651571 6.953,45.3785072 6.998,45.0682518 L4.926,45.0682518 L4.926,40.8117837 L4.926,40.8117837 Z" id="Path" fill="#FFFFFF" sketch:type="MSShapeGroup"></path>
                <path d="M14.768,45.8727625 C14.779,45.9031029 14.785,45.9393157 14.794,45.9774859 L13.382,45.9794433 L13.341,45.8668901 C13.248,45.5458689 13.15,45.2277837 13.052,44.9077412 C13.035,44.8480391 13.012,44.795188 12.989,44.731571 C12.445,44.731571 11.856,44.7296135 11.318,44.738422 C11.277,44.738422 11.268,44.7961667 11.252,44.8402093 C11.127,45.1827625 11.008,45.5262944 10.894,45.8727625 L10.833,45.9745497 L9.667,45.9520391 C9.76,45.6877837 9.849,45.4019965 9.94,45.1534008 C10.443,43.7577412 10.917,42.5157412 11.415,41.1181242 C11.462,40.9840391 11.09,40.7912306 11.233,40.7941667 C11.642,40.8049327 12.517,40.7990603 12.925,40.7961242 C13.011,40.7961242 13.064,40.810805 13.095,40.9037837 C13.651,42.5372731 14.21,44.2392731 14.768,45.8727625 Z M12.165,42.0557412 C11.958,42.6831029 11.757,43.287954 11.553,43.9084646 L12.737,43.9084646 C12.548,43.2928476 12.36,42.6870178 12.165,42.0557412 Z" id="Path" fill="#FFFFFF" sketch:type="MSShapeGroup"></path>
                <path d="M25.626,43.7234859 L27.429,43.7234859 L27.429,42.8719965 L25.628,42.8719965 L25.628,41.6574008 L27.529,41.6574008 C27.572,41.3667199 27.615,41.0907199 27.658,40.8117837 L24.292,40.8117837 L24.292,45.9363795 L27.702,45.9363795 C27.747,45.6466774 27.79,45.3706774 27.835,45.0721667 L25.626,45.0721667 C25.626,44.6160816 25.626,44.1785923 25.626,43.7234859 L25.626,43.7234859 Z" id="Path" fill="#FFFFFF" sketch:type="MSShapeGroup"></path>
                <path d="M34.126,43.3701667 C34.15,43.3623369 34.175,43.3525497 34.197,43.3466774 C34.607,43.1949752 34.923,42.9434433 35.034,42.5137837 C35.195,41.8874008 35.056,41.2453582 34.355,40.9801242 C34.189,40.9165072 34.064,40.8695284 33.886,40.8382093 C33.779,40.8196135 33.616,40.8078689 33.509,40.7951455 L31.148,40.8010178 L31.148,45.9500816 L32.482,45.9500816 L32.48,41.6466348 C32.779,41.6153157 33.07,41.6055284 33.353,41.7082944 C33.544,41.7758263 33.673,41.9128476 33.71,42.1115284 C33.8,42.5832731 33.663,43.001188 33.034,43.0599114 C32.919,43.0706774 32.647,43.0687199 32.528,43.0657837 L34.223,45.9902093 L35.608,45.9921667 L34.053,43.3916986 C34.077,43.3828901 34.101,43.3789752 34.126,43.3701667 L34.126,43.3701667 Z" id="Path" fill="#FFFFFF" sketch:type="MSShapeGroup"></path>
                <path d="M27.384,21.7217837 L39.378,21.7217837 L39.378,22.2209327 L27.086,22.2209327 L26.606,23.0313157 L18.648,22.2209327 L0.001,22.2209327 L0.001,21.7217837 L18.007,21.7217837 L27.868,20.910422 L27.384,21.7217837 L27.384,21.7217837 Z M26.472,23.405188 L18.435,24.2165497 L0.001,24.2165497 L0.001,24.7166774 L18.892,24.7166774 L25.213,25.5260816 L25.693,24.7166774 L39.379,24.7166774 L39.379,24.2165497 L25.99,24.2165497 L26.472,23.405188 L26.472,23.405188 Z M25.081,25.899954 L18.863,26.7103369 L0.001,26.7103369 L0.001,27.2104646 L19.137,27.2104646 L23.819,28.0208476 L24.301,27.2104646 L39.379,27.2104646 L39.379,26.7103369 L24.597,26.7103369 L25.081,25.899954 L25.081,25.899954 Z M23.685,28.3947199 L19.289,29.2060816 L0.001,29.2060816 L0.001,29.7052306 L19.382,29.7052306 L22.424,30.5156135 L22.906,29.7052306 L39.379,29.7052306 L39.379,29.2060816 L23.204,29.2060816 L23.685,28.3947199 L23.685,28.3947199 Z M22.294,30.8894859 L19.022,31.7008476 L0.002,31.7008476 L0.002,32.201954 L19.002,32.201954 L21.033,33.0113582 L21.515,32.201954 L39.379,32.201954 L39.379,31.7008476 L21.81,31.7008476 L22.294,30.8894859 L22.294,30.8894859 Z M32.047,13.5308476 L18.69,14.2384646 L0.001,14.2384646 L0.001,14.7376135 L16.263,14.7376135 L30.788,15.6527199 L31.331,14.7376135 L39.38,14.7376135 L39.38,14.2384646 L31.628,14.2384646 L32.047,13.5308476 L32.047,13.5308476 Z M29.259,18.4166348 L17.579,19.2270178 L0.001,19.2270178 L0.001,19.7261667 L18.403,19.7261667 L28.001,20.5365497 L28.482,19.7261667 L39.378,19.7261667 L39.378,19.2270178 L28.777,19.2270178 L29.259,18.4166348 L29.259,18.4166348 Z M30.654,15.9218689 L17.153,16.7332306 L0.001,16.7332306 L0.001,17.2323795 L18.158,17.2323795 L29.393,18.0437412 L29.875,17.2323795 L39.379,17.2323795 L39.379,16.7332306 L30.17,16.7332306 L30.654,15.9218689 L30.654,15.9218689 Z M37.954,3.07416673 L39.215,0.953273111 L14.629,1.76463481 L0.001,1.76463481 L0.001,2.26378375 L16.742,2.26378375 L37.954,3.07416673 L37.954,3.07416673 Z M20.898,33.4694008 L18.972,34.197571 L0.001,34.197571 L0.001,34.6967199 L18.517,34.6967199 L19.638,35.5893157 L20.17,34.6967199 L39.379,34.6967199 L39.379,34.197571 L20.466,34.197571 L20.898,33.4694008 L20.898,33.4694008 Z M33.64,10.9333157 L16.336,11.7436986 L0.001,11.7436986 L0.001,12.2428476 L17.723,12.2428476 L32.379,13.0542093 L32.861,12.2428476 L39.379,12.2428476 L39.379,11.7436986 L33.156,11.7436986 L33.64,10.9333157 L33.64,10.9333157 Z M19.505,35.8780391 L17.786,36.688422 L0.001,36.688422 L0.001,37.187571 L17.613,37.187571 L18.245,37.997954 L18.727,37.187571 L39.379,37.187571 L39.379,36.688422 L19.023,36.688422 L19.505,35.8780391 L19.505,35.8780391 Z M35.034,8.43854971 L15.91,9.24893269 L2.13162821e-14,9.24893269 L2.13162821e-14,9.74808162 L17.477,9.74808162 L33.771,10.5594433 L34.253,9.74808162 L39.378,9.74808162 L39.378,9.24893269 L34.55,9.24893269 L35.034,8.43854971 L35.034,8.43854971 Z M37.82,3.44803907 L15.056,4.25940077 L0.001,4.25940077 L0.001,4.75854971 L16.987,4.75854971 L36.561,5.56893269 L37.041,4.75854971 L39.379,4.75854971 L39.379,4.25940077 L37.338,4.25940077 L37.82,3.44803907 L37.82,3.44803907 Z M36.425,5.94378375 L15.483,6.75416673 L0.001,6.75416673 L0.001,7.25331566 L17.232,7.25331566 L35.167,8.06467737 L35.648,7.25331566 L39.378,7.25331566 L39.378,6.75416673 L35.943,6.75416673 L36.425,5.94378375 L36.425,5.94378375 Z" id="Shape" fill="#DB428A" sketch:type="MSShapeGroup"></path>
            </g>
        </g>
    </g>
</svg>