<?xml version="1.0" encoding="UTF-8" standalone="no"?>
<svg width="100px" height="60px" viewBox="0 0 100 60" version="1.1" xmlns="http://www.w3.org/2000/svg" xmlns:xlink="http://www.w3.org/1999/xlink" xmlns:sketch="http://www.bohemiancoding.com/sketch/ns">
    <!-- Generator: Sketch 3.3.3 (12081) - http://www.bohemiancoding.com/sketch -->
    <title>Payment/Laser/Laser-card-dark</title>
    <desc>Created with Sketch.</desc>
    <defs></defs>
    <g id="Icons:-Payment" stroke="none" stroke-width="1" fill="none" fill-rule="evenodd" sketch:type="MSPage">
        <g id="Laser-card-dark" sketch:type="MSArtboardGroup">
            <g id="Payment/Laser/Laser-card-dark" sketch:type="MSLayerGroup">
                <rect id="Rectangle" fill="#26347D" sketch:type="MSShapeGroup" x="0" y="0" width="100" height="60" rx="5"></rect>
                <path d="M50.103,49.0814433 C49.823,48.9512731 49.541,48.8259965 49.264,48.6928901 C49.126,48.6273157 48.986,48.5568476 48.864,48.4658263 C48.687,48.3336986 48.639,48.1487199 48.693,47.9353582 C48.745,47.7327625 48.885,47.6251029 49.086,47.6006348 C49.253,47.5800816 49.426,47.5722518 49.594,47.5879114 C49.885,47.6182518 50.175,47.6701242 50.481,47.7141667 C50.547,47.4440391 50.616,47.1680391 50.692,46.8577837 C50.362,46.803954 50.048,46.7354433 49.733,46.7031455 C49.245,46.6532306 48.764,46.683571 48.298,46.8656135 C47.131,47.3207199 47.072,48.8367625 47.819,49.3946348 C48.027,49.5492731 48.264,49.6657412 48.496,49.7880816 C48.728,49.910422 48.977,50.0004646 49.203,50.1316135 C49.474,50.2872306 49.546,50.4819965 49.477,50.7619114 C49.423,50.9782093 49.247,51.1230603 48.951,51.1289327 C48.659,51.134805 48.363,51.1162093 48.073,51.0741242 C47.831,51.0388901 47.596,50.9566774 47.349,50.8930603 C47.267,51.1759114 47.186,51.4548476 47.101,51.7455284 C47.664,51.9481242 48.226,52.0567625 48.812,52.0459965 C49.29,52.0362093 49.74,51.9383369 50.16,51.6995284 C50.988,51.2258263 51.275,49.6236561 50.103,49.0814433 L50.103,49.0814433 Z" id="Path" fill="#FFFFFF" sketch:type="MSShapeGroup"></path>
                <path d="M34.926,46.8117837 L33.605,46.8117837 L33.605,51.9373582 L36.769,51.9373582 C36.811,51.651571 36.953,51.3785072 36.998,51.0682518 L34.926,51.0682518 L34.926,46.8117837 L34.926,46.8117837 Z" id="Path" fill="#FFFFFF" sketch:type="MSShapeGroup"></path>
                <path d="M44.768,51.8727625 C44.779,51.9031029 44.785,51.9393157 44.794,51.9774859 L43.382,51.9794433 L43.341,51.8668901 C43.248,51.5458689 43.15,51.2277837 43.052,50.9077412 C43.035,50.8480391 43.012,50.795188 42.989,50.731571 C42.445,50.731571 41.856,50.7296135 41.318,50.738422 C41.277,50.738422 41.268,50.7961667 41.252,50.8402093 C41.127,51.1827625 41.008,51.5262944 40.894,51.8727625 L40.833,51.9745497 L39.667,51.9520391 C39.76,51.6877837 39.849,51.4019965 39.94,51.1534008 C40.443,49.7577412 40.917,48.5157412 41.415,47.1181242 C41.462,46.9840391 41.09,46.7912306 41.233,46.7941667 C41.642,46.8049327 42.517,46.7990603 42.925,46.7961242 C43.011,46.7961242 43.064,46.810805 43.095,46.9037837 C43.651,48.5372731 44.21,50.2392731 44.768,51.8727625 Z M42.165,48.0557412 C41.958,48.6831029 41.757,49.287954 41.553,49.9084646 L42.737,49.9084646 C42.548,49.2928476 42.36,48.6870178 42.165,48.0557412 Z" id="Path" fill="#FFFFFF" sketch:type="MSShapeGroup"></path>
                <path d="M55.626,49.7234859 L57.429,49.7234859 L57.429,48.8719965 L55.628,48.8719965 L55.628,47.6574008 L57.529,47.6574008 C57.572,47.3667199 57.615,47.0907199 57.658,46.8117837 L54.292,46.8117837 L54.292,51.9363795 L57.702,51.9363795 C57.747,51.6466774 57.79,51.3706774 57.835,51.0721667 L55.626,51.0721667 C55.626,50.6160816 55.626,50.1785923 55.626,49.7234859 L55.626,49.7234859 Z" id="Path" fill="#FFFFFF" sketch:type="MSShapeGroup"></path>
                <path d="M64.126,49.3701667 C64.15,49.3623369 64.175,49.3525497 64.197,49.3466774 C64.607,49.1949752 64.923,48.9434433 65.034,48.5137837 C65.195,47.8874008 65.056,47.2453582 64.355,46.9801242 C64.189,46.9165072 64.064,46.8695284 63.886,46.8382093 C63.779,46.8196135 63.616,46.8078689 63.509,46.7951455 L61.148,46.8010178 L61.148,51.9500816 L62.482,51.9500816 L62.48,47.6466348 C62.779,47.6153157 63.07,47.6055284 63.353,47.7082944 C63.544,47.7758263 63.673,47.9128476 63.71,48.1115284 C63.8,48.5832731 63.663,49.001188 63.034,49.0599114 C62.919,49.0706774 62.647,49.0687199 62.528,49.0657837 L64.223,51.9902093 L65.608,51.9921667 L64.053,49.3916986 C64.077,49.3828901 64.101,49.3789752 64.126,49.3701667 L64.126,49.3701667 Z" id="Path" fill="#FFFFFF" sketch:type="MSShapeGroup"></path>
                <path d="M57.384,27.7217837 L69.378,27.7217837 L69.378,28.2209327 L57.086,28.2209327 L56.606,29.0313157 L48.648,28.2209327 L30.001,28.2209327 L30.001,27.7217837 L48.007,27.7217837 L57.868,26.910422 L57.384,27.7217837 L57.384,27.7217837 Z M56.472,29.405188 L48.435,30.2165497 L30.001,30.2165497 L30.001,30.7166774 L48.892,30.7166774 L55.213,31.5260816 L55.693,30.7166774 L69.379,30.7166774 L69.379,30.2165497 L55.99,30.2165497 L56.472,29.405188 L56.472,29.405188 Z M55.081,31.899954 L48.863,32.7103369 L30.001,32.7103369 L30.001,33.2104646 L49.137,33.2104646 L53.819,34.0208476 L54.301,33.2104646 L69.379,33.2104646 L69.379,32.7103369 L54.597,32.7103369 L55.081,31.899954 L55.081,31.899954 Z M53.685,34.3947199 L49.289,35.2060816 L30.001,35.2060816 L30.001,35.7052306 L49.382,35.7052306 L52.424,36.5156135 L52.906,35.7052306 L69.379,35.7052306 L69.379,35.2060816 L53.204,35.2060816 L53.685,34.3947199 L53.685,34.3947199 Z M52.294,36.8894859 L49.022,37.7008476 L30.002,37.7008476 L30.002,38.201954 L49.002,38.201954 L51.033,39.0113582 L51.515,38.201954 L69.379,38.201954 L69.379,37.7008476 L51.81,37.7008476 L52.294,36.8894859 L52.294,36.8894859 Z M62.047,19.5308476 L48.69,20.2384646 L30.001,20.2384646 L30.001,20.7376135 L46.263,20.7376135 L60.788,21.6527199 L61.331,20.7376135 L69.38,20.7376135 L69.38,20.2384646 L61.628,20.2384646 L62.047,19.5308476 L62.047,19.5308476 Z M59.259,24.4166348 L47.579,25.2270178 L30.001,25.2270178 L30.001,25.7261667 L48.403,25.7261667 L58.001,26.5365497 L58.482,25.7261667 L69.378,25.7261667 L69.378,25.2270178 L58.777,25.2270178 L59.259,24.4166348 L59.259,24.4166348 Z M60.654,21.9218689 L47.153,22.7332306 L30.001,22.7332306 L30.001,23.2323795 L48.158,23.2323795 L59.393,24.0437412 L59.875,23.2323795 L69.379,23.2323795 L69.379,22.7332306 L60.17,22.7332306 L60.654,21.9218689 L60.654,21.9218689 Z M67.954,9.07416673 L69.215,6.95327311 L44.629,7.76463481 L30.001,7.76463481 L30.001,8.26378375 L46.742,8.26378375 L67.954,9.07416673 L67.954,9.07416673 Z M50.898,39.4694008 L48.972,40.197571 L30.001,40.197571 L30.001,40.6967199 L48.517,40.6967199 L49.638,41.5893157 L50.17,40.6967199 L69.379,40.6967199 L69.379,40.197571 L50.466,40.197571 L50.898,39.4694008 L50.898,39.4694008 Z M63.64,16.9333157 L46.336,17.7436986 L30.001,17.7436986 L30.001,18.2428476 L47.723,18.2428476 L62.379,19.0542093 L62.861,18.2428476 L69.379,18.2428476 L69.379,17.7436986 L63.156,17.7436986 L63.64,16.9333157 L63.64,16.9333157 Z M49.505,41.8780391 L47.786,42.688422 L30.001,42.688422 L30.001,43.187571 L47.613,43.187571 L48.245,43.997954 L48.727,43.187571 L69.379,43.187571 L69.379,42.688422 L49.023,42.688422 L49.505,41.8780391 L49.505,41.8780391 Z M65.034,14.4385497 L45.91,15.2489327 L30,15.2489327 L30,15.7480816 L47.477,15.7480816 L63.771,16.5594433 L64.253,15.7480816 L69.378,15.7480816 L69.378,15.2489327 L64.55,15.2489327 L65.034,14.4385497 L65.034,14.4385497 Z M67.82,9.44803907 L45.056,10.2594008 L30.001,10.2594008 L30.001,10.7585497 L46.987,10.7585497 L66.561,11.5689327 L67.041,10.7585497 L69.379,10.7585497 L69.379,10.2594008 L67.338,10.2594008 L67.82,9.44803907 L67.82,9.44803907 Z M66.425,11.9437837 L45.483,12.7541667 L30.001,12.7541667 L30.001,13.2533157 L47.232,13.2533157 L65.167,14.0646774 L65.648,13.2533157 L69.378,13.2533157 L69.378,12.7541667 L65.943,12.7541667 L66.425,11.9437837 L66.425,11.9437837 Z" id="Shape" fill="#DB428A" sketch:type="MSShapeGroup"></path>
            </g>
        </g>
    </g>
</svg>