<?xml version="1.0" encoding="UTF-8" standalone="no"?>
<svg width="80px" height="16px" viewBox="0 0 80 16" version="1.1" xmlns="http://www.w3.org/2000/svg" xmlns:xlink="http://www.w3.org/1999/xlink" xmlns:sketch="http://www.bohemiancoding.com/sketch/ns">
    <!-- Generator: Sketch 3.3.3 (12081) - http://www.bohemiancoding.com/sketch -->
    <title>Payment/Dwolla/Dwolla-flat</title>
    <desc>Created with Sketch.</desc>
    <defs></defs>
    <g id="Icons:-Payment" stroke="none" stroke-width="1" fill="none" fill-rule="evenodd" sketch:type="MSPage">
        <g id="Dwolla-flat" sketch:type="MSArtboardGroup" transform="translate(-10.000000, -22.000000)" fill="#9B9B9B">
            <g id="Payment/Dwolla/Dwolla-flat" sketch:type="MSLayerGroup" transform="translate(10.000000, 22.000000)">
                <path d="M4.41181818,13.9694118 C5.46575758,13.9694118 6.37272727,13.86 7.13272727,13.6405882 C7.89212121,13.4217647 8.51909091,13.0726471 9.01181818,12.5944118 C9.50454545,12.1158824 9.86727273,11.4982353 10.100303,10.7405882 C10.3330303,9.98323529 10.4490909,9.07323529 10.4490909,8.01 C10.4490909,6.94705882 10.3330303,6.03676471 10.100303,5.27941176 C9.86727273,4.52176471 9.50454545,3.90441176 9.01181818,3.42558824 C8.51909091,2.94705882 7.89212121,2.59882353 7.13272727,2.37941176 C6.37272727,2.16029412 5.46575758,2.05029412 4.41181818,2.05029412 L1.43393939,2.05029412 L1.43393939,13.9694118 L4.41181818,13.9694118 L4.41181818,13.9694118 Z M5.10969697,0.894705882 C7.34121212,0.947647059 9.02181818,1.55529412 10.1515152,2.71794118 C11.2809091,3.88117647 11.8454545,5.645 11.8454545,8.01 C11.8454545,10.3752941 11.2809091,12.1394118 10.1515152,13.3017647 C9.02181818,14.4647059 7.34121212,15.0726471 5.10969697,15.1258824 L0.0375757576,15.1258824 L0.0375757576,0.894705882 L5.10969697,0.894705882 L5.10969697,0.894705882 Z" id="Fill-3" sketch:type="MSShapeGroup"></path>
                <path d="M13.7139394,0.894705882 L17.0412121,13.3520588 L17.0824242,13.3520588 L20.6554545,0.894705882 L22.4009091,0.894705882 L25.9945455,13.3520588 L26.0357576,13.3520588 L29.3830303,0.894705882 L30.7793939,0.894705882 L26.7339394,15.1258824 L25.2554545,15.1258824 L21.5384848,2.38941176 L21.4972727,2.38941176 L17.8006061,15.1258824 L16.2812121,15.1258824 L12.2151515,0.894705882 L13.7139394,0.894705882" id="Fill-4" sketch:type="MSShapeGroup"></path>
                <path d="M32.8436364,10.2920588 C33.0557576,11.0432353 33.3842424,11.7141176 33.8293939,12.3052941 C34.2739394,12.8967647 34.8454545,13.3720588 35.5439394,13.7305882 C36.2424242,14.0891176 37.0772727,14.2685294 38.0493939,14.2685294 C39.0215152,14.2685294 39.8530303,14.0891176 40.5445455,13.7305882 C41.2354545,13.3720588 41.8039394,12.8967647 42.2484848,12.3052941 C42.6939394,11.7141176 43.0224242,11.0432353 43.2348485,10.2920588 C43.4469697,9.54176471 43.5527273,8.78058824 43.5527273,8.01 C43.5527273,7.22588235 43.4469697,6.46205882 43.2348485,5.71794118 C43.0224242,4.97382353 42.6939394,4.30617647 42.2484848,3.71470588 C41.8039394,3.12382353 41.2354545,2.64852941 40.5445455,2.28970588 C39.8530303,1.93058824 39.0215152,1.75147059 38.0493939,1.75147059 C37.0772727,1.75147059 36.2424242,1.93058824 35.5439394,2.28970588 C34.8454545,2.64852941 34.2739394,3.12382353 33.8293939,3.71470588 C33.3842424,4.30617647 33.0557576,4.97382353 32.8436364,5.71794118 C32.6309091,6.46205882 32.5251515,7.22588235 32.5251515,8.01 C32.5251515,8.78058824 32.6309091,9.54176471 32.8436364,10.2920588 L32.8436364,10.2920588 Z M31.56,5.19970588 C31.8472727,4.30970588 32.2784848,3.52235294 32.8536364,2.83764706 C33.4287879,2.15352941 34.1506061,1.60911765 35.020303,1.20323529 C35.8893939,0.798235294 36.8990909,0.595294118 38.0493939,0.595294118 C39.1993939,0.595294118 40.2054545,0.798235294 41.0678788,1.20323529 C41.9306061,1.60911765 42.6490909,2.15352941 43.2242424,2.83764706 C43.7993939,3.52235294 44.2306061,4.30970588 44.5181818,5.19970588 C44.8054545,6.09029412 44.9493939,7.02705882 44.9493939,8.01 C44.9493939,8.99352941 44.8054545,9.93058824 44.5181818,10.8205882 C44.2306061,11.7105882 43.7993939,12.4944118 43.2242424,13.1723529 C42.6490909,13.8502941 41.9306061,14.3917647 41.0678788,14.7967647 C40.2054545,15.2020588 39.1993939,15.4047059 38.0493939,15.4047059 C36.8990909,15.4047059 35.8893939,15.2020588 35.020303,14.7967647 C34.1506061,14.3917647 33.4287879,13.8502941 32.8536364,13.1723529 C32.2784848,12.4944118 31.8472727,11.7105882 31.56,10.8205882 C31.2724242,9.93058824 31.1290909,8.99352941 31.1290909,8.01 C31.1290909,7.02705882 31.2724242,6.09029412 31.56,5.19970588 L31.56,5.19970588 Z" id="Fill-5" sketch:type="MSShapeGroup"></path>
                <path d="M48.1115152,0.894705882 L48.1115152,13.9694118 L56.3257576,13.9694118 L56.3257576,15.1258824 L46.7151515,15.1258824 L46.7151515,0.894705882 L48.1115152,0.894705882" id="Fill-6" sketch:type="MSShapeGroup"></path>
                <path d="M59.1387879,0.894705882 L59.1387879,13.9694118 L67.3533333,13.9694118 L67.3533333,15.1258824 L57.7427273,15.1258824 L57.7427273,0.894705882 L59.1387879,0.894705882" id="Fill-7" sketch:type="MSShapeGroup"></path>
                <path d="M76.2042424,9.54470588 L73.370303,2.25 L70.4336364,9.54470588 L76.2042424,9.54470588 L76.2042424,9.54470588 Z M74.2127273,0.894705882 L79.9624242,15.1258824 L78.4633333,15.1258824 L76.6763636,10.7011765 L70.0024242,10.7011765 L68.2363636,15.1258824 L66.7578788,15.1258824 L72.6515152,0.894705882 L74.2127273,0.894705882 L74.2127273,0.894705882 Z" id="Fill-8" sketch:type="MSShapeGroup"></path>
            </g>
        </g>
    </g>
</svg>