<?xml version="1.0" encoding="UTF-8" standalone="no"?>
<svg width="72px" height="20px" viewBox="0 0 72 20" version="1.1" xmlns="http://www.w3.org/2000/svg" xmlns:xlink="http://www.w3.org/1999/xlink" xmlns:sketch="http://www.bohemiancoding.com/sketch/ns">
    <!-- Generator: Sketch 3.3.3 (12081) - http://www.bohemiancoding.com/sketch -->
    <title>Payment/Ripple/Ripple-alt</title>
    <desc>Created with Sketch.</desc>
    <defs></defs>
    <g id="Icons:-Payment" stroke="none" stroke-width="1" fill="none" fill-rule="evenodd" sketch:type="MSPage">
        <g id="Ripple-alt" sketch:type="MSArtboardGroup" transform="translate(-14.000000, -20.000000)" fill="#FFFFFF">
            <g id="Payment/Ripple/Ripple-alt" sketch:type="MSLayerGroup" transform="translate(14.000000, 20.000000)">
                <path d="M21.6338028,15.0508475 L21.6338028,5.18644068 L24.5070423,5.18644068 L24.5070423,6.06779661 C24.7098592,5.83050847 24.9464789,5.62711864 25.2169014,5.45762712 C25.7239437,5.11864407 26.3323944,4.98305085 27.0084507,4.98305085 C27.1774648,4.98305085 27.3126761,4.98305085 27.4816901,5.01694915 C27.6169014,5.05084746 27.7859155,5.08474576 27.9211268,5.11864407 L28.1239437,5.18644068 L28.1239437,8 L27.7859155,7.89830508 C27.6169014,7.86440678 27.4140845,7.79661017 27.2450704,7.76271186 C27.0760563,7.72881356 26.9070423,7.72881356 26.7380282,7.72881356 C26.2647887,7.72881356 25.8591549,7.83050847 25.5887324,8 C25.284507,8.16949153 25.0816901,8.37288136 24.9126761,8.61016949 C24.743662,8.84745763 24.6422535,9.08474576 24.6084507,9.28813559 C24.5408451,9.59322034 24.5408451,9.72881356 24.5408451,9.79661017 L24.5408451,15.0508475 L21.6338028,15.0508475 L21.6338028,15.0508475 Z" id="Shape" sketch:type="MSShapeGroup"></path>
                <path d="M29.4760563,15.0508475 L29.4760563,5.18644068 L32.3492958,5.18644068 L32.3492958,15.0508475 L29.4760563,15.0508475 L29.4760563,15.0508475 Z" id="Shape" sketch:type="MSShapeGroup"></path>
                <path d="M29.4084507,2.30508475 C29.4084507,1.93220339 29.543662,1.59322034 29.8140845,1.3220339 C30.084507,1.05084746 30.456338,0.915254237 30.8619718,0.915254237 C31.3014085,0.915254237 31.6394366,1.05084746 31.943662,1.3220339 C32.2478873,1.59322034 32.3830986,1.93220339 32.3830986,2.33898305 C32.3830986,2.74576271 32.2478873,3.08474576 31.943662,3.3220339 C31.6394366,3.59322034 31.3014085,3.72881356 30.8619718,3.72881356 C30.4225352,3.72881356 30.084507,3.59322034 29.8140845,3.3220339 C29.543662,3.01694915 29.4084507,2.6779661 29.4084507,2.30508475 L29.4084507,2.30508475 Z" id="Shape" sketch:type="MSShapeGroup"></path>
                <path d="M34.1746479,19.4915254 L34.1746479,5.18644068 L36.9464789,5.18644068 L36.9464789,6.06779661 C37.2169014,5.76271186 37.5549296,5.52542373 37.9605634,5.3559322 C38.5690141,5.08474576 39.2112676,4.94915254 39.9211268,4.94915254 C40.6647887,4.94915254 41.3408451,5.08474576 41.9492958,5.3559322 C42.5577465,5.62711864 43.0647887,6 43.5042254,6.47457627 C43.943662,6.94915254 44.2478873,7.49152542 44.484507,8.13559322 C44.6873239,8.74576271 44.8225352,9.42372881 44.8225352,10.1355932 C44.8225352,10.8474576 44.7211268,11.5254237 44.484507,12.1694915 C44.2478873,12.779661 43.9098592,13.3559322 43.5042254,13.7966102 C43.0985915,14.2711864 42.5915493,14.6440678 41.9830986,14.9152542 C41.4084507,15.1864407 40.7323944,15.3220339 40.056338,15.3220339 C39.5830986,15.3220339 39.1774648,15.2881356 38.8394366,15.1864407 C38.4676056,15.0847458 38.1633803,14.9491525 37.8929577,14.8135593 C37.6225352,14.6779661 37.3859155,14.5084746 37.1830986,14.3050847 L37.1492958,14.2711864 L37.1492958,19.5254237 L34.1746479,19.5254237 L34.1746479,19.4915254 Z M39.4140845,7.59322034 C39.0422535,7.59322034 38.6704225,7.66101695 38.4,7.79661017 C38.0957746,7.93220339 37.8253521,8.13559322 37.6225352,8.33898305 C37.4197183,8.57627119 37.2507042,8.84745763 37.1492958,9.15254237 C37.0478873,9.45762712 36.9802817,9.76271186 36.9802817,10.1016949 C36.9802817,10.440678 37.0478873,10.7457627 37.1492958,11.0508475 C37.2507042,11.3559322 37.4197183,11.6271186 37.6225352,11.8644068 C37.8253521,12.1016949 38.0957746,12.2711864 38.4,12.4067797 C38.7042254,12.5423729 39.0422535,12.6101695 39.4140845,12.6101695 C39.7859155,12.6101695 40.1577465,12.5423729 40.428169,12.4067797 C40.7323944,12.2711864 41.0028169,12.0677966 41.2056338,11.8644068 C41.4084507,11.6271186 41.5774648,11.3559322 41.6788732,11.0508475 C41.7802817,10.7457627 41.8478873,10.440678 41.8478873,10.1016949 C41.8478873,9.76271186 41.7802817,9.45762712 41.6788732,9.15254237 C41.5774648,8.84745763 41.4084507,8.57627119 41.2056338,8.33898305 C41.0028169,8.10169492 40.7323944,7.93220339 40.428169,7.79661017 C40.1577465,7.66101695 39.8197183,7.59322034 39.4140845,7.59322034 L39.4140845,7.59322034 Z" id="Shape" sketch:type="MSShapeGroup"></path>
                <path d="M45.9042254,19.4915254 L45.9042254,5.18644068 L48.6760563,5.18644068 L48.6760563,6.06779661 C48.9464789,5.76271186 49.284507,5.52542373 49.6901408,5.3559322 C50.2985915,5.08474576 50.9408451,4.94915254 51.6507042,4.94915254 C52.3943662,4.94915254 53.0704225,5.08474576 53.6788732,5.3559322 C54.2873239,5.62711864 54.7943662,6 55.2338028,6.47457627 C55.6732394,6.94915254 55.9774648,7.49152542 56.2140845,8.13559322 C56.4169014,8.74576271 56.5521127,9.42372881 56.5521127,10.1355932 C56.5521127,10.8474576 56.4507042,11.5254237 56.2140845,12.1694915 C55.9774648,12.779661 55.6394366,13.3559322 55.2338028,13.7966102 C54.828169,14.2711864 54.3211268,14.6440678 53.7126761,14.9152542 C53.1380282,15.1864407 52.4619718,15.3220339 51.7859155,15.3220339 C51.3126761,15.3220339 50.9070423,15.2881356 50.5690141,15.1864407 C50.1971831,15.0847458 49.8929577,14.9491525 49.6225352,14.8135593 C49.3521127,14.6779661 49.115493,14.5084746 48.9126761,14.3050847 L48.8788732,14.2711864 L48.8788732,19.5254237 L45.9042254,19.5254237 L45.9042254,19.4915254 Z M51.1774648,7.59322034 C50.8056338,7.59322034 50.4338028,7.66101695 50.1633803,7.79661017 C49.8591549,7.93220339 49.5887324,8.13559322 49.3859155,8.33898305 C49.1830986,8.57627119 49.0140845,8.84745763 48.9126761,9.15254237 C48.8112676,9.45762712 48.743662,9.76271186 48.743662,10.1016949 C48.743662,10.440678 48.8112676,10.7457627 48.9126761,11.0508475 C49.0140845,11.3559322 49.1830986,11.6271186 49.3859155,11.8644068 C49.5887324,12.1016949 49.8591549,12.2711864 50.1633803,12.4067797 C50.4676056,12.5423729 50.8056338,12.6101695 51.1774648,12.6101695 C51.5492958,12.6101695 51.9211268,12.5423729 52.1915493,12.4067797 C52.4957746,12.2711864 52.7661972,12.0677966 52.9690141,11.8644068 C53.171831,11.6271186 53.3408451,11.3559322 53.4422535,11.0508475 C53.543662,10.7457627 53.6112676,10.440678 53.6112676,10.1016949 C53.6112676,9.76271186 53.543662,9.45762712 53.4422535,9.15254237 C53.3408451,8.84745763 53.171831,8.57627119 52.9690141,8.33898305 C52.7661972,8.10169492 52.4957746,7.93220339 52.1915493,7.79661017 C51.8873239,7.66101695 51.5492958,7.59322034 51.1774648,7.59322034 L51.1774648,7.59322034 Z" id="Shape" sketch:type="MSShapeGroup"></path>
                <rect id="Rectangle-path" sketch:type="MSShapeGroup" x="57.7014085" y="0" width="2.87323944" height="15.220339"></rect>
                <path d="M67.0647887,15.2881356 C66.3211268,15.2881356 65.6450704,15.1525424 65.0028169,14.9152542 C64.3605634,14.6779661 63.7859155,14.3050847 63.3126761,13.8644068 C62.8394366,13.4237288 62.4676056,12.8474576 62.1633803,12.2372881 C61.8929577,11.5932203 61.7577465,10.8813559 61.7577465,10.1016949 C61.7577465,9.3220339 61.8929577,8.61016949 62.1633803,7.96610169 C62.4338028,7.3220339 62.8394366,6.77966102 63.3126761,6.33898305 C63.7859155,5.89830508 64.3605634,5.52542373 65.0028169,5.28813559 C65.6450704,5.05084746 66.3549296,4.91525424 67.0647887,4.91525424 C67.7408451,4.91525424 68.3830986,5.05084746 68.9577465,5.28813559 C69.5323944,5.52542373 70.0394366,5.89830508 70.4450704,6.33898305 C70.8507042,6.77966102 71.1549296,7.3559322 71.3915493,8 C71.628169,8.6440678 71.7295775,9.42372881 71.7295775,10.2711864 L71.7295775,11.1864407 L64.6985915,11.1864407 C64.8,11.6610169 65.0366197,12.0338983 65.3746479,12.3389831 C65.7802817,12.6779661 66.2873239,12.8474576 66.8957746,12.8474576 C67.4366197,12.8474576 67.8760563,12.7457627 68.2140845,12.5423729 C68.5859155,12.3050847 68.8901408,12.0338983 69.1943662,11.6949153 L69.3633803,11.4915254 L71.4591549,13.0847458 L71.2901408,13.3220339 C70.715493,14.0338983 70.0732394,14.5423729 69.3633803,14.8474576 C68.5521127,15.1525424 67.8084507,15.2881356 67.0647887,15.2881356 L67.0647887,15.2881356 Z M68.7887324,8.91525424 C68.7211268,8.44067797 68.5521127,8.06779661 68.2478873,7.76271186 C67.8760563,7.42372881 67.3690141,7.25423729 66.7267606,7.25423729 C66.084507,7.25423729 65.6112676,7.42372881 65.2732394,7.76271186 C64.9690141,8.06779661 64.7661972,8.44067797 64.6647887,8.91525424 L68.7887324,8.91525424 L68.7887324,8.91525424 Z" id="Shape" sketch:type="MSShapeGroup"></path>
                <path d="M10.4450704,17.6610169 C11.4929577,19.6610169 13.9605634,20.440678 15.9549296,19.3898305 C17.9492958,18.3389831 18.7267606,15.8644068 17.6788732,13.8644068 C16.9352113,12.4745763 15.515493,11.6610169 14.028169,11.6610169 L14.028169,11.6610169 C13.6225352,11.6610169 13.1830986,11.559322 12.8450704,11.2542373 C12.2028169,10.7457627 12.0338028,9.83050847 12.4732394,9.15254237 C12.8112676,8.61016949 13.4873239,8.40677966 14.0619718,8.44067797 C15.4140845,8.44067797 16.7323944,7.76271186 17.5098592,6.54237288 C18.7267606,4.6440678 18.1521127,2.10169492 16.2591549,0.881355932 C14.3661972,-0.305084746 11.8309859,0.237288136 10.6140845,2.16949153 C9.76901408,3.49152542 9.8028169,5.15254237 10.5464789,6.44067797 L10.5464789,6.44067797 C10.6140845,6.54237288 10.6478873,6.6440678 10.715493,6.74576271 L10.715493,6.74576271 L10.715493,6.74576271 C10.8169014,6.94915254 10.8507042,7.22033898 10.8507042,7.45762712 C10.8169014,8.33898305 10.0732394,9.01694915 9.1943662,8.98305085 C8.55211268,8.94915254 8.01126761,8.54237288 7.77464789,8 L7.77464789,8 L7.77464789,7.96610169 C7.09859155,6.81355932 5.84788732,6 4.42816901,5.93220339 C2.16338028,5.83050847 0.270422535,7.55932203 0.169014085,9.83050847 C0.0676056338,12.1016949 1.82535211,14 4.05633803,14.1016949 C5.64507042,14.1694915 7.03098592,13.3220339 7.77464789,12.0338983 L7.77464789,12.0338983 C8.04507042,11.4576271 8.61971831,11.0847458 9.29577465,11.1186441 C9.3971831,11.1186441 9.49859155,11.1186441 9.56619718,11.1525424 C10.0394366,11.2542373 10.4450704,11.5254237 10.6816901,11.9661017 C10.9859155,12.5423729 10.8507042,13.1864407 10.5126761,13.6949153 C9.83661972,14.8813559 9.76901408,16.3728814 10.4450704,17.6610169 L10.4450704,17.6610169 Z" id="Shape" sketch:type="MSShapeGroup"></path>
            </g>
        </g>
    </g>
</svg>