<?xml version="1.0" encoding="UTF-8" standalone="no"?>
<svg width="72px" height="26px" viewBox="0 0 72 26" version="1.1" xmlns="http://www.w3.org/2000/svg" xmlns:xlink="http://www.w3.org/1999/xlink" xmlns:sketch="http://www.bohemiancoding.com/sketch/ns">
    <!-- Generator: Sketch 3.3.3 (12081) - http://www.bohemiancoding.com/sketch -->
    <title>Payment/Paybox/Paybox-alt</title>
    <desc>Created with Sketch.</desc>
    <defs></defs>
    <g id="Icons:-Payment" stroke="none" stroke-width="1" fill="none" fill-rule="evenodd" sketch:type="MSPage">
        <g id="Paybox-alt" sketch:type="MSArtboardGroup" transform="translate(-13.000000, -17.000000)" fill="#FFFFFF">
            <g id="Payment/Paybox/Paybox-alt" sketch:type="MSLayerGroup" transform="translate(13.000000, 17.000000)">
                <path d="M4.13437972,2.55985793 L2.73996382,2.55985793 L2.73996382,9.72408038 L4.13437972,9.72408038 C6.62298598,9.72408038 8.45345689,8.77304918 8.45345689,6.02598002 C8.45345689,3.36739741 6.45009068,2.55985793 4.13437972,2.55985793 M4.27886573,11.6341145 L2.73996382,11.6341145 L2.73996382,19.2343924 L0.625793526,19.2343924 L0.625793526,0.649823765 L4.02467738,0.649823765 C7.65154379,0.649823765 10.5333944,1.92131979 10.5333944,6.02598002 C10.5333944,9.86996363 7.85064488,11.6341145 4.27886573,11.6341145" id="Fill-7" sketch:type="MSShapeGroup"></path>
                <path d="M18.4659596,14.2265315 C17.8655085,13.360001 16.4387485,12.7812511 15.5809612,12.7812511 C13.9606088,12.7812511 12.6755018,13.5011012 12.6755018,15.3242431 C12.6755018,16.8564158 13.9267695,17.6958423 15.3582513,17.6958423 C16.4387485,17.6958423 18.4659596,16.7105326 18.4659596,15.4693292 L18.4659596,14.2265315 L18.4659596,14.2265315 Z M19.1529764,19.0510419 C18.9223969,19.0510419 18.8932794,18.7632613 18.8932794,18.7632613 L18.6099735,17.9533302 C17.6687683,18.9099417 16.5536448,19.4281062 15.2142374,19.4281062 C12.8179417,19.4281062 10.5333944,18.0410196 10.5333944,15.382437 C10.5333944,12.55007 12.6180536,11.0760912 15.3000162,11.0760912 C16.4678661,11.0760912 17.5507242,11.450764 18.4659596,12.1753972 L18.4659596,10.6990269 C18.4659596,8.82327128 17.1493741,8.04203861 15.4369474,8.04203861 C13.4120971,8.04203861 12.1907339,8.8527668 12.1907339,8.8527668 L11.8177145,7.75346083 C12.9005726,6.88693031 14.2958541,6.33448721 15.6698878,6.33448721 C18.3502764,6.33448721 20.5451102,7.63627593 20.5451102,10.5850307 L20.5451102,19.0510419 L19.1529764,19.0510419 L19.1529764,19.0510419 Z" id="Fill-8" sketch:type="MSShapeGroup"></path>
                <path d="M23.521396,6.63342828 L26.2844155,14.2592158 C26.5999868,15.1105999 26.9163451,16.124608 27.1264636,16.8970718 L27.17919,16.8970718 C27.4168522,16.124608 27.6789101,15.1377039 27.9960554,14.2050078 L30.5221996,6.63342828 L32.9696478,6.63342828 L29.4952158,15.8312472 C27.8370893,20.2571694 26.7054396,22.5235414 25.1267961,23.9361376 C23.9683898,24.9230417 22.8627098,25.322427 22.2835066,25.4284514 L21.7050904,23.4570347 C22.2835066,23.2960051 23.0468587,22.9237238 23.7315146,22.3098981 C24.3634441,21.8028941 25.1267961,20.8965047 25.6792427,19.6959574 C25.7846954,19.4568045 25.8633915,19.2957749 25.8633915,19.1371369 C25.8633915,19.0032113 25.8098782,18.8166721 25.6792427,18.5504152 L20.9944648,6.63342828 L23.521396,6.63342828" id="Fill-9" sketch:type="MSShapeGroup"></path>
                <path d="M36.2984922,13.9523029 C36.2984922,14.3142209 36.3283967,14.6251196 36.4165363,14.9368155 C36.885565,16.6204516 38.1061412,17.6575779 39.8374551,17.6575779 C42.5965398,17.6575779 44.0351042,15.5578158 44.0351042,12.9925028 C44.0351042,10.247028 42.4501651,8.17436986 39.77922,8.17436986 C37.8425094,8.17436986 36.7974254,9.36694545 36.4165363,10.7907021 C36.3283967,11.1016008 36.2984922,11.464316 36.2984922,11.7760119 L36.2984922,13.9523029 L36.2984922,13.9523029 Z M36.2984922,0.81643359 L36.2984922,8.27800277 L36.3575143,8.27800277 C36.9744915,7.29349017 38.0770237,6.38630366 40.2773662,6.38630366 C43.7132372,6.38630366 46.3109949,8.92530984 46.2826643,13.1224425 C46.2826643,16.9313504 43.9760821,19.4958662 40.542572,19.4958662 C38.2241854,19.4958662 36.885565,18.4340275 36.0930954,17.0349833 L36.0348603,17.0349833 L35.9176031,19.2112743 L34.031258,19.2112743 C34.1201846,18.3559042 34.1493021,17.0987574 34.1493021,15.9858994 L34.1493021,0.81643359 L36.2984922,0.81643359 L36.2984922,0.81643359 Z" id="Fill-10" sketch:type="MSShapeGroup"></path>
                <path d="M53.6919006,18.1884972 C56.2747061,18.1884972 57.7353054,15.7794308 57.7353054,12.8769122 C57.7353054,10.3363117 56.4242286,7.6809178 53.7100007,7.6809178 C50.9949858,7.6809178 49.6477089,10.2414477 49.6477089,13.0100407 C49.6477089,15.7029018 51.1075212,18.1884972 53.6722266,18.1884972 L53.6919006,18.1884972 L53.6919006,18.1884972 Z M53.6171393,19.5341306 C50.2646862,19.5341306 47.5780019,16.916204 47.5780019,13.0483051 C47.5780019,8.98988111 50.4142087,6.33448721 53.784762,6.33448721 C57.2481766,6.33448721 59.8412126,9.00821616 59.8412126,12.8011805 C59.8412126,17.1824609 56.8365961,19.5341306 53.6352394,19.5341306 L53.6171393,19.5341306 L53.6171393,19.5341306 Z" id="Fill-11" sketch:type="MSShapeGroup"></path>
                <path d="M62.9662341,6.63342828 L64.7337481,9.3318697 C65.1949072,10.0317904 65.5789441,10.6806918 65.9889507,11.3814097 L66.0652859,11.3814097 C66.4760794,10.6288754 66.8852991,9.98077112 67.2945187,9.30556288 L69.03685,6.63342828 L71.4701329,6.63342828 L67.2433662,12.7047222 L71.5984075,19.1913449 L69.03685,19.1913449 L67.2181835,16.3637609 C66.7318417,15.6367362 66.3218351,14.9368155 65.8858588,14.183484 L65.8354933,14.183484 C65.4254867,14.9368155 64.9902974,15.6112266 64.5283513,16.3637609 L62.7356546,19.1913449 L60.2512192,19.1913449 L64.6574129,12.7828454 L60.455829,6.63342828 L62.9662341,6.63342828" id="Fill-12" sketch:type="MSShapeGroup"></path>
            </g>
        </g>
    </g>
</svg>