<?xml version="1.0" encoding="UTF-8" standalone="no"?>
<svg width="72px" height="26px" viewBox="0 0 72 26" version="1.1" xmlns="http://www.w3.org/2000/svg" xmlns:xlink="http://www.w3.org/1999/xlink" xmlns:sketch="http://www.bohemiancoding.com/sketch/ns">
    <!-- Generator: Sketch 3.3.3 (12081) - http://www.bohemiancoding.com/sketch -->
    <title>Payment/Paybox/Paybox</title>
    <desc>Created with Sketch.</desc>
    <defs></defs>
    <g id="Icons:-Payment" stroke="none" stroke-width="1" fill="none" fill-rule="evenodd" sketch:type="MSPage">
        <g id="Paybox" sketch:type="MSArtboardGroup" transform="translate(-14.000000, -17.000000)" fill="#005992">
            <g id="Payment/Paybox/Paybox" sketch:type="MSLayerGroup" transform="translate(14.000000, 17.000000)">
                <path d="M4.0799659,2.53962459 L2.68806547,2.53962459 L2.68806547,9.69092304 L4.0799659,9.69092304 C6.56408279,9.69092304 8.39125159,8.74160747 8.39125159,5.99949392 C8.39125159,3.3457073 6.39149939,2.53962459 4.0799659,2.53962459 M4.22419126,11.5975116 L2.68806547,11.5975116 L2.68806547,19.1840788 L0.577709065,19.1840788 L0.577709065,0.633036065 L3.97046145,0.633036065 C7.59078512,0.633036065 10.467437,1.90223836 10.467437,5.99949392 C10.467437,9.83654312 7.78952704,11.5975116 4.22419126,11.5975116" id="Fill-7" sketch:type="MSShapeGroup"></path>
                <path d="M18.3856921,14.1852519 C17.7863242,13.3202846 16.362138,12.7425787 15.5058981,12.7425787 C13.8884688,12.7425787 12.6056801,13.4611302 12.6056801,15.2809833 C12.6056801,16.810392 13.8546906,17.6483042 15.28359,17.6483042 C16.362138,17.6483042 18.3856921,16.6647719 18.3856921,15.4258076 L18.3856921,14.1852519 L18.3856921,14.1852519 Z M19.0714696,19.001059 C18.841306,19.001059 18.812241,18.7137975 18.812241,18.7137975 L18.5294462,17.9053276 C17.5899389,18.8602134 16.476827,19.3774431 15.1398359,19.3774431 C12.747863,19.3774431 10.467437,17.9928588 10.467437,15.3390722 C10.467437,12.5118147 12.5483356,11.0404949 15.2254599,11.0404949 C16.391203,11.0404949 17.4721077,11.4144918 18.3856921,12.1378178 L18.3856921,10.6641108 C18.3856921,8.79173897 17.0714817,8.01191562 15.3621441,8.01191562 C13.3409466,8.01191562 12.1217867,8.82118128 12.1217867,8.82118128 L11.7494402,7.72385842 C12.8303448,6.85889109 14.2231094,6.30744457 15.5946643,6.30744457 C18.2702176,6.30744457 20.4610919,7.60688492 20.4610919,10.5503202 L20.4610919,19.001059 L19.0714696,19.001059 L19.0714696,19.001059 Z" id="Fill-8" sketch:type="MSShapeGroup"></path>
                <path d="M23.4320087,6.60584637 L26.1900438,14.2178772 C26.5050458,15.0677255 26.8208334,16.0799044 27.0305729,16.8509746 L27.0832042,16.8509746 C27.3204376,16.0799044 27.5820228,15.0947806 27.8985959,14.163767 L30.4201831,6.60584637 L32.8632162,6.60584637 L29.3950519,15.7870728 C27.7399166,20.2050108 26.6103084,22.4672942 25.0345127,23.8773422 C23.8781961,24.862466 22.7745107,25.2611308 22.1963524,25.3669639 L21.6189797,23.3991036 C22.1963524,23.2383645 22.9583274,22.8667548 23.6417482,22.2540364 C24.2725378,21.747947 25.0345127,20.8431927 25.5859626,19.6448111 C25.6912252,19.4060897 25.7697793,19.2453506 25.7697793,19.0869987 C25.7697793,18.9533147 25.7163625,18.767112 25.5859626,18.5013355 L20.909636,6.60584637 L23.4320087,6.60584637" id="Fill-9" sketch:type="MSShapeGroup"></path>
                <path d="M36.1860554,13.911518 C36.1860554,14.2727831 36.215906,14.583121 36.3038866,14.8942546 C36.7720692,16.5748535 37.9904435,17.6101088 39.7186342,17.6101088 C42.4727416,17.6101088 43.9087108,15.5141346 43.9087108,12.9534493 C43.9087108,10.2129272 42.3266309,8.14400815 39.6605041,8.14400815 C37.7272872,8.14400815 36.6840885,9.33443237 36.3038866,10.7556206 C36.215906,11.0659585 36.1860554,11.4280194 36.1860554,11.739153 L36.1860554,13.911518 L36.1860554,13.911518 Z M36.1860554,0.799345331 L36.1860554,8.2474541 L36.244971,8.2474541 C36.8608353,7.26471753 37.9613785,6.35916755 40.1577517,6.35916755 C43.5874245,6.35916755 46.180496,8.89359345 46.1522165,13.0831546 C46.1522165,16.8851914 43.8497953,19.4450809 40.4224791,19.4450809 C38.1082747,19.4450809 36.7720692,18.3851577 35.9810292,16.9886373 L35.9228991,16.9886373 L35.8058535,19.1610024 L33.9229113,19.1610024 C34.0116774,18.3071754 34.0407424,17.0522964 34.0407424,15.9414459 L34.0407424,0.799345331 L36.1860554,0.799345331 L36.1860554,0.799345331 Z" id="Fill-10" sketch:type="MSShapeGroup"></path>
                <path d="M53.5480868,18.1400704 C56.1262329,18.1400704 57.5841974,15.7353498 57.5841974,12.8380673 C57.5841974,10.3020499 56.2754858,7.65144625 53.5661542,7.65144625 C50.8560371,7.65144625 49.5111906,10.2073571 49.5111906,12.9709556 C49.5111906,15.6589589 50.9683695,18.1400704 53.5284482,18.1400704 L53.5480868,18.1400704 L53.5480868,18.1400704 Z M53.4734603,19.4832763 C50.1270549,19.4832763 47.4452173,16.8700723 47.4452173,13.009151 C47.4452173,8.95804824 50.2763077,6.30744457 53.6407806,6.30744457 C57.0979474,6.30744457 59.6863056,8.97635021 59.6863056,12.7624722 C59.6863056,17.1358489 56.6871093,19.4832763 53.4915278,19.4832763 L53.4734603,19.4832763 L53.4734603,19.4832763 Z" id="Fill-11" sketch:type="MSShapeGroup"></path>
                <path d="M62.8056896,6.60584637 L64.5700152,9.29941989 C65.0303423,9.99807796 65.4136864,10.6458088 65.8229534,11.3452626 L65.8991508,11.3452626 C66.3092033,10.5940858 66.7176848,9.94715072 67.1261662,9.27316053 L68.8653544,6.60584637 L71.2942477,6.60584637 L67.075106,12.6661879 L71.4222909,19.1411089 L68.8653544,19.1411089 L67.0499687,16.3186258 C66.5645042,15.5929127 66.1552373,14.8942546 65.7200475,14.1422821 L65.6697728,14.1422821 C65.2605059,14.8942546 64.8261016,15.567449 64.3649889,16.3186258 L62.5755261,19.1411089 L60.0955726,19.1411089 L64.4938177,12.7441702 L60.2998133,6.60584637 L62.8056896,6.60584637" id="Fill-12" sketch:type="MSShapeGroup"></path>
            </g>
        </g>
    </g>
</svg>