<?xml version="1.0" encoding="UTF-8" standalone="no"?>
<svg width="74px" height="16px" viewBox="0 0 74 16" version="1.1" xmlns="http://www.w3.org/2000/svg" xmlns:xlink="http://www.w3.org/1999/xlink" xmlns:sketch="http://www.bohemiancoding.com/sketch/ns">
    <!-- Generator: Sketch 3.3.3 (12081) - http://www.bohemiancoding.com/sketch -->
    <title>Payment/Ogone/Ogone</title>
    <desc>Created with Sketch.</desc>
    <defs></defs>
    <g id="Icons:-Payment" stroke="none" stroke-width="1" fill="none" fill-rule="evenodd" sketch:type="MSPage">
        <g id="Ogone" sketch:type="MSArtboardGroup" transform="translate(-13.000000, -22.000000)" fill="#286AA6">
            <g id="Payment/Ogone/Ogone" sketch:type="MSLayerGroup" transform="translate(13.000000, 22.000000)">
                <path d="M6.02007978,9.16835798 C8.56880024,9.16835798 10.6506715,7.35990392 10.6506715,4.84016956 C10.6506715,3.31626508 9.53798876,2.32043519 7.77903427,2.32043519 C5.15867624,2.32043519 3.18437087,4.43367015 3.18437087,6.75034213 C3.18437087,8.21336536 4.44076693,9.16835798 6.02007978,9.16835798 L6.02007978,9.16835798 Z M6.12786476,10.6517998 C2.32296732,10.6517998 0.0614544084,9.12770804 0.0614544084,6.56732374 C0.0614544084,3.37714633 3.39972175,0.959130483 7.77903427,0.959130483 C11.4404375,0.959130483 13.7733689,2.5439162 13.7733689,4.94170075 C13.7733689,8.35554649 10.363464,10.6517998 6.12786476,10.6517998 L6.12786476,10.6517998 Z" id="Fill-1" sketch:type="MSShapeGroup"></path>
                <path d="M21.8572424,2.64563472 C20.2060729,2.64563472 18.6626884,3.66150859 18.6626884,4.75886968 C18.6626884,5.83581212 19.8831561,6.60797368 21.5700349,6.60797368 C23.5802686,6.60797368 24.7288797,5.49038129 24.7288797,4.47450741 C24.7288797,3.39737764 23.5084119,2.64563472 21.8572424,2.64563472 L21.8572424,2.64563472 Z M20.7086314,11.3020116 C18.6267601,11.5254926 16.5446697,12.0335232 16.5446697,12.6432723 C16.5446697,13.3137153 18.1958392,13.7404461 20.8880539,13.7404461 C22.9699252,13.7404461 24.2981779,13.2730654 24.2981779,12.602435 C24.2981779,12.0335232 22.6110801,11.5459112 20.7086314,11.3020116 L20.7086314,11.3020116 Z M34.8957199,2.58456615 L26.5594718,2.58456615 C27.385166,3.25519651 27.6364453,3.76322711 27.6364453,4.39320753 C27.6364453,5.91711201 26.3441209,7.11600428 23.8674761,7.70533476 C21.9650274,8.15229678 18.3754809,8.05076559 18.3754809,8.92464566 C18.3754809,10.0624694 27.2055244,9.41225763 27.2055244,12.4400226 C27.2055244,13.9436958 24.4416721,15.0408695 20.6367747,15.0408695 C16.580598,15.0408695 13.6373232,14.045227 13.6373232,12.6837349 C13.6373232,11.6067925 15.8269795,11.1191805 18.2676959,10.8346309 L18.2676959,10.793981 C16.2576813,10.3672503 15.4679153,9.8998696 15.4679153,9.18877662 C15.4679153,8.43684637 16.8318773,7.78663464 18.6626884,7.50208505 C16.7602397,6.99405445 15.7551228,6.07971177 15.7551228,4.8808195 C15.7551228,2.78781585 18.4832658,1.24349274 21.7496765,1.24349274 L35.2188557,1.24349274 L34.8957199,2.58456615 L34.8957199,2.58456615 Z" id="Fill-2" sketch:type="MSShapeGroup"></path>
                <path d="M35.353587,9.16835798 C37.9020883,9.16835798 39.9839596,7.35990392 39.9839596,4.84016956 C39.9839596,3.31626508 38.8712769,2.32043519 37.1123224,2.32043519 C34.4919644,2.32043519 32.517659,4.43367015 32.517659,6.75034213 C32.517659,8.21336536 33.774055,9.16835798 35.353587,9.16835798 L35.353587,9.16835798 Z M35.4611529,10.6517998 C31.6562554,10.6517998 29.3949616,9.12770804 29.3949616,6.56732374 C29.3949616,3.37714633 32.7332289,0.959130483 37.1123224,0.959130483 C40.7737256,0.959130483 43.1068761,2.5439162 43.1068761,4.94170075 C43.1068761,8.35554649 39.6969712,10.6517998 35.4611529,10.6517998 L35.4611529,10.6517998 Z" id="Fill-3" sketch:type="MSShapeGroup"></path>
                <path d="M49.2806333,2.8486971 L49.3524899,2.88934704 C51.1114444,1.67022346 52.9061082,1.10131161 54.7007719,1.10131161 C58.1108959,1.10131161 58.9722994,3.11301538 58.5415977,4.61668854 L56.9982131,10.3672503 L53.9828626,10.3672503 L55.4546095,4.55561997 C55.849383,2.97064692 54.6291343,2.5236849 53.695655,2.5236849 C52.8342515,2.5236849 51.1471537,2.86911573 48.8499315,4.55561997 L47.3781846,10.3672503 L44.3630531,10.3672503 L46.6243469,1.24349274 L49.6754067,1.24349274 L49.2806333,2.8486971" id="Fill-4" sketch:type="MSShapeGroup"></path>
                <path d="M70.996897,4.43367015 C70.996897,3.27542782 70.0993461,2.38150377 68.0893314,2.38150377 C66.2946677,2.38150377 65.0742,3.0519468 64.2485057,4.43367015 L70.996897,4.43367015 L70.996897,4.43367015 Z M72.7197041,9.63573864 C71.1044629,10.306369 69.2738709,10.6517998 67.3354938,10.6517998 C63.2433888,10.6517998 60.5871025,8.90422703 60.5871025,6.24231153 C60.5871025,3.25519651 63.9255889,0.959130483 68.2330448,0.959130483 C71.8225913,0.959130483 74.5145869,2.8486971 73.8323869,5.63274974 L63.7818756,5.63274974 C63.028257,8.0709969 65.3973358,9.22923923 67.9099089,9.22923923 C69.4173651,9.22923923 71.1403913,8.82292715 73.150625,7.98988435 L72.7197041,9.63573864 L72.7197041,9.63573864 Z" id="Fill-5" sketch:type="MSShapeGroup"></path>
            </g>
        </g>
    </g>
</svg>