<?xml version="1.0" encoding="UTF-8" standalone="no"?>
<svg width="86px" height="18px" viewBox="0 0 86 18" version="1.1" xmlns="http://www.w3.org/2000/svg" xmlns:xlink="http://www.w3.org/1999/xlink" xmlns:sketch="http://www.bohemiancoding.com/sketch/ns">
    <!-- Generator: Sketch 3.3.3 (12081) - http://www.bohemiancoding.com/sketch -->
    <title>Payment/WorldPay/WorldPay-alt</title>
    <desc>Created with Sketch.</desc>
    <defs></defs>
    <g id="Icons:-Payment" stroke="none" stroke-width="1" fill="none" fill-rule="evenodd" sketch:type="MSPage">
        <g id="WorldPay-alt" sketch:type="MSArtboardGroup" transform="translate(-7.000000, -21.000000)" fill="#FFFFFF">
            <g id="Payment/WorldPay/WorldPay-alt" sketch:type="MSLayerGroup" transform="translate(7.000000, 21.000000)">
                <path d="M25.6756832,13.5694286 L27.9568119,6.18857143 C28.0232277,5.96571429 28.0913465,5.89885714 28.3791485,5.84742857 L28.9871089,5.748 L28.9871089,4.854 L25.7931881,4.854 L25.6092673,5.748 L26.7068317,5.88171429 L24.8310099,11.994 L23.193604,5.09657143 L21.4182574,5.09657143 L19.4768713,12.0111429 L17.5857228,5.88171429 L18.6662574,5.748 L18.6662574,4.854 L15.2713861,4.854 L15.0670297,5.748 L15.794198,5.89885714 C15.997703,5.94857143 16.0811485,5.98285714 16.1492673,6.18857143 L18.5308713,13.5677143 L20.3896634,13.5677143 L22.245901,6.82028571 L23.8688317,13.5677143 L25.6756832,13.5694286" id="Fill-1" sketch:type="MSShapeGroup"></path>
                <path d="M33.1602376,13.752 C36.0305941,13.752 37.3129307,11.9057143 37.3129307,9.05142857 C37.3129307,6.504 36.1983366,4.662 33.3279802,4.662 C30.4576238,4.662 29.1071683,6.48685714 29.1071683,9.15428571 C29.1071683,11.8542857 30.2387921,13.752 33.1602376,13.752 L33.1602376,13.752 Z M33.2096238,12.5168571 C31.5492277,12.5168571 30.6934851,11.4308571 30.6934851,9.17142857 C30.6934851,6.92742857 31.6505545,5.94342857 33.2939208,5.94342857 C34.9202574,5.94342857 35.7266139,6.92742857 35.7266139,9.15428571 C35.7266139,11.4814286 34.8368119,12.5168571 33.2096238,12.5168571 L33.2096238,12.5168571 Z" id="Fill-2" sketch:type="MSShapeGroup"></path>
                <path d="M42.4908119,13.5582857 L42.4908119,12.666 L40.9002376,12.5297143 C40.6422376,12.5134286 40.6243564,12.4628571 40.6243564,12.1894286 L40.6243564,7.05771429 C41.022,6.68228571 41.9024356,5.98285714 42.6815446,5.98285714 C42.8348119,5.98285714 42.8697228,6.01628571 42.8884554,6.15342857 L43.0953663,7.34057143 L44.2772277,7.39285714 L44.2772277,4.82142857 C43.975802,4.72542857 43.4606535,4.65685714 43.0766337,4.65685714 C41.9024356,4.65685714 41.0569109,5.388 40.4915248,6.01628571 L40.4421386,6.00085714 L40.2786535,4.83857143 L38.0928911,4.83857143 L37.9413267,5.74371429 L38.903505,6.066 C39.0729505,6.11742857 39.1240396,6.23571429 39.1240396,6.42428571 L39.1240396,12.2082857 C39.1240396,12.4628571 39.0899802,12.5151429 38.8541188,12.5477143 L38.0094455,12.6488571 L38.0094455,13.5582857 L42.4908119,13.5582857" id="Fill-3" sketch:type="MSShapeGroup"></path>
                <path d="M48.5014455,13.5582857 L48.5014455,12.666 L47.4890297,12.5477143 C47.2369901,12.5134286 47.2191089,12.4808571 47.2191089,12.2065714 L47.2191089,0.712285714 L44.6365545,0.712285714 L44.4841386,1.61571429 L45.4982574,1.93971429 C45.667703,1.99114286 45.7187921,2.10942857 45.7187921,2.29714286 L45.7187921,12.2065714 C45.7187921,12.4628571 45.6847327,12.5297143 45.4488713,12.5477143 L44.4006931,12.6488571 L44.4006931,13.5582857 L48.5014455,13.5582857" id="Fill-4" sketch:type="MSShapeGroup"></path>
                <path d="M57.7306931,13.566 L57.7306931,12.6591429 L56.8689901,12.54 C56.616099,12.5057143 56.5990693,12.4705714 56.5990693,12.1997143 L56.5990693,0.712285714 L54.0505743,0.712285714 L53.8981584,1.61571429 L54.9114257,1.94142857 C55.0638416,1.99114286 55.1302574,2.11114286 55.1302574,2.28257143 L55.1302574,5.472 C54.4729109,4.99714286 53.5609703,4.65685714 52.547703,4.65685714 C50.5220198,4.65685714 49.0268119,6.03342857 49.0268119,9.38828571 C49.0268119,12.5031429 50.2861584,13.7502857 52.2105149,13.7502857 C53.5269109,13.7502857 54.406495,13.1605714 55.180495,12.4165714 L55.2469109,12.4345714 L55.3780396,13.566 L57.7306931,13.566 L57.7306931,13.566 Z M55.097901,11.0597143 C54.3545545,11.8062857 53.5439406,12.4688571 52.547703,12.4688571 C51.3658416,12.4688571 50.5739604,11.7042857 50.5739604,9.34371429 C50.5739604,7.32342857 51.1972475,5.93142857 52.7852673,5.93142857 C53.6793267,5.93142857 54.5904158,6.42428571 55.097901,6.84857143 L55.097901,11.0597143 L55.097901,11.0597143 Z" id="Fill-5" sketch:type="MSShapeGroup"></path>
                <path d="M62.722099,17.1428571 L62.722099,16.2505714 L61.1357822,16.1151429 C60.8828911,16.0971429 60.8650099,16.0482857 60.8650099,15.7731429 L60.8650099,12.8211429 C61.6585941,13.5188571 62.4692079,13.7554286 63.4313861,13.7554286 C66.079505,13.7554286 66.9369505,11.4102857 66.9369505,8.85942857 C66.9369505,5.86885714 65.6588713,4.66971429 63.7702772,4.66971429 C62.6216238,4.66971429 61.6764752,5.13685714 60.747505,5.81914286 L60.6981188,5.802 L60.5474059,4.83857143 L58.334396,4.83857143 L58.1819802,5.74371429 L59.1441584,6.066 C59.313604,6.11571429 59.3655446,6.234 59.3655446,6.42 L59.3655446,15.7911429 C59.3655446,16.0482857 59.313604,16.0971429 59.0777426,16.1314286 L58.3846337,16.2334286 L58.3846337,17.1428571 L62.722099,17.1428571 L62.722099,17.1428571 Z M60.8650099,7.00542857 C61.3546139,6.61542857 62.3687327,5.95114286 63.4492673,5.95114286 C64.4948911,5.95114286 65.3906535,6.68228571 65.3906535,8.99571429 C65.3906535,11.1377143 64.7818416,12.4808571 63.178495,12.4808571 C62.2827327,12.4808571 61.4397624,11.9365714 60.8650099,11.376 L60.8650099,7.00542857 L60.8650099,7.00542857 Z" id="Fill-6" sketch:type="MSShapeGroup"></path>
                <path d="M75.8051683,13.566 L75.8051683,12.6591429 L74.9434653,12.54 C74.6905743,12.5057143 74.6735446,12.4705714 74.6735446,12.2005714 L74.6735446,7.69542857 C74.6735446,5.33657143 73.8731485,4.65257143 71.4889901,4.65257143 C70.1649307,4.65257143 68.2422772,4.89171429 68.2422772,6.99428571 L69.6957624,7.14942857 C69.7127921,5.86628571 70.4501782,5.83371429 71.4753663,5.83371429 C72.9365149,5.83371429 73.1732277,6.44828571 73.1732277,7.69542857 L73.1732277,8.60142857 L70.9048713,8.78828571 C68.8800396,8.95714286 67.8335644,9.75342857 67.8335644,11.4428571 C67.8335644,12.3042857 68.1034851,13.746 70.2109109,13.746 C71.5068713,13.746 72.4477624,13.1948571 73.2566733,12.4405714 L73.3060594,12.4551429 L73.4567723,13.566 L75.8051683,13.566 L75.8051683,13.566 Z M73.1732277,11.2568571 C72.6512673,11.7471429 71.5894653,12.5562857 70.5991881,12.5562857 C69.8073069,12.5562857 69.4215842,12.186 69.4215842,11.274 C69.4215842,10.3971429 69.8251881,9.97371429 71.2701584,9.84 L73.1732277,9.66942857 L73.1732277,11.2568571 L73.1732277,11.2568571 Z" id="Fill-7" sketch:type="MSShapeGroup"></path>
                <path d="M81.6940396,17.1428571 L81.6940396,16.2642857 L80.0600396,16.0971429 L84.1539802,6.11914286 C84.2374257,5.93142857 84.3728119,5.86457143 84.5763168,5.83028571 L85.1485149,5.748 L85.1485149,4.854 L81.812396,4.854 L81.6276238,5.748 L82.7728713,5.88171429 L80.4312871,11.6134286 L78.1901782,5.88171429 L79.3013663,5.748 L79.3013663,4.854 L75.8145347,4.854 L75.6135842,5.748 L76.3032871,5.916 C76.5059406,5.96571429 76.5740594,6.00085714 76.6566535,6.20571429 L79.6896436,13.4725714 L78.7112871,15.7388571 C78.6108119,15.9788571 78.544396,16.0825714 78.3425941,16.0971429 L77.1292277,16.2488571 L77.1292277,17.1428571 L81.6940396,17.1428571" id="Fill-8" sketch:type="MSShapeGroup"></path>
                <path d="M8.01843564,3.06514286 C8.94059406,3.26485714 9.99047525,3.66085714 10.893901,4.56685714 C11.1851089,4.85571429 11.438,5.25342857 11.5461386,5.56028571 C11.5997822,5.68628571 11.5997822,5.886 11.6908911,6.012 C11.8356436,6.23057143 12.0885347,6.41057143 12.2690495,6.64542857 C12.5049109,6.89828571 12.6496634,7.17085714 12.7773861,7.45971429 C12.8301782,7.54971429 12.8489109,7.67657143 12.9025545,7.78542857 C12.9749307,7.92942857 13.1026535,8.616 13.1026535,8.87142857 C13.1026535,9.396 12.9212871,10.0465714 12.6854257,10.5522857 C12.6854257,10.5711429 12.7050099,10.5711429 12.7050099,10.6251429 L12.7050099,11.0768571 C12.5049109,13.8625714 9.15687129,15.87 7.05710891,15.87 C6.80421782,15.87 6.08130693,15.8331429 6.08130693,15.3274286 C6.08130693,15.2717143 6.11792079,15.1097143 6.15368317,14.9837143 C5.75433663,15.0385714 4.97607921,15.1825714 4.52394059,15.1825714 C4.18164356,15.1825714 2.60639604,15.1645714 2.60639604,14.3142857 C2.60639604,13.5188571 4.01730693,13.4648571 4.28978218,13.4648571 C5.04845545,13.4648571 5.84544554,13.6808571 6.62370297,14.0434286 C6.4959802,14.0794286 6.26182178,14.1522857 6.22605941,14.1522857 C6.17071287,14.1522857 6.09833663,14.0957143 6.0259604,14.0794286 C5.52017822,13.8977143 4.94031683,13.7905714 4.41580198,13.7905714 C4.10926733,13.7905714 4.05392079,13.7708571 3.6920396,13.8625714 C3.65627723,13.8625714 3.02277228,14.0254286 3.02277228,14.2782857 C3.02277228,14.4582857 3.52855446,14.5671429 3.63669307,14.5851429 C3.85382178,14.6211429 4.30681188,14.658 4.34342574,14.658 C7.56544554,14.658 12.5602574,11.9811429 12.5602574,8.77885714 C12.5602574,8.18314286 12.2886337,7.33371429 11.7445347,6.78942857 C11.7079208,7.02514286 11.6551287,7.278 11.5640198,7.53257143 C11.5103762,7.69542857 11.3656238,7.98428571 11.3656238,8.02028571 C11.3656238,8.02028571 12.2690495,9.01457143 12.2690495,9.23314286 C12.2690495,9.35914286 12.071505,9.918 12.071505,9.93771429 C11.8909901,9.44914286 11.636396,8.96142857 11.1297624,8.47285714 C11.0573861,8.54571429 10.9850099,8.65285714 10.9126337,8.74457143 C10.8215248,8.87142857 10.7133861,8.99742857 10.6052475,9.12428571 C10.3693861,9.396 9.8269901,9.86485714 9.8269901,9.918 C9.8269901,9.918 10.4775248,10.5711429 10.6963564,11.3297143 C10.7321188,11.4385714 10.7857624,11.6554286 10.7857624,11.6914286 C10.7857624,11.8011429 10.4238812,12.036 10.4238812,12.054 C10.4051485,11.4385714 10.1522574,10.788 9.48213861,10.1725714 C8.70473267,10.7511429 7.89071287,11.2225714 7.11245545,11.6014286 C7.58247525,12 7.85409901,12.5785714 7.85409901,12.9934286 C7.85409901,13.1931429 7.7459604,13.6268571 7.65485149,13.6808571 C7.54586139,13.7537143 7.42069307,13.7905714 7.2929703,13.8265714 C7.43772277,13.6448571 7.56544554,13.2291429 7.56544554,13.0491429 C7.56544554,12.7234286 7.34831683,12.216 6.98473267,11.9442857 C6.89532673,11.8902857 6.76845545,11.7642857 6.73184158,11.7642857 C6.6790495,11.7642857 6.22605941,11.9631429 5.97316832,12.054 C5.6819604,12.1628571 5.37542574,12.2528571 5.0680396,12.342 C4.1450297,12.6145714 3.27566337,12.7765714 2.38926733,12.7765714 C2.04526733,12.7765714 0.54239604,12.7405714 0.54239604,11.9271429 C0.54239604,10.7151429 3.3310099,10.6054286 3.70906931,10.6054286 C4.54267327,10.6054286 5.33966337,10.698 6.19029703,11.0768571 C6.0259604,11.13 5.71772277,11.2568571 5.6819604,11.2568571 C5.62831683,11.2568571 4.68742574,10.986 3.83679208,10.986 C3.4570297,10.986 2.9870099,11.0228571 2.62512871,11.094 C2.33392079,11.1497143 2.04526733,11.2225714 1.79152475,11.3297143 C1.70126733,11.3485714 1.03114851,11.6374286 1.03114851,11.8902857 C1.03114851,11.9271429 1.13928713,12 1.21166337,12.036 C1.57524752,12.216 1.90051485,12.1997143 2.26154455,12.1997143 C5.6819604,12.1997143 10.9296634,9.50314286 11.237901,6.69942857 L11.237901,6.24771429 C11.0744158,4.42114286 8.25174257,3.24514286 6.87659406,3.24514286 C6.84083168,3.24514286 6.60667327,3.26485714 6.46021782,3.29914286 C6.55132673,3.33514286 6.65946535,3.33514286 6.75142574,3.372 C6.8229505,3.39085714 6.91320792,3.42771429 7.00431683,3.462 C7.14906931,3.51771429 7.40110891,3.64371429 7.56544554,3.78685714 C7.69061386,3.89657143 7.7629901,4.05857143 7.89071287,4.14857143 C7.98182178,4.24114286 8.16233663,4.22142857 8.30708911,4.27714286 C8.77710891,4.42114286 9.3569703,4.63714286 9.84572277,4.85571429 C10.0432673,4.96285714 10.2970099,5.07257143 10.5158416,5.19857143 C10.5882178,5.25342857 10.6410099,5.36142857 10.6963564,5.45057143 C10.7857624,5.59628571 10.893901,5.832 10.9296634,6.03171429 C9.99047525,5.32457143 9.04873267,4.96285714 8.1069901,4.65685714 L8.05419802,4.65685714 C8.0899604,5.14457143 7.89071287,5.63314286 7.54586139,6.12171429 C8.57871287,6.39342857 9.66350495,6.78942857 10.7321188,7.53257143 C10.6776238,7.65942857 10.6052475,7.80257143 10.5158416,7.92942857 C10.0628515,7.60371429 9.57409901,7.35085714 9.12110891,7.134 C9.0129703,7.08085714 7.49306931,6.51942857 7.25720792,6.51942857 C7.20186139,6.51942857 6.84083168,6.88114286 6.64243564,7.044 C6.15368317,7.44085714 5.66493069,7.74857143 5.17617822,8.03828571 C6.4959802,8.22 7.81833663,8.50885714 9.13813861,9.37628571 C9.04873267,9.46628571 8.84948515,9.648 8.79584158,9.648 C8.76007921,9.648 8.41522772,9.396 8.2159802,9.30428571 C7.2929703,8.85171429 5.53720792,8.41885714 4.47029703,8.41885714 C4.37918812,8.41885714 3.3310099,8.87142857 3.07641584,8.94171429 C2.33392079,9.16028571 1.51990099,9.43028571 0.761227723,9.43028571 C0.506633663,9.43028571 0,9.41314286 0,8.99742857 C0,8.18314286 2.8780198,7.98428571 3.07641584,7.98428571 L3.70906931,7.98428571 C3.25693069,8.16428571 2.71453465,8.36314286 2.28112871,8.47285714 C1.86390099,8.58171429 1.43049505,8.65285714 1.03114851,8.77885714 C0.958772277,8.79857143 0.887247525,8.85171429 0.814871287,8.88857143 C0.814871287,8.88857143 0.797841584,8.90742857 0.850633663,8.90742857 C0.887247525,8.90742857 1.48413861,8.81571429 1.80940594,8.74457143 C3.4570297,8.346 5.22982178,7.69542857 6.85956436,6.19457143 C7.25720792,5.81314286 7.54586139,5.34342857 7.63782178,4.92857143 L7.63782178,4.56685714 C7.58247525,4.16828571 7.00431683,3.75257143 6.64243564,3.64371429 C6.40657426,3.57085714 5.95443564,3.48085714 5.90079208,3.48085714 C5.80968317,3.48085714 5.6819604,3.53485714 5.59255446,3.67971429 C6.17071287,3.80571429 6.84083168,3.67971429 7.34831683,4.404 C7.34831683,4.404 7.36534653,4.42114286 7.34831683,4.45714286 C7.20186139,4.404 5.42906931,3.98571429 5.13956436,3.98571429 C5.03142574,3.98571429 4.18164356,4.584 3.98154455,4.71 C3.43914851,5.03571429 2.8780198,5.34342857 2.33392079,5.61342857 L4.19867327,5.63314286 C5.01269307,5.68628571 5.93740594,5.796 6.76845545,5.95885714 C6.73184158,5.976 6.40657426,6.32057143 6.33419802,6.32057143 C6.29843564,6.32057143 5.71772277,6.21171429 5.42906931,6.17485714 C4.90370297,6.102 4.36215842,6.08485714 3.81805941,6.04885714 L1.46710891,6.102 C1.33938614,6.08485714 1.08649505,6.06771429 1.08649505,5.84914286 C1.08649505,5.68628571 1.2840396,5.57914286 1.43049505,5.52342857 C1.53948515,5.48742857 1.66465347,5.41628571 1.77364356,5.38028571 C2.93166337,4.89171429 4.12629703,4.24114286 5.30390099,3.498 C5.26728713,3.48085714 5.19320792,3.48085714 5.15744554,3.48085714 C5.10380198,3.48085714 4.9590495,3.498 4.85091089,3.53485714 C4.86794059,3.55371429 4.88667327,3.55371429 4.90370297,3.55371429 C4.74192079,3.64371429 4.47029703,3.82371429 4.41580198,3.82371429 C4.28978218,3.82371429 4.10926733,3.66085714 4.10926733,3.55371429 C4.10926733,3.228 4.85091089,3.20914286 4.90370297,3.20914286 C5.64619802,3.192 5.70069307,3.228 5.75433663,3.228 C5.79009901,3.228 6.09833663,3.06514286 6.29843564,3.02914286 C6.58708911,2.95628571 6.73184158,2.95628571 7.00431683,2.95628571 C7.31170297,2.95628571 7.67358416,2.99228571 8.01843564,3.06514286 L8.01843564,3.06514286 Z M6.91320792,15.4542857 C6.85956436,15.4542857 6.40657426,15.4542857 6.40657426,15.2914286 C6.40657426,15.2005714 6.55132673,14.91 6.6790495,14.8765714 C6.9489703,14.7668571 7.52883168,14.6211429 7.56544554,14.6211429 C7.61823762,14.6211429 8.0899604,14.6768571 8.14360396,14.6768571 C8.17936634,14.6768571 8.52421782,14.658 8.72346535,14.604 C8.95762376,14.5482857 9.24883168,14.4411429 9.51875248,14.2782857 C9.79122772,14.1154286 10.1880198,13.7708571 10.3693861,13.482 C10.4775248,13.3191429 10.5328713,13.1022857 10.6597426,12.9574286 C10.8215248,12.7405714 11.1297624,12.5588571 11.3826535,12.3248571 C11.636396,12.0702857 11.8909901,11.8011429 12.124297,11.5114286 C11.636396,13.7905714 8.66811881,15.4542857 6.91320792,15.4542857 L6.91320792,15.4542857 Z M8.19809901,14.3691429 C8.72346535,14.1325714 9.30162376,13.8428571 9.86275248,13.5008571 C9.32035644,14.1154286 8.74049505,14.2782857 8.19809901,14.3691429 L8.19809901,14.3691429 Z" id="Fill-10" sketch:type="MSShapeGroup"></path>
            </g>
        </g>
    </g>
</svg>