<?xml version="1.0" encoding="UTF-8" standalone="no"?>
<svg width="66px" height="44px" viewBox="0 0 66 44" version="1.1" xmlns="http://www.w3.org/2000/svg" xmlns:xlink="http://www.w3.org/1999/xlink" xmlns:sketch="http://www.bohemiancoding.com/sketch/ns">
    <!-- Generator: Sketch 3.3.3 (12081) - http://www.bohemiancoding.com/sketch -->
    <title>Payment/Clickandbuy/Clickandbuy-flat</title>
    <desc>Created with Sketch.</desc>
    <defs></defs>
    <g id="Icons:-Payment" stroke="none" stroke-width="1" fill="none" fill-rule="evenodd" sketch:type="MSPage">
        <g id="Clickandbuy-flat" sketch:type="MSArtboardGroup" transform="translate(-16.000000, -8.000000)" fill="#9B9B9B">
            <g id="Payment/Clickandbuy/Clickandbuy-flat" sketch:type="MSLayerGroup" transform="translate(16.000000, 8.000000)">
                <path d="M49.490919,10.6341514 L40.8776331,2.06658844 C40.8776331,2.06658844 39.7618475,0.955474952 38.1859625,0.955474952 C38.1859625,0.955474952 36.6102268,0.955474952 35.494292,2.06658844 C35.494292,2.06658844 34.3785064,3.17770192 34.3785064,4.74698815 C34.3785064,4.74698815 34.3785064,6.31627439 35.494292,7.42738787 L37.5889076,9.50357599 L29.5529836,9.50357599 C29.5529836,9.50357599 27.9577041,9.50357599 26.8419185,10.6243462 C26.8419185,10.6243462 25.7162864,11.7354596 25.7162864,13.3145511 C25.7162864,13.3145511 25.7162864,14.8934941 26.8419185,16.0144128 C26.8419185,16.0144128 27.9577041,17.1255263 29.5529836,17.1255263 L37.5889076,17.1255263 L35.494292,19.2113711 C35.494292,19.2113711 34.3785064,20.3224846 34.3785064,21.8917708 C34.3785064,21.8917708 34.3785064,23.461057 35.494292,24.5723191 C35.494292,24.5723191 36.6100776,25.6736273 38.1859625,25.6736273 C38.1859625,25.6736273 39.7616983,25.6736273 40.8776331,24.5723191 L49.4812217,15.9949509 C49.4812217,15.9949509 50.5970073,14.8838374 50.5970073,13.3145511 C50.5970073,13.3145511 50.5970073,11.7452649 49.490919,10.6341514" id="path7283_4_" sketch:type="MSShapeGroup"></path>
                <path d="M18.4925481,8.03174803 C18.4925481,8.03174803 20.5970102,8.03174803 22.0847243,9.51323268 C22.0847243,9.51323268 23.5725876,10.9947173 23.5725876,13.0903674 C23.5725876,13.0903674 23.5725876,15.1858689 22.0847243,16.6675021 C22.0847243,16.6675021 20.5970102,18.1491353 18.4925481,18.1491353 C18.4925481,18.1491353 16.3882353,18.1491353 14.900372,16.6675021 C14.900372,16.6675021 13.4126578,15.1860174 13.4126578,13.0903674 C13.4126578,13.0903674 13.4126578,10.9947173 14.900372,9.51323268 C14.9005212,9.51323268 16.3882353,8.03174803 18.4925481,8.03174803" id="path7285_4_" sketch:type="MSShapeGroup"></path>
                <path d="M4.84696322,40.152421 C4.84696322,40.152421 4.13980668,40.2902888 3.51007931,40.2902888 C1.65058584,40.2902888 0.605665085,39.2801991 0.605665085,37.382734 L0.605665085,35.2404348 C0.605665085,33.3431182 1.63521936,32.3331771 3.51007931,32.3331771 C4.2014218,32.3331771 4.84696322,32.4708964 4.84696322,32.4708964 C5.0464291,32.5016492 5.13877718,32.6087642 5.13877718,32.7770877 L5.13877718,33.7103695 C5.13877718,33.8789902 5.03121181,33.970803 4.84696322,33.9552037 C4.84696322,33.9552037 4.18590613,33.8632423 3.61764469,33.8632423 C2.61867419,33.8632423 2.29612726,34.4447236 2.29612726,35.271039 L2.29612726,37.3366791 C2.29612726,38.1940445 2.64970553,38.760075 3.63301117,38.760075 C4.23245314,38.760075 4.8623297,38.6682622 4.8623297,38.6682622 C5.031361,38.6529601 5.13892637,38.7296193 5.13892637,38.8979428 L5.13892637,39.8312247 C5.13877718,39.9993996 5.06209396,40.1065146 4.84696322,40.152421" id="path4056_4_" sketch:type="MSShapeGroup"></path>
                <path d="M7.6132283,40.1371189 L6.50669243,40.1371189 C6.33736276,40.1371189 6.21458009,40.0147018 6.21458009,39.8463782 L6.21458009,29.5636387 C6.21458009,29.394721 6.33736276,29.272601 6.50669243,29.272601 L7.6132283,29.272601 C7.78211041,29.272601 7.90504227,29.394721 7.90504227,29.5636387 L7.90504227,39.8463782 C7.90489308,40.0147018 7.78211041,40.1371189 7.6132283,40.1371189" id="path4058_4_" sketch:type="MSShapeGroup"></path>
                <path d="M10.6092447,40.1371189 L9.50300717,40.1371189 C9.33397587,40.1371189 9.21089483,40.0147018 9.21089483,39.8463782 L9.21089483,32.7769391 C9.21089483,32.6086156 9.33397587,32.4860499 9.50300717,32.4860499 L10.6092447,32.4860499 C10.7784252,32.4860499 10.9015062,32.6086156 10.9015062,32.7769391 L10.9015062,39.8463782 C10.9016554,40.0147018 10.7785743,40.1371189 10.6092447,40.1371189 M10.6092447,30.9561333 L9.50300717,30.9561333 C9.33397587,30.9561333 9.21089483,30.8337162 9.21089483,30.6655412 L9.21089483,29.5636387 C9.21089483,29.394721 9.33397587,29.272601 9.50300717,29.272601 L10.6092447,29.272601 C10.7784252,29.272601 10.9015062,29.394721 10.9015062,29.5636387 L10.9015062,30.6655412 C10.9016554,30.8337162 10.7785743,30.9561333 10.6092447,30.9561333" id="path4060_4_" sketch:type="MSShapeGroup"></path>
                <path d="M16.4485077,40.152421 C16.4485077,40.152421 15.7416495,40.2902888 15.1120714,40.2902888 C13.2524287,40.2902888 12.2076571,39.2801991 12.2076571,37.382734 L12.2076571,35.2404348 C12.2076571,33.3431182 13.2370622,32.3331771 15.1120714,32.3331771 C15.8034139,32.3331771 16.4485077,32.4708964 16.4485077,32.4708964 C16.648272,32.5016492 16.74062,32.6087642 16.74062,32.7770877 L16.74062,33.7103695 C16.74062,33.8789902 16.6330547,33.970803 16.4485077,33.9552037 C16.4485077,33.9552037 15.787749,33.8632423 15.2191892,33.8632423 C14.2205171,33.8632423 13.8976717,34.4447236 13.8976717,35.271039 L13.8976717,37.3366791 C13.8976717,38.1940445 14.2513992,38.760075 15.2347048,38.760075 C15.8338484,38.760075 16.4640234,38.6682622 16.4640234,38.6682622 C16.6329055,38.6529601 16.7404709,38.7296193 16.7404709,38.8979428 L16.7404709,39.8312247 C16.74062,39.9993996 16.6636385,40.1065146 16.4485077,40.152421" id="path4062_4_" sketch:type="MSShapeGroup"></path>
                <path d="M23.3176234,40.1371189 L22.0727892,40.1371189 C21.9039071,40.1371189 21.7657579,39.9993996 21.6887763,39.8463782 L19.5989348,35.8526688 L21.5042294,32.7769391 C21.5964283,32.6389228 21.7345774,32.4860499 21.9039071,32.4860499 L23.1487413,32.4860499 C23.3176234,32.4860499 23.4096731,32.6389228 23.3176234,32.7769391 L21.4120305,35.821916 L23.5172385,39.8463782 C23.5942201,39.9840975 23.4866547,40.1371189 23.3176234,40.1371189 M19.214922,40.1371189 L18.1083861,40.1371189 C17.939504,40.1371189 17.8162738,40.0147018 17.8162738,39.8463782 L17.8162738,29.5636387 C17.8162738,29.394721 17.939504,29.272601 18.1083861,29.272601 L19.214922,29.272601 C19.3838041,29.272601 19.5070343,29.394721 19.5070343,29.5636387 L19.5070343,39.8463782 C19.5068851,40.0147018 19.3838041,40.1371189 19.214922,40.1371189" id="path4064_4_" sketch:type="MSShapeGroup"></path>
                <path d="M27.8816177,36.9388235 L26.5909824,36.9388235 C25.7611924,36.9388235 25.4229806,37.2909212 25.4229806,37.9489131 C25.4229806,38.5302458 25.7611924,38.8670414 26.4371684,38.8670414 C26.9135293,38.8670414 27.4361389,38.6834158 27.8816177,38.4538837 L27.8816177,36.9388235 L27.8816177,36.9388235 Z M29.2798183,40.1371189 L28.2504132,40.1371189 C28.0815311,40.1371189 27.9585992,40.0147018 27.9585992,39.8463782 L27.9585992,39.7088076 C27.4667226,40.0147018 26.8214796,40.2902888 26.0989566,40.2902888 C24.6087062,40.2902888 23.7325184,39.5401869 23.7325184,37.9949681 C23.7325184,36.4186994 24.7006068,35.6384389 26.4062862,35.6384389 C26.929045,35.6384389 27.6820026,35.6992018 27.8814685,35.7304003 L27.8814685,35.1181662 C27.8814685,34.3223065 27.5280394,33.8939952 26.6215662,33.8939952 C25.7149437,33.8939952 24.5621592,34.1541315 24.5621592,34.1541315 C24.3779106,34.1998894 24.2703453,34.0777694 24.2703453,33.9091488 L24.2703453,32.9760155 C24.2703453,32.8073948 24.3779106,32.700577 24.5621592,32.654522 C24.5621592,32.654522 25.5611297,32.3333257 26.8519142,32.3333257 C28.8956563,32.3333257 29.5716323,33.2820582 29.5716323,35.1183148 L29.5716323,39.8465268 C29.5717814,40.0147018 29.4488496,40.1371189 29.2798183,40.1371189 L29.2798183,40.1371189 Z" id="path4066_4_" sketch:type="MSShapeGroup"></path>
                <path d="M36.4255307,40.1371189 L35.3192932,40.1371189 C35.1504111,40.1371189 35.02733,40.0147018 35.02733,39.8463782 L35.02733,35.0874134 C35.02733,34.3686586 34.8120501,33.9090002 33.9979249,33.9090002 C33.521564,33.9090002 32.9989544,34.1233787 32.5686929,34.3530593 L32.5686929,39.8463782 C32.5686929,40.0147018 32.4459103,40.1371189 32.2767298,40.1371189 L31.1704923,40.1371189 C31.0011626,40.1371189 30.87838,40.0147018 30.87838,39.8463782 L30.87838,32.7769391 C30.87838,32.6086156 31.0011626,32.4860499 31.1704923,32.4860499 L32.1998974,32.4860499 C32.3689287,32.4860499 32.4920097,32.6086156 32.4920097,32.7769391 L32.4920097,33.0066198 C32.9373393,32.6698242 33.598098,32.3331771 34.4736891,32.3331771 C36.148934,32.3331771 36.7173446,33.3431182 36.7173446,34.9345406 L36.7173446,39.8463782 C36.7173446,40.0147018 36.594562,40.1371189 36.4255307,40.1371189" id="path4068_4_" sketch:type="MSShapeGroup"></path>
                <path d="M41.8655636,34.1082251 C41.4508177,33.9399016 40.9898233,33.8173359 40.5749283,33.8173359 C39.7296226,33.8173359 39.4070757,34.3530593 39.4070757,35.1181662 L39.4070757,37.4899976 C39.4070757,38.2551045 39.7296226,38.7905307 40.5749283,38.7905307 C40.9898233,38.7905307 41.4508177,38.6375094 41.8655636,38.4385816 L41.8655636,34.1082251 L41.8655636,34.1082251 Z M43.2639134,40.1371189 L42.2342099,40.1371189 C42.0651786,40.1371189 41.942396,40.0147018 41.942396,39.8463782 L41.942396,39.7548625 C41.466035,40.045306 40.8822579,40.2902888 40.2214992,40.2902888 C38.5156705,40.2902888 37.7167627,39.2494463 37.7167627,37.6122661 L37.7167627,35.0107541 C37.7167627,33.3734254 38.5156705,32.3331771 40.2214992,32.3331771 C40.851525,32.3331771 41.4047183,32.5166542 41.8657127,32.7464834 L41.8657127,29.5636387 C41.8657127,29.394721 41.9887938,29.272601 42.1578251,29.272601 L43.2640626,29.272601 C43.4330939,29.272601 43.5561749,29.394721 43.5561749,29.5636387 L43.5561749,39.8463782 C43.5560257,40.0147018 43.4329447,40.1371189 43.2639134,40.1371189 L43.2639134,40.1371189 Z" id="path4070_4_" sketch:type="MSShapeGroup"></path>
                <path d="M49.0112759,35.1181662 C49.0112759,34.3532079 48.7036479,33.8173359 47.8584914,33.8173359 C47.4435964,33.8173359 46.9672355,33.9706544 46.5523405,34.1694337 L46.5523405,38.6834158 L47.7354104,38.6834158 C48.6576977,38.6834158 49.0112759,38.1787423 49.0112759,37.4134869 L49.0112759,35.1181662 L49.0112759,35.1181662 Z M47.8893736,40.1371189 L45.154289,40.1371189 C44.9849593,40.1371189 44.8621767,40.0147018 44.8621767,39.8463782 L44.8621767,29.5636387 C44.8621767,29.394721 44.9849593,29.272601 45.154289,29.272601 L46.2605265,29.272601 C46.429707,29.272601 46.5524897,29.394721 46.5524897,29.5636387 L46.5524897,32.8072463 C47.0134841,32.5319564 47.5820439,32.3331771 48.2120697,32.3331771 C49.9176,32.3331771 50.7017381,33.3735739 50.7017381,35.0107541 L50.7017381,37.4590962 C50.7015889,39.1268806 49.7945189,40.1371189 47.8893736,40.1371189 L47.8893736,40.1371189 Z" id="path4072_4_" sketch:type="MSShapeGroup"></path>
                <path d="M57.5551889,40.1371189 L56.5256347,40.1371189 C56.3566034,40.1371189 56.2336715,40.0147018 56.2336715,39.8463782 L56.2336715,39.6166976 C55.7881927,39.9537903 55.1272848,40.2902888 54.2513954,40.2902888 C52.5764489,40.2902888 52.007889,39.2801991 52.007889,37.6887768 L52.007889,32.7769391 C52.007889,32.6086156 52.1306717,32.4860499 52.3000014,32.4860499 L53.4065372,32.4860499 C53.5754194,32.4860499 53.6985004,32.6086156 53.6985004,32.7769391 L53.6985004,37.535904 C53.6985004,38.2551045 53.913482,38.7138715 54.7277563,38.7138715 C55.203968,38.7138715 55.7265776,38.5000872 56.1569883,38.270258 L56.1569883,32.7769391 C56.1569883,32.6086156 56.2799201,32.4860499 56.4488022,32.4860499 L57.5551889,32.4860499 C57.7242202,32.4860499 57.8471521,32.6086156 57.8471521,32.7769391 L57.8471521,39.8463782 C57.8471521,40.0147018 57.724071,40.1371189 57.5551889,40.1371189" id="path4074_4_" sketch:type="MSShapeGroup"></path>
                <path d="M61.9655184,42.7690866 C61.9040524,42.9221079 61.8118535,43.044525 61.6429714,43.044525 L60.397988,43.044525 C60.2291059,43.044525 60.1063233,42.9068058 60.16764,42.7540816 L61.0433803,40.198476 L58.5999605,32.7770877 C58.5541594,32.6243634 58.6465075,32.4861985 58.8307561,32.4861985 L60.0448573,32.4861985 C60.2137394,32.4861985 60.3365221,32.5936106 60.3827707,32.761637 L61.9503011,37.6124147 L63.5945146,32.761637 C63.6559805,32.6089127 63.7635459,32.4861985 63.9325772,32.4861985 L65.1466784,32.4861985 C65.330927,32.4861985 65.4383432,32.6390713 65.3770265,32.7925384 L61.9655184,42.7690866 L61.9655184,42.7690866 Z" id="path4076_4_" sketch:type="MSShapeGroup"></path>
            </g>
        </g>
    </g>
</svg>