<?xml version="1.0" encoding="UTF-8" standalone="no"?>
<svg width="64px" height="26px" viewBox="0 0 64 26" version="1.1" xmlns="http://www.w3.org/2000/svg" xmlns:xlink="http://www.w3.org/1999/xlink" xmlns:sketch="http://www.bohemiancoding.com/sketch/ns">
    <!-- Generator: Sketch 3.3.3 (12081) - http://www.bohemiancoding.com/sketch -->
    <title>Payment/Ebay/Ebay-alt</title>
    <desc>Created with Sketch.</desc>
    <defs></defs>
    <g id="Icons:-Payment" stroke="none" stroke-width="1" fill="none" fill-rule="evenodd" sketch:type="MSPage">
        <g id="Ebay-alt" sketch:type="MSArtboardGroup" transform="translate(-18.000000, -17.000000)" fill="#FFFFFF">
            <g id="Payment/Ebay/Ebay-alt" sketch:type="MSLayerGroup" transform="translate(18.000000, 17.000000)">
                <path d="M8.29150891,5.6530399 C3.78042005,5.6530399 0.0213326869,7.58070998 0.0213326869,13.3964027 C0.0213326869,18.0037116 2.54904683,20.905118 8.40799019,20.905118 C15.3042409,20.905118 15.7463155,16.3294945 15.7463155,16.3294945 L12.4047567,16.3294945 C12.4047567,16.3294945 11.6882985,18.7932919 8.20414784,18.7932919 C5.36640235,18.7932919 3.32538453,16.8624491 3.32538453,14.1560921 L16.0957596,14.1560921 L16.0957596,12.4578132 C16.0957596,9.78037531 14.408278,5.6530399 8.29150891,5.6530399 L8.29150891,5.6530399 Z M8.17502741,7.82352785 C10.8762673,7.82352785 12.7178003,9.49033134 12.7178003,11.9885183 L3.39929195,11.9885183 C3.39929195,9.33638727 5.80296171,7.82352785 8.17502741,7.82352785 L8.17502741,7.82352785 Z" id="e" sketch:type="MSShapeGroup"></path>
                <path d="M16.0933892,0.0215032441 L16.0933892,17.9845 C16.0933892,19.0041366 16.0211381,20.4358234 16.0211381,20.4358234 L19.2082812,20.4358234 C19.2082812,20.4358234 19.3226786,19.4075657 19.3226786,18.4678382 C19.3226786,18.4678382 20.8973331,20.9491143 25.1789355,20.9491143 C29.6876352,20.9491143 32.7502229,17.7962353 32.7502229,13.2790788 C32.7502229,9.07683336 29.9371371,5.6970362 25.1862144,5.6970362 C20.7373109,5.6970362 19.3548672,8.11683707 19.3548672,8.11683707 L19.3548672,0.0215032441 L16.0933892,0.0215032441 Z M24.3635648,7.91885331 C27.4253227,7.91885331 29.3722645,10.20764 29.3722645,13.2790788 C29.3722645,16.5726396 27.1236117,18.7272972 24.3854059,18.7272972 C21.117597,18.7272972 19.3548672,16.1573549 19.3548672,13.3084099 C19.3548672,10.6537482 20.9366163,7.91885331 24.3635648,7.91885331 L24.3635648,7.91885331 Z" id="b" sketch:type="MSShapeGroup"></path>
                <path d="M40.6709547,5.6530399 C33.8843627,5.6530399 33.4491115,9.39591739 33.4491115,9.99401602 L36.8270699,9.99401602 C36.8270699,9.99401602 37.0042091,7.80886235 40.4379925,7.80886235 C42.6693205,7.80886235 44.3983595,8.83756223 44.3983595,10.8152817 L44.3983595,11.5192237 L40.4379925,11.5192237 C35.1803243,11.5192237 32.4007787,13.0684219 32.4007787,16.2121709 C32.4007787,19.3060714 34.9689899,20.9894444 38.4396096,20.9894444 C43.1695253,20.9894444 44.6932011,18.3569944 44.6932011,18.3569944 C44.6932011,19.4040389 44.7733461,20.4358234 44.7733461,20.4358234 L47.7763179,20.4358234 C47.7763179,20.4358234 47.6598357,19.1568943 47.6598357,18.3386625 L47.6598357,11.2662446 C47.6598357,6.62895699 43.9462336,5.6530399 40.6709547,5.6530399 L40.6709547,5.6530399 Z M44.3983595,13.6310499 L44.3983595,14.5696393 C44.3983595,15.7938158 43.6483797,18.8372881 39.2331392,18.8372881 C36.8153685,18.8372881 35.7787392,17.6219158 35.7787392,16.2121709 C35.7787392,13.6475667 39.2696789,13.6310499 44.3983595,13.6310499 L44.3983595,13.6310499 Z" id="a" sketch:type="MSShapeGroup"></path>
                <path d="M45.8408555,6.24024947 L49.6410603,6.24024947 L55.0948821,17.2456294 L60.5362261,6.24024947 L63.9786667,6.24024947 L54.0673515,25.833297 L50.4564288,25.833297 L53.3164629,20.3714678 L45.8408555,6.24024947 Z" id="y" sketch:type="MSShapeGroup"></path>
            </g>
        </g>
    </g>
</svg>