<?xml version="1.0" encoding="UTF-8" standalone="no"?>
<svg width="62px" height="26px" viewBox="0 0 62 26" version="1.1" xmlns="http://www.w3.org/2000/svg" xmlns:xlink="http://www.w3.org/1999/xlink" xmlns:sketch="http://www.bohemiancoding.com/sketch/ns">
    <!-- Generator: Sketch 3.3.3 (12081) - http://www.bohemiancoding.com/sketch -->
    <title>Payment/Stripe/Stripe</title>
    <desc>Created with Sketch.</desc>
    <defs></defs>
    <g id="Icons:-Payment" stroke="none" stroke-width="1" fill="none" fill-rule="evenodd" sketch:type="MSPage">
        <g id="Stripe" sketch:type="MSArtboardGroup" transform="translate(-19.000000, -17.000000)" fill="#1A1919">
            <g id="Payment/Stripe/Stripe" sketch:type="MSLayerGroup" transform="translate(19.000000, 17.000000)">
                <path d="M6.49607743,11.7000691 C5.16101991,11.2021968 4.42936504,10.8149628 4.42936504,10.2064521 C4.42936504,9.69004787 4.85005973,9.39505851 5.59995796,9.39505851 C6.97163938,9.39505851 8.37980752,9.92985638 9.34917478,10.4091968 L9.89784735,6.99794149 C9.12970575,6.62910106 7.55679867,6.02059043 5.38048894,6.02059043 C3.84420575,6.02059043 2.56387832,6.42621809 1.64951549,7.18229255 C0.698391593,7.97515426 0.204586283,9.11846277 0.204586283,10.5014415 C0.204586283,13.0091968 1.72262611,14.0787926 4.19165265,14.9822926 C5.7828031,15.5538777 6.3132323,15.9596436 6.3132323,16.5865479 C6.3132323,17.1950585 5.80104646,17.545367 4.8683031,17.545367 C3.71609071,17.545367 1.81411726,16.9737819 0.570413717,16.2362394 L0.0217411504,19.6844202 C1.08246239,20.2929309 3.05768363,20.9198351 5.10615265,20.9198351 C6.73378982,20.9198351 8.08722788,20.5326011 9.00172788,19.7950585 C10.0258252,18.9836649 10.5562544,17.7851755 10.5562544,16.2362394 C10.5562544,13.6730266 9.00172788,12.6035691 6.49607743,11.7000691 L6.49607743,11.7000691 Z M19.4882323,9.69004787 L20.0369049,6.29718617 L17.1403252,6.29718617 L17.1403252,2.17839894 L13.2458473,2.8245266 L12.683458,6.29718617 L11.3136969,6.52122872 L10.8009624,9.69004787 L12.6778341,9.69004787 L12.6778341,16.3468777 C12.6778341,18.0801649 13.1167721,19.2787926 14.0128916,20.0163351 C14.7627898,20.6248457 15.8417544,20.9198351 17.3597942,20.9198351 C18.53025,20.9198351 19.2435243,20.7170904 19.7373296,20.5879202 L19.7373296,16.9921755 C19.4629934,17.0660266 18.8412102,17.1950585 18.4205155,17.1950585 C17.524396,17.1950585 17.1403252,16.7341117 17.1403252,15.6830479 L17.1403252,9.69004787 L19.4882323,9.69004787 L19.4882323,9.69004787 Z M28.1868872,6.09900532 C26.9066969,6.09900532 25.8824624,6.77666489 25.4801482,7.99368617 L25.2058119,6.29718617 L21.2371261,6.29718617 L21.2371261,20.6432394 L25.7727279,20.6432394 L25.7727279,11.3312287 C26.339781,10.6304734 27.1444093,10.3771117 28.2417544,10.3771117 C28.479604,10.3771117 28.7355597,10.3771117 29.0465199,10.4324309 L29.0465199,6.20964362 C28.7355597,6.13593085 28.4612235,6.09900532 28.1868872,6.09900532 L28.1868872,6.09900532 Z M32.4300465,4.87728191 C33.7468606,4.87728191 34.8075819,3.78943085 34.8075819,2.46177128 C34.8075819,1.11557979 33.7468606,0.0461223404 32.4300465,0.0461223404 C31.0948518,0.0461223404 30.0341305,1.11557979 30.0341305,2.46177128 C30.0341305,3.78943085 31.0948518,4.87728191 32.4300465,4.87728191 L32.4300465,4.87728191 Z M30.143865,6.29718617 L34.6978473,6.29718617 L34.6978473,20.6432394 L30.143865,20.6432394 L30.143865,6.29718617 Z M47.6030376,7.58792021 C46.7982721,6.53685638 45.6826836,6.02059043 44.256135,6.02059043 C42.9393208,6.02059043 41.7871084,6.57378191 40.7080066,7.73548404 L40.4702942,6.29718617 L36.4832279,6.29718617 L36.4832279,25.9538777 L41.0189668,25.1979415 L41.0189668,20.5879202 C41.7138606,20.8091968 42.427135,20.9198351 43.0672987,20.9198351 C44.2012677,20.9198351 45.8472854,20.6248457 47.1274757,19.2234734 C48.3527987,17.8772819 48.974719,15.7936862 48.974719,13.0461223 C48.974719,10.6120798 48.5174004,8.76815426 47.6030376,7.58792021 L47.6030376,7.58792021 Z M43.8354403,16.438984 C43.4696128,17.1397394 42.9026969,17.5085798 42.2442898,17.5085798 C41.7871084,17.5085798 41.3846571,17.4163351 41.0189668,17.231984 L41.0189668,10.4091968 C41.7871084,9.59794149 42.4820022,9.50569681 42.7380951,9.50569681 C43.8903075,9.50569681 44.4572235,10.7596436 44.4572235,13.2120798 C44.4572235,14.6134521 44.256135,15.7014415 43.8354403,16.438984 L43.8354403,16.438984 Z M61.9782588,13.3411117 C61.9782588,11.054633 61.4844535,9.24749468 60.5150863,7.97515426 C59.5274757,6.68442021 58.0460597,6.02059043 56.1623296,6.02059043 C52.3032412,6.02059043 49.9074624,8.89718617 49.9074624,13.5070691 C49.9074624,16.0886755 50.5474889,18.0248457 51.8094358,19.2602606 C52.9434049,20.3666436 54.5711792,20.9198351 56.6743783,20.9198351 C58.6129757,20.9198351 60.4053518,20.4588883 61.5393208,19.7028138 L61.0455155,16.5681543 C59.9297898,17.1766649 58.6313562,17.5085798 57.1681836,17.5085798 C56.2903075,17.5085798 55.6867677,17.3240904 55.2478296,16.9368564 C54.7722677,16.5312287 54.4979314,15.8673989 54.4065774,14.9269734 L61.9233916,14.9269734 C61.941635,14.7056968 61.9782588,13.6730266 61.9782588,13.3411117 L61.9782588,13.3411117 Z M54.3699535,12.1240904 C54.4979314,10.0772819 55.046604,9.11846277 56.0890819,9.11846277 C57.1133164,9.11846277 57.6437456,10.0958138 57.7168562,12.1240904 L54.3699535,12.1240904 L54.3699535,12.1240904 Z" id="Fill-1" sketch:type="MSShapeGroup"></path>
            </g>
        </g>
    </g>
</svg>