<?xml version="1.0" encoding="UTF-8" standalone="no"?>
<svg width="60px" height="21px" viewBox="0 0 60 21" version="1.1" xmlns="http://www.w3.org/2000/svg" xmlns:xlink="http://www.w3.org/1999/xlink" xmlns:sketch="http://www.bohemiancoding.com/sketch/ns">
    <!-- Generator: Sketch 3.3.3 (12081) - http://www.bohemiancoding.com/sketch -->
    <title>Payment/Skrill/Skrill-flat</title>
    <desc>Created with Sketch.</desc>
    <defs></defs>
    <g id="Icons:-Payment" stroke="none" stroke-width="1" fill="none" fill-rule="evenodd" sketch:type="MSPage">
        <g id="Skrill-flat" sketch:type="MSArtboardGroup" transform="translate(-20.000000, -20.000000)" fill="#9B9B9B">
            <g id="Payment/Skrill/Skrill-flat" sketch:type="MSLayerGroup" transform="translate(20.000000, 19.000000)">
                <path d="M42.8081509,16.205358 C44.1386268,16.205358 45.2164154,17.2828028 45.2164154,18.6119035 C45.2164154,19.941348 44.1386268,21.0198242 42.8081509,21.0198242 C41.4800816,21.0198242 40.402293,19.941348 40.402293,18.6119035 C40.402293,17.2828028 41.4800816,16.205358 42.8081509,16.205358 L42.8081509,16.205358 Z M24.3643861,14.9061672 C24.255404,14.6328524 23.4736205,12.4236436 21.5817319,10.1339874 L21.5817319,19.9241584 L16.541738,18.9281923 L16.541738,1.18163808 L21.5817319,1.18163808 L21.5817319,6.66718669 C23.0418174,4.47826165 23.7624059,1.18163808 23.7624059,1.18163808 L29.7993972,1.18163808 C29.2022302,3.66416168 26.5900969,8.24175505 26.5900969,8.24175505 C28.934416,11.2138388 29.9640737,14.3808527 30.1277188,14.9061672 L24.3643861,14.9061672 L24.3643861,14.9061672 Z M37.6141381,15.0911274 C33.1001463,14.9460471 30.8080836,12.9207671 30.8080836,8.89461646 L30.8080836,1.18163808 L35.7335947,1.18163808 L35.7335947,7.47166048 C35.7335947,9.88198771 36.0491959,10.9157709 38.9095472,11.0140955 L38.9095472,15.0203062 C38.4282381,15.1227563 37.6141381,15.0911274 37.6141381,15.0911274 L37.6141381,15.0911274 Z M8.08926255,12.9517084 C7.47181173,12.9919321 6.04266748,13.0844122 6.04266748,14.3712265 C6.04266748,15.9237921 8.1002639,15.9237921 8.87207743,15.9237921 C10.2290253,15.9237921 11.9864911,15.5232742 13.2416765,15.1475093 C13.2416765,15.1475093 13.9419812,14.9006665 14.5377732,14.6479792 L14.5931237,14.6328524 L14.5931237,14.6892343 L14.5931237,18.8852183 L14.5171456,18.9075648 C13.035745,19.4256596 11.313346,19.9241584 8.12020385,19.9241584 C2.6143715,19.9241584 0.663694459,16.7169208 0.663694459,13.9693334 C0.663694459,12.3854826 1.34234029,8.65739984 7.64817713,8.22731577 C8.18243024,8.19465551 9.60091692,8.11283296 9.60091692,6.78338846 C9.60091692,5.68531612 8.43958682,5.03829917 6.48650323,5.03829917 C4.34605289,5.03829917 2.26886032,5.58389742 1.00783047,6.1016485 L1.00783047,1.72242324 C2.89628111,1.22770624 5.02435494,0.980175844 7.51925505,0.980175844 C12.9026974,0.980175844 15.3137122,4.01482974 15.3137122,7.02232405 C15.3137122,10.4323991 12.6156309,12.6484837 8.08926255,12.9517084 L8.08926255,12.9517084 Z M40.3668824,1.18163808 L45.251826,1.18163808 L45.251826,14.8903527 L40.3668824,14.8903527 L40.3668824,1.18163808 L40.3668824,1.18163808 Z M54.4503306,19.0505823 L54.4503306,1.18163808 L59.3363055,1.18163808 L59.3363055,19.9241584 L54.4503306,19.0505823 L54.4503306,19.0505823 Z M47.3214552,19.0505823 L52.2022733,19.9241584 L52.2022733,1.18163808 L47.3214552,1.18163808 L47.3214552,19.0505823 L47.3214552,19.0505823 Z" id="path3005" sketch:type="MSShapeGroup" transform="translate(30.000000, 11.000000) scale(1, -1) translate(-30.000000, -11.000000) "></path>
            </g>
        </g>
    </g>
</svg>