<?xml version="1.0" encoding="UTF-8" standalone="no"?>
<svg width="100px" height="60px" viewBox="0 0 100 60" version="1.1" xmlns="http://www.w3.org/2000/svg" xmlns:xlink="http://www.w3.org/1999/xlink" xmlns:sketch="http://www.bohemiancoding.com/sketch/ns">
    <!-- Generator: Sketch 3.3.3 (12081) - http://www.bohemiancoding.com/sketch -->
    <title>Payment/Skrill/Skrill-card-flat </title>
    <desc>Created with Sketch.</desc>
    <defs></defs>
    <g id="Icons:-Payment" stroke="none" stroke-width="1" fill="none" fill-rule="evenodd" sketch:type="MSPage">
        <g id="Skrill-card-flat-" sketch:type="MSArtboardGroup" fill="#9B9B9B">
            <g id="Payment/Skrill/Skrill-card-flat-" sketch:type="MSLayerGroup">
                <path d="M0,4.0065556 C0,1.79379604 1.79952991,0 3.99732351,0 L96.0026765,0 C98.2103373,0 100,1.79568082 100,4.0065556 L100,55.9934444 C100,58.206204 98.2004701,60 96.0026765,60 L3.99732351,60 C1.78966269,60 0,58.2043192 0,55.9934444 L0,4.0065556 Z M62.8081509,24.794642 C64.1386268,24.794642 65.2164154,23.7171972 65.2164154,22.3880965 C65.2164154,21.058652 64.1386268,19.9801758 62.8081509,19.9801758 C61.4800816,19.9801758 60.402293,21.058652 60.402293,22.3880965 C60.402293,23.7171972 61.4800816,24.794642 62.8081509,24.794642 Z M44.3643861,26.0938328 C44.255404,26.3671476 43.4736205,28.5763564 41.5817319,30.8660126 L41.5817319,21.0758416 L36.541738,22.0718077 L36.541738,39.8183619 L41.5817319,39.8183619 L41.5817319,34.3328133 C43.0418174,36.5217384 43.7624059,39.8183619 43.7624059,39.8183619 L49.7993972,39.8183619 C49.2022302,37.3358383 46.5900969,32.758245 46.5900969,32.758245 C48.934416,29.7861612 49.9640737,26.6191473 50.1277188,26.0938328 L44.3643861,26.0938328 L44.3643861,26.0938328 Z M57.6141381,25.9088726 C53.1001463,26.0539529 50.8080836,28.0792329 50.8080836,32.1053835 L50.8080836,39.8183619 L55.7335947,39.8183619 L55.7335947,33.5283395 C55.7335947,31.1180123 56.0491959,30.0842291 58.9095472,29.9859045 L58.9095472,25.9796938 C58.4282381,25.8772437 57.6141381,25.9088726 57.6141381,25.9088726 Z M28.0892625,28.0482916 C27.4718117,28.0080679 26.0426675,27.9155878 26.0426675,26.6287735 C26.0426675,25.0762079 28.1002639,25.0762079 28.8720774,25.0762079 C30.2290253,25.0762079 31.9864911,25.4767258 33.2416765,25.8524907 C33.2416765,25.8524907 33.9419812,26.0993335 34.5377732,26.3520208 L34.5931237,26.3671476 L34.5931237,26.3107657 L34.5931237,22.1147817 L34.5171456,22.0924352 C33.035745,21.5743404 31.313346,21.0758416 28.1202038,21.0758416 C22.6143715,21.0758416 20.6636945,24.2830792 20.6636945,27.0306666 C20.6636945,28.6145174 21.3423403,32.3426002 27.6481771,32.7726842 C28.1824302,32.8053445 29.6009169,32.887167 29.6009169,34.2166115 C29.6009169,35.3146839 28.4395868,35.9617008 26.4865032,35.9617008 C24.3460529,35.9617008 22.2688603,35.4161026 21.0078305,34.8983515 L21.0078305,39.2775768 C22.8962811,39.7722938 25.0243549,40.0198242 27.5192551,40.0198242 C32.9026974,40.0198242 35.3137122,36.9851703 35.3137122,33.9776759 C35.3137122,30.5676009 32.6156309,28.3515163 28.0892625,28.0482916 L28.0892625,28.0482916 Z M60.3668824,39.8183619 L65.251826,39.8183619 L65.251826,26.1096473 L60.3668824,26.1096473 L60.3668824,39.8183619 Z M74.4503306,21.9494177 L74.4503306,39.8183619 L79.3363055,39.8183619 L79.3363055,21.0758416 L74.4503306,21.9494177 L74.4503306,21.9494177 Z M67.3214552,21.9494177 L72.2022733,21.0758416 L72.2022733,39.8183619 L67.3214552,39.8183619 L67.3214552,21.9494177 Z" id="Rectangle" sketch:type="MSShapeGroup"></path>
            </g>
        </g>
    </g>
</svg>