<?xml version="1.0" encoding="UTF-8" standalone="no"?>
<svg width="100px" height="60px" viewBox="0 0 100 60" version="1.1" xmlns="http://www.w3.org/2000/svg" xmlns:xlink="http://www.w3.org/1999/xlink" xmlns:sketch="http://www.bohemiancoding.com/sketch/ns">
    <!-- Generator: Sketch 3.3.3 (12081) - http://www.bohemiancoding.com/sketch -->
    <title>Credit Card/MasterCard/MasterCard-card-flat</title>
    <desc>Created with Sketch.</desc>
    <defs></defs>
    <g id="Icons:-Credit-card" stroke="none" stroke-width="1" fill="none" fill-rule="evenodd" sketch:type="MSPage">
        <g id="MasterCard-card-flat" sketch:type="MSArtboardGroup" fill="#9B9B9B">
            <g id="Credit-Card/MasterCard/MasterCard-card-flat" sketch:type="MSLayerGroup">
                <path d="M49.10267,16.5923843 C48.6224914,17.066705 48.1664285,17.5658242 47.7358012,18.0874321 L51.6786894,18.0874321 C52.217155,18.7430896 52.7133698,19.4323625 53.1664087,20.1543259 L46.2477734,20.1543259 C45.8339012,20.8176933 45.4576538,21.5069663 45.1233487,22.2212196 L54.2902167,22.2212196 C54.6035506,22.8901382 54.8792598,23.5791028 55.1167275,24.2871881 L44.2968379,24.2871881 C44.0720102,24.9592074 43.8822451,25.6478353 43.7306143,26.3500004 L43.7306143,26.3500004 L41.6360012,26.3500004 C41.6360012,26.3500004 40.8394052,31.0907181 40.7175874,31.8435214 C40.5828168,32.6980966 40.411655,33.6325472 40.4264582,33.9896738 C40.4264582,35.1347613 41.0179685,35.75742 42.1010677,35.75742 C42.5908062,35.75742 43.0432283,35.6781613 43.6227111,35.4955888 L43.9039714,33.7136563 C43.7605656,33.7660842 43.5739839,33.7898309 43.3325071,33.7898309 C42.8288906,33.7898309 42.6065346,33.6097256 42.6065346,33.1933862 C42.6108522,32.9404986 42.959652,31.0345894 43.2042129,29.5024605 L44.2888541,29.5024605 L44.5768992,27.5681786 L43.4956504,27.5681786 L43.7414856,26.3528483 L55.682949,26.3528483 C55.7658339,26.7386915 55.8374926,27.1287251 55.8974757,27.5226046 C55.0139353,27.3401823 54.5179927,27.8415546 53.8708279,28.7929055 C53.9220222,28.3805753 54.016084,27.9805811 53.9975801,27.5719517 L52.0518873,27.5719517 C51.7857385,30.0635116 51.3138872,32.5868366 50.9459666,35.0802469 L50.8497459,35.6214881 L52.969376,35.6214881 C53.7277305,30.6988146 53.9093778,29.7381501 55.096716,29.8581175 C55.2861666,28.8549811 55.6370315,27.9759625 55.8985079,27.5293908 L55.8985079,27.5293908 C55.9526081,27.885476 55.9971658,28.2447021 56.0318491,28.6068145 L56.0318491,28.6068145 C56.7893406,26.6787702 58.3371199,25.4760684 60.2950987,25.4760684 C61.2202973,25.4760684 62.3129569,25.8680442 62.6235153,25.9901704 L62.2765658,28.1381732 C61.5200617,27.7579166 60.9720357,27.6040252 60.3842262,27.6040252 C58.8024449,27.6040252 57.6928234,29.1327618 57.6928234,31.3131465 C57.6928234,32.8153607 58.4385335,33.7229805 59.6702812,33.7229805 C60.1920933,33.7229805 60.768492,33.5616876 61.4694842,33.2153549 L61.0972459,35.4709892 C60.3173035,35.6834764 59.8124534,35.7611931 59.2252607,35.7611931 C57.6195765,35.7611931 56.4401767,34.9486551 55.8824689,33.5490989 C55.7127196,34.6261925 55.4549288,35.674087 55.1167275,36.6848498 L44.2968379,36.6848498 C44.5343055,37.3923183 44.8100147,38.0822081 45.1227319,38.7520519 L54.2902167,38.7520519 C53.9552948,39.4644548 53.5808977,40.1543446 53.1645583,40.8186372 L46.2477734,40.8186372 C46.6989619,41.5384418 47.196102,42.2286399 47.7358012,42.8833722 L51.6774558,42.8833722 C51.0714507,43.6195219 50.4130176,44.3103368 49.7061659,44.9499575 C49.7074873,44.9511548 49.7088088,44.9523518 49.7101305,44.9535487 L49.7101305,44.9535487 C49.5289826,45.1176168 49.3447394,45.2783298 49.1574989,45.43559 C52.7506735,48.8820387 57.6279986,51 63,51 C74.045695,51 83,42.045695 83,31 C83,19.954305 74.045695,11 63,11 C57.6068307,11 52.7122438,13.1346855 49.1150829,16.6052132 L49.10267,16.5923843 Z M48.9571274,15.3689099 C45.5941681,12.6195011 41.296761,10.9701875 36.6140231,10.9701875 C25.8357674,10.9701875 17.0985,19.7074549 17.0985,30.4854021 C17.0985,41.2636578 25.8357674,50 36.6140231,50 C41.010346,50 45.0670333,48.5464275 48.3296894,46.0936153 C48.509003,46.2603106 48.6943748,46.4286798 48.8856132,46.5981803 C50.0164298,47.6275702 51.2677041,48.5376027 52.6065923,49.3012207 C55.7301995,51.0827306 59.266155,52.0331666 62.9370597,52.0331666 C74.5030147,52.0331666 83.8768482,42.6232099 83.8768482,31.016267 C83.8768482,19.4096445 74.5030187,10 62.9370597,10 C57.7052792,10 52.770217,11.93487 48.9571274,15.3689099 Z M0,4.0065556 C0,1.79379604 1.79952991,0 3.99732351,0 L96.0026765,0 C98.2103373,0 100,1.79568082 100,4.0065556 L100,55.9934444 C100,58.206204 98.2004701,60 96.0026765,60 L3.99732351,60 C1.78966269,60 0,58.2043192 0,55.9934444 L0,4.0065556 Z M27.4493138,35.6214881 L25.3309174,35.6214881 L26.5450864,28.0126546 L23.8351796,35.6214881 L22.3909445,35.6214881 L22.2126896,28.0567558 L20.9368407,35.6214881 L18.9538316,35.6214881 L20.6102456,25.7237132 L23.6569247,25.7237132 L23.7420429,31.8509953 L25.7978343,25.7237132 L29.088149,25.7237132 L27.4493138,35.6214881 Z M34.207273,35.6214881 L32.4521712,35.6214881 L32.4922632,34.7878842 C31.9568816,35.4463172 31.2423198,35.7611931 30.2717865,35.7611931 C29.123615,35.7611931 28.3365793,34.8637505 28.3365793,33.5616876 C28.3365793,31.6008833 29.7058733,30.4591882 32.0561862,30.4591882 C32.2964295,30.4591882 32.6042122,30.4810846 32.9197049,30.5217933 C32.9850856,30.2553361 33.002356,30.1421535 33.002356,29.9981309 C33.002356,29.4655249 32.6335102,29.267224 31.643856,29.267224 C30.6070168,29.254888 29.7524416,29.5130184 29.4008662,29.6280514 C29.4233793,29.4948228 29.6947709,27.8180545 29.6947709,27.8180545 C30.7504225,27.5084214 31.4467887,27.3915379 32.230432,27.3915379 C34.0496809,27.3915379 35.013121,28.2091051 35.011579,29.7523364 C35.0149714,30.1659002 34.9468151,30.6775351 34.8401089,31.3473789 C34.6559944,32.5122039 34.2612429,35.013941 34.207273,35.6214881 Z M43.7306143,26.3500004 C43.7304093,26.3509497 43.7302044,26.351899 43.7299995,26.3528483 L43.7414856,26.3528483 L43.7420617,26.3500004 L43.7306143,26.3500004 L43.7306143,26.3500004 Z M50.0805975,35.4355232 C49.3567837,35.6572625 48.6579504,35.7618099 47.9190251,35.7611931 C45.5610022,35.7596511 44.3329552,34.527595 44.3329552,32.1701888 C44.3329552,29.4177229 45.8959241,27.3915379 48.0170961,27.3915379 C49.7549276,27.3915379 50.8636239,28.5258315 50.8636239,30.306222 C50.8636239,30.8961903 50.786524,31.4719723 50.6045683,32.2852219 L46.4103345,32.2852219 C46.2681623,33.4531309 47.0160312,33.9404022 48.2406858,33.9404022 C48.9941059,33.9404022 49.6741269,33.7843521 50.4309394,33.4327766 L50.0805975,35.4355232 Z M35.4778791,30.1165563 C35.4778791,31.1358168 35.9719352,31.8365005 37.0917339,32.364789 C37.9493931,32.7681756 38.0823133,32.8875262 38.0823133,33.253288 C38.0823133,33.7550541 37.703907,33.9814194 36.8653687,33.9814194 C36.233458,33.9814194 35.6453401,33.8833483 34.9668611,33.664693 C34.9668611,33.664693 34.6893015,35.4386072 34.6763487,35.5221835 C35.157452,35.6276561 35.5870526,35.7238768 36.8804803,35.7611931 C39.1163769,35.7611931 40.1488986,34.9103188 40.1488986,33.0707155 C40.1488986,31.964178 39.7165224,31.3153053 38.6553196,30.828034 C37.7671289,30.4194046 37.6650487,30.3290436 37.6650487,29.9527961 C37.6650487,29.5176444 38.017241,29.2937463 38.7021964,29.2937463 C39.1173021,29.2937463 39.6856825,29.3400062 40.2241481,29.4158725 L40.5257628,27.5491301 C39.9771201,27.4624698 39.1456749,27.3915379 38.6611792,27.3915379 C36.2908203,27.3915379 35.4707859,28.6294537 35.4778791,30.1165563 Z M55.8985079,27.5293908 C55.8981642,27.5271286 55.8978201,27.5248665 55.8974757,27.5226046 C55.8989651,27.5229121 55.9004556,27.5232215 55.9019472,27.5235329 C55.9008025,27.5254772 55.8996561,27.5274298 55.8985079,27.5293908 L55.8985079,27.5293908 Z M32.6665089,32.0357266 C32.4444612,32.0098211 32.3463902,32.0027279 32.1937324,32.0027279 C30.9928246,32.0027279 30.3852775,32.4141329 30.3852775,33.2273825 C30.3852775,33.7279149 30.6819579,34.0483421 31.1448656,34.0483421 C32.0077675,34.0483421 32.6298094,33.2267657 32.6665089,32.0357266 Z M48.8966516,30.6618067 C48.9080624,30.4934205 49.1199329,29.2249732 47.9165579,29.2249732 C47.2460973,29.2249732 46.7659192,29.7372249 46.5707023,30.6618067 L48.8966516,30.6618067 Z M66.041199,32.0357266 C65.8203849,32.0098211 65.7220055,32.0027279 65.5696561,32.0027279 C64.3693651,32.0027279 63.7615096,32.4141329 63.7615096,33.2273825 C63.7615096,33.7279149 64.0578815,34.0483421 64.5204809,34.0483421 C65.3830744,34.0483421 66.005733,33.2267657 66.041199,32.0357266 Z M67.5831967,35.6214881 L65.8280949,35.6214881 L65.8678785,34.7878842 C65.3324968,35.4463172 64.6179351,35.7611931 63.6483269,35.7611931 C62.4989219,35.7611931 61.7128114,34.8637505 61.7128114,33.5616876 C61.7128114,31.6008833 63.0808718,30.4591882 65.4318015,30.4591882 C65.6720447,30.4591882 65.9792107,30.4810846 66.294395,30.5217933 C66.3600841,30.2553361 66.3773545,30.1421535 66.3773545,29.9981309 C66.3773545,29.4655249 66.0094338,29.267224 65.0191629,29.267224 C63.9832489,29.254888 63.1289821,29.5130184 62.7767898,29.6280514 C62.7989946,29.4948228 63.0706946,27.8180545 63.0706946,27.8180545 C64.1263462,27.5084214 64.8220956,27.3915379 65.6057388,27.3915379 C67.4249877,27.3915379 68.3893531,28.2091051 68.3868859,29.7523364 C68.3912035,30.1659002 68.3224304,30.6775351 68.2157242,31.3473789 C68.0322264,32.5122039 67.637475,35.013941 67.5831967,35.6214881 Z M78.7966041,35.6214881 L76.7926238,35.6214881 L76.8919285,34.8723856 C76.3105954,35.4931939 75.7150758,35.7611931 74.9385258,35.7611931 C73.3989953,35.7611931 72.3803516,34.4344583 72.3803516,32.4206093 C72.3803516,29.7430844 73.9596657,27.4862166 75.8276417,27.4862166 C76.6492181,27.4862166 77.2712599,27.8217553 77.8507427,28.584119 L78.3207436,25.7237132 L80.4101505,25.7237132 L78.7966041,35.6214881 Z M75.6709747,33.7615305 C76.6581616,33.7615305 77.350827,32.6435821 77.350827,31.0491565 C77.350827,30.0261952 76.956384,29.4704593 76.2282527,29.4704593 C75.2672797,29.4704593 74.5850999,30.5924168 74.5850999,32.1754316 C74.5850999,33.2289245 74.9505534,33.7615305 75.6709747,33.7615305 Z M69.4915731,27.5719517 C69.2266579,30.0635116 68.7554234,32.5868366 68.3868859,35.0802469 L68.2903569,35.6214881 L70.4093701,35.6214881 C71.1674162,30.6988146 71.3496803,29.7381501 72.538869,29.8581175 C72.7279179,28.8505762 73.0804186,27.9682451 73.3428666,27.5235329 C72.4556011,27.3384932 71.960003,27.8399509 71.3105136,28.7929055 C71.3623247,28.3805753 71.4557698,27.9805811 71.438191,27.5719517 L69.4915731,27.5719517 Z" id="Rectangle" sketch:type="MSShapeGroup"></path>
            </g>
        </g>
    </g>
</svg>