<?xml version="1.0" encoding="UTF-8" standalone="no"?>
<svg width="67px" height="43px" viewBox="0 0 67 43" version="1.1" xmlns="http://www.w3.org/2000/svg" xmlns:xlink="http://www.w3.org/1999/xlink" xmlns:sketch="http://www.bohemiancoding.com/sketch/ns">
    <!-- Generator: Sketch 3.3.3 (12081) - http://www.bohemiancoding.com/sketch -->
    <title>Credit card/MasterCard/MasterCard-flat</title>
    <desc>Created with Sketch.</desc>
    <defs></defs>
    <g id="Icons:-Credit-card" stroke="none" stroke-width="1" fill="none" fill-rule="evenodd" sketch:type="MSPage">
        <g id="MasterCard-flat" sketch:type="MSArtboardGroup" transform="translate(-17.000000, -10.000000)" fill="#9B9B9B">
            <g id="Credit-card/MasterCard/MasterCard-flat" sketch:type="MSLayerGroup" transform="translate(17.000000, 10.000000)">
                <path d="M39.0318491,18.6068145 C38.9971658,18.2447021 38.9526081,17.885476 38.8985079,17.5293908 L38.8985079,17.5293908 C38.6370315,17.9759625 38.2861666,18.8549811 38.096716,19.8581175 C36.9093778,19.7381501 36.7277305,20.6988146 35.969376,25.6214881 L33.8497459,25.6214881 L33.9459666,25.0802469 C34.3138872,22.5868366 34.7857385,20.0635116 35.0518873,17.5719517 L36.9975801,17.5719517 C37.016084,17.9805811 36.9220222,18.3805753 36.8708279,18.7929055 C37.5179927,17.8415546 38.0139353,17.3401823 38.8974757,17.5226046 C38.8374926,17.1287251 38.7658339,16.7386915 38.682949,16.3528483 L26.7414856,16.3528483 L26.4956504,17.5681786 L27.5768992,17.5681786 L27.2888541,19.5024605 L26.2042129,19.5024605 C25.959652,21.0345894 25.6108522,22.9404986 25.6065346,23.1933862 C25.6065346,23.6097256 25.8288906,23.7898309 26.3325071,23.7898309 C26.5739839,23.7898309 26.7605656,23.7660842 26.9039714,23.7136563 L26.6227111,25.4955888 C26.0432283,25.6781613 25.5908062,25.75742 25.1010677,25.75742 C24.0179685,25.75742 23.4264582,25.1347613 23.4264582,23.9896738 C23.411655,23.6325472 23.5828168,22.6980966 23.7175874,21.8435214 C23.8394052,21.0907181 24.6360012,16.3500004 24.6360012,16.3500004 L26.7306143,16.3500004 L26.7306143,16.3500004 C26.8822451,15.6478353 27.0720102,14.9592074 27.2968379,14.2871881 L38.1167275,14.2871881 C37.8792598,13.5791028 37.6035506,12.8901382 37.2902167,12.2212196 L28.1233487,12.2212196 C28.4576538,11.5069663 28.8339012,10.8176933 29.2477734,10.1543259 L36.1664087,10.1543259 C35.7133698,9.43236254 35.217155,8.74308957 34.6786894,8.08743214 L30.7358012,8.08743214 C31.3430399,7.35189923 32.0008561,6.66108426 32.7055491,6.0214636 C32.7071292,6.02003202 32.7087096,6.01860068 32.7102902,6.01716961 C29.247661,2.88076808 24.6540275,0.970187498 19.6140231,0.970187498 C8.83576744,0.970187498 0.0985,9.70745494 0.0985,20.4854021 C0.0985,31.2636578 8.83576744,40 19.6140231,40 C24.65395,40 29.2475198,38.0896805 32.7101305,34.9535487 L32.7101305,34.9535487 C32.7088088,34.9523518 32.7074873,34.9511548 32.7061659,34.9499575 C33.4130176,34.3103368 34.0714507,33.6195219 34.6774558,32.8833722 L30.7358012,32.8833722 C30.196102,32.2286399 29.6989619,31.5384418 29.2477734,30.8186372 L36.1645583,30.8186372 C36.5808977,30.1543446 36.9552948,29.4644548 37.2902167,28.7520519 L28.1227319,28.7520519 C27.8100147,28.0822081 27.5343055,27.3923183 27.2968379,26.6848498 L38.1167275,26.6848498 C38.4549288,25.674087 38.7127196,24.6261925 38.8824689,23.5490989 C39.4401767,24.9486551 40.6195765,25.7611931 42.2252607,25.7611931 C42.8124534,25.7611931 43.3173035,25.6834764 44.0972459,25.4709892 L44.4694842,23.2153549 C43.768492,23.5616876 43.1920933,23.7229805 42.6702812,23.7229805 C41.4385335,23.7229805 40.6928234,22.8153607 40.6928234,21.3131465 C40.6928234,19.1327618 41.8024449,17.6040252 43.3842262,17.6040252 C43.9720357,17.6040252 44.5200617,17.7579166 45.2765658,18.1381732 L45.6235153,15.9901704 C45.3129569,15.8680442 44.2202973,15.4760684 43.2950987,15.4760684 C41.3371199,15.4760684 39.7893406,16.6787702 39.0318491,18.6068145 Z M10.4493138,25.6214881 L8.33091739,25.6214881 L9.54508639,18.0126546 L6.83517961,25.6214881 L5.39094455,25.6214881 L5.21268961,18.0567558 L3.93684071,25.6214881 L1.95383165,25.6214881 L3.61024559,15.7237132 L6.65692467,15.7237132 L6.74204294,21.8509953 L8.7978343,15.7237132 L12.088149,15.7237132 L10.4493138,25.6214881 Z M17.207273,25.6214881 L15.4521712,25.6214881 L15.4922632,24.7878842 C14.9568816,25.4463172 14.2423198,25.7611931 13.2717865,25.7611931 C12.123615,25.7611931 11.3365793,24.8637505 11.3365793,23.5616876 C11.3365793,21.6008833 12.7058733,20.4591882 15.0561862,20.4591882 C15.2964295,20.4591882 15.6042122,20.4810846 15.9197049,20.5217933 C15.9850856,20.2553361 16.002356,20.1421535 16.002356,19.9981309 C16.002356,19.4655249 15.6335102,19.267224 14.643856,19.267224 C13.6070168,19.254888 12.7524416,19.5130184 12.4008662,19.6280514 C12.4233793,19.4948228 12.6947709,17.8180545 12.6947709,17.8180545 C13.7504225,17.5084214 14.4467887,17.3915379 15.230432,17.3915379 C17.0496809,17.3915379 18.013121,18.2091051 18.011579,19.7523364 C18.0149714,20.1659002 17.9468151,20.6775351 17.8401089,21.3473789 C17.6559944,22.5122039 17.2612429,25.013941 17.207273,25.6214881 Z M33.0805975,25.4355232 C32.3567837,25.6572625 31.6579504,25.7618099 30.9190251,25.7611931 C28.5610022,25.7596511 27.3329552,24.527595 27.3329552,22.1701888 C27.3329552,19.4177229 28.8959241,17.3915379 31.0170961,17.3915379 C32.7549276,17.3915379 33.8636239,18.5258315 33.8636239,20.306222 C33.8636239,20.8961903 33.786524,21.4719723 33.6045683,22.2852219 L29.4103345,22.2852219 C29.2681623,23.4531309 30.0160312,23.9404022 31.2406858,23.9404022 C31.9941059,23.9404022 32.6741269,23.7843521 33.4309394,23.4327766 L33.0805975,25.4355232 Z M18.4778791,20.1165563 C18.4778791,21.1358168 18.9719352,21.8365005 20.0917339,22.364789 C20.9493931,22.7681756 21.0823133,22.8875262 21.0823133,23.253288 C21.0823133,23.7550541 20.703907,23.9814194 19.8653687,23.9814194 C19.233458,23.9814194 18.6453401,23.8833483 17.9668611,23.664693 C17.9668611,23.664693 17.6893015,25.4386072 17.6763487,25.5221835 C18.157452,25.6276561 18.5870526,25.7238768 19.8804803,25.7611931 C22.1163769,25.7611931 23.1488986,24.9103188 23.1488986,23.0707155 C23.1488986,21.964178 22.7165224,21.3153053 21.6553196,20.828034 C20.7671289,20.4194046 20.6650487,20.3290436 20.6650487,19.9527961 C20.6650487,19.5176444 21.017241,19.2937463 21.7021964,19.2937463 C22.1173021,19.2937463 22.6856825,19.3400062 23.2241481,19.4158725 L23.5257628,17.5491301 C22.9771201,17.4624698 22.1456749,17.3915379 21.6611792,17.3915379 C19.2908203,17.3915379 18.4707859,18.6294537 18.4778791,20.1165563 Z" id="Fill-333" sketch:type="MSShapeGroup"></path>
                <path d="M15.6665089,22.0357266 C15.4444612,22.0098211 15.3463902,22.0027279 15.1937324,22.0027279 C13.9928246,22.0027279 13.3852775,22.4141329 13.3852775,23.2273825 C13.3852775,23.7279149 13.6819579,24.0483421 14.1448656,24.0483421 C15.0077675,24.0483421 15.6298094,23.2267657 15.6665089,22.0357266 L15.6665089,22.0357266 Z" id="Path" sketch:type="MSShapeGroup"></path>
                <path d="M31.8966516,20.6618067 C31.9080624,20.4934205 32.1199329,19.2249732 30.9165579,19.2249732 C30.2460973,19.2249732 29.7659192,19.7372249 29.5707023,20.6618067 L31.8966516,20.6618067 L31.8966516,20.6618067 Z" id="Path" sketch:type="MSShapeGroup"></path>
                <path d="M49.041199,22.0357266 C48.8203849,22.0098211 48.7220055,22.0027279 48.5696561,22.0027279 C47.3693651,22.0027279 46.7615096,22.4141329 46.7615096,23.2273825 C46.7615096,23.7279149 47.0578815,24.0483421 47.5204809,24.0483421 C48.3830744,24.0483421 49.005733,23.2267657 49.041199,22.0357266 L49.041199,22.0357266 Z M50.5831967,25.6214881 L48.8280949,25.6214881 L48.8678785,24.7878842 C48.3324968,25.4463172 47.6179351,25.7611931 46.6483269,25.7611931 C45.4989219,25.7611931 44.7128114,24.8637505 44.7128114,23.5616876 C44.7128114,21.6008833 46.0808718,20.4591882 48.4318015,20.4591882 C48.6720447,20.4591882 48.9792107,20.4810846 49.294395,20.5217933 C49.3600841,20.2553361 49.3773545,20.1421535 49.3773545,19.9981309 C49.3773545,19.4655249 49.0094338,19.267224 48.0191629,19.267224 C46.9832489,19.254888 46.1289821,19.5130184 45.7767898,19.6280514 C45.7989946,19.4948228 46.0706946,17.8180545 46.0706946,17.8180545 C47.1263462,17.5084214 47.8220956,17.3915379 48.6057388,17.3915379 C50.4249877,17.3915379 51.3893531,18.2091051 51.3868859,19.7523364 C51.3912035,20.1659002 51.3224304,20.6775351 51.2157242,21.3473789 C51.0322264,22.5122039 50.637475,25.013941 50.5831967,25.6214881 L50.5831967,25.6214881 Z" id="Fill-347" sketch:type="MSShapeGroup"></path>
                <path d="M61.7966041,25.6214881 L59.7926238,25.6214881 L59.8919285,24.8723856 C59.3105954,25.4931939 58.7150758,25.7611931 57.9385258,25.7611931 C56.3989953,25.7611931 55.3803516,24.4344583 55.3803516,22.4206093 C55.3803516,19.7430844 56.9596657,17.4862166 58.8276417,17.4862166 C59.6492181,17.4862166 60.2712599,17.8217553 60.8507427,18.584119 L61.3207436,15.7237132 L63.4101505,15.7237132 L61.7966041,25.6214881 L61.7966041,25.6214881 Z M58.6709747,23.7615305 C59.6581616,23.7615305 60.350827,22.6435821 60.350827,21.0491565 C60.350827,20.0261952 59.956384,19.4704593 59.2282527,19.4704593 C58.2672797,19.4704593 57.5850999,20.5924168 57.5850999,22.1754316 C57.5850999,23.2289245 57.9505534,23.7615305 58.6709747,23.7615305 L58.6709747,23.7615305 Z" id="Fill-351" sketch:type="MSShapeGroup"></path>
                <path d="M52.4915731,17.5719517 C52.2266579,20.0635116 51.7554234,22.5868366 51.3868859,25.0802469 L51.2903569,25.6214881 L53.4093701,25.6214881 C54.1674162,20.6988146 54.3496803,19.7381501 55.538869,19.8581175 C55.7279179,18.8505762 56.0804186,17.9682451 56.3428666,17.5235329 C55.4556011,17.3384932 54.960003,17.8399509 54.3105136,18.7929055 C54.3623247,18.3805753 54.4557698,17.9805811 54.438191,17.5719517 L52.4915731,17.5719517" id="Fill-352" sketch:type="MSShapeGroup"></path>
                <path d="M31.4116814,5.87824311 C31.5641186,5.7307479 31.7187578,5.58557215 31.8758634,5.44247735 C35.6999677,1.96251626 40.6680347,0 45.9370597,0 C57.5030187,0 66.8768482,9.40964454 66.8768482,21.016267 C66.8768482,32.6232099 57.5030147,42.0331666 45.9370597,42.0331666 C42.266155,42.0331666 38.7301995,41.0827306 35.6065923,39.3012207 C34.2677041,38.5376027 33.0164298,37.6275702 31.8856132,36.5981803 C31.5585673,36.3083094 31.2486788,36.0217471 30.9569064,35.7412072 L31.6931465,34.9754887 C35.3246793,38.6925834 40.3928767,41 46,41 C57.045695,41 66,32.045695 66,21 C66,9.954305 57.045695,1 46,1 C40.6068307,1 35.7122438,3.13468552 32.1150829,6.60521317 L31.4116814,5.87824311 Z" id="Path" sketch:type="MSShapeGroup"></path>
            </g>
        </g>
    </g>
</svg>