<?xml version="1.0" encoding="UTF-8" standalone="no"?>
<svg width="66px" height="40px" viewBox="0 0 66 40" version="1.1" xmlns="http://www.w3.org/2000/svg" xmlns:xlink="http://www.w3.org/1999/xlink" xmlns:sketch="http://www.bohemiancoding.com/sketch/ns">
    <!-- Generator: Sketch 3.3.3 (12081) - http://www.bohemiancoding.com/sketch -->
    <title>Credit Card/MasterCard/MasterCard</title>
    <desc>Created with Sketch.</desc>
    <defs></defs>
    <g id="Icons:-Credit-card" stroke="none" stroke-width="1" fill="none" fill-rule="evenodd" sketch:type="MSPage">
        <g id="MasterCard" sketch:type="MSArtboardGroup" transform="translate(-17.000000, -10.000000)">
            <g id="Credit-Card/MasterCard/MasterCard" sketch:type="MSLayerGroup" transform="translate(17.000000, 10.000000)">
                <path d="M39.1286209,20.4854021 C39.1286209,31.2636578 30.3919703,40 19.6140231,40 C8.83576744,40 0.0985,31.2636578 0.0985,20.4854021 C0.0985,9.70745494 8.83576744,0.970187498 19.6140231,0.970187498 C30.3919703,0.970187498 39.1286209,9.70745494 39.1286209,20.4854021" id="Fill-333" fill="#CC0000" sketch:type="MSShapeGroup"></path>
                <path d="M45.8141062,0.970187498 C40.7705401,0.970187498 36.1766205,2.88318986 32.7126768,6.0214636 C32.0079839,6.66108426 31.3501676,7.35189923 30.7429289,8.08743214 L34.6858171,8.08743214 C35.2242827,8.74308957 35.7204976,9.43236254 36.1735365,10.1543259 L29.2549011,10.1543259 C28.841029,10.8176933 28.4647815,11.5069663 28.1304764,12.2212196 L37.2973444,12.2212196 C37.6106784,12.8901382 37.8863875,13.5791028 38.1238552,14.2871881 L27.3039656,14.2871881 C27.078834,14.9601159 26.8888599,15.6496973 26.7371273,16.3528483 L38.6900768,16.3528483 C38.9762715,17.6851343 39.1286209,19.0673811 39.1286209,20.4854021 C39.1286209,22.6519089 38.7755034,24.7373066 38.1238552,26.6848498 L27.3039656,26.6848498 C27.5414333,27.3923183 27.8171425,28.0822081 28.1298596,28.7520519 L37.2973444,28.7520519 C36.9624225,29.4644548 36.5880255,30.1543446 36.1716861,30.8186372 L29.2549011,30.8186372 C29.7060897,31.5384418 30.2032297,32.2286399 30.7429289,32.8833722 L34.6845835,32.8833722 C34.0785784,33.6195219 33.4201454,34.3103368 32.7132936,34.9499575 C36.1769289,38.0882312 40.7705401,40 45.8141062,40 C56.591745,40 65.328704,31.2636578 65.328704,20.4854021 C65.328704,9.70838014 56.591745,0.970187498 45.8141062,0.970187498" id="Fill-334" fill="#FF9900" sketch:type="MSShapeGroup"></path>
                <path d="M15.056803,22.6219942 C14.8344469,22.5967054 14.7363759,22.588687 14.5837181,22.588687 C13.3828103,22.588687 12.7755716,23.0007088 12.7755716,23.8145752 C12.7755716,24.3157245 13.0719436,24.6343012 13.5345429,24.6343012 C14.3977532,24.6343012 15.0197951,23.8127248 15.056803,22.6219942 L15.056803,22.6219942 Z M16.5978755,26.2089893 L14.8418485,26.2089893 L14.8822489,25.3747685 C14.3468673,26.0335099 13.6323055,26.3480775 12.6617722,26.3480775 C11.5139091,26.3480775 10.726565,25.4518684 10.726565,24.1494971 C10.726565,22.1890012 12.0955506,21.0457641 14.4458635,21.0457641 C14.6867236,21.0457641 14.9945063,21.0679689 15.3096906,21.1077524 C15.3750713,20.841912 15.3923417,20.7290378 15.3923417,20.585632 C15.3923417,20.0527176 15.0234959,19.8528747 14.0338417,19.8528747 C12.9973109,19.8423891 12.1424273,20.1005195 11.7911603,20.2158609 C11.813365,20.0820155 12.085065,18.4052472 12.085065,18.4052472 C13.1404083,18.0949973 13.8367744,17.9790391 14.6204177,17.9790391 C16.439975,17.9790391 17.4037235,18.7956811 17.4015647,20.3395292 C17.4052655,20.7537098 17.3364924,21.2628774 17.2300946,21.9345716 C17.0462885,23.1003219 16.651537,25.600517 16.5978755,26.2089893 L16.5978755,26.2089893 Z" id="Fill-336" fill="#000066" sketch:type="MSShapeGroup"></path>
                <path d="M9.83991635,26.2089893 L7.72090309,26.2089893 L8.93538049,18.6001557 L6.22485691,26.2089893 L4.78123865,26.2089893 L4.60267532,18.6427149 L3.32713481,26.2089893 L1.34412575,26.2089893 L3.0005397,16.3102891 L6.04721878,16.3102891 L6.2313333,21.8509953 L8.09005735,16.3102891 L11.4784431,16.3102891 L9.83991635,26.2089893" id="Fill-337" fill="#000066" sketch:type="MSShapeGroup"></path>
                <path d="M48.4318015,22.6219942 C48.2094454,22.5967054 48.112608,22.588687 47.9602586,22.588687 C46.7584256,22.588687 46.1518037,23.0007088 46.1518037,23.8145752 C46.1518037,24.3157245 46.446942,24.6343012 46.910775,24.6343012 C47.7733685,24.6343012 48.3957188,23.8127248 48.4318015,22.6219942 L48.4318015,22.6219942 Z M49.9737992,26.2089893 L48.218389,26.2089893 L48.2581726,25.3747685 C47.722791,26.0335099 47.0085376,26.3480775 46.0386211,26.3480775 C44.889216,26.3480775 44.1027971,25.4518684 44.1027971,24.1494971 C44.1027971,22.1890012 45.4723995,21.0457641 47.8220956,21.0457641 C48.0626472,21.0457641 48.3698132,21.0679689 48.6853059,21.1077524 C48.750995,20.841912 48.767957,20.7290378 48.767957,20.585632 C48.767957,20.0527176 48.3991111,19.8528747 47.409457,19.8528747 C46.3729262,19.8423891 45.518351,20.1005195 45.1658503,20.2158609 C45.1892887,20.0820155 45.4616055,18.4052472 45.4616055,18.4052472 C46.5163319,18.0949973 47.2133149,17.9790391 47.9957245,17.9790391 C49.8165154,17.9790391 50.7790304,18.7956811 50.77718,20.3395292 C50.7808808,20.7537098 50.7127245,21.2628774 50.6057099,21.9345716 C50.4225205,23.1003219 50.0268439,25.600517 49.9737992,26.2089893 L49.9737992,26.2089893 Z" id="Fill-338" fill="#000066" sketch:type="MSShapeGroup"></path>
                <path d="M26.0133136,26.0865546 C25.433214,26.2691272 24.9814087,26.3480775 24.4910534,26.3480775 C23.4082626,26.3480775 22.8170607,25.7257272 22.8170607,24.5794061 C22.8019491,24.223513 22.9728025,23.2875204 23.1072647,22.4338705 C23.2300077,21.681684 24.0262953,16.9403494 24.0262953,16.9403494 L26.131739,16.9403494 L25.8859445,18.158836 L27.1580927,18.158836 L26.8709727,20.0937347 L25.594507,20.0937347 C25.3499461,21.6243217 25.0011463,23.5314644 24.9971371,23.7843521 C24.9971371,24.1994578 25.2185679,24.3807968 25.7228012,24.3807968 C25.964278,24.3807968 26.1511682,24.3561248 26.2939571,24.3049305 L26.0133136,26.0865546" id="Fill-339" fill="#000066" sketch:type="MSShapeGroup"></path>
                <path d="M32.4699664,26.0214823 C31.7464611,26.2426048 31.0491697,26.3505446 30.3093192,26.3480775 C27.9516047,26.3449935 26.7226325,25.1144793 26.7226325,22.7567648 C26.7226325,20.0052241 28.2859098,17.9790391 30.4086238,17.9790391 C32.1446049,17.9790391 33.253918,19.1133326 33.253918,20.8915643 C33.253918,21.4827663 33.1780517,22.0588566 32.9939372,22.8717978 L28.8003202,22.8717978 C28.6587648,24.0397069 29.4057085,24.526053 30.6315967,24.526053 C31.3844,24.526053 32.0647294,24.3706196 32.8206167,24.0199693 L32.4699664,26.0214823 L32.4699664,26.0214823 Z M31.2863289,21.2493078 C31.2983565,21.0812301 31.5093018,19.8121659 30.3056184,19.8121659 C29.6357746,19.8121659 29.1555965,20.3234924 28.9609964,21.2493078 L31.2863289,21.2493078 L31.2863289,21.2493078 Z" id="Fill-340" fill="#000066" sketch:type="MSShapeGroup"></path>
                <path d="M17.8684816,20.7040574 C17.8684816,21.7214675 18.3619209,22.4236933 19.4814112,22.9513649 C20.3390704,23.3550599 20.4726074,23.4744105 20.4726074,23.839864 C20.4726074,24.3410132 20.0938927,24.5686121 19.2559712,24.5686121 C18.6234437,24.5686121 18.0356342,24.4693074 17.3574636,24.2500354 C17.3574636,24.2500354 17.0795956,26.0251831 17.0663344,26.109993 C17.5477461,26.2142321 17.9770383,26.3113779 19.2710828,26.3480775 C21.5063626,26.3480775 22.5388843,25.4968947 22.5388843,23.6572914 C22.5388843,22.5513707 22.107125,21.9021896 21.0456137,21.4136848 C20.1577314,21.006289 20.0550344,20.9150027 20.0550344,20.5393721 C20.0550344,20.1042203 20.4075351,19.8818642 21.0918737,19.8818642 C21.5079046,19.8818642 22.0756682,19.9262738 22.6144422,20.0024485 L22.9157486,18.1353976 C22.3674142,18.0481206 21.5353522,17.9790391 21.0511649,17.9790391 C18.6814228,17.9790391 17.8607717,19.2166464 17.8684816,20.7040574" id="Fill-341" fill="#000066" sketch:type="MSShapeGroup"></path>
                <path d="M42.7739035,18.1915264 C43.3623298,18.1915264 43.9118978,18.3444925 44.6671683,18.7259828 L45.0141178,16.5776715 C44.7026342,16.4555453 43.6105915,15.73975 42.6853928,15.73975 C41.2679885,15.73975 40.0683143,16.4441345 39.2260752,17.6040252 C37.9961778,17.1969378 37.4900941,18.0197478 36.8708279,18.8400906 L36.3203347,18.9683848 C36.3619686,18.6985352 36.3999017,18.430536 36.3878742,18.158836 L34.4412563,18.158836 C34.1760326,20.6510127 33.7051065,23.1743378 33.3365691,25.6674397 L33.24004,26.2089893 L35.3596701,26.2089893 C35.7134044,23.9101791 35.9067709,22.4388049 36.0245795,21.4420575 L36.8227175,20.9998126 C36.9426849,20.5554088 37.3149232,20.4061435 38.0637173,20.424339 C37.9659546,20.9492351 37.9129099,21.5021954 37.9129099,22.0742766 C37.9129099,24.7083171 39.3358654,26.3480775 41.6155548,26.3480775 C42.2030559,26.3480775 42.7075976,26.2709776 43.4887736,26.0581819 L43.8600867,23.8025476 C43.1575525,24.1476467 42.5823874,24.3101733 42.0608838,24.3101733 C40.829136,24.3101733 40.0837343,23.400703 40.0837343,21.8984889 C40.0837343,19.7184125 41.1915054,18.1915264 42.7739035,18.1915264" id="Fill-342" fill="#000066" sketch:type="MSShapeGroup"></path>
                <path d="M60.7110377,16.3102891 L60.2401116,19.1700781 C59.6618624,18.4080228 59.0395122,17.8559876 58.2179358,17.8559876 C57.149023,17.8559876 56.1760224,18.6664616 55.538869,19.8599679 C54.6516035,19.6758533 53.7347316,19.3628278 53.7347316,19.3628278 L53.7341148,19.3705378 C53.8047383,18.7034696 53.8346531,18.2976158 53.8275599,18.158836 L51.8812504,18.158836 C51.616952,20.6510127 51.1454091,23.1743378 50.77718,25.6674397 L50.6797258,26.2089893 L52.7999726,26.2089893 C53.0861674,24.3511904 53.3048227,22.8067255 53.4661156,21.5836129 C54.1908546,20.9285723 54.5535324,20.3589583 55.2841309,20.3959663 C54.960003,21.1799179 54.7709541,22.082295 54.7709541,23.0081104 C54.7709541,25.0198006 55.7880558,26.3480775 57.3288199,26.3480775 C58.10537,26.3480775 58.7011979,26.0800782 59.2822226,25.4595784 L59.1823012,26.2083725 L61.1868982,26.2083725 L62.800753,16.3102891 L60.7110377,16.3102891 L60.7110377,16.3102891 Z M58.0615772,24.34934 C57.3405391,24.34934 56.975394,23.8145752 56.975394,22.762316 C56.975394,21.1799179 57.6578822,20.0582688 58.6185468,20.0582688 C59.3466781,20.0582688 59.7414295,20.6121544 59.7414295,21.6348072 C59.7414295,23.2307749 59.0475306,24.34934 58.0615772,24.34934 L58.0615772,24.34934 Z" id="Fill-343" fill="#000066" sketch:type="MSShapeGroup"></path>
                <path d="M10.4493138,25.6214881 L8.33091739,25.6214881 L9.54508639,18.0126546 L6.83517961,25.6214881 L5.39094455,25.6214881 L5.21268961,18.0567558 L3.93684071,25.6214881 L1.95383165,25.6214881 L3.61024559,15.7237132 L6.65692467,15.7237132 L6.74204294,21.8509953 L8.7978343,15.7237132 L12.088149,15.7237132 L10.4493138,25.6214881" id="Fill-344" fill="#FFFFFF" sketch:type="MSShapeGroup"></path>
                <path d="M15.6665089,22.0357266 C15.4444612,22.0098211 15.3463902,22.0027279 15.1937324,22.0027279 C13.9928246,22.0027279 13.3852775,22.4141329 13.3852775,23.2273825 C13.3852775,23.7279149 13.6819579,24.0483421 14.1448656,24.0483421 C15.0077675,24.0483421 15.6298094,23.2267657 15.6665089,22.0357266 L15.6665089,22.0357266 Z M17.207273,25.6214881 L15.4521712,25.6214881 L15.4922632,24.7878842 C14.9568816,25.4463172 14.2423198,25.7611931 13.2717865,25.7611931 C12.123615,25.7611931 11.3365793,24.8637505 11.3365793,23.5616876 C11.3365793,21.6008833 12.7058733,20.4591882 15.0561862,20.4591882 C15.2964295,20.4591882 15.6042122,20.4810846 15.9197049,20.5217933 C15.9850856,20.2553361 16.002356,20.1421535 16.002356,19.9981309 C16.002356,19.4655249 15.6335102,19.267224 14.643856,19.267224 C13.6070168,19.254888 12.7524416,19.5130184 12.4008662,19.6280514 C12.4233793,19.4948228 12.6947709,17.8180545 12.6947709,17.8180545 C13.7504225,17.5084214 14.4467887,17.3915379 15.230432,17.3915379 C17.0496809,17.3915379 18.013121,18.2091051 18.011579,19.7523364 C18.0149714,20.1659002 17.9468151,20.6775351 17.8401089,21.3473789 C17.6559944,22.5122039 17.2612429,25.013941 17.207273,25.6214881 L17.207273,25.6214881 Z" id="Fill-345" fill="#FFFFFF" sketch:type="MSShapeGroup"></path>
                <path d="M45.6235153,15.9901704 L45.2765658,18.1381732 C44.5200617,17.7579166 43.9720357,17.6040252 43.3842262,17.6040252 C41.8024449,17.6040252 40.6928234,19.1327618 40.6928234,21.3131465 C40.6928234,22.8153607 41.4385335,23.7229805 42.6702812,23.7229805 C43.1920933,23.7229805 43.768492,23.5616876 44.4694842,23.2153549 L44.0972459,25.4709892 C43.3173035,25.6834764 42.8124534,25.7611931 42.2252607,25.7611931 C39.9440293,25.7611931 38.5232326,24.1211244 38.5232326,21.4877007 C38.5232326,17.9491243 40.4874293,15.4760684 43.2950987,15.4760684 C44.2202973,15.4760684 45.3129569,15.8680442 45.6235153,15.9901704" id="Fill-346" fill="#FFFFFF" sketch:type="MSShapeGroup"></path>
                <path d="M49.041199,22.0357266 C48.8203849,22.0098211 48.7220055,22.0027279 48.5696561,22.0027279 C47.3693651,22.0027279 46.7615096,22.4141329 46.7615096,23.2273825 C46.7615096,23.7279149 47.0578815,24.0483421 47.5204809,24.0483421 C48.3830744,24.0483421 49.005733,23.2267657 49.041199,22.0357266 L49.041199,22.0357266 Z M50.5831967,25.6214881 L48.8280949,25.6214881 L48.8678785,24.7878842 C48.3324968,25.4463172 47.6179351,25.7611931 46.6483269,25.7611931 C45.4989219,25.7611931 44.7128114,24.8637505 44.7128114,23.5616876 C44.7128114,21.6008833 46.0808718,20.4591882 48.4318015,20.4591882 C48.6720447,20.4591882 48.9792107,20.4810846 49.294395,20.5217933 C49.3600841,20.2553361 49.3773545,20.1421535 49.3773545,19.9981309 C49.3773545,19.4655249 49.0094338,19.267224 48.0191629,19.267224 C46.9832489,19.254888 46.1289821,19.5130184 45.7767898,19.6280514 C45.7989946,19.4948228 46.0706946,17.8180545 46.0706946,17.8180545 C47.1263462,17.5084214 47.8220956,17.3915379 48.6057388,17.3915379 C50.4249877,17.3915379 51.3893531,18.2091051 51.3868859,19.7523364 C51.3912035,20.1659002 51.3224304,20.6775351 51.2157242,21.3473789 C51.0322264,22.5122039 50.637475,25.013941 50.5831967,25.6214881 L50.5831967,25.6214881 Z" id="Fill-347" fill="#FFFFFF" sketch:type="MSShapeGroup"></path>
                <path d="M26.6227111,25.4993619 C26.0432283,25.6819344 25.5908062,25.7611931 25.1010677,25.7611931 C24.0179685,25.7611931 23.4264582,25.1385344 23.4264582,23.9934469 C23.411655,23.6363203 23.5828168,22.7018697 23.7175874,21.8472945 C23.8394052,21.0944912 24.6360012,16.3537735 24.6360012,16.3537735 L26.7420617,16.3537735 L26.4956504,17.5719517 L27.5768992,17.5719517 L27.2888541,19.5062336 L26.2042129,19.5062336 C25.959652,21.0383625 25.6108522,22.9442717 25.6065346,23.1971593 C25.6065346,23.6134987 25.8288906,23.793604 26.3325071,23.793604 C26.5739839,23.793604 26.7605656,23.7698573 26.9039714,23.7174294 L26.6227111,25.4993619" id="Fill-348" fill="#FFFFFF" sketch:type="MSShapeGroup"></path>
                <path d="M33.0805975,25.4355232 C32.3567837,25.6572625 31.6579504,25.7618099 30.9190251,25.7611931 C28.5610022,25.7596511 27.3329552,24.527595 27.3329552,22.1701888 C27.3329552,19.4177229 28.8959241,17.3915379 31.0170961,17.3915379 C32.7549276,17.3915379 33.8636239,18.5258315 33.8636239,20.306222 C33.8636239,20.8961903 33.786524,21.4719723 33.6045683,22.2852219 L29.4103345,22.2852219 C29.2681623,23.4531309 30.0160312,23.9404022 31.2406858,23.9404022 C31.9941059,23.9404022 32.6741269,23.7843521 33.4309394,23.4327766 L33.0805975,25.4355232 L33.0805975,25.4355232 Z M31.8966516,20.6618067 C31.9080624,20.4934205 32.1199329,19.2249732 30.9165579,19.2249732 C30.2460973,19.2249732 29.7659192,19.7372249 29.5707023,20.6618067 L31.8966516,20.6618067 L31.8966516,20.6618067 Z" id="Fill-349" fill="#FFFFFF" sketch:type="MSShapeGroup"></path>
                <path d="M18.4778791,20.1165563 C18.4778791,21.1358168 18.9719352,21.8365005 20.0917339,22.364789 C20.9493931,22.7681756 21.0823133,22.8875262 21.0823133,23.253288 C21.0823133,23.7550541 20.703907,23.9814194 19.8653687,23.9814194 C19.233458,23.9814194 18.6453401,23.8833483 17.9668611,23.664693 C17.9668611,23.664693 17.6893015,25.4386072 17.6763487,25.5221835 C18.157452,25.6276561 18.5870526,25.7238768 19.8804803,25.7611931 C22.1163769,25.7611931 23.1488986,24.9103188 23.1488986,23.0707155 C23.1488986,21.964178 22.7165224,21.3153053 21.6553196,20.828034 C20.7671289,20.4194046 20.6650487,20.3290436 20.6650487,19.9527961 C20.6650487,19.5176444 21.017241,19.2937463 21.7021964,19.2937463 C22.1173021,19.2937463 22.6856825,19.3400062 23.2241481,19.4158725 L23.5257628,17.5491301 C22.9771201,17.4624698 22.1456749,17.3915379 21.6611792,17.3915379 C19.2908203,17.3915379 18.4707859,18.6294537 18.4778791,20.1165563" id="Fill-350" fill="#FFFFFF" sketch:type="MSShapeGroup"></path>
                <path d="M61.7966041,25.6214881 L59.7926238,25.6214881 L59.8919285,24.8723856 C59.3105954,25.4931939 58.7150758,25.7611931 57.9385258,25.7611931 C56.3989953,25.7611931 55.3803516,24.4344583 55.3803516,22.4206093 C55.3803516,19.7430844 56.9596657,17.4862166 58.8276417,17.4862166 C59.6492181,17.4862166 60.2712599,17.8217553 60.8507427,18.584119 L61.3207436,15.7237132 L63.4101505,15.7237132 L61.7966041,25.6214881 L61.7966041,25.6214881 Z M58.6709747,23.7615305 C59.6581616,23.7615305 60.350827,22.6435821 60.350827,21.0491565 C60.350827,20.0261952 59.956384,19.4704593 59.2282527,19.4704593 C58.2672797,19.4704593 57.5850999,20.5924168 57.5850999,22.1754316 C57.5850999,23.2289245 57.9505534,23.7615305 58.6709747,23.7615305 L58.6709747,23.7615305 Z" id="Fill-351" fill="#FFFFFF" sketch:type="MSShapeGroup"></path>
                <path d="M52.4915731,17.5719517 C52.2266579,20.0635116 51.7554234,22.5868366 51.3868859,25.0802469 L51.2903569,25.6214881 L53.4093701,25.6214881 C54.1674162,20.6988146 54.3496803,19.7381501 55.538869,19.8581175 C55.7279179,18.8505762 56.0804186,17.9682451 56.3428666,17.5235329 C55.4556011,17.3384932 54.960003,17.8399509 54.3105136,18.7929055 C54.3623247,18.3805753 54.4557698,17.9805811 54.438191,17.5719517 L52.4915731,17.5719517" id="Fill-352" fill="#FFFFFF" sketch:type="MSShapeGroup"></path>
                <path d="M35.0518873,17.5719517 C34.7857385,20.0635116 34.3138872,22.5868366 33.9459666,25.0802469 L33.8497459,25.6214881 L35.969376,25.6214881 C36.7277305,20.6988146 36.9093778,19.7381501 38.096716,19.8581175 C38.2869986,18.8505762 38.640116,17.9682451 38.9019472,17.5235329 C38.015607,17.3384932 37.5190837,17.8399509 36.8708279,18.7929055 C36.9220222,18.3805753 37.016084,17.9805811 36.9975801,17.5719517 L35.0518873,17.5719517" id="Fill-353" fill="#FFFFFF" sketch:type="MSShapeGroup"></path>
            </g>
        </g>
    </g>
</svg>