<?xml version="1.0" encoding="UTF-8" standalone="no"?>
<svg width="67px" height="41px" viewBox="0 0 67 41" version="1.1" xmlns="http://www.w3.org/2000/svg" xmlns:xlink="http://www.w3.org/1999/xlink" xmlns:sketch="http://www.bohemiancoding.com/sketch/ns">
    <!-- Generator: Sketch 3.3.3 (12081) - http://www.bohemiancoding.com/sketch -->
    <title>Credit Card/Maestro/Maestro</title>
    <desc>Created with Sketch.</desc>
    <defs></defs>
    <g id="Icons:-Credit-card" stroke="none" stroke-width="1" fill="none" fill-rule="evenodd" sketch:type="MSPage">
        <g id="Maestro" sketch:type="MSArtboardGroup" transform="translate(-17.000000, -9.000000)">
            <g id="Credit-Card/Maestro/Maestro" sketch:type="MSLayerGroup" transform="translate(17.000000, 9.000000)">
                <path d="M66.6564898,20.983733 C66.6564898,32.0390693 57.7306345,41 46.7173316,41 C35.7062346,41 26.7791187,32.0390693 26.7791187,20.983733 C26.7791187,9.92808041 35.7062346,0.966833394 46.7173316,0.966833394 C57.7306345,0.966833394 66.6564898,9.92808041 66.6564898,20.983733" id="Fill-356" fill="#CC0000" sketch:type="MSShapeGroup"></path>
                <path d="M31.3148423,33.6950448 C30.7643033,33.0247464 30.2572527,32.3164887 29.7962116,31.5750166 L36.8627764,31.5750166 C37.2869467,30.8955447 37.6698345,30.1876034 38.0117549,29.4553048 L28.6478633,29.4553048 C28.3286326,28.7695064 28.045012,28.0621977 27.8036194,27.3362256 L38.8544232,27.3362256 C39.5199862,25.3401979 39.8795541,23.204986 39.8795541,20.983733 C39.8795541,19.5292583 39.7251384,18.110845 39.4320638,16.744942 L27.2275544,16.744942 C27.3819701,16.0227659 27.5767229,15.3160899 27.8061404,14.6252302 L38.8531627,14.6252302 C38.6108246,13.8992582 38.3287797,13.1922658 38.0098641,12.5064674 L28.6497541,12.5064674 C28.9916745,11.7741688 29.3755077,11.0674927 29.7984176,10.3864392 L36.8605704,10.3864392 C36.3998445,9.64686509 35.8915334,8.93987271 35.3419397,8.26862537 L31.3173634,8.26862537 C31.9366017,7.51418383 32.6094128,6.80592615 33.3298091,6.15017885 C29.7908543,2.92901403 25.0937821,0.966833394 19.9416564,0.966833394 C8.92898378,0.966833394 0.00186792453,9.92808041 0.00186792453,20.983733 C0.00186792453,32.0390693 8.92898378,41 19.9416564,41 C25.0940973,41 29.7914846,39.0378194 33.3298091,35.8179199 C34.0511508,35.1609072 34.7249073,34.4510679 35.3441456,33.6950448 L31.3148423,33.6950448" id="Fill-357" fill="#0066CC" sketch:type="MSShapeGroup"></path>
                <path d="M33.0455583,26.3929365 C32.1934359,26.6194271 31.3693605,26.7301418 30.4983302,26.7282438 C27.7191634,26.7257132 26.271753,25.4550249 26.271753,23.0249956 C26.271753,20.1859546 28.1143415,18.0978755 30.61556,18.0978755 C32.6614099,18.0978755 33.9673252,19.2686043 33.9673252,21.1029886 C33.9673252,21.711603 33.8790877,22.3047174 33.6625906,23.1429858 L28.7203442,23.1429858 C28.5444994,24.3298473 29.4076514,24.850839 30.8771212,24.850839 C31.7572905,24.850839 32.5530038,24.6920425 33.4347487,24.3361738 L33.0455583,26.3929365 L33.0455583,26.3929365 Z M31.7166382,21.4686634 C31.7166382,21.2896219 31.991435,20.015454 30.5610418,19.9879335 C29.771316,19.9879335 29.2050202,20.5149354 28.9759178,21.4686634 L31.7166382,21.4686634 L31.7166382,21.4686634 Z" id="Fill-359" fill="#000066" sketch:type="MSShapeGroup"></path>
                <path d="M34.7198652,20.9119266 C34.7198652,21.9605529 35.3079052,22.6852596 36.6450188,23.2245984 C37.6669983,23.6446815 37.8277167,23.7664677 37.8277167,24.1419486 C37.8277167,24.6623077 37.3764448,24.9008188 36.3736884,24.8944922 C35.6208333,24.8891146 34.933526,24.7970633 34.1226863,24.5715216 L33.7637486,26.4843552 C34.4847752,26.6523252 35.4954099,26.7073662 36.3913359,26.7282438 C39.0602057,26.7282438 40.2923796,25.8510671 40.2923796,23.954999 C40.2923796,22.814954 39.7783961,22.1446556 38.5109272,21.6448579 C37.4514467,21.2197135 37.3272839,21.1282948 37.3272839,20.743324 C37.3272839,20.291608 37.7470423,20.0632195 38.5654453,20.0632195 C39.0617814,20.0632195 39.7408951,20.1087706 40.3856593,20.1872199 L40.747118,18.2639476 C40.0903787,18.1725289 39.0942402,18.0991409 38.5172298,18.0991409 C35.6898476,18.0991409 34.7113566,19.3767884 34.7198652,20.9119266" id="Fill-360" fill="#000066" sketch:type="MSShapeGroup"></path>
                <path d="M24.916992,26.5912739 L22.8437254,26.5912739 L22.8932014,25.7194748 C22.2610426,26.4071712 21.4186895,26.7276111 20.2760136,26.7276111 C18.9234585,26.7276111 17.9969645,25.7991894 17.9969645,24.4639702 C17.9969645,22.4344118 19.6076144,21.263683 22.3770119,21.263683 C22.6615779,21.263683 23.0236669,21.2851933 23.395525,21.3272649 C23.4724177,21.0555394 23.4932166,20.9384982 23.4932166,20.7910895 C23.4932166,20.235618 23.0573862,20.030954 21.8920207,20.030954 C20.7430422,20.0353826 19.9678125,20.2065159 19.2483616,20.4004248 L19.6025722,18.53852 C20.8467213,18.220927 21.6610275,18.0978755 22.5827944,18.0978755 C24.7272813,18.0978755 25.8598729,18.9424705 25.8598729,20.5285375 C25.8778355,20.9521003 25.7312982,21.8017564 25.6572417,22.1737578 C25.5734161,22.7143618 24.9790733,25.8510671 24.916992,26.5912739 L24.916992,26.5912739 Z M23.0970931,22.888342 C22.8345865,22.8624032 22.7201929,22.854495 22.5402513,22.854495 C21.1262451,22.854495 20.4093153,23.2771087 20.4093153,24.1112649 C20.4093153,24.6351035 20.759114,24.9625027 21.3046109,24.9625027 C22.320603,24.9625027 23.0542349,24.1093669 23.0970931,22.888342 L23.0970931,22.888342 Z" id="Fill-361" fill="#000066" sketch:type="MSShapeGroup"></path>
                <path d="M44.6607671,26.4596816 C43.9807079,26.6466313 43.4503374,26.7282438 42.8771087,26.7282438 C41.6071187,26.7282438 40.9135087,26.0766088 40.9135087,24.9163188 C40.8734867,24.5974605 41.1838937,23.1246388 41.2544837,22.7143618 C41.3244435,22.3028195 42.4245763,16.3033486 42.4245763,16.3033486 L44.8920754,16.3033486 L44.5189568,18.2886211 L45.7845349,18.2886211 L45.4407237,20.3140673 L44.1694732,20.3140673 C44.1694732,20.3140673 43.4720817,23.8306822 43.4720817,24.0995607 C43.4720817,24.5256541 43.729231,24.7110221 44.3201072,24.7110221 C44.6024673,24.7110221 44.8208552,24.6844506 44.9894519,24.6338382 L44.6607671,26.4596816" id="Fill-362" fill="#000066" sketch:type="MSShapeGroup"></path>
                <path d="M55.6863602,18.0978755 C53.8778062,18.0978755 52.4647454,18.8459905 51.6438213,20.0935869 L52.3563393,18.2424373 C51.0434911,17.7587723 50.1970411,18.4493156 49.4322109,19.4305641 C49.4322109,19.4305641 49.3039514,19.5934728 49.176007,19.7424632 L49.176007,18.2876722 L46.8591419,18.2876722 C46.5452684,20.855304 45.9903174,23.4593135 45.5563779,26.0326392 L45.4514383,26.5922229 L47.9438331,26.5922229 C48.1804987,25.2864222 48.3746212,24.2267245 48.5681135,23.3814969 C49.0975386,21.0628149 49.9887376,20.3542409 51.3264814,20.668038 C51.0176501,21.3339078 50.8484231,22.1057473 50.8484231,22.9595158 C50.8484231,25.0324111 51.9690396,26.7282438 54.7532485,26.7282438 C57.5623529,26.7282438 59.5965429,25.2218914 59.5965429,21.786889 C59.5965429,19.715259 58.2408364,18.0978755 55.6863602,18.0978755 L55.6863602,18.0978755 Z M54.9609218,24.7135528 C54.0807525,24.7271549 53.5469155,23.9856828 53.5469155,22.8760052 C53.5469155,21.5613474 54.3256116,20.0755562 55.5770087,20.0755562 C56.5866981,20.0755562 56.9324001,20.8793449 56.9324001,21.7356439 C56.9324001,23.6057732 56.1688304,24.7135528 54.9609218,24.7135528 L54.9609218,24.7135528 Z" id="Fill-363" fill="#000066" sketch:type="MSShapeGroup"></path>
                <path d="M16.8356957,26.5922229 L14.3533853,26.5922229 L15.8285275,18.7903169 L12.4323284,26.5922229 L10.1696663,26.5922229 L9.75621052,18.8361844 L8.27634127,26.5922229 L6.02439373,26.5922229 L7.94229923,16.4437981 L11.8212836,16.4437981 L12.1442959,22.1013187 L14.6017108,16.4437981 L18.7920476,16.4437981 L16.8356957,26.5922229" id="Fill-364" fill="#000066" sketch:type="MSShapeGroup"></path>
                <path d="M33.668263,25.7675566 C32.816771,25.9943636 31.9923804,26.1050783 31.1216652,26.1031803 C28.3424985,26.1006497 26.895088,24.829645 26.895088,22.3999321 C26.895088,19.5608911 28.7373614,17.472812 31.2382648,17.472812 C33.2844298,17.472812 34.5906602,18.6435408 34.5906602,20.4776087 C34.5906602,21.0862232 34.5021076,21.6780723 34.2859257,22.5179223 L29.3439943,22.5179223 C29.1678344,23.7035185 30.0303562,24.2254591 31.499826,24.2254591 C32.3799953,24.2254591 33.1763389,24.0666627 34.0577687,23.7101613 L33.668263,25.7675566 L33.668263,25.7675566 Z M32.339343,20.8435999 C32.339343,20.6642421 32.6141398,19.3903905 31.1843769,19.3625536 C30.3946511,19.3625536 29.8283553,19.8895556 29.5986226,20.8435999 L32.339343,20.8435999 L32.339343,20.8435999 Z" id="Fill-366" fill="#FFFFFF" sketch:type="MSShapeGroup"></path>
                <path d="M35.3432002,20.2862305 C35.3432002,21.3351731 35.9309251,22.0592472 37.2677235,22.5992185 C38.2903334,23.019618 38.4507366,23.1410878 38.4507366,23.5156198 C38.4507366,24.0369278 37.9991495,24.2754389 36.9973386,24.2694287 C36.2435381,24.2637348 35.5562308,24.1716834 34.7460213,23.9461418 L34.3864534,25.8583427 C35.1077951,26.0269453 36.1190601,26.0819863 37.0140407,26.1031803 C39.6829105,26.1031803 40.9157147,25.2256873 40.9157147,23.3289865 C40.9157147,22.1895742 40.401416,21.5186431 39.1339471,21.0194781 C38.0744666,20.59465 37.9499886,20.501966 37.9499886,20.1182605 C37.9499886,19.6665445 38.3703774,19.437207 39.1884652,19.437207 C39.6848013,19.437207 40.3635999,19.4837071 41.0086792,19.5621564 L41.3701379,17.6388841 C40.7133987,17.5462001 39.7172601,17.473761 39.14088,17.473761 C36.3128675,17.473761 35.3343765,18.7507759 35.3432002,20.2862305" id="Fill-367" fill="#FFFFFF" sketch:type="MSShapeGroup"></path>
                <path d="M25.540327,25.9658941 L23.4664302,25.9658941 L23.5165365,25.094095 C22.8840625,25.7811587 22.0423396,26.1012823 20.8993486,26.1012823 C19.5471087,26.1012823 18.6196693,25.1731769 18.6196693,23.8379577 C18.6196693,21.809032 20.2306343,20.6383032 23.0000319,20.6383032 C23.2845978,20.6383032 23.6463717,20.6601298 24.0188601,20.7006197 C24.0957528,20.4295269 24.1162365,20.3134347 24.1162365,20.1657096 C24.1162365,19.6089729 23.6807213,19.4052579 22.5156709,19.4052579 C21.3663772,19.4100028 20.5911476,19.5811361 19.8720118,19.7753613 L20.225277,17.9131402 C21.4697412,17.5955472 22.2837323,17.472812 23.2061295,17.472812 C25.3506163,17.472812 26.4828928,18.316458 26.4828928,19.9031576 C26.5014857,20.3270367 26.354003,21.1751113 26.2808919,21.5483779 C26.1961208,22.088982 25.6020933,25.2256873 25.540327,25.9658941 L25.540327,25.9658941 Z M23.720113,22.2632785 C23.4579215,22.2360743 23.3432128,22.2291151 23.1629561,22.2291151 C21.7495802,22.2291151 21.0323352,22.6510963 21.0323352,23.4846197 C21.0323352,24.0094073 21.3827642,24.3374391 21.9273157,24.3374391 C22.943938,24.3374391 23.6775699,23.4833544 23.720113,22.2632785 L23.720113,22.2632785 Z" id="Fill-368" fill="#FFFFFF" sketch:type="MSShapeGroup"></path>
                <path d="M45.283787,25.8343018 C44.6034127,26.0215677 44.0733573,26.1031803 43.4998135,26.1031803 C42.2298234,26.1031803 41.5368438,25.4512289 41.5368438,24.290939 C41.4965066,23.9720807 41.8069136,22.499259 41.8771885,22.088982 C41.9477785,21.6774396 43.0479113,15.6779688 43.0479113,15.6779688 L45.5150954,15.6779688 L45.1422918,17.6626087 L46.40787,17.6626087 L46.0637436,19.6886875 L44.7928082,19.6886875 C44.7928082,19.6886875 44.0947864,23.2053024 44.0947864,23.4729156 C44.0947864,23.9005906 44.3522509,24.0846933 44.9431272,24.0846933 C45.2254872,24.0846933 45.4435599,24.0593871 45.613102,24.008142 L45.283787,25.8343018" id="Fill-369" fill="#FFFFFF" sketch:type="MSShapeGroup"></path>
                <path d="M57.5560502,21.1089988 C57.5560502,22.9807097 56.7915352,24.0884893 55.5836265,24.0884893 C54.7034573,24.1011424 54.1699354,23.3606193 54.1699354,22.2509417 C54.1699354,20.9362839 54.9486315,19.4501764 56.1997135,19.4501764 C57.209718,19.4501764 57.5560502,20.2539651 57.5560502,21.1089988 L57.5560502,21.1089988 Z M60.2195628,21.1615092 C60.2195628,19.0901955 58.8635412,17.472812 56.3096953,17.472812 C53.371701,17.472812 51.471443,19.4384723 51.471443,22.3344522 C51.471443,24.4070312 52.5920595,26.1031803 55.3765835,26.1031803 C58.185688,26.1031803 60.2195628,24.5968279 60.2195628,21.1615092 L60.2195628,21.1615092 Z" id="Fill-370" fill="#FFFFFF" sketch:type="MSShapeGroup"></path>
                <path d="M47.4818466,17.6616597 C47.1682883,20.2299241 46.6130222,22.8336173 46.1793978,25.4066267 L46.0747733,25.9671594 L48.566853,25.9671594 C49.4649849,20.9973351 49.7665681,19.5817687 51.6488635,20.0799848 L52.5542434,17.7287211 C51.2410801,17.2450561 50.3962058,17.9359158 49.6313756,18.9177969 C49.70039,18.4758871 49.8302252,18.0491611 49.7990269,17.6616597 L47.4818466,17.6616597" id="Fill-371" fill="#FFFFFF" sketch:type="MSShapeGroup"></path>
                <path d="M17.4587157,25.9671594 L14.9770354,25.9671594 L16.4518625,18.1652533 L13.0553483,25.9671594 L10.7926862,25.9671594 L10.3789153,18.2108045 L8.89904605,25.9671594 L6.64741364,25.9671594 L8.56500401,15.8184182 L12.4443035,15.8184182 L12.6491406,22.1013187 L15.3797767,15.8184182 L19.4150675,15.8184182 L17.4587157,25.9671594" id="Fill-372" fill="#FFFFFF" sketch:type="MSShapeGroup"></path>
            </g>
        </g>
    </g>
</svg>