<?xml version="1.0" encoding="UTF-8" standalone="no"?>
<svg width="100px" height="60px" viewBox="0 0 100 60" version="1.1" xmlns="http://www.w3.org/2000/svg" xmlns:xlink="http://www.w3.org/1999/xlink" xmlns:sketch="http://www.bohemiancoding.com/sketch/ns">
    <!-- Generator: Sketch 3.3.3 (12081) - http://www.bohemiancoding.com/sketch -->
    <title>Credit Card/Maestro/Maestro-card-flat</title>
    <desc>Created with Sketch.</desc>
    <defs></defs>
    <g id="Icons:-Credit-card" stroke="none" stroke-width="1" fill="none" fill-rule="evenodd" sketch:type="MSPage">
        <g id="Maestro-card-flat" sketch:type="MSArtboardGroup" fill="#9B9B9B">
            <g id="Credit-Card/Maestro/Maestro-card-flat" sketch:type="MSLayerGroup">
                <path d="M50.3829605,15.1912481 C49.6795233,15.835469 49.0218281,16.5299078 48.4154959,17.2686254 L52.4400721,17.2686254 C52.9896658,17.9398727 53.497977,18.6468651 53.9587029,19.3864392 L46.89655,19.3864392 C46.4736402,20.0674927 46.089807,20.7741688 45.7478866,21.5064674 L55.1079966,21.5064674 C55.4269122,22.1922658 55.7089571,22.8992582 55.9512951,23.6252302 L44.9042729,23.6252302 C44.6748553,24.3160899 44.4801025,25.0227659 44.3256869,25.744942 L56.5301963,25.744942 C56.5829911,25.9909976 56.6312864,26.2387572 56.6749899,26.4881246 L56.6749899,26.4881246 C56.4768122,26.4788753 56.2940285,26.473761 56.14088,26.473761 C53.3128675,26.473761 52.3343765,27.7507759 52.3432002,29.2862305 C52.3432002,30.3351731 52.9309251,31.0592472 54.2677235,31.5992185 C55.2903334,32.019618 55.4507366,32.1410878 55.4507366,32.5156198 C55.4507366,33.0369278 54.9991495,33.2754389 53.9973386,33.2694287 C53.2435381,33.2637348 52.5562308,33.1716834 51.7460213,32.9461418 L51.3864534,34.8583427 C52.1077951,35.0269453 53.1190601,35.0819863 54.0140407,35.1031803 C55.011047,35.1031803 55.8076453,34.980723 56.4144319,34.7284203 C56.282425,35.2733916 56.1281384,35.809652 55.9525557,36.3362256 L44.9017518,36.3362256 C45.1431445,37.0621977 45.4267651,37.7695064 45.7459958,38.4553048 L55.1098874,38.4553048 C54.767967,39.1876034 54.3850792,39.8955447 53.9609088,40.5750166 L46.8943441,40.5750166 C47.3553851,41.3164887 47.8624357,42.0247464 48.4129748,42.6950448 L52.4422781,42.6950448 C51.8230398,43.4510679 51.1492833,44.1609072 50.4279416,44.8179199 C50.4117717,44.8326346 50.3955776,44.847323 50.3793594,44.8619851 L50.3793594,44.8619851 C50.3823746,44.8647111 50.3853906,44.8674361 50.3884074,44.8701603 C46.8408114,48.0789218 42.1370492,50.0331666 36.9768486,50.0331666 C25.9311536,50.0331666 16.9768486,41.0788616 16.9768486,30.0331666 C16.9768486,18.9874716 25.9311536,10.0331666 36.9768486,10.0331666 C42.1344087,10.0331666 46.8359974,11.9854119 50.3829605,15.1912481 L50.3829605,15.1912481 Z M51.1240729,14.4641313 C54.5575048,11.6527088 58.9413889,9.96683339 63.7173316,9.96683339 C74.7306345,9.96683339 83.6564898,18.9280804 83.6564898,29.983733 C83.6564898,41.0390693 74.7306345,50 63.7173316,50 C58.9592411,50 54.5902835,48.3267635 51.1626145,45.5343332 C51.1421133,45.5531547 51.1215704,45.5719398 51.1009852,45.5906893 C47.2768809,49.0706503 42.3088138,51.0331666 37.0397889,51.0331666 C25.4738298,51.0331666 16.1000004,41.6235221 16.1000004,30.0168996 C16.1000004,18.4099567 25.4738339,9 37.0397889,9 C40.7106936,9 44.2466491,9.95043604 47.3702563,11.7319459 C48.7091445,12.4955639 49.9604187,13.4055964 51.0912353,14.4349863 C51.1022005,14.4447051 51.1131463,14.4544201 51.1240729,14.4641313 L51.1240729,14.4641313 Z M0,4.0065556 C0,1.79379604 1.79952991,0 3.99732351,0 L96.0026765,0 C98.2103373,0 100,1.79568082 100,4.0065556 L100,55.9934444 C100,58.206204 98.2004701,60 96.0026765,60 L3.99732351,60 C1.78966269,60 0,58.2043192 0,55.9934444 L0,4.0065556 Z M50.668263,34.7675566 C49.816771,34.9943636 48.9923804,35.1050783 48.1216652,35.1031803 C45.3424985,35.1006497 43.895088,33.829645 43.895088,31.3999321 C43.895088,28.5608911 45.7373614,26.472812 48.2382648,26.472812 C50.2844298,26.472812 51.5906602,27.6435408 51.5906602,29.4776087 C51.5906602,30.0862232 51.5021076,30.6780723 51.2859257,31.5179223 L46.3439943,31.5179223 C46.1678344,32.7035185 47.0303562,33.2254591 48.499826,33.2254591 C49.3799953,33.2254591 50.1763389,33.0666627 51.0577687,32.7101613 L50.668263,34.7675566 Z M49.339343,29.8435999 C49.339343,29.6642421 49.6141398,28.3903905 48.1843769,28.3625536 C47.3946511,28.3625536 46.8283553,28.8895556 46.5986226,29.8435999 L49.339343,29.8435999 Z M42.540327,34.9658941 L40.4664302,34.9658941 L40.5165365,34.094095 C39.8840625,34.7811587 39.0423396,35.1012823 37.8993486,35.1012823 C36.5471087,35.1012823 35.6196693,34.1731769 35.6196693,32.8379577 C35.6196693,30.809032 37.2306343,29.6383032 40.0000319,29.6383032 C40.2845978,29.6383032 40.6463717,29.6601298 41.0188601,29.7006197 C41.0957528,29.4295269 41.1162365,29.3134347 41.1162365,29.1657096 C41.1162365,28.6089729 40.6807213,28.4052579 39.5156709,28.4052579 C38.3663772,28.4100028 37.5911476,28.5811361 36.8720118,28.7753613 L37.225277,26.9131402 C38.4697412,26.5955472 39.2837323,26.472812 40.2061295,26.472812 C42.3506163,26.472812 43.4828928,27.316458 43.4828928,28.9031576 C43.5014857,29.3270367 43.354003,30.1751113 43.2808919,30.5483779 C43.1961208,31.088982 42.6020933,34.2256873 42.540327,34.9658941 Z M40.720113,31.2632785 C40.4579215,31.2360743 40.3432128,31.2291151 40.1629561,31.2291151 C38.7495802,31.2291151 38.0323352,31.6510963 38.0323352,32.4846197 C38.0323352,33.0094073 38.3827642,33.3374391 38.9273157,33.3374391 C39.943938,33.3374391 40.6775699,32.4833544 40.720113,31.2632785 Z M34.4587157,34.9671594 L31.9770354,34.9671594 L33.4518625,27.1652533 L30.0553483,34.9671594 L27.7926862,34.9671594 L27.3789153,27.2108045 L25.899046,34.9671594 L23.6474136,34.9671594 L25.565004,24.8184182 L29.4443035,24.8184182 L29.6491406,31.1013187 L32.3797767,24.8184182 L36.4150675,24.8184182 L34.4587157,34.9671594 Z M56.9210069,28.4623472 C56.9585644,28.9645323 56.9776866,29.4718998 56.9776866,29.983733 C56.9776866,30.1388464 56.9759331,30.2935402 56.9724446,30.4477963 C56.7408484,30.2900119 56.4627392,30.1489657 56.1339471,30.0194781 C55.0744666,29.59465 54.9499886,29.501966 54.9499886,29.1182605 C54.9499886,28.6665445 55.3703774,28.437207 56.1884652,28.437207 C56.4041123,28.437207 56.654203,28.4459849 56.9210069,28.4623472 L56.9210069,28.4623472 Z M62.283787,34.8343018 C61.6034127,35.0215677 61.0733573,35.1031803 60.4998135,35.1031803 C59.2298234,35.1031803 58.5368438,34.4512289 58.5368438,33.290939 C58.4965066,32.9720807 58.8069136,31.499259 58.8771885,31.088982 C58.9477785,30.6774396 60.0479113,24.6779688 60.0479113,24.6779688 L62.5150954,24.6779688 L62.1422918,26.6626087 L63.40787,26.6626087 L63.0637436,28.6886875 L61.7928082,28.6886875 C61.7928082,28.6886875 61.0947864,32.2053024 61.0947864,32.4729156 C61.0947864,32.9005906 61.3522509,33.0846933 61.9431272,33.0846933 C62.2254872,33.0846933 62.4435599,33.0593871 62.613102,33.008142 L62.283787,34.8343018 Z M77.2195628,30.1615092 C77.2195628,28.0901955 75.8635412,26.472812 73.3096953,26.472812 C70.371701,26.472812 68.471443,28.4384723 68.471443,31.3344522 C68.471443,33.4070312 69.5920595,35.1031803 72.3765835,35.1031803 C75.185688,35.1031803 77.2195628,33.5968279 77.2195628,30.1615092 Z M74.5560502,30.1089988 C74.5560502,31.9807097 73.7915352,33.0884893 72.5836265,33.0884893 C71.7034573,33.1011424 71.1699354,32.3606193 71.1699354,31.2509417 C71.1699354,29.9362839 71.9486315,28.4501764 73.1997135,28.4501764 C74.209718,28.4501764 74.5560502,29.2539651 74.5560502,30.1089988 Z M64.4818466,26.6616597 C64.1682883,29.2299241 63.6130222,31.8336173 63.1793978,34.4066267 L63.0747733,34.9671594 L65.566853,34.9671594 C66.4649849,29.9973351 66.7665681,28.5817687 68.6488635,29.0799848 L69.5542434,26.7287211 C68.2410801,26.2450561 67.3962058,26.9359158 66.6313756,27.9177969 C66.70039,27.4758871 66.8302252,27.0491611 66.7990269,26.6616597 L64.4818466,26.6616597 Z" id="Rectangle" sketch:type="MSShapeGroup"></path>
            </g>
        </g>
    </g>
</svg>