<?xml version="1.0" encoding="UTF-8" standalone="no"?>
<svg width="68px" height="43px" viewBox="0 0 68 43" version="1.1" xmlns="http://www.w3.org/2000/svg" xmlns:xlink="http://www.w3.org/1999/xlink" xmlns:sketch="http://www.bohemiancoding.com/sketch/ns">
    <!-- Generator: Sketch 3.3.3 (12081) - http://www.bohemiancoding.com/sketch -->
    <title>Credit card/Maestro/Maestro-flat</title>
    <desc>Created with Sketch.</desc>
    <defs></defs>
    <g id="Icons:-Credit-card" stroke="none" stroke-width="1" fill="none" fill-rule="evenodd" sketch:type="MSPage">
        <g id="Maestro-flat" sketch:type="MSArtboardGroup" transform="translate(-16.000000, -9.000000)">
            <g id="Credit-card/Maestro/Maestro-flat" sketch:type="MSLayerGroup" transform="translate(16.000000, 8.000000)">
                <path d="M40.6749899,18.4881246 C40.6312864,18.2387572 40.5829911,17.9909976 40.5301963,17.744942 L28.3256869,17.744942 C28.4801025,17.0227659 28.6748553,16.3160899 28.9042729,15.6252302 L39.9512951,15.6252302 C39.7089571,14.8992582 39.4269122,14.1922658 39.1079966,13.5064674 L29.7478866,13.5064674 C30.089807,12.7741688 30.4736402,12.0674927 30.89655,11.3864392 L37.9587029,11.3864392 C37.497977,10.6468651 36.9896658,9.93987271 36.4400721,9.26862537 L32.4154959,9.26862537 C33.0347342,8.51418383 33.7075453,7.80592615 34.4279416,7.15017885 C34.4115728,7.13527999 34.3951793,7.12040807 34.3787611,7.10556315 C37.9117809,3.9110577 42.5884869,1.96683339 47.7173316,1.96683339 C58.7306345,1.96683339 67.6564898,10.9280804 67.6564898,21.983733 C67.6564898,33.0390693 58.7306345,42 47.7173316,42 C42.5887764,42 37.9123089,40.0560638 34.3793594,36.8619851 L34.3793594,36.8619851 C34.3955776,36.847323 34.4117717,36.8326346 34.4279416,36.8179199 C35.1492833,36.1609072 35.8230398,35.4510679 36.4422781,34.6950448 L32.4129748,34.6950448 C31.8624357,34.0247464 31.3553851,33.3164887 30.8943441,32.5750166 L37.9609088,32.5750166 C38.3850792,31.8955447 38.767967,31.1876034 39.1098874,30.4553048 L29.7459958,30.4553048 C29.4267651,29.7695064 29.1431445,29.0621977 28.9017518,28.3362256 L39.9525557,28.3362256 C40.1281384,27.809652 40.282425,27.2733916 40.4144319,26.7284203 C39.8076453,26.980723 39.011047,27.1031803 38.0140407,27.1031803 C37.1190601,27.0819863 36.1077951,27.0269453 35.3864534,26.8583427 L35.7460213,24.9461418 C36.5562308,25.1716834 37.2435381,25.2637348 37.9973386,25.2694287 C38.9991495,25.2754389 39.4507366,25.0369278 39.4507366,24.5156198 C39.4507366,24.1410878 39.2903334,24.019618 38.2677235,23.5992185 C36.9309251,23.0592472 36.3432002,22.3351731 36.3432002,21.2862305 C36.3343765,19.7507759 37.3128675,18.473761 40.14088,18.473761 C40.2940285,18.473761 40.4768122,18.4788753 40.6749899,18.4881246 L40.6749899,18.4881246 Z M40.9210069,20.4623472 C40.9585644,20.9645323 40.9776866,21.4718998 40.9776866,21.983733 C40.9776866,22.1388464 40.9759331,22.2935402 40.9724446,22.4477963 C40.7408484,22.2900119 40.4627392,22.1489657 40.1339471,22.0194781 C39.0744666,21.59465 38.9499886,21.501966 38.9499886,21.1182605 C38.9499886,20.6665445 39.3703774,20.437207 40.1884652,20.437207 C40.4041123,20.437207 40.654203,20.4459849 40.9210069,20.4623472 L40.9210069,20.4623472 Z M46.283787,26.8343018 C45.6034127,27.0215677 45.0733573,27.1031803 44.4998135,27.1031803 C43.2298234,27.1031803 42.5368438,26.4512289 42.5368438,25.290939 C42.4965066,24.9720807 42.8069136,23.499259 42.8771885,23.088982 C42.9477785,22.6774396 44.0479113,16.6779688 44.0479113,16.6779688 L46.5150954,16.6779688 L46.1422918,18.6626087 L47.40787,18.6626087 L47.0637436,20.6886875 L45.7928082,20.6886875 C45.7928082,20.6886875 45.0947864,24.2053024 45.0947864,24.4729156 C45.0947864,24.9005906 45.3522509,25.0846933 45.9431272,25.0846933 C46.2254872,25.0846933 46.4435599,25.0593871 46.613102,25.008142 L46.283787,26.8343018 Z M61.2195628,22.1615092 C61.2195628,20.0901955 59.8635412,18.472812 57.3096953,18.472812 C54.371701,18.472812 52.471443,20.4384723 52.471443,23.3344522 C52.471443,25.4070312 53.5920595,27.1031803 56.3765835,27.1031803 C59.185688,27.1031803 61.2195628,25.5968279 61.2195628,22.1615092 Z M58.5560502,22.1089988 C58.5560502,23.9807097 57.7915352,25.0884893 56.5836265,25.0884893 C55.7034573,25.1011424 55.1699354,24.3606193 55.1699354,23.2509417 C55.1699354,21.9362839 55.9486315,20.4501764 57.1997135,20.4501764 C58.209718,20.4501764 58.5560502,21.2539651 58.5560502,22.1089988 Z M48.4818466,18.6616597 C48.1682883,21.2299241 47.6130222,23.8336173 47.1793978,26.4066267 L47.0747733,26.9671594 L49.566853,26.9671594 C50.4649849,21.9973351 50.7665681,20.5817687 52.6488635,21.0799848 L53.5542434,18.7287211 C52.2410801,18.2450561 51.3962058,18.9359158 50.6313756,19.9177969 C50.70039,19.4758871 50.8302252,19.0491611 50.7990269,18.6616597 L48.4818466,18.6616597 Z" id="Fill-356-Copy" fill="#9B9B9B" sketch:type="MSShapeGroup"></path>
                <path d="M1.25817692,7.60521317 L0.554775363,6.87824311 C0.707212614,6.7307479 0.86185181,6.58557215 1.01895739,6.44247735 C4.84306171,2.96251626 9.81112873,1 15.0801537,1 C26.6461127,1 36.0199422,10.4096445 36.0199422,22.016267 C36.0199422,33.6232099 26.6461087,43.0331666 15.0801537,43.0331666 C11.409249,43.0331666 7.87329346,42.0827306 4.7496863,40.3012207 C3.41079812,39.5376027 2.15952385,38.6275702 1.02870725,37.5981803 C0.701661304,37.3083094 0.391772832,37.0217471 0.100000381,36.7412072 L0.836240462,35.9754887 C4.46777335,39.6925834 9.53597067,42 15.143094,42 C26.188789,42 35.143094,33.045695 35.143094,22 C35.143094,10.954305 26.188789,2 15.143094,2 C9.74992466,2 4.85533783,4.13468552 1.25817692,7.60521317 L1.25817692,7.60521317 Z" id="Path-Copy" fill="#9B9B9B" sketch:type="MSShapeGroup" transform="translate(18.059971, 22.016583) rotate(-180.000000) translate(-18.059971, -22.016583) "></path>
                <path d="M34.668263,26.7675566 C33.816771,26.9943636 32.9923804,27.1050783 32.1216652,27.1031803 C29.3424985,27.1006497 27.895088,25.829645 27.895088,23.3999321 C27.895088,20.5608911 29.7373614,18.472812 32.2382648,18.472812 C34.2844298,18.472812 35.5906602,19.6435408 35.5906602,21.4776087 C35.5906602,22.0862232 35.5021076,22.6780723 35.2859257,23.5179223 L30.3439943,23.5179223 C30.1678344,24.7035185 31.0303562,25.2254591 32.499826,25.2254591 C33.3799953,25.2254591 34.1763389,25.0666627 35.0577687,24.7101613 L34.668263,26.7675566 L34.668263,26.7675566 Z M33.339343,21.8435999 C33.339343,21.6642421 33.6141398,20.3903905 32.1843769,20.3625536 C31.3946511,20.3625536 30.8283553,20.8895556 30.5986226,21.8435999 L33.339343,21.8435999 L33.339343,21.8435999 Z" id="Fill-366" fill="#979797" sketch:type="MSShapeGroup"></path>
                <path d="M26.540327,26.9658941 L24.4664302,26.9658941 L24.5165365,26.094095 C23.8840625,26.7811587 23.0423396,27.1012823 21.8993486,27.1012823 C20.5471087,27.1012823 19.6196693,26.1731769 19.6196693,24.8379577 C19.6196693,22.809032 21.2306343,21.6383032 24.0000319,21.6383032 C24.2845978,21.6383032 24.6463717,21.6601298 25.0188601,21.7006197 C25.0957528,21.4295269 25.1162365,21.3134347 25.1162365,21.1657096 C25.1162365,20.6089729 24.6807213,20.4052579 23.5156709,20.4052579 C22.3663772,20.4100028 21.5911476,20.5811361 20.8720118,20.7753613 L21.225277,18.9131402 C22.4697412,18.5955472 23.2837323,18.472812 24.2061295,18.472812 C26.3506163,18.472812 27.4828928,19.316458 27.4828928,20.9031576 C27.5014857,21.3270367 27.354003,22.1751113 27.2808919,22.5483779 C27.1961208,23.088982 26.6020933,26.2256873 26.540327,26.9658941 L26.540327,26.9658941 Z M24.720113,23.2632785 C24.4579215,23.2360743 24.3432128,23.2291151 24.1629561,23.2291151 C22.7495802,23.2291151 22.0323352,23.6510963 22.0323352,24.4846197 C22.0323352,25.0094073 22.3827642,25.3374391 22.9273157,25.3374391 C23.943938,25.3374391 24.6775699,24.4833544 24.720113,23.2632785 L24.720113,23.2632785 Z" id="Fill-368" fill="#979797" sketch:type="MSShapeGroup"></path>
                <path d="M18.4587157,26.9671594 L15.9770354,26.9671594 L17.4518625,19.1652533 L14.0553483,26.9671594 L11.7926862,26.9671594 L11.3789153,19.2108045 L9.89904605,26.9671594 L7.64741364,26.9671594 L9.56500401,16.8184182 L13.4443035,16.8184182 L13.6491406,23.1013187 L16.3797767,16.8184182 L20.4150675,16.8184182 L18.4587157,26.9671594" id="Fill-372" fill="#979797" sketch:type="MSShapeGroup"></path>
            </g>
        </g>
    </g>
</svg>