<?xml version="1.0" encoding="UTF-8" standalone="no"?>
<svg width="58px" height="24px" viewBox="0 0 58 24" version="1.1" xmlns="http://www.w3.org/2000/svg" xmlns:xlink="http://www.w3.org/1999/xlink" xmlns:sketch="http://www.bohemiancoding.com/sketch/ns">
    <!-- Generator: Sketch 3.3.3 (12081) - http://www.bohemiancoding.com/sketch -->
    <title>Payment/Sage/Sage-flat</title>
    <desc>Created with Sketch.</desc>
    <defs></defs>
    <g id="Icons:-Payment" stroke="none" stroke-width="1" fill="none" fill-rule="evenodd" sketch:type="MSPage">
        <g id="Sage-flat" sketch:type="MSArtboardGroup" transform="translate(-21.000000, -21.000000)" fill="#9B9B9B">
            <g id="Payment/Sage/Sage-flat" sketch:type="MSLayerGroup" transform="translate(21.000000, 21.000000)">
                <path d="M26.0970162,11.2708046 L26.0970162,10.0478832 L21.3827145,10.0478832 C19.0695745,10.0478832 17.9941007,10.8436534 17.9941007,12.0665748 C17.9941007,13.2010277 19.0253403,14.1880329 21.6919076,14.1880329 C24.9773081,14.1875861 26.0970162,13.8931377 26.0970162,11.2708046 L26.0970162,11.2708046 L26.0970162,11.2708046 Z M16.0196434,3.06422907 L14.3548261,4.74379119 C12.8079668,3.81576498 11.2316179,3.18218714 9.11015986,3.18218714 C6.59059326,3.18218714 5.75103561,4.03693637 5.75103561,5.20043192 C5.75103561,5.93722307 6.35512392,6.65926946 8.32958124,6.7919723 L11.5707474,6.99795212 C13.5742474,7.10116543 14.9888507,7.67576423 15.9021322,8.55955617 C16.9628612,7.64627471 18.5539548,7.0712291 20.6459233,7.0712291 L26.0970162,7.0712291 L26.0970162,5.3474327 C26.0970162,3.75633913 24.9035843,3.19648509 22.0752714,3.19648509 C20.0275371,3.19648509 18.7014024,3.80057341 17.6701628,4.75853595 L16.0196434,3.06422907 L16.0196434,3.06422907 Z M45.3085439,7.32233682 L54.4136562,7.32233682 C54.4136562,4.40510854 52.2479638,2.96146256 49.8463553,2.96146256 C47.4447467,2.96146256 45.3085439,4.39036378 45.3085439,7.32233682 L45.3085439,7.32233682 L45.3085439,7.32233682 Z M31.6808118,8.60423726 C31.7250461,11.3592732 31.7692804,11.7864244 32.4761352,12.5522583 C33.0359892,13.1567934 34.2441659,13.8636482 35.8794937,13.8636482 C37.4705873,13.8636482 38.5018268,13.1563466 39.0616809,12.5522583 C39.7689825,11.7864244 39.8570043,11.3145921 39.8570043,8.60423726 C39.8570043,5.86394608 39.7689825,5.3925606 39.0616809,4.62627993 C38.5018268,4.02219161 37.4701405,3.31488997 35.8794937,3.31488997 C34.2441659,3.31488997 33.0359892,4.02219161 32.4761352,4.62627993 C31.7692804,5.39211379 31.6513223,5.83445657 31.6808118,8.60423726 L31.6808118,8.60423726 L31.6808118,8.60423726 Z M29.2059263,2.56335406 C29.3386292,2.40160852 29.4708852,2.23941617 29.6335243,2.06247906 C30.5168695,1.10541014 32.2554106,0 34.8040199,0 C36.8075199,0 38.3990603,0.663067357 39.8574511,1.98920207 L39.8574511,0.20642663 L43.8059189,0.20642663 L43.8059189,2.04818111 C45.3675229,0.574598801 47.4599383,0 49.4192041,0 C53.735844,0 57.4483957,2.96146256 57.4631405,7.91168038 C57.4778852,8.7659828 57.3751187,10.2837994 57.3751187,10.2837994 L45.3085439,10.2837994 C45.3085439,13.0240906 47.1797879,14.0553301 49.8758448,14.0553301 C51.3784698,14.0553301 53.2792033,13.377518 54.4284009,12.3462784 L57.0802235,14.2760547 C55.1504473,16.1915329 52.5719017,17.2227725 49.9495686,17.2227725 C47.7990678,17.2227725 45.4859278,16.7218975 43.8059189,15.1893361 L43.8059189,16.6039394 C43.8059189,21.6721153 39.7841741,24 35.3053417,24 C32.8009667,24 30.2519106,22.8655472 28.5133694,21.185985 L31.5633006,19.0940165 C32.5208163,19.9188294 33.8764405,20.6113862 35.3790655,20.6113862 C38.0161434,20.6113862 39.8574511,19.3294858 39.8574511,16.9721116 L39.8574511,15.2483152 C38.6349765,16.4122575 36.8079668,17.2080277 34.8040199,17.2080277 C32.5940933,17.2080277 31.0029997,16.382768 30.0307392,15.5432103 L30.0307392,17.2375172 L26.0970162,17.2375172 L26.0970162,15.5284656 L26.0232924,15.5284656 C25.2132242,16.6924079 23.8576,17.2227725 21.1910326,17.2227725 C18.7009556,17.2227725 16.8006688,16.5007261 15.6367265,15.3367837 C14.163591,16.5449603 11.8209615,17.1932829 9.13964937,17.1932829 C5.97220699,17.1932829 3.04023395,16.2062777 0.535412118,14.1875861 L3.27570329,11.8601482 C4.97001017,13.2890494 6.82650941,14.0258406 9.44884251,14.0258406 C11.6882587,14.0258406 13.3088418,13.2890494 13.3088418,11.8601482 C13.3088418,10.6667163 12.2628575,10.3132889 10.921978,10.2100756 L7.44489568,9.94511673 C4.20417631,9.70875377 1.80256779,8.05912797 1.80256779,5.17138921 C1.80256779,1.75328592 4.97001017,0 9.11015986,0 C12.0863672,0 14.2221232,0.677812116 16.0048987,1.76803068 C17.4489914,0.471832297 19.3345334,0.0147447593 21.8835895,0.0147447593 C25.286948,0.0147447593 27.9387706,0.707301635 29.2059263,2.56335406 L29.2059263,2.56335406 L29.2059263,2.56335406 Z" id="Shape" sketch:type="MSShapeGroup"></path>
            </g>
        </g>
    </g>
</svg>