<?xml version="1.0" encoding="UTF-8" standalone="no"?>
<svg width="76px" height="26px" viewBox="0 0 76 26" version="1.1" xmlns="http://www.w3.org/2000/svg" xmlns:xlink="http://www.w3.org/1999/xlink" xmlns:sketch="http://www.bohemiancoding.com/sketch/ns">
    <!-- Generator: Sketch 3.3.3 (12081) - http://www.bohemiancoding.com/sketch -->
    <title>Payment/DirectDebit/DirectDebit-flat</title>
    <desc>Created with Sketch.</desc>
    <defs></defs>
    <g id="Icons:-Payment" stroke="none" stroke-width="1" fill="none" fill-rule="evenodd" sketch:type="MSPage">
        <g id="DirectDebit-flat" sketch:type="MSArtboardGroup" transform="translate(-12.000000, -17.000000)" fill="#9B9B9B">
            <g id="Payment/DirectDebit/DirectDebit-flat" sketch:type="MSLayerGroup" transform="translate(12.000000, 17.000000)">
                <path d="M35.7912908,5.96322232 L39.6663087,5.96322232 C39.6663087,5.96322232 43.5022193,5.88560218 43.4635371,9.38447936 C43.424855,11.989019 39.743673,12.3779727 39.743673,12.3779727 L35.7912908,12.3779727 L35.7912908,5.96322232 L35.7912908,5.96322232 Z M47.3831883,18.5210525 C47.4915833,19.0302747 47.8584263,19.5906751 49.0818029,19.647824 C50.7094295,19.6866341 51.6395018,19.0643935 51.6395018,19.0643935 L51.6395018,20.2696381 C51.6395018,20.2696381 49.8567215,20.6974019 49.0044386,20.6974019 C48.1134736,20.6974019 45.4784104,20.502925 45.4784104,18.0536257 C45.4784104,16.0713267 47.6484374,15.4490861 48.887967,15.4490861 C51.057994,15.5267062 52.1041128,16.3041871 52.0654307,18.5201995 C52.0654307,18.5530388 48.4951943,18.5287292 47.3831883,18.5210525 L47.3831883,18.5210525 Z M47.3878641,17.5482418 L50.3604398,17.5482418 C50.3604398,17.5482418 50.3604398,16.4210438 48.9270743,16.4210438 C47.8482244,16.4210438 47.4954091,17.0044743 47.3878641,17.5482418 L47.3878641,17.5482418 Z M56.7927314,16.3310556 C57.222486,15.8632023 57.9446948,15.4878962 59.1565943,15.4878962 C61.5587143,15.4878962 61.9463861,17.5094317 61.907704,18.0536257 C61.8690218,18.5982461 61.6751859,20.6585918 58.8853941,20.6585918 C57.8320489,20.6585918 57.1872045,20.2977861 56.7927314,19.8495511 L56.7927314,20.502925 L54.8943297,20.502925 L54.8943297,13.5051707 L56.7927314,13.5051707 L56.7927314,16.3310556 L56.7927314,16.3310556 Z M58.4203579,19.5702039 C59.5438411,19.5309673 60.0475594,18.5594361 60.0475594,18.0928622 C60.0475594,17.6262884 59.7763591,16.6543307 58.3429936,16.6543307 C57.2301374,16.6543307 56.8917748,17.4974902 56.7927314,17.9099005 L56.7927314,18.4169903 C56.8900744,18.8366509 57.2309876,19.5702039 58.4203579,19.5702039 L58.4203579,19.5702039 Z M74.8109693,19.375727 L74.8496515,20.4641149 C74.8496515,20.4641149 73.9582614,20.6585918 73.3771787,20.6585918 C72.7960961,20.6585918 71.2845161,20.3084482 71.2845161,18.831533 L71.2845161,16.5762841 L69.6959968,16.5762841 L69.6959968,15.5655163 L71.2845161,15.5655163 L71.2845161,14.3606982 L73.222025,14.3606982 L73.222025,15.5655163 L74.8109693,15.5655163 L74.8109693,16.5762841 L73.222025,16.5762841 L73.222025,18.5201995 C73.222025,18.5201995 73.222025,19.4921572 73.9969435,19.4921572 C74.7718621,19.4921572 74.8109693,19.375727 74.8109693,19.375727 L74.8109693,19.375727 Z M68.9210782,7.01280018 L71.1684696,7.01280018 L71.1684696,12.4167827 L73.0672963,12.4167827 L73.0672963,7.01280018 L75.3533698,7.01280018 L75.3533698,5.88560218 L68.9210782,5.88560218 L68.9210782,7.01280018 L68.9210782,7.01280018 Z M68.1461597,7.28489716 L68.3786777,6.15769916 C68.3786777,6.15769916 67.4099233,5.72993541 65.7049324,5.72993541 C64.0386237,5.72993541 61.3653035,6.66308306 61.3653035,9.19000252 C61.3653035,11.6781119 64.1937775,12.5332129 65.9374505,12.5332129 C67.6811235,12.5332129 68.2622062,12.261116 68.2622062,12.261116 L68.0687953,11.0170613 C68.0687953,11.0170613 67.2934517,11.2503482 65.9761327,11.2503482 C64.6974958,11.2115381 63.3801768,10.2007703 63.3801768,9.07314583 C63.4188589,8.06237804 64.5814493,6.93518004 66.0926042,6.93518004 C67.2547695,6.93518004 68.1461597,7.28489716 68.1461597,7.28489716 L68.1461597,7.28489716 Z M51.0193119,5.92441225 C51.0193119,5.92441225 54.1967755,5.76874548 54.1967755,7.63504077 C54.1967755,9.22881259 52.3757381,9.34566929 52.3757381,9.34566929 C52.3757381,9.34566929 52.8790314,9.42328943 53.1119745,9.77300656 C53.3053854,10.0843401 54.5840222,12.4167827 54.5840222,12.4167827 L52.6469384,12.4167827 C52.6469384,12.4167827 52.3366309,12.027829 52.1819022,11.7557321 C52.0654307,11.4836351 51.7168661,10.900631 51.7168661,10.900631 C51.7168661,10.900631 51.4456659,9.92867333 50.5155936,9.92867333 C50.4922142,9.92867333 50.113044,9.91417286 49.8180393,9.90308427 L49.8180393,12.4167827 L47.9583198,12.4167827 L47.9583198,5.92441225 L51.0193119,5.92441225 L51.0193119,5.92441225 Z M49.8180393,8.83985891 L50.825476,8.83985891 C50.825476,8.83985891 52.2205844,8.76223877 52.2979487,7.90713776 C52.3366309,7.09042032 50.9419475,6.97399011 50.9419475,6.97399011 L49.8180393,6.97399011 L49.8180393,8.83985891 L49.8180393,8.83985891 Z M57.6067572,9.8506267 L60.7064314,9.8506267 L60.7064314,8.64580856 L57.6067572,8.64580856 L57.6067572,7.16846695 L60.9776317,7.16846695 L60.9776317,5.92441225 L55.7079304,5.92441225 L55.7079304,12.4167827 L61.0163138,12.4167827 L61.0163138,11.2503482 L57.6067572,11.2503482 L57.6067572,9.8506267 L57.6067572,9.8506267 Z M65.1625319,14.8268455 L67.0613587,14.8268455 L67.0613587,13.5051707 L65.1625319,13.5051707 L65.1625319,14.8268455 Z M65.1625319,20.502925 L67.0613587,20.502925 L67.0613587,15.5655163 L65.1625319,15.5655163 L65.1625319,20.502925 Z M44.4709738,12.4167827 L46.3311184,12.4167827 L46.3311184,5.92441225 L44.4709738,5.92441225 L44.4709738,12.4167827 Z M35.7912908,14.0493646 L39.6663087,14.0493646 C39.6663087,14.0493646 43.5022193,13.9717445 43.4635371,17.4706217 C43.424855,20.0751613 39.743673,20.4641149 39.743673,20.4641149 L35.7912908,20.4641149 L35.7912908,14.0493646 L35.7912908,14.0493646 Z M37.6896925,19.2588703 L38.9300723,19.2588703 C38.9300723,19.2588703 41.487346,19.10363 41.487346,17.1209045 C41.487346,15.138179 38.7749186,14.9437022 38.7749186,14.9437022 L37.6896925,14.9437022 L37.6896925,19.2588703 L37.6896925,19.2588703 Z M37.6896925,11.172728 L38.9300723,11.172728 C38.9300723,11.172728 41.487346,10.9782512 41.487346,9.03433575 C41.487346,7.01280018 38.7749186,6.8575599 38.7749186,6.8575599 L37.6896925,6.8575599 L37.6896925,11.172728 L37.6896925,11.172728 Z" id="Fill-2" sketch:type="MSShapeGroup"></path>
                <path d="M18.3932428,9.82802303 L18.3932428,22.8357941 C18.3932428,22.8357941 10.8761502,21.4748827 10.8761502,16.3041871 C10.8761502,12.1805104 16.4408561,10.3632608 18.3932428,9.82802303 L18.3932428,9.82802303 Z M18.3932428,9.58535347 C13.8750808,9.25738704 3.6302579,11.3821318 3.6302579,16.0320901 C3.6302579,19.0643935 9.05468779,23.4964183 17.8895245,23.613275 C18.238089,23.613275 28.2741983,23.2243213 28.1190445,12.4167827 C27.9889704,3.33949092 21.217466,1.74955746 19.0521148,1.47276915 L19.0521148,0.919619016 C27.684614,1.46935728 34.4739718,6.67801001 34.4739718,12.9997868 C34.4739718,19.6866341 26.8790898,25.1294267 17.5409599,25.1294267 C8.2024049,25.1294267 0.646630174,19.6866341 0.646630174,12.9997868 C0.646630174,6.31293945 8.2024049,0.870573322 17.5409599,0.870573322 C17.8266128,0.870573322 18.1109905,0.875264649 18.3932428,0.885926757 L18.3932428,9.58535347 L18.3932428,9.58535347 Z" id="Fill-3" sketch:type="MSShapeGroup"></path>
            </g>
        </g>
    </g>
</svg>