<?xml version="1.0" encoding="UTF-8" standalone="no"?>
<svg width="69px" height="26px" viewBox="0 0 69 26" version="1.1" xmlns="http://www.w3.org/2000/svg" xmlns:xlink="http://www.w3.org/1999/xlink" xmlns:sketch="http://www.bohemiancoding.com/sketch/ns">
    <!-- Generator: Sketch 3.3.3 (12081) - http://www.bohemiancoding.com/sketch -->
    <title>Payment/Ukash/Ukash-alt</title>
    <desc>Created with Sketch.</desc>
    <defs></defs>
    <g id="Icons:-Payment" stroke="none" stroke-width="1" fill="none" fill-rule="evenodd" sketch:type="MSPage">
        <g id="Ukash-alt" sketch:type="MSArtboardGroup" transform="translate(-17.000000, -17.000000)">
            <g id="Payment/Ukash/Ukash-alt" sketch:type="MSLayerGroup" transform="translate(17.000000, 17.000000)">
                <path d="M23.4193068,10.1848889 C23.6865874,14.7551111 22.1566366,18.6502222 19.0460439,21.9231111 C17.2826066,23.7773333 15.1597231,25.0575556 12.671249,25.6533333 C12.0353056,25.8057778 11.3747847,25.854 10.7265525,25.9488889 C10.6942945,25.952 10.6620365,25.9644444 10.6297785,25.9784444 L9.59137818,25.9784444 C9.36710829,25.9488889 9.1413023,25.924 8.9170324,25.8944444 C7.1397703,25.6844444 5.52533429,25.0497778 4.11366284,23.9344444 C1.7772621,22.0864444 0.563746924,19.5928889 0.129031993,16.67 C0.0752686628,16.3122222 0.0414745693,15.9513333 0,15.592 L0,14.0364444 C0.0107526661,14.0037778 0.0261136177,13.9726667 0.0307219032,13.9384444 C0.0829491386,13.4733333 0.104454471,13.002 0.185867514,12.5415556 C0.858677194,8.66511111 2.66819729,5.44822222 5.69430476,2.96244444 C7.40858696,1.55311111 9.35174733,0.613555556 11.542219,0.237111111 C11.9277789,0.171777778 12.3194832,0.128222222 12.7081153,0.0753333333 L13.995363,0.0753333333 C14.3778507,0.129777778 14.7634106,0.168666667 15.14129,0.240222222 C18.273388,0.837555556 20.5729225,2.59533333 22.0859762,5.41555556 C22.8832096,6.90111111 23.3194606,8.50177778 23.4193068,10.1848889 L23.4193068,10.1848889 Z M18.9692391,6.44844444 C18.8448154,6.41111111 18.7111751,6.394 18.5821432,6.394 C17.772621,6.39555556 16.9630989,6.408 16.1535767,6.40644444 C15.9723175,6.40644444 15.8970488,6.47177778 15.8601825,6.64755556 C15.3901374,8.94822222 14.9216284,11.2504444 14.4392945,13.5495556 C14.2549631,14.4237778 14.0737039,15.3042222 13.7004327,16.1224444 C13.4116468,16.7524444 12.993829,17.2595556 12.3348441,17.5162222 C11.6989007,17.762 11.0399159,17.8024444 10.3763228,17.6624444 C9.53761485,17.4913333 8.90781583,16.8971111 9.0138064,15.8393333 C9.02455906,15.7304444 9.02302297,15.6137778 9.0445283,15.5048889 C9.19352953,14.7582222 9.34099467,14.01 9.50074856,13.2664444 C9.92317473,11.2971111 10.3532814,9.33088889 10.7741715,7.36155556 C10.9016674,6.76266667 10.6113454,6.41111111 10.0061239,6.408 C9.60366694,6.40488889 9.2042822,6.408 8.80182527,6.40644444 C8.3793991,6.40644444 7.95697293,6.41111111 7.53608285,6.40488889 C7.3640402,6.40177778 7.29491591,6.47022222 7.25958573,6.63822222 C6.8248708,8.68377778 6.3778671,10.7246667 5.94776046,12.7702222 C5.682016,14.0333333 5.35175554,15.2886667 5.34868335,16.5984444 C5.34714725,17.2424444 5.4592822,17.8537778 5.77418171,18.4137778 C6.30106235,19.3564444 7.12287326,19.9397778 8.10597416,20.3022222 C9.85865874,20.94 11.6466735,20.9182222 13.4408326,20.5184444 C14.834071,20.2104444 15.9415956,19.4637778 16.6835295,18.2068889 C17.0982752,17.5037778 17.3870611,16.7462222 17.5698564,15.9513333 C17.901653,14.5077778 18.2042637,13.0564444 18.5099467,11.6066667 C18.8202379,10.1351111 19.1213126,8.662 19.419315,7.18888889 C19.4884393,6.81866667 19.3256132,6.55422222 18.9692391,6.44844444 L18.9692391,6.44844444 Z" id="Shape" fill="#D22328" sketch:type="MSShapeGroup"></path>
                <path d="M68.8523934,12.5975556 C68.8846514,13.4484444 68.6834229,14.2635556 68.5006276,15.0833333 C68.1765115,16.5642222 67.8431788,18.0435556 67.5190628,19.526 C67.377742,20.1591111 66.9967904,20.4826667 66.3454861,20.4873333 C65.6726764,20.492 65.0014028,20.4888889 64.3301292,20.4888889 C64.0014048,20.4888889 63.9768273,20.4468889 64.0428794,20.1155556 C64.4330476,18.2675556 64.8293601,16.4242222 65.2072395,14.5746667 C65.2763638,14.2355556 65.3132301,13.8777778 65.2825082,13.5355556 C65.2210644,12.9102222 64.795566,12.5602222 64.1719114,12.5415556 C63.2087797,12.5135556 62.4929594,12.9335556 62.1411936,13.8342222 C61.8923462,14.4657778 61.7356645,15.1408889 61.5881993,15.8066667 C61.3178466,17.0013333 61.0874323,18.2022222 60.8385849,19.4015556 C60.6819032,20.1311111 60.2379717,20.492 59.5067904,20.492 L57.6189295,20.492 C57.3301436,20.492 57.2917412,20.4406667 57.3516489,20.1528889 C57.88621,17.6048889 58.4161628,15.0631111 58.950724,12.5151111 C59.3562531,10.5784444 59.7633183,8.64177778 60.1565587,6.70355556 C60.2041776,6.478 60.2886628,6.408 60.5098605,6.41266667 C61.1934229,6.42666667 61.8815935,6.41577778 62.5651559,6.41733333 C63.1657691,6.41888889 63.4622354,6.77355556 63.3393478,7.36933333 C63.0812838,8.61533333 62.8170755,9.85977778 62.5559393,11.1057778 C62.5313618,11.2131111 62.5113925,11.322 62.4898872,11.4308889 C62.8984885,10.9455556 63.3869668,10.5924444 63.9599303,10.3591111 C65.0014028,9.93133333 66.0720611,9.77733333 67.1550082,10.1615556 C68.1918724,10.5271111 68.8124549,11.4511111 68.8523934,12.5975556 L68.8523934,12.5975556 Z" id="Path" fill="#FFFFFF" sketch:type="MSShapeGroup"></path>
                <path d="M46.941532,12.8106667 C46.8478302,14.2573333 46.5252502,15.662 46.1965258,17.062 C45.9983696,17.9144444 45.7725636,18.7591111 45.5513659,19.6037778 C45.4054368,20.1591111 45.0505989,20.4733333 44.4837797,20.4857778 C43.8078979,20.506 43.1274077,20.4935556 42.4515258,20.4888889 C42.2533696,20.4888889 42.2057506,20.4173333 42.2502974,20.2228889 C42.2994524,20.0128889 42.3532158,19.8028889 42.4100513,19.5975556 C41.6865505,20.4764444 40.7234188,20.7315556 39.6650492,20.7735556 C39.0383224,20.8 38.419276,20.7611111 37.8201989,20.5588889 C36.8155927,20.2213333 36.2487736,19.5088889 36.1013084,18.4526667 C36.0229676,17.902 36.0536895,17.3497778 36.2119073,16.8115556 C36.4761157,15.9217778 37.0997703,15.3835556 37.9154368,15.0397778 C38.7864028,14.6726667 39.709596,14.5451111 40.6404696,14.4564444 C41.2963823,14.3942222 41.9507588,14.3537778 42.6020632,14.2868889 C42.7802502,14.2651111 42.9630455,14.1951111 43.1304799,14.1204444 C43.6035972,13.8995556 43.8294032,13.4095556 43.71266,12.9008889 C43.6312469,12.54 43.3885439,12.3331111 43.0552112,12.2413333 C42.5052892,12.0888889 41.9430783,12.1044444 41.3993007,12.2802222 C40.952297,12.4233333 40.6850164,12.7515556 40.5851702,13.2073333 C40.5467678,13.3831111 40.4622826,13.4344444 40.2979204,13.4313333 C39.4254184,13.4266667 38.5529163,13.4297778 37.6819504,13.4282222 C37.4238864,13.4282222 37.3900923,13.3768889 37.4530722,13.1264444 C37.8263433,11.5568889 38.7833306,10.552 40.3363228,10.1864444 C41.9185008,9.81311111 43.5052871,9.87222222 45.0767125,10.2953333 C45.2748687,10.3497778 45.4699528,10.4337778 45.6527482,10.5255556 C46.5728692,10.9828889 47.0106563,11.7746667 46.941532,12.8106667 Z M43.1934598,15.8937778 C42.8662715,15.9715556 42.5636608,16.0571111 42.2549057,16.1115556 C41.921573,16.1691111 41.582096,16.1846667 41.2472272,16.2266667 C40.7695016,16.2826667 40.2979204,16.3433333 39.887783,16.6248889 C39.4638208,16.9173333 39.3409331,17.3451111 39.4085213,17.8351111 C39.4653568,18.2504444 39.7295652,18.5024444 40.1105168,18.602 C40.8416981,18.7964444 41.5298687,18.6984444 42.1258737,18.2084444 C42.8463023,17.6064444 43.0536751,16.7524444 43.1934598,15.8937778 Z" id="Path" fill="#FFFFFF" sketch:type="MSShapeGroup"></path>
                <path d="M33.4745857,17.7604444 C32.9707465,17.0402222 32.4684434,16.3215556 31.9507793,15.5842222 C32.026048,15.5142222 32.0844196,15.4535556 32.1458634,15.396 C33.8893314,13.8015556 35.6343355,12.2024444 37.3762674,10.6002222 C37.4392473,10.5395556 37.4638249,10.4291111 37.5022272,10.342 C37.417742,10.3108889 37.3378651,10.2548889 37.2503076,10.2548889 C36.110525,10.2486667 34.9676702,10.2471111 33.8263515,10.2564444 C33.7188249,10.2564444 33.5851846,10.3186667 33.5068437,10.3948889 C32.5805783,11.3095556 31.6635295,12.2335556 30.7434085,13.1544444 C30.5759742,13.3208889 30.4023954,13.4857778 30.1980947,13.6848889 C30.2242084,13.5464444 30.2364971,13.464 30.2533942,13.3831111 C30.6527789,11.4666667 31.0552358,9.55022222 31.4515484,7.63222222 C31.6051579,6.89333333 31.2272785,6.42511111 30.4838084,6.41733333 C29.8540094,6.41111111 29.2242104,6.42044444 28.5944114,6.41111111 C28.4177605,6.40955556 28.3547806,6.48111111 28.3209865,6.646 C27.3885767,11.1586667 26.4515587,15.6728889 25.5145406,20.1871111 C25.4638495,20.436 25.505324,20.4888889 25.7572436,20.4888889 C26.4423421,20.4904444 27.1274405,20.492 27.812539,20.4888889 C28.4530906,20.4857778 28.8509393,20.1544444 28.9830435,19.5197778 C29.072137,19.0982222 29.1550861,18.6704444 29.2411075,18.2457778 C29.3225205,17.8475556 29.4039336,17.4431111 29.4930271,17.0153333 C29.5421821,17.0853333 29.5744401,17.1242222 29.605162,17.174 C30.2841161,18.2208889 30.9646062,19.2708889 31.638952,20.3177778 C31.7142207,20.436 31.7987059,20.492 31.9400267,20.4904444 C32.9507773,20.4857778 33.9599918,20.4904444 34.9707424,20.4842222 C35.0521555,20.4842222 35.1857957,20.4515556 35.2011567,20.4002222 C35.2241981,20.3286667 35.1873318,20.2135556 35.1381768,20.142 C34.5882547,19.3471111 34.0306522,18.5568889 33.4745857,17.7604444 L33.4745857,17.7604444 Z" id="Path" fill="#FFFFFF" sketch:type="MSShapeGroup"></path>
                <path d="M55.4760767,10.3482222 C53.672701,9.71511111 51.8631809,9.80066667 50.1120324,10.5535556 C48.9061977,11.0746667 48.2548934,12.0266667 48.2395324,13.3908889 C48.2210993,14.6057778 48.6957527,15.3991111 49.8063495,15.8517778 C50.2886833,16.0493333 50.8078835,16.1613333 51.3117227,16.3106667 C51.8401395,16.4662222 52.3823811,16.5875556 52.9015812,16.7757778 C53.3455127,16.9375556 53.5098749,17.3155556 53.3962039,17.7791111 C53.3240074,18.0871111 53.1089541,18.2831111 52.8386013,18.4137778 C52.4161751,18.616 51.9660993,18.6331111 51.5190956,18.56 C50.7387592,18.4324444 50.4300041,18.1042222 50.3132609,17.3186667 C50.2917555,17.1693333 50.2257034,17.1133333 50.0874549,17.1164444 C49.6558121,17.1195556 49.2272416,17.1164444 48.798671,17.1164444 L47.5344647,17.1164444 C47.2825451,17.1164444 47.2456788,17.1584444 47.2656481,17.4166667 C47.2764007,17.5131111 47.2886895,17.6111111 47.2979061,17.7091111 C47.489918,19.1262222 48.2195632,20.0937778 49.5928322,20.5231111 C50.4422929,20.7875556 51.3086505,20.8124444 52.1826887,20.772 C53.0306132,20.7393333 53.8647129,20.6242222 54.657338,20.31 C55.6327584,19.9211111 56.3378261,19.2631111 56.6097149,18.21 C56.6895919,17.9004444 56.7433552,17.5768889 56.7525718,17.2595556 C56.7894381,15.7895556 56.3624036,14.9806667 55.0106399,14.5124444 C54.4100267,14.3024444 53.786372,14.1748889 53.1765422,13.996 C52.7664048,13.8762222 52.348587,13.7673333 51.961491,13.5868889 C51.4822293,13.3644444 51.4300021,12.8075556 51.817098,12.4404444 C51.9123359,12.3517778 52.0275431,12.2817778 52.1442863,12.2273333 C52.5221657,12.0531111 52.9215505,12.0188889 53.3255435,12.0733333 C53.9200123,12.1542222 54.2441284,12.4808889 54.2717781,13.03 C54.2825308,13.2337778 54.3608716,13.2944444 54.5528835,13.2928889 C55.3746944,13.2866667 56.1995775,13.2913333 57.0198523,13.2897778 C57.2840607,13.2897778 57.3086382,13.2648889 57.3086382,13.0035556 C57.3040299,11.7388889 56.6773031,10.7697778 55.4760767,10.3482222 L55.4760767,10.3482222 Z" id="Path" fill="#FFFFFF" sketch:type="MSShapeGroup"></path>
            </g>
        </g>
    </g>
</svg>