<?xml version="1.0" encoding="UTF-8" standalone="no"?>
<svg width="34px" height="42px" viewBox="0 0 34 42" version="1.1" xmlns="http://www.w3.org/2000/svg" xmlns:xlink="http://www.w3.org/1999/xlink" xmlns:sketch="http://www.bohemiancoding.com/sketch/ns">
    <!-- Generator: Sketch 3.3.3 (12081) - http://www.bohemiancoding.com/sketch -->
    <title>Payment/Switch/Switch-alt</title>
    <desc>Created with Sketch.</desc>
    <defs></defs>
    <g id="Icons:-Payment" stroke="none" stroke-width="1" fill="none" fill-rule="evenodd" sketch:type="MSPage">
        <g id="Switch-alt" sketch:type="MSArtboardGroup" transform="translate(-33.000000, -9.000000)">
            <g id="Payment/Switch/Switch-alt" sketch:type="MSLayerGroup" transform="translate(33.000000, 9.000000)">
                <path d="M0.475958102,17.0394972 C0.475958102,8.16079204 7.80681915,0.961866298 16.8512207,0.961866298 C25.8947019,0.961866298 33.2264832,8.16079204 33.2264832,17.0394972 C33.2264832,25.9200096 25.8947019,33.1171282 16.8512207,33.1171282 C7.80681915,33.1171282 0.475958102,25.9200096 0.475958102,17.0394972 L0.475958102,17.0394972 Z M16.8512207,31.9930584 C25.261557,31.9930584 32.0789081,25.297434 32.0789081,17.0394972 C32.0789081,8.78156045 25.261557,2.08774322 16.8512207,2.08774322 C8.43996407,2.08774322 1.62261299,8.78156045 1.62261299,17.0394972 C1.62261299,25.297434 8.43996407,31.9930584 16.8512207,31.9930584 L16.8512207,31.9930584 Z" id="Fill-3" fill="#FFFFFF" sketch:type="MSShapeGroup"></path>
                <path d="M21.3660593,13.6599458 C23.9667388,17.5276947 22.837569,22.7058042 18.8472836,25.2230522 C14.8569982,27.7420842 9.51575827,26.6502658 6.91691925,22.7825169 L9.39336252,21.1688735 C11.0820557,23.6798775 14.5505487,24.3908082 17.1420256,22.7548646 C19.7325822,21.118921 20.4660364,17.7560489 18.7782635,15.245937 L21.3660593,13.6599458" id="Fill-1" fill="#FFFFFF" sketch:type="MSShapeGroup"></path>
                <path d="M27.1333837,10.111536 C24.529023,6.24557108 19.1850223,5.15999672 15.1993382,7.68259679 C11.2118136,10.2069809 10.0909263,15.3868743 12.6952869,19.2510552 L15.2159031,17.7025284 C13.5262896,15.1933085 14.2542222,11.8313284 16.8429382,10.1918167 C19.4316543,8.55230509 22.9001473,9.25966784 24.5934419,11.7679958 L27.1333837,10.111536" id="Fill-2" fill="#000000" sketch:type="MSShapeGroup"></path>
                <path d="M26.068774,36.472067 L26.8808222,36.472067 L26.5420251,38.4309167 L28.7470354,38.4309167 L29.0858326,36.472067 L29.8977143,36.472067 L29.0830037,41.1843336 L28.2711219,41.1843336 L28.614412,39.1984822 L26.4094016,39.1984822 L26.0661116,41.1843336 L25.2542298,41.1843336 L26.068774,36.472067" id="h-2" fill="#FFFFFF" sketch:type="MSShapeGroup"></path>
                <path d="M20.5594151,38.922423 L20.5617447,38.9090165 C20.7933781,37.5693174 21.9666879,36.472067 23.3663062,36.472067 C24.2179584,36.472067 24.6803932,36.7749391 25.0483109,37.2058332 L24.420804,37.818375 C24.1116267,37.4682971 23.7563556,37.2328349 23.2281915,37.2328349 C22.3500812,37.2328349 21.5751409,37.9732098 21.4157265,38.8956101 L21.4133969,38.9090165 C21.2539825,39.831228 21.7651735,40.5785894 22.6497735,40.5785894 C23.2175416,40.5785894 23.6202377,40.3495471 24.0815077,39.9726564 L24.5098298,40.5111796 C23.9395656,41.0227011 23.35549,41.345966 22.490692,41.345966 C21.1439899,41.345966 20.325452,40.2755285 20.5594151,38.922423" id="c-3" fill="#FFFFFF" sketch:type="MSShapeGroup"></path>
                <path d="M18.4344083,37.2394437 L16.9687279,37.2394437 L17.1015178,36.472067 L20.8512501,36.472067 L20.7186266,37.2394437 L19.2529462,37.2394437 L18.5710255,41.1843336 L17.7524875,41.1843336 L18.4344083,37.2394437" id="t-3" fill="#FFFFFF" sketch:type="MSShapeGroup"></path>
                <path d="M15.4159859,36.472067 L16.2280341,36.472067 L15.4134899,41.1843336 L14.6014417,41.1843336 L15.4159859,36.472067" id="i-2" fill="#FFFFFF" sketch:type="MSShapeGroup"></path>
                <path d="M7.49958291,36.4854735 L8.37769321,36.4854735 L8.87623754,39.9792652 L10.617981,36.472067 L11.3043947,36.472067 L11.8337237,39.9792652 L13.5401897,36.4854735 L14.3918418,36.4854735 L11.9671791,41.2313505 L11.2607971,41.2313505 L10.7106677,37.8451878 L8.9897246,41.2313505 L8.28999866,41.2313505 L7.49958291,36.4854735" id="w-2" fill="#FFFFFF" sketch:type="MSShapeGroup"></path>
                <path d="M2.7650104,40.565183 L3.35590858,39.9726564 C3.73064885,40.3631424 4.14116583,40.585387 4.70893394,40.585387 C5.21063994,40.585387 5.56940548,40.3429383 5.62980989,39.9928605 L5.63230594,39.9794541 C5.6903807,39.6427827 5.53712324,39.4609461 4.71375964,39.2590944 C3.77191687,39.0166456 3.26871324,38.7205712 3.41880903,37.8521743 L3.42113868,37.8387678 C3.56075106,37.0307943 4.31755334,36.472067 5.23510122,36.472067 C5.90853544,36.472067 6.40707978,36.6807164 6.8096094,37.0645936 L6.26563696,37.6905418 C5.90437536,37.3742633 5.51765405,37.2058332 5.09515603,37.2058332 C4.61974176,37.2058332 4.29941538,37.4548907 4.24599991,37.7647492 L4.24367027,37.7779668 C4.18076981,38.1416399 4.36414627,38.3032724 5.21796168,38.5185306 C6.15314832,38.7609793 6.59328509,39.1176659 6.458332,39.8986378 L6.45583595,39.9120443 C6.30341051,40.7940364 5.53279676,41.3189643 4.56233262,41.3189643 C3.85595054,41.3189643 3.23227092,41.0699068 2.7650104,40.565183" id="s-3" fill="#FFFFFF" sketch:type="MSShapeGroup"></path>
            </g>
        </g>
    </g>
</svg>