<?xml version="1.0" encoding="UTF-8" standalone="no"?>
<svg width="60px" height="26px" viewBox="0 0 60 26" version="1.1" xmlns="http://www.w3.org/2000/svg" xmlns:xlink="http://www.w3.org/1999/xlink" xmlns:sketch="http://www.bohemiancoding.com/sketch/ns">
    <!-- Generator: Sketch 3.3.3 (12081) - http://www.bohemiancoding.com/sketch -->
    <title>Payment/GiroPay/GiroPay-alt</title>
    <desc>Created with Sketch.</desc>
    <defs></defs>
    <g id="Icons:-Payment" stroke="none" stroke-width="1" fill="none" fill-rule="evenodd" sketch:type="MSPage">
        <g id="GiroPay-alt" sketch:type="MSArtboardGroup" transform="translate(-20.000000, -17.000000)">
            <g id="Payment/GiroPay/GiroPay-alt" sketch:type="MSLayerGroup" transform="translate(20.000000, 17.000000)">
                <path d="M4.68534034,0.036668644 L55.3146835,0.036668644 C57.8808923,0.036668644 59.9602826,2.11955995 59.9602826,4.68852426 L59.9602826,21.3125854 C59.9602826,23.8800548 57.8808923,25.9633314 55.3146835,25.9633314 L4.68534034,25.9633314 C2.1202338,25.9633314 0.0397173619,23.8800548 0.0397173619,21.3125854 L0.0397173619,4.68852426 C0.0397173619,2.11955995 2.1202338,0.036668644 4.68534034,0.036668644 Z" id="_92653320" fill="#FFFFFF" sketch:type="MSShapeGroup"></path>
                <path d="M1.94639202,4.84769483 L1.94639202,21.1549342 C1.94639202,22.7599762 3.24683763,24.0617499 4.85096104,24.0617499 L31.3761494,24.0617499 L31.3761494,1.9408789 L4.85096104,1.9408789 C3.24683763,1.9408789 1.94639202,3.24262873 1.94639202,4.84769483 L1.94639202,4.84769483 L1.94639202,4.84769483 Z" id="_92186184" fill="#000268" sketch:type="MSShapeGroup"></path>
                <path d="M33.2685629,18.8745988 L35.5057356,18.8745988 L35.5057356,15.3338024 L35.5307347,15.3338024 C35.9545174,16.109686 36.8005965,16.3972058 37.5836398,16.3972058 C39.5104475,16.3972058 40.5423047,14.7962878 40.5423047,12.8695524 C40.5423047,11.2937883 39.5604457,9.57875005 37.7694172,9.57875005 C36.7506227,9.57875005 35.8056747,9.99203842 35.356893,10.9056532 L35.3318939,10.9056532 L35.3318939,9.73003397 L33.2685629,9.73003397 L33.2685629,18.8745988 Z M38.2297755,12.9198603 C38.2297755,13.9581104 37.7194197,14.671677 36.8744669,14.671677 C36.1279992,14.671677 35.5057356,13.9581104 35.5057356,13.0073074 C35.5057356,12.031375 36.0530026,11.3057987 36.8744669,11.3057987 C37.7455451,11.3057987 38.2297755,12.0565289 38.2297755,12.9198603 Z" id="_92186184-path" fill="#000268" sketch:type="MSShapeGroup"></path>
                <path d="M48.1107609,16.247441 C48.0118914,15.7350804 47.986893,15.2212013 47.986893,14.7088407 L47.986893,12.2817311 C47.986893,10.2927019 46.5577377,9.57875005 44.9036405,9.57875005 C43.9467561,9.57875005 43.113739,9.71650445 42.3176337,10.0423219 L42.3556955,11.5692978 C42.9753223,11.2183271 43.6979171,11.080572 44.4190265,11.080572 C45.2259413,11.080572 45.8851404,11.3189423 45.8985629,12.2074276 C45.6128134,12.1571197 45.2140055,12.1188221 44.853643,12.1188221 C43.661006,12.1188221 41.5096157,12.3571924 41.5096157,14.3458596 C41.5096157,15.7602344 42.6530215,16.3972058 43.9336935,16.3972058 C44.853643,16.3972058 45.4758829,16.0357439 45.9854716,15.2212013 L46.0104707,15.2212013 C46.0104707,15.5601617 46.047022,15.8964696 46.0604682,16.247441 L48.1107609,16.247441 Z M43.5979458,14.1829505 C43.5979458,13.557965 44.194084,13.3211145 44.9536143,13.3211145 C45.2890021,13.3211145 45.6128134,13.3447731 45.8985629,13.3582788 C45.8985629,14.1210188 45.3639751,14.8968792 44.5178953,14.8968792 C43.9956274,14.8968792 43.5979458,14.6345127 43.5979458,14.1829505 Z" id="_92186184-path" fill="#000268" sketch:type="MSShapeGroup"></path>
                <path d="M49.1175954,18.8745988 C49.5779293,18.975214 50.0375449,19.0258834 50.5098152,19.0258834 C52.5616177,19.0258834 53.0458245,17.4365898 53.6800245,15.7973742 L56.0556139,9.73003397 L53.8169313,9.73003397 L52.4866211,13.9832644 L52.461622,13.9832644 L51.0690186,9.73003397 L48.6580042,9.73003397 L51.2809221,16.3972058 C51.1190161,16.9730173 50.6967196,17.2988348 50.1490928,17.2988348 C49.8372179,17.2988348 49.564891,17.2605372 49.2660788,17.1610797 L49.1175954,18.8745988 L49.1175954,18.8745988 Z" id="_92186184-path" fill="#000268" sketch:type="MSShapeGroup"></path>
                <path d="M10.2467902,9.73003397 L10.2467902,10.9056532 L10.2232772,10.9056532 C9.74949707,10.1046395 8.978031,9.57875005 8.02152954,9.57875005 C6.00778884,9.57875005 5.09979944,11.031398 5.09979944,12.9701438 C5.09979944,14.8968792 6.20662965,16.247441 7.98310857,16.247441 C8.8795451,16.247441 9.62565287,15.8964696 10.1598578,15.1337535 L10.1848563,15.1337535 L10.1848563,15.4847004 C10.1848563,16.7601869 9.48874667,17.3731628 8.1964982,17.3731628 C7.26348602,17.3731628 6.69086009,17.17309 6.00778884,16.8356488 L5.89588106,18.612595 C6.41704701,18.8006574 7.30006099,19.0258834 8.37033991,19.0258834 C10.9813214,19.0258834 12.2735699,18.1621661 12.2735699,15.4847004 L12.2735699,9.73003397 L10.2467902,9.73003397 Z M7.41196877,12.9330039 C7.41196877,12.0445186 7.84768782,11.3057987 8.68070496,11.3057987 C9.68758681,11.3057987 10.109884,12.1188221 10.109884,12.8443991 C10.109884,13.8455093 9.47568399,14.5207783 8.68070496,14.5207783 C8.0095938,14.5207783 7.41196877,13.9461 7.41196877,12.9330039 Z" id="_47303032-copy" fill="#FFFFFF" sketch:type="MSShapeGroup"></path>
                <path d="M16.0559286,7.0154046 L13.817629,7.0154046 L13.817629,8.66663057 L16.0559286,8.66663057 L16.0559286,7.0154046 L16.0559286,7.0154046 Z" id="_47303032-path" fill="#FFFFFF" sketch:type="MSShapeGroup"></path>
                <path d="M13.8187552,16.247441 L16.0559286,16.247441 L16.0559286,9.73003397 L13.8187552,9.73003397 L13.8187552,16.247441 L13.8187552,16.247441 Z" id="_47303032-path" fill="#FFFFFF" sketch:type="MSShapeGroup"></path>
                <path d="M22.2873873,9.6542113 C22.0635474,9.61740905 21.7897343,9.57875005 21.5293431,9.57875005 C20.5594197,9.57875005 20.0002163,10.1046395 19.6144711,10.9308072 L19.589472,10.9308072 L19.589472,9.73003397 L17.5507566,9.73003397 L17.5507566,16.247441 L19.7883129,16.247441 L19.7883129,13.4960332 C19.7883129,12.2194373 20.3736416,11.4566967 21.4174353,11.4566967 C21.6793126,11.4566967 21.9266405,11.4566967 22.1754795,11.5306388 L22.2873873,9.6542113 L22.2873873,9.6542113 Z" id="_47303032-path" fill="#FFFFFF" sketch:type="MSShapeGroup"></path>
                <path d="M26.1406678,16.3972058 C28.2793546,16.3972058 29.908477,15.1472592 29.908477,12.9952971 C29.908477,10.8302165 28.2793546,9.57875005 26.1406678,9.57875005 C24.0023395,9.57875005 22.374344,10.8302165 22.374344,12.9952971 C22.374344,15.1472592 24.0023395,16.3972058 26.1406678,16.3972058 Z M26.1406678,14.8214418 C25.1088098,14.8214418 24.6865133,13.9581104 24.6865133,12.9952971 C24.6865133,12.0193646 25.1088098,11.1560332 26.1406678,11.1560332 C27.1736513,11.1560332 27.5963077,12.0193646 27.5963077,12.9952971 C27.5963077,13.9581104 27.1736513,14.8214418 26.1406678,14.8214418 Z" id="_47303032-path" fill="#FFFFFF" sketch:type="MSShapeGroup"></path>
            </g>
        </g>
    </g>
</svg>