<?xml version="1.0" encoding="UTF-8" standalone="no"?>
<svg width="100px" height="60px" viewBox="0 0 100 60" version="1.1" xmlns="http://www.w3.org/2000/svg" xmlns:xlink="http://www.w3.org/1999/xlink" xmlns:sketch="http://www.bohemiancoding.com/sketch/ns">
    <!-- Generator: Sketch 3.3.3 (12081) - http://www.bohemiancoding.com/sketch -->
    <title>Payment/GiroPay/GiroPay-card-dark</title>
    <desc>Created with Sketch.</desc>
    <defs></defs>
    <g id="Icons:-Payment" stroke="none" stroke-width="1" fill="none" fill-rule="evenodd" sketch:type="MSPage">
        <g id="GiroPay-card-dark" sketch:type="MSArtboardGroup">
            <g id="Payment/GiroPay/GiroPay-card-dark" sketch:type="MSLayerGroup">
                <rect id="Rectangle" fill="#000268" sketch:type="MSShapeGroup" x="0" y="0" width="100" height="60" rx="4"></rect>
                <path d="M24.6853403,17.0366686 L75.3146835,17.0366686 C77.8808923,17.0366686 79.9602826,19.11956 79.9602826,21.6885243 L79.9602826,38.3125854 C79.9602826,40.8800548 77.8808923,42.9633314 75.3146835,42.9633314 L24.6853403,42.9633314 C22.1202338,42.9633314 20.0397174,40.8800548 20.0397174,38.3125854 L20.0397174,21.6885243 C20.0397174,19.11956 22.1202338,17.0366686 24.6853403,17.0366686 Z" id="_92653320" fill="#FFFFFF" sketch:type="MSShapeGroup"></path>
                <path d="M21.946392,21.8476948 L21.946392,38.1549342 C21.946392,39.7599762 23.2468376,41.0617499 24.850961,41.0617499 L51.3761494,41.0617499 L51.3761494,18.9408789 L24.850961,18.9408789 C23.2468376,18.9408789 21.946392,20.2426287 21.946392,21.8476948 L21.946392,21.8476948 L21.946392,21.8476948 Z" id="_92186184" fill="#000268" sketch:type="MSShapeGroup"></path>
                <path d="M53.2685629,35.8745988 L55.5057356,35.8745988 L55.5057356,32.3338024 L55.5307347,32.3338024 C55.9545174,33.109686 56.8005965,33.3972058 57.5836398,33.3972058 C59.5104475,33.3972058 60.5423047,31.7962878 60.5423047,29.8695524 C60.5423047,28.2937883 59.5604457,26.57875 57.7694172,26.57875 C56.7506227,26.57875 55.8056747,26.9920384 55.356893,27.9056532 L55.3318939,27.9056532 L55.3318939,26.730034 L53.2685629,26.730034 L53.2685629,35.8745988 Z M58.2297755,29.9198603 C58.2297755,30.9581104 57.7194197,31.671677 56.8744669,31.671677 C56.1279992,31.671677 55.5057356,30.9581104 55.5057356,30.0073074 C55.5057356,29.031375 56.0530026,28.3057987 56.8744669,28.3057987 C57.7455451,28.3057987 58.2297755,29.0565289 58.2297755,29.9198603 Z" id="_92186184-path" fill="#000268" sketch:type="MSShapeGroup"></path>
                <path d="M68.1107609,33.247441 C68.0118914,32.7350804 67.986893,32.2212013 67.986893,31.7088407 L67.986893,29.2817311 C67.986893,27.2927019 66.5577377,26.57875 64.9036405,26.57875 C63.9467561,26.57875 63.113739,26.7165044 62.3176337,27.0423219 L62.3556955,28.5692978 C62.9753223,28.2183271 63.6979171,28.080572 64.4190265,28.080572 C65.2259413,28.080572 65.8851404,28.3189423 65.8985629,29.2074276 C65.6128134,29.1571197 65.2140055,29.1188221 64.853643,29.1188221 C63.661006,29.1188221 61.5096157,29.3571924 61.5096157,31.3458596 C61.5096157,32.7602344 62.6530215,33.3972058 63.9336935,33.3972058 C64.853643,33.3972058 65.4758829,33.0357439 65.9854716,32.2212013 L66.0104707,32.2212013 C66.0104707,32.5601617 66.047022,32.8964696 66.0604682,33.247441 L68.1107609,33.247441 Z M63.5979458,31.1829505 C63.5979458,30.557965 64.194084,30.3211145 64.9536143,30.3211145 C65.2890021,30.3211145 65.6128134,30.3447731 65.8985629,30.3582788 C65.8985629,31.1210188 65.3639751,31.8968792 64.5178953,31.8968792 C63.9956274,31.8968792 63.5979458,31.6345127 63.5979458,31.1829505 Z" id="_92186184-path" fill="#000268" sketch:type="MSShapeGroup"></path>
                <path d="M69.1175954,35.8745988 C69.5779293,35.975214 70.0375449,36.0258834 70.5098152,36.0258834 C72.5616177,36.0258834 73.0458245,34.4365898 73.6800245,32.7973742 L76.0556139,26.730034 L73.8169313,26.730034 L72.4866211,30.9832644 L72.461622,30.9832644 L71.0690186,26.730034 L68.6580042,26.730034 L71.2809221,33.3972058 C71.1190161,33.9730173 70.6967196,34.2988348 70.1490928,34.2988348 C69.8372179,34.2988348 69.564891,34.2605372 69.2660788,34.1610797 L69.1175954,35.8745988 L69.1175954,35.8745988 Z" id="_92186184-path" fill="#000268" sketch:type="MSShapeGroup"></path>
                <path d="M30.2467902,26.730034 L30.2467902,27.9056532 L30.2232772,27.9056532 C29.7494971,27.1046395 28.978031,26.57875 28.0215295,26.57875 C26.0077888,26.57875 25.0997994,28.031398 25.0997994,29.9701438 C25.0997994,31.8968792 26.2066297,33.247441 27.9831086,33.247441 C28.8795451,33.247441 29.6256529,32.8964696 30.1598578,32.1337535 L30.1848563,32.1337535 L30.1848563,32.4847004 C30.1848563,33.7601869 29.4887467,34.3731628 28.1964982,34.3731628 C27.263486,34.3731628 26.6908601,34.17309 26.0077888,33.8356488 L25.8958811,35.612595 C26.417047,35.8006574 27.300061,36.0258834 28.3703399,36.0258834 C30.9813214,36.0258834 32.2735699,35.1621661 32.2735699,32.4847004 L32.2735699,26.730034 L30.2467902,26.730034 Z M27.4119688,29.9330039 C27.4119688,29.0445186 27.8476878,28.3057987 28.680705,28.3057987 C29.6875868,28.3057987 30.109884,29.1188221 30.109884,29.8443991 C30.109884,30.8455093 29.475684,31.5207783 28.680705,31.5207783 C28.0095938,31.5207783 27.4119688,30.9461 27.4119688,29.9330039 Z" id="_47303032-copy" fill="#FFFFFF" sketch:type="MSShapeGroup"></path>
                <path d="M36.0559286,24.0154046 L33.817629,24.0154046 L33.817629,25.6666306 L36.0559286,25.6666306 L36.0559286,24.0154046 L36.0559286,24.0154046 Z" id="_47303032-path" fill="#FFFFFF" sketch:type="MSShapeGroup"></path>
                <path d="M33.8187552,33.247441 L36.0559286,33.247441 L36.0559286,26.730034 L33.8187552,26.730034 L33.8187552,33.247441 L33.8187552,33.247441 Z" id="_47303032-path" fill="#FFFFFF" sketch:type="MSShapeGroup"></path>
                <path d="M42.2873873,26.6542113 C42.0635474,26.6174091 41.7897343,26.57875 41.5293431,26.57875 C40.5594197,26.57875 40.0002163,27.1046395 39.6144711,27.9308072 L39.589472,27.9308072 L39.589472,26.730034 L37.5507566,26.730034 L37.5507566,33.247441 L39.7883129,33.247441 L39.7883129,30.4960332 C39.7883129,29.2194373 40.3736416,28.4566967 41.4174353,28.4566967 C41.6793126,28.4566967 41.9266405,28.4566967 42.1754795,28.5306388 L42.2873873,26.6542113 L42.2873873,26.6542113 Z" id="_47303032-path" fill="#FFFFFF" sketch:type="MSShapeGroup"></path>
                <path d="M46.1406678,33.3972058 C48.2793546,33.3972058 49.908477,32.1472592 49.908477,29.9952971 C49.908477,27.8302165 48.2793546,26.57875 46.1406678,26.57875 C44.0023395,26.57875 42.374344,27.8302165 42.374344,29.9952971 C42.374344,32.1472592 44.0023395,33.3972058 46.1406678,33.3972058 Z M46.1406678,31.8214418 C45.1088098,31.8214418 44.6865133,30.9581104 44.6865133,29.9952971 C44.6865133,29.0193646 45.1088098,28.1560332 46.1406678,28.1560332 C47.1736513,28.1560332 47.5963077,29.0193646 47.5963077,29.9952971 C47.5963077,30.9581104 47.1736513,31.8214418 46.1406678,31.8214418 Z" id="_47303032-path" fill="#FFFFFF" sketch:type="MSShapeGroup"></path>
            </g>
        </g>
    </g>
</svg>