<?xml version="1.0" encoding="UTF-8" standalone="no"?>
<svg width="64px" height="46px" viewBox="0 0 64 46" version="1.1" xmlns="http://www.w3.org/2000/svg" xmlns:xlink="http://www.w3.org/1999/xlink" xmlns:sketch="http://www.bohemiancoding.com/sketch/ns">
    <!-- Generator: Sketch 3.3.3 (12081) - http://www.bohemiancoding.com/sketch -->
    <title>Credit Card/DinersClub/DinersClub-flat</title>
    <desc>Created with Sketch.</desc>
    <defs></defs>
    <g id="Icons:-Credit-card" stroke="none" stroke-width="1" fill="none" fill-rule="evenodd" sketch:type="MSPage">
        <g id="DinersClub-flat" sketch:type="MSArtboardGroup" transform="translate(-18.000000, -7.000000)">
            <g id="Credit-Card/DinersClub/DinersClub-flat" sketch:type="MSLayerGroup" transform="translate(18.000000, 7.000000)">
                <path d="M1.54786478,28.9830417 C1.54786478,27.7762339 0.917372623,27.8555637 0.314245101,27.8428488 L0.314245101,27.4940188 C0.837213603,27.5194486 1.3734498,27.5194486 1.89780036,27.5194486 C2.46112478,27.5194486 3.22595239,27.4940188 4.21964783,27.4940188 C7.69467954,27.4940188 9.58753805,29.8144843 9.58753805,32.1907846 C9.58753805,33.5205951 8.80916633,36.8612913 4.05822415,36.8612913 C3.37438479,36.8612913 2.74278699,36.8347559 2.11229484,36.8347559 C1.50889091,36.8347559 0.917372623,36.8471944 0.314245101,36.8612913 L0.314245101,36.512185 C1.1185994,36.4309203 1.50889091,36.4046613 1.54786478,35.4922306 L1.54786478,28.9830417 L1.54786478,28.9830417 Z M2.86302552,35.2769068 C2.86302552,36.3106818 3.60187056,36.4309203 4.25917452,36.4309203 C7.15871975,36.4309203 8.1101244,34.2439611 8.1101244,32.2446846 C8.1101244,29.7351545 6.50003374,27.923837 3.91034458,27.923837 C3.3589058,27.923837 3.10516104,27.9630873 2.86302552,27.9774607 L2.86302552,35.2769068 L2.86302552,35.2769068 Z" id="Fill-5" fill="#9B9B9B" sketch:type="MSShapeGroup"></path>
                <path d="M10.0577122,36.512185 L10.3120097,36.512185 C10.6876515,36.512185 10.9563224,36.512185 10.9563224,36.0682699 L10.9563224,32.4318145 C10.9563224,31.842231 10.7553721,31.76069 10.2581097,31.4931247 L10.2581097,31.2789066 C10.8888783,31.0892891 11.640991,30.8360971 11.6940618,30.7957412 C11.7885942,30.7418412 11.867924,30.7274679 11.9361973,30.7274679 C12.001983,30.7274679 12.0296241,30.8081797 12.0296241,30.9165326 L12.0296241,36.0682699 C12.0296241,36.512185 12.3253832,36.512185 12.7015778,36.512185 L12.9287871,36.512185 L12.9287871,36.8612913 C12.4724335,36.8612913 12.001983,36.8347559 11.5204761,36.8347559 C11.0373107,36.8347559 10.5538689,36.8471944 10.0577122,36.8612913 L10.0577122,36.512185 L10.0577122,36.512185 Z M11.4933879,28.6615764 C11.1437287,28.6615764 10.8358075,28.3395583 10.8358075,27.9907284 C10.8358075,27.6546133 11.1583784,27.34531 11.4933879,27.34531 C11.841665,27.34531 12.1512446,27.6280779 12.1512446,27.9907284 C12.1512446,28.3536552 11.8552091,28.6615764 11.4933879,28.6615764 L11.4933879,28.6615764 Z" id="Fill-6" fill="#9B9B9B" sketch:type="MSShapeGroup"></path>
                <path d="M14.2041448,32.5125263 C14.2041448,32.0169224 14.0559888,31.8828634 13.4263259,31.6274602 L13.4263259,31.3726098 C14.0023652,31.1849271 14.5521455,31.0096829 15.197011,30.7274679 C15.2376433,30.7274679 15.2766172,30.7542797 15.2766172,30.8615269 L15.2766172,31.7341546 C16.0428268,31.1849271 16.7004072,30.7274679 17.6009523,30.7274679 C18.7400397,30.7274679 19.1424932,31.5597396 19.1424932,32.6065058 L19.1424932,36.0682699 C19.1424932,36.512185 19.4385288,36.512185 19.8138941,36.512185 L20.0560296,36.512185 L20.0560296,36.8612913 C19.5847499,36.8612913 19.1156814,36.8347559 18.6330688,36.8347559 C18.149627,36.8347559 17.6661852,36.8471944 17.1830198,36.8612913 L17.1830198,36.512185 L17.4251553,36.512185 C17.8010735,36.512185 18.0683624,36.512185 18.0683624,36.0682699 L18.0683624,32.5940674 C18.0683624,31.8281341 17.6009523,31.4527688 16.8350191,31.4527688 C16.4052009,31.4527688 15.7208087,31.8010459 15.2766172,32.0976343 L15.2766172,36.0682699 C15.2766172,36.512185 15.5732056,36.512185 15.9491237,36.512185 L16.1901536,36.512185 L16.1901536,36.8612913 C15.7208087,36.8612913 15.250911,36.8347559 14.7669164,36.8347559 C14.2848566,36.8347559 13.8011384,36.8471944 13.3185258,36.8612913 L13.3185258,36.512185 L13.5606613,36.512185 C13.9360267,36.512185 14.2041448,36.512185 14.2041448,36.0682699 L14.2041448,32.5125263" id="Fill-7" fill="#9B9B9B" sketch:type="MSShapeGroup"></path>
                <path d="M21.0759841,33.1576682 C21.0486194,33.2784596 21.0486194,33.4794099 21.0759841,33.9360399 C21.1550374,35.2105683 21.9754235,36.2567818 23.0478959,36.2567818 C23.7870174,36.2567818 24.3644387,35.8540518 24.8600426,35.3584479 L25.0474489,35.546407 C24.429948,36.3648582 23.6653968,37.0630709 22.5658362,37.0630709 C20.431395,37.0630709 20.0021296,34.9952446 20.0021296,34.1369903 C20.0021296,31.5063924 21.7730911,30.7274679 22.7115045,30.7274679 C23.7997323,30.7274679 24.9681191,31.41186 24.9805576,32.8348208 C24.9805576,32.9163619 24.9805576,32.9959681 24.9681191,33.07668 L24.8467749,33.1576682 L21.0759841,33.1576682 L21.0759841,33.1576682 Z M23.4522844,32.72785 C23.7870174,32.72785 23.8262677,32.5531586 23.8262677,32.3914585 C23.8262677,31.708172 23.4105464,31.1578389 22.6587101,31.1578389 C21.8408117,31.1578389 21.2769344,31.76069 21.1160636,32.72785 L23.4522844,32.72785 L23.4522844,32.72785 Z" id="Fill-8" fill="#9B9B9B" sketch:type="MSShapeGroup"></path>
                <path d="M25.2898608,36.512185 L25.6525113,36.512185 C26.026771,36.512185 26.2954419,36.512185 26.2954419,36.0682699 L26.2954419,32.2980318 C26.2954419,31.8828634 25.7992852,31.8010459 25.597782,31.6937987 L25.597782,31.4931247 C26.5773805,31.0768506 27.1144459,30.7274679 27.2371722,30.7274679 C27.3156727,30.7274679 27.3560286,30.7678238 27.3560286,30.9027121 L27.3560286,32.1106256 L27.3842225,32.1106256 C27.7186791,31.5873806 28.2833856,30.7274679 29.1015604,30.7274679 C29.4368462,30.7274679 29.8658352,30.9555064 29.8658352,31.4389483 C29.8658352,31.8010459 29.6120904,32.1247225 29.2364487,32.1247225 C28.819069,32.1247225 28.819069,31.8010459 28.3488949,31.8010459 C28.1211327,31.8010459 27.3695728,32.1106256 27.3695728,32.9163619 L27.3695728,36.0682699 C27.3695728,36.512185 27.6376909,36.512185 28.013609,36.512185 L28.7643397,36.512185 L28.7643397,36.8612913 C28.0263239,36.8471944 27.4646579,36.8347559 26.8869602,36.8347559 C26.336627,36.8347559 25.7727498,36.8471944 25.2898608,36.8612913 L25.2898608,36.512185" id="Fill-9" fill="#9B9B9B" sketch:type="MSShapeGroup"></path>
                <path d="M30.4559714,34.9952446 C30.6309392,35.8808636 31.1666226,36.6335292 32.148156,36.6335292 C32.9386898,36.6335292 33.2336197,36.1498109 33.2336197,35.680466 C33.2336197,34.0960816 30.3089211,34.6066116 30.3089211,32.4461878 C30.3089211,31.6937987 30.9131543,30.7277443 32.3894623,30.7277443 C32.8181748,30.7277443 33.3950434,30.8493648 33.9180119,31.1180358 L34.0122678,32.4857145 L33.7037938,32.4857145 C33.5697347,31.6407279 33.1006663,31.1578389 32.2407535,31.1578389 C31.7039644,31.1578389 31.1945401,31.4660365 31.1945401,32.0431814 C31.1945401,33.6142982 34.3071977,33.1303036 34.3071977,35.2373802 C34.3071977,36.1224463 33.596823,37.0630709 31.9991708,37.0630709 C31.4629346,37.0630709 30.8310604,36.8748354 30.3628211,36.6064409 L30.2143887,35.0629652 L30.4559714,34.9952446" id="Fill-10" fill="#9B9B9B" sketch:type="MSShapeGroup"></path>
                <path d="M46.4253066,29.9222843 L46.0905736,29.9222843 C45.8351704,28.3536552 44.7212364,27.7220574 43.2192223,27.7220574 C41.6740881,27.7220574 39.4337817,28.7547267 39.4337817,31.9754609 C39.4337817,34.6873234 41.3669961,36.6335292 43.4331639,36.6335292 C44.7604867,36.6335292 45.8633643,35.7205456 46.131206,34.310576 L46.4399564,34.3907351 L46.131206,36.3507613 C45.5676051,36.7001441 44.0506648,37.0630709 43.1639402,37.0630709 C40.0250235,37.0630709 38.0390147,35.0361534 38.0390147,32.0169224 C38.0390147,29.2649804 40.4949212,27.2916864 43.1252427,27.2916864 C44.2118121,27.2916864 45.2583019,27.641622 46.2918004,28.0042725 L46.4253066,29.9222843" id="Fill-11" fill="#9B9B9B" sketch:type="MSShapeGroup"></path>
                <path d="M46.9098541,36.512185 L47.1638753,36.512185 C47.5408991,36.512185 47.8087408,36.512185 47.8087408,36.0682699 L47.8087408,28.5952379 C47.8087408,27.7220574 47.6077904,27.695522 47.0972604,27.5476425 L47.0972604,27.3325952 C47.633773,27.1584566 48.1979266,26.9174267 48.4804181,26.7551738 C48.6260864,26.675844 48.7344392,26.6072942 48.7739659,26.6072942 C48.8560598,26.6072942 48.8825952,26.6888353 48.8825952,26.7966354 L48.8825952,36.0682699 C48.8825952,36.512185 49.178078,36.512185 49.5534433,36.512185 L49.7806527,36.512185 L49.7806527,36.8612913 C49.3256811,36.8612913 48.8560598,36.8347559 48.372618,36.8347559 C47.889729,36.8347559 47.4071164,36.8471944 46.9098541,36.8612913 L46.9098541,36.512185" id="Fill-12" fill="#9B9B9B" sketch:type="MSShapeGroup"></path>
                <path d="M55.5263959,36.1224463 C55.5263959,36.3648582 55.6731698,36.3775731 55.9006556,36.3775731 C56.0626321,36.3775731 56.2630297,36.3648582 56.4388267,36.3648582 L56.4388267,36.6473497 C55.8614053,36.7004205 54.7604627,36.9823591 54.5050594,37.0630709 L54.4381681,37.0221622 L54.4381681,35.93504 C53.6338138,36.592344 53.0157601,37.0630709 52.0615914,37.0630709 C51.3371197,37.0630709 50.5861126,36.592344 50.5861126,35.4665244 L50.5861126,32.0299137 C50.5861126,31.680531 50.5327654,31.3449687 49.7823111,31.2789066 L49.7823111,31.023227 C50.2657529,31.0099593 51.3371197,30.9298003 51.5120875,30.9298003 C51.6610727,30.9298003 51.6610727,31.023227 51.6610727,31.3189861 L51.6610727,34.7810266 C51.6610727,35.1840329 51.6610727,36.3369408 52.8283539,36.3369408 C53.2838782,36.3369408 53.887835,35.9889401 54.4511594,35.5198716 L54.4511594,31.908846 C54.4511594,31.6407279 53.8073996,31.4931247 53.3250634,31.3596185 L53.3250634,31.1183122 C54.5315948,31.0364947 55.283984,30.9298003 55.418043,30.9298003 C55.5263959,30.9298003 55.5263959,31.023227 55.5263959,31.171383 L55.5263959,36.1224463" id="Fill-13" fill="#9B9B9B" sketch:type="MSShapeGroup"></path>
                <path d="M58.1962441,31.6937987 C58.7327567,31.2385507 59.4577812,30.7274679 60.195797,30.7274679 C61.7528169,30.7274679 62.6923359,32.0843666 62.6923359,33.5468541 C62.6923359,35.3042715 61.4034341,37.0630709 59.4834874,37.0630709 C58.4914504,37.0630709 57.9679291,36.7399472 57.6182699,36.592344 L57.216922,36.9010944 L56.9355362,36.7540441 C57.0554983,35.9624047 57.1232189,35.1840329 57.1232189,34.3650289 L57.1232189,28.5952379 C57.1232189,27.7220574 56.9211629,27.695522 56.4111856,27.5476425 L56.4111856,27.3325952 C56.9485275,27.1584566 57.5115755,26.9174267 57.7932377,26.7551738 C57.9413937,26.675844 58.0483645,26.6072942 58.0892733,26.6072942 C58.1691559,26.6072942 58.1962441,26.6891117 58.1962441,26.7966354 L58.1962441,31.6937987 L58.1962441,31.6937987 Z M58.1962441,35.344351 C58.1962441,35.8540518 58.6796859,36.7136882 59.5785726,36.7136882 C61.0142483,36.7136882 61.6179286,35.3042715 61.6179286,34.1093493 C61.6179286,32.6604059 60.5186444,31.4527688 59.4721546,31.4527688 C58.9735102,31.4527688 58.5583417,31.7753397 58.1962441,32.0843666 L58.1962441,35.344351 L58.1962441,35.344351 Z" id="Fill-14" fill="#9B9B9B" sketch:type="MSShapeGroup"></path>
                <path d="M0.299318939,44.6643573 L0.401867202,44.6643573 C0.664457095,44.6643573 0.941973149,44.6284239 0.941973149,44.2483596 L0.941973149,40.4228395 C0.941973149,40.0422224 0.664457095,40.0060126 0.401867202,40.0060126 L0.299318939,40.0060126 L0.299318939,39.7865427 C0.584021664,39.7865427 1.02213217,39.8155658 1.38091289,39.8155658 C1.74577463,39.8155658 2.18333232,39.7865427 2.52663405,39.7865427 L2.52663405,40.0060126 L2.42353296,40.0060126 C2.16204871,40.0060126 1.88397984,40.0422224 1.88397984,40.4228395 L1.88397984,44.2483596 C1.88397984,44.6284239 2.16204871,44.6643573 2.42353296,44.6643573 L2.52663405,44.6643573 L2.52663405,44.8838272 C2.17642205,44.8838272 1.73720591,44.8556333 1.3734498,44.8556333 C1.0149455,44.8556333 0.584021664,44.8838272 0.299318939,44.8838272 L0.299318939,44.6643573" id="Fill-15" fill="#9B9B9B" sketch:type="MSShapeGroup"></path>
                <path d="M2.52663405,44.9150615 C2.17338154,44.9150615 1.73637668,44.885762 1.37289698,44.885762 C1.01549832,44.885762 0.585956537,44.9150615 0.299318939,44.9150615 L0.267531741,44.9150615 L0.267531741,44.6328465 L0.401314381,44.6328465 C0.666391967,44.6264891 0.907421848,44.6052055 0.909633131,44.2483596 L0.909633131,40.4228395 C0.907421848,40.0654408 0.666391967,40.0422224 0.401314381,40.0375234 L0.267531741,40.0375234 L0.267531741,39.7547555 L0.299318939,39.7547555 C0.585956537,39.7547555 1.02379063,39.7832258 1.38091289,39.7832258 C1.74411617,39.7832258 2.18139744,39.7547555 2.52663405,39.7547555 L2.55925048,39.7547555 L2.55925048,40.0375234 L2.42491502,40.0375234 C2.15956102,40.0422224 1.91714909,40.0654408 1.91576704,40.4228395 L1.91576704,44.2483596 C1.91714909,44.6052055 2.15956102,44.6264891 2.42491502,44.6328465 L2.55925048,44.6328465 L2.55925048,44.9150615 L2.52663405,44.9150615 L2.52663405,44.9150615 Z M2.49512326,44.8525928 L2.49539967,44.6972501 L2.42491502,44.6972501 C2.16370718,44.6972501 1.85329828,44.651366 1.85163982,44.2483596 L1.85163982,40.4228395 C1.85329828,40.0190039 2.16370718,39.973949 2.42491502,39.973949 L2.49512326,39.973949 L2.49512326,39.8180535 C2.15817897,39.8183299 1.73499462,39.8476294 1.38091289,39.8476294 C1.03401782,39.8476294 0.614150399,39.8202648 0.331382547,39.8180535 L0.331382547,39.973949 L0.401314381,39.973949 C0.66169299,39.973949 0.972654705,40.0190039 0.972654705,40.4228395 L0.972654705,44.2483596 C0.972654705,44.651366 0.66169299,44.6972501 0.401314381,44.6972501 L0.331382547,44.6972501 L0.331382547,44.8525928 C0.614150399,44.8501051 1.02655474,44.8232933 1.37289698,44.8232933 C1.72863719,44.8232933 2.15071589,44.8506579 2.49512326,44.8525928 L2.49512326,44.8525928 Z" id="Fill-16" fill="#9B9B9B" sketch:type="MSShapeGroup"></path>
                <path d="M7.54320664,43.4445581 L7.55785639,43.4301848 L7.55785639,40.6926161 C7.55785639,40.0933583 7.14102949,40.0057362 6.92211244,40.0057362 L6.76124158,40.0057362 L6.76124158,39.7865427 C7.10509613,39.7865427 7.44093479,39.8155658 7.7836837,39.8155658 C8.08303618,39.8155658 8.3837707,39.7865427 8.68201754,39.7865427 L8.68201754,40.0057362 L8.57338825,40.0057362 C8.26574346,40.0057362 7.92244172,40.0640588 7.92244172,40.9330931 L7.92244172,44.2555463 C7.92244172,44.5115023 7.9296284,44.7669056 7.96556175,44.9935621 L7.68804569,44.9935621 L3.92803484,40.8012454 L3.92803484,43.8105255 C3.92803484,44.4462695 4.0515903,44.6643573 4.61380908,44.6643573 L4.73819376,44.6643573 L4.73819376,44.8838272 C4.42419154,44.8838272 4.11046572,44.8553569 3.79646349,44.8553569 C3.46864074,44.8553569 3.13224926,44.8838272 2.80332087,44.8838272 L2.80332087,44.6643573 L2.90586914,44.6643573 C3.40948891,44.6643573 3.56289669,44.3210556 3.56289669,43.7386588 L3.56289669,40.6619345 C3.56289669,40.2533999 3.22595239,40.0057362 2.89868246,40.0057362 L2.80332087,40.0057362 L2.80332087,39.7865427 C3.08028411,39.7865427 3.36553965,39.8155658 3.64250289,39.8155658 C3.86224917,39.8155658 4.07397954,39.7865427 4.29289659,39.7865427 L7.54320664,43.4445581" id="Fill-17" fill="#9B9B9B" sketch:type="MSShapeGroup"></path>
                <path d="M7.96556175,45.0242437 L7.66482722,45.0140165 L3.95899281,40.8836157 L3.95899281,43.8105255 C3.96783794,44.4454403 4.06430518,44.6259363 4.61408549,44.6328465 L4.77053378,44.6328465 L4.77053378,44.9150615 L4.73819376,44.9150615 C4.42225666,44.9150615 4.10797802,44.885762 3.79646349,44.885762 C3.46946997,44.885762 3.13390773,44.9150615 2.80304446,44.9150615 L2.77098085,44.9150615 L2.77098085,44.6328465 L2.90586914,44.6328465 C3.38848172,44.6300824 3.52641051,44.3199499 3.53166231,43.7383824 L3.53166231,40.6630402 C3.53028026,40.2741307 3.21130264,40.0375234 2.89895888,40.0375234 L2.77098085,40.0375234 L2.77098085,39.7547555 L2.80304446,39.7547555 C3.08221898,39.7547555 3.36802735,39.7832258 3.64195007,39.7832258 C3.85976147,39.7832258 4.07066262,39.7547555 4.31694429,39.7660884 L7.52606919,43.3784961 L7.52606919,40.6926161 C7.52247586,40.112707 7.13494846,40.0422224 6.92238885,40.0375234 L6.72917797,40.0375234 L6.72917797,39.7547555 L6.76151799,39.7547555 C7.10647819,39.7547555 7.44259325,39.7832258 7.7836837,39.7832258 C8.08082489,39.7832258 8.38017737,39.7547555 8.68201754,39.7547555 L8.71408115,39.7547555 L8.71408115,40.0375234 L8.57338825,40.0375234 C8.27182449,40.0452629 7.96252123,40.0717983 7.9536761,40.9330931 L7.9536761,44.2555463 C7.9536761,44.5112259 7.961692,44.7660763 7.99679613,44.9877575 L8.00342998,45.0242437 L7.96556175,45.0242437 L7.96556175,45.0242437 Z M7.6883221,44.9606693 L7.92990481,44.9606693 C7.89728838,44.740923 7.89148376,44.4985111 7.89148376,44.2555463 L7.89148376,40.9330931 C7.89148376,40.0565957 8.2588332,39.973949 8.57338825,39.9733962 L8.65023034,39.9733962 L8.65023034,39.8180535 C8.3624871,39.8202648 8.07419104,39.8468002 7.7836837,39.8468002 C7.4492271,39.8468002 7.12416845,39.8202648 6.79413442,39.8180535 L6.79330519,39.9733962 L6.92238885,39.9733962 C7.14683411,39.973949 7.58936718,40.0737332 7.58936718,40.6926161 L7.57969281,43.4531269 L7.56531947,43.4672238 L7.54044253,43.4907187 L4.29289659,39.8180535 C4.07591441,39.8180535 3.86473686,39.8468002 3.64195007,39.8468002 C3.37438479,39.8468002 3.10018566,39.8202648 2.83538448,39.8180535 L2.83400243,39.9733962 L2.89895888,39.9733962 C3.24143138,39.973949 3.59385465,40.2354332 3.59385465,40.6630402 L3.59385465,43.7383824 C3.59385465,44.322714 3.43104892,44.6958681 2.90586914,44.697803 L2.83538448,44.6958681 L2.83538448,44.8525928 C3.15159799,44.8501051 3.47748587,44.8232933 3.79646349,44.8232933 C4.10106776,44.8232933 4.40511922,44.8501051 4.70640657,44.8525928 L4.70640657,44.697803 L4.61408549,44.697803 C4.03942824,44.6958681 3.89707688,44.4454403 3.89652406,43.8105255 L3.89652406,40.7194279 L7.6883221,44.9606693 L7.6883221,44.9606693 Z M7.54348305,43.4445581 L7.56642511,43.423551 L7.54348305,43.4445581 L7.54348305,43.4445581 Z M7.52606919,43.4301848 L7.52606919,43.4274207 L7.52026457,43.4227217 L7.52606919,43.4301848 L7.52606919,43.4301848 Z" id="Fill-18" fill="#9B9B9B" sketch:type="MSShapeGroup"></path>
                <path d="M9.77632637,40.1516809 C9.22792811,40.1516809 9.2066445,40.2838051 9.09718598,40.8161715 L8.87799252,40.8161715 C8.90673921,40.6116278 8.94294897,40.4073605 8.96561462,40.1956301 C8.99491413,39.9902572 9.00956388,39.7865427 9.00956388,39.5753652 L9.18453167,39.5753652 C9.24340709,39.7945586 9.42583796,39.7865427 9.62402423,39.7865427 L13.3903925,39.7865427 C13.5885788,39.7865427 13.7707332,39.7793561 13.7856594,39.5601626 L13.9600744,39.5900149 C13.9318805,39.7865427 13.9020282,39.9838998 13.8807446,40.1815332 C13.8663713,40.3786138 13.8663713,40.5751416 13.8663713,40.7722223 L13.6469014,40.8534869 C13.6319752,40.5837104 13.5957655,40.1516809 13.106519,40.1516809 L11.9088327,40.1516809 L11.9088327,44.0366292 C11.9088327,44.5999537 12.1647887,44.6643573 12.5147243,44.6643573 L12.6540352,44.6643573 L12.6540352,44.8838272 C12.369056,44.8838272 11.8576968,44.8556333 11.4640883,44.8556333 C11.025425,44.8556333 10.5137893,44.8838272 10.2288102,44.8838272 L10.2288102,44.6643573 L10.3681211,44.6643573 C10.7705746,44.6643573 10.9740127,44.6284239 10.9740127,44.0518318 L10.9740127,40.1516809 L9.77632637,40.1516809" id="Fill-19" fill="#9B9B9B" sketch:type="MSShapeGroup"></path>
                <path d="M12.654588,44.9150615 C12.3668448,44.9150615 11.8560383,44.8860384 11.4640883,44.8860384 C11.0259778,44.8860384 10.5151714,44.9150615 10.2288102,44.9150615 L10.1975758,44.9150615 L10.1975758,44.6328465 L10.3681211,44.6328465 C10.7705746,44.6234486 10.9322747,44.6181968 10.9413963,44.0518318 L10.9413963,40.1829153 L9.77632637,40.1829153 L9.77632637,40.1190645 L11.0046942,40.1190645 L11.0046942,44.0518318 C11.0046942,44.6380983 10.7683633,44.6972501 10.3681211,44.697803 L10.2600446,44.697803 L10.2600446,44.85204 C10.5480642,44.8501051 11.0400748,44.8232933 11.4640883,44.8232933 C11.8441527,44.8232933 12.332017,44.8501051 12.6214187,44.85204 L12.6214187,44.697803 L12.5147243,44.697803 C12.1614718,44.6972501 11.8773219,44.6104573 11.8773219,44.0366292 L11.8773219,40.1190645 L13.106519,40.1190645 C13.5963183,40.1209993 13.6612747,40.5372734 13.6764773,40.8089849 L13.8345841,40.7506623 C13.8345841,40.5599391 13.8354133,40.3689395 13.8484046,40.1771106 C13.8699646,39.9883223 13.8965,39.802851 13.9238646,39.6157211 L13.813024,39.5972016 C13.7790256,39.8097612 13.5730998,39.821094 13.3901161,39.8183299 L9.58587959,39.8183299 C9.41395231,39.8186063 9.22682246,39.810314 9.16103679,39.6065996 L9.04052185,39.6065996 C9.0394162,39.8083792 9.02559568,40.0043541 8.99795464,40.1989471 C8.97611822,40.399621 8.94267256,40.5922791 8.91613716,40.7857664 L9.07203263,40.7857664 C9.16794705,40.276342 9.2304158,40.1118778 9.77632637,40.1190645 L9.77632637,40.1829153 C9.23539119,40.1936953 9.24727684,40.2840815 9.12814395,40.8236346 L9.12289215,40.8485115 L8.84150635,40.8485115 L8.84537609,40.8106433 C8.87522842,40.6069288 8.91226741,40.4018323 8.93355102,40.1898255 C8.96395616,39.9872167 8.97777668,39.7846079 8.97777668,39.5753652 L8.97777668,39.5430252 L9.20968502,39.5430252 L9.21521323,39.5659672 C9.26441428,39.7500566 9.39957897,39.7514386 9.58587959,39.7547555 L13.3901161,39.7547555 C13.5935542,39.7514386 13.7417102,39.7486745 13.7541486,39.5576749 L13.7566363,39.5231236 L13.7898056,39.5297575 L13.9962841,39.5623739 L13.9910323,39.5947139 C13.9620093,39.7906889 13.933539,39.9872167 13.9114261,40.1829153 C13.897882,40.3786138 13.897882,40.5748652 13.897882,40.7722223 L13.897882,40.7943351 L13.8765984,40.8029038 L13.6181547,40.8974362 L13.6164962,40.8551454 C13.5963183,40.5803934 13.5681244,40.1829153 13.106519,40.1829153 L11.9408963,40.1829153 L11.9408963,44.0366292 C11.948083,44.5872388 12.1664472,44.6259363 12.5147243,44.6328465 L12.685546,44.6328465 L12.685546,44.9150615 L12.654588,44.9150615" id="Fill-20" fill="#9B9B9B" sketch:type="MSShapeGroup"></path>
                <path d="M14.1933648,44.6643573 L14.2961894,44.6643573 C14.5582265,44.6643573 14.8365718,44.6284239 14.8365718,44.2483596 L14.8365718,40.4228395 C14.8365718,40.0422224 14.5582265,40.0060126 14.2961894,40.0060126 L14.1933648,40.0060126 L14.1933648,39.7865427 C14.6372799,39.7865427 15.3985142,39.8155658 16.0107632,39.8155658 C16.6252236,39.8155658 17.3836938,39.7865427 17.8801269,39.7865427 C17.867412,40.100545 17.8743222,40.5837104 17.8958823,40.9043464 L17.6758596,40.9623926 C17.6407554,40.4875195 17.5531333,40.1088373 16.7860944,40.1088373 L15.7722211,40.1088373 L15.7722211,42.0207681 L16.6395969,42.0207681 C17.0777074,42.0207681 17.173069,41.7733808 17.2164655,41.3786667 L17.4353825,41.3786667 C17.4207328,41.6639223 17.4129933,41.948625 17.4129933,42.2330513 C17.4129933,42.5111202 17.4207328,42.7883598 17.4353825,43.0653231 L17.2164655,43.1089959 C17.173069,42.6714382 17.1512326,42.3867355 16.6467836,42.3867355 L15.7722211,42.3867355 L15.7722211,44.0872124 C15.7722211,44.5626383 16.1940233,44.5626383 16.6617098,44.5626383 C17.5382072,44.5626383 17.9249053,44.5037628 18.1440988,43.6723203 L18.3478133,43.722627 C18.2530045,44.1104308 18.1659352,44.4962998 18.100426,44.8838272 C17.6324631,44.8838272 16.7927283,44.8556333 16.1368064,44.8556333 C15.4781204,44.8556333 14.6099153,44.8838272 14.1933648,44.8838272 L14.1933648,44.6643573" id="Fill-21" fill="#9B9B9B" sketch:type="MSShapeGroup"></path>
                <path d="M18.0998731,44.9150615 C17.6313575,44.9150615 16.7910698,44.8846564 16.1359772,44.8846564 C15.4781204,44.8846564 14.6101917,44.9150615 14.1930884,44.9150615 L14.1624068,44.9150615 L14.1624068,44.6328465 L14.295913,44.6328465 C14.5601614,44.6284239 14.8006384,44.6052055 14.8039554,44.2483596 L14.8039554,40.4228395 C14.8006384,40.0659937 14.5601614,40.0422224 14.295913,40.0375234 L14.1624068,40.0375234 L14.1624068,39.7547555 L14.1930884,39.7547555 C14.6392148,39.7547555 15.3987906,39.7832258 16.0107632,39.7832258 C16.6246708,39.7832258 17.3828645,39.7547555 17.8801269,39.7547555 L17.9124669,39.7547555 L17.9113612,39.7884776 C17.9066623,39.8976597 17.9036217,40.0275726 17.9036217,40.1649486 C17.9036217,40.4173113 17.9113612,40.6939981 17.9257346,40.9018588 L17.9271166,40.9278413 L17.9025161,40.9353044 L17.6457308,41.0024721 L17.6446252,40.9648803 C17.6015052,40.4911129 17.5379308,40.1464291 16.7860944,40.1392424 L15.801797,40.1392424 L15.8012441,41.9887045 L16.6393205,41.9887045 C17.0602936,41.9842819 17.1354772,41.7692346 17.1852311,41.3753498 L17.1868895,41.3460503 L17.4677225,41.3460503 L17.4671697,41.3794959 C17.4530728,41.6647515 17.4445041,41.948625 17.4445041,42.2330513 C17.4445041,42.5091853 17.4530728,42.786425 17.4671697,43.063941 L17.4677225,43.0904764 L17.4411871,43.0965574 L17.1868895,43.1471405 L17.1852311,43.1128656 C17.134648,42.6670157 17.1313311,42.4226688 16.6467836,42.417417 L15.801797,42.417417 L15.801797,44.0872124 C15.8029026,44.5311275 16.1854546,44.5286398 16.6614333,44.5311275 C17.5406949,44.5258757 17.8928417,44.4827557 18.1128644,43.6637516 L18.1203275,43.6341757 L18.1510091,43.6391511 L18.3851287,43.6999614 L18.3784948,43.7300901 C18.2836861,44.1165119 18.1966168,44.5026572 18.1305547,44.889079 L18.1250265,44.9150615 L18.0998731,44.9150615 L18.0998731,44.9150615 Z M18.0727849,44.85204 C18.1366357,44.4827557 18.2198353,44.1140242 18.3093922,43.7463983 L18.1656588,43.7101886 C17.9470182,44.5269813 17.523281,44.5999537 16.6614333,44.5944255 C16.20121,44.5944255 15.7412631,44.5944255 15.7387754,44.0872124 L15.7387754,42.3549483 L16.6467836,42.3549483 C17.1567608,42.3496965 17.2081731,42.6570649 17.2446593,43.0725097 L17.4022133,43.0401697 C17.3881163,42.770946 17.3809297,42.5006166 17.3809297,42.2330513 C17.3809297,41.9588522 17.3881163,41.6852059 17.4022133,41.4096247 L17.2446593,41.4096247 C17.2034742,41.7910711 17.0843413,42.0572543 16.6393205,42.0525553 L15.7387754,42.0525553 L15.7387754,40.0759444 L16.7860944,40.0759444 C17.5453939,40.0698634 17.6711606,40.462919 17.7043298,40.9223131 L17.8616074,40.8794695 C17.8488925,40.6735438 17.8403238,40.4087426 17.8403238,40.1649486 C17.8403238,40.0400111 17.8436407,39.921431 17.8477868,39.8180535 C17.3516302,39.8202648 16.6111267,39.8468002 16.0107632,39.8468002 C15.4106762,39.8468002 14.6721076,39.8202648 14.225152,39.8180535 L14.225152,39.9733962 L14.295913,39.9733962 C14.5557388,39.973949 14.8664241,40.0190039 14.8680826,40.4228395 L14.8680826,44.2483596 C14.8664241,44.651366 14.5557388,44.6958681 14.295913,44.697803 L14.225152,44.697803 L14.225152,44.85204 C14.6502712,44.8506579 15.4944286,44.8232933 16.1359772,44.8232933 C16.7805662,44.8232933 17.602058,44.8506579 18.0727849,44.85204 L18.0727849,44.85204 Z" id="Fill-22" fill="#9B9B9B" sketch:type="MSShapeGroup"></path>
                <path d="M19.3340456,40.5599391 C19.3340456,40.0275726 19.0416034,40.0057362 18.8149469,40.0057362 L18.6830991,40.0057362 L18.6830991,39.7865427 C18.9169423,39.7865427 19.3697026,39.8155658 19.8155526,39.8155658 C20.2528338,39.8155658 20.6038751,39.7865427 20.9908497,39.7865427 C21.9096379,39.7865427 22.7291947,40.0344829 22.7291947,41.0721276 C22.7291947,41.7288787 22.2908078,42.1299502 21.7142157,42.3577124 L22.9622087,44.2259704 C23.1673052,44.5349972 23.3121443,44.6215137 23.670925,44.6643573 L23.670925,44.8838272 C23.4293423,44.8838272 23.1957755,44.8556333 22.9555749,44.8556333 C22.7291947,44.8556333 22.4945223,44.8838272 22.2692478,44.8838272 C21.7064762,44.1466406 21.22414,43.3583181 20.7498198,42.5172012 L20.2685892,42.5172012 L20.2685892,44.0808549 C20.2685892,44.6430737 20.5309027,44.6643573 20.8656357,44.6643573 L20.9980363,44.6643573 L20.9980363,44.8838272 C20.580933,44.8838272 20.1591307,44.8556333 19.7420274,44.8556333 C19.391539,44.8556333 19.0482373,44.8838272 18.6830991,44.8838272 L18.6830991,44.6643573 L18.8149469,44.6643573 C19.0861055,44.6643573 19.3340456,44.5408018 19.3340456,44.2710253 L19.3340456,40.5599391 L19.3340456,40.5599391 Z M20.2685892,42.2537821 L20.6254351,42.2537821 C21.3565406,42.2537821 21.7501491,41.9770953 21.7501491,41.1149712 C21.7501491,40.4656831 21.333875,40.049409 20.6832049,40.049409 C20.4640114,40.049409 20.3705847,40.0717983 20.2685892,40.078985 L20.2685892,42.2537821 L20.2685892,42.2537821 Z" id="Fill-23" fill="#9B9B9B" sketch:type="MSShapeGroup"></path>
                <path d="M23.670925,44.9150615 C23.4260254,44.9150615 23.1938406,44.885762 22.95364,44.885762 C22.7311296,44.885762 22.4975628,44.9150615 22.2432652,44.9028995 C21.6829813,44.1676478 21.2028564,43.3837479 20.7313003,42.550094 L20.2998236,42.550094 L20.2998236,44.0794729 C20.3078395,44.6292532 20.5281386,44.625107 20.8656357,44.6328465 L21.0295471,44.6328465 L21.0295471,44.9150615 L20.9972071,44.9150615 C20.5798274,44.9150615 20.1555374,44.885762 19.741751,44.885762 C19.3929211,44.885762 19.0498957,44.9150615 18.6830991,44.9150615 L18.6513119,44.9150615 L18.6513119,44.6328465 L18.8149469,44.6328465 C19.0775368,44.6309116 19.2994943,44.5164777 19.3006,44.2710253 L19.3006,40.5599391 C19.2950718,40.0422224 19.0416034,40.0447101 18.8149469,40.0375234 L18.6513119,40.0375234 L18.6513119,39.7547555 L18.6830991,39.7547555 C18.91943,39.7547555 19.3702554,39.7832258 19.8155526,39.7832258 C20.2514518,39.7832258 20.6016638,39.7547555 20.9908497,39.7547555 C21.9115727,39.7566904 22.7587707,40.0101588 22.7609819,41.0710219 C22.7609819,41.7299844 22.3253591,42.1418359 21.7623111,42.3715329 L22.9884677,44.2085565 C23.192735,44.5115023 23.3198838,44.5872388 23.6750712,44.6328465 L23.7016066,44.6369927 L23.7016066,44.9150615 L23.670925,44.9150615 L23.670925,44.9150615 Z M20.2683128,42.4856904 L20.7672336,42.4856904 L20.7763552,42.5019986 C21.2517811,43.3409042 21.7316296,44.1295031 22.2692478,44.8525928 C22.4914818,44.8525928 22.7261542,44.8232933 22.95364,44.8232933 C23.186654,44.8232933 23.4122049,44.848723 23.6388614,44.85204 L23.6388614,44.6917219 C23.2966653,44.649984 23.1357945,44.5466065 22.9365026,44.2439371 L21.6652911,42.3430626 L21.7012244,42.3284129 C22.2731176,42.1031384 22.6968547,41.7131233 22.6971311,41.0710219 C22.6968547,40.0579778 21.9088086,39.8230289 20.9908497,39.8180535 C20.6063628,39.8180535 20.2553215,39.8476294 19.8155526,39.8476294 C19.3865636,39.8476294 18.9531521,39.8202648 18.7143335,39.8180535 L18.7143335,39.9733962 L18.8149469,39.9733962 C19.0416034,39.973949 19.3641744,40.0115408 19.3641744,40.5599391 L19.3641744,44.2710253 C19.3641744,44.5640203 19.0896988,44.6972501 18.8149469,44.697803 L18.7143335,44.697803 L18.7143335,44.85204 C19.0653747,44.8506579 19.3987257,44.8232933 19.741751,44.8232933 C20.1494564,44.8232933 20.5618607,44.8506579 20.9656963,44.85204 L20.9656963,44.697803 L20.8656357,44.697803 C20.533114,44.6972501 20.2359728,44.656065 20.2359728,44.0794729 L20.2359728,42.4856904 L20.2683128,42.4856904 L20.2683128,42.4856904 Z M20.2683128,42.2852929 L20.2359728,42.2852929 L20.2359728,40.049409 L20.2638903,40.0471978 C20.3639508,40.0391819 20.4623529,40.0190039 20.6832049,40.0190039 C21.3482483,40.0190039 21.7813834,40.4510334 21.7819363,41.1169061 C21.7800014,41.9887045 21.3620688,42.2850165 20.6254351,42.2852929 L20.2683128,42.2852929 L20.2683128,42.2852929 Z M20.6254351,42.2231005 C21.3482483,42.2159139 21.7125572,41.9652096 21.7197439,41.1169061 C21.7153213,40.4789508 21.3192252,40.0831311 20.6832049,40.080367 C20.4861242,40.080367 20.3929739,40.0986101 20.2998236,40.1077316 L20.2998236,42.2231005 L20.6254351,42.2231005 L20.6254351,42.2231005 Z" id="Fill-24" fill="#9B9B9B" sketch:type="MSShapeGroup"></path>
                <path d="M28.6413371,43.4301848 L28.6413371,40.6926161 C28.6413371,40.0933583 28.226445,40.0057362 28.0072516,40.0057362 L27.84721,40.0057362 L27.84721,39.7865427 C28.1905117,39.7865427 28.5252447,39.8155658 28.8693757,39.8155658 C29.1695574,39.8155658 29.4666986,39.7865427 29.7682623,39.7865427 L29.7682623,40.0057362 L29.658251,40.0057362 C29.3514354,40.0057362 29.0084101,40.0640588 29.0084101,40.9330931 L29.0084101,44.2555463 C29.0084101,44.5115023 29.0155968,44.7669056 29.0515301,44.9935621 L28.7751197,44.9935621 L25.0148324,40.8012454 L25.0148324,43.8105255 C25.0148324,44.4462695 25.1381115,44.6643573 25.7003303,44.6643573 L25.824715,44.6643573 L25.824715,44.8838272 C25.5109891,44.8838272 25.1964341,44.8553569 24.8827083,44.8553569 C24.5529506,44.8553569 24.2176648,44.8838272 23.8892892,44.8838272 L23.8892892,44.6643573 L23.9907319,44.6643573 C24.4949045,44.6643573 24.6491415,44.3210556 24.6491415,43.7386588 L24.6491415,40.6619345 C24.6491415,40.2533999 24.31275,40.0057362 23.9843744,40.0057362 L23.8892892,40.0057362 L23.8892892,39.7865427 C24.1656997,39.7865427 24.4526137,39.8155658 24.7295769,39.8155658 C24.9465591,39.8155658 25.1593951,39.7865427 25.378865,39.7865427 L26.744452,41.3236847 L28.6286222,43.4445581 L28.6413371,43.4301848 Z" id="Fill-25" fill="#9B9B9B" sketch:type="MSShapeGroup"></path>
                <path d="M29.0512537,45.0242437 L28.7513484,45.0140165 L25.0449612,40.8841685 L25.0449612,43.8102491 C25.0535299,44.4462695 25.1497207,44.6259363 25.7003303,44.6328465 L25.8551201,44.6328465 L25.8551201,44.9150615 L25.8233329,44.9150615 C25.5076722,44.9150615 25.1942228,44.8846564 24.8813262,44.8846564 C24.5554383,44.8846564 24.2179412,44.9150615 23.8890128,44.9150615 L23.8563964,44.9150615 L23.8563964,44.6328465 L23.9907319,44.6328465 C24.473068,44.6309116 24.6112732,44.3199499 24.6159722,43.736724 L24.6159722,40.6619345 C24.615143,40.2727487 24.2967182,40.0375234 23.9843744,40.0375234 L23.8563964,40.0375234 L23.8563964,39.7547555 L23.8890128,39.7547555 C24.1679109,39.7547555 24.4537193,39.7832258 24.7293005,39.7832258 C24.943795,39.7832258 25.1552489,39.7547555 25.4001486,39.7641535 L28.6103791,43.3784961 L28.6103791,40.6926161 C28.6084442,40.112707 28.2195348,40.0408403 28.0072516,40.0375234 L27.8145935,40.0375234 L27.8145935,39.7547555 L27.8463807,39.7547555 C28.1913409,39.7547555 28.5280088,39.7832258 28.8693757,39.7832258 C29.1667933,39.7832258 29.4658693,39.7547555 29.7668803,39.7547555 L29.7992203,39.7547555 L29.7992203,40.0375234 L29.658251,40.0375234 C29.3569636,40.0447101 29.0465547,40.0717983 29.0393681,40.9330931 L29.0393681,44.2555463 C29.0393681,44.5112259 29.0457255,44.7644179 29.0830409,44.9883103 L29.0866342,45.0242437 L29.0512537,45.0242437 L29.0512537,45.0242437 Z M28.7748433,44.9606693 L29.0142147,44.9606693 C28.9821511,44.742305 28.9757937,44.4985111 28.9757937,44.2555463 L28.9757937,40.9330931 C28.9763465,40.0565957 29.3456308,39.975331 29.658251,39.9733962 L29.7350931,39.9733962 L29.7350931,39.8180535 C29.4476262,39.8202648 29.1590538,39.8468002 28.8693757,39.8468002 C28.5338134,39.8468002 28.2084784,39.8202648 27.8781679,39.8180535 L27.8781679,39.9733962 L28.0072516,39.9733962 C28.2322497,39.975331 28.6745063,40.0737332 28.6745063,40.6926161 L28.6640027,43.4531269 L28.650735,43.4672238 L28.627793,43.4912715 L25.378865,39.8180535 C25.1616064,39.8180535 24.949876,39.8468002 24.7293005,39.8468002 C24.4584183,39.8468002 24.1856012,39.8202648 23.9202472,39.8180535 L23.9202472,39.9733962 L23.9843744,39.9733962 C24.3279526,39.975331 24.6792702,40.2343276 24.6792702,40.6619345 L24.6792702,43.736724 C24.6792702,44.322714 24.5142532,44.6958681 23.9907319,44.697803 L23.9202472,44.6972501 L23.9202472,44.8523164 C24.2356315,44.8501051 24.5609665,44.8232933 24.8813262,44.8232933 C25.187589,44.8232933 25.4910876,44.8501051 25.7929278,44.8523164 L25.7929278,44.697803 L25.7003303,44.697803 C25.125673,44.6972501 24.9824924,44.4462695 24.980834,43.8102491 L24.980834,40.7205335 L28.7748433,44.9606693 L28.7748433,44.9606693 Z M28.627793,43.4445581 L28.6515643,43.423551 L28.627793,43.4445581 L28.627793,43.4445581 Z M28.6103791,43.4301848 L28.6103791,43.4282499 L28.6051273,43.4227217 L28.6103791,43.4301848 L28.6103791,43.4301848 Z" id="Fill-26" fill="#9B9B9B" sketch:type="MSShapeGroup"></path>
                <path d="M30.9421773,43.839825 C30.8686522,44.0872124 30.7804773,44.2790412 30.7804773,44.4086777 C30.7804773,44.6284239 31.088122,44.6646337 31.3283227,44.6646337 L31.4098638,44.6646337 L31.4098638,44.8838272 C31.1165923,44.8680718 30.8186219,44.8556333 30.5247976,44.8556333 C30.2619313,44.8556333 30.0004471,44.8680718 29.7367515,44.8838272 L29.7367515,44.6646337 L29.7812536,44.6646337 C30.0654035,44.6646337 30.3072626,44.4962998 30.4156155,44.1894842 L31.5840023,40.8388372 C31.6793639,40.567955 31.8109353,40.2030932 31.8554374,39.932211 C32.0876221,39.8523284 32.3808935,39.7072129 32.5190988,39.6184852 C32.5417644,39.6110221 32.5553085,39.603559 32.5774214,39.603559 C32.5995342,39.603559 32.6130783,39.603559 32.6291101,39.6265011 C32.6506701,39.6842709 32.6719537,39.7500566 32.6946194,39.8083792 L34.0388032,43.6280947 C34.1264253,43.8829451 34.2132182,44.152998 34.3066449,44.3732971 C34.3956491,44.5781172 34.5490568,44.6646337 34.7909159,44.6646337 L34.8345888,44.6646337 L34.8345888,44.8838272 C34.5056604,44.8680718 34.1761792,44.8556333 33.8273492,44.8556333 C33.4693978,44.8556333 33.103154,44.8680718 32.7308291,44.8838272 L32.7308291,44.6646337 L32.8112646,44.6646337 C32.9782165,44.6646337 33.2648541,44.6356106 33.2648541,44.4529033 C33.2648541,44.3586474 33.198792,44.1612903 33.1172509,43.9266179 L32.8328246,43.0799728 L31.1754677,43.0799728 L30.9421773,43.839825 L30.9421773,43.839825 Z M32.0082923,40.6047176 L31.9930897,40.6047176 L31.3145022,42.6714382 L32.678864,42.6714382 L32.0082923,40.6047176 L32.0082923,40.6047176 Z" id="Fill-27" fill="#9B9B9B" sketch:type="MSShapeGroup"></path>
                <path d="M34.8323775,44.9150615 C34.5042783,44.9009646 34.1750735,44.8846564 33.8273492,44.8846564 C33.4693978,44.8846564 33.1050888,44.9009646 32.7324876,44.9150615 L32.6987655,44.91672 L32.6987655,44.6314645 L32.8112646,44.6314645 C32.9804277,44.6314645 33.2314084,44.5935962 33.2319612,44.4529033 C33.2336197,44.3697038 33.1681104,44.1695827 33.087675,43.9373979 L32.8096061,43.1112072 L31.1989626,43.1112072 L30.9717533,43.849223 C30.8982281,44.0974395 30.8095004,44.290374 30.8108824,44.4092305 C30.8133701,44.5875152 31.0859108,44.6314645 31.3283227,44.6314645 L31.4405453,44.6314645 L31.4405453,44.91672 L31.4073761,44.9150615 C31.1154867,44.9009646 30.8175163,44.8846564 30.5253504,44.8846564 C30.2646954,44.8846564 30.0007235,44.9009646 29.7392392,44.9150615 L29.7052407,44.91672 L29.7052407,44.6314645 L29.7809772,44.6314645 C30.0524122,44.6309116 30.2790688,44.4758454 30.3846575,44.179257 L31.55415,40.8275044 C31.648406,40.557175 31.781083,40.1939717 31.8441045,39.9020823 C32.0732488,39.824411 32.367073,39.6770842 32.5072131,39.5889093 C32.5276675,39.5817226 32.5478454,39.5723247 32.5771449,39.5723247 C32.5951116,39.571219 32.6343619,39.575918 32.6581332,39.6140626 C32.678864,39.6740437 32.7020824,39.739553 32.7241953,39.7984284 L34.0686555,43.6175911 C34.1546192,43.8732707 34.2419649,44.1430473 34.3376029,44.3594766 C34.4221845,44.5540695 34.5562435,44.6309116 34.7909159,44.6314645 L34.8647175,44.6314645 L34.8647175,44.91672 L34.8323775,44.9150615 L34.8323775,44.9150615 Z M32.7626163,44.8501051 C33.1238847,44.8373902 33.4785193,44.8232933 33.8273492,44.8232933 C34.165952,44.8232933 34.4843768,44.8373902 34.8016959,44.8501051 L34.8016959,44.6972501 L34.7909159,44.6972501 C34.5404881,44.6989086 34.3682844,44.6005065 34.2787274,44.3851828 C34.1836423,44.1646073 34.0949145,43.8934487 34.0086745,43.637769 L32.6642142,39.8183299 C32.6421014,39.7600073 32.6213706,39.6947745 32.6022983,39.6428093 C32.5951116,39.6356227 32.5967701,39.6356227 32.5909655,39.6356227 L32.5771449,39.6356227 C32.5624952,39.6356227 32.5536501,39.6400452 32.5348541,39.6447442 C32.3944377,39.7359596 32.101719,39.8799695 31.8844604,39.93691 C31.8399584,40.2135968 31.708387,40.5784586 31.6135782,40.8490644 L30.4451914,44.1999878 C30.3340744,44.517307 30.0772892,44.697803 29.7809772,44.6972501 L29.7688151,44.6972501 L29.7688151,44.8501051 C30.019243,44.8373902 30.2718821,44.8232933 30.5253504,44.8232933 C30.8078419,44.8232933 31.0958615,44.8373902 31.3753125,44.8501051 L31.3753125,44.6972501 L31.3283227,44.6972501 C31.0897805,44.6939332 30.7575352,44.6679506 30.7492429,44.4092305 C30.7497957,44.2643914 30.8393527,44.077538 30.910943,43.8307035 L30.9419009,43.839825 L30.910943,43.8298743 L31.15142,43.0495677 L32.8541082,43.0495677 L33.1465504,43.9166671 C33.2286443,44.151616 33.2949828,44.3462089 33.2949828,44.4529033 C33.2842028,44.6765194 32.9768344,44.693104 32.8112646,44.6972501 L32.7626163,44.6972501 L32.7626163,44.8501051 L32.7626163,44.8501051 Z M31.2700001,42.702949 L31.969042,40.5723775 L32.0082923,40.5723775 L32.0082923,40.6047176 L32.0005528,40.6069288 L32.0082923,40.6047176 L32.0082923,40.5723775 L32.0301287,40.5723775 L32.7241953,42.702949 L31.2700001,42.702949 L31.2700001,42.702949 Z M31.3573458,42.6390982 L32.635744,42.6390982 L32.0002764,40.6823889 L31.3573458,42.6390982 L31.3573458,42.6390982 Z M31.9765051,40.6141155 L31.9933662,40.6088637 L31.9765051,40.6141155 L31.9765051,40.6141155 Z" id="Fill-28" fill="#9B9B9B" sketch:type="MSShapeGroup"></path>
                <path d="M35.1555013,40.1516809 C34.6079322,40.1516809 34.5858194,40.2838051 34.4758081,40.8161715 L34.2563382,40.8161715 C34.2850849,40.6116278 34.3224003,40.4073605 34.3450659,40.1956301 C34.3735362,39.9902572 34.3876331,39.7865427 34.3876331,39.5753652 L34.5642594,39.5753652 C34.6214764,39.7945586 34.8044601,39.7865427 35.0015407,39.7865427 L38.7701203,39.7865427 C38.9663716,39.7865427 39.1488025,39.7793561 39.1631759,39.5601626 L39.3378672,39.5900149 C39.310779,39.7865427 39.2817559,39.9838998 39.2588139,40.1815332 C39.2427821,40.3786138 39.2427821,40.5751416 39.2427821,40.7722223 L39.0246942,40.8534869 C39.011703,40.5837104 38.9749404,40.1516809 38.4845883,40.1516809 L37.2871784,40.1516809 L37.2871784,44.0366292 C37.2871784,44.5999537 37.5431344,44.6643573 37.89307,44.6643573 L38.0326573,44.6643573 L38.0326573,44.8838272 C37.7474017,44.8838272 37.2371481,44.8556333 36.8418812,44.8556333 C36.4045999,44.8556333 35.892135,44.8838272 35.6074323,44.8838272 L35.6074323,44.6643573 L35.7464667,44.6643573 C36.1489203,44.6643573 36.3526348,44.6284239 36.3526348,44.0518318 L36.3526348,40.1516809 L35.1555013,40.1516809" id="Fill-29" fill="#9B9B9B" sketch:type="MSShapeGroup"></path>
                <path d="M38.0326573,44.9150615 C37.7457433,44.9150615 37.2338312,44.8860384 36.8413284,44.8860384 C36.4051528,44.8860384 35.8937935,44.9150615 35.6077087,44.9150615 L35.5753687,44.9150615 L35.5753687,44.6328465 L35.7464667,44.6328465 C36.1491967,44.6234486 36.3106204,44.6181968 36.3202948,44.0518318 L36.3197419,40.1829153 L35.1555013,40.1829153 L35.1555013,40.1190645 L36.3841456,40.1190645 L36.3841456,44.0518318 C36.3841456,44.6380983 36.1475383,44.6958681 35.7464667,44.6972501 L35.6389431,44.6972501 L35.6389431,44.8525928 C35.9275156,44.8501051 36.418144,44.8232933 36.8413284,44.8232933 C37.2230512,44.8232933 37.7117448,44.8501051 38.0000408,44.8525928 L38.0000408,44.6972501 L37.8927936,44.6972501 C37.5409231,44.6958681 37.2564968,44.6112865 37.255944,44.0366292 L37.255944,40.1190645 L38.4845883,40.1190645 C38.9752168,40.1209993 39.0390676,40.5372734 39.0531645,40.8089849 L39.2118241,40.7506623 C39.2118241,40.5599391 39.2129297,40.3689395 39.2278559,40.1779399 C39.247481,39.9897044 39.2751221,39.802851 39.3016575,39.6165503 L39.1913697,39.5972016 C39.1579241,39.8097612 38.9517219,39.8216469 38.7701203,39.8183299 L34.9642253,39.8183299 C34.7920216,39.8202648 34.605721,39.810314 34.5393825,39.6060467 L34.4199732,39.6060467 C34.4183147,39.8081027 34.4039414,40.0043541 34.3751947,40.1989471 C34.3552931,40.4004503 34.320189,40.5936611 34.2922716,40.7857664 L34.4492727,40.7857664 C34.5451871,40.276342 34.6084851,40.1110486 35.1555013,40.1190645 L35.1555013,40.1829153 C34.6140133,40.1923132 34.6258989,40.2840815 34.506766,40.8236346 L34.5015142,40.8485115 L34.2195756,40.8485115 L34.2239982,40.8123018 C34.2546797,40.6069288 34.2906131,40.4018323 34.3118967,40.191484 C34.341749,39.9872167 34.3552931,39.7846079 34.3552931,39.5753652 L34.3552931,39.5430252 L34.5872015,39.5430252 L34.5932825,39.5659672 C34.6444184,39.7500566 34.7773718,39.7514386 34.9642253,39.7547555 L38.7701203,39.7547555 C38.9721763,39.7514386 39.119503,39.7486745 39.1324943,39.5582277 L39.1335999,39.5231236 L39.1675984,39.5297575 L39.3749062,39.5623739 L39.3699308,39.5947139 C39.3398021,39.7906889 39.3121611,39.9872167 39.2900482,40.1829153 C39.2751221,40.3786138 39.2751221,40.5751416 39.2751221,40.7722223 L39.2751221,40.7943351 L39.2538385,40.8029038 L38.9953947,40.8974362 L38.9942891,40.8551454 C38.9752168,40.5803934 38.9461937,40.1829153 38.4845883,40.1829153 L37.3186892,40.1829153 L37.3186892,44.0366292 C37.3261523,44.5872388 37.5447929,44.6259363 37.8927936,44.6328465 L38.0630624,44.6328465 L38.0630624,44.9150615 L38.0326573,44.9150615" id="Fill-30" fill="#9B9B9B" sketch:type="MSShapeGroup"></path>
                <path d="M39.6081966,44.6643573 L39.7104685,44.6643573 C39.9736112,44.6643573 40.2500216,44.6284239 40.2500216,44.2483596 L40.2500216,40.4228395 C40.2500216,40.0422224 39.9736112,40.0060126 39.7104685,40.0060126 L39.6081966,40.0060126 L39.6081966,39.7865427 C39.8931758,39.7865427 40.330457,39.8155658 40.6878557,39.8155658 C41.0538231,39.8155658 41.49221,39.7865427 41.8360646,39.7865427 L41.8360646,40.0060126 L41.7335163,40.0060126 C41.4695443,40.0060126 41.1920283,40.0422224 41.1920283,40.4228395 L41.1920283,44.2483596 C41.1920283,44.6284239 41.4695443,44.6643573 41.7335163,44.6643573 L41.8360646,44.6643573 L41.8360646,44.8838272 C41.4852997,44.8838272 41.0466364,44.8556333 40.6820511,44.8556333 C40.3235468,44.8556333 39.8931758,44.8838272 39.6081966,44.8838272 L39.6081966,44.6643573" id="Fill-31" fill="#9B9B9B" sketch:type="MSShapeGroup"></path>
                <path d="M41.8360646,44.9150615 C41.4830885,44.9150615 41.04636,44.8846564 40.6820511,44.8846564 C40.3246524,44.8846564 39.8934522,44.9150615 39.6081966,44.9150615 L39.5769622,44.9150615 L39.5769622,44.6328465 L39.7107449,44.6328465 C39.9738876,44.6284239 40.2165759,44.6052055 40.2182344,44.2483596 L40.2182344,40.4228395 C40.2165759,40.0659937 39.9738876,40.0422224 39.7107449,40.0375234 L39.5769622,40.0375234 L39.5769622,39.7547555 L39.6081966,39.7547555 C39.8934522,39.7547555 40.3326683,39.7832258 40.6878557,39.7832258 C41.0518882,39.7832258 41.4899987,39.7547555 41.8360646,39.7547555 L41.8664697,39.7547555 L41.8664697,40.0375234 L41.7337927,40.0375234 C41.4665038,40.0422224 41.2263032,40.0659937 41.2238155,40.4228395 L41.2238155,44.2483596 C41.2263032,44.6052055 41.4665038,44.6284239 41.7337927,44.6328465 L41.8664697,44.6328465 L41.8664697,44.9150615 L41.8360646,44.9150615 L41.8360646,44.9150615 Z M41.8028953,44.85204 L41.8028953,44.6972501 L41.7337927,44.6972501 C41.4717556,44.6972501 41.1618996,44.651366 41.1618996,44.2483596 L41.1618996,40.4228395 C41.1618996,40.0190039 41.4717556,39.973949 41.7337927,39.9733962 L41.8028953,39.9733962 L41.8028953,39.8180535 C41.4662274,39.8202648 41.0433195,39.8468002 40.6878557,39.8468002 C40.341237,39.8468002 39.9233045,39.8202648 39.6399838,39.8180535 L39.6399838,39.9733962 L39.7107449,39.9733962 C39.9700179,39.973949 40.281256,40.0190039 40.2820852,40.4228395 L40.2820852,44.2483596 C40.281256,44.651366 39.9700179,44.6972501 39.7107449,44.6972501 L39.6399838,44.6972501 L39.6399838,44.85204 C39.9213696,44.848723 40.3343268,44.8232933 40.6820511,44.8232933 C41.0361328,44.8232933 41.4584879,44.8501051 41.8028953,44.85204 L41.8028953,44.85204 Z" id="Fill-32" fill="#9B9B9B" sketch:type="MSShapeGroup"></path>
                <path d="M44.7477718,39.6770842 C46.3045153,39.6770842 47.5453216,40.642033 47.5453216,42.1973944 C47.5453216,43.8771404 46.3401722,44.9935621 44.7853637,44.9935621 C43.2366361,44.9935621 42.0541524,43.9418205 42.0541524,42.3715329 C42.0541524,40.8534869 43.2294494,39.6770842 44.7477718,39.6770842 M44.8580596,44.6720968 C46.2752158,44.6720968 46.5223267,43.4224453 46.5223267,42.3577124 C46.5223267,41.2904918 45.9468402,39.9985495 44.7339513,39.9985495 C43.4563824,39.9985495 43.0763181,41.1379132 43.0763181,42.1155769 C43.0763181,43.4224453 43.6755759,44.6720968 44.8580596,44.6720968" id="Fill-33" fill="#9B9B9B" sketch:type="MSShapeGroup"></path>
                <path d="M42.0215359,42.3715329 C42.0245765,40.8357967 43.2134176,39.6477847 44.7474954,39.645297 L44.7474954,39.7091478 C43.2463105,39.7091478 42.0851103,40.8695187 42.0834519,42.3715329 C42.0864924,43.9241302 43.2518387,44.9601164 44.7856401,44.9606693 C46.3246933,44.9601164 47.5124288,43.8597266 47.5143637,42.1962887 C47.5129816,40.6602761 46.2918004,39.7105299 44.7474954,39.7091478 L44.7474954,39.645297 C46.3152953,39.6469555 47.5737919,40.6213022 47.576556,42.1962887 C47.5748976,43.8934487 46.3553748,45.0214796 44.7856401,45.0242437 C43.2236448,45.0214796 42.0245765,43.9592343 42.0215359,42.3715329 M43.0442545,42.1155769 C43.0464658,41.1329379 43.429847,39.9659331 44.7336749,39.9659331 C45.973652,39.9686972 46.5519026,41.2846872 46.5543903,42.3577124 C46.5519026,43.4224453 46.3014748,44.7019491 44.858336,44.7019491 L44.858336,44.6400332 C46.2467455,44.6389275 46.4880518,43.4224453 46.4902631,42.3577124 C46.4902631,41.2998897 45.9205812,40.0322716 44.7336749,40.0303367 C43.4809829,40.0317188 43.1108694,41.1428886 43.1075525,42.1155769 C43.1081053,43.4163643 43.7018348,44.6380983 44.858336,44.6400332 L44.858336,44.7019491 C43.6462764,44.7008435 43.0464658,43.4301848 43.0442545,42.1155769" id="Fill-34" fill="#9B9B9B" sketch:type="MSShapeGroup"></path>
                <path d="M52.4659798,43.4445581 L52.4811824,43.4301848 L52.4811824,40.6926161 C52.4811824,40.0933583 52.0635263,40.0057362 51.8446092,40.0057362 L51.6856732,40.0057362 L51.6856732,39.7865427 C52.0278693,39.7865427 52.3645372,39.8155658 52.7067333,39.8155658 C53.006915,39.8155658 53.3062675,39.7865427 53.6058964,39.7865427 L53.6058964,40.0057362 L53.4961614,40.0057362 C53.1901751,40.0057362 52.8454913,40.0640588 52.8454913,40.9330931 L52.8454913,44.2555463 C52.8454913,44.5115023 52.8532308,44.7669056 52.8902698,44.9935621 L52.6124773,44.9935621 L48.8510844,40.8012454 L48.8510844,43.8105255 C48.8510844,44.4462695 48.9757455,44.6643573 49.5368587,44.6643573 L49.6620726,44.6643573 L49.6620726,44.8838272 C49.3477939,44.8838272 49.0343445,44.8553569 48.7203423,44.8553569 C48.3914139,44.8553569 48.0552989,44.8838272 47.7266469,44.8838272 L47.7266469,44.6643573 L47.8291951,44.6643573 C48.3339205,44.6643573 48.4862227,44.3210556 48.4862227,43.7386588 L48.4862227,40.6619345 C48.4862227,40.2533999 48.1514897,40.0057362 47.8211792,40.0057362 L47.7266469,40.0057362 L47.7266469,39.7865427 C48.0041629,39.7865427 48.2885892,39.8155658 48.5666581,39.8155658 C48.7852988,39.8155658 48.9959235,39.7865427 49.2159462,39.7865427 L52.4659798,43.4445581" id="Fill-35" fill="#9B9B9B" sketch:type="MSShapeGroup"></path>
                <path d="M52.8905462,45.0242437 L52.5884296,45.0140165 L48.8825952,40.8841685 L48.8825952,43.8105255 C48.8911639,44.4462695 48.9876312,44.625107 49.5360294,44.6314645 L49.693307,44.6314645 L49.693307,44.9150615 L49.662349,44.9150615 C49.3461355,44.9150615 49.0326861,44.885762 48.7203423,44.885762 C48.3930724,44.885762 48.0569573,44.9150615 47.7258176,44.9150615 L47.6959653,44.9150615 L47.6959653,44.6314645 L47.8289187,44.6314645 C48.3101493,44.6300824 48.4489073,44.3199499 48.4547119,43.7383824 L48.4547119,40.6619345 C48.4544355,40.2727487 48.1351815,40.0375234 47.8214556,40.0375234 L47.6959653,40.0375234 L47.6959653,39.7547555 L47.7258176,39.7547555 C48.0058214,39.7547555 48.2905241,39.7832258 48.5663817,39.7832258 C48.7830875,39.7832258 48.992883,39.7547555 49.2405467,39.7660884 L52.4491188,43.3784961 L52.4491188,40.6926161 C52.4466311,40.112707 52.0577216,40.0422224 51.8446092,40.0375234 L51.6522276,40.0375234 L51.6522276,39.7547555 L51.6856732,39.7547555 C52.0286985,39.7547555 52.3656428,39.7832258 52.7059041,39.7832258 C53.0047037,39.7832258 53.3026741,39.7547555 53.6061728,39.7547555 L53.6368543,39.7547555 L53.6368543,40.0375234 L53.495885,40.0375234 C53.1948741,40.0452629 52.8841888,40.0729039 52.8781077,40.9330931 L52.8781077,44.2555463 C52.8781077,44.5112259 52.8839124,44.7660763 52.9192929,44.9883103 L52.9256503,45.0242437 L52.8905462,45.0242437 L52.8905462,45.0242437 Z M52.6124773,44.9606693 L52.8518488,44.9606693 C52.8208908,44.740923 52.8137041,44.4985111 52.8137041,44.2555463 L52.8137041,40.9330931 C52.8137041,40.0552137 53.1824356,39.975331 53.495885,39.9733962 L53.5749384,39.9733962 L53.5749384,39.8180535 C53.2849839,39.8202648 52.9977935,39.8468002 52.7059041,39.8468002 C52.3733823,39.8468002 52.0469416,39.8202648 51.7163548,39.8180535 L51.7163548,39.9733962 L51.8446092,39.9733962 C52.0701601,39.975331 52.5110347,40.0751152 52.5110347,40.6926161 L52.5032952,43.4531269 L52.4891983,43.4672238 L52.4659798,43.4912715 L49.2162226,39.8180535 C49.0000696,39.8180535 48.78751,39.8468002 48.5663817,39.8468002 C48.297158,39.8468002 48.0229588,39.8202648 47.7573284,39.8180535 L47.7573284,39.9733962 L47.8214556,39.9733962 C48.1647574,39.975331 48.5174571,40.2343276 48.5174571,40.6619345 L48.5174571,43.7383824 C48.5174571,44.322714 48.3543749,44.6958681 47.8289187,44.697803 L47.7573284,44.6972501 L47.7573284,44.8523164 C48.0743712,44.8501051 48.3994298,44.8232933 48.7203423,44.8232933 C49.0249466,44.8232933 49.327616,44.8501051 49.6302854,44.8523164 L49.6302854,44.697803 L49.5360294,44.697803 C48.9630306,44.6972501 48.8192972,44.4462695 48.8192972,43.8105255 L48.8192972,40.7194279 L52.6124773,44.9606693 L52.6124773,44.9606693 Z M52.4659798,43.4445581 L52.4891983,43.423551 L52.4659798,43.4445581 L52.4659798,43.4445581 Z M52.4491188,43.4301848 L52.4491188,43.4282499 L52.4433142,43.4227217 L52.4491188,43.4301848 L52.4491188,43.4301848 Z" id="Fill-36" fill="#9B9B9B" sketch:type="MSShapeGroup"></path>
                <path d="M54.7789822,43.839825 C54.7073919,44.0872124 54.6192169,44.2790412 54.6192169,44.4086777 C54.6192169,44.6284239 54.9268617,44.6646337 55.1662331,44.6646337 L55.2477742,44.6646337 L55.2477742,44.8838272 C54.955332,44.8680718 54.6557031,44.8556333 54.3632609,44.8556333 C54.1003946,44.8556333 53.8378047,44.8680718 53.576044,44.8838272 L53.576044,44.6646337 L53.6175056,44.6646337 C53.9038668,44.6646337 54.1457259,44.4962998 54.2524203,44.1894842 L55.4232948,40.8388372 C55.5175508,40.567955 55.649675,40.2030932 55.6916893,39.932211 C55.9263618,39.8523284 56.2176984,39.7072129 56.3583913,39.6184852 C56.3788456,39.6110221 56.3934954,39.603559 56.416161,39.603559 C56.4374446,39.603559 56.4512652,39.603559 56.4661913,39.6265011 C56.4883041,39.6842709 56.5101406,39.7500566 56.5322534,39.8083792 L57.8758844,43.6280947 C57.9629537,43.8829451 58.0511286,44.152998 58.1464902,44.3732971 C58.2341123,44.5781172 58.3872437,44.6646337 58.6279972,44.6646337 L58.6730521,44.6646337 L58.6730521,44.8838272 C58.3438473,44.8680718 58.0149189,44.8556333 57.664154,44.8556333 C57.3070318,44.8556333 56.9413408,44.8680718 56.5684632,44.8838272 L56.5684632,44.6646337 L56.6494514,44.6646337 C56.8164033,44.6646337 57.1027645,44.6356106 57.1027645,44.4529033 C57.1027645,44.3586474 57.0372552,44.1612903 56.9557142,43.9266179 L56.6710114,43.0799728 L55.0136546,43.0799728 L54.7789822,43.839825 L54.7789822,43.839825 Z M55.8467556,40.6047176 L55.8321058,40.6047176 L55.151307,42.6714382 L56.5189857,42.6714382 L55.8467556,40.6047176 L55.8467556,40.6047176 Z" id="Fill-37" fill="#9B9B9B" sketch:type="MSShapeGroup"></path>
                <path d="M58.6697351,44.9150615 C58.3405303,44.9020703 58.0127076,44.885762 57.6644305,44.885762 C57.3081374,44.885762 56.94217,44.9020703 56.5701216,44.9150615 L56.5377816,44.91672 L56.5377816,44.6328465 L56.6488986,44.6328465 C56.8186146,44.6328465 57.0701481,44.5935962 57.0704245,44.4529033 C57.0723594,44.3697038 57.0062973,44.1704119 56.9242034,43.9373979 L56.6472401,43.1112072 L55.0352146,43.1112072 L54.8096637,43.849223 C54.7361385,44.0993744 54.6498985,44.290374 54.6507277,44.4086777 C54.6507277,44.5875152 54.9246504,44.6328465 55.1659567,44.6328465 L55.2776265,44.6328465 L55.2776265,44.91672 L55.2447337,44.9150615 C54.9531207,44.9020703 54.6540446,44.885762 54.3632609,44.885762 C54.1015002,44.885762 53.8394632,44.9020703 53.576044,44.9150615 L53.5442568,44.91672 L53.5442568,44.6328465 L53.6175056,44.6328465 C53.8897699,44.6314645 54.117532,44.475569 54.2245029,44.179257 L55.3923369,40.8275044 C55.48604,40.557175 55.6178878,40.1939717 55.682015,39.9031879 C55.9114356,39.8235817 56.2047071,39.6770842 56.346782,39.5889093 C56.3655779,39.5817226 56.3860323,39.5728775 56.4158846,39.5728775 C56.4346805,39.571219 56.4731016,39.575918 56.4954908,39.6157211 C56.5176037,39.6732145 56.5391637,39.739553 56.562935,39.7984284 L57.9057367,43.6175911 C57.9936353,43.8732707 58.0807045,44.1430473 58.1755133,44.3608587 C58.2614769,44.5540695 58.3936011,44.6309116 58.6271679,44.6328465 L58.702628,44.6328465 L58.702628,44.91672 L58.6697351,44.9150615 L58.6697351,44.9150615 Z M56.5996975,44.8506579 C56.960966,44.8373902 57.3161533,44.8232933 57.6644305,44.8232933 C58.0038624,44.8232933 58.321458,44.8373902 58.6401592,44.8501051 L58.63933,44.6972501 L58.6271679,44.6972501 C58.3797806,44.697803 58.2075769,44.6005065 58.1163615,44.3851828 C58.0201707,44.1646073 57.9333778,43.8934487 57.8457557,43.6385983 L56.5021247,39.8183299 C56.4805647,39.7600073 56.4573462,39.6947745 56.4402087,39.6441914 C56.4341277,39.6356227 56.4346805,39.6356227 56.430258,39.6356227 L56.4158846,39.6356227 C56.4001292,39.6356227 56.3921133,39.640598 56.3746995,39.6455734 C56.2317953,39.734854 55.9396295,39.8813515 55.7240294,39.93691 C55.678698,40.2135968 55.5460211,40.5779057 55.4520415,40.8490644 L54.2825491,44.1999878 C54.1714321,44.517307 53.9163053,44.697803 53.6175056,44.6972501 L53.6067256,44.6972501 L53.6067256,44.8501051 C53.8582591,44.8373902 54.1092397,44.8232933 54.3632609,44.8232933 C54.6460287,44.8232933 54.9348776,44.8373902 55.2154342,44.8501051 L55.2154342,44.6972501 L55.1659567,44.6972501 C54.9285202,44.6939332 54.595722,44.6687799 54.5863241,44.4086777 C54.588259,44.2643914 54.6780924,44.0780908 54.7496826,43.8307035 L54.7789822,43.839825 L54.7496826,43.8298743 L54.9898833,43.0495677 L56.6920186,43.0495677 L56.9852901,43.9166671 C57.0657255,44.151616 57.1323404,44.3462089 57.1323404,44.4529033 C57.1218368,44.6765194 56.8147448,44.693104 56.6488986,44.6972501 L56.5996975,44.6972501 L56.5996975,44.8506579 L56.5996975,44.8506579 Z M55.1076341,42.7026726 L55.8088874,40.5723775 L55.8467556,40.5723775 L55.8467556,40.6047176 L55.8384633,40.6069288 L55.8467556,40.6047176 L55.8467556,40.5723775 L55.8688684,40.5723775 L56.5593416,42.7026726 L55.1076341,42.7026726 L55.1076341,42.7026726 Z M55.1958091,42.6390982 L56.473378,42.6390982 L55.8381869,40.6834945 L55.1958091,42.6390982 L55.1958091,42.6390982 Z M55.8163504,40.6141155 L55.8307238,40.6088637 L55.8163504,40.6141155 L55.8163504,40.6141155 Z" id="Fill-38" fill="#9B9B9B" sketch:type="MSShapeGroup"></path>
                <path d="M60.9495682,44.5781172 C61.2483679,44.5999537 61.5772963,44.5999537 61.9142406,44.5626383 C62.2205033,44.5258757 62.4833696,44.3517371 62.6143881,44.1676478 C62.7304805,44.0073297 62.7962662,43.802786 62.8410447,43.642468 L63.0522222,43.642468 C62.9717868,44.0587421 62.8697914,44.4681059 62.7821693,44.8838272 C62.1408971,44.8838272 61.496308,44.8556333 60.8547594,44.8556333 C60.2115524,44.8556333 59.569451,44.8838272 58.9270732,44.8838272 L58.9270732,44.6643573 L59.0282394,44.6643573 C59.2916586,44.6643573 59.5774669,44.6284239 59.5774669,44.1756637 L59.5774669,40.4228395 C59.5774669,40.0422224 59.2916586,40.0057362 59.0282394,40.0057362 L58.9270732,40.0057362 L58.9270732,39.7865427 C59.313495,39.7865427 59.6938357,39.8155658 60.0802575,39.8155658 C60.4534115,39.8155658 60.8177205,39.7865427 61.1911509,39.7865427 L61.1911509,40.0057362 L61.0076144,40.0057362 C60.7300984,40.0057362 60.5122869,40.0134757 60.5122869,40.4004503 L60.5122869,44.1676478 C60.5122869,44.4611956 60.7151722,44.5477121 60.9495682,44.5781172 Z" id="Fill-39" fill="#9B9B9B" sketch:type="MSShapeGroup"></path>
                <path d="M62.7824457,44.9150615 C62.1384094,44.9150615 61.4952024,44.885762 60.8547594,44.885762 C60.2123816,44.885762 59.5697274,44.9150615 58.9256912,44.9150615 L58.8950096,44.9150615 L58.8950096,44.6328465 L59.0282394,44.6328465 C59.2922114,44.6264891 59.5429156,44.6079696 59.5459561,44.1756637 L59.5459561,40.4214575 C59.5429156,40.0659937 59.293317,40.0422224 59.0282394,40.0375234 L58.8950096,40.0375234 L58.8950096,39.7547555 L58.9256912,39.7547555 C59.3146006,39.7547555 59.6946649,39.7832258 60.0797046,39.7832258 C60.4514767,39.7832258 60.8152328,39.7547555 61.1911509,39.7547555 L61.2204504,39.7547555 L61.2204504,40.0375234 L61.0076144,40.0375234 C60.7242937,40.0447101 60.5484967,40.0319952 60.5421393,40.4004503 L60.5421393,44.1676478 C60.5440741,44.4407413 60.7229117,44.5137136 60.9512267,44.5463301 C61.0797575,44.5551752 61.2157514,44.5598742 61.3561679,44.5598742 C61.5347291,44.5598742 61.7202005,44.5515818 61.9089888,44.5316803 C62.2064064,44.4962998 62.4623624,44.3243725 62.588682,44.1502339 C62.7014574,43.994062 62.7650318,43.7939409 62.8092575,43.6350049 L62.8153385,43.6109572 L63.0906433,43.6109572 L63.0842858,43.6493783 C63.0016391,44.066758 62.9010257,44.4741869 62.8125744,44.890461 L62.8067698,44.9150615 L62.7824457,44.9150615 L62.7824457,44.9150615 Z M62.7556339,44.85204 C62.8402154,44.455391 62.935577,44.0675872 63.0146304,43.6737024 L62.8639867,43.6737024 C62.8192083,43.8326384 62.7539754,44.0286133 62.6395415,44.1875493 C62.5029947,44.3766141 62.2326654,44.5551752 61.915899,44.5944255 C61.7248994,44.6137742 61.5350055,44.623725 61.3561679,44.623725 C61.2146458,44.623725 61.0780991,44.6173675 60.9451457,44.6079696 C60.7077091,44.581987 60.4780121,44.4799916 60.4782885,44.1676478 L60.4782885,40.4004503 C60.4782885,39.9944034 60.7350737,39.9733962 61.0076144,39.9733962 L61.1579817,39.9733962 L61.1579817,39.8180535 C60.7983717,39.8202648 60.4431843,39.8476294 60.0797046,39.8476294 C59.7024044,39.8476294 59.3322909,39.8202648 58.958584,39.8180535 L58.958584,39.9733962 L59.0282394,39.9733962 C59.288618,39.9733962 59.6073193,40.0190039 59.6073193,40.4214575 L59.6073193,44.1756637 C59.6073193,44.6483255 59.2900001,44.6972501 59.0282394,44.6972501 L58.958584,44.6972501 L58.958584,44.85204 C59.5893526,44.8506579 60.220674,44.8232933 60.8547594,44.8232933 C61.4896742,44.8232933 62.1234832,44.8506579 62.7556339,44.85204 L62.7556339,44.85204 Z" id="Fill-40" fill="#9B9B9B" sketch:type="MSShapeGroup"></path>
                <path d="M62.9632181,39.5795113 C63.4038163,39.5795113 63.7324683,39.9178377 63.7324683,40.3501436 C63.7324683,40.782173 63.4038163,41.1169061 62.9632181,41.1169061 C62.5237255,41.1169061 62.1945207,40.782173 62.1945207,40.3501436 C62.1945207,39.9178377 62.5237255,39.5795113 62.9632181,39.5795113 L62.9632181,39.5795113 Z M62.9632181,40.9740019 C63.3081783,40.9740019 63.5715974,40.6807304 63.5715974,40.3501436 C63.5715974,40.0190039 63.3112188,39.7235212 62.9632181,39.7235212 C62.6171522,39.7235212 62.3540095,40.0190039 62.3540095,40.3501436 C62.3540095,40.6807304 62.6171522,40.9740019 62.9632181,40.9740019 L62.9632181,40.9740019 Z M62.5809425,40.7556376 L62.5809425,40.7183222 C62.674922,40.7047781 62.6926123,40.7072658 62.6926123,40.6497725 L62.6926123,40.0798142 C62.6926123,39.9996552 62.6845964,39.9720141 62.583983,39.9764367 L62.583983,39.9371864 L62.9775914,39.9371864 C63.1127561,39.9371864 63.2374172,40.0018664 63.2374172,40.1417301 C63.2374172,40.2558876 63.1622336,40.3407456 63.0555392,40.3736385 L63.1821351,40.5499883 C63.2410105,40.6295945 63.3081783,40.7047781 63.3512983,40.7313135 L63.3512983,40.7556376 L63.2017603,40.7556376 C63.1298936,40.7556376 63.0663192,40.6047176 62.9253499,40.4021087 L62.8402154,40.4021087 L62.8402154,40.6569591 C62.8402154,40.7072658 62.8579057,40.7047781 62.9524381,40.7183222 L62.9524381,40.7556376 L62.5809425,40.7556376 L62.5809425,40.7556376 Z M62.8402154,40.3501436 L62.9308781,40.3501436 C63.0301094,40.3501436 63.0759935,40.2752363 63.0759935,40.1538922 C63.0759935,40.0317188 63.0052325,39.9883223 62.9259027,39.9883223 L62.8402154,39.9883223 L62.8402154,40.3501436 L62.8402154,40.3501436 Z" id="Fill-41" fill="#9B9B9B" sketch:type="MSShapeGroup"></path>
                <path d="M17.3538414,14.0065727 C17.3538414,7.176195 22.8908948,1.63914161 29.7209961,1.63914161 C36.5513739,1.63914161 42.0884273,7.176195 42.0884273,14.0065727 C42.0884273,20.8369504 36.5513739,26.3742803 29.7209961,26.3742803 C22.8908948,26.3742803 17.3538414,20.8369504 17.3538414,14.0065727" id="Fill-42" fill="#FFFFFF" sketch:type="MSShapeGroup"></path>
                <path d="M37.2003855,13.7630552 C37.1954101,10.5959446 35.2157587,7.89486208 32.4262249,6.82515378 L32.4262249,20.7004037 C35.2157587,19.6293134 37.1954101,16.9307185 37.2003855,13.7630552 L37.2003855,13.7630552 Z M27.1047716,20.6976396 L27.1047716,6.82653583 C24.3177254,7.89956106 22.3411145,10.5967739 22.3336514,13.7630552 C22.3411145,16.9285072 24.3177254,19.6254436 27.1047716,20.6976396 L27.1047716,20.6976396 Z M29.7668803,2.03523773 C23.2900315,2.03772542 18.0426562,7.28620635 18.0415505,13.7630552 C18.0426562,20.2390747 23.2900315,25.4867264 29.7668803,25.4878321 C36.2437291,25.4867264 41.49221,20.2390747 41.4938685,13.7630552 C41.49221,7.28620635 36.2437291,2.03772542 29.7668803,2.03523773 L29.7668803,2.03523773 Z M29.7381336,26.5945794 C22.6506942,26.6283014 16.8173288,20.8864279 16.8173288,13.8968378 C16.8173288,6.25795961 22.6506942,0.974374563 29.7381336,0.975756615 L33.0594811,0.975756615 C40.0631682,0.974374563 46.455159,6.25547192 46.455159,13.8968378 C46.455159,20.8839402 40.0631682,26.5945794 33.0594811,26.5945794 L29.7381336,26.5945794 L29.7381336,26.5945794 Z" id="Fill-43" fill="#9B9B9B" sketch:type="MSShapeGroup"></path>
            </g>
        </g>
    </g>
</svg>