<?xml version="1.0" encoding="UTF-8" standalone="no"?>
<svg width="71px" height="33px" viewBox="0 0 71 33" version="1.1" xmlns="http://www.w3.org/2000/svg" xmlns:xlink="http://www.w3.org/1999/xlink" xmlns:sketch="http://www.bohemiancoding.com/sketch/ns">
    <!-- Generator: Sketch 3.3.3 (12081) - http://www.bohemiancoding.com/sketch -->
    <title>Payment/Apple/Apple-alt</title>
    <desc>Created with Sketch.</desc>
    <defs></defs>
    <g id="Icons:-Payment" stroke="none" stroke-width="1" fill="none" fill-rule="evenodd" sketch:type="MSPage">
        <g id="Apple-alt" sketch:type="MSArtboardGroup" transform="translate(-13.000000, -13.000000)" fill="#FFFFFF">
            <g id="Payment/Apple/Apple-alt" sketch:type="MSLayerGroup" transform="translate(13.000000, 13.000000)">
                <path d="M18.8863275,13.9583905 C18.9233184,17.7827367 22.3852633,19.0551213 22.4235752,19.0714675 C22.394511,19.1616982 21.8706945,20.8852367 20.5997954,22.6663136 C19.5013,24.2054675 18.3605294,25.7393905 16.5651532,25.771429 C14.8001624,25.8028136 14.2327495,24.768429 12.2147679,24.768429 C10.1974468,24.768429 9.56662111,25.7393905 7.896089,25.8028136 C6.16280459,25.8655829 4.84236423,24.1374675 3.73462111,22.6035444 C1.47091469,19.4657367 -0.259066965,13.7373905 2.064089,9.87054439 C3.21807065,7.95019824 5.27964863,6.73404439 7.51825414,6.70331362 C9.22049267,6.67192901 10.8276119,7.80112132 11.8686395,7.80112132 C12.9083459,7.80112132 14.8615936,6.44308286 16.9145844,6.64250593 C17.7739606,6.67715978 20.1862908,6.97531362 21.7352817,9.14935209 C21.6097771,9.22389055 18.8559422,10.7610829 18.8863275,13.9583905 M15.5690431,4.56654439 C16.4891899,3.49815978 17.1094468,2.01131362 16.9403459,0.531659778 C15.6133,0.582659778 14.0088229,1.37904439 13.0576303,2.44677516 C12.2041991,3.3922367 11.4577771,4.9052367 11.659245,6.35612132 C13.1382174,6.46596747 14.6488963,5.63558286 15.5690431,4.56654439" id="path2997" sketch:type="MSShapeGroup"></path>
                <path d="M28.8915098,2.73792103 C29.5738874,2.62418576 30.3257727,2.5220825 31.1491705,2.43096504 C31.9719001,2.33984758 32.8768358,2.29461196 33.8653142,2.29461196 C35.2761851,2.29461196 36.4925684,2.45939886 37.5151323,2.78897266 C38.5383646,3.11854646 39.3784711,3.59028936 40.03612,4.20420135 C40.6008694,4.74961368 41.0426437,5.39712927 41.3594381,6.14739434 C41.6762324,6.89765941 41.8339612,7.76165976 41.8339612,8.73939538 C41.8339612,9.92133751 41.6174182,10.9559408 41.1823273,11.8425589 C40.7479047,12.7291771 40.1544166,13.4736261 39.401863,14.0759061 C38.6486411,14.6781861 37.7557356,15.1266649 36.7211415,15.4226351 C35.6858791,15.7179591 34.557717,15.8659442 33.3346503,15.8659442 C32.2298803,15.8659442 31.3015526,15.7864588 30.5496674,15.6274879 L30.5496674,25.4487872 L28.8915098,25.4487872 L28.8915098,2.73792103 L28.8915098,2.73792103 Z M30.5496674,14.1961036 C30.9493362,14.3091927 31.3957889,14.3886781 31.889694,14.4339137 C32.383599,14.4791493 32.9122579,14.5017672 33.4763389,14.5017672 C35.5923111,14.5017672 37.2324235,14.0242083 38.3960077,13.0697367 C39.5595919,12.1152651 40.1417181,10.7168382 40.1417181,8.87574846 C40.1417181,7.98913031 39.989336,7.2156012 39.6839036,6.55645359 C39.3778027,5.89665976 38.9433801,5.35706344 38.3792991,4.93637217 C37.8152181,4.5156809 37.1448706,4.19773912 36.368925,3.98125436 C35.5923111,3.76541583 34.7341594,3.65749657 33.7931332,3.65749657 C33.041248,3.65749657 32.3942925,3.68593039 31.8536035,3.74279802 C31.3129144,3.79966566 30.8778235,3.8623493 30.548999,3.93020273 L30.548999,14.1961036 L30.5496674,14.1961036 Z" id="path2995" sketch:type="MSShapeGroup"></path>
                <path d="M55.0196893,21.561755 C55.0196893,22.2209026 55.0310511,22.8806965 55.0544431,23.5398441 C55.0778351,24.1989917 55.148011,24.8348752 55.2663076,25.4487872 L53.7144165,25.4487872 L53.4677981,23.1301386 L53.3962855,23.1301386 C53.1850893,23.4487266 52.9144106,23.7666684 52.5855861,24.0846102 C52.2567616,24.402552 51.8744697,24.6927061 51.4400471,24.9544265 C51.0049562,25.2161469 50.5110511,25.4261694 49.9583319,25.5851403 C49.4056127,25.743465 48.8007628,25.8235967 48.1424455,25.8235967 C47.319716,25.8235967 46.5959011,25.6924134 45.9723376,25.4319854 C45.3494424,25.1702651 44.8381605,24.8290592 44.4384917,24.4090142 C44.0388229,23.9876767 43.7394055,23.504948 43.5395711,22.9595357 C43.3397367,22.4141233 43.2401537,21.868711 43.2401537,21.3226524 C43.2401537,19.3904452 44.0802601,17.9015471 45.7611414,16.8553118 C47.442691,15.8090766 49.9763772,15.3095461 53.3628684,15.3547817 L53.3628684,14.9114726 C53.3628684,14.4791493 53.3214311,13.9841424 53.239225,13.4270981 C53.1563505,12.8700537 52.9745614,12.3414432 52.6918525,11.8419127 C52.409812,11.3423822 51.9867513,10.9216909 51.4226702,10.5811313 C50.8585892,10.2399255 50.0940055,10.0693226 49.1302557,10.0693226 C48.401094,10.0693226 47.6786159,10.1772419 46.9614844,10.3930804 C46.244353,10.6089189 45.5920508,10.9100589 45.0045777,11.2965004 L44.4752505,10.1029262 C45.2271358,9.60339572 46.0037497,9.2453881 46.8024189,9.02954957 C47.6024248,8.81371104 48.4365162,8.70579177 49.3066981,8.70579177 C50.4823124,8.70579177 51.4407155,8.89901249 52.1812389,9.28545393 C52.9217623,9.67189537 53.5038886,10.1720721 53.9269494,10.7853379 C54.3500101,11.3992498 54.6387341,12.0868313 54.7911162,12.8487284 C54.9434982,13.6106254 55.021026,14.3667065 55.021026,15.1163254 L55.021026,21.561755 L55.0196893,21.561755 Z M53.3622,16.6853552 C52.4679578,16.6620911 51.5329467,16.696341 50.5571668,16.7874584 C49.5820551,16.8779297 48.6824662,17.0776126 47.8597367,17.3839224 C47.0363388,17.6908784 46.3552978,18.1400035 45.8146088,18.7312976 C45.2739198,19.3225918 45.0032411,20.1064605 45.0032411,21.0841961 C45.0032411,22.2428742 45.3440957,23.0958888 46.0264733,23.6413011 C46.7075143,24.1867134 47.4714297,24.4600658 48.3182196,24.4600658 C48.9999289,24.4600658 49.6114622,24.3695946 50.1521513,24.1867134 C50.6928403,24.0044785 51.1620167,23.7602062 51.5623538,23.4538964 C51.9626909,23.1475866 52.2968622,22.8005648 52.5675408,22.4141233 C52.8388879,22.0270357 53.044069,21.6302547 53.1857576,21.219903 C53.3033859,20.7649619 53.3628684,20.4353881 53.3628684,20.2298891 L53.3628684,16.6853552 L53.3622,16.6853552 Z" id="path2998" sketch:type="MSShapeGroup"></path>
                <path d="M58.2618185,9.07995497 L62.5632704,19.7193728 C62.7991953,20.310667 63.0224217,20.918763 63.2342863,21.544307 C63.4461508,22.1685585 63.633955,22.7436971 63.7983673,23.2658454 L63.8692116,23.2658454 C64.0342922,22.766315 64.221428,22.2034546 64.4332926,21.5779106 C64.6451572,20.9530128 64.8804137,20.310667 65.1383939,19.650227 L69.1598104,9.07930875 L70.9222294,9.07930875 L66.0212742,21.0835499 C65.5267008,22.3559633 65.0628712,23.510764 64.6277802,24.544721 C64.1933577,25.5793243 63.7515833,26.5111781 63.3051306,27.3409286 C62.8580095,28.1706791 62.40621,28.9034962 61.9463904,29.5406722 C61.4885758,30.1765558 60.9759571,30.7342463 60.4125445,31.211159 C59.7548955,31.7791892 59.1487089,32.1947106 58.5959897,32.456431 C58.0439388,32.7181514 57.6736771,32.8829383 57.4852045,32.9507917 L56.9197868,31.6208645 C57.343516,31.4386296 57.814029,31.2001732 58.3313261,30.9048492 C58.8486231,30.608879 59.3545584,30.2230838 59.8477951,29.7455249 C60.2715242,29.3364657 60.7360222,28.7968693 61.2412891,28.1254435 C61.746556,27.4553101 62.1990238,26.6423614 62.5993609,25.6872436 C62.7403812,25.3234199 62.8112255,25.0843174 62.8112255,24.9705821 C62.8112255,24.8122574 62.7410495,24.5731549 62.5993609,24.2545669 L56.4973944,9.07930875 L58.2618185,9.07930875 L58.2618185,9.07995497 Z" id="path3000" sketch:type="MSShapeGroup"></path>
            </g>
        </g>
    </g>
</svg>