<?xml version="1.0" encoding="UTF-8" standalone="no"?>
<svg width="73px" height="23px" viewBox="0 0 73 23" version="1.1" xmlns="http://www.w3.org/2000/svg" xmlns:xlink="http://www.w3.org/1999/xlink" xmlns:sketch="http://www.bohemiancoding.com/sketch/ns">
    <!-- Generator: Sketch 3.3.3 (12081) - http://www.bohemiancoding.com/sketch -->
    <title>Payment/Amazon/Amazon</title>
    <desc>Created with Sketch.</desc>
    <defs></defs>
    <g id="Icons:-Payment" stroke="none" stroke-width="1" fill="none" fill-rule="evenodd" sketch:type="MSPage">
        <g id="Amazon" sketch:type="MSArtboardGroup" transform="translate(-13.000000, -18.000000)">
            <g id="Payment/Amazon/Amazon" sketch:type="MSLayerGroup" transform="translate(13.000000, 18.000000)">
                <path d="M45.2201027,17.6583529 C41.0390979,20.7377711 34.9789867,22.380752 29.7613439,22.380752 C22.4453669,22.380752 15.8591102,19.6768746 10.8763525,15.1797995 C10.4848732,14.8261654 10.8356372,14.3442259 11.3054147,14.6196194 C16.6827816,17.7459795 23.331679,19.6268027 30.1998028,19.6268027 C34.8317905,19.6268027 39.9272937,18.6691775 44.6125256,16.6819532 C45.3203217,16.3815208 45.9122389,17.1451171 45.2201027,17.6583529" id="path8" fill="#FF9900" sketch:type="MSShapeGroup"></path>
                <path d="M46.9582749,15.6711286 C46.4258602,14.9889005 43.4255589,15.3487919 42.0788683,15.5083959 C41.6685958,15.5584678 41.605961,15.2017062 41.9755159,14.9450859 C44.3651103,13.2645514 48.2861746,13.749622 48.7434232,14.3129296 C49.2006695,14.8793683 48.6244133,18.8068772 46.378883,20.6814383 C46.034381,20.9693512 45.7055377,20.8160081 45.8589996,20.4342088 C46.3632243,19.1761547 47.4938194,16.3564867 46.9582749,15.6711286" id="path10" fill="#FF9900" sketch:type="MSShapeGroup"></path>
                <path d="M42.1728241,3.08119707 L42.1728241,1.44760457 C42.1728241,1.20037509 42.3607344,1.03451255 42.5862265,1.03451255 L49.9053333,1.03451255 C50.1402233,1.03451255 50.3281336,1.20350495 50.3281336,1.44760457 L50.3281336,2.84648586 C50.3250037,3.08119707 50.1276956,3.38788682 49.776928,3.87295739 L45.9842715,9.28384318 C47.3936004,9.24942063 48.881224,9.45909412 50.1590142,10.1788771 C50.4471435,10.3416098 50.5254393,10.5794509 50.5473624,10.8141645 L50.5473624,12.5572891 C50.5473624,12.7951302 50.2842873,13.0736523 50.0086857,12.9296977 C47.7568921,11.7498795 44.7659863,11.6215705 42.2761741,12.9422159 C42.0224956,13.0799133 41.7562895,12.8045186 41.7562895,12.5666775 L41.7562895,10.9111783 C41.7562895,10.645172 41.7594193,10.1913942 42.0256254,9.78769054 L46.419597,3.49116043 L42.5956219,3.49116043 C42.3607344,3.49116043 42.1728241,3.32529908 42.1728241,3.08119707" id="path12" fill="#221F1F" sketch:type="MSShapeGroup"></path>
                <path d="M15.4738918,13.2739398 L13.2471548,13.2739398 C13.0341915,13.2582941 12.8650709,13.0986901 12.8494111,12.8952715 L12.8494111,1.47577216 C12.8494111,1.24731948 13.0404536,1.06580761 13.2784733,1.06580761 L15.3548819,1.06580761 C15.570981,1.07519005 15.7432302,1.24105856 15.7588913,1.44760457 L15.7588913,2.94037225 L15.7996053,2.94037225 C16.341413,1.49767644 17.3592591,0.824836667 18.7310063,0.824836667 C20.1246741,0.824836667 20.9953251,1.49767644 21.6216931,2.94037225 C22.1603698,1.49767644 23.3849183,0.824836667 24.6971605,0.824836667 C25.6304487,0.824836667 26.6514282,1.20976349 27.274664,2.07350234 C27.9793278,3.03425507 27.8352626,4.43000649 27.8352626,5.65363802 L27.8321316,12.860849 C27.8321316,13.0893017 27.6410891,13.2739398 27.4030693,13.2739398 L25.1794621,13.2739398 C24.9571034,13.2582941 24.7785885,13.0799133 24.7785885,12.860849 L24.7785885,6.80841849 C24.7785885,6.32647779 24.8224324,5.12475412 24.7159514,4.66784757 C24.5499642,3.90112498 24.0520015,3.68518818 23.4068414,3.68518818 C22.8681647,3.68518818 22.3044339,4.04507966 22.0758095,4.62090676 C21.8471852,5.19673266 21.8691083,6.16061286 21.8691083,6.80841849 L21.8691083,12.860849 C21.8691083,13.0893017 21.6780658,13.2739398 21.4400461,13.2739398 L19.2164413,13.2739398 C18.9909492,13.2582941 18.8155654,13.0799133 18.8155654,12.860849 L18.8124343,6.80841849 C18.8124343,5.53471748 19.0222654,3.66015284 17.4406884,3.66015284 C15.8403169,3.66015284 15.9029541,5.48777309 15.9029541,6.80841849 L15.9029541,12.860849 C15.9029541,13.0893017 15.7119116,13.2739398 15.4738918,13.2739398" id="path14" fill="#221F1F" sketch:type="MSShapeGroup"></path>
                <path d="M56.6293944,0.824836667 C59.9334848,0.824836667 61.7217642,3.66015284 61.7217642,7.26532385 C61.7217642,10.7484433 59.7455722,13.5117809 56.6293944,13.5117809 C53.3848076,13.5117809 51.618449,10.6764647 51.618449,7.14327345 C51.618449,3.5881743 53.4067308,0.824836667 56.6293944,0.824836667 M56.6481841,3.15630667 C55.0071022,3.15630667 54.9037498,5.39075921 54.9037498,6.78338315 C54.9037498,8.17913457 54.8818267,11.1584066 56.6293944,11.1584066 C58.3550377,11.1584066 58.4364658,8.75496167 58.4364658,7.290358 C58.4364658,6.32647779 58.3957518,5.17482599 58.1044891,4.26101408 C57.8539416,3.46612628 57.3559814,3.15630667 56.6481841,3.15630667" id="path16" fill="#221F1F" sketch:type="MSShapeGroup"></path>
                <path d="M66.0061213,13.2739398 L63.7887797,13.2739398 C63.5664174,13.2582941 63.3879026,13.0799133 63.3879026,12.860849 L63.3847728,1.43821617 C63.4035637,1.22854029 63.5883429,1.06580761 63.813835,1.06580761 L65.8777184,1.06580761 C66.0718907,1.07519005 66.2316146,1.20663482 66.2754621,1.38501563 L66.2754621,3.13126894 L66.3161737,3.13126894 C66.9394119,1.56965498 67.8131927,0.824836667 69.3509258,0.824836667 C70.3499822,0.824836667 71.3239856,1.18472815 71.9503536,2.17051622 C72.5328754,3.08432694 72.5328754,4.62090676 72.5328754,5.72561417 L72.5328754,12.9140507 C72.5078212,13.1143358 72.323042,13.2739398 72.1038155,13.2739398 L69.8708128,13.2739398 C69.6672415,13.2582941 69.4981221,13.1080785 69.4762013,12.9140507 L69.4762013,6.71140462 C69.4762013,5.46273894 69.6202654,3.63511631 68.0825311,3.63511631 C67.5407246,3.63511631 67.0427607,3.99813885 66.7953455,4.54892703 C66.4821632,5.24680453 66.4414492,5.94155097 66.4414492,6.71140462 L66.4414492,12.860849 C66.4383194,13.0893017 66.2441435,13.2739398 66.0061237,13.2739398" id="path18" fill="#221F1F" sketch:type="MSShapeGroup"></path>
                <path d="M36.3382062,7.81924309 C36.3382062,8.68611061 36.3601293,9.40902225 35.9216716,10.1788771 C35.5677741,10.8047761 35.0040433,11.1897029 34.3808075,11.1897029 C33.5258151,11.1897029 33.0247214,10.5387674 33.0247214,9.57801466 C33.0247214,7.68154574 34.7253095,7.33730239 36.3382062,7.33730239 L36.3382062,7.81924309 M38.5837354,13.2426448 C38.4365403,13.3740836 38.2235735,13.383472 38.0575863,13.2958477 C37.3184716,12.6824682 37.1838031,12.3976851 36.7797961,11.8124708 C35.5583787,13.0580066 34.6908575,13.430414 33.1092793,13.430414 C31.2333075,13.430414 29.7770026,12.2756335 29.7770026,9.96294387 C29.7770026,8.15722791 30.7541381,6.92733903 32.1509382,6.32647779 C33.359828,5.79446284 35.0478871,5.70058002 36.3382062,5.55349428 L36.3382062,5.26558133 C36.3382062,4.73669624 36.3789202,4.11079847 36.0657368,3.6538955 C35.7963985,3.24393095 35.2765115,3.07493854 34.816133,3.07493854 C33.9674027,3.07493854 33.2126317,3.50993723 33.0278513,4.41122968 C32.9902695,4.61151836 32.8430744,4.80867597 32.639503,4.81806437 L30.4816665,4.58648063 C30.3000194,4.54579955 30.0964505,4.39871142 30.1496922,4.12018926 C30.6445225,1.50393736 33.0121938,0.715304527 35.1293152,0.715304527 C36.2129331,0.715304527 37.628524,1.00321748 38.4835164,1.823143 C39.5671318,2.83396759 39.4637818,4.182777 39.4637818,5.65050815 L39.4637818,9.11798063 C39.4637818,10.1601015 39.8959751,10.6170045 40.3031143,11.1803145 C40.4440485,11.3805996 40.4753671,11.6215705 40.2937129,11.7717861 C39.8395964,12.1504556 39.0315814,12.8545905 38.5868604,13.2489057 L38.5837306,13.2426388" id="path28" fill="#221F1F" sketch:type="MSShapeGroup"></path>
                <path d="M7.14633312,7.81924309 C7.14633312,8.68611061 7.16825386,9.40902225 6.72979839,10.1788771 C6.37589856,10.8047761 5.81529992,11.1897029 5.1889319,11.1897029 C4.33393957,11.1897029 3.83597809,10.5387674 3.83597809,9.57801466 C3.83597809,7.68154574 5.53656611,7.33730239 7.14633312,7.33730239 L7.14633312,7.81924309 M9.39186109,13.2426448 C9.24466484,13.3740836 9.03169802,13.383472 8.86571086,13.2958477 C8.12659858,12.6824682 7.99505983,12.3976851 7.58792068,11.8124708 C6.36650311,13.0580066 5.5021177,13.430414 3.91740496,13.430414 C2.04456415,13.430414 0.585129311,12.2756335 0.585129311,9.96294387 C0.585129311,8.15722791 1.56539477,6.92733903 2.95906262,6.32647779 C4.16795241,5.79446284 5.85601395,5.70058002 7.14633312,5.55349428 L7.14633312,5.26558133 C7.14633312,4.73669624 7.18704715,4.11079847 6.87699477,3.6538955 C6.60452288,3.24393095 6.08463947,3.07493854 5.62738963,3.07493854 C4.77866293,3.07493854 4.02075616,3.50993723 3.83597809,4.41122968 C3.79839507,4.61151836 3.65119882,4.80867597 3.45076206,4.81806437 L1.28979318,4.58648063 C1.10814613,4.54579955 0.907708177,4.39871142 0.957817666,4.12018926 C1.45578034,1.50393736 3.8203182,0.715304527 5.93744322,0.715304527 C7.0210576,0.715304527 8.43664858,1.00321748 9.29164092,1.823143 C10.3752588,2.83396759 10.2719064,4.182777 10.2719064,5.65050815 L10.2719064,9.11798063 C10.2719064,10.1601015 10.7041021,10.6170045 11.1112412,11.1803145 C11.2553053,11.3805996 11.2866238,11.6215705 11.1049768,11.7717861 C10.6508604,12.1504556 9.84284649,12.8545905 9.39812313,13.2489057 L9.39186109,13.2426388" id="path30" fill="#221F1F" sketch:type="MSShapeGroup"></path>
            </g>
        </g>
    </g>
</svg>