<?xml version="1.0" encoding="UTF-8" standalone="no"?>
<svg width="73px" height="23px" viewBox="0 0 73 23" version="1.1" xmlns="http://www.w3.org/2000/svg" xmlns:xlink="http://www.w3.org/1999/xlink" xmlns:sketch="http://www.bohemiancoding.com/sketch/ns">
    <!-- Generator: Sketch 3.3.3 (12081) - http://www.bohemiancoding.com/sketch -->
    <title>Payment/Amazon/Amazon-alt</title>
    <desc>Created with Sketch.</desc>
    <defs></defs>
    <g id="Icons:-Payment" stroke="none" stroke-width="1" fill="none" fill-rule="evenodd" sketch:type="MSPage">
        <g id="Amazon-alt" sketch:type="MSArtboardGroup" transform="translate(-14.000000, -19.000000)">
            <g id="Payment/Amazon/Amazon-alt" sketch:type="MSLayerGroup" transform="translate(14.000000, 19.000000)">
                <path d="M45.3034482,17.6923784 C41.1224434,20.7717966 35.0623322,22.4147775 29.8446894,22.4147775 C22.5287124,22.4147775 15.9424557,19.7109001 10.959698,15.213825 C10.5682187,14.8601909 10.9189827,14.3782514 11.3887602,14.6536449 C16.7661271,17.7800051 23.4150245,19.6608282 30.2831484,19.6608282 C34.915136,19.6608282 40.0106392,18.703203 44.6958711,16.7159787 C45.4036672,16.4155463 45.9955844,17.1791426 45.3034482,17.6923784" id="path8" fill="#FF9900" sketch:type="MSShapeGroup"></path>
                <path d="M47.0416204,15.7051541 C46.5092057,15.022926 43.5089044,15.3828175 42.1622138,15.5424215 C41.7519413,15.5924933 41.6893065,15.2357317 42.0588615,14.9791114 C44.4484558,13.2985769 48.3695201,13.7836475 48.8267687,14.3469551 C49.284015,14.9133938 48.7077588,18.8409027 46.4622285,20.7154638 C46.1177265,21.0033767 45.7888832,20.8500337 45.9423451,20.4682343 C46.4465698,19.2101802 47.5771649,16.3905122 47.0416204,15.7051541" id="path10" fill="#FF9900" sketch:type="MSShapeGroup"></path>
                <path d="M42.2561696,3.11522259 L42.2561696,1.48163009 C42.2561696,1.23440061 42.4440799,1.06853807 42.669572,1.06853807 L49.9886788,1.06853807 C50.2235688,1.06853807 50.4114791,1.23753048 50.4114791,1.48163009 L50.4114791,2.88051138 C50.4083493,3.11522259 50.2110411,3.42191235 49.8602735,3.90698291 L46.067617,9.3178687 C47.4769459,9.28344615 48.9645695,9.49311964 50.2423597,10.2129026 C50.530489,10.3756353 50.6087848,10.6134764 50.6307079,10.84819 L50.6307079,12.5913146 C50.6307079,12.8291557 50.3676328,13.1076779 50.0920312,12.9637232 C47.8402376,11.783905 44.8493318,11.655596 42.3595196,12.9762414 C42.1058411,13.1139388 41.839635,12.8385441 41.839635,12.600703 L41.839635,10.9452039 C41.839635,10.6791976 41.8427648,10.2254197 42.1089709,9.82171606 L46.5029425,3.52518595 L42.6789674,3.52518595 C42.4440799,3.52518595 42.2561696,3.3593246 42.2561696,3.11522259" id="path12" fill="#FFFFFF" sketch:type="MSShapeGroup"></path>
                <path d="M15.5572373,13.3079653 L13.3305003,13.3079653 C13.117537,13.2923196 12.9484165,13.1327156 12.9327566,12.9292971 L12.9327566,1.50979768 C12.9327566,1.281345 13.1237991,1.09983314 13.3618188,1.09983314 L15.4382274,1.09983314 C15.6543265,1.10921557 15.8265757,1.27508408 15.8422368,1.48163009 L15.8422368,2.97439777 L15.8829508,2.97439777 C16.4247585,1.53170196 17.4426046,0.858862189 18.8143518,0.858862189 C20.2080196,0.858862189 21.0786706,1.53170196 21.7050386,2.97439777 C22.2437153,1.53170196 23.4682638,0.858862189 24.780506,0.858862189 C25.7137942,0.858862189 26.7347737,1.24378901 27.3580095,2.10752786 C28.0626733,3.06828059 27.9186081,4.46403201 27.9186081,5.68766354 L27.9154771,12.8948745 C27.9154771,13.1233272 27.7244346,13.3079653 27.4864148,13.3079653 L25.2628076,13.3079653 C25.0404489,13.2923196 24.8619341,13.1139388 24.8619341,12.8948745 L24.8619341,6.84244401 C24.8619341,6.36050332 24.9057779,5.15877964 24.7992969,4.70187309 C24.6333097,3.9351505 24.1353471,3.7192137 23.4901869,3.7192137 C22.9515102,3.7192137 22.3877794,4.07910518 22.159155,4.65493228 C21.9305307,5.23075818 21.9524539,6.19463838 21.9524539,6.84244401 L21.9524539,12.8948745 C21.9524539,13.1233272 21.7614114,13.3079653 21.5233916,13.3079653 L19.2997868,13.3079653 C19.0742947,13.2923196 18.8989109,13.1139388 18.8989109,12.8948745 L18.8957798,6.84244401 C18.8957798,5.568743 19.1056109,3.69417836 17.5240339,3.69417836 C15.9236624,3.69417836 15.9862996,5.52179861 15.9862996,6.84244401 L15.9862996,12.8948745 C15.9862996,13.1233272 15.7952571,13.3079653 15.5572373,13.3079653" id="path14" fill="#FFFFFF" sketch:type="MSShapeGroup"></path>
                <path d="M56.7127399,0.858862189 C60.0168303,0.858862189 61.8051097,3.69417836 61.8051097,7.29934937 C61.8051097,10.7824688 59.8289177,13.5458064 56.7127399,13.5458064 C53.4681531,13.5458064 51.7017945,10.7104903 51.7017945,7.17729897 C51.7017945,3.62219982 53.4900763,0.858862189 56.7127399,0.858862189 M56.7315296,3.19033219 C55.0904477,3.19033219 54.9870953,5.42478473 54.9870953,6.81740868 C54.9870953,8.21316009 54.9651722,11.1924321 56.7127399,11.1924321 C58.4383832,11.1924321 58.5198113,8.78898719 58.5198113,7.32438352 C58.5198113,6.36050332 58.4790973,5.20885151 58.1878346,4.2950396 C57.9372871,3.50015181 57.4393269,3.19033219 56.7315296,3.19033219" id="path16" fill="#FFFFFF" sketch:type="MSShapeGroup"></path>
                <path d="M66.0894668,13.3079653 L63.8721252,13.3079653 C63.6497629,13.2923196 63.4712481,13.1139388 63.4712481,12.8948745 L63.4681183,1.47224169 C63.4869092,1.26256582 63.6716884,1.09983314 63.8971806,1.09983314 L65.9610639,1.09983314 C66.1552362,1.10921557 66.3149601,1.24066034 66.3588076,1.41904115 L66.3588076,3.16529446 L66.3995192,3.16529446 C67.0227574,1.6036805 67.8965383,0.858862189 69.4342713,0.858862189 C70.4333277,0.858862189 71.4073311,1.21875368 72.0336991,2.20454174 C72.6162209,3.11835246 72.6162209,4.65493228 72.6162209,5.75963969 L72.6162209,12.9480762 C72.5911668,13.1483613 72.4063875,13.3079653 72.187161,13.3079653 L69.9541583,13.3079653 C69.750587,13.2923196 69.5814676,13.142104 69.5595468,12.9480762 L69.5595468,6.74543014 C69.5595468,5.49676446 69.7036109,3.66914183 68.1658766,3.66914183 C67.6240701,3.66914183 67.1261062,4.03216437 66.878691,4.58295255 C66.5655088,5.28083005 66.5247947,5.97557649 66.5247947,6.74543014 L66.5247947,12.8948745 C66.5216649,13.1233272 66.327489,13.3079653 66.0894692,13.3079653" id="path18" fill="#FFFFFF" sketch:type="MSShapeGroup"></path>
                <path d="M36.4215517,7.85326861 C36.4215517,8.72013613 36.4434748,9.44304777 36.0050171,10.2129026 C35.6511196,10.8388016 35.0873888,11.2237284 34.464153,11.2237284 C33.6091606,11.2237284 33.108067,10.5727929 33.108067,9.61204018 C33.108067,7.71557127 34.808655,7.37132791 36.4215517,7.37132791 L36.4215517,7.85326861 M38.6670809,13.2766703 C38.5198858,13.4081091 38.306919,13.4174975 38.1409318,13.3298732 C37.4018172,12.7164937 37.2671486,12.4317106 36.8631416,11.8464963 C35.6417242,13.0920321 34.774203,13.4644395 33.1926248,13.4644395 C31.316653,13.4644395 29.8603481,12.309659 29.8603481,9.9969694 C29.8603481,8.19125343 30.8374836,6.96136455 32.2342837,6.36050332 C33.4431735,5.82848836 35.1312326,5.73460555 36.4215517,5.5875198 L36.4215517,5.29960685 C36.4215517,4.77072176 36.4622657,4.14482399 36.1490823,3.68792102 C35.879744,3.27795647 35.359857,3.10896406 34.8994785,3.10896406 C34.0507482,3.10896406 33.2959772,3.54396275 33.1111968,4.44525521 C33.073615,4.64554388 32.9264199,4.84270149 32.7228485,4.85208989 L30.565012,4.62050615 C30.3833649,4.57982507 30.179796,4.43273694 30.2330377,4.15421478 C30.727868,1.53796289 33.0955393,0.74933005 35.2126607,0.74933005 C36.2962786,0.74933005 37.7118695,1.037243 38.5668619,1.85716852 C39.6504773,2.86799311 39.5471273,4.21680253 39.5471273,5.68453368 L39.5471273,9.15200615 C39.5471273,10.194127 39.9793206,10.65103 40.3864598,11.21434 C40.527394,11.4146251 40.5587126,11.655596 40.3770584,11.8058116 C39.9229419,12.1844811 39.1149269,12.888616 38.6702059,13.2829312 L38.6670761,13.2766643" id="path28" fill="#FFFFFF" sketch:type="MSShapeGroup"></path>
                <path d="M7.22967863,7.85326861 C7.22967863,8.72013613 7.25159936,9.44304777 6.8131439,10.2129026 C6.45924407,10.8388016 5.89864543,11.2237284 5.27227741,11.2237284 C4.41728507,11.2237284 3.91932359,10.5727929 3.91932359,9.61204018 C3.91932359,7.71557127 5.61991162,7.37132791 7.22967863,7.37132791 L7.22967863,7.85326861 M9.4752066,13.2766703 C9.32801035,13.4081091 9.11504352,13.4174975 8.94905636,13.3298732 C8.20994409,12.7164937 8.07840534,12.4317106 7.67126618,11.8464963 C6.44984861,13.0920321 5.58546321,13.4644395 4.00075047,13.4644395 C2.12790966,13.4644395 0.668474818,12.309659 0.668474818,9.9969694 C0.668474818,8.19125343 1.64874028,6.96136455 3.04240813,6.36050332 C4.25129791,5.82848836 5.93935946,5.73460555 7.22967863,5.5875198 L7.22967863,5.29960685 C7.22967863,4.77072176 7.27039266,4.14482399 6.96034027,3.68792102 C6.68786839,3.27795647 6.16798498,3.10896406 5.71073514,3.10896406 C4.86200843,3.10896406 4.10410166,3.54396275 3.91932359,4.44525521 C3.88174058,4.64554388 3.73454433,4.84270149 3.53410757,4.85208989 L1.37313869,4.62050615 C1.19149164,4.57982507 0.991053683,4.43273694 1.04116317,4.15421478 C1.53912585,1.53796289 3.90366371,0.74933005 6.02078872,0.74933005 C7.10440311,0.74933005 8.51999409,1.037243 9.37498642,1.85716852 C10.4586043,2.86799311 10.3552519,4.21680253 10.3552519,5.68453368 L10.3552519,9.15200615 C10.3552519,10.194127 10.7874476,10.65103 11.1945867,11.21434 C11.3386508,11.4146251 11.3699693,11.655596 11.1883223,11.8058116 C10.7342059,12.1844811 9.926192,12.888616 9.48146864,13.2829312 L9.4752066,13.2766643" id="path30" fill="#FFFFFF" sketch:type="MSShapeGroup"></path>
            </g>
        </g>
    </g>
</svg>