<?xml version="1.0" encoding="UTF-8" standalone="no"?>
<svg width="67px" height="40px" viewBox="0 0 67 40" version="1.1" xmlns="http://www.w3.org/2000/svg" xmlns:xlink="http://www.w3.org/1999/xlink" xmlns:sketch="http://www.bohemiancoding.com/sketch/ns">
    <!-- Generator: Sketch 3.3.3 (12081) - http://www.bohemiancoding.com/sketch -->
    <title>Credit Card/Cirrus/Cirrus</title>
    <desc>Created with Sketch.</desc>
    <defs></defs>
    <g id="Icons:-Credit-card" stroke="none" stroke-width="1" fill="none" fill-rule="evenodd" sketch:type="MSPage">
        <g id="Cirrus" sketch:type="MSArtboardGroup" transform="translate(-17.000000, -10.000000)">
            <g id="Credit-Card/Cirrus/Cirrus" sketch:type="MSLayerGroup" transform="translate(17.000000, 10.000000)">
                <path d="M40.0150423,20.0003125 C40.0150423,30.921875 31.1030986,39.775 20.1097512,39.775 C9.11703286,39.775 0.205403756,30.921875 0.205403756,20.0003125 C0.205403756,9.08 9.11703286,0.22625 20.1097512,0.22625 C31.1030986,0.22625 40.0150423,9.08 40.0150423,20.0003125" id="Fill-374" fill="#333399" sketch:type="MSShapeGroup"></path>
                <path d="M46.8326854,0.22625 C41.6900423,0.22625 37.0035023,2.1646875 33.4707465,5.3446875 C32.7516761,5.9921875 32.0797887,6.6928125 31.4613756,7.4375 L35.4820047,7.4375 C36.0324742,8.1015625 36.5385915,8.7996875 36.9997277,9.5315625 L29.9436526,9.5315625 C29.5212066,10.2040625 29.1371362,10.9025 28.7971033,11.625625 L38.146277,11.625625 C38.4652347,12.30375 38.7473897,13.001875 38.9889671,13.7184375 L27.9534695,13.7184375 C27.7235305,14.4015625 27.5307089,15.0996875 27.3756338,15.8128125 L39.5664883,15.8128125 C39.8596526,17.1628125 40.0150423,18.5634375 40.0150423,20.0003125 C40.0150423,22.19625 39.6542488,24.30875 38.9889671,26.2821875 L27.9534695,26.2821875 C28.1956761,26.9990625 28.4775164,27.698125 28.7964742,28.37625 L38.146277,28.37625 C37.8053005,29.09875 37.4221737,29.7978125 36.998784,30.4703125 L29.9436526,30.4703125 C30.4044742,31.2009375 30.9115352,31.9003125 31.4613756,32.563125 L35.4813756,32.563125 C34.8639061,33.3090625 34.1913897,34.0096875 33.4713756,34.6571875 C37.0038169,37.8371875 41.6900423,39.775 46.8326854,39.775 C57.8257183,39.775 66.7373474,30.921875 66.7373474,20.0003125 C66.7373474,9.08 57.8257183,0.22625 46.8326854,0.22625" id="Fill-375" fill="#0066CC" sketch:type="MSShapeGroup"></path>
                <path d="M64.0840845,31.0225 C64.0840845,30.67 64.372216,30.3846875 64.7267183,30.3846875 C65.0821643,30.3846875 65.3693521,30.67 65.3693521,31.0225 C65.3693521,31.3753125 65.0821643,31.6615625 64.7267183,31.6615625 C64.372216,31.6615625 64.0840845,31.3753125 64.0840845,31.0225 L64.0840845,31.0225 Z M64.7267183,31.5084375 C64.9972347,31.5084375 65.2155352,31.29125 65.2155352,31.0225 C65.2155352,30.7546875 64.9972347,30.538125 64.7267183,30.538125 C64.4574601,30.538125 64.2388451,30.7546875 64.2388451,31.0225 C64.2388451,31.29125 64.4574601,31.5084375 64.7267183,31.5084375 L64.7267183,31.5084375 Z M64.640216,31.3028125 L64.5087324,31.3028125 L64.5087324,30.7425 L64.7471643,30.7425 C64.7968638,30.7425 64.8471925,30.7425 64.89123,30.770625 C64.9368404,30.8015625 64.9626338,30.8553125 64.9626338,30.9103125 C64.9626338,30.974375 64.925831,31.03375 64.8654366,31.05625 L64.9686103,31.3028125 L64.8223427,31.3028125 L64.736784,31.08125 L64.640216,31.08125 L64.640216,31.3028125 L64.640216,31.3028125 Z M64.640216,30.9853125 L64.7128779,30.9853125 C64.7399296,30.9853125 64.7691831,30.9871875 64.7930892,30.974375 C64.8147934,30.9603125 64.8261174,30.9346875 64.8261174,30.9096875 C64.8261174,30.8884375 64.8129061,30.8640625 64.7943474,30.8525 C64.7710704,30.8390625 64.7345822,30.8425 64.7103615,30.8425 L64.640216,30.8425 L64.640216,30.9853125 L64.640216,30.9853125 Z" id="Fill-376" fill="#0066CC" sketch:type="MSShapeGroup"></path>
                <path d="M18.9622582,15.4734375 C18.7845352,16.2490625 18.6914272,16.6884375 18.4504789,17.6328125 C16.953831,17.0021875 14.9469765,16.673125 13.4072347,17.6284375 C11.9543099,18.5471875 11.4632911,19.980625 11.5692958,21.5684375 C11.6762441,22.3325 12.2534507,23.07875 13.0662582,23.4025 C14.4754601,23.919375 15.8201784,23.7303125 17.3171408,22.9703125 C17.1041878,23.92625 16.9437653,24.676875 16.7578638,25.3603125 C14.9623897,25.8584375 13.2581362,26.0221875 11.4632911,25.429375 C9.86000939,24.8753125 8.55586854,23.4409375 8.44986385,21.893125 C8.08623944,19.4075 9.28343192,16.864375 11.719338,15.6971875 C13.9844413,14.6846875 16.5685023,14.860625 18.9622582,15.4734375" id="Fill-377" fill="#000066" sketch:type="MSShapeGroup"></path>
                <path d="M44.3260047,24.3075 C43.8526009,24.778125 43.0486009,25.8090625 40.8633944,25.8090625 C38.8732113,25.8090625 37.476277,24.3509375 38.1837089,21.076875 C38.1837089,21.07625 39.0065822,17.2225 39.0065822,17.2225 L42.0436009,17.2225 C42.0436009,17.2225 41.2188404,21.080625 41.2204131,21.076875 C40.939831,22.388125 41.0062019,23.3859375 42.346831,23.3859375 C43.9268357,23.3859375 44.3996103,22.436875 44.6981221,21.076875 C44.6959202,21.07875 45.5228826,17.2225 45.5228826,17.2225 L48.691385,17.2225 L47.328108,23.4184375 C47.1730329,24.1453125 47.0248779,24.915 46.9393192,25.6740625 L44.0875728,25.6740625 C44.0875728,25.6740625 44.2674977,24.641875 44.3260047,24.3075" id="Fill-378" fill="#000066" sketch:type="MSShapeGroup"></path>
                <path d="M49.699216,19.8953125 C49.699216,20.9671875 50.4075915,21.6996875 52.0174789,22.246875 C53.2602817,22.6784375 53.4553052,22.805 53.4553052,23.1803125 C53.4553052,23.715 52.9004319,23.941875 51.7026103,23.941875 C50.7907183,23.941875 49.943939,23.8515625 48.9637887,23.6165625 C48.9637887,23.6165625 48.5781455,25.3696875 48.5388263,25.5696875 C49.3909531,25.720625 50.8665258,25.8090625 51.7236854,25.8090625 C54.9396854,25.8090625 56.4309859,24.9159375 56.4309859,22.9890625 C56.4309859,21.83625 55.8056526,21.1575 54.2800657,20.6375 C52.9938545,20.2175 52.8513615,20.120625 52.8513615,19.7196875 C52.8513615,19.2709375 53.3593662,19.0328125 54.3476948,19.0328125 C54.9425164,19.0328125 55.7754554,19.0828125 56.5495728,19.1634375 L56.9767371,17.2025 C56.1865775,17.1090625 54.9827793,17.0340625 54.2882441,17.0340625 C50.8750188,17.0340625 49.6885211,18.339375 49.699216,19.8953125" id="Fill-379" fill="#000066" sketch:type="MSShapeGroup"></path>
                <path d="M20.120446,17.2225 L23.298385,17.2225 L21.4878122,25.6740625 L18.3092441,25.6740625 L20.120446,17.2225" id="Fill-380" fill="#000066" sketch:type="MSShapeGroup"></path>
                <path d="M38.2736714,17.1865625 C36.0327887,16.8925 35.3933005,17.98625 34.7915587,18.53 C34.863277,18.09 34.9957042,17.6609375 34.9692817,17.2225 L32.0502207,17.2225 C31.6488498,19.8396875 30.9360704,22.488125 30.3783662,25.1053125 L30.2320986,25.6734375 L33.5368028,25.6734375 C33.9142676,23.9571875 34.3524413,21.36625 34.8579296,20.581875 C35.3627887,19.79875 36.2029624,19.1728125 37.3061033,19.549375 L38.2736714,17.1865625" id="Fill-381" fill="#000066" sketch:type="MSShapeGroup"></path>
                <path d="M31.3446761,17.1865625 C29.104108,16.8925 28.4649343,17.98625 27.8628779,18.53 C27.9349108,18.09 28.0667089,17.6609375 28.0406009,17.2225 L25.1218545,17.2225 C24.7204836,19.8396875 24.0073897,22.488125 23.45,25.1053125 L23.3037324,25.6734375 L26.6081221,25.6734375 C26.9859014,23.9571875 27.4240751,21.36625 27.9292488,20.581875 C28.4344225,19.79875 29.2742817,19.1728125 30.3774225,19.549375 L31.3446761,17.1865625" id="Fill-382" fill="#000066" sketch:type="MSShapeGroup"></path>
                <path d="M57.4051596,24.41625 C57.4051596,24.0634375 57.6929765,23.7771875 58.048108,23.7771875 C58.4029249,23.7771875 58.6910563,24.0634375 58.6910563,24.41625 C58.6910563,24.7690625 58.4029249,25.0546875 58.048108,25.0546875 C57.6929765,25.0546875 57.4051596,24.7690625 57.4051596,24.41625 L57.4051596,24.41625 Z M58.048108,24.9015625 C58.3176808,24.9015625 58.5369249,24.6840625 58.5369249,24.41625 C58.5369249,24.148125 58.3176808,23.9309375 58.048108,23.9309375 C57.7785352,23.9309375 57.5589765,24.148125 57.5589765,24.41625 C57.5589765,24.6840625 57.7785352,24.9015625 58.048108,24.9015625 L58.048108,24.9015625 Z M57.9612911,24.69625 L57.829493,24.69625 L57.829493,24.1346875 L58.0679249,24.1346875 C58.1173099,24.1346875 58.1685822,24.1359375 58.2119906,24.1640625 C58.2585446,24.1946875 58.2840235,24.2490625 58.2840235,24.30375 C58.2840235,24.3675 58.2469061,24.4265625 58.1861972,24.4490625 L58.29,24.69625 L58.1443615,24.69625 L58.0581737,24.4740625 L57.9612911,24.4740625 L57.9612911,24.69625 L57.9612911,24.69625 Z M57.9612911,24.3778125 L58.0342676,24.3778125 C58.0613192,24.3778125 58.0912019,24.3803125 58.1144789,24.3675 C58.1361831,24.3540625 58.1471925,24.3278125 58.1471925,24.3034375 C58.1471925,24.281875 58.1336667,24.256875 58.1160516,24.2453125 C58.0930892,24.2325 58.0556573,24.235625 58.0308075,24.235625 L57.9612911,24.235625 L57.9612911,24.3778125 L57.9612911,24.3778125 Z" id="Fill-383" fill="#FFFFFF" sketch:type="MSShapeGroup"></path>
                <path d="M19.5841315,14.855 C19.4064085,15.6315625 19.3129859,16.0709375 19.0726667,17.014375 C17.5757042,16.3846875 15.5688498,16.055625 14.029108,17.0103125 C12.5764977,17.92875 12.0857934,19.3625 12.191169,20.95 C12.2987465,21.7146875 12.8753239,22.460625 13.688446,22.7846875 C15.0973333,23.30125 16.4420516,23.111875 17.9393286,22.351875 C17.7263756,23.3084375 17.5656385,24.0590625 17.3797371,24.7428125 C15.584892,25.2403125 13.8800094,25.404375 12.0857934,24.8115625 C10.4818826,24.2575 9.17837089,22.823125 9.07205164,21.2746875 C8.70842723,18.789375 9.90530516,16.2459375 12.3415258,15.0790625 C14.6063146,14.0665625 17.190061,14.2421875 19.5841315,14.855" id="Fill-384" fill="#FFFFFF" sketch:type="MSShapeGroup"></path>
                <path d="M44.9481925,23.69 C44.4744742,24.160625 43.6701596,25.190625 41.4852676,25.190625 C39.4950845,25.190625 38.2305775,23.733125 38.9376948,20.45875 L39.7615117,16.605 L42.7988451,16.605 C42.7988451,16.605 41.9734554,20.4621875 41.9743991,20.45875 C41.6941315,21.7703125 41.7608169,22.768125 43.1017606,22.768125 C44.680507,22.768125 45.1542254,21.8190625 45.452108,20.45875 C45.4502207,20.46125 46.2771831,16.605 46.2771831,16.605 L49.3135728,16.605 L47.9496667,22.800625 C47.7949061,23.526875 47.6473803,24.2965625 47.561507,25.0565625 L44.7100751,25.0565625 C44.7100751,25.0565625 44.89,24.02375 44.9481925,23.69" id="Fill-385" fill="#FFFFFF" sketch:type="MSShapeGroup"></path>
                <path d="M50.3210892,19.2775 C50.3210892,20.349375 51.0294648,21.081875 52.6396667,21.62875 C53.882784,22.0603125 54.077493,22.1871875 54.077493,22.561875 C54.077493,23.0971875 53.5219906,23.324375 52.3247981,23.324375 C51.4129061,23.324375 50.5661268,23.2334375 49.585662,22.9990625 C49.585662,22.9990625 49.2000188,24.75125 49.160385,24.9521875 C50.0131408,25.1028125 51.4883991,25.190625 52.3458732,25.190625 C55.5615587,25.190625 57.0531737,24.2984375 57.0531737,22.3709375 C57.0531737,21.2178125 56.4281549,20.54 54.901939,20.02 C53.6154131,19.6 53.4729202,19.5021875 53.4729202,19.101875 C53.4729202,18.653125 53.981554,18.4153125 54.9701972,18.4153125 C55.5643897,18.4153125 56.3976432,18.4653125 57.1720751,18.5453125 L57.5982958,16.5840625 C56.8084507,16.490625 55.6046526,16.415625 54.9104319,16.415625 C51.4972066,16.415625 50.3100798,17.72125 50.3210892,19.2775" id="Fill-386" fill="#FFFFFF" sketch:type="MSShapeGroup"></path>
                <path d="M20.8741174,16.605 L23.9208873,16.605 L22.1096854,25.0565625 L19.0638592,25.0565625 L20.8741174,16.605" id="Fill-387" fill="#FFFFFF" sketch:type="MSShapeGroup"></path>
                <path d="M38.8955446,16.5690625 C36.6549765,16.2746875 36.0158028,17.3684375 35.4134319,17.9121875 C35.4854648,17.4721875 35.6175775,17.0425 35.5911549,16.605 L32.8045211,16.605 C32.4034648,19.2215625 31.6900563,21.8696875 31.1329812,24.4875 L30.9867136,25.0553125 L34.1586761,25.0553125 C34.53677,23.3390625 34.9746291,20.748125 35.4801174,19.964375 C35.9849765,19.180625 36.8251502,18.555 37.927662,18.9315625 L38.8955446,16.5690625" id="Fill-388" fill="#FFFFFF" sketch:type="MSShapeGroup"></path>
                <path d="M31.9671784,16.5690625 C29.7262958,16.2746875 29.0871221,17.3684375 28.4847512,17.9121875 C28.556784,17.4721875 28.6892113,17.0425 28.6624742,16.605 L25.8758404,16.605 C25.474784,19.2215625 24.7620047,21.8696875 24.2039859,24.4875 L24.0580329,25.0553125 L27.2296808,25.0553125 C27.6080892,23.3390625 28.0456338,20.748125 28.5517512,19.964375 C29.0562958,19.180625 29.8964695,18.555 30.9992958,18.9315625 L31.9671784,16.5690625" id="Fill-389" fill="#FFFFFF" sketch:type="MSShapeGroup"></path>
            </g>
        </g>
    </g>
</svg>