<?xml version="1.0" encoding="UTF-8" standalone="no"?>
<svg width="100px" height="60px" viewBox="0 0 100 60" version="1.1" xmlns="http://www.w3.org/2000/svg" xmlns:xlink="http://www.w3.org/1999/xlink" xmlns:sketch="http://www.bohemiancoding.com/sketch/ns">
    <!-- Generator: Sketch 3.3.3 (12081) - http://www.bohemiancoding.com/sketch -->
    <title>Credit Card/Cirrus/Cirrus-card-flat</title>
    <desc>Created with Sketch.</desc>
    <defs></defs>
    <g id="Icons:-Credit-card" stroke="none" stroke-width="1" fill="none" fill-rule="evenodd" sketch:type="MSPage">
        <g id="Cirrus-card-flat" sketch:type="MSArtboardGroup" fill="#9B9B9B">
            <g id="Credit-Card/Cirrus/Cirrus-card-flat" sketch:type="MSLayerGroup">
                <path d="M0,4.0065556 C0,1.79379604 1.79952991,0 3.99732351,0 L96.0026765,0 C98.2103373,0 100,1.79568082 100,4.0065556 L100,55.9934444 C100,58.206204 98.2004701,60 96.0026765,60 L3.99732351,60 C1.78966269,60 0,58.2043192 0,55.9934444 L0,4.0065556 Z M82.5,41.0225 C82.5,40.67 82.7881315,40.3846875 83.1426338,40.3846875 C83.4980798,40.3846875 83.7852676,40.67 83.7852676,41.0225 C83.7852676,41.3753125 83.4980798,41.6615625 83.1426338,41.6615625 C82.7881315,41.6615625 82.5,41.3753125 82.5,41.0225 Z M83.1426338,41.5084375 C83.4131502,41.5084375 83.6314507,41.29125 83.6314507,41.0225 C83.6314507,40.7546875 83.4131502,40.538125 83.1426338,40.538125 C82.8733756,40.538125 82.6547606,40.7546875 82.6547606,41.0225 C82.6547606,41.29125 82.8733756,41.5084375 83.1426338,41.5084375 Z M83.0561315,41.3028125 L82.9246479,41.3028125 L82.9246479,40.7425 L83.1630798,40.7425 C83.2127793,40.7425 83.263108,40.7425 83.3071455,40.770625 C83.3527559,40.8015625 83.3785493,40.8553125 83.3785493,40.9103125 C83.3785493,40.974375 83.3417465,41.03375 83.2813521,41.05625 L83.3845258,41.3028125 L83.2382582,41.3028125 L83.1526995,41.08125 L83.0561315,41.08125 L83.0561315,41.3028125 Z M36.5841315,24.855 C36.4064085,25.6315625 36.3129859,26.0709375 36.0726667,27.014375 C34.5757042,26.3846875 32.5688498,26.055625 31.029108,27.0103125 C29.5764977,27.92875 29.0857934,29.3625 29.191169,30.95 C29.2987465,31.7146875 29.8753239,32.460625 30.688446,32.7846875 C32.0973333,33.30125 33.4420516,33.111875 34.9393286,32.351875 C34.7263756,33.3084375 34.5656385,34.0590625 34.3797371,34.7428125 C32.584892,35.2403125 30.8800094,35.404375 29.0857934,34.8115625 C27.4818826,34.2575 26.1783709,32.823125 26.0720516,31.2746875 C25.7084272,28.789375 26.9053052,26.2459375 29.3415258,25.0790625 C31.6063146,24.0665625 34.190061,24.2421875 36.5841315,24.855 Z M37.8741174,26.605 L40.9208873,26.605 L39.1096854,35.0565625 L36.0638592,35.0565625 L37.8741174,26.605 Z M55.8955446,26.5690625 C53.6549765,26.2746875 53.0158028,27.3684375 52.4134319,27.9121875 C52.4854648,27.4721875 52.6175775,27.0425 52.5911549,26.605 L49.8045211,26.605 C49.4034648,29.2215625 48.6900563,31.8696875 48.1329812,34.4875 L47.9867136,35.0553125 L51.1586761,35.0553125 C51.53677,33.3390625 51.9746291,30.748125 52.4801174,29.964375 C52.9849765,29.180625 53.8251502,28.555 54.927662,28.9315625 L55.8955446,26.5690625 Z M48.9671784,26.5690625 C46.7262958,26.2746875 46.0871221,27.3684375 45.4847512,27.9121875 C45.556784,27.4721875 45.6892113,27.0425 45.6624742,26.605 L42.8758404,26.605 C42.474784,29.2215625 41.7620047,31.8696875 41.2039859,34.4875 L41.0580329,35.0553125 L44.2296808,35.0553125 C44.6080892,33.3390625 45.0456338,30.748125 45.5517512,29.964375 C46.0562958,29.180625 46.8964695,28.555 47.9992958,28.9315625 L48.9671784,26.5690625 Z M50.1928891,15.5997477 C49.5775651,16.1754388 48.9992444,16.7898033 48.4613756,17.4375 L52.4820047,17.4375 C53.0324742,18.1015625 53.5385915,18.7996875 53.9997277,19.5315625 L46.9436526,19.5315625 C46.5212066,20.2040625 46.1371362,20.9025 45.7971033,21.625625 L55.146277,21.625625 C55.4652347,22.30375 55.7473897,23.001875 55.9889671,23.7184375 L44.9534695,23.7184375 C44.7235305,24.4015625 44.5307089,25.0996875 44.3756338,25.8128125 L56.5664883,25.8128125 C56.6308105,26.1090116 56.6885003,26.4076477 56.7393718,26.7085691 L56.7393718,26.7085691 L56.7615117,26.605 L59.7988451,26.605 C59.7988451,26.605 58.9734554,30.4621875 58.9743991,30.45875 C58.6941315,31.7703125 58.7608169,32.768125 60.1017606,32.768125 C61.680507,32.768125 62.1542254,31.8190625 62.452108,30.45875 C62.4502207,30.46125 63.2771831,26.605 63.2771831,26.605 L66.3135728,26.605 L64.9496667,32.800625 C64.7949061,33.526875 64.6473803,34.2965625 64.561507,35.0565625 L61.7100751,35.0565625 C61.7100751,35.0565625 61.89,34.02375 61.9481925,33.69 C61.4744742,34.160625 60.6701596,35.190625 58.4852676,35.190625 C57.680001,35.190625 56.9935398,34.9520077 56.5084193,34.4509671 C56.3642869,35.0731169 56.1906136,35.68404 55.9889671,36.2821875 L44.9534695,36.2821875 C45.1956761,36.9990625 45.4775164,37.698125 45.7964742,38.37625 L55.146277,38.37625 C54.8053005,39.09875 54.4221737,39.7978125 53.998784,40.4703125 L46.9436526,40.4703125 C47.4044742,41.2009375 47.9115352,41.9003125 48.4613756,42.563125 L52.4813756,42.563125 C51.8644857,43.3083623 51.1926521,44.0083722 50.473403,44.655364 C54.0430758,47.9718581 58.8262362,50 64.0830945,50 C75.1287895,50 84.0830945,41.045695 84.0830945,30 C84.0830945,18.954305 75.1287895,10 64.0830945,10 C58.6899252,10 53.7953384,12.1346855 50.1981775,15.6052132 L50.1981775,15.6052132 L50.1928891,15.5997477 L50.1928891,15.5997477 Z M49.6992413,14.6830422 C46.26901,11.8973661 41.8858096,10.22625 37.1097512,10.22625 C26.1170329,10.22625 17.2054038,19.08 17.2054038,30.0003125 C17.2054038,40.921875 26.1170329,49.775 37.1097512,49.775 C41.8754848,49.775 46.2500571,48.1112188 49.6769817,45.336407 C49.7726397,45.4233128 49.8698905,45.5105955 49.9687078,45.5981803 C51.0995244,46.6275702 52.3507987,47.5376027 53.6896868,48.3012207 C56.813294,50.0827306 60.3492495,51.0331666 64.0201542,51.0331666 C75.5861093,51.0331666 84.9599427,41.6232099 84.9599427,30.016267 C84.9599427,18.4096445 75.5861133,9 64.0201542,9 C58.7511293,9 53.7830622,10.9625163 49.9589579,14.4424773 C49.871639,14.5220092 49.7850819,14.6021838 49.6992413,14.6830422 L49.6992413,14.6830422 Z M67.3210892,29.2775 C67.3210892,30.349375 68.0294648,31.081875 69.6396667,31.62875 C70.882784,32.0603125 71.077493,32.1871875 71.077493,32.561875 C71.077493,33.0971875 70.5219906,33.324375 69.3247981,33.324375 C68.4129061,33.324375 67.5661268,33.2334375 66.585662,32.9990625 C66.585662,32.9990625 66.2000188,34.75125 66.160385,34.9521875 C67.0131408,35.1028125 68.4883991,35.190625 69.3458732,35.190625 C72.5615587,35.190625 74.0531737,34.2984375 74.0531737,32.3709375 C74.0531737,31.2178125 73.4281549,30.54 71.901939,30.02 C70.6154131,29.6 70.4729202,29.5021875 70.4729202,29.101875 C70.4729202,28.653125 70.981554,28.4153125 71.9701972,28.4153125 C72.5643897,28.4153125 73.3976432,28.4653125 74.1720751,28.5453125 L74.5982958,26.5840625 C73.8084507,26.490625 72.6046526,26.415625 71.9104319,26.415625 C68.4972066,26.415625 67.3100798,27.72125 67.3210892,29.2775 Z" id="Rectangle" sketch:type="MSShapeGroup"></path>
            </g>
        </g>
    </g>
</svg>