<?xml version="1.0" encoding="UTF-8" standalone="no"?>
<svg width="68px" height="43px" viewBox="0 0 68 43" version="1.1" xmlns="http://www.w3.org/2000/svg" xmlns:xlink="http://www.w3.org/1999/xlink" xmlns:sketch="http://www.bohemiancoding.com/sketch/ns">
    <!-- Generator: Sketch 3.3.3 (12081) - http://www.bohemiancoding.com/sketch -->
    <title>Credit card/Cirrus/Cirrus-flat</title>
    <desc>Created with Sketch.</desc>
    <defs></defs>
    <g id="Icons:-Credit-card" stroke="none" stroke-width="1" fill="none" fill-rule="evenodd" sketch:type="MSPage">
        <g id="Cirrus-flat" sketch:type="MSArtboardGroup" transform="translate(-17.000000, -9.000000)" fill="#979797">
            <g id="Credit-card/Cirrus/Cirrus-flat" sketch:type="MSLayerGroup" transform="translate(17.000000, 9.000000)">
                <path d="M39.7393718,17.7085691 C39.6885003,17.4076477 39.6308105,17.1090116 39.5664883,16.8128125 L27.3756338,16.8128125 C27.5307089,16.0996875 27.7235305,15.4015625 27.9534695,14.7184375 L38.9889671,14.7184375 C38.7473897,14.001875 38.4652347,13.30375 38.146277,12.625625 L28.7971033,12.625625 C29.1371362,11.9025 29.5212066,11.2040625 29.9436526,10.5315625 L36.9997277,10.5315625 C36.5385915,9.7996875 36.0324742,9.1015625 35.4820047,8.4375 L31.4613756,8.4375 C32.0797887,7.6928125 32.7516761,6.9921875 33.4717962,6.3437427 C29.9393737,3.16366692 25.2522934,1.22625 20.1097512,1.22625 C9.11703286,1.22625 0.205403756,10.08 0.205403756,21.0003125 C0.205403756,31.921875 9.11703286,40.775 20.1097512,40.775 C25.2523192,40.775 29.9394207,38.8377004 33.4718493,35.6576139 L33.4713756,35.6571875 C34.1913897,35.0096875 34.8639061,34.3090625 35.4813756,33.563125 L31.4613756,33.563125 C30.9115352,32.9003125 30.4044742,32.2009375 29.9436526,31.4703125 L36.998784,31.4703125 C37.4221737,30.7978125 37.8053005,30.09875 38.146277,29.37625 L28.7964742,29.37625 C28.4775164,28.698125 28.1956761,27.9990625 27.9534695,27.2821875 L38.9889671,27.2821875 C39.1906136,26.68404 39.3642869,26.0731169 39.5084193,25.4509671 C39.9935398,25.9520077 40.680001,26.190625 41.4852676,26.190625 C43.6701596,26.190625 44.4744742,25.160625 44.9481925,24.69 C44.89,25.02375 44.7100751,26.0565625 44.7100751,26.0565625 L47.561507,26.0565625 C47.6473803,25.2965625 47.7949061,24.526875 47.9496667,23.800625 L49.3135728,17.605 L46.2771831,17.605 C46.2771831,17.605 45.4502207,21.46125 45.452108,21.45875 C45.1542254,22.8190625 44.680507,23.768125 43.1017606,23.768125 C41.7608169,23.768125 41.6941315,22.7703125 41.9743991,21.45875 C41.9734554,21.4621875 42.7988451,17.605 42.7988451,17.605 L39.7615117,17.605 L39.7393718,17.7085691 L39.7393718,17.7085691 Z M19.5841315,15.855 C19.4064085,16.6315625 19.3129859,17.0709375 19.0726667,18.014375 C17.5757042,17.3846875 15.5688498,17.055625 14.029108,18.0103125 C12.5764977,18.92875 12.0857934,20.3625 12.191169,21.95 C12.2987465,22.7146875 12.8753239,23.460625 13.688446,23.7846875 C15.0973333,24.30125 16.4420516,24.111875 17.9393286,23.351875 C17.7263756,24.3084375 17.5656385,25.0590625 17.3797371,25.7428125 C15.584892,26.2403125 13.8800094,26.404375 12.0857934,25.8115625 C10.4818826,25.2575 9.17837089,23.823125 9.07205164,22.2746875 C8.70842723,19.789375 9.90530516,17.2459375 12.3415258,16.0790625 C14.6063146,15.0665625 17.190061,15.2421875 19.5841315,15.855 Z M20.8741174,17.605 L23.9208873,17.605 L22.1096854,26.0565625 L19.0638592,26.0565625 L20.8741174,17.605 Z M38.8955446,17.5690625 C36.6549765,17.2746875 36.0158028,18.3684375 35.4134319,18.9121875 C35.4854648,18.4721875 35.6175775,18.0425 35.5911549,17.605 L32.8045211,17.605 C32.4034648,20.2215625 31.6900563,22.8696875 31.1329812,25.4875 L30.9867136,26.0553125 L34.1586761,26.0553125 C34.53677,24.3390625 34.9746291,21.748125 35.4801174,20.964375 C35.9849765,20.180625 36.8251502,19.555 37.927662,19.9315625 L38.8955446,17.5690625 Z M31.9671784,17.5690625 C29.7262958,17.2746875 29.0871221,18.3684375 28.4847512,18.9121875 C28.556784,18.4721875 28.6892113,18.0425 28.6624742,17.605 L25.8758404,17.605 C25.474784,20.2215625 24.7620047,22.8696875 24.2039859,25.4875 L24.0580329,26.0553125 L27.2296808,26.0553125 C27.6080892,24.3390625 28.0456338,21.748125 28.5517512,20.964375 C29.0562958,20.180625 29.8964695,19.555 30.9992958,19.9315625 L31.9671784,17.5690625 Z" id="Fill-374" sketch:type="MSShapeGroup"></path>
                <path d="M65.5,32.0225 C65.5,31.67 65.7881315,31.3846875 66.1426338,31.3846875 C66.4980798,31.3846875 66.7852676,31.67 66.7852676,32.0225 C66.7852676,32.3753125 66.4980798,32.6615625 66.1426338,32.6615625 C65.7881315,32.6615625 65.5,32.3753125 65.5,32.0225 L65.5,32.0225 Z M66.1426338,32.5084375 C66.4131502,32.5084375 66.6314507,32.29125 66.6314507,32.0225 C66.6314507,31.7546875 66.4131502,31.538125 66.1426338,31.538125 C65.8733756,31.538125 65.6547606,31.7546875 65.6547606,32.0225 C65.6547606,32.29125 65.8733756,32.5084375 66.1426338,32.5084375 L66.1426338,32.5084375 Z M66.0561315,32.3028125 L65.9246479,32.3028125 L65.9246479,31.7425 L66.1630798,31.7425 C66.2127793,31.7425 66.263108,31.7425 66.3071455,31.770625 C66.3527559,31.8015625 66.3785493,31.8553125 66.3785493,31.9103125 C66.3785493,31.974375 66.3417465,32.03375 66.2813521,32.05625 L66.3845258,32.3028125 L66.2382582,32.3028125 L66.1526995,32.08125 L66.0561315,32.08125 L66.0561315,32.3028125 L66.0561315,32.3028125 Z M66.0561315,31.9853125 L66.1287934,31.9853125 C66.1558451,31.9853125 66.1850986,31.9871875 66.2090047,31.974375 C66.2307089,31.9603125 66.2420329,31.9346875 66.2420329,31.9096875 C66.2420329,31.8884375 66.2288216,31.8640625 66.2102629,31.8525 C66.1869859,31.8390625 66.1504977,31.8425 66.126277,31.8425 L66.0561315,31.8425 L66.0561315,31.9853125 L66.0561315,31.9853125 Z" id="Fill-376" sketch:type="MSShapeGroup"></path>
                <path d="M33.1981775,6.60521317 L32.4947759,5.87824311 C32.6472131,5.7307479 32.8018523,5.58557215 32.9589579,5.44247735 C36.7830622,1.96251626 41.7511293,0 47.0201542,0 C58.5861133,0 67.9599427,9.40964454 67.9599427,21.016267 C67.9599427,32.6232099 58.5861093,42.0331666 47.0201542,42.0331666 C43.3492495,42.0331666 39.813294,41.0827306 36.6896868,39.3012207 C35.3507987,38.5376027 34.0995244,37.6275702 32.9687078,36.5981803 C32.6416618,36.3083094 32.3317734,36.0217471 32.0400009,35.7412072 L32.776241,34.9754887 C36.4077739,38.6925834 41.4759712,41 47.0830945,41 C58.1287895,41 67.0830945,32.045695 67.0830945,21 C67.0830945,9.954305 58.1287895,1 47.0830945,1 C41.6899252,1 36.7953384,3.13468552 33.1981775,6.60521317 L33.1981775,6.60521317 Z" id="Path-Copy" sketch:type="MSShapeGroup"></path>
                <path d="M50.3210892,20.2775 C50.3210892,21.349375 51.0294648,22.081875 52.6396667,22.62875 C53.882784,23.0603125 54.077493,23.1871875 54.077493,23.561875 C54.077493,24.0971875 53.5219906,24.324375 52.3247981,24.324375 C51.4129061,24.324375 50.5661268,24.2334375 49.585662,23.9990625 C49.585662,23.9990625 49.2000188,25.75125 49.160385,25.9521875 C50.0131408,26.1028125 51.4883991,26.190625 52.3458732,26.190625 C55.5615587,26.190625 57.0531737,25.2984375 57.0531737,23.3709375 C57.0531737,22.2178125 56.4281549,21.54 54.901939,21.02 C53.6154131,20.6 53.4729202,20.5021875 53.4729202,20.101875 C53.4729202,19.653125 53.981554,19.4153125 54.9701972,19.4153125 C55.5643897,19.4153125 56.3976432,19.4653125 57.1720751,19.5453125 L57.5982958,17.5840625 C56.8084507,17.490625 55.6046526,17.415625 54.9104319,17.415625 C51.4972066,17.415625 50.3100798,18.72125 50.3210892,20.2775" id="Fill-386" sketch:type="MSShapeGroup"></path>
            </g>
        </g>
    </g>
</svg>