<?xml version="1.0" encoding="UTF-8" standalone="no"?>
<svg width="68px" height="44px" viewBox="0 0 68 44" version="1.1" xmlns="http://www.w3.org/2000/svg" xmlns:xlink="http://www.w3.org/1999/xlink" xmlns:sketch="http://www.bohemiancoding.com/sketch/ns">
    <!-- Generator: Sketch 3.3.3 (12081) - http://www.bohemiancoding.com/sketch -->
    <title>Credit Card/UnionPay/UnionPay</title>
    <desc>Created with Sketch.</desc>
    <defs></defs>
    <g id="Icons:-Credit-card" stroke="none" stroke-width="1" fill="none" fill-rule="evenodd" sketch:type="MSPage">
        <g id="UnionPay" sketch:type="MSArtboardGroup" transform="translate(-16.000000, -8.000000)">
            <g id="Credit-Card/UnionPay/UnionPay" sketch:type="MSLayerGroup" transform="translate(16.000000, 8.000000)">
                <path d="M64.6120613,0.110576632 L47.8957777,0.106233832 L47.8914696,0.106233832 C47.8785487,0.106233832 47.8659117,0.108551937 47.8532782,0.108551937 C45.5568433,0.1794716 42.6967052,2.03615627 42.1757928,4.32560272 L34.2705079,39.5863072 C33.7495953,41.8971319 35.1667399,43.777467 37.4465207,43.8120681 L55.0076367,43.8120681 C57.2526685,43.7001233 59.4342387,41.8647923 59.9462511,39.6013603 L67.8518269,4.34036611 C68.3810646,2.00604962 66.9297462,0.110576632 64.6120613,0.110576632" id="path22" fill="#01798A" sketch:type="MSShapeGroup"></path>
                <path d="M34.2705079,39.5863072 L42.1757962,4.32560272 C42.6967088,2.03615604 45.5568433,0.179471368 47.8532782,0.108551937 L41.2069113,0.104209137 L29.2322473,0.101891032 C26.929408,0.149365179 24.0320006,2.01907825 23.5112879,4.32560272 L15.6036738,39.5863072 C15.0808385,41.8971319 16.5000511,43.777467 18.7783948,43.8120681 L37.4465205,43.8120681 C35.1667396,43.777467 33.7495951,41.8971319 34.2705077,39.5863072" id="path20" fill="#024381" sketch:type="MSShapeGroup"></path>
                <path d="M15.603674,39.5863072 L23.5112862,4.32560642 C24.0319972,2.01907825 26.9294064,0.149368884 29.2322457,0.101894737 L13.8919288,0.0978416421 C11.5762247,0.0978416421 8.60722566,1.98897554 8.07801497,4.32560642 L0.170390311,39.5863072 C0.122268365,39.8015008 0.0955710135,40.0123833 0.0796427027,40.21875 L0.0796427027,40.8729033 C0.234440797,42.5573808 1.5106308,43.7840255 3.34509459,43.8120684 L18.778395,43.8120684 C16.5000514,43.7774672 15.0808388,41.8971321 15.603674,39.5863074" id="path16" fill="#DD0228" sketch:type="MSShapeGroup"></path>
                <path d="M29.5555908,25.7951443 L29.8459112,25.7951443 C30.112686,25.7951443 30.2921624,25.7049151 30.3762988,25.5262522 L31.1306743,24.3881581 L33.1508594,24.3881581 L32.7295948,25.1367084 L35.151807,25.1367084 L34.8445448,26.2836311 L31.9622948,26.2836311 C31.6303371,26.7870546 31.2217059,27.0237289 30.7303719,26.9956792 L29.2290871,26.9956792 L29.5555903,25.7951443 L29.5555908,25.7951443 Z M29.2239185,27.4389498 L34.5306748,27.4389498 L34.1923968,28.6848156 L32.0582092,28.6848156 L31.7325683,29.887377 L33.8093234,29.887377 L33.4710455,31.1331245 L31.3942903,31.1331245 L30.9118565,32.9101191 C30.7923961,33.2071476 30.9494764,33.3407112 31.3805072,33.3104033 L33.0730394,33.3104033 L32.7594572,34.4680649 L29.5099327,34.4680649 C28.8939678,34.4680649 28.6826745,34.1128802 28.8758781,33.4008639 L29.4927002,31.1331245 L28.1652079,31.1331245 L28.5024235,29.887377 L29.8301157,29.887377 L30.1554727,28.6848156 L28.8865031,28.6848156 L29.2239187,27.4389498 L29.2239185,27.4389498 Z M37.6940543,24.3796754 L37.6104892,25.1090046 C37.6104892,25.1090046 38.611536,24.351394 39.5206923,24.351394 L42.8802022,24.351394 L41.595439,29.0395355 C41.4888995,29.5754964 41.032027,29.8420158 40.2250984,29.8420158 L36.4173288,29.8420158 L35.5254049,33.1339946 C35.4740018,33.3103996 35.5466547,33.4008601 35.7387644,33.4008601 L36.4879695,33.4008601 L36.2125819,34.4227036 L34.3078365,34.4227036 C33.5767227,34.4227036 33.2726155,34.2010824 33.3932257,33.7559001 L35.913645,24.3796754 L37.6940504,24.3796754 L37.6940538,24.3796754 L37.6940543,24.3796754 Z M40.5389682,25.7049151 L37.5404198,25.7049151 L37.1817545,26.9699156 C37.1817545,26.9699156 37.6811299,26.6064816 38.5156248,26.5934831 C39.3478203,26.5803416 40.2977513,26.5934831 40.2977513,26.5934831 L40.5389682,25.7049151 L40.5389682,25.7049151 Z M39.4526349,28.6394546 C39.6743232,28.6697625 39.7983759,28.5813285 39.8133087,28.3726173 L39.9968058,27.7057871 L36.9936651,27.7057871 L36.7418234,28.6394546 L39.4526349,28.6394546 L39.4526349,28.6394546 Z M37.4269919,30.1541261 L39.1580063,30.1541261 L39.1258444,30.909217 L39.5867376,30.909217 C39.8196256,30.909217 39.9350655,30.834043 39.9350655,30.6856878 L40.0714675,30.1972009 L41.5101493,30.1972009 L41.3180394,30.909217 C41.1555047,31.503101 40.7247614,31.8129247 40.0246599,31.8432326 L39.1025826,31.8432326 L39.0982745,33.1339948 C39.0813329,33.3407077 39.2668385,33.4460766 39.6487655,33.4460766 L40.5154225,33.4460766 L40.2357234,34.4680651 L38.1569595,34.4680651 C37.5743063,34.4959984 37.2885813,34.2161361 37.2946106,33.6224819 L37.4269919,30.1541263 L37.4269919,30.1541261 Z" id="path24" fill="#FFFFFF" sketch:type="MSShapeGroup"></path>
                <path d="M16.4510319,18.1337313 C16.2162474,19.2934211 15.6719906,20.1841323 14.8277611,20.8166598 C13.9912006,21.4384787 12.9121885,21.7503292 11.5911566,21.7503292 C10.3479455,21.7503292 9.43652196,21.4319081 8.85490303,20.792923 C8.45152634,20.3389136 8.25085811,19.762339 8.25085811,19.0652294 C8.25085811,18.7769995 8.28508738,18.4671759 8.35340326,18.1337316 L9.76092905,11.2920773 L11.8867326,11.2920773 L10.4983613,18.0562675 C10.4556313,18.2434995 10.4385741,18.4177634 10.440814,18.5748307 C10.4385741,18.9213015 10.5239182,19.2052187 10.6967903,19.4267232 C10.9486313,19.7559995 11.3573781,19.9194079 11.9261885,19.9194079 C12.5802869,19.9194079 13.1192611,19.7581708 13.5375707,19.4331789 C13.9559662,19.1104735 14.2291146,18.6522943 14.3518186,18.0562673 L15.744556,11.2920771 L17.8595901,11.2920771 L16.4510319,18.1337313" id="path28" fill="#FFFFFF" sketch:type="MSShapeGroup"></path>
                <path d="M25.3787307,15.4421754 L27.0436106,15.4421754 L25.7394923,21.5481603 L24.0778866,21.5481603 L25.3787307,15.4421754 M25.9028017,13.2176565 L27.5824989,13.2176565 L27.2687464,14.6997629 L25.5891632,14.6997629 L25.9028017,13.2176565" id="path34" fill="#FFFFFF" sketch:type="MSShapeGroup"></path>
                <path d="M28.517327,21.0834105 C28.0818743,20.663905 27.8620227,20.0980711 27.8598984,19.3794823 C27.8598984,19.2567739 27.867307,19.117016 27.8834459,18.9641447 C27.8994972,18.8092187 27.9198004,18.6586055 27.9485167,18.5188476 C28.1459406,17.5270522 28.5664605,16.7395969 29.2141545,16.158623 C29.8608441,15.5755943 30.6410651,15.2829651 31.5545261,15.2829651 C32.3025849,15.2829651 32.8958594,15.4938476 33.330336,15.9155244 C33.764525,16.3394292 33.9821962,16.9116026 33.9821962,17.6390217 C33.9821962,17.7636098 33.9727175,17.9077974 33.9566383,18.062695 C33.9373973,18.2197625 33.9141387,18.3703756 33.8871439,18.5188474 C33.6941718,19.4955897 33.2749158,20.2744759 32.6270761,20.8447112 C31.9792401,21.4191426 31.2013153,21.7050844 30.2941709,21.7050844 C29.5429572,21.7050844 28.9516878,21.4986313 28.517327,21.0834103 M31.6900657,19.8742783 C31.9835482,19.5537158 32.1937493,19.0673704 32.3218225,18.4199043 C32.3410635,18.3188199 32.3580051,18.2133364 32.3686301,18.1079392 C32.3792549,18.0045969 32.383563,17.9077971 32.383563,17.8195945 C32.383563,17.4430474 32.2885142,17.1505328 32.0975507,16.9439366 C31.9077369,16.7351971 31.6378038,16.6320581 31.2889011,16.6320581 C30.8277205,16.6320581 30.4521101,16.79535 30.1577689,17.1224831 C29.8608441,17.449618 29.650643,17.9444158 29.5182583,18.6027653 C29.5001669,18.7038498 29.4852374,18.8050488 29.4714506,18.9039919 C29.4608259,19.0050763 29.4576673,19.0997347 29.4596795,19.1857658 C29.4596795,19.5601717 29.5547284,19.8485163 29.7456919,20.0528263 C29.9355056,20.2572813 30.2042889,20.3583656 30.5577874,20.3583656 C31.0209802,20.3583656 31.3965869,20.197012 31.6900657,19.874278" id="path36" fill="#FFFFFF" sketch:type="MSShapeGroup"></path>
                <path d="M44.784089,25.8468445 L45.1855412,24.4226335 L47.215205,24.4226335 L47.1276192,24.945278 C47.1276192,24.945278 48.1648487,24.4226335 48.9117579,24.4226335 L51.4215559,24.4226335 L51.0226872,25.8468445 L50.6278392,25.8468445 L48.7345775,32.5638778 L49.1294254,32.5638778 L48.7538185,33.8978313 L48.3589705,33.8978313 L48.1947147,34.4765455 L46.2290876,34.4765455 L46.3930595,33.8978313 L42.5152205,33.8978313 L42.8931268,32.5638778 L43.2816582,32.5638778 L45.176641,25.8468445 L44.7840892,25.8468445 L44.784089,25.8468445 Z M46.9739881,25.8468445 L46.4573836,27.6647388 C46.4573836,27.6647388 47.3412696,27.3228122 48.1031081,27.2260122 C48.2713881,26.5911967 48.4913518,25.8468443 48.4913518,25.8468443 L46.9739879,25.8468443 L46.9739881,25.8468445 Z M46.2181789,28.5168912 L45.6998498,30.4209634 C45.6998498,30.4209634 46.6793595,29.9347344 47.351607,29.8938012 C47.5457289,29.1579031 47.7401384,28.5168914 47.7401384,28.5168914 L46.2181789,28.5168914 L46.2181789,28.5168912 Z M46.598094,32.5638778 L46.9866216,31.182655 L45.4715573,31.182655 L45.081014,32.5638778 L46.598094,32.5638778 L46.598094,32.5638778 Z M51.5071298,24.3344594 L53.4153209,24.3344594 L53.4963027,25.0442211 C53.4836658,25.2249108 53.5902052,25.3112015 53.8164892,25.3112015 L54.1536174,25.3112015 L53.8124685,26.5137629 L52.4099694,26.5137629 C51.8744113,26.5416962 51.5990203,26.3353313 51.5734658,25.8898026 L51.5071298,24.3344594 L51.5071298,24.3344594 Z M50.9480259,26.9140474 L57.1289041,26.9140474 L56.7662181,28.2050127 L54.7982948,28.2050127 L54.4608793,29.4053144 L56.4267938,29.4053144 L56.0618084,30.6941684 L53.8721969,30.6941684 L53.3768421,31.4495208 L54.4485334,31.4495208 L54.6960669,32.9619041 C54.7256419,33.1125173 54.8580269,33.1856668 55.0843106,33.1856668 L55.4171307,33.1856668 L55.0673656,34.4311845 L53.889142,34.4311845 C53.278635,34.4614924 52.963044,34.2549242 52.9371987,33.8096289 L52.6531949,32.4284027 L51.6779933,33.8978316 C51.4474012,34.3130241 51.0930405,34.5067404 50.6152059,34.4765457 L48.8158469,34.4765457 L49.165896,33.2306816 L49.7272994,33.2306816 C49.9578915,33.2306816 50.1497138,33.1274259 50.3225861,32.9188012 L51.8488536,30.6941684 L49.8809304,30.6941684 L50.2456284,29.4053144 L52.3801036,29.4053144 L52.7195277,28.2050127 L50.583044,28.2050127 L50.9480259,26.9140474 L50.9480259,26.9140474 Z" id="path26" fill="#FFFFFF" sketch:type="MSShapeGroup"></path>
                <path d="M18.4092189,15.440034 L19.9106456,15.440034 L19.7389231,16.3221177 L19.9544105,16.0704201 C20.4411209,15.5455177 21.032273,15.2851079 21.7302204,15.2851079 C22.3619771,15.2851079 22.8176176,15.4702268 23.1036596,15.8423447 C23.3853077,16.2146074 23.462153,16.7288579 23.3289093,17.3893505 L22.5017389,21.5503033 L20.9586735,21.5503033 L21.7056386,17.7787796 C21.7825997,17.3893507 21.761292,17.0988627 21.6426081,16.9116024 C21.5253876,16.7244586 21.301142,16.6320581 20.977855,16.6320581 C20.5808828,16.6320581 20.2468272,16.7566763 19.9747119,17.004206 C19.7014486,17.2537603 19.5211976,17.6002313 19.4325794,18.0412158 L18.7442788,21.5503033 L17.1979972,21.5503033 L18.4092189,15.440034" id="path30" fill="#FFFFFF" sketch:type="MSShapeGroup"></path>
                <path d="M35.6276367,15.440034 L37.1303552,15.440034 L36.9597825,16.3221177 L37.1728579,16.0704201 C37.6598838,15.5455177 38.2531618,15.2851079 38.9489552,15.2851079 C39.580712,15.2851079 40.0373005,15.4702268 40.3210133,15.8423447 C40.6009964,16.2146074 40.6819782,16.7288579 40.5452885,17.3893505 L39.7214185,21.5503033 L38.1762007,21.5503033 L38.9233971,17.7787796 C39.0000671,17.3893507 38.9788173,17.0988627 38.8613692,16.9116024 C38.7396126,16.7244586 38.5196455,16.6320581 38.1977379,16.6320581 C37.8005937,16.6320581 37.4677705,16.7566763 37.1923829,17.004206 C36.9190041,17.2537603 36.7378064,17.6002313 36.6525167,18.0412158 L35.9610313,21.5503033 L34.4166723,21.5503033 L35.6276363,15.440034" id="path32" fill="#FFFFFF" sketch:type="MSShapeGroup"></path>
                <path d="M43.0553707,11.6533396 L47.4179394,11.6533396 C48.2567389,11.6533396 48.9054374,11.8449709 49.3514011,12.2212867 C49.7953527,12.602235 50.0176159,13.1487615 50.0176159,13.860867 L50.0176159,13.8822879 C50.0176159,14.0177622 50.0087158,14.1706025 49.9960788,14.3361842 C49.9745416,14.499735 49.9466878,14.6653139 49.9107925,14.837551 C49.7186827,15.7799324 49.2724315,16.5373113 48.5832423,17.1117429 C47.8914696,17.6840046 47.0721953,17.9723493 46.1288682,17.9723493 L43.7893554,17.9723493 L43.0659955,21.5503017 L41.0403524,21.5503017 L43.0553705,11.6533398 M44.1457243,16.2512249 L46.0860811,16.2512249 C46.5917732,16.2512249 46.992938,16.1327146 47.2855544,15.8983283 C47.5758784,15.6616539 47.7679883,15.3002747 47.8745243,14.8097629 C47.8914694,14.7191574 47.9020941,14.6375256 47.9150151,14.5622615 C47.9216193,14.4913409 47.9299479,14.4201307 47.9299479,14.3515238 C47.9299479,14.0006819 47.8064668,13.7468156 47.5586457,13.587605 C47.3111121,13.4260764 46.9228716,13.3487892 46.3847265,13.3487892 L44.7369898,13.3487892 L44.1457238,16.2512249" id="path38" fill="#FFFFFF" sketch:type="MSShapeGroup"></path>
                <path d="M59.0839023,22.7315871 C58.4435293,24.1041259 57.8333097,24.9043483 57.4749317,25.2765827 C57.115979,25.6446476 56.4055401,26.5009696 54.6937669,26.4363009 L54.8410813,25.3886373 C56.2814876,24.9411103 57.0605588,22.9249555 57.5045104,22.0322196 L56.9752689,15.4572287 L58.0894595,15.4421772 L59.0241702,15.4421772 L59.124677,19.5666261 L60.8766536,15.4421772 L62.6504547,15.4421772 L59.083902,22.7315871" id="path40" fill="#FFFFFF" sketch:type="MSShapeGroup"></path>
                <path d="M54.1240383,15.9391447 L53.4193412,16.4276316 C52.683057,15.8467744 52.0108094,15.4874215 50.7134126,16.0940708 C48.9459281,16.9201998 47.469055,23.2564897 52.3353041,21.1694717 L52.6127036,21.5007746 L54.5272115,21.5503036 L55.7844083,15.7928163 L54.1240383,15.939145 M53.0354056,19.0868232 C52.7278561,20.0012713 52.0409628,20.6057792 51.5031088,20.4336868 C50.9652545,20.2658789 50.7731414,19.3836505 51.0847115,18.4671756 C51.391977,17.5505878 52.0834624,16.9482215 52.6170083,17.1203421 C53.154866,17.28815 53.3489879,18.1702337 53.0354056,19.0868232" id="path42" fill="#FFFFFF" sketch:type="MSShapeGroup"></path>
            </g>
        </g>
    </g>
</svg>