<?xml version="1.0" encoding="UTF-8" standalone="no"?>
<svg width="74px" height="33px" viewBox="0 0 74 33" version="1.1" xmlns="http://www.w3.org/2000/svg" xmlns:xlink="http://www.w3.org/1999/xlink" xmlns:sketch="http://www.bohemiancoding.com/sketch/ns">
    <!-- Generator: Sketch 3.3.3 (12081) - http://www.bohemiancoding.com/sketch -->
    <title>Credit Card/UnionPay/UnionPay-flat</title>
    <desc>Created with Sketch.</desc>
    <defs></defs>
    <g id="Icons:-Credit-card" stroke="none" stroke-width="1" fill="none" fill-rule="evenodd" sketch:type="MSPage">
        <g id="UnionPay-flat" sketch:type="MSArtboardGroup" transform="translate(-13.000000, -14.000000)" fill="#9B9B9B">
            <g id="Credit-Card/UnionPay/UnionPay-flat" sketch:type="MSLayerGroup" transform="translate(13.000000, 14.000000)">
                <path d="M28.9869757,20.1751967 L29.3797623,20.1751967 C29.7406929,20.1751967 29.9835138,20.0521569 30.0973455,19.8085257 L31.1179711,18.2565793 L33.8511627,18.2565793 L33.2812165,19.2773296 L36.5583271,19.2773296 L36.1426195,20.8413152 L32.2431047,20.8413152 C31.7939856,21.5278017 31.2411314,21.8505395 30.5763854,21.8122898 L28.5452356,21.8122898 L28.9869751,20.1751967 L28.9869757,20.1751967 Z M28.5382426,22.4167497 L35.7179717,22.4167497 L35.2603016,24.1156576 L32.3728713,24.1156576 L31.9322982,25.7555141 L34.7420258,25.7555141 L34.2843556,27.4542606 L31.4746281,27.4542606 L30.8219235,29.8774352 C30.6603006,30.282474 30.8728209,30.4646062 31.4559804,30.4232773 L33.7458768,30.4232773 L33.3216185,32.0019066 L28.925203,32.0019066 C28.0918387,32.0019066 27.8059714,31.5175639 28.0673646,30.5466325 L28.9018885,27.4542606 L27.1058694,27.4542606 L27.5621024,25.7555141 L29.3583919,25.7555141 L29.7985808,24.1156576 L28.0817396,24.1156576 L28.5382429,22.4167497 L28.5382426,22.4167497 Z M39.9978381,18.2450119 L39.8847795,19.2395517 C39.8847795,19.2395517 41.239137,18.2064464 42.469172,18.2064464 L47.0143913,18.2064464 L45.2761821,24.5993665 C45.1320405,25.3302224 44.5139189,25.6936579 43.4221919,25.6936579 L38.2705036,25.6936579 L37.0637832,30.1827199 C36.9942377,30.4232722 37.0925329,30.5466275 37.3524459,30.5466275 L38.3660764,30.5466275 L37.9934932,31.9400504 L35.4164846,31.9400504 C34.4273308,31.9400504 34.0158915,31.6378396 34.17907,31.0307728 L37.5890491,18.2450119 L39.9978329,18.2450119 L39.9978375,18.2450119 L39.9978381,18.2450119 Z M43.8468394,20.0521569 L39.7899797,20.0521569 L39.3047266,21.7771576 C39.3047266,21.7771576 39.9803522,21.2815658 41.1093747,21.2638405 C42.2352862,21.2459204 43.5204871,21.2638405 43.5204871,21.2638405 L43.8468394,20.0521569 L43.8468394,20.0521569 Z M42.3770943,24.0538017 C42.6770255,24.0951306 42.8448614,23.9745388 42.8650648,23.6899326 L43.1133255,22.7806187 L39.0502528,22.7806187 L38.7095258,24.0538017 L42.3770943,24.0538017 L42.3770943,24.0538017 Z M39.6365184,26.1192628 L41.9784791,26.1192628 L41.9349659,27.1489323 L42.5585273,27.1489323 C42.8736111,27.1489323 43.0297945,27.0464223 43.0297945,26.8441197 L43.2143384,26.1780013 L45.1607902,26.1780013 L44.9008768,27.1489323 C44.6809769,27.9587741 44.0982067,28.3812609 43.1510104,28.4225899 L41.9034941,28.4225899 L41.8976655,30.1827202 C41.8747444,30.4646015 42.1257226,30.6082863 42.6424475,30.6082863 L43.8149834,30.6082863 L43.4365669,32.0019069 L40.6241216,32.0019069 C39.8358261,32.0399978 39.4492571,31.6583675 39.4574143,30.8488389 L39.6365184,26.1192632 L39.6365184,26.1192628 Z" id="path24" sketch:type="MSShapeGroup"></path>
                <path d="M11.2572784,9.72781547 C10.9396288,11.3092105 10.2032813,12.5238167 9.06108859,13.3863543 C7.92927134,14.2342892 6.4694315,14.6595398 4.68215309,14.6595398 C3.00016154,14.6595398 1.76705912,14.2253293 0.980162919,13.3539859 C0.434417986,12.7348822 0.162925676,11.9486441 0.162925676,10.9980401 C0.162925676,10.6049994 0.209235865,10.1825125 0.30166323,9.72781579 L2.20596284,0.398287263 L5.08205005,0.398287263 L3.20366523,9.62218295 C3.14585411,9.87749937 3.12277672,10.1151319 3.12580712,10.3293145 C3.12277672,10.8017747 3.23824231,11.1889345 3.47212807,11.4909862 C3.81285411,11.9399994 4.36586455,12.1628289 5.1354315,12.1628289 C6.0203882,12.1628289 6.74958859,11.9429602 7.31553685,11.4997895 C7.88160135,11.0597365 8.25115509,10.4349467 8.4171663,9.62218263 L10.3014581,0.398286947 L13.1629748,0.398286947 L11.2572784,9.72781547" id="path28" sketch:type="MSShapeGroup"></path>
                <path d="M23.3359298,6.05751189 L25.5884143,6.05751189 L23.824019,14.3838549 L21.5759642,14.3838549 L23.3359298,6.05751189 M24.044967,3.02407705 L26.3174984,3.02407705 L25.8930098,5.04513126 L23.6206325,5.04513126 L24.044967,3.02407705" id="path34" sketch:type="MSShapeGroup"></path>
                <path d="M27.582266,13.7501053 C26.9931241,13.1780523 26.6956778,12.4064605 26.6928037,11.4265667 C26.6928037,11.2592372 26.7028271,11.0686582 26.7246622,10.8601974 C26.7463785,10.6489345 26.7738477,10.4435529 26.812699,10.252974 C27.0798021,8.90052568 27.6487406,7.82672305 28.5250325,7.03448589 C29.3999656,6.23944674 30.4555587,5.84040695 31.6914177,5.84040695 C32.7034972,5.84040695 33.5061627,6.127974 34.093984,6.70298779 C34.6814161,7.28103979 34.9759125,8.06127632 34.9759125,9.05321147 C34.9759125,9.22310432 34.9630884,9.41972368 34.9413341,9.63094768 C34.9153022,9.84513063 34.8838348,10.0505122 34.8473123,10.2529737 C34.5862325,11.5848951 34.0190037,12.6470125 33.1425147,13.4246062 C32.2660307,14.2079217 31.2135442,14.5978424 29.9862312,14.5978424 C28.9698833,14.5978424 28.1699306,14.3163155 27.582266,13.7501049 M31.8747948,12.1012885 C32.2718594,11.6641579 32.5562491,11.0009596 32.7295245,10.1180514 C32.7555565,9.98020895 32.7784776,9.83636779 32.7928526,9.69264442 C32.8072272,9.55172305 32.8130559,9.41972337 32.8130559,9.29944705 C32.8130559,8.78597368 32.6844604,8.38709021 32.426098,8.10536811 C32.1692912,7.82072337 31.8040875,7.68007926 31.3320427,7.68007926 C30.7080925,7.68007926 30.1999137,7.90275 29.8016873,8.34884053 C29.3999656,8.79493358 29.1155759,9.46965789 28.9364671,10.3674073 C28.9119904,10.5052497 28.8917918,10.6432484 28.8731391,10.7781707 C28.8587644,10.9160132 28.8544911,11.0450927 28.8572135,11.1624079 C28.8572135,11.6729615 28.9858089,12.0661585 29.2441714,12.3447632 C29.5009782,12.6235655 29.8646262,12.7614076 30.3428888,12.7614076 C30.9695614,12.7614076 31.4777352,12.54138 31.8747948,12.1012882" id="path36" sketch:type="MSShapeGroup"></path>
                <path d="M49.590238,20.2456971 L50.1333793,18.3035912 L52.879395,18.3035912 L52.7608965,19.0162882 C52.7608965,19.0162882 54.164207,18.3035912 55.1747313,18.3035912 L58.5703403,18.3035912 L58.0306944,20.2456971 L57.4964884,20.2456971 L54.9350166,29.4052879 L55.4692227,29.4052879 L54.9610485,31.2243155 L54.4268425,31.2243155 L54.204614,32.0134712 L51.5452362,32.0134712 L51.7670805,31.2243155 L46.5205925,31.2243155 L47.0318775,29.4052879 L47.5575375,29.4052879 L50.1213379,20.2456971 L49.5902384,20.2456971 L49.590238,20.2456971 Z M52.5530427,20.2456971 L51.8541072,22.7246438 C51.8541072,22.7246438 53.0499531,22.2583803 54.0806757,22.1263803 C54.3083486,21.2607227 54.6059466,20.2456967 54.6059466,20.2456967 L52.5530424,20.2456967 L52.5530427,20.2456971 Z M51.5304773,23.8866698 L50.8292086,26.4831319 C50.8292086,26.4831319 52.1544275,25.8200924 53.0639389,25.7642744 C53.3265744,24.7607769 53.5895989,23.8866701 53.5895989,23.8866701 L51.5304773,23.8866701 L51.5304773,23.8866698 Z M52.0444801,29.4052879 L52.5701351,27.5218023 L50.5203422,27.5218023 L49.9919601,29.4052879 L52.0444801,29.4052879 L52.0444801,29.4052879 Z M58.6861167,18.1833537 L61.2677872,18.1833537 L61.3773508,19.1512105 C61.3602537,19.3976056 61.5043953,19.5152747 61.8105443,19.5152747 L62.2666588,19.5152747 L61.8051045,21.1551313 L59.9076057,21.1551313 C59.1830271,21.1932221 58.8104392,20.9118155 58.7758655,20.3042763 L58.6861167,18.1833537 L58.6861167,18.1833537 Z M57.9296822,21.7009737 L66.2920467,21.7009737 L65.8013538,23.4613809 L63.1388695,23.4613809 L62.6823661,25.098156 L65.3421327,25.098156 L64.8483289,26.8556842 L61.8859134,26.8556842 L61.2157276,27.8857102 L62.6656628,27.8857102 L63.0005612,29.9480511 C63.0405743,30.1534326 63.2196834,30.253182 63.5258321,30.253182 L63.976118,30.253182 L63.5029063,31.9516153 L61.9088391,31.9516153 C61.0828591,31.9929442 60.655883,31.7112603 60.6209159,31.1040395 L60.2366754,29.2205492 L58.9172851,31.2243158 C58.6053075,31.7904875 58.1258784,32.054646 57.4793962,32.0134715 L55.0449693,32.0134715 L55.5185651,30.3145658 L56.2781109,30.3145658 C56.5900885,30.3145658 56.8496127,30.1737625 57.0834988,29.8892744 L59.1484491,26.8556842 L56.4859647,26.8556842 L56.9793797,25.098156 L59.8671991,25.098156 L60.3264199,23.4613809 L57.435883,23.4613809 L57.9296822,21.7009737 L57.9296822,21.7009737 Z" id="path26" sketch:type="MSShapeGroup"></path>
                <path d="M13.9065903,6.05459179 L15.9379323,6.05459179 L15.7056018,7.25743326 L15.9971436,6.91420926 C16.6556342,6.19843326 17.4554281,5.84332895 18.3997099,5.84332895 C19.2544396,5.84332895 19.8708943,6.09576379 20.2578923,6.60319737 C20.6389458,7.11082832 20.7429129,7.81207895 20.562642,8.71275063 L19.4435292,14.3867773 L17.3558524,14.3867773 L18.3664522,9.24379042 C18.470576,8.71275095 18.441748,8.31663095 18.2811757,8.061276 C18.1225832,7.80607989 17.8191921,7.68007926 17.3818039,7.68007926 C16.8447237,7.68007926 16.3927663,7.85001316 16.0246102,8.18755358 C15.6549011,8.52785495 15.4110321,9.00031547 15.2911368,9.60165789 L14.3599066,14.3867773 L12.2678785,14.3867773 L13.9065903,6.05459179" id="path30" sketch:type="MSShapeGroup"></path>
                <path d="M37.2020968,6.05459179 L39.2351864,6.05459179 L39.0044116,7.25743326 L39.2926902,6.91420926 C39.9516075,6.19843326 40.7542777,5.84332895 41.6956453,5.84332895 C42.550375,5.84332895 43.1681125,6.09576379 43.5519591,6.60319737 C43.9307598,7.11082832 44.0403234,7.81207895 43.8553904,8.71275063 L42.7407426,14.3867773 L40.6501539,14.3867773 L41.6610667,9.24379042 C41.7647967,8.71275095 41.736047,8.31663095 41.5771465,8.061276 C41.4124171,7.80607989 41.1148145,7.68007926 40.6792924,7.68007926 C40.1419798,7.68007926 39.6916895,7.85001316 39.3191063,8.18755358 C38.9492408,8.52785495 38.7040909,9.00031547 38.588699,9.60165789 L37.65316,14.3867773 L35.5637331,14.3867773 L37.2020961,6.05459179" id="path32" sketch:type="MSShapeGroup"></path>
                <path d="M47.2513839,0.890917579 L53.1536827,0.890917579 C54.2885292,0.890917579 55.1661799,1.15223305 55.7695427,1.66539095 C56.370183,2.18486589 56.6708922,2.93012937 56.6708922,3.90118232 L56.6708922,3.93039253 C56.6708922,4.11513032 56.6588507,4.32354884 56.6417536,4.54934211 C56.6126151,4.77236589 56.5749306,4.99815537 56.5263664,5.23302411 C56.266453,6.51808958 55.6627015,7.55087905 54.730269,8.33419484 C53.7943412,9.11455168 52.6859112,9.50774905 51.4096453,9.50774905 L48.2444219,9.50774905 L47.2657586,14.3867751 L44.5251827,14.3867751 L47.2513836,0.890917895 M48.7265681,7.16076126 L51.3517568,7.16076126 C52.0359284,7.16076126 52.5786809,6.99915632 52.9745737,6.67953853 C53.3673649,6.35680074 53.6272782,5.86401095 53.7714152,5.19513126 C53.7943409,5.07157832 53.8087156,4.96026221 53.8261968,4.85762937 C53.835132,4.76091947 53.8464002,4.66381453 53.8464002,4.57025968 C53.8464002,4.09183895 53.6793375,3.74565758 53.34405,3.52855232 C53.0091517,3.308286 52.4838851,3.20289442 51.7558065,3.20289442 L49.5265156,3.20289442 L48.7265675,7.16076126" id="path38" sketch:type="MSShapeGroup"></path>
                <path d="M68.9370442,15.9976187 C68.0706572,17.8692625 67.245066,18.9604749 66.7602018,19.4680674 C66.2745599,19.969974 65.3133778,21.1376858 62.9974493,21.0495013 L63.1967571,19.6208691 C65.1455421,19.0106049 66.1995796,16.2613029 66.8002199,15.0439358 L66.0841873,6.07803916 L67.5916216,6.05751442 L68.8562303,6.05751442 L68.99221,11.6817628 L71.3625313,6.05751442 L73.7623799,6.05751442 L68.9370439,15.9976187" id="path40" sketch:type="MSShapeGroup"></path>
                <path d="M62.2266401,6.73519737 L61.2732264,7.40131579 C60.2770771,6.60923779 59.3675657,6.11921116 57.6122641,6.94646021 C55.2209616,8.07299968 53.2228391,16.7133951 59.8065878,13.8674615 L60.1818931,14.3192381 L62.7721096,14.3867776 L64.473023,6.53565853 L62.2266401,6.73519768 M60.7537841,11.0274862 C60.3376877,12.2744608 59.4083615,13.0987898 58.6806766,12.8641184 C57.9529914,12.6352895 57.6930737,11.4322506 58.1146096,10.1825122 C58.5303219,8.93261968 59.4658609,8.11121116 60.1877171,8.34592105 C60.915407,8.57475 61.1780424,9.77759147 60.7537841,11.0274862" id="path42" sketch:type="MSShapeGroup"></path>
            </g>
        </g>
    </g>
</svg>