<?xml version="1.0" encoding="UTF-8" standalone="no"?>
<svg width="100px" height="60px" viewBox="0 0 100 60" version="1.1" xmlns="http://www.w3.org/2000/svg" xmlns:xlink="http://www.w3.org/1999/xlink" xmlns:sketch="http://www.bohemiancoding.com/sketch/ns">
    <!-- Generator: Sketch 3.3.3 (12081) - http://www.bohemiancoding.com/sketch -->
    <title>Payment/GoogleWallet/GoogleWallet-card-flat</title>
    <desc>Created with Sketch.</desc>
    <defs></defs>
    <g id="Icons:-Payment" stroke="none" stroke-width="1" fill="none" fill-rule="evenodd" sketch:type="MSPage">
        <g id="GoogleWallet-card-flat" sketch:type="MSArtboardGroup" fill="#9B9B9B">
            <g id="Payment/GoogleWallet/GoogleWallet-card-flat" sketch:type="MSLayerGroup">
                <path d="M0,4.0065556 C0,1.79379604 1.79952991,0 3.99732351,0 L96.0026765,0 C98.2103373,0 100,1.79568082 100,4.0065556 L100,55.9934444 C100,58.206204 98.2004701,60 96.0026765,60 L3.99732351,60 C1.78966269,60 0,58.2043192 0,55.9934444 L0,4.0065556 Z M52.586205,51.0985346 C52.4939981,51.1544247 52.4017911,51.2103149 52.2911427,51.266205 C51.9960804,51.3966154 51.7010181,51.4338755 51.4428386,51.4338755 C51.1662177,51.4338755 50.7236243,51.4152455 50.2810308,51.0799045 C49.6540234,50.6327833 49.3774025,49.8689511 49.3774025,49.1982692 C49.3774025,47.8196453 50.4838861,47.1489634 51.3875144,47.1489634 C51.7010181,47.1489634 52.0329632,47.2234836 52.2911427,47.3911541 C52.7337362,47.6892349 52.8443846,48.061836 52.8997087,48.2667666 L50.8342726,49.1051189 L50.151941,49.1610091 C50.3732378,50.2974423 51.1293349,50.9494942 51.9591976,50.9494942 C52.4017911,50.9494942 52.7337362,50.7818237 53.0287985,50.6327833 L52.586205,51.0985346 Z M51.7563423,48.4530671 C51.9223149,48.3971769 52.0145218,48.3412868 52.0145218,48.2108764 C52.0145218,47.8569054 51.6272526,47.4470443 51.1477763,47.4470443 C50.7973898,47.4470443 50.1334997,47.7264951 50.1334997,48.6766277 C50.1334997,48.8256682 50.151941,48.9933386 50.151941,49.1423791 L51.7563423,48.4530671 Z M49.1745472,51.2848351 L47.6254701,51.2848351 C47.8283254,51.0240144 47.8652082,50.9867543 47.8652082,50.8190838 L47.8652082,49.3659397 C47.8652082,48.6766277 47.8836496,47.6892349 47.902091,46.7577323 C47.902091,46.3106111 47.9389738,45.7330794 47.9574152,45.3232183 L47.2750836,45.3232183 L47.9389738,45.0065074 L49.1929886,45.0065074 C48.9163677,45.1741778 48.8241607,45.211438 48.8057193,45.5281488 C48.7319537,46.2174608 48.7319537,47.2980038 48.7319537,48.5648474 L48.7319537,50.6141532 C48.7319537,50.9681242 48.7872779,51.0240144 49.0823402,51.0426444 C49.2298714,51.0612745 49.3774025,51.0799045 49.5249337,51.0799045 L49.1745472,51.2848351 Z M46.2792483,47.5774546 C46.4821037,47.7451251 46.9062557,48.0990961 46.9062557,48.7884081 C46.9062557,49.4404599 46.5374279,49.7571708 46.1686,50.0552516 C46.0579516,50.1670319 45.9288619,50.2974423 45.9288619,50.4837428 C45.9288619,50.6700434 46.0579516,50.7818237 46.1501586,50.8563439 L46.4636623,51.0985346 C46.8509316,51.4338755 47.201318,51.7319564 47.201318,52.3467481 C47.201318,53.1851005 46.4083381,54.0234528 44.8777024,54.0234528 C43.6052462,54.0234528 42.9782388,53.4086611 42.9782388,52.7566093 C42.9782388,52.4398984 43.1442114,51.974147 43.6605704,51.6760662 C44.2138122,51.3407253 44.951468,51.2848351 45.3387373,51.266205 C45.2096475,51.0985346 45.0805577,50.9308641 45.0805577,50.6700434 C45.0805577,50.5210029 45.1174405,50.4278527 45.1727647,50.3160724 C45.0805577,50.3160724 44.9699094,50.3347024 44.8961438,50.3347024 C43.9556327,50.3347024 43.4392737,49.6267604 43.4392737,48.9374485 C43.4392737,48.5275873 43.6236876,48.0804661 44.0109569,47.7451251 C44.5088745,47.3352639 45.1174405,47.2607437 45.5784754,47.2607437 L47.385732,47.2607437 L46.8140488,47.5774546 L46.2792483,47.5774546 Z M45.652241,51.5270258 L45.4493856,51.5270258 C45.37562,51.5270258 44.8961438,51.5456558 44.5273159,51.6760662 C44.3244606,51.7505864 43.7712188,51.955517 43.7712188,52.5889388 C43.7712188,53.2223606 44.3797848,53.6694818 45.3202959,53.6694818 C46.1686,53.6694818 46.6111934,53.2596207 46.6111934,52.7007191 C46.6111934,52.2535978 46.3161311,52.0114072 45.652241,51.5270258 L45.652241,51.5270258 Z M45.9104205,49.8503211 C46.1132758,49.6453905 46.1317172,49.3659397 46.1317172,49.1982692 C46.1317172,48.5648474 45.7444479,47.5588246 45.0252336,47.5588246 C44.8039368,47.5588246 44.5457573,47.6706049 44.4166676,47.8569054 C44.2691364,48.0432059 44.2138122,48.2853966 44.2138122,48.5089573 C44.2138122,49.1051189 44.5641987,50.0925117 45.3202959,50.0925117 C45.5231512,50.0925117 45.7628893,49.9807314 45.9104205,49.8503211 Z M40.8390372,51.4152455 C39.4374912,51.4152455 38.6998355,50.3160724 38.6998355,49.3100495 C38.6998355,48.1363562 39.6403466,47.1489634 40.9865683,47.1489634 C42.2774659,47.1489634 43.0888872,48.1736163 43.0888872,49.2541594 C43.0704458,50.2974423 42.2590245,51.4152455 40.8390372,51.4152455 Z M41.9270794,50.6886734 C42.1299347,50.4092226 42.1852589,50.0552516 42.1852589,49.7012806 C42.1852589,48.9188184 41.816431,47.4284142 40.7283888,47.4284142 C40.4333265,47.4284142 40.1567056,47.5401945 39.9354089,47.7264951 C39.5850224,48.0432059 39.5296982,48.4344371 39.5296982,48.8070381 C39.5296982,49.6826506 39.9538503,51.1357947 41.0234511,51.1357947 C41.3738376,51.1357947 41.7242241,50.9681242 41.9270794,50.6886734 Z M36.1549231,51.4152455 C34.7533772,51.4152455 34.0157214,50.3160724 34.0157214,49.3100495 C34.0157214,48.1363562 34.9562325,47.1489634 36.3024543,47.1489634 C37.5933518,47.1489634 38.4047732,48.1736163 38.4047732,49.2541594 C38.3863318,50.2974423 37.5749104,51.4152455 36.1549231,51.4152455 Z M37.2429654,50.6886734 C37.4458207,50.4092226 37.5011449,50.0552516 37.5011449,49.7012806 C37.5011449,48.9188184 37.132317,47.4284142 36.0442748,47.4284142 C35.7492125,47.4284142 35.4541502,47.5401945 35.2512948,47.7264951 C34.9009083,48.0432059 34.8455842,48.4344371 34.8455842,48.8070381 C34.8455842,49.6826506 35.2697362,51.1357947 36.3393371,51.1357947 C36.6897235,51.1357947 37.04011,50.9681242 37.2429654,50.6886734 Z M33.4255968,51.0985346 L32.2453476,51.3779854 C31.7658714,51.4525056 31.3417193,51.5270258 30.8806845,51.5270258 C28.5939516,51.5270258 27.7272061,49.831691 27.7272061,48.5089573 C27.7272061,46.8881427 28.9627795,45.3977385 31.0650984,45.3977385 C31.5076919,45.3977385 31.9318439,45.4722587 32.3191132,45.565409 C32.9461206,45.7330794 33.2227415,45.9566401 33.4071554,46.0870504 L32.7248239,46.7391023 L32.4297616,46.8136225 L32.6326169,46.4782815 C32.355996,46.1988307 31.839637,45.6958193 30.8622431,45.6958193 C29.5529041,45.6958193 28.5755103,46.7018422 28.5755103,48.1549863 C28.5755103,49.7199107 29.7004353,51.1916848 31.4892505,51.1916848 C32.0240509,51.1916848 32.2822304,51.0799045 32.5404099,50.9867543 L32.5404099,49.6453905 L31.2863951,49.7199107 L31.9502853,49.3659397 L33.7022177,49.3659397 L33.480921,49.5708703 C33.4255968,49.6267604 33.4071554,49.6453905 33.4071554,49.7012806 C33.4071554,49.7758008 33.388714,50.0179915 33.388714,50.0925117 L33.388714,51.0985346 L33.4255968,51.0985346 Z M56.3666908,51.2848351 L55.7396834,51.2848351 L54.8176137,47.2607437 L55.3155313,47.2607437 L56.0716285,50.8749739 L56.846167,47.2607437 L57.4731744,47.2607437 L58.2845957,50.8749739 L59.0222515,47.2607437 L59.5017277,47.2607437 L58.5980994,51.2848351 L57.971092,51.2848351 L57.1781121,47.707865 L56.3666908,51.2848351 Z M62.415468,48.4903272 C62.415468,47.8382754 62.1204057,47.5774546 61.4749569,47.5774546 C60.9585978,47.5774546 60.6635355,47.8569054 60.58977,48.3226567 L60.1287351,48.2667666 C60.2209421,47.6147147 60.7373011,47.1675935 61.4749569,47.1675935 C62.3601438,47.1675935 62.8580614,47.5588246 62.8580614,48.4344371 L62.8580614,50.4837428 C62.8580614,50.8377138 62.8765028,51.0799045 62.931827,51.266205 L62.4707921,51.266205 C62.4339093,51.1544247 62.415468,50.9494942 62.415468,50.8377138 C62.231054,51.1171646 61.7884606,51.3593553 61.3643085,51.3593553 C60.6266528,51.3593553 60.0549695,50.912234 60.0549695,50.0179915 C60.0549695,49.1982692 60.6450941,48.7325179 61.4749569,48.7325179 C61.8806675,48.7325179 62.2126126,48.8070381 62.415468,48.9001884 L62.415468,48.4903272 Z M62.415468,49.3659397 C62.1941712,49.2541594 61.8806675,49.1610091 61.4565155,49.1610091 C60.9032737,49.1610091 60.497563,49.4404599 60.497563,50.0366216 C60.497563,50.6514133 60.8663909,50.9681242 61.3827499,50.9681242 C61.8437847,50.9681242 62.2494954,50.6327833 62.415468,50.2788123 L62.415468,49.3659397 L62.415468,49.3659397 Z M63.7616897,51.2848351 L64.2616897,51.2848351 L64.2616897,45.5467789 L63.7616897,45.5467789 L63.7616897,51.2848351 Z M65.181677,51.2848351 L65.681677,51.2848351 L65.681677,45.5467789 L65.181677,45.5467789 L65.181677,51.2848351 Z M67.8741205,50.9494942 C68.3535968,50.9494942 68.7224247,50.6514133 68.7961902,49.9062112 L69.2572251,49.9807314 C69.1465767,50.9494942 68.5933349,51.3966154 67.8741205,51.3966154 C66.9336094,51.3966154 66.3619262,50.6886734 66.3619262,49.2541594 C66.3619262,47.9686857 66.8414025,47.1862235 67.8187964,47.1862235 C68.8515144,47.1862235 69.2572251,48.0432059 69.2572251,49.2168993 L69.2572251,49.3659397 L66.8229611,49.3659397 C66.8414025,50.4651128 67.2471131,50.9494942 67.8741205,50.9494942 Z M68.7777488,48.9560785 C68.7593074,48.1922464 68.4642451,47.6147147 67.8187964,47.6147147 C67.191789,47.6147147 66.8598439,48.1363562 66.8229611,48.9560785 L68.7777488,48.9560785 Z M71.3779854,51.266205 C71.2857784,51.3034652 71.1013645,51.3407253 70.8985091,51.3407253 C70.3083845,51.3407253 70.1239706,51.0426444 70.1239706,50.4651128 L70.1239706,47.6706049 L69.6076116,47.6706049 L69.6076116,47.2607437 L70.1239706,47.2607437 L70.1239706,45.9566401 L70.5850054,45.7703395 L70.5850054,47.2607437 L71.3779854,47.2607437 L71.3779854,47.6706049 L70.5850054,47.6706049 L70.5850054,50.3905926 C70.5850054,50.7818237 70.658771,50.8749739 70.9722747,50.8749739 C71.1382472,50.8749739 71.267337,50.8377138 71.3779854,50.7818237 L71.3779854,51.266205 Z M41.7467264,15.5009982 C42.9436488,17.4276724 43.6488894,19.6127826 43.9071465,21.8641586 C43.9766773,22.4638628 44.0197201,23.0668804 44.0197201,23.6748678 C44.0197201,26.572334 43.2300493,29.4035345 41.7384489,31.8636473 C41.6854731,31.9497926 41.6391193,32.0375946 41.5960764,32.1270533 C41.3063649,32.7135044 41.2004133,33.3463415 41.2583556,33.9642688 C41.3576852,35.0112663 41.9255198,36.0002814 42.890673,36.5850758 C43.1389971,36.7358302 43.4038762,36.8501385 43.6770328,36.9346272 C43.9998542,37.0323691 44.3342641,37.0853816 44.6719849,37.0853816 C45.8821513,37.0853816 46.983055,36.4674543 47.6121429,35.4320533 C49.5027174,32.3159104 50.6069321,28.7889205 50.8420123,25.1525922 C50.8751222,24.6622262 50.8900217,24.168547 50.8900217,23.6732112 C50.8900217,19.5282939 49.7609745,15.469522 47.6270423,11.9392187 C47.562478,11.8331937 47.4896363,11.7337952 47.4167945,11.63771 C47.1767478,11.3229481 46.8903473,11.0595421 46.5691814,10.8491486 C46.0245238,10.4929706 45.3706035,10.2842338 44.7067503,10.2842338 C44.1554707,10.2842338 43.8740366,10.3521561 43.476718,10.5111937 C43.0711219,10.6735446 42.6390379,10.8938779 42.2483412,11.3063817 C41.8609555,11.7155721 41.6291863,12.1330458 41.4669479,12.5654293 C41.1375045,13.4368228 41.1755809,14.5848754 41.7467264,15.5009982 Z M32.5322449,20.7078227 C37.3166235,23.2689907 40.402465,28.1544267 40.7683292,33.8002613 L40.7683292,33.7952914 C40.7136979,33.1657676 40.8163386,32.5511535 41.1060501,31.9663591 C41.145782,31.8851836 41.1937913,31.7973816 41.2484226,31.7046097 C42.743334,29.2444969 43.5296938,26.4116398 43.5296938,23.5158303 C43.5296938,22.9078428 43.4883065,22.3048252 43.4187757,21.705121 C41.4520484,18.991542 38.7138608,16.615918 35.6131199,14.9526498 C35.1396485,14.7008403 34.6098903,14.5666523 34.0768211,14.5666523 C32.8666548,14.5666523 31.765751,15.2259957 31.196261,16.2912162 C30.3453369,17.8749656 30.9462813,19.8546523 32.5322449,20.7078227 Z M54.4774779,35.7981711 C56.2753448,31.9961786 57.1842111,27.9158703 57.1842111,23.6748678 C57.1842111,22.2170232 57.083226,21.1534593 57.0103842,20.4808628 C54.6595823,16.7153165 51.2509194,13.3506774 47.2628336,10.8789681 C47.2380011,10.8624017 47.2148242,10.8458353 47.2115132,10.8441786 C47.2297237,10.8541185 47.2462786,10.8673716 47.2628336,10.8789681 C47.2860105,10.8938779 47.3091874,10.9104443 47.3124984,10.912101 C47.5889659,11.1125546 47.8223906,11.3212914 48.0674038,11.63771 C48.1270016,11.7155721 48.2097763,11.8249105 48.2793071,11.9392187 C50.4148948,15.4711786 51.5439419,19.5282939 51.5439419,23.6732112 C51.5439419,24.1668904 51.527387,24.6605696 51.4959326,25.1525922 C53.2093692,28.4145195 54.143068,32.1220834 54.143068,36.0135345 C54.143068,36.3233265 54.14969,36.8186623 54.143068,37.1814668 C54.159623,36.773933 54.2622636,36.3448628 54.4079471,35.9721185 C54.4261576,35.9124794 54.447679,35.8528403 54.4774779,35.7981711 Z M64.0611346,31.6317175 C64.6471796,29.0506698 64.9567571,26.3917601 64.9567571,23.6748678 C64.9567571,20.9877952 64.6471796,18.2907826 64.0644456,15.7163616 C63.4866781,13.1899832 62.632443,10.7215872 61.5199508,8.38075259 C60.9223174,7.12998818 59.6442757,6.32154708 58.2569715,6.32154708 C57.7239023,6.32154708 57.1991106,6.43916863 56.7107398,6.67109846 C54.9145284,7.52758216 54.14969,9.68949945 55.0022696,11.4819857 C56.8332463,15.3469305 57.7404572,19.4322087 57.7404572,23.6748678 C57.7404572,27.9158703 56.8299354,31.9961786 55.0320685,35.7981711 C55.0039251,35.8561535 54.6893812,36.52875 54.6893812,37.3057149 C54.6893812,37.5243916 54.7142136,37.85075 54.7820889,38.1423189 C55.0171691,39.1644668 55.6826778,40.0938428 56.7488161,40.6040884 C57.240498,40.8360182 57.7537012,40.9519831 58.2884259,40.9519831 C59.6061994,40.9519831 60.8229877,40.2263741 61.4537311,39.0799781 C62.1722156,37.7298152 62.8989776,35.9538954 63.529721,33.6660733 C63.7383132,32.9769104 63.9038627,32.3308202 64.0611346,31.6317175 Z" id="Rectangle" sketch:type="MSShapeGroup"></path>
            </g>
        </g>
    </g>
</svg>