<?xml version="1.0" encoding="UTF-8" standalone="no"?>
<svg width="45px" height="49px" viewBox="0 0 45 49" version="1.1" xmlns="http://www.w3.org/2000/svg" xmlns:xlink="http://www.w3.org/1999/xlink" xmlns:sketch="http://www.bohemiancoding.com/sketch/ns">
    <!-- Generator: Sketch 3.3.3 (12081) - http://www.bohemiancoding.com/sketch -->
    <title>Payment/GoogleWallet/GoogleWallet</title>
    <desc>Created with Sketch.</desc>
    <defs></defs>
    <g id="Icons:-Payment" stroke="none" stroke-width="1" fill="none" fill-rule="evenodd" sketch:type="MSPage">
        <g id="GoogleWallet" sketch:type="MSArtboardGroup" transform="translate(-27.000000, -5.000000)">
            <g id="Payment/GoogleWallet/GoogleWallet" sketch:type="MSLayerGroup" transform="translate(27.000000, 5.000000)">
                <g id="Google-Wallet" transform="translate(0.526323, 39.532415)" fill="#1476C6" sketch:type="MSShapeGroup">
                    <path d="M25.0767412,6.22549904 C24.9839331,6.28175355 24.891125,6.33800806 24.7797553,6.39426257 C24.4827695,6.52552309 24.1857837,6.5630261 23.9259211,6.5630261 C23.6474969,6.5630261 23.2020181,6.54427459 22.7565394,6.20674754 C22.1254445,5.75671146 21.8470203,4.98789983 21.8470203,4.31284572 C21.8470203,2.92523449 22.9607171,2.25018038 23.8702362,2.25018038 C24.1857837,2.25018038 24.5198927,2.32518639 24.7797553,2.49394992 C25.2252341,2.79397397 25.3366038,3.16900403 25.3922886,3.37527056 L23.3133878,4.2190882 L22.6266081,4.27534271 C22.8493474,5.41918441 23.6103736,6.07548701 24.4456463,6.07548701 C24.891125,6.07548701 25.2252341,5.90672349 25.5222199,5.75671146 L25.0767412,6.22549904 L25.0767412,6.22549904 Z M24.2414685,3.5627856 C24.4085231,3.50653109 24.5013311,3.45027658 24.5013311,3.31901605 C24.5013311,2.96273749 24.1115372,2.55020443 23.6289352,2.55020443 C23.2762646,2.55020443 22.6080465,2.83147697 22.6080465,3.78780363 C22.6080465,3.93781566 22.6266081,4.10657919 22.6266081,4.25659121 L24.2414685,3.5627856 L24.2414685,3.5627856 Z" id="path8"></path>
                    <path d="M21.6428425,6.41301407 L20.0836669,6.41301407 C20.2878446,6.15049303 20.3249679,6.11299002 20.3249679,5.94422649 L20.3249679,4.48160925 C20.3249679,3.78780363 20.3435295,2.79397397 20.3620911,1.85639881 C20.3620911,1.40636273 20.3992143,0.825066138 20.4177759,0.412533069 L19.7309962,0.412533069 L20.3992143,0.0937575157 L21.6614041,0.0937575157 C21.3829799,0.262521044 21.2901718,0.30002405 21.2716102,0.618799603 C21.1973638,1.31260522 21.1973638,2.4001924 21.1973638,3.67529461 L21.1973638,5.73795996 C21.1973638,6.09423852 21.2530486,6.15049303 21.5500344,6.16924453 C21.6985273,6.18799603 21.8470203,6.20674754 21.9955132,6.20674754 L21.6428425,6.41301407" id="path10"></path>
                    <path d="M18.728669,2.68146495 C18.9328468,2.85022848 19.3597639,3.20650704 19.3597639,3.90031265 C19.3597639,4.55661526 18.9885316,4.87539081 18.6172993,5.17541486 C18.5059296,5.28792388 18.3759983,5.41918441 18.3759983,5.60669944 C18.3759983,5.79421447 18.5059296,5.90672349 18.5987377,5.9817295 L18.9142852,6.22549904 C19.3040791,6.5630261 19.6567497,6.86305015 19.6567497,7.48184975 C19.6567497,8.32566739 18.8586003,9.16948503 17.3179863,9.16948503 C16.0372349,9.16948503 15.40614,8.55068543 15.40614,7.89438282 C15.40614,7.57560727 15.5731946,7.10681969 16.0929198,6.80679564 C16.6497682,6.46926858 17.3922328,6.41301407 17.7820267,6.39426257 C17.6520954,6.22549904 17.5221641,6.05673551 17.5221641,5.79421447 C17.5221641,5.64420244 17.5592873,5.55044493 17.6149722,5.43793591 C17.5221641,5.43793591 17.4107944,5.45668741 17.3365479,5.45668741 C16.3899056,5.45668741 15.8701804,4.74413029 15.8701804,4.05032468 C15.8701804,3.63779161 16.0557965,3.18775553 16.4455904,2.85022848 C16.946754,2.43769541 17.5592873,2.36268939 18.0233277,2.36268939 L19.8423659,2.36268939 L19.2669558,2.68146495 L18.728669,2.68146495 L18.728669,2.68146495 Z M18.0975741,6.65678361 L17.8933964,6.65678361 C17.8191499,6.65678361 17.3365479,6.67553512 16.9653156,6.80679564 C16.7611379,6.88180165 16.2042895,7.08806818 16.2042895,7.72561929 C16.2042895,8.3631704 16.8168227,8.81320647 17.7634651,8.81320647 C18.6172993,8.81320647 19.0627781,8.4006734 19.0627781,7.83812831 C19.0627781,7.38809223 18.7657923,7.14432269 18.0975741,6.65678361 L18.0975741,6.65678361 Z M18.3574367,4.96914833 C18.5616145,4.7628818 18.5801761,4.48160925 18.5801761,4.31284572 C18.5801761,3.67529461 18.1903822,2.66271344 17.4664792,2.66271344 C17.2437399,2.66271344 16.9838773,2.77522246 16.853946,2.96273749 C16.705453,3.15025253 16.6497682,3.39402207 16.6497682,3.6190401 C16.6497682,4.2190882 17.0024389,5.21291787 17.7634651,5.21291787 C17.9676428,5.21291787 18.2089438,5.10040885 18.3574367,4.96914833 L18.3574367,4.96914833 Z" id="path12"></path>
                    <path d="M13.2529927,6.54427459 C11.84231,6.54427459 11.0998455,5.43793591 11.0998455,4.42535474 C11.0998455,3.24401004 12.0464878,2.25018038 13.4014857,2.25018038 C14.7007987,2.25018038 15.5175097,3.28151305 15.5175097,4.36910023 C15.4989481,5.41918441 14.6822371,6.54427459 13.2529927,6.54427459 M14.348128,5.81296597 C14.5523058,5.53169342 14.6079906,5.17541486 14.6079906,4.81913631 C14.6079906,4.03157317 14.2367583,2.53145292 13.1416231,2.53145292 C12.8446372,2.53145292 12.566213,2.64396194 12.3434736,2.83147697 C11.990803,3.15025253 11.9351181,3.54403409 11.9351181,3.91906415 C11.9351181,4.8003848 12.3620353,6.26300205 13.4386089,6.26300205 C13.7912796,6.26300205 14.1439502,6.09423852 14.348128,5.81296597" id="path14"></path>
                    <path d="M8.53834267,6.54427459 C7.12765997,6.54427459 6.38519539,5.43793591 6.38519539,4.42535474 C6.38519539,3.24401004 7.33183772,2.25018038 8.68683558,2.25018038 C9.9861486,2.25018038 10.8028596,3.28151305 10.8028596,4.36910023 C10.784298,5.41918441 9.96758698,6.54427459 8.53834267,6.54427459 M9.63347792,5.81296597 C9.83765568,5.53169342 9.89334052,5.17541486 9.89334052,4.81913631 C9.89334052,4.03157317 9.52210824,2.53145292 8.42697298,2.53145292 C8.12998715,2.53145292 7.83300132,2.64396194 7.62882356,2.83147697 C7.27615288,3.15025253 7.22046804,3.54403409 7.22046804,3.91906415 C7.22046804,4.8003848 7.64738517,6.26300205 8.72395881,6.26300205 C9.07662949,6.26300205 9.42930016,6.09423852 9.63347792,5.81296597" id="path16"></path>
                    <path d="M5.79122372,6.22549904 L4.60328039,6.50677159 C4.12067842,6.5817776 3.69376128,6.65678361 3.22972092,6.65678361 C0.928080725,6.65678361 0.0556848435,4.95039683 0.0556848435,3.6190401 C0.0556848435,1.98765933 1.29931301,0.487539081 3.41533707,0.487539081 C3.86081581,0.487539081 4.28773295,0.562545094 4.67752685,0.65630261 C5.30862175,0.825066138 5.58704596,1.05008418 5.77266211,1.1813447 L5.08588237,1.83764731 L4.78889654,1.91265332 L4.9930743,1.57512626 C4.71465008,1.29385372 4.19492488,0.787563132 3.21115931,0.787563132 C1.89328468,0.787563132 0.90951911,1.8001443 0.90951911,3.26276155 C0.90951911,4.83788781 2.04177759,6.31925656 3.8422542,6.31925656 C4.38054102,6.31925656 4.64040362,6.20674754 4.90026623,6.11299002 L4.90026623,4.7628818 L3.63807644,4.83788781 L4.30629456,4.48160925 L6.06964794,4.48160925 L5.84690857,4.68787578 C5.79122372,4.74413029 5.77266211,4.7628818 5.77266211,4.81913631 C5.77266211,4.89414232 5.75410049,5.13791186 5.75410049,5.21291787 L5.75410049,6.22549904" id="path18"></path>
                    <path d="M28.8818722,6.41301407 L28.2507773,6.41301407 L27.3226965,2.36268939 L27.8238601,2.36268939 L28.5848863,6.000481 L29.3644741,2.36268939 L29.995569,2.36268939 L30.8122801,6.000481 L31.5547446,2.36268939 L32.0373466,2.36268939 L31.1278275,6.41301407 L30.4967326,6.41301407 L29.6985832,2.81272547 L28.8818722,6.41301407" id="path20"></path>
                    <path d="M34.9700817,3.6002886 C34.9700817,2.94398599 34.6730959,2.68146495 34.0234394,2.68146495 C33.5037142,2.68146495 33.2067283,2.96273749 33.1324819,3.43152507 L32.6684415,3.37527056 C32.7612496,2.71896795 33.2809748,2.26893188 34.0234394,2.26893188 C34.9143969,2.26893188 35.4155605,2.66271344 35.4155605,3.54403409 L35.4155605,5.60669944 C35.4155605,5.962978 35.4341221,6.20674754 35.4898069,6.39426257 L35.0257665,6.39426257 C34.9886433,6.28175355 34.9700817,6.07548701 34.9700817,5.962978 C34.7844656,6.24425054 34.3389868,6.48802008 33.9120697,6.48802008 C33.1696051,6.48802008 32.5941951,6.03798401 32.5941951,5.13791186 C32.5941951,4.31284572 33.1881667,3.84405814 34.0234394,3.84405814 C34.4317949,3.84405814 34.7659039,3.91906415 34.9700817,4.01282167 L34.9700817,3.6002886 L34.9700817,3.6002886 Z M34.9700817,4.48160925 C34.7473423,4.36910023 34.4317949,4.27534271 34.0048778,4.27534271 C33.4480293,4.27534271 33.0396738,4.55661526 33.0396738,5.15666336 C33.0396738,5.77546296 33.4109061,6.09423852 33.9306313,6.09423852 C34.3946717,6.09423852 34.8030272,5.75671146 34.9700817,5.4004329 L34.9700817,4.48160925 L34.9700817,4.48160925 Z" id="path22"></path>
                    <path d="M36.3250796,6.41301407 L36.8250796,6.41301407 L36.8250796,0.637551107 L36.3250796,0.637551107 L36.3250796,6.41301407 L36.3250796,6.41301407 Z" id="path24"></path>
                    <path d="M37.7543239,6.41301407 L38.2543239,6.41301407 L38.2543239,0.637551107 L37.7543239,0.637551107 L37.7543239,6.41301407 L37.7543239,6.41301407 Z" id="path26"></path>
                    <path d="M40.4643196,6.07548701 C40.9469216,6.07548701 41.3181539,5.77546296 41.3924003,5.02540284 L41.8564407,5.10040885 C41.745071,6.07548701 41.1882226,6.52552309 40.4643196,6.52552309 C39.5176773,6.52552309 38.9422672,5.81296597 38.9422672,4.36910023 C38.9422672,3.07524651 39.4248692,2.28768338 40.4086348,2.28768338 C41.4480852,2.28768338 41.8564407,3.15025253 41.8564407,4.33159722 L41.8564407,4.48160925 L39.4063076,4.48160925 C39.4248692,5.58794793 39.8332247,6.07548701 40.4643196,6.07548701 M41.3738387,4.06907618 L41.3738387,4.06907618 C41.3552771,3.30026455 41.0582913,2.71896795 40.4086348,2.71896795 C39.7775399,2.71896795 39.4434308,3.24401004 39.4063076,4.06907618 L41.3738387,4.06907618" id="path28"></path>
                    <path d="M43.9910263,6.39426257 C43.8982183,6.43176557 43.7126021,6.46926858 43.5084244,6.46926858 C42.9144527,6.46926858 42.7288366,6.16924453 42.7288366,5.58794793 L42.7288366,2.77522246 L42.2091114,2.77522246 L42.2091114,2.36268939 L42.7288366,2.36268939 L42.7288366,1.05008418 L43.1928769,0.862569144 L43.1928769,2.36268939 L43.9910263,2.36268939 L43.9910263,2.77522246 L43.1928769,2.77522246 L43.1928769,5.51294192 C43.1928769,5.90672349 43.2671234,6.000481 43.5826708,6.000481 C43.7497254,6.000481 43.8796567,5.962978 43.9910263,5.90672349 L43.9910263,6.39426257" id="path30"></path>
                </g>
                <path d="M17.2503382,16.5805751 C15.282807,13.8428556 12.5542497,11.4426632 9.45446007,9.77377946 C8.9904197,9.51125841 8.45213288,9.37999789 7.91384606,9.37999789 C6.70734112,9.37999789 5.61220587,10.0363005 5.03679582,11.1238877 C4.18296155,12.7177654 4.79549483,14.7241763 6.37323206,15.5679939 C11.143567,18.1557014 14.224795,23.0685952 14.5960273,28.7690521 L14.5960273,28.7503006 C14.5403424,28.1127495 14.6517121,27.4939499 14.9301363,26.9126533 C14.9672596,26.8376473 15.0229444,26.7438898 15.0786293,26.6501323 C16.5635584,24.1749339 17.3617078,21.3247054 17.3617078,18.3994709 C17.3617078,17.7806713 17.306023,17.1806232 17.2503382,16.5805751" id="path34" fill="#1476C6" sketch:type="MSShapeGroup"></path>
                <path d="M36.1460617,10.3925791 C35.5706517,7.84237463 34.7168174,5.36717622 33.6031205,3.00448683 C33.0091489,1.74813612 31.7283975,0.923069978 30.354838,0.923069978 C29.8165512,0.923069978 29.296826,1.035579 28.814224,1.27934854 C27.0137474,2.14191768 26.2527212,4.31709204 27.1065554,6.11723635 C28.9255937,10.017549 29.8351128,14.1241282 29.8351128,18.3994709 C29.8351128,22.6748136 28.9255937,26.7813928 27.1436787,30.6066994 C27.1251171,30.6629539 26.8095696,31.3380081 26.8095696,32.1255712 C26.8095696,32.3505892 26.8281312,32.6693648 26.9023777,32.9693888 C27.1436787,34.0007215 27.7933352,34.9382967 28.8699088,35.4445872 C29.3525108,35.6696053 29.872236,35.8008658 30.4105228,35.8008658 C31.7283975,35.8008658 32.9349024,35.0695572 33.5659973,33.906964 C34.2899003,32.5381043 35.0138032,30.7567115 35.6448981,28.4502766 C35.8490759,27.756471 36.0161304,27.1001684 36.1646233,26.4063627 C36.7400334,23.7999038 37.0555808,21.1371904 37.0555808,18.3994709 C37.0370192,15.6992544 36.7214718,12.9802865 36.1460617,10.3925791" id="path36" fill="#47AE33" sketch:type="MSShapeGroup"></path>
                <path d="M20.9440994,6.58602392 C20.8884146,6.4735149 20.8141681,6.37975739 20.7399217,6.28599987 C20.4986207,5.96722432 20.2201965,5.70470328 19.8860874,5.49843674 C19.3478006,5.14215818 18.6981441,4.93589165 18.029926,4.93589165 C17.4730775,4.93589165 17.1946533,5.01089766 16.8048594,5.16090969 C16.3965039,5.32967321 15.9695868,5.55469125 15.5797928,5.96722432 C15.1899989,6.37975739 14.9672596,6.79229046 14.800205,7.24232653 C14.466096,8.12364718 14.5217808,9.26748887 15.0786293,10.205064 C16.2665726,12.1364689 16.9719139,14.3491462 17.2317765,16.6180781 C17.306023,17.2181262 17.3431462,17.8369258 17.3431462,18.4369739 C17.3431462,21.3622084 16.5635584,24.2124369 15.0600676,26.6876353 C15.0043828,26.7813928 14.9672596,26.8563988 14.9115747,26.9501563 C14.6145889,27.5314529 14.5217808,28.1877555 14.5774657,28.8065551 C14.6702737,29.8566393 15.2456838,30.850469 16.2108877,31.4505171 C16.4521887,31.6005291 16.7306129,31.7130381 16.9904756,31.8067956 C17.306023,31.9005532 17.6401321,31.9568077 17.9742411,31.9568077 C19.1807461,31.9568077 20.2758813,31.3380081 20.9069762,30.2879239 C22.8002609,27.1564229 23.8953961,23.5936373 24.1366971,19.9370942 C24.1738204,19.4495551 24.192382,18.9432645 24.192382,18.4557254 C24.2109436,14.2178857 23.0786851,10.130058 20.9440994,6.58602392" id="path38" fill="#ED114C" sketch:type="MSShapeGroup"></path>
                <path d="M27.1251171,30.6066994 C28.9255937,26.7813928 29.8351128,22.6748136 29.8351128,18.3994709 C29.8351128,16.9368537 29.7423047,15.868018 29.6680583,15.1742124 C27.3107332,11.3676572 23.8953961,7.95488365 19.8860874,5.47968524 C19.8860874,5.47968524 19.9788955,5.53593975 19.9788955,5.55469125 C20.2573197,5.76095779 20.4800591,5.96722432 20.7399217,6.28599987 C20.7956065,6.36100589 20.8884146,6.4735149 20.9440994,6.58602392 C23.0786851,10.1488095 24.192382,14.2178857 24.192382,18.3994709 C24.192382,18.9057615 24.1738204,19.3933006 24.1366971,19.8808396 C25.8443657,23.1623527 26.7724464,26.8939018 26.7724464,30.812966 L26.7724464,31.9943107 C26.791008,31.5817776 26.8838161,31.150493 27.032309,30.775463 C27.0879938,30.7192085 27.1065554,30.6629539 27.1251171,30.6066994" id="path40" fill="#FBBF16" sketch:type="MSShapeGroup"></path>
            </g>
        </g>
    </g>
</svg>