<?xml version="1.0" encoding="UTF-8" standalone="no"?>
<svg width="45px" height="49px" viewBox="0 0 45 49" version="1.1" xmlns="http://www.w3.org/2000/svg" xmlns:xlink="http://www.w3.org/1999/xlink" xmlns:sketch="http://www.bohemiancoding.com/sketch/ns">
    <!-- Generator: Sketch 3.3.3 (12081) - http://www.bohemiancoding.com/sketch -->
    <title>Payment/GoogleWallet/GoogleWallet-alt</title>
    <desc>Created with Sketch.</desc>
    <defs></defs>
    <g id="Icons:-Payment" stroke="none" stroke-width="1" fill="none" fill-rule="evenodd" sketch:type="MSPage">
        <g id="GoogleWallet-alt" sketch:type="MSArtboardGroup" transform="translate(-27.000000, -6.000000)" fill="#FFFFFF">
            <g id="Payment/GoogleWallet/GoogleWallet-alt" sketch:type="MSLayerGroup" transform="translate(27.000000, 6.000000)">
                <g id="google-wallet" transform="translate(0.671882, 38.913357)" sketch:type="MSShapeGroup">
                    <path d="M24.9143231,6.18517746 C24.8221161,6.24106762 24.7299091,6.29695778 24.6192608,6.35284794 C24.3241985,6.48325831 24.0291362,6.52051841 23.7709567,6.52051841 C23.4943358,6.52051841 23.0517423,6.50188836 22.6091489,6.16654741 C21.9821415,5.71942615 21.7055206,4.95559399 21.7055206,4.2849121 C21.7055206,2.90628821 22.8120042,2.23560631 23.7156325,2.23560631 C24.0291362,2.23560631 24.3610813,2.31012652 24.6192608,2.477797 C25.0618542,2.77587784 25.1725026,3.14847889 25.2278268,3.35340947 L23.1623907,4.19176184 L22.4800591,4.24765199 C22.7013558,5.3840852 23.457453,6.03613704 24.2873157,6.03613704 C24.7299091,6.03613704 25.0618542,5.86846657 25.3569165,5.71942615 L24.9143231,6.18517746 L24.9143231,6.18517746 Z M24.0844604,3.53971 C24.2504329,3.48381984 24.3426399,3.42792968 24.3426399,3.29751931 C24.3426399,2.94354831 23.9553706,2.53368715 23.4758944,2.53368715 C23.1255079,2.53368715 22.4616177,2.81313794 22.4616177,3.76327063 C22.4616177,3.91231105 22.4800591,4.07998152 22.4800591,4.22902194 L24.0844604,3.53971 L24.0844604,3.53971 Z" id="path8"></path>
                    <path d="M21.5026652,6.37147799 L19.9535881,6.37147799 C20.1564435,6.11065725 20.1933263,6.07339715 20.1933263,5.90572668 L20.1933263,4.45258257 C20.1933263,3.76327063 20.2117677,2.77587784 20.230209,1.84437521 C20.230209,1.39725395 20.2670918,0.819722315 20.2855332,0.409861157 L19.6032017,0.409861157 L20.2670918,0.093150263 L21.5211066,0.093150263 C21.2444857,0.260820736 21.1522787,0.298080842 21.1338373,0.614791736 C21.0600718,1.30410368 21.0600718,2.38464673 21.0600718,3.65149031 L21.0600718,5.7007961 C21.0600718,6.0547671 21.115396,6.11065725 21.4104583,6.12928731 C21.5579894,6.14791736 21.7055206,6.16654741 21.8530517,6.16654741 L21.5026652,6.37147799" id="path10"></path>
                    <path d="M18.6073664,2.66409752 C18.8102217,2.831768 19.2343738,3.185739 19.2343738,3.87505094 C19.2343738,4.52710278 18.8655459,4.84381368 18.496718,5.14189452 C18.3860697,5.25367483 18.2569799,5.3840852 18.2569799,5.57038573 C18.2569799,5.75668626 18.3860697,5.86846657 18.4782766,5.94298678 L18.7917803,6.18517746 C19.1790496,6.52051841 19.5294361,6.81859925 19.5294361,7.43339099 C19.5294361,8.27174336 18.7364561,9.11009572 17.2058205,9.11009572 C15.9333643,9.11009572 15.3063569,8.49530399 15.3063569,7.84325215 C15.3063569,7.52654125 15.4723294,7.06078994 15.9886885,6.7627091 C16.5419303,6.42736815 17.279586,6.37147799 17.6668553,6.35284794 C17.5377655,6.18517746 17.4086758,6.01750699 17.4086758,5.75668626 C17.4086758,5.60764583 17.4455586,5.51449557 17.5008828,5.40271526 C17.4086758,5.40271526 17.2980274,5.42134531 17.2242619,5.42134531 C16.2837508,5.42134531 15.7673917,4.71340331 15.7673917,4.02409136 C15.7673917,3.61423021 15.9518057,3.16710894 16.3390749,2.831768 C16.8369926,2.42190684 17.4455586,2.34738663 17.9065934,2.34738663 L19.71385,2.34738663 L19.1421668,2.66409752 L18.6073664,2.66409752 L18.6073664,2.66409752 Z M17.980359,6.61366867 L17.7775037,6.61366867 C17.7037381,6.61366867 17.2242619,6.63229873 16.855434,6.7627091 C16.6525786,6.83722931 16.0993368,7.04215988 16.0993368,7.67558167 C16.0993368,8.30900346 16.7079028,8.75612472 17.6484139,8.75612472 C18.496718,8.75612472 18.9393115,8.34626357 18.9393115,7.78736199 C18.9393115,7.34024073 18.6442492,7.09805004 17.980359,6.61366867 L17.980359,6.61366867 Z M18.2385385,4.93696394 C18.4413938,4.73203336 18.4598352,4.45258257 18.4598352,4.2849121 C18.4598352,3.65149031 18.072566,2.64546747 17.3533516,2.64546747 C17.1320549,2.64546747 16.8738754,2.75724779 16.7447856,2.94354831 C16.5972545,3.12984884 16.5419303,3.37203952 16.5419303,3.59560015 C16.5419303,4.19176184 16.8923168,5.17915462 17.6484139,5.17915462 C17.8512692,5.17915462 18.0910074,5.06737431 18.2385385,4.93696394 L18.2385385,4.93696394 Z" id="path12"></path>
                    <path d="M13.1671552,6.50188836 C11.7656093,6.50188836 11.0279535,5.40271526 11.0279535,4.39669241 C11.0279535,3.2229991 11.9684646,2.23560631 13.3146864,2.23560631 C14.6055839,2.23560631 15.4170053,3.26025921 15.4170053,4.34080226 C15.3985639,5.3840852 14.5871425,6.50188836 13.1671552,6.50188836 M14.2551974,5.77531631 C14.4580528,5.49586552 14.513377,5.14189452 14.513377,4.78792352 C14.513377,4.00546131 14.1445491,2.5150571 13.0565068,2.5150571 C12.7614445,2.5150571 12.4848236,2.62683742 12.2635269,2.81313794 C11.9131404,3.12984884 11.8578162,3.52107994 11.8578162,3.89368099 C11.8578162,4.76929347 12.2819683,6.22243757 13.3515691,6.22243757 C13.7019556,6.22243757 14.0523421,6.0547671 14.2551974,5.77531631" id="path14"></path>
                    <path d="M8.48304117,6.50188836 C7.08149524,6.50188836 6.34383948,5.40271526 6.34383948,4.39669241 C6.34383948,3.2229991 7.28435057,2.23560631 8.63057232,2.23560631 C9.92146989,2.23560631 10.7328912,3.26025921 10.7328912,4.34080226 C10.7144498,5.3840852 9.90302849,6.50188836 8.48304117,6.50188836 M9.57108341,5.77531631 C9.77393874,5.49586552 9.82926292,5.14189452 9.82926292,4.78792352 C9.82926292,4.00546131 9.46043504,2.5150571 8.37239281,2.5150571 C8.0773305,2.5150571 7.7822682,2.62683742 7.57941287,2.81313794 C7.22902639,3.12984884 7.17370221,3.52107994 7.17370221,3.89368099 C7.17370221,4.76929347 7.59785426,6.22243757 8.66745511,6.22243757 C9.01784159,6.22243757 9.36822807,6.0547671 9.57108341,5.77531631" id="path16"></path>
                    <path d="M5.75371488,6.18517746 L4.57346567,6.46462825 C4.09398943,6.53914846 3.66983738,6.61366867 3.20880253,6.61366867 C0.922069692,6.61366867 0.0553241815,4.91833389 0.0553241815,3.59560015 C0.0553241815,1.97478558 1.29089757,0.484381368 3.39321647,0.484381368 C3.83580992,0.484381368 4.25996198,0.558901578 4.64723125,0.652051841 C5.27423864,0.819722315 5.55085955,1.04328295 5.73527349,1.17369331 L5.05294191,1.82574516 L4.75787961,1.90026537 L4.96073494,1.56492442 C4.68411404,1.28547363 4.16775501,0.782462209 3.19036114,0.782462209 C1.88102217,0.782462209 0.903628298,1.78848505 0.903628298,3.24162915 C0.903628298,4.80655357 2.02855332,6.27832773 3.81736853,6.27832773 C4.35216895,6.27832773 4.61034846,6.16654741 4.86852798,6.07339715 L4.86852798,4.73203336 L3.61451319,4.80655357 L4.27840337,4.45258257 L6.03033579,4.45258257 L5.80903906,4.65751315 C5.75371488,4.71340331 5.73527349,4.73203336 5.73527349,4.78792352 C5.73527349,4.86244373 5.71683209,5.10463441 5.71683209,5.17915462 L5.71683209,6.18517746" id="path18"></path>
                    <path d="M28.6948088,6.37147799 L28.0678014,6.37147799 L27.1457317,2.34738663 L27.6436494,2.34738663 L28.3997465,5.96161683 L29.1742851,2.34738663 L29.8012925,2.34738663 L30.6127138,5.96161683 L31.3503695,2.34738663 L31.8298458,2.34738663 L30.9262175,6.37147799 L30.2992101,6.37147799 L29.5062302,2.79450789 L28.6948088,6.37147799" id="path20"></path>
                    <path d="M34.743586,3.5769701 C34.743586,2.92491826 34.4485237,2.66409752 33.8030749,2.66409752 C33.2867159,2.66409752 32.9916536,2.94354831 32.917888,3.40929963 L32.4568532,3.35340947 C32.5490601,2.70135763 33.0654192,2.25423637 33.8030749,2.25423637 C34.6882618,2.25423637 35.1861795,2.64546747 35.1861795,3.52107994 L35.1861795,5.57038573 C35.1861795,5.92435673 35.2046208,6.16654741 35.259945,6.35284794 L34.7989102,6.35284794 C34.7620274,6.24106762 34.743586,6.03613704 34.743586,5.92435673 C34.5591721,6.20380752 34.1165786,6.4459982 33.6924266,6.4459982 C32.9547708,6.4459982 32.3830876,5.99887694 32.3830876,5.10463441 C32.3830876,4.2849121 32.9732122,3.81916078 33.8030749,3.81916078 C34.2087856,3.81916078 34.5407307,3.89368099 34.743586,3.98683126 L34.743586,3.5769701 L34.743586,3.5769701 Z M34.743586,4.45258257 C34.5222893,4.34080226 34.2087856,4.24765199 33.7846335,4.24765199 C33.2313917,4.24765199 32.825681,4.52710278 32.825681,5.12326447 C32.825681,5.7380562 33.1945089,6.0547671 33.7108679,6.0547671 C34.1719028,6.0547671 34.5776135,5.71942615 34.743586,5.36545515 L34.743586,4.45258257 L34.743586,4.45258257 Z" id="path22"></path>
                    <path d="M36.0898078,6.37147799 L36.5898078,6.37147799 L36.5898078,0.633421789 L36.0898078,0.633421789 L36.0898078,6.37147799 L36.0898078,6.37147799 Z" id="path24"></path>
                    <path d="M37.5097951,6.37147799 L38.0097951,6.37147799 L38.0097951,0.633421789 L37.5097951,0.633421789 L37.5097951,6.37147799 L37.5097951,6.37147799 Z" id="path26"></path>
                    <path d="M40.2022386,6.03613704 C40.6817148,6.03613704 41.0505427,5.7380562 41.1243083,4.9928541 L41.5853431,5.06737431 C41.4746948,6.03613704 40.9214529,6.48325831 40.2022386,6.48325831 C39.2617275,6.48325831 38.6900443,5.77531631 38.6900443,4.34080226 C38.6900443,3.05532863 39.1695205,2.27286642 40.1469144,2.27286642 C41.1796325,2.27286642 41.5853431,3.12984884 41.5853431,4.30354215 L41.5853431,4.45258257 L39.1510791,4.45258257 C39.1695205,5.55175568 39.5752312,6.03613704 40.2022386,6.03613704 M41.1058669,4.04272142 L41.1058669,4.04272142 C41.0874255,3.27888926 40.7923632,2.70135763 40.1469144,2.70135763 C39.519907,2.70135763 39.1879619,3.2229991 39.1510791,4.04272142 L41.1058669,4.04272142" id="path28"></path>
                    <path d="M43.7061034,6.35284794 C43.6138964,6.39010804 43.4294825,6.42736815 43.2266272,6.42736815 C42.6365026,6.42736815 42.4520886,6.12928731 42.4520886,5.55175568 L42.4520886,2.75724779 L41.9357296,2.75724779 L41.9357296,2.34738663 L42.4520886,2.34738663 L42.4520886,1.04328295 L42.9131235,0.85698242 L42.9131235,2.34738663 L43.7061034,2.34738663 L43.7061034,2.75724779 L42.9131235,2.75724779 L42.9131235,5.47723547 C42.9131235,5.86846657 42.9868891,5.96161683 43.3003927,5.96161683 C43.4663653,5.96161683 43.595455,5.92435673 43.7061034,5.86846657 L43.7061034,6.35284794" id="path30"></path>
                </g>
                <path d="M14.7467264,9.50099819 C15.9436488,11.4276724 16.6488894,13.6127826 16.9071465,15.8641586 C16.9766773,16.4638628 17.0197201,17.0668804 17.0197201,17.6748678 C17.0197201,20.572334 16.2300493,23.4035345 14.7384489,25.8636473 C14.6854731,25.9497926 14.6391193,26.0375946 14.5960764,26.1270533 C14.3063649,26.7135044 14.2004133,27.3463415 14.2583556,27.9642688 C14.3576852,29.0112663 14.9255198,30.0002814 15.890673,30.5850758 C16.1389971,30.7358302 16.4038762,30.8501385 16.6770328,30.9346272 C16.9998542,31.0323691 17.3342641,31.0853816 17.6719849,31.0853816 C18.8821513,31.0853816 19.983055,30.4674543 20.6121429,29.4320533 C22.5027174,26.3159104 23.6069321,22.7889205 23.8420123,19.1525922 C23.8751222,18.6622262 23.8900217,18.168547 23.8900217,17.6732112 C23.8900217,13.5282939 22.7609745,9.469522 20.6270423,5.93921875 C20.562478,5.83319368 20.4896363,5.73379519 20.4167945,5.63770998 C20.1767478,5.32294807 19.8903473,5.05954206 19.5691814,4.84914857 C19.0245238,4.49297063 18.3706035,4.28423379 17.7067503,4.28423379 C17.1554707,4.28423379 16.8740366,4.35215609 16.476718,4.51119369 C16.0711219,4.67354456 15.6390379,4.8938779 15.2483412,5.30638166 C14.8609555,5.71557213 14.6291863,6.13304581 14.4669479,6.56542927 C14.1375045,7.43682275 14.1755809,8.58487538 14.7467264,9.50099819 L14.7467264,9.50099819 Z" id="Path" sketch:type="MSShapeGroup"></path>
                <path d="M5.5322449,14.7078227 C10.3166235,17.2689907 13.402465,22.1544267 13.7683292,27.8002613 L13.7683292,27.7952914 C13.7136979,27.1657676 13.8163386,26.5511535 14.1060501,25.9663591 C14.145782,25.8851836 14.1937913,25.7973816 14.2484226,25.7046097 C15.743334,23.2444969 16.5296938,20.4116398 16.5296938,17.5158303 C16.5296938,16.9078428 16.4883065,16.3048252 16.4187757,15.705121 C14.4520484,12.991542 11.7138608,10.615918 8.61311987,8.95264982 C8.13964849,8.7008403 7.6098903,8.56665233 7.07682112,8.56665233 C5.86665475,8.56665233 4.76575102,9.22599568 4.19626096,10.2912162 C3.34533687,11.8749656 3.94628132,13.8546523 5.5322449,14.7078227 L5.5322449,14.7078227 Z" id="Path" sketch:type="MSShapeGroup"></path>
                <path d="M27.4774779,29.7981711 C29.2753448,25.9961786 30.1842111,21.9158703 30.1842111,17.6748678 C30.1842111,16.2170232 30.083226,15.1534593 30.0103842,14.4808628 C27.6595823,10.7153165 24.2509194,7.35067739 20.2628336,4.87896812 C20.2380011,4.86240171 20.2148242,4.84583529 20.2115132,4.84417865 C20.2297237,4.8541185 20.2462786,4.86737163 20.2628336,4.87896812 C20.2860105,4.8938779 20.3091874,4.91044431 20.3124984,4.91210095 C20.5889659,5.11255459 20.8223906,5.32129143 21.0674038,5.63770998 C21.1270016,5.71557213 21.2097763,5.82491048 21.2793071,5.93921875 C23.4148948,9.47117864 24.5439419,13.5282939 24.5439419,17.6732112 C24.5439419,18.1668904 24.527387,18.6605696 24.4959326,19.1525922 C26.2093692,22.4145195 27.143068,26.1220834 27.143068,30.0135345 C27.143068,30.3233265 27.14969,30.8186623 27.143068,31.1814668 C27.159623,30.773933 27.2622636,30.3448628 27.4079471,29.9721185 C27.4261576,29.9124794 27.447679,29.8528403 27.4774779,29.7981711 L27.4774779,29.7981711 Z" id="Path" sketch:type="MSShapeGroup"></path>
                <path d="M37.0611346,25.6317175 C37.6471796,23.0506698 37.9567571,20.3917601 37.9567571,17.6748678 C37.9567571,14.9877952 37.6471796,12.2907826 37.0644456,9.7163616 C36.4866781,7.18998316 35.632443,4.72158717 34.5199508,2.38075259 C33.9223174,1.12998818 32.6442757,0.321547078 31.2569715,0.321547078 C30.7239023,0.321547078 30.1991106,0.439168632 29.7107398,0.671098456 C27.9145284,1.52758216 27.14969,3.68949945 28.0022696,5.48198566 C29.8332463,9.34693052 30.7404572,13.4322087 30.7404572,17.6748678 C30.7404572,21.9158703 29.8299354,25.9961786 28.0320685,29.7981711 C28.0039251,29.8561535 27.6893812,30.52875 27.6893812,31.3057149 C27.6893812,31.5243916 27.7142136,31.85075 27.7820889,32.1423189 C28.0171691,33.1644668 28.6826778,34.0938428 29.7488161,34.6040884 C30.240498,34.8360182 30.7537012,34.9519831 31.2884259,34.9519831 C32.6061994,34.9519831 33.8229877,34.2263741 34.4537311,33.0799781 C35.1722156,31.7298152 35.8989776,29.9538954 36.529721,27.6660733 C36.7383132,26.9769104 36.9038627,26.3308202 37.0611346,25.6317175 L37.0611346,25.6317175 Z" id="Path" sketch:type="MSShapeGroup"></path>
            </g>
        </g>
    </g>
</svg>