<?xml version="1.0" encoding="UTF-8" standalone="no"?>
<svg width="100px" height="60px" viewBox="0 0 100 60" version="1.1" xmlns="http://www.w3.org/2000/svg" xmlns:xlink="http://www.w3.org/1999/xlink" xmlns:sketch="http://www.bohemiancoding.com/sketch/ns">
    <!-- Generator: Sketch 3.3.3 (12081) - http://www.bohemiancoding.com/sketch -->
    <title>Payment/Bitcon/Bitcoin-card-flat</title>
    <desc>Created with Sketch.</desc>
    <defs></defs>
    <g id="Icons:-Payment" stroke="none" stroke-width="1" fill="none" fill-rule="evenodd" sketch:type="MSPage">
        <g id="Bitcoin-card-flat" sketch:type="MSArtboardGroup" fill="#9B9B9B">
            <g id="Payment/Bitcon/Bitcoin-card-flat" sketch:type="MSLayerGroup">
                <path d="M0,4.0065556 C0,1.79379604 1.79952991,0 3.99732351,0 L96.0026765,0 C98.2103373,0 100,1.79568082 100,4.0065556 L100,55.9934444 C100,58.206204 98.2004701,60 96.0026765,60 L3.99732351,60 C1.78966269,60 0,58.2043192 0,55.9934444 L0,4.0065556 Z M35.0671831,23.9576531 C35.7328241,23.9576531 36.3071831,24.0760204 36.79026,24.3091837 C37.2753882,24.5443878 37.6764138,24.8612245 37.9974395,25.2596939 C38.3143626,25.6602041 38.55026,26.1285714 38.7025677,26.6647959 C38.8538497,27.2030612 38.9297472,27.7811224 38.9297472,28.4005102 C38.9297472,29.3510204 38.7548754,30.25 38.4010292,31.0969388 C38.0476959,31.944898 37.5676959,32.6806122 36.9574395,33.3081633 C36.3476959,33.9352041 35.6276959,34.4290816 34.7974395,34.7938776 C33.9682087,35.1596939 33.0671831,35.3418367 32.0994908,35.3418367 C31.9743626,35.3418367 31.7543626,35.3387755 31.4435933,35.3316327 C31.1328241,35.3255102 30.7753882,35.2938776 30.3753882,35.2397959 C29.9728241,35.1841837 29.5471831,35.1015306 29.0974395,34.9908163 C28.6482087,34.8821429 28.2215421,34.7295918 27.8194908,34.5362245 L31.4123113,19.5168367 L34.63026,19.0204082 L33.3441062,24.35 C33.6194908,24.2265306 33.8969267,24.1306122 34.1738497,24.0612245 C34.4523113,23.9938776 34.7492344,23.9576531 35.0671831,23.9576531 L35.0671831,23.9576531 Z M32.3682087,32.802551 C32.8528241,32.802551 33.3092344,32.6841837 33.7384651,32.4510204 C34.1687215,32.2183673 34.5400036,31.9035714 34.8507728,31.5112245 C35.1615421,31.1178571 35.4082087,30.6739796 35.5876959,30.1780612 C35.7671831,29.6826531 35.8579523,29.1658163 35.8579523,28.627551 C35.8579523,27.9668367 35.7471831,27.4510204 35.5256446,27.0785714 C35.3041062,26.7071429 34.8948754,26.5209184 34.3000036,26.5209184 C34.1051318,26.5209184 33.8538497,26.5576531 33.5425677,26.6234694 C33.23026,26.6943878 32.9507728,26.8397959 32.7000036,27.0586735 L31.33026,32.7193878 C31.4128241,32.7331633 31.4861574,32.747449 31.5482087,32.7602041 C31.6092344,32.7739796 31.6764138,32.7841837 31.7435933,32.7913265 C31.8148754,32.7994898 31.895901,32.8030612 31.9938497,32.8030612 C32.0917985,32.8030612 32.215901,32.802551 32.3682087,32.802551 L32.3682087,32.802551 Z M42.2682087,35.0535714 L39.1943626,35.0535714 L41.79026,24.1867347 L44.8851318,24.1867347 L42.2682087,35.0535714 Z M43.7635933,22.8637755 C43.3343626,22.8637755 42.9456446,22.7362245 42.6005164,22.4821429 C42.2523113,22.2290816 42.0800036,21.8392857 42.0800036,21.3142857 C42.0800036,21.0255102 42.1389779,20.7540816 42.255901,20.4989796 C42.3743626,20.2438776 42.5297472,20.0234694 42.7241062,19.8372449 C42.9184651,19.6520408 43.1430805,19.5040816 43.3984651,19.3923469 C43.6553882,19.2826531 43.9287215,19.2280612 44.2200036,19.2280612 C44.6487215,19.2280612 45.035901,19.355102 45.3820549,19.6096939 C45.7271831,19.8653061 45.9010292,20.255102 45.9010292,20.7770408 C45.9010292,21.0668367 45.8425677,21.3392857 45.7241062,21.5943878 C45.6066703,21.8494898 45.4517985,22.0688776 45.2574395,22.2561224 C45.0651318,22.4413265 44.8379523,22.5887755 44.5830805,22.6994898 C44.3261574,22.8107143 44.0543626,22.8637755 43.7635933,22.8637755 Z M47.5779523,21.4806122 L50.7974395,20.9841837 L50.0066703,24.1867347 L53.4543626,24.1867347 L52.8317985,26.7066327 L49.404619,26.7066327 L48.4917985,30.5081633 C48.4076959,30.825 48.3600036,31.1209184 48.3466703,31.3954082 C48.3317985,31.6719388 48.3666703,31.9091837 48.4497472,32.1086735 C48.5323113,32.3086735 48.6810292,32.4627551 48.8964138,32.572449 C49.1107728,32.6831633 49.4179523,32.7387755 49.8200036,32.7387755 C50.1512856,32.7387755 50.4743626,32.7076531 50.7866703,32.644898 C51.0969267,32.5841837 51.4117985,32.4984694 51.73026,32.3867347 L51.9594908,34.7433673 C51.5441062,34.894898 51.0943626,35.0255102 50.6097472,35.1352041 C50.124619,35.2459184 49.5497472,35.2994898 48.8856446,35.2994898 C47.9307728,35.2994898 47.19026,35.1591837 46.6630805,34.8780612 C46.1364138,34.594898 45.7641062,34.2086735 45.5410292,33.7193878 C45.3210292,33.2321429 45.2230805,32.669898 45.2507728,32.0367347 C45.2794908,31.4020408 45.3753882,30.7346939 45.5410292,30.0321429 L47.5779523,21.4806122 L47.5779523,21.4806122 Z M53.3189779,30.7158163 C53.3189779,29.7795918 53.4712856,28.897449 53.775901,28.0704082 C54.0794908,27.2433673 54.5174395,26.5204082 55.0856446,25.8994898 C55.6517985,25.2816327 56.3410292,24.7923469 57.1523113,24.4336735 C57.9600036,24.0760204 58.8641062,23.8959184 59.8610292,23.8959184 C60.484619,23.8959184 61.0420549,23.9540816 61.5323113,24.0719388 C62.024619,24.1903061 62.47026,24.3438776 62.8728241,24.5362245 L61.8128241,26.9346939 C61.535901,26.8229592 61.2482087,26.7244898 60.9512856,26.6346939 C60.6538497,26.5438776 60.2907728,26.5 59.8615421,26.5 C58.835901,26.5 58.024619,26.8515306 57.4210292,27.552551 C56.8200036,28.2545918 56.5169267,29.1989796 56.5169267,30.3841837 C56.5169267,31.0867347 56.6692344,31.6540816 56.9748754,32.0887755 C57.2789779,32.5229592 57.8405164,32.7387755 58.6564138,32.7387755 C59.0589779,32.7387755 59.4471831,32.6969388 59.8194908,32.6153061 C60.1943626,32.5326531 60.5251318,32.4290816 60.8169267,32.3056122 L61.0461574,34.7637755 C60.6574395,34.9142857 60.2287215,35.05 59.7584651,35.1683673 C59.2871831,35.2831633 58.7261574,35.3418367 58.0753882,35.3418367 C57.2169267,35.3418367 56.4897472,35.2173469 55.8953882,34.9709184 C55.3005164,34.7209184 54.8087215,34.3887755 54.4215421,33.9683673 C54.0323113,33.5469388 53.7528241,33.0545918 53.5800036,32.4897959 C53.4066703,31.9270408 53.3189779,31.3341837 53.3189779,30.7158163 L53.3189779,30.7158163 Z M66.9723113,35.3428571 C66.2384651,35.3428571 65.6015421,35.2321429 65.0610292,35.0122449 C64.5220549,34.7918367 64.075901,34.4831633 63.7225677,34.0826531 C63.3692344,33.6841837 63.1041062,33.2117347 62.9230805,32.6678571 C62.7415421,32.1244898 62.6548754,31.5219388 62.6548754,30.8622449 C62.6548754,30.0341837 62.7887215,29.2066327 63.0584651,28.3811224 C63.3271831,27.5545918 63.7256446,26.8117347 64.2538497,26.1510204 C64.7774395,25.4892857 65.4230805,24.9484694 66.1841062,24.5265306 C66.9435933,24.1081633 67.8179523,23.897449 68.7994908,23.897449 C69.5194908,23.897449 70.1538497,24.0086735 70.7015421,24.2285714 C71.2466703,24.4489796 71.695901,24.7596939 72.0512856,25.1581633 C72.4025677,25.5586735 72.6697472,26.0290816 72.8492344,26.5739796 C73.03026,27.1163265 73.1189779,27.7204082 73.1189779,28.3806122 C73.1189779,29.2061224 72.9871831,30.0336735 72.7256446,30.8617347 C72.4635933,31.6852041 72.0753882,32.430102 71.5625677,33.0918367 C71.0507728,33.752551 70.4107728,34.2928571 69.6420549,34.7132653 C68.8733369,35.1326531 67.9825677,35.3428571 66.9723113,35.3428571 L66.9723113,35.3428571 Z M68.5082087,26.5010204 C68.0523113,26.5010204 67.6497472,26.6326531 67.304619,26.8928571 C66.9584651,27.1556122 66.6676959,27.4862245 66.4333369,27.8846939 C66.1964138,28.2846939 66.0205164,28.722449 65.9020549,29.1964286 C65.784619,29.672449 65.7266703,30.1219388 65.7266703,30.5494898 C65.7266703,31.2387755 65.8384651,31.7755102 66.0579523,32.1622449 C66.2810292,32.5464286 66.6810292,32.7397959 67.2630805,32.7397959 C67.7205164,32.7397959 68.1210292,32.6091837 68.4682087,32.3464286 C68.8123113,32.0857143 69.1030805,31.755102 69.3394908,31.3556122 C69.5748754,30.9576531 69.7523113,30.5188776 69.8707728,30.0438776 C69.9871831,29.5693878 70.0461574,29.1173469 70.0461574,28.6908163 C70.0461574,28.0030612 69.9348754,27.4653061 69.7133369,27.0790816 C69.4917985,26.6938776 69.0897472,26.5010204 68.5082087,26.5010204 Z M76.4676959,35.0535714 L73.3917985,35.0535714 L75.9876959,24.1867347 L79.0841062,24.1867347 L76.4676959,35.0535714 Z M77.9610292,22.8637755 C77.5323113,22.8637755 77.1435933,22.7362245 76.7989779,22.4821429 C76.4523113,22.2290816 76.2784651,21.8392857 76.2784651,21.3142857 C76.2784651,21.0255102 76.3379523,20.7540816 76.4553882,20.4989796 C76.5728241,20.2438776 76.7287215,20.0234694 76.9230805,19.8372449 C77.1164138,19.6520408 77.3430805,19.5040816 77.5979523,19.3923469 C77.8533369,19.2826531 78.1266703,19.2280612 78.4174395,19.2280612 C78.8471831,19.2280612 79.2353882,19.355102 79.5810292,19.6096939 C79.9271831,19.8653061 80.1015421,20.255102 80.1015421,20.7770408 C80.1015421,21.0668367 80.0394908,21.3392857 79.9230805,21.5943878 C79.8066703,21.8494898 79.6512856,22.0688776 79.4574395,22.2561224 C79.2625677,22.4413265 79.0389779,22.5887755 78.7835933,22.6994898 C78.5261574,22.8107143 78.2533369,22.8637755 77.9610292,22.8637755 L77.9610292,22.8637755 Z M81.2974395,24.6821429 C81.5307728,24.6142857 81.7912856,24.5326531 82.0748754,24.4438776 C82.3594908,24.355102 82.6769267,24.272449 83.0317985,24.1979592 C83.3830805,24.1214286 83.7789779,24.0596939 84.2148754,24.0107143 C84.6507728,23.9617347 85.1466703,23.9377551 85.6989779,23.9377551 C87.3194908,23.9377551 88.4374395,24.4071429 89.0543626,25.3438776 C89.67026,26.2806122 89.7774395,27.5622449 89.3769267,29.1862245 L87.9635933,35.0535714 L84.8697472,35.0535714 L86.2400036,29.3096939 C86.3230805,28.9510204 86.3892344,28.6040816 86.4374395,28.2653061 C86.4866703,27.930102 86.4835933,27.6341837 86.4266703,27.3780612 C86.3728241,27.125 86.2435933,26.9183673 86.0441062,26.7576531 C85.8410292,26.5989796 85.5343626,26.5204082 85.1184651,26.5204082 C84.7179523,26.5204082 84.31026,26.5632653 83.8938497,26.6459184 L81.8789779,35.0535714 L78.7841062,35.0535714 L81.2974395,24.6821429 L81.2974395,24.6821429 Z M44.1605164,41.530102 L43.5574395,42.619898 L42.9051318,42.619898 C43.364619,41.7954082 43.8128241,41.0362245 44.2497472,40.3423469 C44.6866703,39.6484694 45.1184651,38.9933673 45.5451318,38.3770408 L46.1297472,38.3770408 C46.1912856,38.6831633 46.2476959,38.9928571 46.2989779,39.3045918 C46.35026,39.6168367 46.4005164,39.9443878 46.4497472,40.2872449 C46.4989779,40.630102 46.5461574,40.9938776 46.5912856,41.377551 C46.6364138,41.7612245 46.6835933,42.175 46.7328241,42.6204082 L46.1297472,42.6204082 C46.1092344,42.4367347 46.0907728,42.2520408 46.0743626,42.0663265 C46.0579523,41.8806122 46.0394908,41.7020408 46.0189779,41.5306122 L44.1605164,41.5306122 L44.1605164,41.530102 Z M45.9635933,41.0520408 C45.9307728,40.7219388 45.8928241,40.3928571 45.8497472,40.0663265 C45.8066703,39.7397959 45.7564138,39.4030612 45.6989779,39.0561224 C45.5553882,39.2642857 45.3769267,39.5331633 45.1635933,39.8612245 C44.95026,40.1903061 44.7082087,40.5867347 44.4374395,41.0520408 L45.9635933,41.0520408 L45.9635933,41.0520408 Z M48.9138497,42.7112245 C48.6471831,42.7112245 48.4123113,42.672449 48.2092344,42.594898 C48.0061574,42.5173469 47.8369267,42.4071429 47.7015421,42.2642857 C47.5661574,42.1219388 47.464619,41.9489796 47.3969267,41.7469388 C47.3292344,41.544898 47.2953882,41.3173469 47.2953882,41.0642857 C47.2953882,40.6969388 47.3538497,40.3459184 47.4707728,40.0112245 C47.5876959,39.6770408 47.7538497,39.3811224 47.9692344,39.1239796 C48.184619,38.8668367 48.4441062,38.6617347 48.7476959,38.5081633 C49.0512856,38.355102 49.3892344,38.2785714 49.7630805,38.2785714 C50.0830805,38.2785714 50.3384651,38.3112245 50.5292344,38.3765306 C50.7200036,38.4418367 50.8564138,38.5030612 50.9384651,38.5602041 L50.6923113,39.05 C50.5974395,38.9887755 50.4697472,38.9306122 50.3076959,38.8755102 C50.1456446,38.8209184 49.9538497,38.7928571 49.7323113,38.7928571 C49.4492344,38.7928571 49.1948754,38.8591837 48.9692344,38.9923469 C48.7435933,39.125 48.5528241,39.2964286 48.3969267,39.5066327 C48.2410292,39.7168367 48.1220549,39.9535714 48.0400036,40.2168367 C47.9579523,40.480102 47.9169267,40.7403061 47.9169267,40.997449 C47.9169267,41.7933673 48.2635933,42.1913265 48.9569267,42.1913265 C49.104619,42.1913265 49.2369267,42.1806122 49.3538497,42.1602041 C49.4707728,42.1403061 49.5743626,42.1163265 49.664619,42.0897959 C49.7548754,42.0632653 49.8348754,42.0341837 49.904619,42.0010204 C49.9743626,41.9683673 50.035901,41.9397959 50.0892344,41.9153061 L50.1630805,42.4295918 C50.1138497,42.4581633 50.0492344,42.4887755 49.9692344,42.5214286 C49.8892344,42.5540816 49.795901,42.5846939 49.6892344,42.6137755 C49.5825677,42.6423469 49.4635933,42.6658163 49.3323113,42.6841837 C49.2010292,42.702551 49.0615421,42.7112245 48.9138497,42.7112245 L48.9138497,42.7112245 Z M52.3712856,42.7112245 C52.104619,42.7112245 51.8697472,42.672449 51.6666703,42.594898 C51.4635933,42.5173469 51.2943626,42.4071429 51.1589779,42.2642857 C51.0235933,42.1219388 50.9220549,41.9489796 50.8543626,41.7469388 C50.7866703,41.544898 50.7528241,41.3173469 50.7528241,41.0642857 C50.7528241,40.6969388 50.8112856,40.3459184 50.9282087,40.0112245 C51.0451318,39.6770408 51.2112856,39.3811224 51.4266703,39.1239796 C51.6420549,38.8668367 51.9015421,38.6617347 52.2051318,38.5081633 C52.5087215,38.355102 52.8466703,38.2785714 53.2205164,38.2785714 C53.5405164,38.2785714 53.795901,38.3112245 53.9866703,38.3765306 C54.1774395,38.4418367 54.3138497,38.5030612 54.395901,38.5602041 L54.1497472,39.05 C54.0548754,38.9887755 53.9271831,38.9306122 53.7651318,38.8755102 C53.6030805,38.8209184 53.4112856,38.7928571 53.1897472,38.7928571 C52.9066703,38.7928571 52.6523113,38.8591837 52.4266703,38.9923469 C52.2010292,39.125 52.01026,39.2964286 51.8543626,39.5066327 C51.6984651,39.7168367 51.5794908,39.9535714 51.4974395,40.2168367 C51.4153882,40.480102 51.3743626,40.7403061 51.3743626,40.997449 C51.3743626,41.7933673 51.7210292,42.1913265 52.4143626,42.1913265 C52.5620549,42.1913265 52.6943626,42.1806122 52.8112856,42.1602041 C52.9282087,42.1403061 53.0317985,42.1163265 53.1220549,42.0897959 C53.2123113,42.0632653 53.2923113,42.0341837 53.3620549,42.0010204 C53.4317985,41.9683673 53.4933369,41.9397959 53.5466703,41.9153061 L53.6205164,42.4295918 C53.5712856,42.4581633 53.5066703,42.4887755 53.4266703,42.5214286 C53.3466703,42.5540816 53.2533369,42.5846939 53.1466703,42.6137755 C53.0400036,42.6423469 52.9210292,42.6658163 52.7897472,42.6841837 C52.6584651,42.702551 52.5189779,42.7112245 52.3712856,42.7112245 L52.3712856,42.7112245 Z M54.0235933,42.6193878 L55.0451318,38.3765306 L57.5620549,38.3765306 L57.4451318,38.872449 L55.5189779,38.872449 L55.2112856,40.1520408 L56.9220549,40.1520408 L56.8051318,40.6357143 L55.1005164,40.6357143 L54.7374395,42.1234694 L56.8051318,42.1234694 L56.6882087,42.6193878 L54.0235933,42.6193878 L54.0235933,42.6193878 Z M59.3435933,38.3336735 C59.8400036,38.3336735 60.2143626,38.427551 60.4666703,38.6153061 C60.7189779,38.8030612 60.8451318,39.0765306 60.8451318,39.4357143 C60.8451318,39.7132653 60.7928241,39.9535714 60.6882087,40.155102 C60.5835933,40.3571429 60.4348754,40.5234694 60.2420549,40.6545918 C60.0492344,40.7852041 59.8174395,40.8816327 59.5466703,40.944898 C59.275901,41.0081633 58.9743626,41.0403061 58.6420549,41.0403061 L58.2174395,41.0403061 L57.835901,42.619898 L57.2389779,42.619898 L58.2482087,38.4321429 C58.4205164,38.3913265 58.6030805,38.3647959 58.795901,38.352551 C58.9887215,38.3397959 59.1712856,38.3336735 59.3435933,38.3336735 Z M59.2697472,38.8357143 C58.9784651,38.8357143 58.8020549,38.8438776 58.7405164,38.8602041 L58.3343626,40.5438776 L58.7220549,40.5438776 C58.8943626,40.5438776 59.0707728,40.5290816 59.2512856,40.4979592 C59.4317985,40.4673469 59.5938497,40.4132653 59.7374395,40.3362245 C59.8810292,40.2586735 59.9989779,40.1515306 60.0912856,40.0142857 C60.1835933,39.877551 60.2297472,39.7015306 60.2297472,39.4852041 C60.2297472,39.252551 60.1435933,39.0862245 59.9712856,38.9857143 C59.7989779,38.8857143 59.5651318,38.8357143 59.2697472,38.8357143 L59.2697472,38.8357143 Z M64.4856446,38.3765306 L64.3687215,38.872449 L63.0825677,38.872449 L62.1779523,42.6193878 L61.5810292,42.6193878 L62.4856446,38.872449 L61.1994908,38.872449 L61.3164138,38.3765306 L64.4856446,38.3765306 L64.4856446,38.3765306 Z M63.9317985,42.6193878 L64.9533369,38.3765306 L67.47026,38.3765306 L67.3533369,38.872449 L65.4271831,38.872449 L65.1194908,40.1520408 L66.83026,40.1520408 L66.7133369,40.6357143 L65.0087215,40.6357143 L64.6456446,42.1234694 L66.7133369,42.1234694 L66.5964138,42.6193878 L63.9317985,42.6193878 L63.9317985,42.6193878 Z M69.2425677,38.3336735 C69.8743626,38.3336735 70.3461574,38.4816327 70.6579523,38.777551 C70.9697472,39.0734694 71.1256446,39.472449 71.1256446,39.9744898 C71.1256446,40.3255102 71.07026,40.6632653 70.9594908,40.9872449 C70.8487215,41.3122449 70.6764138,41.5984694 70.4425677,41.8479592 C70.2087215,42.0964286 69.91026,42.294898 69.5471831,42.4418367 C69.1841062,42.5887755 68.75026,42.6622449 68.2456446,42.6622449 C68.0733369,42.6622449 67.8866703,42.6540816 67.6856446,42.6377551 C67.484619,42.6214286 67.3082087,42.5928571 67.1564138,42.5520408 L68.1471831,38.4316327 C68.3194908,38.3908163 68.5020549,38.3642857 68.6948754,38.3520408 C68.8876959,38.3397959 69.07026,38.3336735 69.2425677,38.3336735 Z M69.1933369,38.8357143 C68.8856446,38.8357143 68.7010292,38.8438776 68.6394908,38.8602041 L67.8517985,42.1295918 C67.884619,42.1377551 67.9400036,42.144898 68.0179523,42.1510204 C68.095901,42.1571429 68.2230805,42.1602041 68.3994908,42.1602041 C68.7235933,42.1602041 69.015901,42.1066327 69.2764138,41.9984694 C69.5369267,41.8903061 69.7574395,41.7392857 69.9379523,41.544898 C70.1184651,41.3510204 70.2579523,41.1209184 70.3564138,40.8535714 C70.4548754,40.5862245 70.5041062,40.2933673 70.5041062,39.975 C70.5041062,39.6158163 70.3994908,39.3362245 70.19026,39.1357143 C69.9810292,38.9362245 69.6487215,38.8357143 69.1933369,38.8357143 L69.1933369,38.8357143 Z M75.7225677,42.6193878 L75.1256446,42.6193878 L75.5994908,40.6479592 L73.6241062,40.6479592 L73.15026,42.6193878 L72.5533369,42.6193878 L73.5748754,38.3765306 L74.1717985,38.3765306 L73.7410292,40.1520408 L75.7169267,40.1520408 L76.1476959,38.3765306 L76.744619,38.3765306 L75.7225677,42.6193878 L75.7225677,42.6193878 Z M76.6641062,42.6193878 L77.6856446,38.3765306 L80.2025677,38.3765306 L80.0851318,38.872449 L78.1589779,38.872449 L77.8512856,40.1520408 L79.5620549,40.1520408 L79.444619,40.6357143 L77.7400036,40.6357143 L77.3774395,42.1234694 L79.444619,42.1234694 L79.3271831,42.6193878 L76.6641062,42.6193878 L76.6641062,42.6193878 Z M81.9841062,38.3336735 C82.4394908,38.3336735 82.8005164,38.4255102 83.0671831,38.6091837 C83.3338497,38.7928571 83.4666703,39.0622449 83.4666703,39.4168367 C83.4666703,39.7760204 83.3615421,40.077551 83.15026,40.3204082 C82.9389779,40.5632653 82.6425677,40.7377551 82.2610292,40.8433673 C82.31026,40.9295918 82.3676959,41.0387755 82.4333369,41.1714286 C82.4989779,41.3040816 82.5666703,41.4510204 82.6364138,41.6122449 C82.7056446,41.7729592 82.7738497,41.9408163 82.8394908,42.1137755 C82.9051318,42.2877551 82.9620549,42.4556122 83.0117985,42.6188776 L82.4025677,42.6188776 C82.3456446,42.4637755 82.2856446,42.3066327 82.2241062,42.147449 C82.1630805,41.9882653 82.1000036,41.8352041 82.0369267,41.6882653 C81.9728241,41.5413265 81.9097472,41.4035714 81.8456446,41.275 C81.7825677,41.1464286 81.7235933,41.0326531 81.67026,40.9352041 C81.6169267,40.9392857 81.5635933,40.9423469 81.51026,40.9443878 C81.4569267,40.9464286 81.4041062,40.947449 81.35026,40.947449 L80.8764138,40.947449 L80.4764138,42.6188776 L79.8794908,42.6188776 L80.8892344,38.4311224 C81.0615421,38.3903061 81.2435933,38.3637755 81.4369267,38.3515306 C81.6292344,38.3397959 81.8117985,38.3336735 81.9841062,38.3336735 Z M81.91026,38.8357143 C81.6189779,38.8357143 81.4425677,38.8438776 81.3805164,38.8602041 L80.9928241,40.4647959 L81.3564138,40.4647959 C81.524619,40.4647959 81.6969267,40.452551 81.8733369,40.4280612 C82.0497472,40.4035714 82.2107728,40.3556122 82.355901,40.2841837 C82.5015421,40.2127551 82.6205164,40.1127551 82.7128241,39.9841837 C82.8051318,39.8556122 82.8517985,39.6852041 82.8517985,39.4729592 C82.8517985,39.2443878 82.764619,39.0811224 82.59026,38.9831633 C82.415901,38.8846939 82.1887215,38.8357143 81.91026,38.8357143 Z M83.5123113,42.6193878 L84.5338497,38.3765306 L87.0507728,38.3765306 L86.9333369,38.872449 L85.0071831,38.872449 L84.6994908,40.1520408 L86.41026,40.1520408 L86.2928241,40.6357143 L84.5882087,40.6357143 L84.2256446,42.1234694 L86.2928241,42.1234694 L86.1753882,42.6193878 L83.5123113,42.6193878 L83.5123113,42.6193878 Z M19.2276908,35.3418367 C23.7575586,35.3418367 27.4297421,31.6883889 27.4297421,27.1816327 C27.4297421,22.6748764 23.7575586,19.0214286 19.2276908,19.0214286 C14.6978229,19.0214286 11.0256395,22.6748764 11.0256395,27.1816327 C11.0256395,31.6883889 14.6978229,35.3418367 19.2276908,35.3418367 Z M22.8441062,26.0183673 C23.0071831,24.9321429 22.175901,24.3484694 21.0394908,23.9586735 L21.4082087,22.4867347 L20.5082087,22.2632653 L20.1492344,23.6964286 C19.9128241,23.6377551 19.6697472,23.5821429 19.4276959,23.527551 L19.7892344,22.0852041 L18.8897472,21.8617347 L18.5205164,23.3331633 C18.324619,23.2887755 18.1323113,23.244898 17.9456446,23.1984694 L17.9466703,23.1938776 L16.7051318,22.8857143 L16.4656446,23.8423469 C16.4656446,23.8423469 17.1333369,23.9943878 17.1194908,24.0040816 C17.4841062,24.094898 17.55026,24.3346939 17.5389779,24.525 L17.1189779,26.2010204 C17.1441062,26.2071429 17.1764138,26.2158163 17.2128241,26.2311224 C17.1825677,26.2229592 17.1507728,26.2153061 17.1174395,26.2071429 L16.5287215,28.5561224 C16.4841062,28.6658163 16.3707728,28.8311224 16.115901,28.7683673 C16.1251318,28.7811224 15.4615421,28.6061224 15.4615421,28.6061224 L15.0143626,29.6316327 L16.1856446,29.9219388 C16.4035933,29.9760204 16.6174395,30.0331633 16.8271831,30.0867347 L16.4548754,31.575 L17.3538497,31.7984694 L17.7230805,30.3260204 C17.9687215,30.3918367 18.2071831,30.4535714 18.4405164,30.5112245 L18.0728241,31.9765306 L18.9728241,32.2 L19.3456446,30.7147959 C20.8810292,31.0035714 22.0353882,30.8872449 22.5210292,29.5056122 C22.9128241,28.3928571 22.5015421,27.7515306 21.6938497,27.3331633 C22.2825677,27.1984694 22.7256446,26.8137755 22.8441062,26.0183673 L22.8441062,26.0183673 Z M20.7871831,28.8882653 C20.5087215,30.0005102 18.6266703,29.3989796 18.0164138,29.2479592 L18.5107728,27.2765306 C19.1210292,27.4280612 21.0779523,27.7280612 20.7871831,28.8882653 L20.7871831,28.8882653 Z M21.0656446,26.002551 C20.8117985,27.0137755 19.2451318,26.5 18.7369267,26.3744898 L19.1851318,24.5857143 C19.6933369,24.7122449 21.3297472,24.947449 21.0656446,26.002551 L21.0656446,26.002551 Z" id="Rectangle" sketch:type="MSShapeGroup"></path>
            </g>
        </g>
    </g>
</svg>