<?xml version="1.0" encoding="UTF-8" standalone="no"?>
<svg width="61px" height="20px" viewBox="0 0 61 20" version="1.1" xmlns="http://www.w3.org/2000/svg" xmlns:xlink="http://www.w3.org/1999/xlink" xmlns:sketch="http://www.bohemiancoding.com/sketch/ns">
    <!-- Generator: Sketch 3.3.3 (12081) - http://www.bohemiancoding.com/sketch -->
    <title>Credit Card/Visa/Visa</title>
    <desc>Created with Sketch.</desc>
    <defs></defs>
    <g id="Icons:-Credit-card" stroke="none" stroke-width="1" fill="none" fill-rule="evenodd" sketch:type="MSPage">
        <g id="Visa" sketch:type="MSArtboardGroup" transform="translate(-20.000000, -20.000000)">
            <g id="Credit-Card/Visa/Visa" sketch:type="MSLayerGroup" transform="translate(20.000000, 20.000000)">
                <path d="M21.4899908,19.5467606 L24.5647281,0.472676056 L29.4795853,0.472676056 L26.405129,19.5467606 L21.4899908,19.5467606" id="Fill-1" fill="#26337A" sketch:type="MSShapeGroup"></path>
                <path d="M44.232871,0.94084507 C43.2610876,0.558028169 41.7327143,0.14056338 39.8287834,0.14056338 C34.9695853,0.14056338 31.5490876,2.72901408 31.5206959,6.43549296 C31.4897742,9.1771831 33.9615392,10.7061972 35.8249908,11.6174648 C37.7401659,12.5515493 38.3836175,13.1492958 38.3760276,13.984507 C38.3628157,15.2619718 36.8473733,15.8473239 35.4342535,15.8473239 C33.4665115,15.8473239 32.4210783,15.5591549 30.8047189,14.8470423 L30.1725115,14.5433803 L29.4852074,18.8129577 C30.6312765,19.3442254 32.7558756,19.8053521 34.960871,19.8295775 C40.1250691,19.8295775 43.4806313,17.2723944 43.5199862,13.3143662 C43.5376959,11.1402817 42.228023,9.49239437 39.3916636,8.13183099 C37.674106,7.24732394 36.6199585,6.66140845 36.6320461,5.76619718 C36.6331705,4.97352113 37.5225899,4.12478873 39.4476037,4.12478873 C41.0552488,4.09887324 42.2190276,4.47014085 43.1258756,4.85774648 L43.567212,5.07577465 L44.232871,0.94084507" id="Fill-2" fill="#26337A" sketch:type="MSShapeGroup"></path>
                <path d="M50.7772995,12.7842254 C51.1846221,11.6878873 52.7352028,7.45267606 52.7352028,7.45267606 C52.70653,7.50309859 53.1402765,6.34788732 53.3884931,5.63295775 L53.7201982,7.27802817 C53.7201982,7.27802817 54.6633088,11.8307042 54.857553,12.7842254 L50.7772995,12.7842254 L50.7772995,12.7842254 Z M56.8407558,0.492112676 L53.0424516,0.492112676 C51.8643364,0.492112676 50.9825069,0.829577465 50.4663963,2.07323944 L43.1674793,19.5535211 L48.3297097,19.5535211 C48.3297097,19.5535211 49.1719032,17.2019718 49.3630553,16.6859155 C49.9261106,16.6859155 54.9421659,16.6957746 55.6581429,16.6957746 C55.8054424,17.3614085 56.2566175,19.5535211 56.2566175,19.5535211 L60.8184055,19.5535211 L56.8407558,0.492112676 L56.8407558,0.492112676 Z" id="Fill-3" fill="#26337A" sketch:type="MSShapeGroup"></path>
                <path d="M17.3667281,0.488732394 L12.5561613,13.4926761 L12.040894,10.8492958 C11.144447,7.80366197 8.35390783,4.50253521 5.23250691,2.8484507 L9.6335023,19.5301408 L14.8350876,19.5270423 L22.5750599,0.488732394 L17.3667281,0.488732394" id="Fill-4" fill="#26337A" sketch:type="MSShapeGroup"></path>
                <path d="M8.09051152,0.475774648 L0.164728111,0.475774648 L0.0995115207,0.870985915 C6.26669585,2.45098592 10.3472304,6.26478873 12.040894,10.8492958 L10.3185576,2.08507042 C10.0214286,0.876338028 9.15787097,0.518028169 8.09051152,0.475774648" id="Fill-5" fill="#ED982D" sketch:type="MSShapeGroup"></path>
            </g>
        </g>
    </g>
</svg>