<?xml version="1.0" encoding="UTF-8" standalone="no"?>
<svg width="72px" height="26px" viewBox="0 0 72 26" version="1.1" xmlns="http://www.w3.org/2000/svg" xmlns:xlink="http://www.w3.org/1999/xlink" xmlns:sketch="http://www.bohemiancoding.com/sketch/ns">
    <!-- Generator: Sketch 3.3.3 (12081) - http://www.bohemiancoding.com/sketch -->
    <title>Payment/Sepa/Sepa-alt</title>
    <desc>Created with Sketch.</desc>
    <defs></defs>
    <g id="Icons:-Payment" stroke="none" stroke-width="1" fill="none" fill-rule="evenodd" sketch:type="MSPage">
        <g id="Sepa-alt" sketch:type="MSArtboardGroup" transform="translate(-14.000000, -17.000000)">
            <g id="Payment/Sepa/Sepa-alt" sketch:type="MSLayerGroup" transform="translate(14.000000, 17.000000)">
                <path d="M0.0407682119,23.5805688 L0.778410596,23.5061468 C0.822754967,23.7549358 0.912874172,23.9374128 1.0485298,24.0542936 C1.18442384,24.1709358 1.36752318,24.2291376 1.59806623,24.2291376 C1.84219868,24.2291376 2.02601325,24.1773761 2.14998675,24.0738532 C2.27372185,23.9700917 2.3354702,23.8489174 2.3354702,23.7100917 C2.3354702,23.6211193 2.30948344,23.5455046 2.25774834,23.4827706 C2.20577483,23.4202752 2.11517881,23.3661284 1.98572185,23.3196147 C1.89703311,23.2893211 1.69533775,23.2349358 1.38039735,23.1566972 C0.974860927,23.0565138 0.690675497,22.9329541 0.527125828,22.7862569 C0.297298013,22.5801651 0.182384106,22.3287523 0.182384106,22.0320183 C0.182384106,21.8414312 0.236503311,21.6627706 0.344980132,21.4967523 C0.453218543,21.3304954 0.609615894,21.2038349 0.813456954,21.1170092 C1.01753642,21.0301835 1.26381457,20.9865321 1.55229139,20.9865321 C2.02339073,20.9865321 2.37790728,21.0902936 2.61607947,21.2973394 C2.85425166,21.5046239 2.97917881,21.7810826 2.99109934,22.1269541 L2.23128477,22.1567706 C2.19886093,21.9635596 2.12924503,21.8247339 2.02243709,21.7398165 C1.91586755,21.6551376 1.75589404,21.6126789 1.54251656,21.6126789 C1.32222517,21.6126789 1.15009272,21.658 1.02540397,21.7486422 C0.945059603,21.8066055 0.905006623,21.884367 0.905006623,21.9816881 C0.905006623,22.0706606 0.942675497,22.1465138 1.01777483,22.2099633 C1.11313907,22.2901101 1.34511258,22.3738349 1.71369536,22.460422 C2.08203974,22.5472477 2.35454305,22.6371743 2.5312053,22.7306789 C2.70762914,22.823945 2.84590728,22.9515596 2.94580132,23.1132844 C3.04545695,23.2754862 3.09552318,23.4753761 3.09552318,23.7134312 C3.09552318,23.9295413 3.03568212,24.131578 2.916,24.3200183 C2.79631788,24.5084587 2.62728477,24.6484771 2.40866225,24.7400734 C2.19003974,24.8316697 1.91753642,24.8777064 1.59115232,24.8777064 C1.11623841,24.8777064 0.751470199,24.7672661 0.496847682,24.5463853 C0.242463576,24.3255046 0.0903576159,24.0037248 0.0407682119,23.5805688" id="Fill-1" fill="#FFFFFF" sketch:type="MSShapeGroup"></path>
                <path d="M3.88299338,22.0897431 L4.60561589,22.0897431 L4.60561589,24.8104404 L3.88299338,24.8104404 L3.88299338,22.0897431 Z M3.88299338,21.0535596 L4.60561589,21.0535596 L4.60561589,21.717156 L3.88299338,21.717156 L3.88299338,21.0535596 Z" id="Fill-2" fill="#FFFFFF" sketch:type="MSShapeGroup"></path>
                <path d="M7.9784106,24.8104404 L7.25578808,24.8104404 L7.25578808,23.418844 C7.25578808,23.1244954 7.24029139,22.9341468 7.20977483,22.8477982 C7.17901987,22.7614495 7.12943046,22.693945 7.0605298,22.646 C6.99162914,22.5982936 6.90866225,22.5742018 6.81186755,22.5742018 C6.68765563,22.5742018 6.57631788,22.6085505 6.47761589,22.6770092 C6.37891391,22.7454679 6.31144371,22.8361101 6.27496689,22.9491743 C6.23825166,23.062 6.22013245,23.2707156 6.22013245,23.5755596 L6.22013245,24.8104404 L5.49750993,24.8104404 L5.49750993,22.0897431 L6.16792053,22.0897431 L6.16792053,22.4895229 C6.40513907,22.1782385 6.70410596,22.0227156 7.06410596,22.0227156 C7.22288742,22.0227156 7.36807947,22.051578 7.49944371,22.1088257 C7.63080795,22.1660734 7.73022517,22.2393028 7.79769536,22.3282752 C7.86516556,22.4172477 7.91213245,22.5181468 7.93859603,22.631211 C7.9650596,22.7440367 7.9784106,22.9057615 7.9784106,23.1161468 L7.9784106,24.8104404" id="Fill-3" fill="#FFFFFF" sketch:type="MSShapeGroup"></path>
                <path d="M9.43986755,23.3914128 C9.43986755,23.6809908 9.49517881,23.8930459 9.60627815,24.0273394 C9.71713907,24.1621101 9.85398675,24.2291376 10.0168212,24.2291376 C10.1910993,24.2291376 10.3384371,24.1602018 10.4588344,24.0223303 C10.5789934,23.8844587 10.6393113,23.6800367 10.6393113,23.4093028 C10.6393113,23.1268807 10.5816159,22.9169725 10.4664636,22.7798165 C10.3510728,22.6428991 10.2056424,22.5742018 10.029457,22.5742018 C9.85827815,22.5742018 9.71713907,22.6417064 9.60627815,22.776 C9.49517881,22.9107706 9.43986755,23.1156697 9.43986755,23.3914128 L9.43986755,23.3914128 Z M8.79162914,24.9893394 L9.61104636,25.078789 C9.62487417,25.1801651 9.65658278,25.2498165 9.70617219,25.2879817 C9.77483444,25.342367 9.88283444,25.3695596 10.0301722,25.3695596 C10.218755,25.3695596 10.3601325,25.3414128 10.454543,25.2851193 C10.5177219,25.2474312 10.5658808,25.186844 10.598543,25.1031193 C10.6207152,25.0430092 10.6319205,24.9330459 10.6319205,24.7722752 L10.6340662,24.3751193 C10.4209272,24.6654128 10.1505695,24.8104404 9.82251656,24.8104404 C9.45655629,24.8104404 9.16712583,24.6558716 8.95350993,24.3460183 C8.78590728,24.1012844 8.70222517,23.7964404 8.70222517,23.4319633 C8.70222517,22.9749358 8.81189404,22.6259633 9.0314702,22.3845688 C9.25104636,22.1434128 9.5242649,22.0227156 9.85064901,22.0227156 C10.1872848,22.0227156 10.4650331,22.170844 10.683894,22.4666239 L10.683894,22.0897431 L11.354543,22.0897431 L11.354543,24.5354128 C11.354543,24.8571927 11.3280795,25.097633 11.2749139,25.2564954 C11.2219868,25.4158349 11.1476026,25.5405872 11.0517616,25.6312294 C10.9559205,25.7218716 10.8281325,25.7929541 10.6681589,25.8442385 C10.5081854,25.8955229 10.3060132,25.9212844 10.0616424,25.9212844 C9.59984106,25.9212844 9.2722649,25.8416147 9.07891391,25.6825138 C8.88556291,25.5234128 8.78900662,25.3216147 8.78900662,25.0771193 C8.78900662,25.0530275 8.78996026,25.0239266 8.79162914,24.9893394 L8.79162914,24.9893394 Z" id="Fill-4" fill="#FFFFFF" sketch:type="MSShapeGroup"></path>
                <path d="M12.2199735,21.0535596 L12.942596,21.0535596 L12.942596,24.8104404 L12.2199735,24.8104404 L12.2199735,21.0535596 Z" id="Fill-5" fill="#FFFFFF" sketch:type="MSShapeGroup"></path>
                <path d="M15.458543,23.2227706 C15.4535364,23.0109541 15.3994172,22.8501835 15.2961854,22.7397431 C15.1931921,22.6295413 15.0677881,22.5742018 14.9199735,22.5742018 C14.7619073,22.5742018 14.6312583,22.6326422 14.5282649,22.7488073 C14.4250331,22.8649725 14.3744901,23.0231193 14.3761589,23.2227706 L15.458543,23.2227706 L15.458543,23.2227706 Z M15.421351,23.9533945 L16.1365828,24.0726606 C16.0440795,24.3348073 15.8979338,24.5346972 15.6983841,24.6718532 C15.4988344,24.8092477 15.2489801,24.8777064 14.949298,24.8777064 C14.4746225,24.8777064 14.1234437,24.722422 13.8957616,24.4120917 C13.7157616,24.1635413 13.6258808,23.8498716 13.6258808,23.4706055 C13.6258808,23.0183486 13.743894,22.6636514 13.9803974,22.4072294 C14.2166623,22.1508073 14.5153907,22.0227156 14.8765828,22.0227156 C15.282596,22.0227156 15.6027815,22.1572477 15.8373775,22.4260734 C16.0719735,22.6953761 16.1840265,23.1073211 16.1737748,23.6626239 L14.3635232,23.6626239 C14.3685298,23.8768257 14.4271788,24.0433211 14.5392318,24.1625872 C14.6512848,24.2813761 14.7909934,24.3410092 14.9583576,24.3410092 C15.0720795,24.3410092 15.1679205,24.3104771 15.245404,24.2491743 C15.3228874,24.1881101 15.3817748,24.0893578 15.421351,23.9533945 L15.421351,23.9533945 Z" id="Fill-6" fill="#FFFFFF" sketch:type="MSShapeGroup"></path>
                <path d="M18.5383311,24.8104404 L18.5383311,21.0535596 L21.3174834,21.0535596 L21.3174834,21.6873394 L19.2983841,21.6873394 L19.2983841,22.5222018 L21.1758675,22.5222018 L21.1758675,23.1557431 L19.2983841,23.1557431 L19.2983841,24.1768991 L21.3918675,24.1768991 L21.3918675,24.8104404 L18.5383311,24.8104404" id="Fill-7" fill="#FFFFFF" sketch:type="MSShapeGroup"></path>
                <path d="M23.9748079,24.8104404 L23.9748079,24.4030275 C23.8753907,24.5482936 23.7449801,24.6637431 23.5830993,24.7493761 C23.4212185,24.8347706 23.2505166,24.8777064 23.070755,24.8777064 C22.8874172,24.8777064 22.7233907,24.8373945 22.5777219,24.7570092 C22.4322914,24.6766239 22.3269139,24.5635596 22.2618278,24.4182936 C22.1967417,24.272789 22.1643179,24.0717064 22.1643179,23.8150459 L22.1643179,22.0897431 L22.8869404,22.0897431 L22.8869404,23.3410826 C22.8869404,23.7241651 22.900053,23.9588807 22.926755,24.0449908 C22.9532185,24.1318165 23.0013775,24.2000367 23.0714702,24.2506055 C23.1415629,24.3009358 23.2302517,24.3259817 23.3380132,24.3259817 C23.4610331,24.3259817 23.5714172,24.2925872 23.6686887,24.224844 C23.7661987,24.1573394 23.8327152,24.0736147 23.8687152,23.9734312 C23.9044768,23.8734862 23.922596,23.6285138 23.922596,23.2387523 L23.922596,22.0897431 L24.6452185,22.0897431 L24.6452185,24.8104404 L23.9748079,24.8104404" id="Fill-8" fill="#FFFFFF" sketch:type="MSShapeGroup"></path>
                <path d="M26.2332715,24.8104404 L25.510649,24.8104404 L25.510649,22.0897431 L26.1810596,22.0897431 L26.1810596,22.4766422 C26.2957351,22.2939266 26.3987285,22.1727523 26.4902781,22.1126422 C26.5818278,22.0527706 26.6855364,22.0227156 26.8018808,22.0227156 C26.9659073,22.0227156 27.1242119,22.0682752 27.2763179,22.159156 L27.0565033,22.7891193 C26.9349139,22.7106422 26.8214305,22.6712844 26.7170066,22.6712844 C26.6156821,22.6712844 26.5300927,22.6991927 26.4597616,22.7545321 C26.3894305,22.8103486 26.3341192,22.9107706 26.2938278,23.0560367 C26.2535364,23.2013028 26.2332715,23.5059083 26.2332715,23.9691376 L26.2332715,24.8104404" id="Fill-9" fill="#FFFFFF" sketch:type="MSShapeGroup"></path>
                <path d="M28.305298,23.4500917 C28.305298,23.7213028 28.3694305,23.9285872 28.4979338,24.0726606 C28.6264371,24.2167339 28.7847417,24.2887706 28.9733245,24.2887706 C29.1616689,24.2887706 29.3197351,24.2167339 29.4472848,24.0726606 C29.5748344,23.9285872 29.6387285,23.7193945 29.6387285,23.4450826 C29.6387285,23.1776881 29.5748344,22.9715963 29.4472848,22.8277615 C29.3197351,22.6836881 29.1616689,22.6116514 28.9733245,22.6116514 C28.7847417,22.6116514 28.6264371,22.6836881 28.4979338,22.8277615 C28.3694305,22.9715963 28.305298,23.1793578 28.305298,23.4500917 L28.305298,23.4500917 Z M27.5676556,23.4114495 C27.5676556,23.1714862 27.626543,22.939156 27.7445563,22.7144587 C27.8623311,22.49 28.0292185,22.3184954 28.245457,22.2001835 C28.461457,22.0818716 28.7029669,22.0227156 28.9695099,22.0227156 C29.381245,22.0227156 29.718596,22.1567706 29.9818013,22.4251193 C30.2447682,22.6934679 30.3763709,23.0326606 30.3763709,23.4424587 C30.3763709,23.8555963 30.2433377,24.198367 29.9777483,24.470055 C29.7121589,24.7417431 29.3776689,24.8777064 28.9745166,24.8777064 C28.7251391,24.8777064 28.4872053,24.8209358 28.2609536,24.7081101 C28.0344636,24.5948073 27.8623311,24.4290275 27.7445563,24.2102936 C27.626543,23.9915596 27.5676556,23.7255963 27.5676556,23.4114495 L27.5676556,23.4114495 Z" id="Fill-10" fill="#FFFFFF" sketch:type="MSShapeGroup"></path>
                <path d="M33.4895364,21.6873394 L33.4895364,22.7607339 L33.9034172,22.7607339 C34.2014305,22.7607339 34.4007417,22.7411743 34.501351,22.701578 C34.6017219,22.6619817 34.6806358,22.5999633 34.7376159,22.5155229 C34.794596,22.4313211 34.8232053,22.3332844 34.8232053,22.2214128 C34.8232053,22.0837798 34.7831523,21.9702385 34.7030464,21.880789 C34.6229404,21.7913394 34.5216159,21.7355229 34.3990728,21.7131009 C34.3087152,21.6959266 34.1275232,21.6873394 33.8547815,21.6873394 L33.4895364,21.6873394 L33.4895364,21.6873394 Z M32.7297219,24.8104404 L32.7297219,21.0535596 L33.9460927,21.0535596 C34.4069404,21.0535596 34.7075762,21.0726422 34.8475232,21.1100917 C35.0625695,21.1663853 35.2425695,21.2892294 35.3877616,21.4781468 C35.5329536,21.6668257 35.6054305,21.910844 35.6054305,22.2099633 C35.6054305,22.4406239 35.5637086,22.6343119 35.4800265,22.7919817 C35.3965828,22.9489358 35.2902517,23.0724954 35.1615099,23.1621835 C35.0327682,23.2521101 34.9018808,23.3112661 34.7688477,23.340367 C34.587894,23.3763853 34.3261192,23.3942752 33.9835232,23.3942752 L33.4895364,23.3942752 L33.4895364,24.8104404 L32.7297219,24.8104404 L32.7297219,24.8104404 Z" id="Fill-11" fill="#FFFFFF" sketch:type="MSShapeGroup"></path>
                <path d="M37.8755762,23.5061468 C37.7833113,23.537156 37.6376424,23.5738899 37.4383311,23.6168257 C37.2390199,23.6595229 37.1086093,23.7017431 37.0475762,23.7427706 C36.9536424,23.8097982 36.9071523,23.8947156 36.9071523,23.9975229 C36.9071523,24.0988991 36.9443444,24.1862018 37.0192053,24.2601468 C37.0943046,24.3338532 37.1896689,24.3708257 37.3057748,24.3708257 C37.4352318,24.3708257 37.5584901,24.3278899 37.6762649,24.2422569 C37.7630464,24.1768991 37.8202649,24.0972294 37.8474437,24.0027706 C37.8660397,23.9409908 37.8755762,23.8233945 37.8755762,23.6499817 L37.8755762,23.5061468 L37.8755762,23.5061468 Z M36.9071523,22.917211 L36.2589139,22.797945 C36.3323444,22.534367 36.458702,22.3394862 36.6379868,22.2128257 C36.8175099,22.0861651 37.084053,22.0227156 37.4376159,22.0227156 C37.758755,22.0227156 37.9981192,22.0608807 38.1552318,22.1367339 C38.3123444,22.2133028 38.4232053,22.3099083 38.4870993,22.4270275 C38.5512318,22.5441468 38.5834172,22.7595413 38.5834172,23.0727339 L38.5760265,23.9147523 C38.5760265,24.1542385 38.5874702,24.3312294 38.6103576,24.4447706 C38.6334834,24.5585505 38.6766358,24.6804404 38.7398146,24.8104404 L38.0245828,24.8104404 C38.0055099,24.7634495 37.9826225,24.6935596 37.9552053,24.6010092 C37.9432848,24.558789 37.934702,24.5311193 37.9299338,24.5175229 C37.8069139,24.6375046 37.6755497,24.7276697 37.5356026,24.7877798 C37.3956556,24.8476514 37.246649,24.8777064 37.0878675,24.8777064 C36.8079735,24.8777064 36.5872053,24.8013761 36.4260397,24.6491927 C36.2648742,24.4967706 36.1842914,24.3040367 36.1842914,24.0712294 C36.1842914,23.9173761 36.2210066,23.7799817 36.2941987,23.6592844 C36.3678675,23.5385872 36.4708609,23.4460367 36.6031788,23.3818716 C36.7357351,23.317945 36.926702,23.2614128 37.1760795,23.2134679 C37.5124768,23.1502569 37.7456424,23.0913394 37.8755762,23.0364771 L37.8755762,22.9637248 C37.8755762,22.8234679 37.841245,22.7235229 37.7725828,22.6636514 C37.7036821,22.6040183 37.5742252,22.5742018 37.3834967,22.5742018 C37.254755,22.5742018 37.1543841,22.5997248 37.0821457,22.6502936 C37.0099073,22.7011009 36.9514967,22.7900734 36.9071523,22.917211 L36.9071523,22.917211 Z" id="Fill-12" fill="#FFFFFF" sketch:type="MSShapeGroup"></path>
                <path d="M39.1021987,22.0897431 L39.869404,22.0897431 L40.521457,24.0213761 L41.1584901,22.0897431 L41.9035232,22.0897431 L40.7701192,25.1866055 C40.706702,25.345945 40.6463841,25.4673578 40.5891656,25.5513211 C40.531947,25.6350459 40.4659073,25.7032661 40.3915232,25.7552661 C40.3169007,25.8075046 40.2258278,25.8485321 40.1171126,25.8773945 C40.0083974,25.9067339 39.8856159,25.9212844 39.7487682,25.9212844 C39.6102517,25.9212844 39.4738808,25.9067339 39.3406093,25.877633 L39.2733775,25.3135046 C39.3866225,25.3361651 39.4891391,25.3471376 39.5799735,25.3471376 C39.7485298,25.3471376 39.8727417,25.2972844 39.9535629,25.198055 C40.0343841,25.0983486 40.0961325,24.9716881 40.1390464,24.8180734 L39.1021987,22.0897431" id="Fill-13" fill="#FFFFFF" sketch:type="MSShapeGroup"></path>
                <path d="M42.4671258,22.0897431 L43.1301457,22.0897431 L43.1301457,22.4613761 C43.3683179,22.1689358 43.6517881,22.0227156 43.9807947,22.0227156 C44.1553113,22.0227156 44.3069404,22.0584954 44.4354437,22.1302936 C44.563947,22.2023303 44.6693245,22.3111009 44.7513377,22.456367 C44.8710199,22.3111009 45.0004768,22.2023303 45.138755,22.1302936 C45.2775099,22.0584954 45.4250861,22.0227156 45.5824371,22.0227156 C45.782702,22.0227156 45.9519735,22.0632661 46.0904901,22.144844 C46.2290066,22.2257064 46.3327152,22.345211 46.4011391,22.5028807 C46.4504901,22.6190459 46.4752848,22.8072477 46.4752848,23.0674862 L46.4752848,24.8104404 L45.7526623,24.8104404 L45.7526623,23.2521101 C45.7526623,22.9816147 45.7278675,22.8072477 45.6785166,22.7285321 C45.6117616,22.6254862 45.5094834,22.5742018 45.3714437,22.5742018 C45.270596,22.5742018 45.1757086,22.6049725 45.0870199,22.6667523 C44.9983311,22.7285321 44.9344371,22.8186972 44.8953377,22.9377248 C44.856,23.0565138 44.8362119,23.2444771 44.8362119,23.5011376 L44.8362119,24.8104404 L44.1135894,24.8104404 L44.1135894,23.3165138 C44.1135894,23.050789 44.1009536,22.88 44.0752053,22.8027156 C44.0496954,22.7256697 44.0101192,22.668422 43.9562384,22.6307339 C43.9023576,22.5932844 43.8296424,22.5742018 43.7373775,22.5742018 C43.6265166,22.5742018 43.5266225,22.6042569 43.4379338,22.6641284 C43.349245,22.724 43.2858278,22.8105872 43.2472053,22.9234128 C43.2088212,23.0364771 43.1897483,23.2237248 43.1897483,23.485633 L43.1897483,24.8104404 L42.4671258,24.8104404 L42.4671258,22.0897431" id="Fill-14" fill="#FFFFFF" sketch:type="MSShapeGroup"></path>
                <path d="M48.9645298,23.2227706 C48.9592848,23.0109541 48.905404,22.8501835 48.8019338,22.7397431 C48.6991788,22.6295413 48.5735364,22.5742018 48.4257219,22.5742018 C48.267894,22.5742018 48.1370066,22.6326422 48.0342517,22.7488073 C47.9310199,22.8649725 47.8804768,23.0231193 47.8821457,23.2227706 L48.9645298,23.2227706 L48.9645298,23.2227706 Z M48.9273377,23.9533945 L49.6425695,24.0726606 C49.5498278,24.3348073 49.4039205,24.5346972 49.2043709,24.6718532 C49.0045828,24.8092477 48.7549669,24.8777064 48.4550464,24.8777064 C47.9806093,24.8777064 47.6294305,24.722422 47.4015099,24.4120917 C47.2215099,24.1635413 47.1316291,23.8498716 47.1316291,23.4706055 C47.1316291,23.0183486 47.2501192,22.6636514 47.4861457,22.4072294 C47.722649,22.1508073 48.0211391,22.0227156 48.3825695,22.0227156 C48.7885828,22.0227156 49.1085298,22.1572477 49.3431258,22.4260734 C49.5777219,22.6953761 49.6900132,23.1073211 49.6797616,23.6626239 L47.8692715,23.6626239 C47.8745166,23.8768257 47.9331656,24.0433211 48.0452185,24.1625872 C48.1570331,24.2813761 48.2967417,24.3410092 48.4643444,24.3410092 C48.5780662,24.3410092 48.6736689,24.3104771 48.7511523,24.2491743 C48.8291126,24.1881101 48.8877616,24.0893578 48.9273377,23.9533945 L48.9273377,23.9533945 Z" id="Fill-15" fill="#FFFFFF" sketch:type="MSShapeGroup"></path>
                <path d="M52.8956821,24.8104404 L52.1730596,24.8104404 L52.1730596,23.418844 C52.1730596,23.1244954 52.1575629,22.9341468 52.1272848,22.8477982 C52.0965298,22.7614495 52.046702,22.693945 51.9778013,22.646 C51.9089007,22.5982936 51.8259338,22.5742018 51.7291391,22.5742018 C51.6051656,22.5742018 51.4935894,22.6085505 51.3951258,22.6770092 C51.2964238,22.7454679 51.2289536,22.8361101 51.1922384,22.9491743 C51.1557616,23.062 51.137404,23.2707156 51.137404,23.5755596 L51.137404,24.8104404 L50.4147815,24.8104404 L50.4147815,22.0897431 L51.0851921,22.0897431 L51.0851921,22.4895229 C51.322649,22.1782385 51.6213775,22.0227156 51.9813775,22.0227156 C52.1401589,22.0227156 52.2855894,22.051578 52.4167152,22.1088257 C52.5480795,22.1660734 52.6477351,22.2393028 52.7152053,22.3282752 C52.7826755,22.4172477 52.829404,22.5181468 52.8558675,22.631211 C52.8825695,22.7440367 52.8956821,22.9057615 52.8956821,23.1161468 L52.8956821,24.8104404" id="Fill-16" fill="#FFFFFF" sketch:type="MSShapeGroup"></path>
                <path d="M55.0277881,22.0897431 L55.0277881,22.6636514 L54.535947,22.6636514 L54.535947,23.7644771 C54.535947,23.9872661 54.5404768,24.1172661 54.5497748,24.154 C54.5588344,24.1909725 54.5798146,24.2212661 54.6124768,24.2453578 C54.6453775,24.269211 54.6849536,24.2813761 54.7319205,24.2813761 C54.7977219,24.2813761 54.8921325,24.2582385 55.0165828,24.2122018 L55.0797616,24.7698899 C54.9131126,24.8416881 54.7245298,24.8777064 54.5140132,24.8777064 C54.3845563,24.8777064 54.2684503,24.8557615 54.1647417,24.8121101 C54.0612715,24.7686972 53.9852185,24.7119266 53.9365828,24.6425138 C53.8881854,24.5733394 53.8548079,24.4795963 53.8362119,24.3615229 C53.8207152,24.2775596 53.8133245,24.1079633 53.8133245,23.8529725 L53.8133245,22.6636514 L53.4855099,22.6636514 L53.4855099,22.0897431 L53.8133245,22.0897431 L53.8133245,21.5456514 L54.535947,21.1208257 L54.535947,22.0897431 L55.0277881,22.0897431" id="Fill-17" fill="#FFFFFF" sketch:type="MSShapeGroup"></path>
                <path d="M55.4342781,24.042844 L56.1569007,23.9309725 C56.1876556,24.0700367 56.2498808,24.1754679 56.3435762,24.2477431 C56.4375099,24.3200183 56.5686358,24.3557982 56.7374305,24.3557982 C56.9236291,24.3557982 57.0635762,24.3214495 57.1572715,24.2527523 C57.2204503,24.2043303 57.2521589,24.1401651 57.2521589,24.0590642 C57.2521589,24.0042018 57.234755,23.9584037 57.2004238,23.9226239 C57.1641854,23.8880367 57.0836026,23.8563119 56.9581987,23.8269725 C56.3743311,23.6979266 56.0040795,23.5803303 55.8481589,23.4741835 C55.6316821,23.3270092 55.5236821,23.1221101 55.5236821,22.8604404 C55.5236821,22.6238165 55.6169007,22.4251193 55.804053,22.2643486 C55.9914437,22.1033394 56.2815894,22.0227156 56.6747285,22.0227156 C57.0490331,22.0227156 57.3270199,22.0830642 57.5091656,22.2035229 C57.6910728,22.3242202 57.8164768,22.5024037 57.8853775,22.7383119 L57.2073377,22.8649725 C57.1780132,22.7593028 57.1222252,22.6779633 57.0402119,22.6216697 C56.9579603,22.5651376 56.8409007,22.5369908 56.6890331,22.5369908 C56.497351,22.5369908 56.3597881,22.5634679 56.2770596,22.6171376 C56.2215099,22.6548257 56.1940927,22.7037248 56.1940927,22.7638349 C56.1940927,22.8155963 56.2179338,22.8594862 56.2660927,22.8957431 C56.3311788,22.9436881 56.5564768,23.0116697 56.9415099,23.0994495 C57.326543,23.1872294 57.5954702,23.2945688 57.7482914,23.4217064 C57.8989669,23.5505138 57.9747815,23.7301284 57.9747815,23.9603119 C57.9747815,24.2110092 57.8703576,24.4266422 57.6622252,24.6069725 C57.4536159,24.7875413 57.1455894,24.8777064 56.7374305,24.8777064 C56.3671788,24.8777064 56.0739338,24.8025688 55.8579338,24.6530092 C55.6419338,24.5029725 55.5007947,24.2999817 55.4342781,24.042844" id="Fill-18" fill="#FFFFFF" sketch:type="MSShapeGroup"></path>
                <path d="M62.3727417,23.3272477 L61.8477616,21.9332661 L61.3404238,23.3272477 L62.3727417,23.3272477 L62.3727417,23.3272477 Z M63.7662517,24.8104404 L62.9480265,24.8104404 L62.6233113,23.960789 L61.1098808,23.960789 L60.8004238,24.8104404 L59.9962649,24.8104404 L61.4508079,21.0535596 L62.2499603,21.0535596 L63.7662517,24.8104404 L63.7662517,24.8104404 Z" id="Fill-19" fill="#FFFFFF" sketch:type="MSShapeGroup"></path>
                <path d="M65.0069404,24.8104404 L64.2843179,24.8104404 L64.2843179,22.0897431 L64.9547285,22.0897431 L64.9547285,22.4766422 C65.069404,22.2939266 65.1721589,22.1727523 65.263947,22.1126422 C65.3552583,22.0527706 65.4589669,22.0227156 65.5755497,22.0227156 C65.7395762,22.0227156 65.8976424,22.0682752 66.0499868,22.159156 L65.8301722,22.7891193 C65.7083444,22.7106422 65.5950993,22.6712844 65.4906755,22.6712844 C65.3891126,22.6712844 65.3035232,22.6991927 65.2331921,22.7545321 C65.1628609,22.8103486 65.1075497,22.9107706 65.0674967,23.0560367 C65.0269669,23.2013028 65.0069404,23.5059083 65.0069404,23.9691376 L65.0069404,24.8104404" id="Fill-20" fill="#FFFFFF" sketch:type="MSShapeGroup"></path>
                <path d="M68.1367947,23.2227706 C68.1315497,23.0109541 68.0774305,22.8501835 67.9744371,22.7397431 C67.8712053,22.6295413 67.7458013,22.5742018 67.5982252,22.5742018 C67.4399205,22.5742018 67.3095099,22.6326422 67.2065166,22.7488073 C67.1032848,22.8649725 67.0525033,23.0231193 67.0544106,23.2227706 L68.1367947,23.2227706 L68.1367947,23.2227706 Z M68.0996026,23.9533945 L68.8148344,24.0726606 C68.7223311,24.3348073 68.5761854,24.5346972 68.3766358,24.6718532 C68.1770861,24.8092477 67.9272318,24.8777064 67.6275497,24.8777064 C67.1528742,24.8777064 66.801457,24.722422 66.5737748,24.4120917 C66.3937748,24.1635413 66.303894,23.8498716 66.303894,23.4706055 C66.303894,23.0183486 66.4221457,22.6636514 66.658649,22.4072294 C66.8946755,22.1508073 67.1936424,22.0227156 67.5548344,22.0227156 C67.9606093,22.0227156 68.2807947,22.1572477 68.5156291,22.4260734 C68.7499868,22.6953761 68.8622781,23.1073211 68.8520265,23.6626239 L67.0415364,23.6626239 C67.0467815,23.8768257 67.1054305,24.0433211 67.217245,24.1625872 C67.3295364,24.2813761 67.469245,24.3410092 67.6363709,24.3410092 C67.7503311,24.3410092 67.8459338,24.3104771 67.9236556,24.2491743 C68.0011391,24.1881101 68.0597881,24.0893578 68.0996026,23.9533945 L68.0996026,23.9533945 Z" id="Fill-21" fill="#FFFFFF" sketch:type="MSShapeGroup"></path>
                <path d="M71.091894,23.5061468 C70.9998675,23.537156 70.8539603,23.5738899 70.654649,23.6168257 C70.4553377,23.6595229 70.3251656,23.7017431 70.263894,23.7427706 C70.1699603,23.8097982 70.1234702,23.8947156 70.1234702,23.9975229 C70.1234702,24.0988991 70.1606623,24.1862018 70.2357616,24.2601468 C70.3106225,24.3338532 70.4059868,24.3708257 70.5220927,24.3708257 C70.6515497,24.3708257 70.7748079,24.3278899 70.8925828,24.2422569 C70.9793642,24.1768991 71.0365828,24.0972294 71.0637616,24.0027706 C71.0823576,23.9409908 71.091894,23.8233945 71.091894,23.6499817 L71.091894,23.5061468 L71.091894,23.5061468 Z M70.1234702,22.917211 L69.4752318,22.797945 C69.5486623,22.534367 69.6750199,22.3394862 69.8543046,22.2128257 C70.0338278,22.0861651 70.3003709,22.0227156 70.6539338,22.0227156 C70.9750728,22.0227156 71.2144371,22.0608807 71.3715497,22.1367339 C71.5286623,22.2133028 71.6395232,22.3099083 71.7034172,22.4270275 C71.7675497,22.5441468 71.7997351,22.7595413 71.7997351,23.0727339 L71.7923444,23.9147523 C71.7923444,24.1542385 71.8037881,24.3312294 71.8266755,24.4447706 C71.8498013,24.5585505 71.8929536,24.6804404 71.955894,24.8104404 L71.2409007,24.8104404 C71.2218278,24.7634495 71.1991788,24.6935596 71.1715232,24.6010092 C71.1598411,24.558789 71.1510199,24.5311193 71.1462517,24.5175229 C71.0232318,24.6375046 70.892106,24.7276697 70.7521589,24.7877798 C70.6122119,24.8476514 70.4629669,24.8777064 70.3041854,24.8777064 C70.0242914,24.8777064 69.8035232,24.8013761 69.6423576,24.6491927 C69.4814305,24.4967706 69.4008477,24.3040367 69.4008477,24.0712294 C69.4008477,23.9173761 69.4373245,23.7799817 69.510755,23.6592844 C69.5841854,23.5385872 69.6871788,23.4460367 69.8194967,23.3818716 C69.952053,23.317945 70.1430199,23.2614128 70.3923974,23.2134679 C70.7287947,23.1502569 70.9619603,23.0913394 71.091894,23.0364771 L71.091894,22.9637248 C71.091894,22.8234679 71.0575629,22.7235229 70.9889007,22.6636514 C70.9202384,22.6040183 70.790543,22.5742018 70.5998146,22.5742018 C70.4710728,22.5742018 70.370702,22.5997248 70.2984636,22.6502936 C70.2264636,22.7011009 70.1678146,22.7900734 70.1234702,22.917211 L70.1234702,22.917211 Z" id="Fill-22" fill="#FFFFFF" sketch:type="MSShapeGroup"></path>
                <path d="M15.998543,6.29152294 L11.0782252,6.29152294 C11.0782252,5.48361468 10.9833377,4.94143119 10.7945166,4.66544954 C10.5017483,4.25708257 9.69353642,4.05266055 8.37083444,4.05266055 C7.08627815,4.05266055 6.2346755,4.17025688 5.81912583,4.40568807 C5.40381457,4.64183486 5.19592053,5.1553945 5.19592053,5.94612844 C5.19592053,6.6619633 5.37997351,7.13330275 5.74903311,7.35919266 C6.01343046,7.51948624 6.36270199,7.61370642 6.79827815,7.64185321 L7.79054305,7.71198165 C9.91716556,7.85319266 11.245351,7.95266055 11.7750993,8.00919266 C13.4568477,8.17878899 14.6760795,8.62627523 15.4325563,9.35141284 C16.0278675,9.91721101 16.3828609,10.6566606 16.496106,11.5697615 C16.5623841,12.116 16.5952848,12.7340367 16.5952848,13.4207706 C16.5952848,15.0036697 16.4443709,16.1629358 16.1420662,16.8976147 C15.5941987,18.2455596 14.3635232,19.0968807 12.4486093,19.4544404 C11.6463576,19.6056697 10.4190199,19.6812844 8.7682649,19.6812844 C6.01271523,19.6812844 4.09231788,19.5171743 3.00802649,19.1872844 C1.67721854,18.783211 0.79986755,17.9645688 0.375258278,16.7318349 C0.138754967,16.045578 0.0216953642,14.9027706 0.0216953642,13.3029358 L4.94201325,13.3029358 C4.94201325,13.4813578 4.94249007,13.6177982 4.94249007,13.7117798 C4.94249007,14.5654862 5.18781457,15.1145872 5.67727152,15.3590826 C6.0165298,15.5277248 6.42611921,15.6162202 6.90770861,15.6267156 L8.7165298,15.6267156 C9.63965563,15.6267156 10.2287682,15.5794862 10.4829139,15.4845505 C10.9351788,15.3066055 11.232,15.0201284 11.3738543,14.6236881 C11.4491921,14.3796697 11.4866225,14.0638532 11.4866225,13.6774312 C11.4866225,12.8117982 11.1707285,12.2851193 10.5401325,12.0962018 C10.3043444,12.0215413 9.20717881,11.9175413 7.24887417,11.785633 C5.67631788,11.6732844 4.58392053,11.5652294 3.97215894,11.4605138 C2.36121854,11.1590092 1.28765563,10.5390642 0.75194702,9.59781651 C0.281086093,8.79801835 0.0455364238,7.58794495 0.0455364238,5.96926606 C0.0455364238,4.73653211 0.172847682,3.74805505 0.427231788,3.00455046 C0.681854305,2.26080734 1.09215894,1.69620183 1.65838411,1.31001835 C2.48781457,0.717266055 3.54921854,0.369247706 4.84116556,0.265247706 C5.91615894,0.171504587 7.10868874,0.123559633 8.42042384,0.123559633 C10.4855364,0.123559633 11.957245,0.242348624 12.834596,0.477779817 C14.9757616,1.0533578 16.0462252,2.66559633 16.0462252,5.31497248 C16.0462252,5.53227523 16.0302517,5.85715596 15.998543,6.29152294" id="Fill-23" fill="#FFFFFF" sketch:type="MSShapeGroup"></path>
                <path d="M42.9246358,10.0438716 L46.2218543,10.0438716 C47.2672848,10.0061835 47.9031258,9.92579817 48.132,9.79985321 C48.4445563,9.62787156 48.6543576,9.28366972 48.7587815,8.76724771 C48.8255364,8.42352294 48.8589139,7.91258716 48.8589139,7.23372477 C48.8589139,6.40220183 48.7926358,5.78583486 48.6593642,5.38319266 C48.4691126,4.81930275 48.0135099,4.47581651 47.2918411,4.35106422 C47.1492715,4.33222018 46.8076291,4.32220183 46.2664371,4.32220183 L42.9246358,4.32220183 L42.9246358,10.0438716 L42.9246358,10.0438716 Z M37.6357351,19.6812844 L37.6357351,0.019559633 L47.4894834,0.019559633 C48.8410331,0.019559633 49.8723974,0.13 50.5809536,0.350642202 C52.2016689,0.858715596 53.2890596,1.89895413 53.8459868,3.47111927 C54.1335099,4.29620183 54.2772715,5.53847706 54.2772715,7.19722936 C54.2772715,9.19159633 54.1177748,10.6249358 53.8023576,11.4974862 C53.1703311,13.2230275 51.8693245,14.2169908 49.9048212,14.4746055 C49.6738013,14.5132477 48.6908344,14.5478349 46.9559205,14.5755046 L46.0778543,14.604844 L42.9246358,14.604844 L42.9246358,19.6812844 L37.6357351,19.6812844 L37.6357351,19.6812844 Z" id="Fill-24" fill="#FFFFFF" sketch:type="MSShapeGroup"></path>
                <path d="M64.5167682,12.4528073 L62.0387285,3.92981651 L59.6338808,12.4528073 L64.5167682,12.4528073 L64.5167682,12.4528073 Z M65.5672053,16.283156 L58.4957086,16.283156 L57.5456424,19.6812844 L52.0736424,19.6812844 L57.9781192,0.019559633 L65.9562914,0.019559633 L71.933245,19.6812844 L66.5761589,19.6812844 L65.5672053,16.283156 L65.5672053,16.283156 Z" id="Fill-25" fill="#FFFFFF" sketch:type="MSShapeGroup"></path>
                <path d="M30.3358411,2.78581651 C32.517298,2.78581651 34.4641589,3.79122936 35.743947,5.36601835 L36.8840265,2.92034862 C35.1009536,1.23416514 32.6741722,0.194642202 29.9975364,0.194642202 C25.8301192,0.194642202 22.2651656,2.71282569 20.8020397,6.27744954 L18.5788609,6.27744954 L17.2661722,9.09308257 L20.1261457,9.09308257 C20.1046887,9.35427523 20.0908609,9.61570642 20.0908609,9.88238532 C20.0908609,10.2051193 20.1075497,10.5240367 20.1394967,10.8391376 L18.7021192,10.8391376 L17.3896689,13.6557248 L20.8702252,13.6557248 C22.3750728,17.1301835 25.8954437,19.5694128 29.9975364,19.5694128 C32.0647947,19.5694128 33.9830464,18.9497064 35.5713377,17.8911009 L35.5713377,14.4393028 C34.2922649,15.8962569 32.421457,16.8169908 30.3358411,16.8169908 C27.8978543,16.8169908 25.753351,15.559211 24.5045563,13.6557248 L31.7930066,13.6557248 L33.105457,10.8391376 L23.4321854,10.8391376 C23.3823576,10.5001835 23.3556556,10.1538349 23.3556556,9.80104587 C23.3556556,9.56251376 23.368053,9.32636697 23.3909404,9.09308257 L33.9189139,9.09308257 L35.2313642,6.27744954 L24.3014305,6.27744954 C25.5101722,4.19029358 27.7595762,2.78581651 30.3358411,2.78581651" id="Fill-26" fill="#F6BC25" sketch:type="MSShapeGroup"></path>
            </g>
        </g>
    </g>
</svg>