<?xml version="1.0" encoding="UTF-8" standalone="no"?>
<svg width="62px" height="18px" viewBox="0 0 62 18" version="1.1" xmlns="http://www.w3.org/2000/svg" xmlns:xlink="http://www.w3.org/1999/xlink" xmlns:sketch="http://www.bohemiancoding.com/sketch/ns">
    <!-- Generator: Sketch 3.3.3 (12081) - http://www.bohemiancoding.com/sketch -->
    <title>Payment/Klarna/Klarna</title>
    <desc>Created with Sketch.</desc>
    <defs></defs>
    <g id="Icons:-Payment" stroke="none" stroke-width="1" fill="none" fill-rule="evenodd" sketch:type="MSPage">
        <g id="Klarna" sketch:type="MSArtboardGroup" transform="translate(-19.000000, -21.000000)" fill="#0074C8">
            <g id="Payment/Klarna/Klarna" sketch:type="MSLayerGroup" transform="translate(19.000000, 21.000000)">
                <path d="M50.20688,9.27391587 C50.23376,11.7502016 50.21712,14.2239159 50.21712,16.6950587 C50.21712,17.2749159 50.14928,17.3404873 49.5592,17.3404873 C48.87696,17.3443444 48.19216,17.3443444 47.50864,17.3404873 C46.97488,17.3404873 46.91472,17.2826302 46.91472,16.7593444 C46.91472,14.3576302 46.9224,11.9572016 46.90704,9.55420159 C46.90704,9.15305873 46.852,8.75063016 46.77904,8.35463016 C46.67536,7.7824873 46.2888,7.45720159 45.73712,7.36591587 C44.73488,7.19877301 43.83376,7.51763016 42.99408,8.03705873 C42.88272,8.1064873 42.8392,8.35720159 42.8392,8.52434444 C42.82768,10.5454873 42.83152,12.5666302 42.83152,14.587773 C42.83152,15.3489159 42.82256,16.1074873 42.83536,16.8660587 C42.84176,17.2144873 42.68944,17.3482016 42.35152,17.3443444 C41.59504,17.3302016 40.83856,17.3404873 40.08208,17.3379159 C39.64432,17.3353444 39.524,17.2119159 39.524,16.7632016 C39.52272,12.940773 39.52272,9.11963016 39.524,5.29720159 C39.524,4.89477301 39.64432,4.76877301 40.04624,4.76620159 C40.72848,4.75977301 41.40944,4.76105873 42.0968,4.76491587 C42.52944,4.7674873 42.60368,4.8484873 42.61392,5.2804873 C42.61648,5.44634444 42.63184,5.60963016 42.64208,5.87320159 C42.86608,5.7304873 42.99664,5.65077301 43.1272,5.56334444 C44.45968,4.65563016 45.93936,4.4344873 47.492,4.71091587 C48.91408,4.96034444 49.68848,5.91563016 49.97648,7.27205873 C50.12112,7.92905873 50.1992,8.60534444 50.20688,9.27391587 L50.20688,9.27391587 Z" id="Path" sketch:type="MSShapeGroup"></path>
                <path d="M29.27632,8.43820159 C29.34928,11.2384873 29.3352,14.0439159 29.35184,16.8480587 C29.35312,17.2222016 29.21744,17.3443444 28.83472,17.3469159 C28.17552,17.3494873 27.5176,17.3482016 26.85968,17.3469159 C26.3016,17.3469159 26.23248,17.2774873 26.20432,16.7246302 C26.20176,16.6642016 26.19024,16.6050587 26.17488,16.4880587 C25.79984,16.6976302 25.48112,16.8982016 25.14576,17.0614873 C23.97456,17.6310587 22.75472,17.683773 21.52336,17.3199159 C20.41488,16.9882016 19.73648,16.2219159 19.46512,15.0969159 C19.26928,14.2843444 19.25264,13.4679159 19.4152,12.6592016 C19.66864,11.4069159 20.5096,10.7113444 21.67952,10.3590587 C22.81232,10.0144873 23.9784,9.97591587 25.14832,9.9874873 C25.98544,9.99777301 25.98672,9.99005873 25.98416,9.13763016 C25.98416,8.91777301 25.99952,8.6914873 25.95984,8.47805873 C25.8344,7.7914873 25.37616,7.36334444 24.62096,7.36334444 C23.35632,7.36334444 22.0904,7.41734444 20.82704,7.48934444 C20.20752,7.52663016 20.1256,7.49577301 20.1256,6.86705873 C20.1256,6.42605873 20.13328,5.98377301 20.12304,5.54534444 C20.11792,5.29977301 20.21392,5.13134444 20.44688,5.0824873 C22.40912,4.66205873 24.3816,4.3714873 26.372,4.86777301 C28.16656,5.31134444 29.22768,6.56491587 29.27632,8.43820159 Z M26.06224,14.1236302 C26.0328,13.831773 26.05584,13.5360587 26.05584,13.2403444 C26.05584,12.8610587 26.06992,12.4804873 26.0456,12.1024873 C26.0392,12.0073444 25.90992,11.8414873 25.84208,11.8440587 C25.0792,11.8710587 24.31248,11.8916302 23.55472,11.9854873 C23.09008,12.0446302 22.7496,12.3853444 22.65616,12.850773 C22.56912,13.2866302 22.54352,13.7469159 22.57936,14.1930587 C22.62032,14.6816302 22.97104,14.9670587 23.44976,15.0493444 C24.21904,15.1830587 24.94352,15.0326302 25.66032,14.7536302 C25.9688,14.6353444 26.10064,14.4630587 26.06224,14.1236302 Z" id="Path" sketch:type="MSShapeGroup"></path>
                <path d="M61.85616,9.13120159 C61.86256,11.6794873 61.86,14.2290587 61.85872,16.7773444 C61.85872,17.2826302 61.796,17.3404873 61.28528,17.3404873 C60.6504,17.3443444 60.01808,17.3443444 59.3832,17.3404873 C58.83792,17.3404873 58.80336,17.3083444 58.7752,16.774773 C58.77264,16.711773 58.76624,16.6513444 58.75344,16.5896302 C58.75088,16.5664873 58.72784,16.5523444 58.69072,16.495773 C58.61136,16.531773 58.5384,16.5549159 58.4808,16.5960587 C57.63088,17.2324873 56.65296,17.4806302 55.61488,17.5616302 C53.56048,17.728773 51.98992,16.3710587 51.89264,14.3036302 C51.86832,13.7944873 51.85552,13.2750587 51.93104,12.7749159 C52.11792,11.5689159 52.85776,10.7679159 53.99824,10.4452016 C54.8584,10.2034873 55.7608,10.1006302 56.6504,9.99520159 C57.16752,9.93220159 57.69872,9.97720159 58.22352,9.98491587 C58.45392,9.99263016 58.56784,9.91291587 58.55504,9.67120159 C58.53584,9.30734444 58.56912,8.93320159 58.50768,8.57320159 C58.37072,7.76963016 57.9176,7.35177301 57.10864,7.35434444 C55.85552,7.36205873 54.6024,7.41863016 53.348,7.48934444 C52.71824,7.52277301 52.62864,7.47263016 52.62864,6.82205873 C52.62864,6.41834444 52.62992,6.01334444 52.62864,5.60963016 C52.62736,5.29591587 52.76176,5.12105873 53.08176,5.0464873 C54.53968,4.71605873 56.01168,4.53734444 57.5016,4.63120159 C58.12496,4.67105873 58.75856,4.80863016 59.35248,5.00791587 C60.76944,5.48234444 61.55152,6.52891587 61.77936,7.99463016 C61.83696,8.37263016 61.85488,8.7544873 61.85616,9.13120159 Z M58.63184,14.2406302 C58.61648,13.9076302 58.62928,13.5784873 58.62672,13.2493444 C58.62672,12.8970587 58.62032,12.5396302 58.63184,12.184773 C58.63696,11.9430587 58.55376,11.8209159 58.29392,11.8324873 C57.83184,11.842773 57.36464,11.8054873 56.90512,11.8414873 C55.36528,11.9584873 55.08624,12.5332016 55.06704,13.804773 C55.0568,14.5530587 55.40368,14.956773 55.99632,15.0583444 C56.81936,15.1933444 57.58864,15.0223444 58.33744,14.6893444 C58.54096,14.5980587 58.6408,14.4746302 58.63184,14.2406302 Z" id="Path" sketch:type="MSShapeGroup"></path>
                <path d="M17.03696,0.426915871 L14.91472,0.426915871 C14.38352,0.428201585 14.3336,0.480915871 14.3336,1.02091587 L14.3336,8.84834444 L14.3336,16.8236302 C14.3336,17.2646302 14.40912,17.3379159 14.84176,17.3404873 C15.53552,17.3443444 16.23056,17.3404873 16.92688,17.3404873 C17.58096,17.3404873 17.64112,17.2826302 17.64112,16.6346302 L17.64112,3.22077301 C17.64112,2.48534444 17.6424,1.75120159 17.64112,1.01577301 C17.63984,0.515630157 17.54768,0.428201585 17.03696,0.426915871 L17.03696,0.426915871 Z" id="Path" sketch:type="MSShapeGroup"></path>
                <path d="M37.67696,4.61577301 C36.72464,4.65691587 35.86448,4.95777301 35.09392,5.51705873 C34.98896,5.59420159 34.884,5.66491587 34.72656,5.77805873 C34.71376,5.60191587 34.69968,5.49777301 34.69968,5.39234444 C34.68944,4.86520159 34.59728,4.7674873 34.084,4.7674873 C33.42224,4.76491587 32.76688,4.76620159 32.10768,4.76620159 C31.5048,4.7674873 31.40496,4.86520159 31.40496,5.46820159 L31.40496,10.5390587 C31.40496,12.5884873 31.40368,14.6340587 31.40496,16.6770587 C31.40496,17.2196302 31.524,17.3404873 32.03728,17.3404873 C32.73104,17.3443444 33.42864,17.3443444 34.12368,17.3404873 C34.68432,17.3404873 34.77392,17.2556302 34.77392,16.6744873 C34.7752,13.957773 34.77776,11.2372016 34.7688,8.51405873 C34.7688,8.24534444 34.84688,8.09234444 35.09264,7.97534444 C35.90672,7.59091587 36.74128,7.30291587 37.65648,7.34020159 C37.99184,7.35434444 38.1544,7.22705873 38.14672,6.87091587 C38.13264,6.26920159 38.1352,5.67134444 38.14544,5.07091587 C38.14672,4.74305873 38.0008,4.60291587 37.67696,4.61577301 L37.67696,4.61577301 Z" id="Path" sketch:type="MSShapeGroup"></path>
                <path d="M3.1336,0.428201585 C2.4872,0.424344442 1.8408,0.421773014 1.19312,0.429487299 C0.51472,0.439773014 0.13968,0.828058728 0.13968,1.51205873 L0.13968,9.08491587 L0.13968,16.7683444 C0.13968,17.2170587 0.19984,17.2774873 0.64784,17.2774873 C1.30576,17.2826302 1.96496,17.2826302 2.62288,17.2774873 C3.31408,17.2723444 3.66096,16.9264873 3.66096,16.2360587 L3.66096,0.979773014 C3.66224,0.533630157 3.5688,0.432058728 3.1336,0.428201585 L3.1336,0.428201585 Z" id="Path" sketch:type="MSShapeGroup"></path>
                <path d="M10.404,11.9610587 C8.99088,10.4773444 7.25264,9.66091587 5.35696,9.47191587 C4.74512,9.46034444 4.74,9.46034444 4.75664,9.9244873 C4.76304,10.0954873 4.79632,10.2639159 4.82192,10.4336302 C5.16112,12.6900587 6.25936,14.4874873 8.0872,15.8310587 C9.28528,16.7156302 10.6408,17.1746302 12.11664,17.3134873 C12.55568,17.3559159 12.62992,17.3250587 12.5864,16.8930587 C12.39824,15.010773 11.716,13.3406302 10.404,11.9610587 L10.404,11.9610587 Z" id="Path" sketch:type="MSShapeGroup"></path>
                <path d="M12.12688,0.469344442 C11.9592,0.496344442 11.78512,0.486058728 11.61872,0.511773014 C9.69616,0.819058728 8.06416,1.67405873 6.76624,3.1384873 C5.57712,4.47820159 4.91664,6.05834444 4.76048,7.84291587 C4.7208,8.30834444 4.7464,8.30963016 5.23408,8.37263016 C5.90352,8.20677301 6.59984,8.10520159 7.23984,7.86091587 C10.436,6.64205873 12.18448,4.27634444 12.58768,0.882058728 C12.63888,0.451344442 12.5672,0.402487299 12.12688,0.469344442 L12.12688,0.469344442 Z" id="Path" sketch:type="MSShapeGroup"></path>
            </g>
        </g>
    </g>
</svg>