<?xml version="1.0" encoding="UTF-8" standalone="no"?>
<svg width="70px" height="20px" viewBox="0 0 70 20" version="1.1" xmlns="http://www.w3.org/2000/svg" xmlns:xlink="http://www.w3.org/1999/xlink" xmlns:sketch="http://www.bohemiancoding.com/sketch/ns">
    <!-- Generator: Sketch 3.3.3 (12081) - http://www.bohemiancoding.com/sketch -->
    <title>Payment/Payza/Payza-flat</title>
    <desc>Created with Sketch.</desc>
    <defs></defs>
    <g id="Icons:-Payment" stroke="none" stroke-width="1" fill="none" fill-rule="evenodd" sketch:type="MSPage">
        <g id="Payza-flat" sketch:type="MSArtboardGroup" transform="translate(-15.000000, -20.000000)" fill="#9B9B9B">
            <g id="Payment/Payza/Payza-flat" sketch:type="MSLayerGroup" transform="translate(15.000000, 20.000000)">
                <path d="M7.07306528,3.51897436 C6.03273378,3.71384615 5.05814815,4.43307692 4.7719603,5.47666667 C4.53733784,6.36769231 4.58890321,7.35487179 4.95501739,8.20230769 C5.3520708,9.09076923 6.34728259,9.50487179 7.26901371,9.58692308 C8.89847964,9.74333333 10.6362329,9.45102564 11.998848,8.5074359 C12.7581481,7.98307692 13.3756435,7.09205128 13.2196583,6.13307692 C13.0701187,5.06641026 12.1548332,4.29461538 11.2008737,3.90615385 C9.90271537,3.38435897 8.44470432,3.27538462 7.07306528,3.51897436 L7.07306528,3.51897436 Z M4.55151831,0.725384615 C6.77914262,-0.0938461538 9.2749069,-0.186153846 11.5631205,0.443333333 C13.3459935,0.952307692 15.0515183,1.96512821 16.1008737,3.51897436 C16.9233415,4.71897436 17.2224207,6.27538462 16.8137651,7.67794872 C16.3857725,9.21769231 15.2294189,10.4638462 13.8822734,11.2830769 C11.5824575,12.6715385 8.72702476,13.0035897 6.12297319,12.4202564 C5.92186822,12.3830769 5.71947411,12.3535897 5.51579087,12.334359 C5.45391242,13.5471795 6.11008185,14.7408974 7.14654594,15.3728205 C7.63770616,15.7215385 8.26035809,15.7958974 8.75925312,16.129359 C8.20750358,16.285641 7.63254962,16.1894872 7.07822181,16.1048718 C5.14838756,15.7625641 3.41450174,14.6178205 2.22205238,13.0869231 C0.424998977,10.8125641 -0.231170452,7.72153846 0.397927154,4.90615385 C0.965146307,2.92666667 2.64746675,1.42410256 4.55151831,0.725384615 L4.55151831,0.725384615 Z" id="Fill-1" sketch:type="MSShapeGroup"></path>
                <path d="M26.5518866,5.58692308 C26.5518866,6.94846154 26.5493084,8.31128205 26.5544649,9.67410256 C27.1152384,9.7074359 27.7430469,9.74589744 28.2174483,9.38948718 C28.75115,8.99846154 28.8813526,8.29205128 28.8916656,7.67410256 C28.8981113,7.03692308 28.8310763,6.30230769 28.3154225,5.85615385 C27.8242623,5.45487179 27.1423102,5.48692308 26.5518866,5.58692308 L26.5518866,5.58692308 Z M23.0235257,4.23564103 C24.5640413,3.62410256 26.24894,3.43307692 27.897743,3.52923077 C28.9110027,3.60358974 29.9474667,3.84205128 30.7892715,4.43179487 C32.8634888,5.85102564 32.8428627,9.37410256 30.7699345,10.785641 C29.5491242,11.6241026 27.9970063,11.7933333 26.5505975,11.7062821 C26.5531758,13.1779487 26.5505975,14.6498718 26.5518866,16.1215385 L23.0222365,16.1215385 C23.0222365,12.1587179 23.0222365,8.19717949 23.0235257,4.23564103 L23.0235257,4.23564103 Z" id="Fill-3" sketch:type="MSShapeGroup"></path>
                <path d="M42.5616472,6.41 C43.8095294,6.40871795 45.0574115,6.40871795 46.3052936,6.41 C46.7100818,8.69846154 47.3017946,10.9588462 47.5480192,13.2728205 C47.6563065,12.1126923 47.9721445,10.9894872 48.2261039,9.85615385 C48.4942439,8.7074359 48.7585165,7.5574359 49.0253673,6.40871795 C50.1456251,6.41 51.265883,6.4074359 52.3861408,6.41 C50.8701187,10.9407692 49.3437835,15.4676923 47.8264723,19.9984615 C46.6198424,20.0010256 45.4132126,19.9997436 44.2078719,19.9984615 C44.7531758,18.7048718 45.2971905,17.4114103 45.8463618,16.1191026 C44.7570432,12.8805128 43.6548332,9.64717949 42.5616472,6.41" id="Fill-4" sketch:type="MSShapeGroup"></path>
                <path d="M53.2202108,6.40871795 C55.5226049,6.4125641 57.8237098,6.40102564 60.1261039,6.41512821 C59.2211316,8.75871795 58.3419419,11.1112821 57.4459935,13.4588462 C57.384115,13.6074359 57.3286822,13.7587179 57.2745386,13.9112821 C58.2336546,13.9061538 59.1914815,13.91 60.1505975,13.9087179 C60.1505975,14.6458974 60.1493084,15.3830769 60.1505975,16.1215385 L52.905662,16.1215385 C53.8866933,13.6215385 54.8651463,11.1215385 55.8448885,8.62153846 C54.9695662,8.62025641 54.095533,8.62153846 53.2214999,8.62153846 C53.2202108,7.88435897 53.2202108,7.14589744 53.2202108,6.40871795" id="Fill-6" sketch:type="MSShapeGroup"></path>
                <path d="M36.4163434,12.3010256 C36.1701187,12.8689744 36.1842992,13.6394872 36.6561224,14.0907692 C37.1614631,14.5176923 37.8820892,14.4702564 38.4918498,14.3420513 C38.4931389,13.3317949 38.4918498,12.3202564 38.4918498,11.3087179 C37.736417,11.4189744 36.8121076,11.5574359 36.4163434,12.3010256 L36.4163434,12.3010256 Z M33.5944281,6.94974359 C35.1839308,6.36769231 36.9049253,6.04205128 38.598848,6.24846154 C39.538627,6.3625641 40.5093452,6.73820513 41.0804318,7.52410256 C41.6038203,8.22923077 41.7494925,9.13051282 41.7482034,9.98820513 C41.7469143,11.8625641 41.7482034,13.7382051 41.7469143,15.6125641 C40.4010579,16.2061538 38.9069511,16.3434615 37.4515183,16.3394872 C36.3222365,16.3125641 35.1246307,16.185641 34.1668038,15.5369231 C32.6842992,14.5433333 32.6224207,12.0446154 34.0907448,11.0074359 C35.3656988,10.0958974 36.9874299,9.91641026 38.5047411,9.74846154 C38.5524391,9.22794872 38.4106343,8.58692308 37.8202108,8.45102564 C36.643231,8.16384615 35.415975,8.52410256 34.3189216,8.95487179 C34.0791426,8.28564103 33.823894,7.62282051 33.5944281,6.94974359 L33.5944281,6.94974359 Z" id="Fill-7" sketch:type="MSShapeGroup"></path>
                <path d="M64.7347596,12.1279487 C64.3673563,12.684359 64.3634888,13.5189744 64.8108185,14.034359 C65.3071353,14.5202564 66.0728811,14.4741026 66.704557,14.3446154 C66.7110027,13.3317949 66.7097135,12.3202564 66.704557,11.3074359 C66.0058461,11.4178205 65.1911132,11.5228205 64.7347596,12.1279487 L64.7347596,12.1279487 Z M61.804557,6.95230769 C63.4030837,6.3625641 65.1382586,6.03948718 66.8412052,6.25230769 C67.778406,6.36897436 68.7439677,6.75358974 69.3073194,7.54076923 C69.8203949,8.24333333 69.9583323,9.13564103 69.9634888,9.98435897 C69.964778,11.86 69.9634888,13.735641 69.9634888,15.6114103 C68.5815367,16.2189744 67.0448885,16.3537179 65.5494925,16.3369231 C64.4653305,16.3023077 63.31929,16.1665385 62.3975588,15.5497436 C60.8892715,14.5574359 60.8312605,12.0202564 62.3292347,10.9894872 C63.6028995,10.0946154 65.2117393,9.91128205 66.7226049,9.74974359 C66.7612789,9.23948718 66.6323655,8.59974359 66.052255,8.4574359 C64.8701187,8.15615385 63.6351279,8.52538462 62.5316288,8.95487179 C62.2905607,8.28692308 62.0391795,7.62282051 61.804557,6.95230769 L61.804557,6.95230769 Z" id="Fill-8" sketch:type="MSShapeGroup"></path>
            </g>
        </g>
    </g>
</svg>