<?xml version="1.0" encoding="UTF-8" standalone="no"?>
<svg width="40px" height="42px" viewBox="0 0 40 42" version="1.1" xmlns="http://www.w3.org/2000/svg" xmlns:xlink="http://www.w3.org/1999/xlink" xmlns:sketch="http://www.bohemiancoding.com/sketch/ns">
    <!-- Generator: Sketch 3.3.3 (12081) - http://www.bohemiancoding.com/sketch -->
    <title>Payment/Coinkite/Coinkite-flat</title>
    <desc>Created with Sketch.</desc>
    <defs></defs>
    <g id="Icons:-Payment" stroke="none" stroke-width="1" fill="none" fill-rule="evenodd" sketch:type="MSPage">
        <g id="Coinkite-flat" sketch:type="MSArtboardGroup" transform="translate(-30.000000, -9.000000)" fill="#9B9B9B">
            <g id="Payment/Coinkite/Coinkite-flat" sketch:type="MSLayerGroup" transform="translate(30.000000, 9.000000)">
                <path d="M0.799026394,37.6454125 C0.799026394,35.4886931 2.40318046,34.0333194 4.48328594,34.0333194 C5.99405345,34.0333194 6.87380715,34.8606309 7.36023181,35.7400356 L6.09791326,36.3683921 C5.80815311,35.8030184 5.18703071,35.3530152 4.48357686,35.3530152 C3.22096738,35.3530152 2.31008483,36.3268941 2.31008483,37.6457068 C2.31008483,38.9648139 3.22096738,39.9383985 4.48357686,39.9383985 C5.18732163,39.9383985 5.80815311,39.4883952 6.09791326,38.9230216 L7.36023181,39.5410771 C6.87380715,40.4098866 5.99405345,41.2580942 4.48328594,41.2580942 C2.40318046,41.2575056 0.799026394,39.7915368 0.799026394,37.6454125 L0.799026394,37.6454125 Z" id="Shape" sketch:type="MSShapeGroup"></path>
                <path d="M7.88767674,38.598101 C7.88767674,37.1639178 8.88089074,35.9492916 10.5266469,35.9492916 C12.1825854,35.9492916 13.1760904,37.1636235 13.1760904,38.598101 C13.1760904,40.0325784 12.1828764,41.2577999 10.5266469,41.2577999 C8.88118166,41.2575056 7.88767674,40.0325784 7.88767674,38.598101 L7.88767674,38.598101 Z M11.809912,38.598101 C11.809912,37.8131704 11.3546162,37.1324264 10.5266469,37.1324264 C9.70885999,37.1324264 9.25385511,37.8128761 9.25385511,38.598101 C9.25385511,39.393921 9.70915092,40.0743707 10.5266469,40.0743707 C11.3543252,40.0743707 11.809912,39.393921 11.809912,38.598101 L11.809912,38.598101 Z" id="Shape" sketch:type="MSShapeGroup"></path>
                <path d="M14.0340248,34.7349596 C14.0340248,34.2952573 14.3860426,33.9497348 14.8105005,33.9497348 C15.2451407,33.9497348 15.5968676,34.2952573 15.5968676,34.7349596 C15.5968676,35.174662 15.2451407,35.5304854 14.8105005,35.5304854 C14.3860426,35.5304854 14.0340248,35.174662 14.0340248,34.7349596 L14.0340248,34.7349596 Z M14.1582492,41.1318343 L14.1582492,36.0749629 L15.4723522,36.0749629 L15.4723522,41.1318343 L14.1582492,41.1318343 L14.1582492,41.1318343 Z" id="Shape" sketch:type="MSShapeGroup"></path>
                <path d="M20.1501167,41.1318343 L20.1501167,38.074814 C20.1501167,37.3734681 19.7879165,37.1327207 19.2290518,37.1327207 C18.7117892,37.1327207 18.3181693,37.4258557 18.0906668,37.7189906 L18.0906668,41.1321286 L16.7762729,41.1321286 L16.7762729,36.0749629 L18.0906668,36.0749629 L18.0906668,36.7239212 C18.4118467,36.3469073 19.0323873,35.9489973 19.8399919,35.9489973 C20.9469571,35.9489973 21.474693,36.5770594 21.474693,37.5615336 L21.474693,41.13154 L20.1501167,41.1318343 L20.1501167,41.1318343 Z" id="Shape" sketch:type="MSShapeGroup"></path>
                <path d="M26.0069955,41.1318343 L24.6821283,39.1843708 L24.0819524,39.8336234 L24.0819524,41.1321286 L22.7678494,41.1321286 L22.7678494,34.1483955 L24.0819524,34.1483955 L24.0819524,38.3255679 L25.9761576,36.0746686 L27.5902031,36.0746686 L25.6133755,38.3673602 L27.6521698,41.1312457 L26.0069955,41.1318343 L26.0069955,41.1318343 Z" id="Shape" sketch:type="MSShapeGroup"></path>
                <path d="M28.1897971,34.7349596 C28.1897971,34.2952573 28.5418149,33.9497348 28.9659819,33.9497348 C29.4006221,33.9497348 29.75264,34.2952573 29.75264,34.7349596 C29.75264,35.174662 29.400913,35.5304854 28.9659819,35.5304854 C28.5418149,35.5304854 28.1897971,35.174662 28.1897971,34.7349596 L28.1897971,34.7349596 Z M28.3143125,41.1318343 L28.3143125,36.0749629 L29.6287064,36.0749629 L29.6287064,41.1318343 L28.3143125,41.1318343 L28.3143125,41.1318343 Z" id="Shape" sketch:type="MSShapeGroup"></path>
                <path d="M31.2008589,39.8651148 L31.2008589,37.2374959 L30.3731805,37.2374959 L30.3731805,36.0749629 L31.2008589,36.0749629 L31.2008589,34.6925787 L32.5155437,34.6925787 L32.5155437,36.0749629 L33.5294133,36.0749629 L33.5294133,37.2374959 L32.5155437,37.2374959 L32.5155437,39.5089971 C32.5155437,39.8336234 32.6813703,40.0743707 32.9708395,40.0743707 C33.167504,40.0743707 33.3539862,40.001087 33.4264263,39.9175024 L33.7057131,40.9328793 C33.5090486,41.1109381 33.1573217,41.2575056 32.6089303,41.2575056 C31.6872835,41.2575056 31.2008589,40.7760109 31.2008589,39.8651148 L31.2008589,39.8651148 Z" id="Shape" sketch:type="MSShapeGroup"></path>
                <path d="M34.1089336,38.598101 C34.1089336,37.1324264 35.1850609,35.9492916 36.6961193,35.9492916 C38.1967045,35.9492916 39.2009736,37.0800389 39.2009736,38.7237723 L39.2009736,39.0380976 L35.4852943,39.0380976 C35.5786808,39.6555645 36.0752878,40.1688449 36.9239127,40.1688449 C37.3483706,40.1688449 37.9278909,39.9907861 38.2484889,39.676755 L38.8384825,40.5561597 C38.3415846,41.0170526 37.5549265,41.2575056 36.7790326,41.2575056 C35.2575009,41.2575056 34.1089336,40.2209382 34.1089336,38.598101 L34.1089336,38.598101 Z M36.6961193,37.0382465 C35.8783324,37.0382465 35.5266055,37.6142154 35.475112,38.1166063 L37.9380732,38.1166063 C37.896762,37.6351116 37.5656907,37.0382465 36.6961193,37.0382465 L36.6961193,37.0382465 Z" id="Shape" sketch:type="MSShapeGroup"></path>
                <path d="M37.0456643,30.8029022 L3.33595503,30.8029022 C2.15749528,30.8029022 1.19864666,29.8340619 1.19864666,28.643322 L1.19864666,2.85204152 C1.19864666,1.6625142 2.15749528,0.69246134 3.33595503,0.69246134 L37.0456643,0.69246134 C38.2253241,0.69246134 39.1841728,1.6625142 39.1841728,2.85204152 L39.1841728,28.6421094 C39.1853728,29.8340619 38.2265242,30.8029022 37.0456643,30.8029022 L37.0456643,30.8029022 Z M3.44876075,28.5293408 L36.9340587,28.5293408 L36.9340587,2.96602273 L3.44876075,2.96602273 L3.44876075,28.5293408 L3.44876075,28.5293408 Z" id="Shape" sketch:type="MSShapeGroup"></path>
                <path d="M24.2374149,20.1492966 L24.2374149,23.6426995 C24.2374149,24.2902098 23.6157833,24.8152509 22.8525446,24.8152509 L22.6125325,24.8152509 L22.6125325,26.9117776 L35.1147664,26.9117776 L35.1147664,20.148084 L24.2374149,20.148084 L24.2374149,20.1492966 Z" id="Shape" sketch:type="MSShapeGroup"></path>
                <rect id="Rectangle-path" sketch:type="MSShapeGroup" x="24.2374149" y="12.5901597" width="10.8785516" height="6.25926609"></rect>
                <path d="M22.6137325,4.59207384 L22.6137325,6.67890006 L22.8537447,6.67890006 C23.6157833,6.67890006 24.2386149,7.20515374 24.2386149,7.85145146 L24.2386149,11.3545549 L35.1171665,11.3545549 L35.1171665,4.59207384 L22.6137325,4.59207384 L22.6137325,4.59207384 Z" id="Shape" sketch:type="MSShapeGroup"></path>
                <path d="M17.5302748,24.8164634 C16.765836,24.8164634 16.1454045,24.2914223 16.1454045,23.643912 L16.1454045,20.1505092 L5.20564984,20.1505092 L5.20564984,26.9142027 L17.7102839,26.9142027 L17.7102839,24.817676 L17.5302748,24.8164634 L17.5302748,24.8164634 Z" id="Shape" sketch:type="MSShapeGroup"></path>
                <rect id="Rectangle-path" sketch:type="MSShapeGroup" x="5.20564984" y="12.5901597" width="10.9397547" height="6.25926609"></rect>
                <path d="M16.1454045,7.85266402 C16.1454045,7.2063663 16.765836,6.68011263 17.5302748,6.68011263 L17.7102839,6.68011263 L17.7102839,4.59207384 L5.20564984,4.59207384 L5.20564984,11.3557674 L16.1454045,11.3557674 L16.1454045,7.85266402 L16.1454045,7.85266402 Z" id="Shape" sketch:type="MSShapeGroup"></path>
                <path d="M22.9869515,22.8290676 C22.9869515,23.2037506 22.6869362,23.5068921 22.3161174,23.5068921 L18.066702,23.5068921 C17.6958832,23.5068921 17.395868,23.2037506 17.395868,22.8290676 L17.395868,8.74268752 C17.395868,8.3680046 17.6958832,8.06486309 18.066702,8.06486309 L22.3161174,8.06486309 C22.6869362,8.06486309 22.9869515,8.3680046 22.9869515,8.74268752 L22.9869515,22.8290676 L22.9869515,22.8290676 Z" id="Shape" sketch:type="MSShapeGroup"></path>
            </g>
        </g>
    </g>
</svg>