<?xml version="1.0" encoding="UTF-8" standalone="no"?>
<svg width="100px" height="60px" viewBox="0 0 100 60" version="1.1" xmlns="http://www.w3.org/2000/svg" xmlns:xlink="http://www.w3.org/1999/xlink" xmlns:sketch="http://www.bohemiancoding.com/sketch/ns">
    <!-- Generator: Sketch 3.3.3 (12081) - http://www.bohemiancoding.com/sketch -->
    <title>Payment/Coinkite/Coinkite-card-flat</title>
    <desc>Created with Sketch.</desc>
    <defs></defs>
    <g id="Icons:-Payment" stroke="none" stroke-width="1" fill="none" fill-rule="evenodd" sketch:type="MSPage">
        <g id="Coinkite-card-flat" sketch:type="MSArtboardGroup" fill="#9B9B9B">
            <g id="Payment/Coinkite/Coinkite-card-flat" sketch:type="MSLayerGroup">
                <path d="M0,4.0065556 C0,1.79379604 1.79952991,0 3.99732351,0 L96.0026765,0 C98.2103373,0 100,1.79568082 100,4.0065556 L100,55.9934444 C100,58.206204 98.2004701,60 96.0026765,60 L3.99732351,60 C1.78966269,60 0,58.2043192 0,55.9934444 L0,4.0065556 Z M30.7990264,46.6454125 C30.7990264,44.4886931 32.4031805,43.0333194 34.4832859,43.0333194 C35.9940534,43.0333194 36.8738071,43.8606309 37.3602318,44.7400356 L36.0979133,45.3683921 C35.8081531,44.8030184 35.1870307,44.3530152 34.4835769,44.3530152 C33.2209674,44.3530152 32.3100848,45.3268941 32.3100848,46.6457068 C32.3100848,47.9648139 33.2209674,48.9383985 34.4835769,48.9383985 C35.1873216,48.9383985 35.8081531,48.4883952 36.0979133,47.9230216 L37.3602318,48.5410771 C36.8738071,49.4098866 35.9940534,50.2580942 34.4832859,50.2580942 C32.4031805,50.2575056 30.7990264,48.7915368 30.7990264,46.6454125 Z M37.8876767,47.598101 C37.8876767,46.1639178 38.8808907,44.9492916 40.5266469,44.9492916 C42.1825854,44.9492916 43.1760904,46.1636235 43.1760904,47.598101 C43.1760904,49.0325784 42.1828764,50.2577999 40.5266469,50.2577999 C38.8811817,50.2575056 37.8876767,49.0325784 37.8876767,47.598101 Z M41.809912,47.598101 C41.809912,46.8131704 41.3546162,46.1324264 40.5266469,46.1324264 C39.70886,46.1324264 39.2538551,46.8128761 39.2538551,47.598101 C39.2538551,48.393921 39.7091509,49.0743707 40.5266469,49.0743707 C41.3543252,49.0743707 41.809912,48.393921 41.809912,47.598101 Z M44.0340248,43.7349596 C44.0340248,43.2952573 44.3860426,42.9497348 44.8105005,42.9497348 C45.2451407,42.9497348 45.5968676,43.2952573 45.5968676,43.7349596 C45.5968676,44.174662 45.2451407,44.5304854 44.8105005,44.5304854 C44.3860426,44.5304854 44.0340248,44.174662 44.0340248,43.7349596 Z M44.1582492,50.1318343 L44.1582492,45.0749629 L45.4723522,45.0749629 L45.4723522,50.1318343 L44.1582492,50.1318343 Z M50.1501167,50.1318343 L50.1501167,47.074814 C50.1501167,46.3734681 49.7879165,46.1327207 49.2290518,46.1327207 C48.7117892,46.1327207 48.3181693,46.4258557 48.0906668,46.7189906 L48.0906668,50.1321286 L46.7762729,50.1321286 L46.7762729,45.0749629 L48.0906668,45.0749629 L48.0906668,45.7239212 C48.4118467,45.3469073 49.0323873,44.9489973 49.8399919,44.9489973 C50.9469571,44.9489973 51.474693,45.5770594 51.474693,46.5615336 L51.474693,50.13154 L50.1501167,50.1318343 Z M56.0069955,50.1318343 L54.6821283,48.1843708 L54.0819524,48.8336234 L54.0819524,50.1321286 L52.7678494,50.1321286 L52.7678494,43.1483955 L54.0819524,43.1483955 L54.0819524,47.3255679 L55.9761576,45.0746686 L57.5902031,45.0746686 L55.6133755,47.3673602 L57.6521698,50.1312457 L56.0069955,50.1318343 Z M58.1897971,43.7349596 C58.1897971,43.2952573 58.5418149,42.9497348 58.9659819,42.9497348 C59.4006221,42.9497348 59.75264,43.2952573 59.75264,43.7349596 C59.75264,44.174662 59.400913,44.5304854 58.9659819,44.5304854 C58.5418149,44.5304854 58.1897971,44.174662 58.1897971,43.7349596 Z M58.3143125,50.1318343 L58.3143125,45.0749629 L59.6287064,45.0749629 L59.6287064,50.1318343 L58.3143125,50.1318343 Z M61.2008589,48.8651148 L61.2008589,46.2374959 L60.3731805,46.2374959 L60.3731805,45.0749629 L61.2008589,45.0749629 L61.2008589,43.6925787 L62.5155437,43.6925787 L62.5155437,45.0749629 L63.5294133,45.0749629 L63.5294133,46.2374959 L62.5155437,46.2374959 L62.5155437,48.5089971 C62.5155437,48.8336234 62.6813703,49.0743707 62.9708395,49.0743707 C63.167504,49.0743707 63.3539862,49.001087 63.4264263,48.9175024 L63.7057131,49.9328793 C63.5090486,50.1109381 63.1573217,50.2575056 62.6089303,50.2575056 C61.6872835,50.2575056 61.2008589,49.7760109 61.2008589,48.8651148 Z M64.1089336,47.598101 C64.1089336,46.1324264 65.1850609,44.9492916 66.6961193,44.9492916 C68.1967045,44.9492916 69.2009736,46.0800389 69.2009736,47.7237723 L69.2009736,48.0380976 L65.4852943,48.0380976 C65.5786808,48.6555645 66.0752878,49.1688449 66.9239127,49.1688449 C67.3483706,49.1688449 67.9278909,48.9907861 68.2484889,48.676755 L68.8384825,49.5561597 C68.3415846,50.0170526 67.5549265,50.2575056 66.7790326,50.2575056 C65.2575009,50.2575056 64.1089336,49.2209382 64.1089336,47.598101 Z M66.6961193,46.0382465 C65.8783324,46.0382465 65.5266055,46.6142154 65.475112,47.1166063 L67.9380732,47.1166063 C67.896762,46.6351116 67.5656907,46.0382465 66.6961193,46.0382465 Z M67.0456643,39.8029022 L33.335955,39.8029022 C32.1574953,39.8029022 31.1986467,38.8340619 31.1986467,37.643322 L31.1986467,11.8520415 C31.1986467,10.6625142 32.1574953,9.69246134 33.335955,9.69246134 L67.0456643,9.69246134 C68.2253241,9.69246134 69.1841728,10.6625142 69.1841728,11.8520415 L69.1841728,37.6421094 C69.1853728,38.8340619 68.2265242,39.8029022 67.0456643,39.8029022 Z M33.4487608,37.5293408 L66.9340587,37.5293408 L66.9340587,11.9660227 L33.4487608,11.9660227 L33.4487608,37.5293408 Z M54.2374149,29.1492966 L54.2374149,32.6426995 C54.2374149,33.2902098 53.6157833,33.8152509 52.8525446,33.8152509 L52.6125325,33.8152509 L52.6125325,35.9117776 L65.1147664,35.9117776 L65.1147664,29.148084 L54.2374149,29.148084 L54.2374149,29.1492966 Z M54.2374149,21.5901597 L65.1159665,21.5901597 L65.1159665,27.8494258 L54.2374149,27.8494258 L54.2374149,21.5901597 Z M52.6137325,13.5920738 L52.6137325,15.6789001 L52.8537447,15.6789001 C53.6157833,15.6789001 54.2386149,16.2051537 54.2386149,16.8514515 L54.2386149,20.3545549 L65.1171665,20.3545549 L65.1171665,13.5920738 L52.6137325,13.5920738 Z M47.5302748,33.8164634 C46.765836,33.8164634 46.1454045,33.2914223 46.1454045,32.643912 L46.1454045,29.1505092 L35.2056498,29.1505092 L35.2056498,35.9142027 L47.7102839,35.9142027 L47.7102839,33.817676 L47.5302748,33.8164634 Z M35.2056498,21.5901597 L46.1454045,21.5901597 L46.1454045,27.8494258 L35.2056498,27.8494258 L35.2056498,21.5901597 Z M46.1454045,16.852664 C46.1454045,16.2063663 46.765836,15.6801126 47.5302748,15.6801126 L47.7102839,15.6801126 L47.7102839,13.5920738 L35.2056498,13.5920738 L35.2056498,20.3557674 L46.1454045,20.3557674 L46.1454045,16.852664 Z M52.9869515,31.8290676 C52.9869515,32.2037506 52.6869362,32.5068921 52.3161174,32.5068921 L48.066702,32.5068921 C47.6958832,32.5068921 47.395868,32.2037506 47.395868,31.8290676 L47.395868,17.7426875 C47.395868,17.3680046 47.6958832,17.0648631 48.066702,17.0648631 L52.3161174,17.0648631 C52.6869362,17.0648631 52.9869515,17.3680046 52.9869515,17.7426875 L52.9869515,31.8290676 Z" id="Rectangle" sketch:type="MSShapeGroup"></path>
            </g>
        </g>
    </g>
</svg>