<?xml version="1.0" encoding="UTF-8" standalone="no"?>
<svg width="82px" height="14px" viewBox="0 0 82 14" version="1.1" xmlns="http://www.w3.org/2000/svg" xmlns:xlink="http://www.w3.org/1999/xlink" xmlns:sketch="http://www.bohemiancoding.com/sketch/ns">
    <!-- Generator: Sketch 3.3.3 (12081) - http://www.bohemiancoding.com/sketch -->
    <title>Payment/PaysafeCard/PaysafeCard</title>
    <desc>Created with Sketch.</desc>
    <defs></defs>
    <g id="Icons:-Payment" stroke="none" stroke-width="1" fill="none" fill-rule="evenodd" sketch:type="MSPage">
        <g id="PaysafeCard" sketch:type="MSArtboardGroup" transform="translate(-9.000000, -23.000000)">
            <g id="Payment/PaysafeCard/PaysafeCard" sketch:type="MSLayerGroup" transform="translate(9.000000, 23.000000)">
                <path d="M15.1690596,6.28052228 C15.1602204,6.00453733 15.0282954,5.86197052 14.7715169,5.85271294 L13.4025468,5.85271294 C13.0779274,5.87209941 12.9110877,6.04744896 12.9028009,6.37691007 L12.9028009,8.80512016 C12.9110877,9.14547255 13.0958268,9.31886167 13.4562449,9.32877273 L14.7106369,9.32877273 C14.841236,9.32877273 14.9496266,9.28096003 15.0361402,9.18359202 C15.1263,9.11062046 15.1690596,9.01651984 15.1690596,8.90009209 L15.1690596,6.28052228 L15.1690596,6.28052228 Z M11.1446854,5.93581338 C11.153635,5.32840689 11.2908635,4.86661677 11.5572547,4.55087866 C11.696472,4.41887639 11.8713775,4.30811211 12.0835182,4.21662539 C12.3038351,4.11925738 12.5175226,4.07220706 12.7249121,4.07220706 L15.2384473,4.07220706 C16.3471031,4.08157356 16.9107121,4.6791779 16.928722,5.86665377 L16.928722,9.52122159 C16.9202143,9.94271399 16.753043,10.308552 16.4288656,10.6145968 C16.1086658,10.9358895 15.7255973,11.0996943 15.279881,11.1094964 L12.9028009,11.1094964 L12.9028009,13.744314 L11.1446854,13.744314 L11.1446854,5.93581338 L11.1446854,5.93581338 Z" id="Fill-1" fill="#008ACA" sketch:type="MSShapeGroup"></path>
                <path d="M20.1024344,8.97622211 C20.1024344,9.07783772 20.1497241,9.15832426 20.2431985,9.2184441 C20.3257345,9.29108892 20.430037,9.32877273 20.5618514,9.32877273 L21.9125907,9.32877273 C22.2182058,9.32877273 22.3763169,9.21212716 22.385156,8.97622211 L22.385156,8.47903534 C22.385156,8.20784256 22.2239513,8.07093921 21.8996634,8.07093921 L20.5618514,8.07093921 C20.3861725,8.07093921 20.2645231,8.09958327 20.1966823,8.15414857 C20.134145,8.2184071 20.1024344,8.34550829 20.1024344,8.53392738 L20.1024344,8.97622211 L20.1024344,8.97622211 Z M22.385156,6.23771956 C22.3939952,5.97131894 22.2369891,5.84399992 21.9121487,5.85271294 L18.3706154,5.85271294 L18.3706154,4.07220706 L22.3581965,4.07220706 C23.5194455,4.09061332 24.1090197,4.64410799 24.1287974,5.73584954 L24.1287974,9.46055718 C24.1189638,9.93182271 23.9727857,10.3200967 23.6888266,10.6289733 C23.3917192,10.9488501 23.0090926,11.1094964 22.5399524,11.1094964 L20.1296149,11.1094964 C18.9565434,11.0996943 18.3619972,10.5720119 18.3438769,9.52241963 L18.3438769,8.0853157 C18.3528265,6.98845525 18.9214077,6.43125754 20.0463055,6.41197998 L22.385156,6.41197998 L22.385156,6.23771956 L22.385156,6.23771956 Z" id="Fill-2" fill="#008ACA" sketch:type="MSShapeGroup"></path>
                <path d="M29.0675862,11.9635903 C29.207135,11.9552041 29.3272375,11.9056487 29.4255735,11.8172116 C29.5198214,11.7346557 29.5670006,11.6397927 29.5670006,11.5324047 L29.5670006,11.1094964 L27.3159896,11.1094964 C27.0220864,11.1094964 26.7874058,11.0726839 26.6122793,10.9992767 C26.4275401,10.9322954 26.242801,10.8075902 26.0576199,10.630607 C25.88172,10.4430592 25.755209,10.2466895 25.67875,10.0417157 C25.5983133,9.85427682 25.557653,9.61564895 25.557653,9.32877273 L25.557653,4.07220706 L27.3159896,4.07220706 L27.3159896,8.76460461 C27.3159896,9.14089821 27.4718908,9.32877273 27.7873395,9.32877273 L29.0283623,9.32877273 C29.1759768,9.32877273 29.3042556,9.28096003 29.4114308,9.18359202 C29.5155123,9.10136288 29.5670006,9.0034503 29.5670006,8.88832951 L29.5670006,4.07220706 L31.310642,4.07220706 L31.310642,11.8270137 C31.3010294,12.4007662 31.151426,12.8602691 30.8638208,13.2086811 C30.571133,13.5573108 30.1717119,13.7353832 29.6621324,13.744314 L25.557653,13.744314 L25.557653,11.9635903 L29.0675862,11.9635903" id="Fill-3" fill="#008ACA" sketch:type="MSShapeGroup"></path>
                <path d="M32.6912135,9.32877273 L35.8243761,9.32877273 C36.1112079,9.31886167 36.2599273,9.20570131 36.268877,8.98885599 L36.268877,8.82875423 C36.268877,8.78257522 36.2547343,8.73116839 36.2274433,8.6757318 C36.1573927,8.54133344 36.071321,8.47446101 35.9692284,8.47446101 L34.4158506,8.47446101 C33.9547762,8.46574799 33.5614321,8.30902252 33.2307358,8.00689851 C32.8966143,7.72797292 32.7249129,7.38457097 32.7153003,6.98148483 L32.7153003,5.65372932 C32.7335312,4.61786001 33.3043221,4.09061332 34.4287779,4.07220706 L38.0625703,4.07220706 L38.0625703,5.85271294 L34.9842108,5.85271294 C34.6225773,5.85271294 34.4409318,5.96195244 34.4409318,6.17956014 L34.4409318,6.35207796 C34.4409318,6.57807195 34.6268864,6.6911234 34.99758,6.6911234 L36.5459857,6.6911234 C36.9588865,6.70059881 37.310355,6.85623515 37.6035952,7.15988394 C37.8997082,7.46571098 38.0532892,7.82958853 38.0625703,8.25195223 L38.0625703,9.55106368 C38.0532892,9.91581253 37.8820298,10.2799079 37.5525489,10.643132 C37.3918965,10.8214222 37.2277085,10.9441669 37.06341,11.0133265 C36.8932555,11.0771493 36.6624421,11.1094964 36.3671026,11.1094964 L32.6912135,11.1094964 L32.6912135,9.32877273" id="Fill-4" fill="#008ACA" sketch:type="MSShapeGroup"></path>
                <path d="M41.0716527,8.97622211 C41.0716527,9.07783772 41.1189424,9.15832426 41.2140742,9.2184441 C41.2958368,9.29108892 41.4006917,9.32877273 41.5308488,9.32877273 L42.8839083,9.32877273 C43.1895234,9.32877273 43.3470821,9.21212716 43.3561422,8.97622211 L43.3561422,8.47903534 C43.3561422,8.20784256 43.1929486,8.07093921 42.8694341,8.07093921 L41.5308488,8.07093921 C41.3553908,8.07093921 41.2344044,8.09958327 41.1670055,8.15414857 C41.1044682,8.2184071 41.0716527,8.34550829 41.0716527,8.53392738 L41.0716527,8.97622211 L41.0716527,8.97622211 Z M43.3561422,6.23771956 C43.3636555,5.97131894 43.2065389,5.84399992 42.881588,5.85271294 L39.3409387,5.85271294 L39.3409387,4.07220706 L43.3289617,4.07220706 C44.4894373,4.09061332 45.0790115,4.64410799 45.0973528,5.73584954 L45.0973528,9.46055718 C45.0879612,9.93182271 44.9405676,10.3200967 44.6582659,10.6289733 C44.3630368,10.9488501 43.9799683,11.1094964 43.5101652,11.1094964 L41.0983913,11.1094964 C39.9262037,11.0996943 39.3307736,10.5720119 39.3144211,9.52241963 L39.3144211,8.0853157 C39.3221554,6.98845525 39.8899631,6.43125754 41.0164078,6.41197998 L43.3561422,6.41197998 L43.3561422,6.23771956 L43.3561422,6.23771956 Z" id="Fill-5" fill="#008ACA" sketch:type="MSShapeGroup"></path>
                <path d="M46.5266504,3.06258573 C46.5374784,2.5819537 46.7172455,2.19607578 47.0695978,1.90658565 C47.4114536,1.61273901 47.8600427,1.4615681 48.4149231,1.45318181 L49.5314237,1.45318181 L49.5314237,3.17335002 L48.8555568,3.17335002 C48.4839793,3.1817363 48.2940471,3.35719476 48.2863128,3.69547781 L48.2863128,4.07264271 L49.5314237,4.07264271 L49.5314237,5.85489119 L48.2863128,5.85489119 L48.2863128,11.1103677 L46.5266504,11.1103677 L46.5266504,3.06258573" id="Fill-6" fill="#008ACA" sketch:type="MSShapeGroup"></path>
                <path d="M54.5324183,6.20450117 L54.5324183,6.1630054 C54.5324183,6.07140977 54.4948517,5.99375497 54.4189451,5.93581338 C54.3370721,5.8797233 54.2367473,5.85271294 54.1165342,5.85271294 L52.8927479,5.85271294 C52.7356313,5.85271294 52.6090098,5.89595131 52.5110053,5.98471521 C52.3893559,6.06683543 52.327371,6.17498581 52.327371,6.30807721 L52.327371,7.02308951 L54.5324183,6.20450117 L54.5324183,6.20450117 Z M52.3554354,8.72136624 L52.3554354,8.83213053 C52.3554354,8.97480625 52.393002,9.08807552 52.4693506,9.17019575 C52.5245955,9.27529656 52.5990657,9.32877273 52.6980647,9.32877273 L56.310201,9.32877273 L56.310201,11.1094964 L52.4693506,11.1094964 C52.1188765,11.1094964 51.8461874,11.0771493 51.6529406,11.0124552 C51.4421258,10.9441669 51.2526356,10.8320956 51.0873427,10.676786 C50.8939853,10.4880402 50.7623918,10.2962448 50.6960979,10.098786 C50.6236165,9.89304977 50.5875968,9.61978764 50.5875968,9.27943525 L50.5726806,5.71570068 C50.5923478,4.63866235 51.1629178,4.09061332 52.2841695,4.07220706 L54.6545096,4.07220706 C55.7495752,4.09061332 56.3043451,4.65804882 56.3220235,5.77614726 L56.3220235,7.18406257 L52.3554354,8.72136624 L52.3554354,8.72136624 Z" id="Fill-7" fill="#008ACA" sketch:type="MSShapeGroup"></path>
                <path d="M60.0439868,11.1094964 C59.7777061,11.1094964 59.5346283,11.0856445 59.3143114,11.0412081 C59.083277,11.0041778 58.853016,10.8984235 58.617562,10.72046 C58.376252,10.5130901 58.2096332,10.280997 58.1181475,10.0241807 C58.0214689,9.77204768 57.9746211,9.4863695 57.9746211,9.1646412 L57.9746211,5.84160384 C57.964898,5.57073779 57.9925205,5.33254557 58.0567151,5.12659154 C58.1160482,4.92020185 58.2401284,4.71893106 58.4278508,4.5213633 C58.6418697,4.3139934 58.8600873,4.17621875 59.0910113,4.10858393 C59.312654,4.05369189 59.5626927,4.02624588 59.8428951,4.02624588 L62.5375232,4.02624588 L62.5375232,4.44240155 L59.9052115,4.44240155 C59.4406014,4.44240155 59.0752112,4.53661109 58.8080466,4.72503017 C58.5346945,4.9308753 58.3956982,5.28505961 58.3956982,5.78453355 L58.3956982,9.10974916 C58.3956982,9.34369378 58.4317179,9.57110363 58.5039783,9.79067177 C58.5777856,10.0066458 58.7004294,10.1959362 58.8773238,10.3612657 C59.0685818,10.5047039 59.2597294,10.5941212 59.4455734,10.630607 C59.6398147,10.6727562 59.8474252,10.6925784 60.0681841,10.6925784 L62.5800618,10.6925784 L62.5800618,11.1094964 L60.0439868,11.1094964" id="Fill-8" fill="#008ACA" sketch:type="MSShapeGroup"></path>
                <path d="M69.4688872,6.79818465 L65.9357511,6.79818465 C65.5123537,6.80787788 65.1815469,6.9368306 64.9424468,7.1851517 C64.6955018,7.43706692 64.5734104,7.7833006 64.5734104,8.22254578 L64.5734104,9.2832472 C64.5734104,9.4888745 64.5951769,9.67685793 64.6399254,9.84621728 C64.6843423,10.0241807 64.7952742,10.1833023 64.9705112,10.3200967 C65.2757948,10.569398 65.6137835,10.6925784 65.9830408,10.6925784 L68.1237829,10.6925784 C69.0181988,10.6834297 69.4688872,10.2186989 69.4688872,9.29642564 L69.4688872,6.79818465 L69.4688872,6.79818465 Z M69.8885279,9.19274069 C69.8885279,9.46012153 69.8678663,9.69526419 69.8329514,9.90165387 C69.7759386,10.1265587 69.6589298,10.3430773 69.4815935,10.5488135 C69.1125572,10.9322954 68.6547975,11.1192986 68.1093087,11.1094964 L66.0082325,11.1094964 C65.4627438,11.1094964 65.0201212,10.9488501 64.6773814,10.6289733 C64.3273494,10.3126906 64.1500131,9.87322764 64.1500131,9.30949517 L64.1500131,8.23855596 C64.1676915,7.02951536 64.7785902,6.41089086 65.9819359,6.38268245 L69.4815935,6.38268245 L69.4815935,5.91359517 C69.4815935,5.52771725 69.3682309,5.18921638 69.1423895,4.89831038 C68.999084,4.70923782 68.8295925,4.58322575 68.6371191,4.51776918 C68.4425463,4.46788714 68.2241078,4.44240155 67.9804775,4.44240155 L64.1627194,4.44240155 L64.1627194,4.02624588 L67.7821481,4.02624588 C68.1129549,4.02624588 68.4122721,4.04911756 68.6828619,4.09431635 C68.8225212,4.12154454 68.9491426,4.17502071 69.0663724,4.25223986 C69.1897896,4.32608272 69.3054726,4.43368853 69.4127583,4.57483947 C69.7372672,4.98761885 69.8954887,5.46345872 69.8885279,5.999963 L69.8885279,9.19274069 L69.8885279,9.19274069 Z" id="Fill-9" fill="#008ACA" sketch:type="MSShapeGroup"></path>
                <path d="M73.8396473,4.44240155 C72.8594912,4.46069889 72.3767608,4.98761885 72.3951021,6.02501293 L72.3951021,11.1094964 L71.974025,11.1094964 L71.974025,6.02675554 C71.9544683,4.69235634 72.5986245,4.02624588 73.9072671,4.02624588 L74.3750814,4.02624588 L74.3750814,4.44240155 L73.8396473,4.44240155" id="Fill-10" fill="#008ACA" sketch:type="MSShapeGroup"></path>
                <path d="M80.9565238,4.44479763 L77.6263577,4.44479763 C77.3865946,4.44479763 77.1714707,4.47126343 76.9776714,4.5213633 C76.7748119,4.56645319 76.5790238,4.68778201 76.3956105,4.88524085 C76.2199316,5.06516474 76.1096626,5.24334602 76.0628149,5.42163622 C76.0011615,5.6015601 75.973539,5.81720738 75.9834831,6.06879586 L75.9834831,9.31069321 C75.9834831,9.84970249 76.1418152,10.2163029 76.4628989,10.413435 C76.6213414,10.5047039 76.7950316,10.5731011 76.9903778,10.6191712 C77.18484,10.6700334 77.4010688,10.6953012 77.640169,10.6953012 L79.0958736,10.6953012 C79.639484,10.6953012 80.0845374,10.5720119 80.4262827,10.3229284 C80.7701273,10.0895284 80.9449224,9.68644225 80.9565238,9.11236307 L80.9565238,4.44479763 L80.9565238,4.44479763 Z M81.3773799,9.14089821 C81.3398133,10.4825946 80.6195296,11.1403187 79.2163076,11.1124371 L77.6551956,11.1124371 C77.3254937,11.1124371 77.0304856,11.0841198 76.7700609,11.0298812 C76.5017913,10.9615929 76.2447918,10.8001842 75.9976259,10.5488135 C75.8116713,10.3229284 75.6921212,10.0946473 75.6441686,9.86048485 C75.5798635,9.62719371 75.5515781,9.36721894 75.5615221,9.08339227 L75.5615221,6.05812241 C75.5798635,4.6954059 76.2760604,4.01796851 77.6519914,4.02831522 L80.9565238,4.02831522 L80.9565238,1.73134501 L81.3773799,1.73134501 L81.3773799,9.14089821 L81.3773799,9.14089821 Z" id="Fill-11" fill="#008ACA" sketch:type="MSShapeGroup"></path>
                <path d="M1.3777082,3.80449949 C1.5157101,3.74437964 1.6538225,3.69765607 1.79171392,3.66824962 C2.04550925,2.47391224 3.1188083,1.5776691 4.40557387,1.5776691 C5.69289189,1.5776691 6.76674339,2.47511028 7.02009677,3.66944766 C7.4153192,3.74296378 7.74203789,3.90088728 7.99660665,4.13515864 C8.00688222,3.90578836 7.99760106,3.68480436 7.97019956,3.47688989 C7.80689547,1.67209647 6.27174857,0.255685966 4.40015987,0.255685966 C2.47288425,0.255685966 0.904148416,1.76140494 0.822606857,3.64363533 C0.811336886,3.80613318 0.808022188,3.9752747 0.813878154,4.15247577 C0.975635392,4.01796851 1.16026404,3.89718425 1.3777082,3.80449949" id="Fill-12" fill="#E2001A" sketch:type="MSShapeGroup"></path>
                <path d="M2.20317837,4.07220706 C1.99634124,4.07220706 1.78232227,4.11925738 1.5617844,4.21662539 C1.34931229,4.30811211 1.17451724,4.41887639 1.03507897,4.55087866 C0.768356308,4.86661677 0.632011751,5.32840689 0.622620108,5.93581338 L0.622620108,9.2449099 C0.632011751,9.85384117 0.768356308,10.31476 1.03507897,10.6289733 C1.17451724,10.7633717 1.34931229,10.8738092 1.5617844,10.9660583 C1.78232227,11.0615748 1.99634124,11.1094964 2.20317837,11.1094964 L6.49747947,11.1094964 C7.60646676,11.0996943 8.17084925,10.5001295 8.18863813,9.31439625 L8.18863813,5.86665377 C8.17084925,4.6791779 7.60646676,4.08157356 6.49747947,4.07220706 L2.20317837,4.07220706 Z" id="Fill-13" fill="#E2001A" sketch:type="MSShapeGroup"></path>
            </g>
        </g>
    </g>
</svg>