<?xml version="1.0" encoding="UTF-8" standalone="no"?>
<svg width="38px" height="38px" viewBox="0 0 38 38" version="1.1" xmlns="http://www.w3.org/2000/svg" xmlns:xlink="http://www.w3.org/1999/xlink" xmlns:sketch="http://www.bohemiancoding.com/sketch/ns">
    <!-- Generator: Sketch 3.3.3 (12081) - http://www.bohemiancoding.com/sketch -->
    <title>Payment/2checkout/2checkout-alt</title>
    <desc>Created with Sketch.</desc>
    <defs></defs>
    <g id="Icons:-Payment" stroke="none" stroke-width="1" fill="none" fill-rule="evenodd" sketch:type="MSPage">
        <g id="2checkout-alt" sketch:type="MSArtboardGroup" transform="translate(-31.000000, -11.000000)" fill="#FFFFFF">
            <g id="Payment/2checkout/2checkout-alt" sketch:type="MSLayerGroup" transform="translate(31.000000, 11.000000)">
                <path d="M37.2039046,13.432894 C34.8222765,5.65595539 27.5818034,0 19.0183092,0 C8.51498655,0 0,8.50673935 0,19.0004751 C0,29.4937358 8.51498655,38 19.0183092,38 C27.6236531,38 34.8917089,32.2879792 37.236243,24.4521243 C36.2532507,25.0460377 35.0786058,25.3957338 33.7679494,25.3957338 C29.9448846,25.3957338 27.2779175,22.5002876 27.2779175,19.0004751 L27.2779175,18.9653155 C27.2779175,15.4650279 29.9810275,12.534422 33.8040924,12.534422 C35.0881171,12.534422 36.2370815,12.8665383 37.2039046,13.432894 L37.2039046,13.432894 Z M14.6321757,25.1824002 L5.63401539,25.1824002 L5.63401539,23.4600515 L9.91885364,19.8176999 C11.626131,18.3790042 12.2491208,17.5798345 12.2491208,16.4604266 C12.2491208,15.2345895 11.3774107,14.5233189 10.2393843,14.5233189 C9.10135786,14.5233189 8.31857831,15.1452649 7.35936425,16.3896321 L5.8118766,15.1808997 C7.00316626,13.5103403 8.17638446,12.5695816 10.399174,12.5695816 C12.8359677,12.5695816 14.5075777,14.061967 14.5075777,16.2827278 L14.5075777,16.3178874 C14.5075777,18.2711496 13.4765534,19.338293 11.2713597,21.1319113 L8.70949252,23.2642977 L14.6321757,23.2642977 L14.6321757,25.1824002 L14.6321757,25.1824002 Z M26.9754584,14.2420416 L25.4351042,15.745355 C24.548176,15.0131786 23.5784995,14.5413739 22.3406045,14.5413739 C19.9575496,14.5413739 18.2331519,16.4951112 18.2331519,18.9292055 L18.2331519,18.9653155 C18.2331519,21.3989347 19.9575496,23.3887819 22.3406045,23.3887819 C23.6222514,23.3887819 24.5158376,22.9478607 25.3999124,22.2204356 L26.8575183,23.6448773 C25.6757399,24.7296006 24.3260872,25.3957338 22.2687942,25.3957338 C18.6407108,25.3957338 15.9390276,22.571082 15.9390276,19.0004751 L15.9390276,18.9653155 C15.9390276,15.4293931 18.5893499,12.534422 22.3582004,12.534422 C24.4925349,12.534422 25.8383831,13.2304884 26.9754584,14.2420416 L26.9754584,14.2420416 Z M38,19.0004751 L38,18.9653155 C38,16.5488009 36.2404105,14.5413739 33.7679494,14.5413739 C31.2973907,14.5413739 29.5715662,16.5131661 29.5715662,18.9292055 L29.5715662,18.9653155 C29.5715662,21.3813549 31.3316313,23.3887819 33.8040924,23.3887819 C36.2751267,23.3887819 38,21.4165145 38,19.0004751 L38,19.0004751 Z" id="Fill-72" sketch:type="MSShapeGroup"></path>
            </g>
        </g>
    </g>
</svg>