<?xml version="1.0" encoding="UTF-8" standalone="no"?>
<svg width="80px" height="20px" viewBox="0 0 80 20" version="1.1" xmlns="http://www.w3.org/2000/svg" xmlns:xlink="http://www.w3.org/1999/xlink" xmlns:sketch="http://www.bohemiancoding.com/sketch/ns">
    <!-- Generator: Sketch 3.3.3 (12081) - http://www.bohemiancoding.com/sketch -->
    <title>Payment/WebMoney/WebMoney-alt</title>
    <desc>Created with Sketch.</desc>
    <defs></defs>
    <g id="Icons:-Payment" stroke="none" stroke-width="1" fill="none" fill-rule="evenodd" sketch:type="MSPage">
        <g id="WebMoney-alt" sketch:type="MSArtboardGroup" transform="translate(-10.000000, -20.000000)" fill="#FFFFFF">
            <g id="Payment/WebMoney/WebMoney-alt" sketch:type="MSLayerGroup" transform="translate(10.000000, 20.000000)">
                <path d="M69.8755668,0.0887 C71.4435264,0.0887 72.9284635,0.4511 74.2509824,1.0945 C74.4587406,1.1923 74.6658942,1.2999 74.8736524,1.4187 L73.9543577,2.2353 L72.573199,0.8179 L70.2421159,2.8815 L68.8575315,1.3817 L64.5151637,5.2665 L67.2990428,8.3115 L66.2050378,9.2665 L68.9470025,12.3161 L67.8594458,13.2689 L71.7776322,17.5975 L74.1034761,15.4723 L76.1143577,17.7497 C75.7143577,18.0583 75.2786902,18.3487 74.7986902,18.6171 C73.3445844,19.4401 71.6639798,19.9113 69.8755668,19.9113 C64.3755164,19.9113 59.8896725,15.4585 59.8896725,10.0003 C59.8896725,4.5409 64.3755164,0.0887 69.8755668,0.0887" id="Fill-1" sketch:type="MSShapeGroup"></path>
                <path d="M68.0557179,9.3737 L70.4303275,7.2513 L72.5685642,9.6087 L70.1941562,11.7303 L68.0557179,9.3737" id="Fill-2" sketch:type="MSShapeGroup"></path>
                <path d="M69.7441814,13.4461 L72.1189924,11.3243 L74.2574307,13.6811 L71.8828212,15.8035 L69.7441814,13.4461" id="Fill-3" sketch:type="MSShapeGroup"></path>
                <path d="M66.3565743,5.3489 L68.7311839,3.2271 L70.8688161,5.5839 L68.4942065,7.7057 L66.3565743,5.3489" id="Fill-4" sketch:type="MSShapeGroup"></path>
                <path d="M70.7140554,4.2067 L72.4950126,2.6155 L74.0984383,4.3831 L72.3174811,5.9749 L70.7140554,4.2067" id="Fill-5" sketch:type="MSShapeGroup"></path>
                <path d="M73.8783879,11.4965 L75.6599496,9.9047 L77.2633753,11.6727 L75.4824181,13.2641 L73.8783879,11.4965" id="Fill-6" sketch:type="MSShapeGroup"></path>
                <path d="M75.4451385,15.0669 L77.2256927,13.4749 L78.8295214,15.2425 L77.0485642,16.8339 L75.4451385,15.0669" id="Fill-7" sketch:type="MSShapeGroup"></path>
                <path d="M76.1625189,6.8839 L77.3498237,5.8229 L78.4186398,7.0013 L77.2319395,8.0621 L76.1625189,6.8839" id="Fill-8" sketch:type="MSShapeGroup"></path>
                <path d="M74.6455416,3.3825 L75.8328463,2.3217 L76.901864,3.5001 L75.7143577,4.5609 L74.6455416,3.3825" id="Fill-9" sketch:type="MSShapeGroup"></path>
                <path d="M77.6805038,10.3851 L78.8678086,9.3241 L79.9368262,10.5023 L78.7495214,11.5633 L77.6805038,10.3851" id="Fill-10" sketch:type="MSShapeGroup"></path>
                <path d="M72.3557683,7.7615 L74.1365239,6.1695 L75.7399496,7.9371 L73.959597,9.5285 L72.3557683,7.7615" id="Fill-11" sketch:type="MSShapeGroup"></path>
                <path d="M4.72332494,8.2915 L4.64352645,8.2915 L3.13924433,13.9347 L1.90901763,13.9347 L0.0631738035,5.9167 L1.33914358,5.9167 L2.61531486,11.8991 L2.69511335,11.8991 L4.17622166,5.9167 L5.1902267,5.9167 L6.7743073,11.8991 L6.85370277,11.8991 L8.01581864,5.9167 L9.34901763,5.9167 L7.50297229,13.9347 L6.27254408,13.9347 L4.72332494,8.2915" id="Fill-12" sketch:type="MSShapeGroup"></path>
                <path d="M14.3978841,12.6905 L14.3978841,13.5499 C13.8852393,13.8443 13.2017128,14.0705 12.3811587,14.0705 C10.467204,14.0705 9.68110831,12.8943 9.68110831,11.1073 C9.68110831,9.3887 10.5584887,8.1447 12.2675063,8.1447 C13.6913854,8.1447 14.5687657,9.0609 14.5687657,10.9039 L14.5687657,11.3221 L10.8547103,11.3221 C10.8547103,12.6789 11.4128967,13.2785 12.5864987,13.2785 C13.2017128,13.2785 13.7711839,13.0637 14.3978841,12.6905 L14.3978841,12.6905 Z M10.8776826,10.5647 L13.4862469,10.5647 C13.4298237,9.3771 12.8484635,8.9025 12.2332494,8.9025 C11.5378338,8.9025 11.0026196,9.4341 10.8776826,10.5647 L10.8776826,10.5647 Z" id="Fill-13" sketch:type="MSShapeGroup"></path>
                <path d="M16.7902267,8.5633 C17.1319899,8.3823 17.7129471,8.1447 18.3283627,8.1447 C19.7409572,8.1447 20.5044836,9.1173 20.5044836,10.9271 C20.5044836,13.0413 19.4793955,14.0705 17.827204,14.0705 C17.223073,14.0705 16.2888665,13.8783 15.6051385,13.5159 L15.6051385,5.6231 L16.7902267,5.3403 L16.7902267,8.5633 L16.7902267,8.5633 Z M16.7789421,13.0977 C17.1432746,13.2561 17.542267,13.2785 17.827204,13.2785 C18.6703275,13.2785 19.3083123,12.7585 19.3083123,10.9271 C19.3083123,9.4905 18.7841814,9.0269 18.0208564,9.0269 C17.5648363,9.0269 17.2347607,9.1513 16.7789421,9.4001 L16.7789421,13.0977 L16.7789421,13.0977 Z" id="Fill-14" sketch:type="MSShapeGroup"></path>
                <path d="M25.6885642,12.2383 L25.7457935,12.2383 L28.1838791,5.9167 L29.5968766,5.9167 L29.5968766,13.9347 L28.3664484,13.9347 L28.3664484,8.1221 L28.2636776,8.1221 L25.9392443,13.9347 L25.2103778,13.9347 L22.8857431,8.2579 L22.7833753,8.2579 L22.7833753,13.9347 L21.7578841,13.9347 L21.7578841,5.9167 L23.1364232,5.9167 L25.6885642,12.2383" id="Fill-15" sketch:type="MSShapeGroup"></path>
                <path d="M30.8500756,11.1073 C30.8500756,9.1283 31.9438791,8.1447 33.4477582,8.1447 C34.9518388,8.1447 36.0458438,9.1283 36.0458438,11.1073 C36.0458438,13.0413 35.0088665,14.0705 33.4477582,14.0705 C31.8866499,14.0705 30.8500756,13.0413 30.8500756,11.1073 L30.8500756,11.1073 Z M34.8492695,11.1073 C34.8492695,9.5809 34.2223678,8.9365 33.4477582,8.9365 C32.6957179,8.9365 32.0462469,9.5809 32.0462469,11.1073 C32.0462469,12.6571 32.6390932,13.2785 33.4477582,13.2785 C34.2566247,13.2785 34.8492695,12.6571 34.8492695,11.1073 L34.8492695,11.1073 Z" id="Fill-16" sketch:type="MSShapeGroup"></path>
                <path d="M37.1279597,8.9815 C37.6406045,8.6761 38.7233249,8.1447 40.0329471,8.1447 C41.400806,8.1447 41.9130479,8.6761 41.9130479,9.8407 L41.9130479,13.9347 L40.7281612,13.9347 L40.7281612,10.1011 C40.7281612,9.2077 40.2842317,9.0493 39.7032746,9.0493 C39.2472544,9.0493 38.6660957,9.2533 38.3130479,9.4565 L38.3130479,13.9347 L37.1279597,13.9347 L37.1279597,8.9815" id="Fill-17" sketch:type="MSShapeGroup"></path>
                <path d="M47.6893703,12.6905 L47.6893703,13.5499 C47.176927,13.8443 46.493602,14.0705 45.6728463,14.0705 C43.7590932,14.0705 42.972796,12.8943 42.972796,11.1073 C42.972796,9.3887 43.8503778,8.1447 45.559194,8.1447 C46.9836776,8.1447 47.8612594,9.0609 47.8612594,10.9039 L47.8612594,11.3221 L44.146801,11.3221 C44.146801,12.6789 44.7049874,13.2785 45.8783879,13.2785 C46.493602,13.2785 47.0632746,13.0637 47.6893703,12.6905 L47.6893703,12.6905 Z M44.1693703,10.5647 L46.7783375,10.5647 C46.7217128,9.3771 46.1401511,8.9025 45.524937,8.9025 C44.8297229,8.9025 44.2949118,9.4341 44.1693703,10.5647 L44.1693703,10.5647 Z" id="Fill-18" sketch:type="MSShapeGroup"></path>
                <path d="M52.2930982,8.3369 L53.5122418,8.3369 L51.4497733,13.9911 C50.8798992,15.5519 50.1846851,16.3657 48.875063,16.3657 L48.875063,15.4389 C49.6498741,15.4389 50.1278589,14.8277 50.4017128,13.9911 L48.2141058,8.3369 L49.4675063,8.3369 L50.9258438,12.4981 L50.9937531,12.4981 L52.2930982,8.3369" id="Fill-19" sketch:type="MSShapeGroup"></path>
            </g>
        </g>
    </g>
</svg>