<?xml version="1.0" encoding="UTF-8" standalone="no"?>
<svg width="100px" height="60px" viewBox="0 0 100 60" version="1.1" xmlns="http://www.w3.org/2000/svg" xmlns:xlink="http://www.w3.org/1999/xlink" xmlns:sketch="http://www.bohemiancoding.com/sketch/ns">
    <!-- Generator: Sketch 3.3.3 (12081) - http://www.bohemiancoding.com/sketch -->
    <title>Payment/WebMoney/WebMoney-card-flat</title>
    <desc>Created with Sketch.</desc>
    <defs></defs>
    <g id="Icons:-Payment" stroke="none" stroke-width="1" fill="none" fill-rule="evenodd" sketch:type="MSPage">
        <g id="WebMoney-card-flat" sketch:type="MSArtboardGroup" fill="#9B9B9B">
            <g id="Payment/WebMoney/WebMoney-card-flat" sketch:type="MSLayerGroup">
                <path d="M0,4.0065556 C0,1.79379604 1.79952991,0 3.99732351,0 L96.0026765,0 C98.2103373,0 100,1.79568082 100,4.0065556 L100,55.9934444 C100,58.206204 98.2004701,60 96.0026765,60 L3.99732351,60 C1.78966269,60 0,58.2043192 0,55.9934444 L0,4.0065556 Z M79.8755668,20.0887 C81.4435264,20.0887 82.9284635,20.4511 84.2509824,21.0945 C84.4587406,21.1923 84.6658942,21.2999 84.8736524,21.4187 L83.9543577,22.2353 L82.573199,20.8179 L80.2421159,22.8815 L78.8575315,21.3817 L74.5151637,25.2665 L77.2990428,28.3115 L76.2050378,29.2665 L78.9470025,32.3161 L77.8594458,33.2689 L81.7776322,37.5975 L84.1034761,35.4723 L86.1143577,37.7497 C85.7143577,38.0583 85.2786902,38.3487 84.7986902,38.6171 C83.3445844,39.4401 81.6639798,39.9113 79.8755668,39.9113 C74.3755164,39.9113 69.8896725,35.4585 69.8896725,30.0003 C69.8896725,24.5409 74.3755164,20.0887 79.8755668,20.0887 Z M78.0557179,29.3737 L80.4303275,27.2513 L82.5685642,29.6087 L80.1941562,31.7303 L78.0557179,29.3737 Z M79.7441814,33.4461 L82.1189924,31.3243 L84.2574307,33.6811 L81.8828212,35.8035 L79.7441814,33.4461 Z M76.3565743,25.3489 L78.7311839,23.2271 L80.8688161,25.5839 L78.4942065,27.7057 L76.3565743,25.3489 Z M80.7140554,24.2067 L82.4950126,22.6155 L84.0984383,24.3831 L82.3174811,25.9749 L80.7140554,24.2067 Z M83.8783879,31.4965 L85.6599496,29.9047 L87.2633753,31.6727 L85.4824181,33.2641 L83.8783879,31.4965 Z M85.4451385,35.0669 L87.2256927,33.4749 L88.8295214,35.2425 L87.0485642,36.8339 L85.4451385,35.0669 Z M86.1625189,26.8839 L87.3498237,25.8229 L88.4186398,27.0013 L87.2319395,28.0621 L86.1625189,26.8839 Z M84.6455416,23.3825 L85.8328463,22.3217 L86.901864,23.5001 L85.7143577,24.5609 L84.6455416,23.3825 Z M87.6805038,30.3851 L88.8678086,29.3241 L89.9368262,30.5023 L88.7495214,31.5633 L87.6805038,30.3851 Z M82.3557683,27.7615 L84.1365239,26.1695 L85.7399496,27.9371 L83.959597,29.5285 L82.3557683,27.7615 Z M14.7233249,28.2915 L14.6435264,28.2915 L13.1392443,33.9347 L11.9090176,33.9347 L10.0631738,25.9167 L11.3391436,25.9167 L12.6153149,31.8991 L12.6951134,31.8991 L14.1762217,25.9167 L15.1902267,25.9167 L16.7743073,31.8991 L16.8537028,31.8991 L18.0158186,25.9167 L19.3490176,25.9167 L17.5029723,33.9347 L16.2725441,33.9347 L14.7233249,28.2915 Z M24.3978841,32.6905 L24.3978841,33.5499 C23.8852393,33.8443 23.2017128,34.0705 22.3811587,34.0705 C20.467204,34.0705 19.6811083,32.8943 19.6811083,31.1073 C19.6811083,29.3887 20.5584887,28.1447 22.2675063,28.1447 C23.6913854,28.1447 24.5687657,29.0609 24.5687657,30.9039 L24.5687657,31.3221 L20.8547103,31.3221 C20.8547103,32.6789 21.4128967,33.2785 22.5864987,33.2785 C23.2017128,33.2785 23.7711839,33.0637 24.3978841,32.6905 Z M20.8776826,30.5647 L23.4862469,30.5647 C23.4298237,29.3771 22.8484635,28.9025 22.2332494,28.9025 C21.5378338,28.9025 21.0026196,29.4341 20.8776826,30.5647 Z M26.7902267,28.5633 C27.1319899,28.3823 27.7129471,28.1447 28.3283627,28.1447 C29.7409572,28.1447 30.5044836,29.1173 30.5044836,30.9271 C30.5044836,33.0413 29.4793955,34.0705 27.827204,34.0705 C27.223073,34.0705 26.2888665,33.8783 25.6051385,33.5159 L25.6051385,25.6231 L26.7902267,25.3403 L26.7902267,28.5633 Z M26.7789421,33.0977 C27.1432746,33.2561 27.542267,33.2785 27.827204,33.2785 C28.6703275,33.2785 29.3083123,32.7585 29.3083123,30.9271 C29.3083123,29.4905 28.7841814,29.0269 28.0208564,29.0269 C27.5648363,29.0269 27.2347607,29.1513 26.7789421,29.4001 L26.7789421,33.0977 Z M35.6885642,32.2383 L35.7457935,32.2383 L38.1838791,25.9167 L39.5968766,25.9167 L39.5968766,33.9347 L38.3664484,33.9347 L38.3664484,28.1221 L38.2636776,28.1221 L35.9392443,33.9347 L35.2103778,33.9347 L32.8857431,28.2579 L32.7833753,28.2579 L32.7833753,33.9347 L31.7578841,33.9347 L31.7578841,25.9167 L33.1364232,25.9167 L35.6885642,32.2383 Z M40.8500756,31.1073 C40.8500756,29.1283 41.9438791,28.1447 43.4477582,28.1447 C44.9518388,28.1447 46.0458438,29.1283 46.0458438,31.1073 C46.0458438,33.0413 45.0088665,34.0705 43.4477582,34.0705 C41.8866499,34.0705 40.8500756,33.0413 40.8500756,31.1073 Z M44.8492695,31.1073 C44.8492695,29.5809 44.2223678,28.9365 43.4477582,28.9365 C42.6957179,28.9365 42.0462469,29.5809 42.0462469,31.1073 C42.0462469,32.6571 42.6390932,33.2785 43.4477582,33.2785 C44.2566247,33.2785 44.8492695,32.6571 44.8492695,31.1073 Z M47.1279597,28.9815 C47.6406045,28.6761 48.7233249,28.1447 50.0329471,28.1447 C51.400806,28.1447 51.9130479,28.6761 51.9130479,29.8407 L51.9130479,33.9347 L50.7281612,33.9347 L50.7281612,30.1011 C50.7281612,29.2077 50.2842317,29.0493 49.7032746,29.0493 C49.2472544,29.0493 48.6660957,29.2533 48.3130479,29.4565 L48.3130479,33.9347 L47.1279597,33.9347 L47.1279597,28.9815 Z M57.6893703,32.6905 L57.6893703,33.5499 C57.176927,33.8443 56.493602,34.0705 55.6728463,34.0705 C53.7590932,34.0705 52.972796,32.8943 52.972796,31.1073 C52.972796,29.3887 53.8503778,28.1447 55.559194,28.1447 C56.9836776,28.1447 57.8612594,29.0609 57.8612594,30.9039 L57.8612594,31.3221 L54.146801,31.3221 C54.146801,32.6789 54.7049874,33.2785 55.8783879,33.2785 C56.493602,33.2785 57.0632746,33.0637 57.6893703,32.6905 Z M54.1693703,30.5647 L56.7783375,30.5647 C56.7217128,29.3771 56.1401511,28.9025 55.524937,28.9025 C54.8297229,28.9025 54.2949118,29.4341 54.1693703,30.5647 Z M62.2930982,28.3369 L63.5122418,28.3369 L61.4497733,33.9911 C60.8798992,35.5519 60.1846851,36.3657 58.875063,36.3657 L58.875063,35.4389 C59.6498741,35.4389 60.1278589,34.8277 60.4017128,33.9911 L58.2141058,28.3369 L59.4675063,28.3369 L60.9258438,32.4981 L60.9937531,32.4981 L62.2930982,28.3369 Z" id="Rectangle" sketch:type="MSShapeGroup"></path>
            </g>
        </g>
    </g>
</svg>