<?xml version="1.0" encoding="UTF-8" standalone="no"?>
<svg width="100px" height="60px" viewBox="0 0 100 60" version="1.1" xmlns="http://www.w3.org/2000/svg" xmlns:xlink="http://www.w3.org/1999/xlink" xmlns:sketch="http://www.bohemiancoding.com/sketch/ns">
    <!-- Generator: Sketch 3.3.3 (12081) - http://www.bohemiancoding.com/sketch -->
    <title>Payment/Payone/Payone-card-flat</title>
    <desc>Created with Sketch.</desc>
    <defs></defs>
    <g id="Icons:-Payment" stroke="none" stroke-width="1" fill="none" fill-rule="evenodd" sketch:type="MSPage">
        <g id="Payone-card-flat" sketch:type="MSArtboardGroup" fill="#9B9B9B">
            <g id="Payment/Payone/Payone-card-flat" sketch:type="MSLayerGroup">
                <path d="M0,4.0065556 C0,1.79379604 1.79952991,0 3.99732351,0 L96.0026765,0 C98.2103373,0 100,1.79568082 100,4.0065556 L100,55.9934444 C100,58.206204 98.2004701,60 96.0026765,60 L3.99732351,60 C1.78966269,60 0,58.2043192 0,55.9934444 L0,4.0065556 Z M14.8953116,33.5803125 C14.8953116,33.9310875 15.1982196,34.2179625 15.5683086,34.2179625 L18.3345994,34.2179625 C18.7046884,34.2179625 19.0073591,33.9310875 19.0073591,33.5803125 L19.0073591,30.9581625 C19.0073591,30.6073875 18.7046884,30.3202875 18.3345994,30.3202875 L15.5683086,30.3202875 C15.1982196,30.3202875 14.8953116,30.6073875 14.8953116,30.9581625 L14.8953116,33.5803125 Z M10.1097923,33.5911125 C10.1097923,33.9421125 10.4124629,34.2289875 10.7825519,34.2289875 L13.5486053,34.2289875 C13.9186944,34.2289875 14.221365,33.9421125 14.221365,33.5911125 L14.221365,30.9691875 C14.221365,30.6184125 13.9186944,30.3313125 13.5486053,30.3313125 L10.7825519,30.3313125 C10.4124629,30.3313125 10.1097923,30.6184125 10.1097923,30.9691875 L10.1097923,33.5911125 Z M14.8953116,29.0440875 C14.8953116,29.3950875 15.1982196,29.6819625 15.5683086,29.6819625 L18.3345994,29.6819625 C18.7046884,29.6819625 19.0073591,29.3950875 19.0073591,29.0440875 L19.0073591,26.4221625 C19.0073591,26.0713875 18.7046884,25.7845125 18.3345994,25.7845125 L15.5683086,25.7845125 C15.1982196,25.7845125 14.8953116,26.0713875 14.8953116,26.4221625 L14.8953116,29.0440875 Z M10.1097923,29.0440875 C10.1097923,29.3950875 10.4124629,29.6819625 10.7825519,29.6819625 L13.5486053,29.6819625 C13.9186944,29.6819625 14.221365,29.3950875 14.221365,29.0440875 L14.221365,26.4221625 C14.221365,26.0713875 13.9186944,25.7845125 13.5486053,25.7845125 L10.7825519,25.7845125 C10.4124629,25.7845125 10.1097923,26.0713875 10.1097923,26.4221625 L10.1097923,29.0440875 Z M16.2595846,29.6374125 L16.2595846,29.6392125 L16.2595846,29.6374125 Z M25.5550148,27.1711875 L27.9236795,27.1711875 C29.6397626,27.1711875 29.7814837,27.6450375 29.7814837,28.1724375 C29.7814837,28.7493375 29.571632,29.3392875 28.0164985,29.3392875 L25.5550148,29.3392875 L25.5550148,27.1711875 Z M27.9469436,25.7833875 L23.8346588,25.7833875 L23.8346588,34.2168375 L25.5550148,34.2168375 L25.5550148,30.7273125 L28.3186944,30.7273125 C30.385638,30.7273125 31.5713947,29.7958125 31.5713947,28.1724375 C31.5713947,26.4979875 30.4872404,25.7833875 27.9469436,25.7833875 Z M39.6710979,30.7592625 L36.304451,30.7592625 L37.9922849,27.5406375 L39.6710979,30.7592625 Z M37.1279525,25.7833875 L32.5565579,34.2168375 L34.4820178,34.2168375 L35.5618991,32.1472875 L40.3896736,32.1472875 L41.4695549,34.2168375 L43.4306231,34.2168375 L38.8578042,25.7833875 L37.1279525,25.7833875 Z M52.1722255,25.7833875 L49.2663501,29.3190375 L46.3588131,25.7833875 L44.1385163,25.7833875 L48.4053412,30.7468875 L48.4053412,34.2168375 L50.1252226,34.2168375 L50.1252226,30.7468875 L54.392997,25.7833875 L52.1722255,25.7833875 Z M60.9470623,33.0380625 C59.0439169,33.0380625 57.7653412,31.8172125 57.7653412,30.0001125 C57.7653412,28.1827875 59.0439169,26.9619375 60.9470623,26.9619375 C62.8506825,26.9619375 64.1292582,28.1827875 64.1292582,30.0001125 C64.1292582,31.8172125 62.8506825,33.0380625 60.9470623,33.0380625 Z M60.9470623,25.5739125 C57.2779822,25.5739125 55.975905,27.9582375 55.975905,30.0001125 C55.975905,32.0417625 57.2779822,34.4260875 60.9470623,34.4260875 C64.6168546,34.4260875 65.9196439,32.0417625 65.9196439,30.0001125 C65.9196439,27.9582375 64.6168546,25.5739125 60.9470623,25.5739125 Z M76.8312166,32.0836125 L72.0611276,25.7833875 L70.0243323,25.7833875 L70.0243323,34.2168375 L71.7446884,34.2168375 L71.7446884,27.9163875 L76.5147774,34.2168375 L78.5513353,34.2168375 L78.5513353,25.7833875 L76.8312166,25.7833875 L76.8312166,32.0836125 Z M89.8902077,27.1711875 L89.8902077,25.7833875 L83.0280119,25.7833875 L83.0280119,34.2168375 L89.8795252,34.2168375 L89.8795252,32.8285875 L84.7488427,32.8285875 L84.7488427,30.5839875 L89.4875964,30.5839875 L89.4875964,29.1961875 L84.7488427,29.1961875 L84.7488427,27.1711875 L89.8902077,27.1711875 Z" id="Rectangle" sketch:type="MSShapeGroup"></path>
            </g>
        </g>
    </g>
</svg>