<?xml version="1.0" encoding="UTF-8" standalone="no"?>
<svg width="80px" height="10px" viewBox="0 0 80 10" version="1.1" xmlns="http://www.w3.org/2000/svg" xmlns:xlink="http://www.w3.org/1999/xlink" xmlns:sketch="http://www.bohemiancoding.com/sketch/ns">
    <!-- Generator: Sketch 3.3.3 (12081) - http://www.bohemiancoding.com/sketch -->
    <title>Payment/Payone/Payone-alt</title>
    <desc>Created with Sketch.</desc>
    <defs></defs>
    <g id="Icons:-Payment" stroke="none" stroke-width="1" fill="none" fill-rule="evenodd" sketch:type="MSPage">
        <g id="Payone-alt" sketch:type="MSArtboardGroup" transform="translate(-10.000000, -25.000000)">
            <g id="Payment/Payone/Payone-alt" sketch:type="MSLayerGroup" transform="translate(10.000000, 25.000000)">
                <path d="M4.89531157,8.5803125 C4.89531157,8.9310875 5.19821958,9.2179625 5.56830861,9.2179625 L8.33459941,9.2179625 C8.70468843,9.2179625 9.00735905,8.9310875 9.00735905,8.5803125 L9.00735905,5.9581625 C9.00735905,5.6073875 8.70468843,5.3202875 8.33459941,5.3202875 L5.56830861,5.3202875 C5.19821958,5.3202875 4.89531157,5.6073875 4.89531157,5.9581625 L4.89531157,8.5803125" id="Fill-1" fill="#FFFFFF" sketch:type="MSShapeGroup"></path>
                <path d="M0.109792285,8.5911125 C0.109792285,8.9421125 0.412462908,9.2289875 0.782551929,9.2289875 L3.54860534,9.2289875 C3.91869436,9.2289875 4.22136499,8.9421125 4.22136499,8.5911125 L4.22136499,5.9691875 C4.22136499,5.6184125 3.91869436,5.3313125 3.54860534,5.3313125 L0.782551929,5.3313125 C0.412462908,5.3313125 0.109792285,5.6184125 0.109792285,5.9691875 L0.109792285,8.5911125" id="Fill-2" fill="#FFFFFF" sketch:type="MSShapeGroup"></path>
                <path d="M4.89531157,4.0440875 C4.89531157,4.3950875 5.19821958,4.6819625 5.56830861,4.6819625 L8.33459941,4.6819625 C8.70468843,4.6819625 9.00735905,4.3950875 9.00735905,4.0440875 L9.00735905,1.4221625 C9.00735905,1.0713875 8.70468843,0.7845125 8.33459941,0.7845125 L5.56830861,0.7845125 C5.19821958,0.7845125 4.89531157,1.0713875 4.89531157,1.4221625 L4.89531157,4.0440875" id="Fill-3" fill="#2CADD8" sketch:type="MSShapeGroup"></path>
                <path d="M0.109792285,4.0440875 C0.109792285,4.3950875 0.412462908,4.6819625 0.782551929,4.6819625 L3.54860534,4.6819625 C3.91869436,4.6819625 4.22136499,4.3950875 4.22136499,4.0440875 L4.22136499,1.4221625 C4.22136499,1.0713875 3.91869436,0.7845125 3.54860534,0.7845125 L0.782551929,0.7845125 C0.412462908,0.7845125 0.109792285,1.0713875 0.109792285,1.4221625 L0.109792285,4.0440875" id="Fill-4" fill="#FFFFFF" sketch:type="MSShapeGroup"></path>
                <path id="Fill-5" fill="#FFFFFF" sketch:type="MSShapeGroup" d="M6.25958457,4.6374125 L6.25958457,4.6392125 L6.25958457,4.6374125"></path>
                <path d="M15.5550148,2.1711875 L17.9236795,2.1711875 C19.6397626,2.1711875 19.7814837,2.6450375 19.7814837,3.1724375 C19.7814837,3.7493375 19.571632,4.3392875 18.0164985,4.3392875 L15.5550148,4.3392875 L15.5550148,2.1711875 L15.5550148,2.1711875 Z M17.9469436,0.7833875 L13.8346588,0.7833875 L13.8346588,9.2168375 L15.5550148,9.2168375 L15.5550148,5.7273125 L18.3186944,5.7273125 C20.385638,5.7273125 21.5713947,4.7958125 21.5713947,3.1724375 C21.5713947,1.4979875 20.4872404,0.7833875 17.9469436,0.7833875 L17.9469436,0.7833875 Z" id="Fill-6" fill="#FFFFFF" sketch:type="MSShapeGroup"></path>
                <path d="M29.6710979,5.7592625 L26.304451,5.7592625 L27.9922849,2.5406375 L29.6710979,5.7592625 L29.6710979,5.7592625 Z M27.1279525,0.7833875 L22.5565579,9.2168375 L24.4820178,9.2168375 L25.5618991,7.1472875 L30.3896736,7.1472875 L31.4695549,9.2168375 L33.4306231,9.2168375 L28.8578042,0.7833875 L27.1279525,0.7833875 L27.1279525,0.7833875 Z" id="Fill-7" fill="#FFFFFF" sketch:type="MSShapeGroup"></path>
                <path d="M42.1722255,0.7833875 L39.2663501,4.3190375 L36.3588131,0.7833875 L34.1385163,0.7833875 L38.4053412,5.7468875 L38.4053412,9.2168375 L40.1252226,9.2168375 L40.1252226,5.7468875 L44.392997,0.7833875 L42.1722255,0.7833875" id="Fill-8" fill="#FFFFFF" sketch:type="MSShapeGroup"></path>
                <path d="M50.9470623,8.0380625 C49.0439169,8.0380625 47.7653412,6.8172125 47.7653412,5.0001125 C47.7653412,3.1827875 49.0439169,1.9619375 50.9470623,1.9619375 C52.8506825,1.9619375 54.1292582,3.1827875 54.1292582,5.0001125 C54.1292582,6.8172125 52.8506825,8.0380625 50.9470623,8.0380625 L50.9470623,8.0380625 Z M50.9470623,0.5739125 C47.2779822,0.5739125 45.975905,2.9582375 45.975905,5.0001125 C45.975905,7.0417625 47.2779822,9.4260875 50.9470623,9.4260875 C54.6168546,9.4260875 55.9196439,7.0417625 55.9196439,5.0001125 C55.9196439,2.9582375 54.6168546,0.5739125 50.9470623,0.5739125 L50.9470623,0.5739125 Z" id="Fill-9" fill="#2CADD8" sketch:type="MSShapeGroup"></path>
                <path d="M66.8312166,7.0836125 L62.0611276,0.7833875 L60.0243323,0.7833875 L60.0243323,9.2168375 L61.7446884,9.2168375 L61.7446884,2.9163875 L66.5147774,9.2168375 L68.5513353,9.2168375 L68.5513353,0.7833875 L66.8312166,0.7833875 L66.8312166,7.0836125" id="Fill-10" fill="#2CADD8" sketch:type="MSShapeGroup"></path>
                <path d="M79.8902077,2.1711875 L79.8902077,0.7833875 L73.0280119,0.7833875 L73.0280119,9.2168375 L79.8795252,9.2168375 L79.8795252,7.8285875 L74.7488427,7.8285875 L74.7488427,5.5839875 L79.4875964,5.5839875 L79.4875964,4.1961875 L74.7488427,4.1961875 L74.7488427,2.1711875 L79.8902077,2.1711875" id="Fill-11" fill="#2CADD8" sketch:type="MSShapeGroup"></path>
            </g>
        </g>
    </g>
</svg>