<?xml version="1.0" encoding="UTF-8" standalone="no"?>
<svg width="100px" height="60px" viewBox="0 0 100 60" version="1.1" xmlns="http://www.w3.org/2000/svg" xmlns:xlink="http://www.w3.org/1999/xlink" xmlns:sketch="http://www.bohemiancoding.com/sketch/ns">
    <!-- Generator: Sketch 3.3.3 (12081) - http://www.bohemiancoding.com/sketch -->
    <title>Payment/Payone/Payone-card-light</title>
    <desc>Created with Sketch.</desc>
    <defs></defs>
    <g id="Icons:-Payment" stroke="none" stroke-width="1" fill="none" fill-rule="evenodd" sketch:type="MSPage">
        <g id="Payone-card-light" sketch:type="MSArtboardGroup">
            <g id="Payment/Payone/Payone-card-light" sketch:type="MSLayerGroup">
                <rect id="Rectangle" fill="#FFFFFF" sketch:type="MSShapeGroup" x="0" y="0" width="100" height="60" rx="4"></rect>
                <path d="M13.8953116,33.5803125 C13.8953116,33.9310875 14.1982196,34.2179625 14.5683086,34.2179625 L17.3345994,34.2179625 C17.7046884,34.2179625 18.0073591,33.9310875 18.0073591,33.5803125 L18.0073591,30.9581625 C18.0073591,30.6073875 17.7046884,30.3202875 17.3345994,30.3202875 L14.5683086,30.3202875 C14.1982196,30.3202875 13.8953116,30.6073875 13.8953116,30.9581625 L13.8953116,33.5803125" id="Fill-1" fill="#00324F" sketch:type="MSShapeGroup"></path>
                <path d="M9.10979228,33.5911125 C9.10979228,33.9421125 9.41246291,34.2289875 9.78255193,34.2289875 L12.5486053,34.2289875 C12.9186944,34.2289875 13.221365,33.9421125 13.221365,33.5911125 L13.221365,30.9691875 C13.221365,30.6184125 12.9186944,30.3313125 12.5486053,30.3313125 L9.78255193,30.3313125 C9.41246291,30.3313125 9.10979228,30.6184125 9.10979228,30.9691875 L9.10979228,33.5911125" id="Fill-2" fill="#00324F" sketch:type="MSShapeGroup"></path>
                <path d="M13.8953116,29.0440875 C13.8953116,29.3950875 14.1982196,29.6819625 14.5683086,29.6819625 L17.3345994,29.6819625 C17.7046884,29.6819625 18.0073591,29.3950875 18.0073591,29.0440875 L18.0073591,26.4221625 C18.0073591,26.0713875 17.7046884,25.7845125 17.3345994,25.7845125 L14.5683086,25.7845125 C14.1982196,25.7845125 13.8953116,26.0713875 13.8953116,26.4221625 L13.8953116,29.0440875" id="Fill-3" fill="#2BADD8" sketch:type="MSShapeGroup"></path>
                <path d="M9.10979228,29.0440875 C9.10979228,29.3950875 9.41246291,29.6819625 9.78255193,29.6819625 L12.5486053,29.6819625 C12.9186944,29.6819625 13.221365,29.3950875 13.221365,29.0440875 L13.221365,26.4221625 C13.221365,26.0713875 12.9186944,25.7845125 12.5486053,25.7845125 L9.78255193,25.7845125 C9.41246291,25.7845125 9.10979228,26.0713875 9.10979228,26.4221625 L9.10979228,29.0440875" id="Fill-4" fill="#00324F" sketch:type="MSShapeGroup"></path>
                <path id="Fill-5" fill="#2BADD8" sketch:type="MSShapeGroup" d="M15.2595846,29.6374125 L15.2595846,29.6392125 L15.2595846,29.6374125"></path>
                <path d="M24.5550148,27.1711875 L26.9236795,27.1711875 C28.6397626,27.1711875 28.7814837,27.6450375 28.7814837,28.1724375 C28.7814837,28.7493375 28.571632,29.3392875 27.0164985,29.3392875 L24.5550148,29.3392875 L24.5550148,27.1711875 L24.5550148,27.1711875 Z M26.9469436,25.7833875 L22.8346588,25.7833875 L22.8346588,34.2168375 L24.5550148,34.2168375 L24.5550148,30.7273125 L27.3186944,30.7273125 C29.385638,30.7273125 30.5713947,29.7958125 30.5713947,28.1724375 C30.5713947,26.4979875 29.4872404,25.7833875 26.9469436,25.7833875 L26.9469436,25.7833875 Z" id="Fill-6" fill="#00324F" sketch:type="MSShapeGroup"></path>
                <path d="M38.6710979,30.7592625 L35.304451,30.7592625 L36.9922849,27.5406375 L38.6710979,30.7592625 L38.6710979,30.7592625 Z M36.1279525,25.7833875 L31.5565579,34.2168375 L33.4820178,34.2168375 L34.5618991,32.1472875 L39.3896736,32.1472875 L40.4695549,34.2168375 L42.4306231,34.2168375 L37.8578042,25.7833875 L36.1279525,25.7833875 L36.1279525,25.7833875 Z" id="Fill-7" fill="#00324F" sketch:type="MSShapeGroup"></path>
                <path d="M51.1722255,25.7833875 L48.2663501,29.3190375 L45.3588131,25.7833875 L43.1385163,25.7833875 L47.4053412,30.7468875 L47.4053412,34.2168375 L49.1252226,34.2168375 L49.1252226,30.7468875 L53.392997,25.7833875 L51.1722255,25.7833875" id="Fill-8" fill="#00324F" sketch:type="MSShapeGroup"></path>
                <path d="M59.9470623,33.0380625 C58.0439169,33.0380625 56.7653412,31.8172125 56.7653412,30.0001125 C56.7653412,28.1827875 58.0439169,26.9619375 59.9470623,26.9619375 C61.8506825,26.9619375 63.1292582,28.1827875 63.1292582,30.0001125 C63.1292582,31.8172125 61.8506825,33.0380625 59.9470623,33.0380625 L59.9470623,33.0380625 Z M59.9470623,25.5739125 C56.2779822,25.5739125 54.975905,27.9582375 54.975905,30.0001125 C54.975905,32.0417625 56.2779822,34.4260875 59.9470623,34.4260875 C63.6168546,34.4260875 64.9196439,32.0417625 64.9196439,30.0001125 C64.9196439,27.9582375 63.6168546,25.5739125 59.9470623,25.5739125 L59.9470623,25.5739125 Z" id="Fill-9" fill="#2BADD8" sketch:type="MSShapeGroup"></path>
                <path d="M75.8312166,32.0836125 L71.0611276,25.7833875 L69.0243323,25.7833875 L69.0243323,34.2168375 L70.7446884,34.2168375 L70.7446884,27.9163875 L75.5147774,34.2168375 L77.5513353,34.2168375 L77.5513353,25.7833875 L75.8312166,25.7833875 L75.8312166,32.0836125" id="Fill-10" fill="#2BADD8" sketch:type="MSShapeGroup"></path>
                <path d="M88.8902077,27.1711875 L88.8902077,25.7833875 L82.0280119,25.7833875 L82.0280119,34.2168375 L88.8795252,34.2168375 L88.8795252,32.8285875 L83.7488427,32.8285875 L83.7488427,30.5839875 L88.4875964,30.5839875 L88.4875964,29.1961875 L83.7488427,29.1961875 L83.7488427,27.1711875 L88.8902077,27.1711875" id="Fill-11" fill="#2BADD8" sketch:type="MSShapeGroup"></path>
            </g>
        </g>
    </g>
</svg>