<?xml version="1.0" encoding="UTF-8" standalone="no"?>
<svg width="76px" height="16px" viewBox="0 0 76 16" version="1.1" xmlns="http://www.w3.org/2000/svg" xmlns:xlink="http://www.w3.org/1999/xlink" xmlns:sketch="http://www.bohemiancoding.com/sketch/ns">
    <!-- Generator: Sketch 3.3.3 (12081) - http://www.bohemiancoding.com/sketch -->
    <title>Payment/Verifone/Verifone</title>
    <desc>Created with Sketch.</desc>
    <defs></defs>
    <g id="Icons:-Payment" stroke="none" stroke-width="1" fill="none" fill-rule="evenodd" sketch:type="MSPage">
        <g id="Verifone" sketch:type="MSArtboardGroup" transform="translate(-12.000000, -22.000000)">
            <g id="Payment/Verifone/Verifone" sketch:type="MSLayerGroup" transform="translate(12.000000, 22.000000)">
                <path d="M31.128744,3.64780172 L34.2105051,3.64780172 L34.7059317,1.16168103 L31.6236519,1.16168103 L31.128744,3.64780172 L31.128744,3.64780172 Z M30.8094403,5.24685345 L33.8919795,5.24685345 L31.9338771,15.0630603 C31.7909556,15.1127155 31.3497406,15.2872845 30.7404437,15.2872845 C29.9181911,15.2872845 29.1638976,14.9681466 29.1638976,13.836681 C29.1638976,13.6238362 29.1885392,13.3815086 29.243529,13.1060776 C29.8559386,10.0429741 30.8094403,5.24685345 30.8094403,5.24685345 L30.8094403,5.24685345 Z M61.4151331,5.02262931 C59.3636519,5.02262931 58.5481433,6.21900862 58.1652901,6.94728448 L58.1289761,6.94728448 L58.247256,5.24892241 L55.2012901,5.24892241 C55.1813174,5.62237069 55.0495495,6.79961207 54.8542321,7.8149569 C54.8542321,7.8149569 54.1507782,11.3779741 54.0177133,12.0602155 C53.9162935,12.5813362 53.7308328,13.3517672 53.7308328,13.7989224 C53.7308328,14.7509052 54.215884,15.2875431 55.298041,15.2875431 C55.9050034,15.2875431 56.342587,15.1222845 56.5018498,15.0630603 L57.5204573,9.95090517 C57.8029283,8.53935345 58.8282799,7.61556034 60.0473925,7.61556034 C61.0309829,7.61556034 61.5012491,8.32987069 61.5012491,8.91383621 C61.5012491,9.42202586 61.3731126,9.98530172 61.2740273,10.4834052 L60.8359249,12.6726293 C60.7837884,12.9353879 60.6722526,13.4402155 60.6722526,13.8361638 C60.6722526,14.8039224 61.2203345,15.2875431 62.2612491,15.2875431 C62.8295631,15.2875431 63.1898498,15.1460776 63.4450853,15.0630603 L64.3591604,10.4803017 C64.5573311,9.44452586 64.6304778,8.89909483 64.6304778,8.23987069 C64.6304778,6.34211207 63.5158976,5.02262931 61.4151331,5.02262931 L61.4151331,5.02262931 Z M47.7237201,7.39625 C46.0008805,7.39625 45.0466007,9.1499569 45.0466007,10.713319 C45.0466007,12.0317672 45.644744,12.9146983 47.0041843,12.9146983 C48.5410444,12.9146983 49.7438157,11.6125431 49.7438157,9.3899569 C49.7438157,8.37306034 49.2001433,7.39625 47.7237201,7.39625 L47.7237201,7.39625 Z M46.8153515,15.2878017 C43.5151877,15.2878017 41.9360478,13.3171121 41.9360478,10.8051293 C41.9360478,7.35849138 44.3127986,5.02262931 47.9856997,5.02262931 C51.1725119,5.02262931 52.864744,6.94392241 52.864744,9.41142241 C52.864744,13.1089224 50.3261365,15.2878017 46.8153515,15.2878017 L46.8153515,15.2878017 Z M35.2732082,12.9242672 C35.2029147,13.2775431 35.1585597,13.5250431 35.1585597,13.829181 C35.1585597,14.9544397 35.9138908,15.2875431 36.7143549,15.2875431 C37.3545188,15.2875431 37.7506007,15.1132328 37.8955973,15.0630603 L39.3774676,7.62228448 L41.7739317,7.62202586 L42.2470512,5.24685345 L39.8508464,5.24711207 L39.9673106,4.66211207 C40.184157,3.5650431 40.7026689,3.08271552 41.5996246,3.08271552 C42.1985461,3.08271552 42.6830785,3.18875 42.8514198,3.2324569 L43.3024915,0.973922414 C43.1102867,0.925560345 42.224744,0.709612069 40.9140683,0.709612069 C38.8254949,0.709612069 37.4572355,1.97271552 37.0525939,4.00702586 L36.8048805,5.24685345 L35.2446758,5.24685345 L34.7712969,7.62202586 L36.3325392,7.62202586 C36.3325392,7.62202586 35.7167577,10.6985776 35.2732082,12.9242672 L35.2732082,12.9242672 Z M28.1779727,5.02288793 C26.6309966,5.02288793 25.7802116,6.0925431 25.4474198,6.94573276 L25.411884,6.94573276 L25.530942,5.24685345 L22.4836792,5.24685345 C22.4567031,5.83573276 22.3329761,6.83142241 22.0224915,8.39685345 C21.7078567,9.98323276 21.4012628,11.5657328 21.0848123,13.105819 C21.0306007,13.3690948 21.0064778,13.626681 21.0064778,13.8446983 C21.0064778,14.6513362 21.4067099,15.2867672 22.5895085,15.2867672 C23.1754608,15.2867672 23.5824369,15.1352155 23.7777543,15.0630603 L24.6843072,10.5123707 C25.0108737,8.77133621 25.6040887,7.62021552 27.3251126,7.62021552 C28.1079386,7.62021552 28.8515973,7.78650862 29.0074881,7.83202586 L29.5291126,5.21375 C29.4165392,5.1749569 28.9646894,5.02288793 28.1779727,5.02288793 L28.1779727,5.02288793 Z M72.8838703,9.22547414 C73.0488396,8.32547414 72.5230648,7.39625 71.3348191,7.39625 C69.8838157,7.39625 69.2465051,8.38340517 68.961959,9.22547414 L72.8838703,9.22547414 L72.8838703,9.22547414 Z M74.2593925,12.8782328 C74.2593925,14.2434914 72.9318567,15.2903879 70.5810444,15.2903879 C67.3319795,15.2903879 65.7432423,13.2749569 65.7432423,10.8077155 C65.7432423,8.35857759 67.3758157,5.02521552 71.3607577,5.02521552 C73.9880751,5.02521552 75.9526621,6.3250431 75.9526621,9.30073276 C75.9526621,10.0326293 75.7889898,10.8281466 75.7186962,11.1467672 L68.7347372,11.1467672 C68.7230648,11.860819 69.3274334,13.098319 71.7550239,13.098319 C72.8369215,13.098319 74.062,12.7176293 74.2593925,12.6206466 L74.2593925,12.8782328 L74.2593925,12.8782328 Z M17.1927304,9.22547414 C17.3574403,8.32547414 16.8316655,7.39625 15.6434198,7.39625 C14.1924164,7.39625 13.5553652,8.38340517 13.2705597,9.22547414 L17.1927304,9.22547414 L17.1927304,9.22547414 Z M18.5679932,12.8782328 C18.5679932,14.2434914 17.2404573,15.2903879 14.8899044,15.2903879 C11.6405802,15.2903879 10.0521024,13.2749569 10.0521024,10.8077155 C10.0521024,8.35857759 11.6844164,5.02521552 15.6696177,5.02521552 C18.2969352,5.02521552 20.2615222,6.3250431 20.2615222,9.30073276 C20.2615222,10.0326293 20.0978498,10.8281466 20.0272969,11.1467672 L13.0435973,11.1467672 C13.0319249,11.860819 13.6360341,13.098319 16.0636246,13.098319 C17.1455222,13.098319 18.3706007,12.7176293 18.5679932,12.6206466 L18.5679932,12.8782328 L18.5679932,12.8782328 Z M0.047337884,1.90676724 L3.14803413,1.90676724 L3.14803413,11.6668534 C3.14803413,13.1345259 3.88157679,13.88375 5.05918771,13.88375 C5.17928328,13.88375 5.25009556,13.8684914 5.27344027,13.8628017 C4.7572628,14.6407328 4.08804778,15.27875 2.5514471,15.27875 C0.925617747,15.27875 0.047337884,14.1547845 0.047337884,12.4680603 L0.047337884,1.90676724 L0.047337884,1.90676724 Z" id="Fill-1" fill="#1A1918" sketch:type="MSShapeGroup"></path>
                <path d="M4.0117884,10.65875 L4.0117884,11.6831466 C4.0117884,12.6726293 4.54845734,13.0271983 5.13440956,13.0271983 C5.73333106,13.0271983 6.05393174,12.6227155 6.34807509,12.1628879 C6.84090785,11.3929741 12.8633242,1.90676724 12.8633242,1.90676724 L9.64045734,1.90676724 L4.0117884,10.65875" id="Fill-2" fill="#00A3DB" sketch:type="MSShapeGroup"></path>
            </g>
        </g>
    </g>
</svg>