<?xml version="1.0" encoding="UTF-8" standalone="no"?>
<svg width="64px" height="32px" viewBox="0 0 64 32" version="1.1" xmlns="http://www.w3.org/2000/svg" xmlns:xlink="http://www.w3.org/1999/xlink" xmlns:sketch="http://www.bohemiancoding.com/sketch/ns">
    <!-- Generator: Sketch 3.3.3 (12081) - http://www.bohemiancoding.com/sketch -->
    <title>Payment/PayU/PayU-alt</title>
    <desc>Created with Sketch.</desc>
    <defs></defs>
    <g id="Icons:-Payment" stroke="none" stroke-width="1" fill="none" fill-rule="evenodd" sketch:type="MSPage">
        <g id="PayU-alt" sketch:type="MSArtboardGroup" transform="translate(-18.000000, -14.000000)" fill="#FFFFFF">
            <g id="Payment/PayU/PayU-alt" sketch:type="MSLayerGroup" transform="translate(18.000000, 14.000000)">
                <path d="M54.7713548,11.8312095 C54.3666427,11.8309941 54.0386084,11.5029597 54.0388238,11.0982477 L54.0399007,7.85990483 L53.7698055,7.85990483 C52.0945258,7.85990483 51.4714113,8.13646167 51.4714113,9.66247823 L51.4714113,13.2333785 C51.4711959,13.2409171 51.4703344,13.2484556 51.4703344,13.2559942 L51.4703344,14.0387103 C51.4699036,14.0658491 51.4681805,14.0910494 51.4681805,14.1190497 L51.4681805,19.108273 C51.4681805,19.7178181 51.3507946,20.2030849 51.1082689,20.5800121 C50.6516486,21.2836813 49.7472387,21.6037463 48.3002692,21.6056848 C46.8539458,21.6037463 45.9497514,21.2838967 45.4929157,20.5808736 C45.2501746,20.2037311 45.1325733,19.7182489 45.1325733,19.108273 L45.1325733,14.1190497 C45.1325733,14.0910494 45.1308502,14.0658491 45.1304194,14.0387103 L45.1304194,13.2559942 C45.1304194,13.2484556 45.1293425,13.2409171 45.1291271,13.2333785 L45.1291271,9.66247823 C45.1291271,8.13646167 44.506228,7.85990483 42.8309483,7.85990483 L42.3034657,7.85990483 C40.6279706,7.85990483 40.0050715,8.13646167 40.0050715,9.66247823 L40.0050715,19.108273 C40.0050715,20.627828 40.3477521,21.9145497 41.0098516,22.9514224 C42.288604,24.9611981 44.7657693,26.0316713 48.287346,26.0316713 C48.2918691,26.0316713 48.2959615,26.0314559 48.3002692,26.0314559 C48.3047923,26.0314559 48.3088847,26.0316713 48.3134078,26.0316713 C51.8349845,26.0316713 54.3119344,24.9611981 55.5909022,22.9514224 C56.2530017,21.9145497 56.5956823,20.627828 56.5956823,19.108273 L56.5956823,11.8318556 L54.7713548,11.8312095" id="Fill-1" sketch:type="MSShapeGroup"></path>
                <path d="M62.5164542,6.61324514 L59.761009,6.61216821 C59.4603288,6.61216821 59.2167261,6.36835018 59.2169415,6.06788538 L59.2178031,3.27819357 C59.2180184,2.97751338 59.4616211,2.73391074 59.7623013,2.73412613 L62.5179619,2.73498767 C62.8184267,2.73520306 63.0620294,2.9788057 63.061814,3.27948589 L63.0609525,6.0691777 C63.0607371,6.3696425 62.8171344,6.61324514 62.5164542,6.61324514" id="Fill-3" sketch:type="MSShapeGroup"></path>
                <path d="M58.8445375,2.73434151 L56.9730402,2.73369535 C56.7688534,2.73369535 56.6034362,2.56806279 56.6034362,2.36387595 L56.6040824,0.469116931 C56.6042978,0.265145487 56.769715,0.0997283071 56.9739018,0.0997283071 L58.845399,0.100374468 C59.0495858,0.100374468 59.215003,0.266007035 59.215003,0.470193866 L59.2143569,2.36495289 C59.2141415,2.56892433 59.0487243,2.73434151 58.8445375,2.73434151" id="Fill-4" sketch:type="MSShapeGroup"></path>
                <path d="M11.4647925,13.6070749 C11.4647925,15.8486069 10.8925094,17.0631739 7.8732151,17.0631739 L3.22559544,17.0631739 L3.22559544,11.2783112 C3.22559544,10.4762101 3.52390637,10.1778992 4.32600738,10.1778992 L7.8732151,10.1778992 C10.1479167,10.1778992 11.4647925,10.7389822 11.4647925,13.6070749 L11.4647925,13.6070749 Z M7.8732151,7.85667402 L3.86551007,7.85667402 C1.7239176,7.85667402 0.768891853,8.81169977 0.768891853,10.9532922 L0.768891853,24.7091954 C0.768891853,25.5364967 1.03446397,25.8020688 1.86176525,25.8020688 L2.13272204,25.8020688 C2.96002332,25.8020688 3.22559544,25.5364967 3.22559544,24.7091954 L3.22559544,19.3574758 L7.8732151,19.3574758 C11.9995983,19.3574758 13.9214961,17.5301328 13.9214961,13.6070749 C13.9214961,9.68380154 11.9995983,7.85667402 7.8732151,7.85667402 L7.8732151,7.85667402 Z" id="Fill-5" sketch:type="MSShapeGroup"></path>
                <path d="M22.5662669,19.6193863 L22.5662669,21.5050991 C22.5662669,23.0423157 21.996353,23.9322946 19.0830291,23.9322946 C17.1583312,23.9322946 16.2226903,23.2357332 16.2226903,21.8029792 C16.2226903,20.231516 17.1613467,19.6193863 19.5704497,19.6193863 L22.5662669,19.6193863 L22.5662669,19.6193863 Z M19.0830291,11.8012707 C17.4947657,11.8012707 16.4994626,12.0005036 16.1218892,12.075889 C15.4535435,12.2212752 15.1739713,12.4047849 15.1739713,13.1648855 L15.1739713,13.3815647 C15.1739713,13.6794449 15.2181256,13.8857856 15.3126804,14.0309564 C15.4227432,14.2000352 15.600222,14.2857592 15.8401631,14.2857592 C15.9571182,14.2857592 16.092812,14.266159 16.2545676,14.2256662 C16.6364487,14.1302498 17.8566157,13.9329553 19.1913687,13.9329553 C21.5886255,13.9329553 22.5662669,14.5969933 22.5662669,16.2248879 L22.5662669,17.6772421 L19.543311,17.6772421 C15.6570842,17.6772421 13.8471876,18.9880871 13.8471876,21.8029792 C13.8471876,24.5332242 15.7163156,26.0368405 19.1101678,26.0368405 C23.1432885,26.0368405 24.9417696,24.6643949 24.9417696,21.5862999 L24.9417696,16.2248879 C24.9417696,13.2482402 23.0252565,11.8012707 19.0830291,11.8012707 L19.0830291,11.8012707 Z" id="Fill-6" sketch:type="MSShapeGroup"></path>
                <path d="M38.2339446,12.4424776 C38.0629273,12.2273061 37.7389854,12.1975827 37.4146126,12.1975827 L37.1707946,12.1975827 C36.362232,12.1975827 36.044967,12.4472161 35.8659804,13.2232553 L33.6186329,22.5645875 C33.3379838,23.7125999 32.9442564,23.9226022 32.2696645,23.9226022 C31.4438709,23.9226022 31.1132519,23.7255232 30.7839253,22.5602797 L28.2386976,13.2187322 C28.0280492,12.4362314 27.7172458,12.1975827 26.9082524,12.1975827 L26.6915732,12.1975827 C26.3648312,12.1975827 26.0398122,12.2277368 25.8728874,12.4454931 C25.7057471,12.66368 25.7621785,12.9891297 25.8483332,13.3089793 L28.4206996,22.731297 C28.9031664,24.5345165 29.4769572,26.0271481 31.619842,26.0271481 C32.020031,26.0271481 32.3898504,25.9715783 32.6976383,25.8677618 C32.0478159,27.9119994 31.3863626,28.8138245 29.4364645,29.013919 C29.0407987,29.0468732 28.7836266,29.10352 28.6401789,29.2956451 C28.4915619,29.4948781 28.5253777,29.7800504 28.5785783,30.0352839 L28.6322096,30.2767327 C28.7487339,30.8354465 28.9468899,31.1817887 29.5740968,31.1817887 C29.6400052,31.1817887 29.7108675,31.1783425 29.7868991,31.1716655 C32.6984999,30.9812634 34.2585476,29.4136772 35.1715729,25.7613606 L38.2862836,13.3023023 C38.3601613,12.9826681 38.4047464,12.6572184 38.2339446,12.4424776" id="Fill-7" sketch:type="MSShapeGroup"></path>
                <path d="M58.4831182,6.17732588 L54.7730779,6.17603356 C54.3683658,6.17581818 54.0403315,6.5038525 54.0401161,6.9083492 L54.0399007,7.42613944 L54.2972881,7.42613944 C55.9727832,7.42613944 56.5956823,7.70269628 56.5956823,9.22871284 L56.5956823,11.3980902 L58.4813951,11.3987364 C58.8861071,11.3989518 59.2141415,11.0709175 59.2143569,10.6662054 L59.2156492,6.91028768 C59.2158646,6.5055756 58.8878302,6.17732588 58.4831182,6.17732588" id="Fill-9" sketch:type="MSShapeGroup"></path>
            </g>
        </g>
    </g>
</svg>