<?xml version="1.0" encoding="UTF-8" standalone="no"?>
<svg width="64px" height="32px" viewBox="0 0 64 32" version="1.1" xmlns="http://www.w3.org/2000/svg" xmlns:xlink="http://www.w3.org/1999/xlink" xmlns:sketch="http://www.bohemiancoding.com/sketch/ns">
    <!-- Generator: Sketch 3.3.3 (12081) - http://www.bohemiancoding.com/sketch -->
    <title>Payment/PayU/PayU-flat</title>
    <desc>Created with Sketch.</desc>
    <defs></defs>
    <g id="Icons:-Payment" stroke="none" stroke-width="1" fill="none" fill-rule="evenodd" sketch:type="MSPage">
        <g id="PayU-flat" sketch:type="MSArtboardGroup" transform="translate(-18.000000, -14.000000)" fill="#9B9B9B">
            <g id="Payment/PayU/PayU-flat" sketch:type="MSLayerGroup" transform="translate(18.000000, 14.000000)">
                <path d="M54.8415357,11.8183613 C54.4355763,11.8181453 54.106531,11.4891 54.106747,11.0831406 L54.1078273,7.83481721 L53.8368996,7.83481721 C52.1564567,7.83481721 51.5314218,8.1122264 51.5314218,9.64294611 L51.5314218,13.2248518 C51.5312058,13.2324136 51.5303416,13.2399754 51.5303416,13.2475372 L51.5303416,14.0326657 C51.5299095,14.0598881 51.5281811,14.085166 51.5281811,14.1132526 L51.5281811,19.1178527 C51.5281811,19.7292764 51.4104334,20.2160388 51.1671602,20.5941276 C50.7091326,21.2999655 49.8019354,21.6210169 48.3505063,21.6229614 C46.8997254,21.6210169 45.9927442,21.3001815 45.5345006,20.5949918 C45.2910113,20.2166869 45.1730476,19.7297085 45.1730476,19.1178527 L45.1730476,14.1132526 C45.1730476,14.085166 45.1713192,14.0598881 45.1708871,14.0326657 L45.1708871,13.2475372 C45.1708871,13.2399754 45.1698069,13.2324136 45.1695908,13.2248518 L45.1695908,9.64294611 C45.1695908,8.1122264 44.544772,7.83481721 42.8643291,7.83481721 L42.3352207,7.83481721 C40.6545618,7.83481721 40.029743,8.1122264 40.029743,9.64294611 L40.029743,19.1178527 C40.029743,20.6420909 40.3734797,21.9327782 41.0376198,22.9728466 C42.3203132,24.9888163 44.8051132,26.0625887 48.3375433,26.0625887 C48.3420803,26.0625887 48.3461853,26.0623726 48.3505063,26.0623726 C48.3550434,26.0623726 48.3591483,26.0625887 48.3636854,26.0625887 C51.8961155,26.0625887 54.3806994,24.9888163 55.6636089,22.9728466 C56.3277489,21.9327782 56.6714857,20.6420909 56.6714857,19.1178527 L56.6714857,11.8190095 L54.8415357,11.8183613" id="Fill-1" sketch:type="MSShapeGroup"></path>
                <path d="M62.6105054,6.58431535 L59.8465679,6.58323509 C59.544961,6.58323509 59.3006076,6.33866562 59.3008236,6.03727479 L59.3016878,3.2389852 C59.3019039,2.93737833 59.5462573,2.69302491 59.8478642,2.69324096 L62.6120177,2.69410516 C62.9134085,2.69432121 63.157762,2.93867463 63.1575459,3.24028151 L63.1566817,6.0385711 C63.1564657,6.33996192 62.9121122,6.58431535 62.6105054,6.58431535" id="Fill-3" sketch:type="MSShapeGroup"></path>
                <path d="M58.9272718,2.69345701 L57.0500067,2.69280885 C56.8451905,2.69280885 56.6792635,2.52666581 56.6792635,2.32184968 L56.6799117,0.421251046 C56.6801277,0.216650965 56.8460547,0.0507239732 57.0508709,0.0507239732 L58.928136,0.0513721255 C59.1329522,0.0513721255 59.2988791,0.217515169 59.2988791,0.4223313 L59.298231,2.32292993 C59.2980149,2.52753001 59.132088,2.69345701 58.9272718,2.69345701" id="Fill-4" sketch:type="MSShapeGroup"></path>
                <path d="M11.4015034,13.5996999 C11.4015034,15.8481403 10.8274565,17.0664506 7.79885681,17.0664506 L3.13691327,17.0664506 L3.13691327,11.263759 C3.13691327,10.4591859 3.43614359,10.1599556 4.24071666,10.1599556 L7.79885681,10.1599556 C10.080569,10.1599556 11.4015034,10.7227679 11.4015034,13.5996999 L11.4015034,13.5996999 Z M7.79885681,7.83157645 L3.77880011,7.83157645 C1.63060729,7.83157645 0.672638174,8.78954557 0.672638174,10.9377384 L0.672638174,24.7360369 C0.672638174,25.565888 0.939028775,25.8322786 1.76887979,25.8322786 L2.04067166,25.8322786 C2.87052267,25.8322786 3.13691327,25.565888 3.13691327,24.7360369 L3.13691327,19.3678234 L7.79885681,19.3678234 C11.9379575,19.3678234 13.8657785,17.5348487 13.8657785,13.5996999 C13.8657785,9.66433514 11.9379575,7.83157645 7.79885681,7.83157645 L7.79885681,7.83157645 Z" id="Fill-5" sketch:type="MSShapeGroup"></path>
                <path d="M22.5371923,19.6305412 L22.5371923,21.5220657 C22.5371923,23.06402 21.9655219,23.9567418 19.0432192,23.9567418 C17.1125895,23.9567418 16.174065,23.2580336 16.174065,21.8208639 C16.174065,20.2445575 17.1156142,19.6305412 19.5321421,19.6305412 L22.5371923,19.6305412 L22.5371923,19.6305412 Z M19.0432192,11.7883303 C17.4500608,11.7883303 16.4516902,11.9881772 16.0729532,12.063795 C15.4025477,12.2096293 15.1221138,12.3937045 15.1221138,13.1561477 L15.1221138,13.3734948 C15.1221138,13.672293 15.1664042,13.8792696 15.2612504,14.0248879 C15.3716524,14.1944877 15.5496782,14.2804759 15.7903588,14.2804759 C15.9076744,14.2804759 16.0437863,14.2608153 16.2060405,14.2201978 C16.5890985,14.1244873 17.8130261,13.9265848 19.1518927,13.9265848 C21.5565378,13.9265848 22.5371923,14.5926693 22.5371923,16.225581 L22.5371923,17.6824114 L19.5049197,17.6824114 C15.6067156,17.6824114 13.791241,18.9972964 13.791241,21.8208639 C13.791241,24.5595235 15.6661296,26.0677739 19.0704416,26.0677739 C23.1159923,26.0677739 24.9200162,24.6910984 24.9200162,21.6035168 L24.9200162,16.225581 C24.9200162,13.2397594 22.9975965,11.7883303 19.0432192,11.7883303 L19.0432192,11.7883303 Z" id="Fill-6" sketch:type="MSShapeGroup"></path>
                <path d="M38.2531575,12.4315134 C38.0816132,12.2156787 37.7566728,12.1858637 37.4313003,12.1858637 L37.1867309,12.1858637 C36.3756763,12.1858637 36.0574335,12.4362665 35.8778953,13.2146975 L33.6236215,22.5848194 C33.3421074,23.73637 32.9471666,23.9470195 32.2704956,23.9470195 C31.4421569,23.9470195 31.110519,23.7493331 30.7801773,22.5804984 L28.2271054,13.2101604 C28.0158077,12.4252479 27.7040465,12.1858637 26.8925598,12.1858637 L26.6752127,12.1858637 C26.3474637,12.1858637 26.0214431,12.2161108 25.8540037,12.4345381 C25.6863483,12.6533976 25.7429536,12.9798503 25.8293739,13.3006857 L28.4096683,22.7520427 C28.893622,24.5608198 29.4691813,26.0580516 31.6186704,26.0580516 C32.0200927,26.0580516 32.3910519,26.0023105 32.6997884,25.898174 C32.0479633,27.9487119 31.3844714,28.8533165 29.4285637,29.0540277 C29.0316785,29.0870834 28.7737138,29.1439048 28.629824,29.3366221 C28.480749,29.536469 28.514669,29.8225202 28.5680335,30.0785404 L28.6218301,30.3207333 C28.7387136,30.881169 28.9374803,31.2285787 29.5666202,31.2285787 C29.6327317,31.2285787 29.7038124,31.2251219 29.7800783,31.2184243 C32.7006527,31.0274354 34.2655084,29.4550179 35.1813476,25.791445 L38.3056578,13.2939881 C38.3797632,12.9733688 38.4244857,12.646916 38.2531575,12.4315134" id="Fill-7" sketch:type="MSShapeGroup"></path>
                <path d="M58.5647386,6.14705259 L54.8432641,6.14575629 C54.4373047,6.14554023 54.1082594,6.47458556 54.1080433,6.88032891 L54.1078273,7.39971496 L54.3660079,7.39971496 C56.0466669,7.39971496 56.6714857,7.67712415 56.6714857,9.20784387 L56.6714857,11.3839072 L58.5630102,11.3845554 C58.9689696,11.3847714 59.2980149,11.0557261 59.298231,10.6497667 L59.2995273,6.88227336 C59.2997433,6.47631397 58.970698,6.14705259 58.5647386,6.14705259" id="Fill-9" sketch:type="MSShapeGroup"></path>
            </g>
        </g>
    </g>
</svg>