<?xml version="1.0" encoding="UTF-8" standalone="no"?>
<svg width="80px" height="16px" viewBox="0 0 80 16" version="1.1" xmlns="http://www.w3.org/2000/svg" xmlns:xlink="http://www.w3.org/1999/xlink" xmlns:sketch="http://www.bohemiancoding.com/sketch/ns">
    <!-- Generator: Sketch 3.3.3 (12081) - http://www.bohemiancoding.com/sketch -->
    <title>Payment/Paymill/Paymill</title>
    <desc>Created with Sketch.</desc>
    <defs></defs>
    <g id="Icons:-Payment" stroke="none" stroke-width="1" fill="none" fill-rule="evenodd" sketch:type="MSPage">
        <g id="Paymill" sketch:type="MSArtboardGroup" transform="translate(-10.000000, -22.000000)" fill="#F05000">
            <g id="Payment/Paymill/Paymill" sketch:type="MSLayerGroup" transform="translate(10.000000, 22.000000)">
                <path d="M21.9180052,9.42185315 L20.6867192,9.42185315 L20.6867192,13.8965734 L18.6703412,13.8965734 L18.6703412,2.02391608 L22.1497113,2.02391608 C24.647664,2.02391608 26.5391076,3.20041958 26.5391076,5.62486014 C26.5390026,8.1027972 24.7904462,9.42185315 21.9180052,9.42185315 L21.9180052,9.42185315 Z M21.9891864,3.61034965 L20.6867192,3.61034965 L20.6867192,7.83541958 L21.935643,7.83541958 C23.7378478,7.83541958 24.5050919,7.10440559 24.5050919,5.67835664 C24.5049869,4.39475524 23.7910761,3.61034965 21.9891864,3.61034965 L21.9891864,3.61034965 Z" id="Shape" sketch:type="MSShapeGroup"></path>
                <path d="M28.0594226,13.8965734 L26.0435696,13.8965734 L30.575643,2.02391608 L32.52,2.02391608 L37.1416273,13.8965734 L34.9468766,13.8965734 L34.0191076,11.3473077 L28.9876115,11.3473077 L28.0594226,13.8965734 L28.0594226,13.8965734 Z M32.1808924,6.32020979 C31.824147,5.32160839 31.5033071,4.27024476 31.5033071,4.27024476 L31.4672966,4.27024476 C31.4672966,4.27024476 31.1639895,5.33986014 30.7893963,6.32020979 C30.7893963,6.32020979 29.576168,9.70716783 29.5583202,9.70716783 L33.4121785,9.70716783 L32.1808924,6.32020979 L32.1808924,6.32020979 Z" id="Shape" sketch:type="MSShapeGroup"></path>
                <path d="M40.9980052,9.40423077 L40.9980052,13.8965734 L38.9818373,13.8965734 L38.9818373,9.40423077 L35.0208924,2.02391608 L37.2688714,2.02391608 L40.0701312,7.53237762 L40.088294,7.53237762 L42.8893438,2.02391608 L44.8519685,2.02391608 L40.9980052,9.40423077 L40.9980052,9.40423077 Z" id="Shape" sketch:type="MSShapeGroup"></path>
                <path d="M50.7456168,13.9174476 L48.3367979,7.03622378 C48.0692913,6.23440559 47.8015748,5.36073427 47.8015748,5.36073427 L47.7658793,5.36073427 C47.7658793,5.36073427 47.6943832,6.28758741 47.6056693,7.08993007 L46.7668241,13.9173427 L44.9289239,13.9173427 L46.5527559,2.04479021 L48.4976378,2.04479021 L51.1378478,9.71052448 C51.4769554,10.6548951 51.7983202,11.8138811 51.7983202,11.8138811 L51.8340157,11.8138811 C51.8340157,11.8138811 52.1728084,10.6548951 52.512021,9.71052448 L55.1884514,2.04479021 L57.1331234,2.04479021 L58.7569554,13.9173427 L56.7047769,13.9173427 L55.8306562,7.05416084 C55.7234646,6.23440559 55.6343307,5.36073427 55.6343307,5.36073427 L55.5987402,5.36073427 C55.5987402,5.36073427 55.3487664,6.23440559 55.0810499,7.03622378 L52.7081365,13.9174476 L50.7456168,13.9174476 L50.7456168,13.9174476 Z" id="Shape" sketch:type="MSShapeGroup"></path>
                <path d="M60.5988451,13.9174476 L60.5988451,2.045 L62.6149081,2.045 L62.6149081,13.9175524 L60.5988451,13.9175524 L60.5988451,13.9174476 Z" id="Shape" sketch:type="MSShapeGroup"></path>
                <path d="M64.784147,13.9174476 L64.784147,2.045 L66.8,2.045 L66.8,12.2775175 L71.3320735,12.2775175 L71.3320735,13.9175524 L64.784147,13.9175524 L64.784147,13.9174476 Z" id="Shape" sketch:type="MSShapeGroup"></path>
                <path d="M73.447874,13.9174476 L73.447874,2.045 L75.464147,2.045 L75.464147,12.2775175 L79.9958005,12.2775175 L79.9958005,13.9175524 L73.447874,13.9175524 L73.447874,13.9174476 Z" id="Shape" sketch:type="MSShapeGroup"></path>
                <path d="M8.53207349,4.71867133 C8.53207349,4.4620979 8.32367454,4.2541958 8.06687664,4.2541958 L5.6967979,4.25388112 C5.35286089,4.25388112 5.04188976,4.43587413 4.89207349,4.71856643 L0.10992126,14.7533566 C0.0846194226,14.8103147 0.0703412073,14.8734615 0.0703412073,14.9395455 C0.0703412073,15.196014 0.278530184,15.4038112 0.535328084,15.4038112 L2.90530184,15.4042308 C3.31244094,15.4042308 3.6519685,15.0566084 3.7847769,14.7781119 C3.9175853,14.4996154 8.49322835,4.90475524 8.49322835,4.90475524 L8.49259843,4.90475524 C8.5175853,4.84748252 8.53207349,4.78496503 8.53207349,4.71867133 L8.53207349,4.71867133 Z" id="Shape" sketch:type="MSShapeGroup"></path>
                <path d="M14.2062992,6.11241259 C14.2062992,6.04727273 14.1930709,5.98527972 14.1687139,5.92926573 L14.1687139,5.92874126 L11.95979,1.16356643 L11.9585302,1.16251748 C11.8038845,0.815 11.4873491,0.537342657 11.080315,0.537342657 L8.71013123,0.537552448 C8.45333333,0.537552448 8.24524934,0.745454545 8.24524934,1.00192308 C8.24524934,1.06832168 8.25963255,1.13125874 8.28493438,1.18832168 L8.28440945,1.18874126 L10.5129659,5.88898601 C10.5129659,5.88898601 10.5701837,6.03269231 10.5701837,6.11251748 C10.5701837,6.19244755 10.5479265,6.2665035 10.5126509,6.33195804 L10.5129659,6.33583916 L8.28493438,11.0366084 C8.25963255,11.093986 8.24524934,11.1565035 8.24524934,11.223007 C8.24524934,11.4794755 8.45322835,11.6872727 8.71013123,11.6872727 L11.080315,11.6876923 C11.4873491,11.6876923 11.7864567,11.4101399 11.9585302,11.0622028 L11.95979,11.0611538 L14.1687139,6.29608392 L14.1687139,6.29555944 C14.1930709,6.23954545 14.2062992,6.17755245 14.2062992,6.11241259 L14.2062992,6.11241259 Z" id="Shape" sketch:type="MSShapeGroup"></path>
            </g>
        </g>
    </g>
</svg>