<?xml version="1.0" encoding="UTF-8" standalone="no"?>
<svg width="80px" height="40px" viewBox="0 0 80 40" version="1.1" xmlns="http://www.w3.org/2000/svg" xmlns:xlink="http://www.w3.org/1999/xlink" xmlns:sketch="http://www.bohemiancoding.com/sketch/ns">
    <!-- Generator: Sketch 3.3.3 (12081) - http://www.bohemiancoding.com/sketch -->
    <title>Payment/VeriSign/VeriSign</title>
    <desc>Created with Sketch.</desc>
    <defs></defs>
    <g id="Icons:-Payment" stroke="none" stroke-width="1" fill="none" fill-rule="evenodd" sketch:type="MSPage">
        <g id="VeriSign" sketch:type="MSArtboardGroup" transform="translate(-10.000000, -10.000000)">
            <g id="Payment/VeriSign/VeriSign" sketch:type="MSLayerGroup" transform="translate(10.000000, 10.000000)">
                <path d="M27.6626956,10.2406356 L65.3434525,10.2406356 C69.1286533,10.2459418 72.2770913,11.4598452 74.9367013,13.949286 C77.5532977,16.4113793 78.8328531,19.3436866 78.8726508,22.9225383 L79.4125324,22.9176403 L78.8726508,22.912334 C78.8328531,26.4173066 77.5557097,29.3165521 74.9346913,31.8174217 L74.9367013,31.8149726 C72.2750813,34.3060461 69.1246333,35.5542359 65.3434525,35.5587258 L27.6626956,35.5587258 C27.3644141,35.5587258 27.1228141,35.8040372 27.1228141,36.1069008 C27.1228141,36.4093562 27.3644141,36.6546675 27.6626956,36.6546675 L65.3434525,36.6546675 C69.3622133,36.6595656 72.8290327,35.2913732 75.6699433,32.6198877 L75.6719532,32.6174387 C78.483518,29.9557494 79.9230681,26.7018025 79.9528159,22.9225383 L79.9528159,22.912334 C79.9230681,19.0661297 78.48593,15.7750392 75.6695413,13.1439627 C72.8270227,10.4712527 69.3585954,9.13979581 65.3434525,9.14469388 L27.6626956,9.14469388 C27.3644141,9.14469388 27.1228141,9.39000522 27.1228141,9.69246065 C27.1228141,9.99532424 27.3644141,10.2406356 27.6626956,10.2406356 L27.6626956,10.2406356 Z" id="Path" fill="#B6004F" sketch:type="MSShapeGroup"></path>
                <path d="M24.319196,9.94020408 C26.478794,11.2132653 28.1849246,12.9459184 29.438392,15.1030612 C30.6926633,17.2953061 31.319397,19.734898 31.3543719,22.3867347 C31.319397,25.0744898 30.6926633,27.5136735 29.438392,29.6708163 C28.1849246,31.8279592 26.478794,33.5602041 24.319196,34.8691837 C22.1945729,36.1414286 19.8267337,36.7781633 17.1453266,36.8136735 C14.5330653,36.7781633 12.1302513,36.1414286 10.0056281,34.8691837 C7.84643216,33.5602041 6.1398995,31.8279592 4.92100503,29.6708163 C3.63256281,27.5136735 3.00582915,25.1095918 2.97085427,22.3867347 C3.00582915,19.734898 3.63256281,17.2953061 4.92100503,15.1030612 C6.1398995,12.9459184 7.84643216,11.2132653 10.0056281,9.94020408 C12.1302513,8.66755102 14.5330653,7.99530612 17.1453266,7.96020408 C19.7921608,7.99530612 22.1945729,8.66755102 24.319196,9.94020408 M17.1453266,5.0255102 C13.9758794,5.06102041 11.0854271,5.83857143 8.5081407,7.3944898 C5.96582915,8.95040816 3.94572864,11.0365306 2.37869347,13.6173469 C0.846231156,16.2344898 0.0804020101,19.1691837 0.0454271357,22.3867347 C0.0804020101,25.6046939 0.846231156,28.5393878 2.37869347,31.1557143 C3.94572864,33.772449 5.96582915,35.8589796 8.5081407,37.45 C11.0854271,38.9708163 13.9758794,39.7479592 17.1453266,39.8189796 C20.3493467,39.7838776 23.239799,39.0059184 25.8170854,37.45 C28.3939698,35.8589796 30.4486432,33.772449 31.9811055,31.1557143 C33.478593,28.5393878 34.279397,25.6046939 34.3147739,22.3867347 C34.279397,19.1691837 33.5135678,16.2344898 31.9811055,13.6173469 C30.4486432,11.0365306 28.3939698,8.95040816 25.8170854,7.3944898 C23.239799,5.83857143 20.3493467,5.06102041 17.1453266,5.0255102" id="Fill-2" fill="#B6004F" sketch:type="MSShapeGroup"></path>
                <path d="M38.6331658,17.3659184 L39.8170854,17.3659184 L41.0705528,20.8659184 L42.359799,17.3659184 L43.5087437,17.3659184 L41.558593,22.3516327 L40.6182915,22.3516327 L38.6331658,17.3659184" id="Fill-3" fill="#B6004F" sketch:type="MSShapeGroup"></path>
                <path d="M52.2500503,18.532449 L53.3298492,18.532449 L53.3298492,22.3161224 L52.2500503,22.3161224 L52.2500503,18.532449 Z M52.2150754,17.1532653 L53.3294472,17.1532653 L53.3294472,18.1083673 L52.2150754,18.1083673 L52.2150754,17.1532653 Z M48.8719598,18.532449 L49.9167839,18.532449 L49.9167839,19.2757143 C50.0213065,19.0279592 50.1953769,18.8157143 50.3690452,18.6740816 C50.5435176,18.4973469 50.7871357,18.4267347 51.1011055,18.4618367 L51.1011055,19.5936735 L51.0661307,19.5936735 C50.6826131,19.5936735 50.4040201,19.6997959 50.2303518,19.9120408 C50.0213065,20.1238776 49.9167839,20.4777551 49.9167839,20.9369388 L49.9167839,22.3161224 L48.8719598,22.3161224 L48.8719598,18.532449 L48.8719598,18.532449 Z M46.6082412,20.1238776 C46.5732663,19.8761224 46.5037186,19.6997959 46.3638191,19.5230612 C46.2251256,19.3814286 46.0506533,19.3108163 45.8420101,19.3108163 C45.598392,19.3108163 45.4243216,19.3814286 45.2848241,19.5230612 C45.1453266,19.6997959 45.040804,19.8761224 45.0066332,20.1238776 L46.6082412,20.1238776 L46.6082412,20.1238776 Z M45.9115578,22.4226531 C45.6679397,22.4226531 45.3889447,22.3516327 45.1453266,22.2455102 C44.9017085,22.174898 44.6926633,22.0332653 44.518593,21.8565306 C44.3445226,21.6797959 44.24,21.5026531 44.1358794,21.2553061 C44.0309548,21.0079592 43.961407,20.7255102 43.961407,20.4418367 C43.961407,20.1597959 43.9959799,19.9120408 44.1005025,19.6638776 C44.2050251,19.4161224 44.3095477,19.2046939 44.4840201,19.0279592 C44.6576884,18.8508163 44.8317588,18.7095918 45.0757789,18.6030612 C45.319799,18.4973469 45.5630151,18.4618367 45.8420101,18.4618367 C46.1555779,18.4618367 46.399196,18.532449 46.6428141,18.6389796 C46.8868342,18.7446939 47.0609045,18.8867347 47.200402,19.0981633 C47.3394975,19.2757143 47.4436181,19.4871429 47.5485427,19.734898 C47.6180905,19.9822449 47.6534673,20.265102 47.6534673,20.5128571 L47.6180905,20.6544898 L47.6180905,20.7957143 L45.040804,20.7957143 C45.0757789,21.0434694 45.1798995,21.2202041 45.3543719,21.3618367 C45.5284422,21.467551 45.7025126,21.5385714 45.9461307,21.5385714 C46.120603,21.5385714 46.2596985,21.5026531 46.4337688,21.4320408 C46.5386935,21.3969388 46.6777889,21.2908163 46.8514573,21.1491837 L47.4436181,21.6797959 C47.2699497,21.927551 47.0609045,22.1038776 46.8168844,22.21 C46.5732663,22.3516327 46.2596985,22.4226531 45.9115578,22.4226531 L45.9115578,22.4226531 Z" id="Fill-4" fill="#B6004F" sketch:type="MSShapeGroup"></path>
                <path d="M56.6034171,22.3867347 C56.2203015,22.3867347 55.8717588,22.3161224 55.4890452,22.174898 C55.1409045,22.0687755 54.8273367,21.8565306 54.5137688,21.5736735 L55.1750754,20.8312245 C55.3841206,21.0079592 55.5931658,21.1491837 55.8371859,21.2553061 C56.080804,21.3618367 56.3248241,21.4320408 56.6034171,21.4320408 C56.8470352,21.4320408 57.0211055,21.3969388 57.1256281,21.2908163 C57.2301508,21.2202041 57.2996985,21.1136735 57.2996985,20.9728571 L57.2996985,20.7602041 L57.1256281,20.6189796 L56.8470352,20.4777551 L56.3248241,20.3002041 L55.6627136,20.1238776 L55.1409045,19.8410204 L54.8273367,19.4161224 C54.7573869,19.2397959 54.7224121,19.0630612 54.7224121,18.8157143 L54.7224121,18.7802041 L54.8273367,18.1789796 C54.9318593,18.0026531 55.0363819,17.8259184 55.2100503,17.7193878 C55.3495477,17.5777551 55.5240201,17.4720408 55.7326633,17.4010204 C55.9417085,17.3304082 56.1849246,17.2953061 56.4293467,17.2953061 C56.7774874,17.2953061 57.0910553,17.3659184 57.4042211,17.4720408 C57.7177889,17.5777551 57.9963819,17.7193878 58.24,17.9316327 L57.6832161,18.7446939 L57.0211055,18.3916327 C56.8124623,18.285102 56.6034171,18.25 56.3947739,18.25 C56.1849246,18.25 56.0458291,18.285102 55.9417085,18.3916327 C55.8371859,18.4618367 55.7672362,18.5679592 55.7672362,18.6740816 L55.7672362,18.7095918 L55.8371859,18.9214286 L55.9766834,19.0630612 L56.3248241,19.2046939 L56.8470352,19.3459184 L57.5087437,19.5936735 C57.6832161,19.6638776 57.8568844,19.7708163 57.9963819,19.8761224 L58.2749749,20.265102 C58.3445226,20.4418367 58.3794975,20.6189796 58.3794975,20.8312245 L58.3794975,20.8659184 C58.3794975,21.1136735 58.3445226,21.3259184 58.24,21.5026531 C58.1704523,21.6797959 58.0663317,21.8565306 57.8918593,21.9977551 C57.7177889,22.1038776 57.5437186,22.21 57.2996985,22.2806122 C57.0910553,22.3516327 56.8470352,22.3867347 56.6034171,22.3867347" id="Fill-5" fill="#B6004F" sketch:type="MSShapeGroup"></path>
                <path d="M59.7374874,18.532449 L60.8172864,18.532449 L60.8172864,22.3161224 L59.7374874,22.3161224 L59.7374874,18.532449 Z M59.7025126,17.1532653 L60.8168844,17.1532653 L60.8168844,18.1083673 L59.7025126,18.1083673 L59.7025126,17.1532653 Z" id="Fill-6" fill="#B6004F" sketch:type="MSShapeGroup"></path>
                <path d="M67.5384925,18.532449 L68.5837186,18.532449 L68.5837186,19.0630612 L68.7923618,18.8508163 L69.0359799,18.6389796 L69.3145729,18.4973469 L69.6635176,18.4618367 C70.081206,18.4618367 70.3943719,18.6030612 70.6034171,18.8508163 C70.8474372,19.0981633 70.9519598,19.4161224 70.9519598,19.8761224 L70.9519598,22.3161224 L69.8721608,22.3161224 L69.8721608,20.194898 C69.8721608,19.9471429 69.8371859,19.7708163 69.7330653,19.6287755 C69.6281407,19.5230612 69.4544724,19.4520408 69.2450251,19.4520408 C69.0359799,19.4520408 68.8623116,19.5230612 68.7573869,19.6287755 C68.6528643,19.7708163 68.5837186,19.9471429 68.5837186,20.194898 L68.5837186,22.3161224 L67.5384925,22.3161224 L67.5384925,18.532449 L67.5384925,18.532449 Z M64.1953769,21.1136735 L64.5784925,21.0434694 C64.6830151,21.0079592 64.7529648,20.9728571 64.8570854,20.8659184 C64.9266332,20.7957143 64.9961809,20.6895918 65.0311558,20.5838776 C65.0661307,20.4777551 65.1011055,20.3712245 65.1011055,20.23 L65.0311558,19.8761224 C64.9961809,19.7708163 64.9266332,19.6638776 64.8570854,19.5936735 L64.5784925,19.4161224 L64.1953769,19.3459184 L63.8472362,19.4161224 L63.5686432,19.5936735 C63.4641206,19.6638776 63.3945729,19.7708163 63.36,19.8761224 L63.2900503,20.23 C63.2900503,20.5128571 63.3945729,20.7255102 63.5686432,20.8659184 C63.7423116,21.0434694 63.9517588,21.1136735 64.1953769,21.1136735 L64.1953769,21.1136735 Z M64.0908543,23.4479592 L63.2201005,23.3414286 C62.9069347,23.3063265 62.6629146,23.1997959 62.4192965,23.0585714 L62.8024121,22.2455102 L63.3945729,22.5279592 L64.0558794,22.5989796 C64.4040201,22.5989796 64.6830151,22.5279592 64.8570854,22.3516327 C65.0311558,22.174898 65.1011055,21.927551 65.1011055,21.5736735 L65.1011055,21.3969388 C64.961608,21.5736735 64.7871357,21.75 64.6130653,21.8565306 C64.438995,21.9626531 64.1953769,21.9977551 63.8822111,21.9977551 C63.6727638,21.9977551 63.4641206,21.9626531 63.2550754,21.8920408 C63.081005,21.8210204 62.9069347,21.714898 62.7324623,21.5385714 C62.5933668,21.3969388 62.4892462,21.2202041 62.3843216,21.0079592 C62.279799,20.7602041 62.2448241,20.5128571 62.2448241,20.23 C62.2448241,19.9471429 62.279799,19.6997959 62.3843216,19.4871429 C62.4892462,19.2397959 62.5933668,19.0630612 62.7324623,18.9214286 C62.9069347,18.7446939 63.081005,18.6389796 63.2900503,18.5679592 L63.8822111,18.4618367 C64.1953769,18.4618367 64.438995,18.532449 64.6130653,18.6389796 C64.7871357,18.7446939 64.961608,18.8508163 65.1011055,19.0279592 L65.1011055,18.532449 L66.1459296,18.532449 L66.1459296,21.467551 C66.1459296,22.1389796 66.0060302,22.6340816 65.6932663,22.9520408 C65.518794,23.1295918 65.2747739,23.2708163 65.0311558,23.3414286 L64.0908543,23.4479592 L64.0908543,23.4479592 Z" id="Fill-7" fill="#B6004F" sketch:type="MSShapeGroup"></path>
                <path d="M41.3491457,28.5744898 C40.9664322,28.5744898 40.6182915,28.5038776 40.2347739,28.3626531 C39.8866332,28.2565306 39.5734673,28.0442857 39.2598995,27.7614286 L39.921608,27.0189796 C40.1306533,27.1957143 40.3392965,27.3373469 40.5833166,27.4434694 C40.8269347,27.5495918 41.0705528,27.6197959 41.3491457,27.6197959 C41.5931658,27.6197959 41.7672362,27.5846939 41.8721608,27.4785714 C41.9762814,27.4079592 42.0458291,27.3018367 42.0458291,27.1606122 L42.0458291,26.9483673 L41.8721608,26.8067347 L41.5931658,26.6655102 L41.0705528,26.4883673 L40.4092462,26.3116327 L39.8866332,26.0291837 L39.5734673,25.6046939 C39.5035176,25.427551 39.4689447,25.2508163 39.4689447,25.0034694 L39.4689447,24.9679592 L39.5734673,24.3667347 C39.6775879,24.1904082 39.7821106,24.0136735 39.9565829,23.9071429 C40.0956784,23.7659184 40.2697487,23.6597959 40.478392,23.5887755 C40.6878392,23.5181633 40.9314573,23.4830612 41.1750754,23.4830612 C41.5232161,23.4830612 41.8367839,23.5536735 42.1503518,23.6597959 C42.4639196,23.7659184 42.7429146,23.9071429 42.9861307,24.1197959 L42.4289447,24.9328571 L41.7672362,24.5793878 C41.558593,24.4728571 41.3491457,24.4377551 41.1401005,24.4377551 C40.9314573,24.4377551 40.7919598,24.4728571 40.6878392,24.5793878 C40.5833166,24.6495918 40.5133668,24.7557143 40.5133668,24.8618367 L40.5133668,24.8977551 L40.5833166,25.1095918 L40.7224121,25.2508163 L41.0705528,25.392449 L41.5931658,25.5336735 L42.2548744,25.7814286 C42.4289447,25.8516327 42.6030151,25.9585714 42.7429146,26.0638776 L43.0211055,26.4532653 C43.0906533,26.63 43.1252261,26.8067347 43.1252261,27.0189796 L43.1252261,27.0540816 C43.1252261,27.3018367 43.0906533,27.5136735 42.9861307,27.6908163 C42.9161809,27.867551 42.8120603,28.0442857 42.6379899,28.1855102 C42.4639196,28.2920408 42.2898492,28.3977551 42.0458291,28.4683673 C41.8367839,28.5393878 41.5931658,28.5744898 41.3491457,28.5744898" id="Fill-8" fill="#B6004F" sketch:type="MSShapeGroup"></path>
                <path d="M51.2048241,28.6104082 C50.9266332,28.6104082 50.6826131,28.5393878 50.438995,28.4336735 C50.1953769,28.3267347 49.9863317,28.1855102 49.8122613,28.0087755 C49.638191,27.832449 49.5336683,27.6553061 49.4291457,27.4079592 C49.3246231,27.1606122 49.2550754,26.8773469 49.2550754,26.63 C49.2550754,26.347551 49.3246231,26.0997959 49.4291457,25.8516327 C49.5336683,25.6046939 49.638191,25.392449 49.8122613,25.2157143 C49.9863317,25.0385714 50.1953769,24.8977551 50.438995,24.7908163 C50.6826131,24.6855102 50.9266332,24.6495918 51.239799,24.6495918 C51.5883417,24.6495918 51.8669347,24.7206122 52.1105528,24.8267347 C52.3541709,24.9328571 52.5282412,25.0744898 52.7027136,25.2859184 L52.0755779,25.9936735 C51.9714573,25.8516327 51.8319598,25.7459184 51.6928643,25.674898 C51.5883417,25.6046939 51.4142714,25.5695918 51.2048241,25.5695918 L50.8566834,25.6402041 L50.5784925,25.887551 L50.3690452,26.2055102 L50.2994975,26.5944898 L50.2994975,26.63 C50.2994975,26.7716327 50.3344724,26.9132653 50.3690452,27.0189796 C50.4040201,27.1606122 50.4735678,27.2663265 50.5784925,27.372449 C50.6480402,27.4785714 50.7521608,27.5495918 50.8566834,27.5846939 C50.961206,27.6197959 51.1011055,27.6553061 51.2743719,27.6553061 C51.4492462,27.6553061 51.5883417,27.6197959 51.7274372,27.5495918 L52.1105528,27.2663265 L52.7372864,27.9026531 C52.5632161,28.0797959 52.3541709,28.2565306 52.1105528,28.3977551 C51.8669347,28.5393878 51.5883417,28.6104082 51.2048241,28.6104082 L51.2048241,28.6104082 Z M47.0259296,26.3116327 C46.9913568,26.0638776 46.921407,25.887551 46.7823116,25.7108163 C46.6428141,25.5695918 46.4687437,25.4985714 46.2596985,25.4985714 C46.0160804,25.4985714 45.8420101,25.5695918 45.7025126,25.7108163 C45.5630151,25.887551 45.4588945,26.0638776 45.4243216,26.3116327 L47.0259296,26.3116327 L47.0259296,26.3116327 Z M46.3296482,28.6104082 C46.0856281,28.6104082 45.8074372,28.5393878 45.5630151,28.4336735 C45.319799,28.3626531 45.1103518,28.2214286 44.9366834,28.0442857 C44.7622111,27.867551 44.6576884,27.6908163 44.5531658,27.4434694 C44.4490452,27.1957143 44.3790955,26.9132653 44.3790955,26.63 C44.3790955,26.347551 44.4140704,26.0997959 44.518593,25.8516327 C44.6231156,25.6046939 44.7276382,25.392449 44.9017085,25.2157143 C45.0757789,25.0385714 45.2498492,24.8977551 45.4934673,24.7908163 C45.7374874,24.6855102 45.9807035,24.6495918 46.2596985,24.6495918 C46.5732663,24.6495918 46.8168844,24.7206122 47.0609045,24.8267347 C47.3045226,24.9328571 47.478995,25.0744898 47.6180905,25.2859184 C47.7571859,25.4634694 47.8621106,25.674898 47.9666332,25.9226531 C48.0357789,26.17 48.0711558,26.4532653 48.0711558,26.7006122 L48.0357789,26.8422449 L48.0357789,26.9834694 L45.4588945,26.9834694 C45.4934673,27.2312245 45.598392,27.4079592 45.7720603,27.5495918 C45.9461307,27.6553061 46.120603,27.7263265 46.3638191,27.7263265 C46.5386935,27.7263265 46.6777889,27.6908163 46.8514573,27.6197959 C46.9563819,27.5846939 47.0958794,27.4785714 47.2699497,27.3373469 L47.8621106,27.867551 C47.6876382,28.1153061 47.478995,28.2920408 47.2345729,28.3977551 C46.9913568,28.5393878 46.6777889,28.6104082 46.3296482,28.6104082 L46.3296482,28.6104082 Z" id="Fill-9" fill="#B6004F" sketch:type="MSShapeGroup"></path>
                <path d="M55.279598,28.5744898 C54.8968844,28.5744898 54.5833166,28.4336735 54.3396985,28.1855102 C54.1306533,27.9377551 54.0261307,27.6197959 54.0261307,27.1606122 L54.0261307,24.7206122 L55.0709548,24.7206122 L55.0709548,26.8422449 C55.0709548,27.0895918 55.1409045,27.2663265 55.2450251,27.4079592 C55.3495477,27.5136735 55.5240201,27.5846939 55.7326633,27.5846939 C55.9067337,27.5846939 56.080804,27.5136735 56.2203015,27.4079592 C56.3248241,27.2663265 56.3947739,27.0895918 56.3947739,26.8422449 L56.3947739,24.7206122 L57.438794,24.7206122 L57.438794,28.5038776 L56.3947739,28.5038776 L56.3947739,27.9736735 L56.1849246,28.1855102 L55.9417085,28.3977551 L55.6627136,28.5393878 L55.279598,28.5744898" id="Fill-10" fill="#B6004F" sketch:type="MSShapeGroup"></path>
                <path d="M69.28,27.6553061 C69.4194975,27.6553061 69.558593,27.6197959 69.6635176,27.5846939 L69.9417085,27.372449 C70.0112563,27.2663265 70.081206,27.1606122 70.1157789,27.0540816 L70.1853266,26.63 L70.1853266,26.5944898 L70.1157789,26.17 L69.9417085,25.8516327 L69.6635176,25.6402041 C69.558593,25.6046939 69.4194975,25.5695918 69.28,25.5695918 L68.9314573,25.6402041 L68.6528643,25.8516327 L68.4438191,26.17 C68.4092462,26.2765306 68.3742714,26.4177551 68.3742714,26.5944898 L68.3742714,26.63 L68.4438191,27.0540816 C68.479196,27.1606122 68.5487437,27.2663265 68.6528643,27.372449 L68.9314573,27.5846939 L69.28,27.6553061 L69.28,27.6553061 Z M69.0359799,28.5744898 C68.7923618,28.5744898 68.5837186,28.5393878 68.3742714,28.4336735 C68.200603,28.3626531 68.0261307,28.2565306 67.8520603,28.0797959 C67.6779899,27.9026531 67.5734673,27.6908163 67.4689447,27.4434694 C67.3644221,27.1957143 67.3298492,26.9483673 67.3298492,26.63 L67.3298492,26.5944898 C67.3298492,26.2765306 67.3644221,25.9936735 67.4689447,25.7459184 C67.5734673,25.4985714 67.6779899,25.3218367 67.8520603,25.1455102 C67.9915578,24.9679592 68.1656281,24.8618367 68.3742714,24.7908163 C68.5837186,24.6855102 68.7923618,24.6495918 69.0359799,24.6495918 C69.3145729,24.6495918 69.558593,24.7206122 69.7330653,24.8267347 C69.9067337,24.9328571 70.081206,25.0385714 70.1853266,25.2157143 L70.1853266,23.3414286 L71.2301508,23.3414286 L71.2301508,28.5038776 L70.1853266,28.5038776 L70.1853266,27.9736735 C70.081206,28.1504082 69.9067337,28.2920408 69.7330653,28.3977551 C69.558593,28.5038776 69.3145729,28.5744898 69.0359799,28.5744898 L69.0359799,28.5744898 Z M65.0661307,26.3116327 C65.0311558,26.0638776 64.961608,25.887551 64.8225126,25.7108163 C64.6830151,25.5695918 64.5089447,25.4985714 64.2998995,25.4985714 C64.0558794,25.4985714 63.8822111,25.5695918 63.7423116,25.7108163 C63.6032161,25.887551 63.4986935,26.0638776 63.4641206,26.3116327 L65.0661307,26.3116327 L65.0661307,26.3116327 Z M64.3698492,28.6104082 C64.1254271,28.6104082 63.8472362,28.5393878 63.6032161,28.4336735 C63.36,28.3626531 63.1501508,28.2214286 62.9768844,28.0442857 C62.8024121,27.867551 62.6978894,27.6908163 62.5933668,27.4434694 C62.4892462,27.1957143 62.4192965,26.9132653 62.4192965,26.63 C62.4192965,26.347551 62.4538693,26.0997959 62.558392,25.8516327 C62.6629146,25.6046939 62.7674372,25.392449 62.9415075,25.2157143 C63.1155779,25.0385714 63.2900503,24.8977551 63.5332663,24.7908163 C63.7776884,24.6855102 64.0209045,24.6495918 64.2998995,24.6495918 C64.6130653,24.6495918 64.8570854,24.7206122 65.1011055,24.8267347 C65.3447236,24.9328571 65.518794,25.0744898 65.6582915,25.2859184 C65.7969849,25.4634694 65.9019095,25.674898 66.0060302,25.9226531 C66.0759799,26.17 66.1109548,26.4532653 66.1109548,26.7006122 L66.0759799,26.8422449 L66.0759799,26.9834694 L63.4986935,26.9834694 C63.5332663,27.2312245 63.638191,27.4079592 63.8122613,27.5495918 C63.9863317,27.6553061 64.160804,27.7263265 64.4040201,27.7263265 C64.5784925,27.7263265 64.7179899,27.6908163 64.8916583,27.6197959 C64.9961809,27.5846939 65.1356784,27.4785714 65.3097487,27.3373469 L65.9019095,27.867551 C65.7274372,28.1153061 65.518794,28.2920408 65.2747739,28.3977551 C65.0311558,28.5393878 64.7179899,28.6104082 64.3698492,28.6104082 L64.3698492,28.6104082 Z M59.1107538,24.7206122 L60.1555779,24.7206122 L60.1555779,25.4634694 C60.2601005,25.2157143 60.4341709,25.0034694 60.6082412,24.8618367 C60.7823116,24.6855102 61.0263317,24.6144898 61.3394975,24.6495918 L61.3394975,25.7814286 L61.3049246,25.7814286 C60.921809,25.7814286 60.6432161,25.887551 60.4687437,26.0997959 C60.2601005,26.3116327 60.1555779,26.6655102 60.1555779,27.1246939 L60.1555779,28.5038776 L59.1107538,28.5038776 L59.1107538,24.7206122 L59.1107538,24.7206122 Z" id="Fill-11" fill="#B6004F" sketch:type="MSShapeGroup"></path>
                <path d="M26.0257286,15.3508163 L27.3145729,15.3508163 L27.3145729,14.0067347 L26.0257286,14.0067347 L26.0257286,15.3508163 Z M26.0257286,10.612449 L27.3145729,10.612449 L27.3145729,11.9202041 L26.0257286,11.9202041 L26.0257286,10.612449 Z M28.0458291,5.83857143 L29.3696482,5.83857143 L29.3696482,7.14714286 L28.0458291,7.14714286 L28.0458291,5.83857143 Z M31.9465327,4.42428571 L34.4884422,4.42428571 L34.4884422,3.01 L31.9465327,3.01 L31.9465327,7.14714286 L29.3692462,7.14714286 L29.3692462,8.49040816 L27.1750754,8.49040816 L27.1750754,9.41 L26.0257286,9.41 L26.0257286,10.612449 L24.6327638,10.612449 L24.6327638,12.6985714 L23.3093467,12.6985714 L23.3093467,14.0067347 L22.438995,14.0067347 L22.438995,15.3508163 L21.4637186,15.3508163 C19.5131658,18.285102 17.9807035,21.1846939 16.8663317,24.1197959 C14.358995,20.5479592 12.0253266,18.4267347 9.86653266,17.7193878 C9.27437186,17.5426531 8.85628141,17.6838776 8.61266332,18.2140816 C8.36904523,18.7446939 8.57768844,19.4161224 9.30934673,20.194898 C11.5031156,22.6340816 13.5232161,26.0997959 15.3688442,30.5197959 C15.6474372,31.2267347 16.2745729,31.6157143 17.2844221,31.7214286 C18.2247236,31.792449 18.8514573,31.4385714 19.1300503,30.6606122 C20.4884422,27.0189796 22.0558794,23.9071429 23.8669347,21.2553061 L23.8669347,19.734898 L24.9113568,19.734898 L24.9113568,18.4267347 L26.0257286,18.4267347 L26.0257286,16.8353061 L27.3145729,16.8353061 L27.3145729,15.3508163 L28.6375879,15.3508163 L28.6375879,14.0067347 L29.6828141,14.0067347 L29.6828141,12.3802041 L30.8317588,12.3802041 L30.8317588,11.2842857 L31.9465327,11.2842857 L31.9465327,8.49040816 L33.2345729,8.49040816 L33.2345729,7.14714286 L34.7324623,7.14714286 L34.7324623,5.80346939 L33.2345729,5.80346939 L33.2345729,7.14714286 L31.9465327,7.14714286 L31.9465327,8.49040816 L30.6576884,8.49040816 L30.6576884,9.79938776 L29.3692462,9.79938776 L29.3692462,8.49040816 L30.6576884,8.49040816 L30.6576884,4.42428571 L31.9465327,4.42428571 L31.9465327,4.42428571 Z" id="Fill-13" fill="#000000" sketch:type="MSShapeGroup"></path>
                <path d="M31.9465327,4.42428571 L33.2345729,4.42428571 L33.2345729,5.80346939 L31.9465327,5.80346939 L31.9465327,4.42428571 Z" id="Fill-14" fill="#B6004F" sketch:type="MSShapeGroup"></path>
                <path d="M26.0257286,10.612449 L27.3145729,10.612449 L27.3145729,11.9202041 L26.0257286,11.9202041 L26.0257286,10.612449 Z" id="Fill-15" fill="#B6004F" sketch:type="MSShapeGroup"></path>
                <path d="M35.9513568,3.01 L37.3443216,3.01 L37.3443216,4.42428571 L35.9513568,4.42428571 L35.9513568,3.01 Z" id="Fill-16" fill="#B6004F" sketch:type="MSShapeGroup"></path>
                <path d="M34.5929648,1.59571429 L35.9863317,1.59571429 L35.9863317,3.01 L34.5929648,3.01 L34.5929648,1.59571429 Z" id="Fill-17" fill="#B6004F" sketch:type="MSShapeGroup"></path>
                <path d="M35.9513568,0.181020408 L37.3443216,0.181020408 L37.3443216,1.59571429 L35.9513568,1.59571429 L35.9513568,0.181020408 Z" id="Fill-18" fill="#B6004F" sketch:type="MSShapeGroup"></path>
            </g>
        </g>
    </g>
</svg>