<?xml version="1.0" encoding="UTF-8" standalone="no"?>
<svg width="74px" height="18px" viewBox="0 0 74 18" version="1.1" xmlns="http://www.w3.org/2000/svg" xmlns:xlink="http://www.w3.org/1999/xlink" xmlns:sketch="http://www.bohemiancoding.com/sketch/ns">
    <!-- Generator: Sketch 3.3.3 (12081) - http://www.bohemiancoding.com/sketch -->
    <title>Payment/OkPay/OkPay-alt</title>
    <desc>Created with Sketch.</desc>
    <defs></defs>
    <g id="Icons:-Payment" stroke="none" stroke-width="1" fill="none" fill-rule="evenodd" sketch:type="MSPage">
        <g id="OkPay-alt" sketch:type="MSArtboardGroup" transform="translate(-12.000000, -21.000000)" fill="#FFFFFF">
            <g id="Payment/OkPay/OkPay-alt" sketch:type="MSLayerGroup" transform="translate(12.000000, 21.000000)">
                <path d="M73.1174431,1.40531387 L71.9882627,1.40531387 C71.2657583,1.40531387 70.7293555,1.89026277 70.3136077,2.4820292 L69.1966095,4.0740438 C69.1959615,4.07470073 69.1959615,4.07535766 69.1953135,4.0760146 L66.7758634,7.5220292 L64.677944,4.53639416 C64.6683538,4.52141606 64.6632995,4.50775182 64.6524133,4.49224818 L63.2392855,2.4859708 C62.8225009,1.89472993 62.2807846,1.41056934 61.5584098,1.41056934 L60.5116532,1.41056934 C59.7891489,1.41056934 59.3210438,1.89407299 59.7392539,2.484 L61.160676,4.49408759 C61.1637863,4.4980292 61.1676743,4.5019708 61.1709142,4.50643796 L65.2169387,10.2186131 L65.2169387,16.6854745 C65.2169387,17.4095474 65.8084203,18.0006569 66.5310543,18 L67.0206725,17.9986861 C67.7433065,17.9981606 68.3347881,17.404292 68.3347881,16.680219 L68.3347881,10.2121752 L72.6449317,4.12856934 C72.6582802,4.11109489 72.6756462,4.09414599 72.6883468,4.0760146 L73.8150648,2.48005839 C74.2331454,1.88894891 73.8399475,1.40531387 73.1174431,1.40531387" id="Fill-1" sketch:type="MSShapeGroup"></path>
                <path d="M25.9536532,9.18091971 L30.0135447,5.27268613 C30.0323363,5.25586861 32.8834746,2.51132847 32.8834746,2.51132847 C33.3965499,2.01665693 32.8444658,1.40531387 32.1414011,1.40531387 L30.5976392,1.40531387 C29.8948336,1.40531387 29.5397373,1.8110365 29.0275692,2.30767883 L26.0223398,5.22091971 C26.0197478,5.22341606 26.0181926,5.2260438 26.0153415,5.22932847 L24.0814921,7.1039562 L24.0814921,4.97837956 L24.0731979,4.97837956 C24.0751419,4.94986861 24.0814921,4.9220146 24.0814921,4.89350365 L24.0814921,2.72259854 C24.0814921,1.99852555 23.5065989,1.40531387 22.8036637,1.40531387 L22.2296778,1.40531387 C21.5270018,1.40531387 20.9518494,1.99852555 20.9518494,2.72259854 L20.9518494,4.89350365 C20.9518494,4.9220146 20.9583292,4.94986861 20.9601436,4.97837956 L20.9518494,4.97837956 L20.9518494,16.6828467 C20.9518494,17.4069197 21.5270018,18 22.2296778,18 L22.8036637,18 C23.5065989,18 24.0814921,17.4069197 24.0814921,16.6828467 L24.0814921,11.4418248 L26.8365989,14.2766277 L26.8398389,14.2766277 L29.5517898,17.0699124 C30.0493135,17.5812701 30.3919685,18 31.0950333,18 L32.6407391,18 C33.3435447,18 33.6430438,17.1430949 33.1455201,16.6316058 L25.9536532,9.18091971" id="Fill-3" sketch:type="MSShapeGroup"></path>
                <path d="M56.5185044,10.8052555 L53.4935762,10.8052555 C53.1303152,10.8052555 52.9456392,10.5310511 53.0818459,10.1953577 L54.7524834,6.10042336 C54.8894676,5.76472993 55.1138004,5.76472993 55.251303,6.09976642 L56.9297163,10.1960146 C57.0672189,10.5310511 56.8817653,10.8052555 56.5185044,10.8052555 L56.5185044,10.8052555 Z M62.5947986,16.3574015 L62.6025744,16.3574015 L57.3287461,3.24433577 L57.3261541,3.24433577 L57.0787531,2.62852555 C56.8089317,1.95569343 55.9936357,1.40531387 55.2672434,1.40531387 L54.7430228,1.40531387 C54.0166305,1.40531387 53.2019825,1.95635036 52.9341051,2.62983942 L52.6898144,3.24433577 L52.6808722,3.24433577 L47.4270018,16.2880292 L47.4288161,16.2880292 L47.230662,16.7781022 C46.9588967,17.4504088 47.3322662,18 48.0586585,18 L49.2344939,18 C49.9608862,18 50.3023748,17.4444964 50.5548301,16.7650949 L50.7319895,16.2880292 L50.7391173,16.2880292 L51.8010368,13.4637372 L58.2232259,13.4637372 L58.3101856,13.6905109 L58.374725,13.8254453 L59.3216918,16.3574015 L59.3249317,16.3574015 L59.4770788,16.7650949 C59.7303117,17.4444964 60.1740525,18 60.9010928,18 L61.9407215,18 C62.6677618,18 63.0391874,17.4509343 62.7661261,16.7794161 L62.5947986,16.3574015 L62.5947986,16.3574015 Z" id="Fill-4" sketch:type="MSShapeGroup"></path>
                <path d="M46.2485744,7.63029197 C46.1270123,7.93760584 45.9499825,8.19367883 45.71269,8.40416058 L45.715282,8.40166423 L45.713338,8.40416058 C45.2375867,8.82367883 44.5292084,9.05255474 43.5751138,9.05255474 L41.8519895,9.05255474 C41.4830263,9.05255474 41.181324,8.75627737 41.181324,8.39391241 L41.181324,4.70023358 C41.181324,4.33852555 41.4830263,4.04172263 41.8519895,4.04172263 L43.5751138,4.04172263 C44.5292084,4.04172263 45.2375867,4.27046715 45.71269,4.69116788 C45.9505009,4.90125547 46.1270123,5.15535766 46.2485744,5.46319708 C46.368711,5.77051095 46.4313065,6.12906569 46.4313065,6.54188321 C46.4313065,6.95877372 46.368711,7.32048175 46.2485744,7.63029197 L46.2485744,7.63029197 Z M49.3598144,8.75824818 C49.6283398,8.11129927 49.7607881,7.37040876 49.7607881,6.54188321 C49.7607881,5.71992701 49.6283398,4.98350365 49.3598144,4.34049635 C49.0925849,3.69748905 48.6885009,3.14776642 48.1532644,2.7069635 C47.090697,1.83258394 45.5431769,1.40531387 43.5751138,1.40531387 L39.3161611,1.40531387 C38.5790123,1.40531387 37.9752189,1.99852555 37.9752189,2.72259854 L37.9752189,16.6828467 C37.9752189,17.4069197 38.5790123,18 39.3161611,18 L39.8403818,18 C40.5776602,18 41.181324,17.4069197 41.181324,16.6828467 L41.181324,11.6888321 L43.5751138,11.6888321 C45.5431769,11.6888321 47.090697,11.2649781 48.1526165,10.392438 C48.6865569,9.95413139 49.0925849,9.40388321 49.3598144,8.75824818 L49.3598144,8.75824818 Z" id="Fill-5" sketch:type="MSShapeGroup"></path>
                <path d="M14.9997093,13.6595036 C14.5598564,14.2105401 14.0566305,14.6129781 13.475387,14.8800876 C12.8941436,15.1471971 12.2302172,15.2826569 11.4698704,15.2826569 C10.7077093,15.2826569 10.043394,15.1471971 9.45994746,14.8800876 C8.87429772,14.6129781 8.36886865,14.2065985 7.92499825,13.6549051 C7.40427671,13.0118978 7.03660946,12.2067591 6.81447986,11.2570949 L6.60945709,9.87451095 C6.60310683,9.79147445 6.59870053,9.61646715 6.59636778,9.42845255 C6.59222067,9.23137226 6.59001751,9.01235036 6.59001751,8.83340146 C6.59001751,8.67981022 6.59222067,8.55328467 6.59442382,8.50086131 L6.75330998,7.11814599 C6.96014711,6.0369635 7.35178984,5.13131387 7.92499825,4.41827737 L7.9225359,4.42274453 L7.92499825,4.42274453 C8.36886865,3.86658394 8.87429772,3.46414599 9.45994746,3.19769343 C10.043394,2.93058394 10.7077093,2.79512409 11.4698704,2.79512409 C12.2302172,2.79512409 12.8941436,2.93058394 13.475387,3.19769343 C14.0566305,3.46414599 14.5598564,3.86658394 14.9997093,4.41827737 C15.8795447,5.5210073 16.3363748,7.06953285 16.3363748,9.04348905 C16.3363748,11.0120584 15.8795447,12.5569051 14.9997093,13.6595036 L14.9997093,13.6595036 Z M17.4234361,2.5410219 C15.937993,0.904861314 13.9171839,0.0731824818 11.4698704,0.0777810219 C9.01141156,0.0731824818 6.98645534,0.904861314 5.49880911,2.5410219 C4.40358319,3.74018978 3.71140455,5.25849635 3.42590193,7.05205839 L3.42590193,7.05665693 L3.2931944,8.46972263 L3.2931944,8.47878832 C3.28425219,8.65839416 3.27375482,8.84181022 3.27375482,9.04348905 C3.27375482,9.34094891 3.28684413,9.62947445 3.30408056,9.90945985 L3.30408056,9.91852555 L3.48473905,11.3317226 L3.48473905,11.3361898 C3.79836427,12.9944234 4.46423468,14.4120876 5.49880911,15.5452993 C6.98645534,17.1729197 9.01141156,18.0045985 11.4698704,18 C13.9171839,18.0045985 15.937993,17.1729197 17.4234361,15.5367591 C18.8994186,13.9129489 19.6423993,11.7166861 19.6423993,9.04348905 C19.6423993,6.36556204 18.9020105,4.16417518 17.4234361,2.5410219 L17.4234361,2.5410219 Z" id="Fill-6" sketch:type="MSShapeGroup"></path>
                <path d="M11.4267145,8.04310949 L0.654725044,8.04310949 L1.66817513,6.05194161 L12.4401646,6.05194161 L11.4267145,8.04310949" id="Fill-8" sketch:type="MSShapeGroup"></path>
                <path d="M9.40849737,12.0259708 L0,12.0259708 L1.06749212,10.0345401 L10.4759895,10.0345401 L9.40849737,12.0259708" id="Fill-9" sketch:type="MSShapeGroup"></path>
            </g>
        </g>
    </g>
</svg>