<?xml version="1.0" encoding="UTF-8" standalone="no"?>
<svg width="64px" height="44px" viewBox="0 0 64 44" version="1.1" xmlns="http://www.w3.org/2000/svg" xmlns:xlink="http://www.w3.org/1999/xlink" xmlns:sketch="http://www.bohemiancoding.com/sketch/ns">
    <!-- Generator: Sketch 3.3.3 (12081) - http://www.bohemiancoding.com/sketch -->
    <title>Payment/Bancontact/Bancontact</title>
    <desc>Created with Sketch.</desc>
    <defs></defs>
    <g id="Icons:-Payment" stroke="none" stroke-width="1" fill="none" fill-rule="evenodd" sketch:type="MSPage">
        <g id="Bancontact" sketch:type="MSArtboardGroup" transform="translate(-18.000000, -8.000000)">
            <g id="Payment/Bancontact/Bancontact" sketch:type="MSLayerGroup" transform="translate(18.000000, 8.000000)">
                <rect id="Rectangle" stroke="#005498" stroke-width="1.5" fill="#FFFFFF" sketch:type="MSShapeGroup" x="0" y="0" width="64" height="44" rx="8"></rect>
                <path d="M20.0614288,24.8214948 L29.3632018,24.8214948 L34.5708479,19.2772023 L43.905596,19.2772023 L35.979408,28.0691817 L6.66587603,28.0691817 L6.66587603,22.196704 L22.3870456,22.196704 L20.0614288,24.8214948" id="Fill-5" fill="#005498" sketch:type="MSShapeGroup"></path>
                <path d="M43.905596,19.2772023 L34.5708479,19.2772023 L29.3632018,24.8542788 L19.9961727,24.8542788 L27.9223607,16.0619543 L57.2685208,16.0619543 L57.2685208,21.901648 L41.5473512,21.901648 L43.905596,19.2772023" id="Fill-6" fill="#FFD800" sketch:type="MSShapeGroup"></path>
                <path d="M53.5020629,13.8968297 C53.0761626,14.1591017 52.519403,14.2902377 51.9952714,14.2902377 C50.4888271,14.2902377 49.1458702,13.1748914 49.1458702,11.633008 C49.1458702,10.0911246 50.3576207,8.97577826 51.8970402,8.97577826 C52.4541469,8.97577826 53.0761626,9.07413027 53.5020629,9.33674739 L53.5020629,10.9769828 C53.1743939,10.6815817 52.6832375,10.5832297 52.1264779,10.5832297 C51.6023463,10.5832297 50.9799835,11.0097668 50.9799835,11.698576 C50.9799835,12.2893782 51.6023463,12.6500023 52.1264779,12.6500023 C52.7158655,12.6500023 53.0761626,12.6172183 53.5020629,12.2893782 L53.5020629,13.8968297" id="Fill-7" fill="#005498" sketch:type="MSShapeGroup"></path>
                <path d="M57.334124,12.6500023 L57.334124,13.8968297 C55.991167,14.88104 54.4517476,14.0607497 54.4517476,12.9126194 L54.4517476,10.6163588 L53.7967567,10.6163588 L53.7967567,9.10691427 L54.4517476,9.10691427 L54.4517476,7.89321596 L56.2858609,6.90866058 L56.2858609,9.10691427 L57.334124,9.10691427 L57.334124,10.4848777 L56.3840922,10.4848777 L56.3840922,12.6172183 C56.3840922,13.0109714 57.0394301,12.9781874 57.334124,12.6500023" id="Fill-8" fill="#005498" sketch:type="MSShapeGroup"></path>
                <path d="M43.4470677,12.6500023 L43.4470677,13.8968297 C42.0714827,14.88104 40.5646913,14.0607497 40.5646913,12.9126194 L40.5646913,10.6163588 L39.9097004,10.6163588 L39.9097004,9.10691427 L40.5646913,9.10691427 L40.5646913,7.89321596 L42.4317798,6.90866058 L42.4317798,9.10691427 L43.4470677,9.10691427 L43.4470677,10.4848777 L42.4644078,10.4848777 L42.4644078,12.6172183 C42.4644078,13.0109714 43.1520268,12.9781874 43.4470677,12.6500023" id="Fill-12" fill="#005498" sketch:type="MSShapeGroup"></path>
                <path d="M28.1514513,13.8968297 C27.725551,14.1591017 27.2343946,14.2902377 26.677635,14.2902377 C25.1382156,14.2902377 23.8282338,13.1748914 23.8282338,11.633008 C23.8282338,10.0911246 25.0399843,8.97577826 26.5467757,8.97577826 C27.1035353,8.97577826 27.725551,9.07413027 28.1514513,9.33674739 L28.1514513,10.9769828 C27.7911543,10.6815817 27.365254,10.5832297 26.8084944,10.5832297 C26.2517348,10.5832297 25.6297191,11.0097668 25.6297191,11.698576 C25.6297191,12.2893782 26.2847099,12.6500023 26.8084944,12.6500023 C27.365254,12.6500023 27.725551,12.6172183 28.1514513,12.2893782 L28.1514513,13.8968297" id="Fill-14" fill="#005498" sketch:type="MSShapeGroup"></path>
                <path d="M23.4679368,10.8782857 L23.4679368,14.1918857 L21.6338234,14.1918857 L21.6338234,11.3376069 C21.6338234,10.3209577 20.1596601,10.3537417 20.1596601,11.3376069 L20.1596601,14.1918857 L18.3255468,14.1918857 L18.3255468,9.10691427 L20.1926352,9.10691427 L20.1926352,9.53345141 C21.7320547,8.3853211 23.4679368,9.4350994 23.4679368,10.8782857" id="Fill-15" fill="#005498" sketch:type="MSShapeGroup"></path>
                <path d="M39.6476347,10.8782857 L39.6476347,14.1918857 L37.8135213,14.1918857 L37.8135213,11.3376069 C37.8135213,10.3209577 36.3397051,10.3537417 36.3397051,11.3376069 L36.3397051,14.1918857 L34.5052447,14.1918857 L34.5052447,9.10691427 L36.3397051,9.10691427 L36.3397051,9.53345141 C37.9117526,8.3853211 39.6476347,9.4350994 39.6476347,10.8782857" id="Fill-16" fill="#005498" sketch:type="MSShapeGroup"></path>
                <path d="M46.5585347,10.3209577 C47.1808975,10.3537417 46.984435,10.8130628 46.4929315,10.8130628 C45.5432468,10.8130628 44.0038273,11.1409028 43.7743896,12.4860823 C43.3814645,14.749904 46.2634938,14.5200708 47.0496911,14.0279657 L47.1152943,14.1918857 L48.8185483,14.1918857 L48.8185483,10.7143657 C48.8185483,9.07413027 46.1982377,8.71316114 44.3641244,9.33674739 L44.0690834,10.7474948 C44.8882559,10.3537417 46.0017751,10.2878286 46.5585347,10.3209577 Z M46.984435,11.9611931 L46.984435,12.5844343 C46.984435,13.2735885 45.6414781,13.4702926 45.6414781,12.7483543 C45.6414781,12.0923291 46.6237908,11.8956251 46.984435,11.9611931 Z" id="Fill-17" fill="#005498" sketch:type="MSShapeGroup"></path>
                <path d="M15.607352,10.3209577 C16.1967396,10.3537417 16.0002771,10.8130628 15.5091207,10.8130628 C14.5590889,10.8130628 13.0526446,11.1409028 12.8232068,12.4860823 C12.3646785,14.749904 15.3452862,14.5200708 16.0985083,14.0279657 L16.1311364,14.1918857 L17.8670184,14.1918857 L17.8670184,10.7143657 C17.8670184,9.07413027 15.2470549,8.71316114 13.4129416,9.33674739 L13.1508758,10.7474948 C13.904098,10.3537417 15.0505924,10.2878286 15.607352,10.3209577 Z M16.0329051,11.9611931 L16.0329051,12.5844343 C16.0329051,13.2735885 14.6573201,13.4702926 14.6573201,12.7483543 C14.6573201,12.0923291 15.63998,11.8956251 16.0329051,11.9611931 Z" id="Fill-29" fill="#005498" sketch:type="MSShapeGroup"></path>
                <path d="M42.4644078,12.6172183 L42.4644078,10.4848777 L43.4470677,10.4848777 L43.4470677,9.10691427 L42.4317798,9.10691427 L42.4317798,6.90866058 L40.5646913,7.89321596 L40.5646913,9.10691427 L39.9097004,9.10691427 L39.9097004,10.6163588 L40.5646913,10.6163588 L40.5646913,12.9126194 C40.5646913,14.0607497 42.0714827,14.88104 43.4470677,13.8968297 L43.4470677,12.6500023 C43.1520268,12.9781874 42.4644078,13.0109714 42.4644078,12.6172183" id="Fill-20" fill="#005498" sketch:type="MSShapeGroup"></path>
                <path d="M6.69850408,6.54803654 L6.69850408,14.1591017 L10.3667307,14.1591017 C12.5611411,14.1263177 13.4455697,11.436304 11.480597,10.2222606 C13.0526446,8.81151315 11.8079189,6.54803654 10.1046649,6.54803654 L6.69850408,6.54803654 Z M8.79468317,11.1081188 L9.61350855,11.1081188 C10.6287965,11.1081188 10.7270278,12.6500023 9.6461366,12.6500023 L8.79468317,12.6500023 L8.79468317,11.1081188 Z M9.61350855,8.08991998 C10.5631933,8.51645712 10.2358714,9.53345141 9.6461366,9.53345141 L8.79468317,9.53345141 L8.79468317,8.08991998 C8.79468317,8.05713598 9.38441794,8.02435197 9.61350855,8.08991998 Z" id="Fill-21" fill="#005498" sketch:type="MSShapeGroup"></path>
                <path d="M28.1514513,12.2893782 C27.725551,12.6172183 27.365254,12.6500023 26.8084944,12.6500023 C26.2847099,12.6500023 25.6297191,12.2893782 25.6297191,11.698576 C25.6297191,11.0097668 26.2517348,10.5832297 26.8084944,10.5832297 C27.365254,10.5832297 27.7911543,10.6815817 28.1514513,10.9769828 L28.1514513,9.33674739 C27.725551,9.07413027 27.1035353,8.97577826 26.5467757,8.97577826 C25.0399843,8.97577826 23.8282338,10.0911246 23.8282338,11.633008 C23.8282338,13.1748914 25.1382156,14.2902377 26.677635,14.2902377 C27.2343946,14.2902377 27.725551,14.1591017 28.1514513,13.8968297 L28.1514513,12.2893782" id="Fill-22" fill="#005498" sketch:type="MSShapeGroup"></path>
                <path d="M20.1926352,9.53345141 L20.1926352,9.10691427 L18.3255468,9.10691427 L18.3255468,14.1918857 L20.1596601,14.1918857 L20.1596601,11.3376069 C20.1596601,10.3537417 21.6338234,10.3209577 21.6338234,11.3376069 L21.6338234,14.1918857 L23.4679368,14.1918857 L23.4679368,10.8782857 C23.4679368,9.4350994 21.7320547,8.3853211 20.1926352,9.53345141" id="Fill-23" fill="#005498" sketch:type="MSShapeGroup"></path>
                <path d="M36.3397051,9.53345141 L36.3397051,9.10691427 L34.5052447,9.10691427 L34.5052447,14.1918857 L36.3397051,14.1918857 L36.3397051,11.3376069 C36.3397051,10.3537417 37.8135213,10.3209577 37.8135213,11.3376069 L37.8135213,14.1918857 L39.6476347,14.1918857 L39.6476347,10.8782857 C39.6476347,9.4350994 37.9117526,8.3853211 36.3397051,9.53345141" id="Fill-24" fill="#005498" sketch:type="MSShapeGroup"></path>
                <path d="M53.5020629,12.2893782 C53.0761626,12.6172183 52.7158655,12.6500023 52.1264779,12.6500023 C51.6023463,12.6500023 50.9799835,12.2893782 50.9799835,11.698576 C50.9799835,11.0097668 51.6023463,10.5832297 52.1264779,10.5832297 C52.6832375,10.5832297 53.1743939,10.6815817 53.5020629,10.9769828 L53.5020629,9.33674739 C53.0761626,9.07413027 52.4541469,8.97577826 51.8970402,8.97577826 C50.3576207,8.97577826 49.1458702,10.0911246 49.1458702,11.633008 C49.1458702,13.1748914 50.4888271,14.2902377 51.9952714,14.2902377 C52.519403,14.2902377 53.0761626,14.1591017 53.5020629,13.8968297 L53.5020629,12.2893782" id="Fill-25" fill="#005498" sketch:type="MSShapeGroup"></path>
                <path d="M56.3840922,12.6172183 L56.3840922,10.4848777 L57.334124,10.4848777 L57.334124,9.10691427 L56.2858609,9.10691427 L56.2858609,6.90866058 L54.4517476,7.89321596 L54.4517476,9.10691427 L53.7967567,9.10691427 L53.7967567,10.6163588 L54.4517476,10.6163588 L54.4517476,12.9126194 C54.4517476,14.0607497 55.991167,14.88104 57.334124,13.8968297 L57.334124,12.6500023 C57.0394301,12.9781874 56.3840922,13.0109714 56.3840922,12.6172183" id="Fill-26" fill="#005498" sketch:type="MSShapeGroup"></path>
                <path d="M31.2958935,8.94299425 C29.7891021,8.94299425 28.4791203,10.1239086 28.4791203,11.633008 C28.4791203,13.1748914 29.7891021,14.3233668 31.3285215,14.3233668 C32.867941,14.3233668 34.1452947,13.2404594 34.1452947,11.698576 C34.1452947,10.1239086 32.867941,8.94299425 31.2958935,8.94299425 Z M32.3764375,11.698576 C32.3764375,12.2565942 31.8852811,12.7159154 31.3285215,12.7159154 C30.7717619,12.7159154 30.3132336,12.2565942 30.3132336,11.633008 C30.3132336,10.9769828 30.7717619,10.6163588 31.3285215,10.6163588 C31.8852811,10.6163588 32.3764375,10.9769828 32.3764375,11.698576 Z" id="Fill-19" fill="#005498" sketch:type="MSShapeGroup"></path>
                <path d="M29.4617802,34.9258697 C29.4617802,33.1544983 28.740839,32.0060229 26.9397008,32.0060229 C25.2364468,32.0060229 24.2211589,33.2856343 24.2211589,34.7291657 C24.2211589,36.3038332 25.4329094,37.4519635 27.1361634,37.4519635 C28.6099796,37.4519635 29.3632018,36.8615063 29.3632018,36.8615063 L29.3632018,35.3524069 C28.740839,35.680592 28.05322,35.877296 27.5620636,35.877296 C26.5794038,35.877296 26.0552722,35.615024 26.0552722,34.9258697 L29.4617802,34.9258697 Z M25.989669,33.9088754 C26.0879003,33.4167703 26.4811725,33.2528503 26.8414695,33.2528503 C27.2017666,33.2528503 27.6602949,33.4167703 27.6602949,33.9088754 L25.989669,33.9088754 Z" id="Fill-37" fill="#005498" sketch:type="MSShapeGroup"></path>
                <path d="M10.2358714,35.1884869 L11.7426628,33.0230172 L11.7426628,37.3208274 L13.7076354,37.3208274 L13.7402635,29.8736823 L11.7426628,29.8736823 L10.2358714,32.10472 L8.69645189,29.8736823 L6.69850408,29.8736823 L6.73147925,37.3208274 L8.69645189,37.3208274 L8.69645189,33.0230172 L10.2358714,35.1884869" id="Fill-38" fill="#005498" sketch:type="MSShapeGroup"></path>
                <path d="M31.5905873,34.3354126 C31.7870499,33.9088754 32.212603,33.5479063 32.7697097,33.5479063 C33.0644036,33.5479063 33.3920726,33.6790423 33.6211632,33.8433074 L33.6211632,32.235856 C33.4573287,32.0388069 33.1952629,31.9732389 32.9335442,31.9732389 C32.4746688,31.9732389 31.852306,32.235856 31.5905873,32.563696 L31.5905873,32.0388069 L29.8220772,32.0388069 L29.8220772,37.3208274 L31.5905873,37.3208274 L31.5905873,34.3354126" id="Fill-39" fill="#005498" sketch:type="MSShapeGroup"></path>
                <path d="M16.5244086,36.9926423 C17.1467714,37.2552594 17.8999936,37.3536114 18.39115,37.3536114 C20.2908665,37.3536114 20.8476261,36.3694012 20.8476261,35.549456 C20.8476261,34.5980297 19.8649662,34.0727955 18.9808848,33.9416594 C18.8496783,33.9416594 18.4893813,33.8433074 18.4893813,33.6790423 C18.4893813,33.5479063 18.5876125,33.3836412 19.0135128,33.3836412 C19.3738099,33.3836412 20.0288007,33.5151223 20.3564697,33.6790423 L20.2908665,32.301424 C19.7997101,32.137504 19.1117441,32.0060229 18.5876125,32.0060229 C17.5070685,32.0060229 16.5570367,32.6623931 16.5570367,33.7121714 C16.5570367,34.5324617 17.1467714,34.9589988 18.0964562,35.1557029 C18.4893813,35.1884869 18.8496783,35.3524069 18.8496783,35.549456 C18.8496783,35.811728 18.5876125,35.877296 18.3255468,35.877296 C18.0964562,35.877296 17.5070685,35.942864 16.5244086,35.549456 L16.5244086,36.9926423" id="Fill-40" fill="#005498" sketch:type="MSShapeGroup"></path>
                <path d="M23.238499,35.713376 L23.238499,33.5479063 L24.2541341,33.5479063 L24.2541341,32.137504 L23.1728958,32.137504 L23.1728958,29.8736823 L21.3061544,30.8578926 L21.3061544,32.137504 L20.6511636,32.137504 L20.6511636,33.6466034 L21.3061544,33.6466034 L21.3061544,36.0087771 C21.3061544,37.1896914 22.8455739,37.9771977 24.2541341,36.9926423 L24.2541341,35.713376 C23.9590931,36.0087771 23.238499,36.0743451 23.238499,35.713376" id="Fill-41" fill="#005498" sketch:type="MSShapeGroup"></path>
                <path d="M14.2314199,32.137504 L16.1967396,32.137504 L16.1967396,37.2552594 L14.2314199,37.2552594 L14.2314199,32.137504 Z" id="Fill-42" fill="#005498" sketch:type="MSShapeGroup"></path>
                <path d="M15.2140798,31.9732389 C15.8038145,31.9732389 16.2949709,31.4811337 16.2949709,30.8906766 C16.2949709,30.3330034 15.8038145,29.8736823 15.2140798,29.8736823 C14.6573201,29.8736823 14.1987918,30.3330034 14.1987918,30.8906766 C14.1987918,31.4811337 14.6573201,31.9732389 15.2140798,31.9732389" id="Fill-43" fill="#005498" sketch:type="MSShapeGroup"></path>
                <path d="M47.5082194,36.9926423 C48.1305823,37.2552594 48.8841515,37.3536114 49.3753079,37.3536114 C51.2746773,37.3536114 51.8644121,36.3694012 51.8644121,35.549456 C51.8644121,34.5980297 50.8817522,34.0727955 49.9646956,33.9416594 C49.8338362,33.9416594 49.4735392,33.8433074 49.4735392,33.6790423 C49.4735392,33.5479063 49.5717705,33.3836412 50.0302988,33.3836412 C50.3905958,33.3836412 51.0129587,33.5151223 51.3729086,33.6790423 L51.2746773,32.301424 C50.7835209,32.137504 50.095902,32.0060229 49.5717705,32.0060229 C48.4908793,32.0060229 47.5411946,32.6623931 47.5411946,33.7121714 C47.5411946,34.5324617 48.1305823,34.9589988 49.080267,35.1557029 C49.4735392,35.1884869 49.8338362,35.3524069 49.8338362,35.549456 C49.8338362,35.811728 49.5717705,35.877296 49.3097047,35.877296 C49.080267,35.877296 48.4908793,35.942864 47.5082194,35.549456 L47.5082194,36.9926423" id="Fill-44" fill="#005498" sketch:type="MSShapeGroup"></path>
                <path d="M41.7438137,35.1557029 C41.1214509,35.615024 40.6302945,35.713376 39.8114691,35.713376 C38.5667435,35.713376 37.4532243,34.6963817 37.4532243,33.6466034 C37.4532243,32.498128 38.0755871,31.4155657 39.8114691,31.4155657 C40.5973194,31.4155657 41.2523102,31.5467017 41.7438137,32.0060229 L41.7438137,30.2346514 C41.1214509,29.8736823 40.2699975,29.7753303 39.5167753,29.7753303 C37.2567617,29.7753303 35.5208797,31.3827817 35.5208797,33.5810354 C35.5208797,35.74616 37.4205962,37.3867405 39.6476347,37.3867405 C40.4008568,37.3867405 41.1214509,37.2224754 41.7438137,36.8615063 L41.7438137,35.1557029" id="Fill-45" fill="#005498" sketch:type="MSShapeGroup"></path>
                <path d="M44.8882559,33.2856343 C45.5102716,33.3184183 45.3138091,33.8105234 44.8226527,33.8105234 C43.8399928,33.8105234 42.2679453,34.1387086 42.0714827,35.4835429 C41.6455825,37.7801486 44.593215,37.5830995 45.3794123,37.0913394 L45.4450155,37.2224754 L47.2135256,37.2224754 L47.2135256,33.6790423 C47.2135256,32.0060229 44.5276118,31.6778378 42.6282423,32.301424 L42.3661766,33.7121714 C43.1850019,33.3184183 44.3311492,33.2528503 44.8882559,33.2856343 Z M45.3138091,34.9589988 L45.3138091,35.58224 C45.3138091,36.3038332 43.9382241,36.4680983 43.9382241,35.74616 C43.9382241,35.0901348 44.953512,34.9258697 45.3138091,34.9589988 Z" id="Fill-46" fill="#005498" sketch:type="MSShapeGroup"></path>
                <path d="M53.9605912,32.5312571 L53.9605912,29.8736823 L52.1264779,29.8736823 L52.1264779,37.3208274 L53.9605912,37.3208274 L53.9605912,34.4009806 C53.9605912,33.4167703 55.4670355,33.3836412 55.4670355,34.4009806 L55.4670355,37.3208274 L57.334124,37.3208274 L57.334124,33.9416594 C57.334124,32.43256 55.5656139,31.3827817 53.9605912,32.5312571" id="Fill-47" fill="#005498" sketch:type="MSShapeGroup"></path>
            </g>
        </g>
    </g>
</svg>