<?xml version="1.0" encoding="UTF-8" standalone="no"?>
<svg width="100px" height="60px" viewBox="0 0 100 60" version="1.1" xmlns="http://www.w3.org/2000/svg" xmlns:xlink="http://www.w3.org/1999/xlink" xmlns:sketch="http://www.bohemiancoding.com/sketch/ns">
    <!-- Generator: Sketch 3.3.3 (12081) - http://www.bohemiancoding.com/sketch -->
    <title>Payment/Bancontact/Bancontact-card-flat</title>
    <desc>Created with Sketch.</desc>
    <defs></defs>
    <g id="Icons:-Payment" stroke="none" stroke-width="1" fill="none" fill-rule="evenodd" sketch:type="MSPage">
        <g id="Bancontact-card-flat" sketch:type="MSArtboardGroup">
            <g id="Payment/Bancontact/Bancontact-card-flat" sketch:type="MSLayerGroup">
                <rect id="Rectangle" fill="#9B9B9B" sketch:type="MSShapeGroup" x="0" y="0" width="100" height="60" rx="4"></rect>
                <rect id="Rectangle" stroke="#FFFFFF" stroke-width="1.5" sketch:type="MSShapeGroup" x="18" y="8" width="64" height="44" rx="8"></rect>
                <path d="M38.0614288,32.8214948 L47.3632018,32.8214948 L52.5708479,27.2772023 L61.905596,27.2772023 L53.979408,36.0691817 L24.665876,36.0691817 L24.665876,30.196704 L40.3870456,30.196704 L38.0614288,32.8214948" id="Fill-5" fill="#FFFFFF" sketch:type="MSShapeGroup"></path>
                <path d="M52.5708479,27.2772023 L47.3632018,32.8542788 L37.9961727,32.8542788 L45.9223607,24.0619543 L75.2685208,24.0619543 L75.2685208,29.901648 L59.5473512,29.901648 L61.905596,27.2772023 L52.5708479,27.2772023 Z" id="Fill-6" stroke="#FFFFFF" sketch:type="MSShapeGroup"></path>
                <path d="M71.5020629,21.8968297 C71.0761626,22.1591017 70.519403,22.2902377 69.9952714,22.2902377 C68.4888271,22.2902377 67.1458702,21.1748914 67.1458702,19.633008 C67.1458702,18.0911246 68.3576207,16.9757783 69.8970402,16.9757783 C70.4541469,16.9757783 71.0761626,17.0741303 71.5020629,17.3367474 L71.5020629,18.9769828 C71.1743939,18.6815817 70.6832375,18.5832297 70.1264779,18.5832297 C69.6023463,18.5832297 68.9799835,19.0097668 68.9799835,19.698576 C68.9799835,20.2893782 69.6023463,20.6500023 70.1264779,20.6500023 C70.7158655,20.6500023 71.0761626,20.6172183 71.5020629,20.2893782 L71.5020629,21.8968297" id="Fill-7" fill="#FFFFFF" sketch:type="MSShapeGroup"></path>
                <path d="M75.334124,20.6500023 L75.334124,21.8968297 C73.991167,22.88104 72.4517476,22.0607497 72.4517476,20.9126194 L72.4517476,18.6163588 L71.7967567,18.6163588 L71.7967567,17.1069143 L72.4517476,17.1069143 L72.4517476,15.893216 L74.2858609,14.9086606 L74.2858609,17.1069143 L75.334124,17.1069143 L75.334124,18.4848777 L74.3840922,18.4848777 L74.3840922,20.6172183 C74.3840922,21.0109714 75.0394301,20.9781874 75.334124,20.6500023" id="Fill-8" fill="#FFFFFF" sketch:type="MSShapeGroup"></path>
                <path d="M61.4470677,20.6500023 L61.4470677,21.8968297 C60.0714827,22.88104 58.5646913,22.0607497 58.5646913,20.9126194 L58.5646913,18.6163588 L57.9097004,18.6163588 L57.9097004,17.1069143 L58.5646913,17.1069143 L58.5646913,15.893216 L60.4317798,14.9086606 L60.4317798,17.1069143 L61.4470677,17.1069143 L61.4470677,18.4848777 L60.4644078,18.4848777 L60.4644078,20.6172183 C60.4644078,21.0109714 61.1520268,20.9781874 61.4470677,20.6500023" id="Fill-12" fill="#FFFFFF" sketch:type="MSShapeGroup"></path>
                <path d="M46.1514513,21.8968297 C45.725551,22.1591017 45.2343946,22.2902377 44.677635,22.2902377 C43.1382156,22.2902377 41.8282338,21.1748914 41.8282338,19.633008 C41.8282338,18.0911246 43.0399843,16.9757783 44.5467757,16.9757783 C45.1035353,16.9757783 45.725551,17.0741303 46.1514513,17.3367474 L46.1514513,18.9769828 C45.7911543,18.6815817 45.365254,18.5832297 44.8084944,18.5832297 C44.2517348,18.5832297 43.6297191,19.0097668 43.6297191,19.698576 C43.6297191,20.2893782 44.2847099,20.6500023 44.8084944,20.6500023 C45.365254,20.6500023 45.725551,20.6172183 46.1514513,20.2893782 L46.1514513,21.8968297" id="Fill-14" fill="#FFFFFF" sketch:type="MSShapeGroup"></path>
                <path d="M41.4679368,18.8782857 L41.4679368,22.1918857 L39.6338234,22.1918857 L39.6338234,19.3376069 C39.6338234,18.3209577 38.1596601,18.3537417 38.1596601,19.3376069 L38.1596601,22.1918857 L36.3255468,22.1918857 L36.3255468,17.1069143 L38.1926352,17.1069143 L38.1926352,17.5334514 C39.7320547,16.3853211 41.4679368,17.4350994 41.4679368,18.8782857" id="Fill-15" fill="#FFFFFF" sketch:type="MSShapeGroup"></path>
                <path d="M57.6476347,18.8782857 L57.6476347,22.1918857 L55.8135213,22.1918857 L55.8135213,19.3376069 C55.8135213,18.3209577 54.3397051,18.3537417 54.3397051,19.3376069 L54.3397051,22.1918857 L52.5052447,22.1918857 L52.5052447,17.1069143 L54.3397051,17.1069143 L54.3397051,17.5334514 C55.9117526,16.3853211 57.6476347,17.4350994 57.6476347,18.8782857" id="Fill-16" fill="#FFFFFF" sketch:type="MSShapeGroup"></path>
                <path d="M64.5585347,18.3209577 C65.1808975,18.3537417 64.984435,18.8130628 64.4929315,18.8130628 C63.5432468,18.8130628 62.0038273,19.1409028 61.7743896,20.4860823 C61.3814645,22.749904 64.2634938,22.5200708 65.0496911,22.0279657 L65.1152943,22.1918857 L66.8185483,22.1918857 L66.8185483,18.7143657 C66.8185483,17.0741303 64.1982377,16.7131611 62.3641244,17.3367474 L62.0690834,18.7474948 C62.8882559,18.3537417 64.0017751,18.2878286 64.5585347,18.3209577 Z M64.984435,19.9611931 L64.984435,20.5844343 C64.984435,21.2735885 63.6414781,21.4702926 63.6414781,20.7483543 C63.6414781,20.0923291 64.6237908,19.8956251 64.984435,19.9611931 Z" id="Fill-17" fill="#FFFFFF" sketch:type="MSShapeGroup"></path>
                <path d="M33.607352,18.3209577 C34.1967396,18.3537417 34.0002771,18.8130628 33.5091207,18.8130628 C32.5590889,18.8130628 31.0526446,19.1409028 30.8232068,20.4860823 C30.3646785,22.749904 33.3452862,22.5200708 34.0985083,22.0279657 L34.1311364,22.1918857 L35.8670184,22.1918857 L35.8670184,18.7143657 C35.8670184,17.0741303 33.2470549,16.7131611 31.4129416,17.3367474 L31.1508758,18.7474948 C31.904098,18.3537417 33.0505924,18.2878286 33.607352,18.3209577 Z M34.0329051,19.9611931 L34.0329051,20.5844343 C34.0329051,21.2735885 32.6573201,21.4702926 32.6573201,20.7483543 C32.6573201,20.0923291 33.63998,19.8956251 34.0329051,19.9611931 Z" id="Fill-29" fill="#FFFFFF" sketch:type="MSShapeGroup"></path>
                <path d="M60.4644078,20.6172183 L60.4644078,18.4848777 L61.4470677,18.4848777 L61.4470677,17.1069143 L60.4317798,17.1069143 L60.4317798,14.9086606 L58.5646913,15.893216 L58.5646913,17.1069143 L57.9097004,17.1069143 L57.9097004,18.6163588 L58.5646913,18.6163588 L58.5646913,20.9126194 C58.5646913,22.0607497 60.0714827,22.88104 61.4470677,21.8968297 L61.4470677,20.6500023 C61.1520268,20.9781874 60.4644078,21.0109714 60.4644078,20.6172183" id="Fill-20" fill="#FFFFFF" sketch:type="MSShapeGroup"></path>
                <path d="M24.6985041,14.5480365 L24.6985041,22.1591017 L28.3667307,22.1591017 C30.5611411,22.1263177 31.4455697,19.436304 29.480597,18.2222606 C31.0526446,16.8115131 29.8079189,14.5480365 28.1046649,14.5480365 L24.6985041,14.5480365 Z M26.7946832,19.1081188 L27.6135085,19.1081188 C28.6287965,19.1081188 28.7270278,20.6500023 27.6461366,20.6500023 L26.7946832,20.6500023 L26.7946832,19.1081188 Z M27.6135085,16.08992 C28.5631933,16.5164571 28.2358714,17.5334514 27.6461366,17.5334514 L26.7946832,17.5334514 L26.7946832,16.08992 C26.7946832,16.057136 27.3844179,16.024352 27.6135085,16.08992 Z" id="Fill-21" fill="#FFFFFF" sketch:type="MSShapeGroup"></path>
                <path d="M46.1514513,20.2893782 C45.725551,20.6172183 45.365254,20.6500023 44.8084944,20.6500023 C44.2847099,20.6500023 43.6297191,20.2893782 43.6297191,19.698576 C43.6297191,19.0097668 44.2517348,18.5832297 44.8084944,18.5832297 C45.365254,18.5832297 45.7911543,18.6815817 46.1514513,18.9769828 L46.1514513,17.3367474 C45.725551,17.0741303 45.1035353,16.9757783 44.5467757,16.9757783 C43.0399843,16.9757783 41.8282338,18.0911246 41.8282338,19.633008 C41.8282338,21.1748914 43.1382156,22.2902377 44.677635,22.2902377 C45.2343946,22.2902377 45.725551,22.1591017 46.1514513,21.8968297 L46.1514513,20.2893782" id="Fill-22" fill="#FFFFFF" sketch:type="MSShapeGroup"></path>
                <path d="M38.1926352,17.5334514 L38.1926352,17.1069143 L36.3255468,17.1069143 L36.3255468,22.1918857 L38.1596601,22.1918857 L38.1596601,19.3376069 C38.1596601,18.3537417 39.6338234,18.3209577 39.6338234,19.3376069 L39.6338234,22.1918857 L41.4679368,22.1918857 L41.4679368,18.8782857 C41.4679368,17.4350994 39.7320547,16.3853211 38.1926352,17.5334514" id="Fill-23" fill="#FFFFFF" sketch:type="MSShapeGroup"></path>
                <path d="M54.3397051,17.5334514 L54.3397051,17.1069143 L52.5052447,17.1069143 L52.5052447,22.1918857 L54.3397051,22.1918857 L54.3397051,19.3376069 C54.3397051,18.3537417 55.8135213,18.3209577 55.8135213,19.3376069 L55.8135213,22.1918857 L57.6476347,22.1918857 L57.6476347,18.8782857 C57.6476347,17.4350994 55.9117526,16.3853211 54.3397051,17.5334514" id="Fill-24" fill="#FFFFFF" sketch:type="MSShapeGroup"></path>
                <path d="M71.5020629,20.2893782 C71.0761626,20.6172183 70.7158655,20.6500023 70.1264779,20.6500023 C69.6023463,20.6500023 68.9799835,20.2893782 68.9799835,19.698576 C68.9799835,19.0097668 69.6023463,18.5832297 70.1264779,18.5832297 C70.6832375,18.5832297 71.1743939,18.6815817 71.5020629,18.9769828 L71.5020629,17.3367474 C71.0761626,17.0741303 70.4541469,16.9757783 69.8970402,16.9757783 C68.3576207,16.9757783 67.1458702,18.0911246 67.1458702,19.633008 C67.1458702,21.1748914 68.4888271,22.2902377 69.9952714,22.2902377 C70.519403,22.2902377 71.0761626,22.1591017 71.5020629,21.8968297 L71.5020629,20.2893782" id="Fill-25" fill="#FFFFFF" sketch:type="MSShapeGroup"></path>
                <path d="M74.3840922,20.6172183 L74.3840922,18.4848777 L75.334124,18.4848777 L75.334124,17.1069143 L74.2858609,17.1069143 L74.2858609,14.9086606 L72.4517476,15.893216 L72.4517476,17.1069143 L71.7967567,17.1069143 L71.7967567,18.6163588 L72.4517476,18.6163588 L72.4517476,20.9126194 C72.4517476,22.0607497 73.991167,22.88104 75.334124,21.8968297 L75.334124,20.6500023 C75.0394301,20.9781874 74.3840922,21.0109714 74.3840922,20.6172183" id="Fill-26" fill="#FFFFFF" sketch:type="MSShapeGroup"></path>
                <path d="M49.2958935,16.9429943 C47.7891021,16.9429943 46.4791203,18.1239086 46.4791203,19.633008 C46.4791203,21.1748914 47.7891021,22.3233668 49.3285215,22.3233668 C50.867941,22.3233668 52.1452947,21.2404594 52.1452947,19.698576 C52.1452947,18.1239086 50.867941,16.9429943 49.2958935,16.9429943 Z M50.3764375,19.698576 C50.3764375,20.2565942 49.8852811,20.7159154 49.3285215,20.7159154 C48.7717619,20.7159154 48.3132336,20.2565942 48.3132336,19.633008 C48.3132336,18.9769828 48.7717619,18.6163588 49.3285215,18.6163588 C49.8852811,18.6163588 50.3764375,18.9769828 50.3764375,19.698576 Z" id="Fill-19" fill="#FFFFFF" sketch:type="MSShapeGroup"></path>
                <path d="M47.4617802,42.9258697 C47.4617802,41.1544983 46.740839,40.0060229 44.9397008,40.0060229 C43.2364468,40.0060229 42.2211589,41.2856343 42.2211589,42.7291657 C42.2211589,44.3038332 43.4329094,45.4519635 45.1361634,45.4519635 C46.6099796,45.4519635 47.3632018,44.8615063 47.3632018,44.8615063 L47.3632018,43.3524069 C46.740839,43.680592 46.05322,43.877296 45.5620636,43.877296 C44.5794038,43.877296 44.0552722,43.615024 44.0552722,42.9258697 L47.4617802,42.9258697 Z M43.989669,41.9088754 C44.0879003,41.4167703 44.4811725,41.2528503 44.8414695,41.2528503 C45.2017666,41.2528503 45.6602949,41.4167703 45.6602949,41.9088754 L43.989669,41.9088754 Z" id="Fill-37" fill="#FFFFFF" sketch:type="MSShapeGroup"></path>
                <path d="M28.2358714,43.1884869 L29.7426628,41.0230172 L29.7426628,45.3208274 L31.7076354,45.3208274 L31.7402635,37.8736823 L29.7426628,37.8736823 L28.2358714,40.10472 L26.6964519,37.8736823 L24.6985041,37.8736823 L24.7314792,45.3208274 L26.6964519,45.3208274 L26.6964519,41.0230172 L28.2358714,43.1884869" id="Fill-38" fill="#FFFFFF" sketch:type="MSShapeGroup"></path>
                <path d="M49.5905873,42.3354126 C49.7870499,41.9088754 50.212603,41.5479063 50.7697097,41.5479063 C51.0644036,41.5479063 51.3920726,41.6790423 51.6211632,41.8433074 L51.6211632,40.235856 C51.4573287,40.0388069 51.1952629,39.9732389 50.9335442,39.9732389 C50.4746688,39.9732389 49.852306,40.235856 49.5905873,40.563696 L49.5905873,40.0388069 L47.8220772,40.0388069 L47.8220772,45.3208274 L49.5905873,45.3208274 L49.5905873,42.3354126" id="Fill-39" fill="#FFFFFF" sketch:type="MSShapeGroup"></path>
                <path d="M34.5244086,44.9926423 C35.1467714,45.2552594 35.8999936,45.3536114 36.39115,45.3536114 C38.2908665,45.3536114 38.8476261,44.3694012 38.8476261,43.549456 C38.8476261,42.5980297 37.8649662,42.0727955 36.9808848,41.9416594 C36.8496783,41.9416594 36.4893813,41.8433074 36.4893813,41.6790423 C36.4893813,41.5479063 36.5876125,41.3836412 37.0135128,41.3836412 C37.3738099,41.3836412 38.0288007,41.5151223 38.3564697,41.6790423 L38.2908665,40.301424 C37.7997101,40.137504 37.1117441,40.0060229 36.5876125,40.0060229 C35.5070685,40.0060229 34.5570367,40.6623931 34.5570367,41.7121714 C34.5570367,42.5324617 35.1467714,42.9589988 36.0964562,43.1557029 C36.4893813,43.1884869 36.8496783,43.3524069 36.8496783,43.549456 C36.8496783,43.811728 36.5876125,43.877296 36.3255468,43.877296 C36.0964562,43.877296 35.5070685,43.942864 34.5244086,43.549456 L34.5244086,44.9926423" id="Fill-40" fill="#FFFFFF" sketch:type="MSShapeGroup"></path>
                <path d="M41.238499,43.713376 L41.238499,41.5479063 L42.2541341,41.5479063 L42.2541341,40.137504 L41.1728958,40.137504 L41.1728958,37.8736823 L39.3061544,38.8578926 L39.3061544,40.137504 L38.6511636,40.137504 L38.6511636,41.6466034 L39.3061544,41.6466034 L39.3061544,44.0087771 C39.3061544,45.1896914 40.8455739,45.9771977 42.2541341,44.9926423 L42.2541341,43.713376 C41.9590931,44.0087771 41.238499,44.0743451 41.238499,43.713376" id="Fill-41" fill="#FFFFFF" sketch:type="MSShapeGroup"></path>
                <path d="M32.2314199,40.137504 L34.1967396,40.137504 L34.1967396,45.2552594 L32.2314199,45.2552594 L32.2314199,40.137504 Z" id="Fill-42" fill="#FFFFFF" sketch:type="MSShapeGroup"></path>
                <path d="M33.2140798,39.9732389 C33.8038145,39.9732389 34.2949709,39.4811337 34.2949709,38.8906766 C34.2949709,38.3330034 33.8038145,37.8736823 33.2140798,37.8736823 C32.6573201,37.8736823 32.1987918,38.3330034 32.1987918,38.8906766 C32.1987918,39.4811337 32.6573201,39.9732389 33.2140798,39.9732389" id="Fill-43" fill="#FFFFFF" sketch:type="MSShapeGroup"></path>
                <path d="M65.5082194,44.9926423 C66.1305823,45.2552594 66.8841515,45.3536114 67.3753079,45.3536114 C69.2746773,45.3536114 69.8644121,44.3694012 69.8644121,43.549456 C69.8644121,42.5980297 68.8817522,42.0727955 67.9646956,41.9416594 C67.8338362,41.9416594 67.4735392,41.8433074 67.4735392,41.6790423 C67.4735392,41.5479063 67.5717705,41.3836412 68.0302988,41.3836412 C68.3905958,41.3836412 69.0129587,41.5151223 69.3729086,41.6790423 L69.2746773,40.301424 C68.7835209,40.137504 68.095902,40.0060229 67.5717705,40.0060229 C66.4908793,40.0060229 65.5411946,40.6623931 65.5411946,41.7121714 C65.5411946,42.5324617 66.1305823,42.9589988 67.080267,43.1557029 C67.4735392,43.1884869 67.8338362,43.3524069 67.8338362,43.549456 C67.8338362,43.811728 67.5717705,43.877296 67.3097047,43.877296 C67.080267,43.877296 66.4908793,43.942864 65.5082194,43.549456 L65.5082194,44.9926423" id="Fill-44" fill="#FFFFFF" sketch:type="MSShapeGroup"></path>
                <path d="M59.7438137,43.1557029 C59.1214509,43.615024 58.6302945,43.713376 57.8114691,43.713376 C56.5667435,43.713376 55.4532243,42.6963817 55.4532243,41.6466034 C55.4532243,40.498128 56.0755871,39.4155657 57.8114691,39.4155657 C58.5973194,39.4155657 59.2523102,39.5467017 59.7438137,40.0060229 L59.7438137,38.2346514 C59.1214509,37.8736823 58.2699975,37.7753303 57.5167753,37.7753303 C55.2567617,37.7753303 53.5208797,39.3827817 53.5208797,41.5810354 C53.5208797,43.74616 55.4205962,45.3867405 57.6476347,45.3867405 C58.4008568,45.3867405 59.1214509,45.2224754 59.7438137,44.8615063 L59.7438137,43.1557029" id="Fill-45" fill="#FFFFFF" sketch:type="MSShapeGroup"></path>
                <path d="M62.8882559,41.2856343 C63.5102716,41.3184183 63.3138091,41.8105234 62.8226527,41.8105234 C61.8399928,41.8105234 60.2679453,42.1387086 60.0714827,43.4835429 C59.6455825,45.7801486 62.593215,45.5830995 63.3794123,45.0913394 L63.4450155,45.2224754 L65.2135256,45.2224754 L65.2135256,41.6790423 C65.2135256,40.0060229 62.5276118,39.6778378 60.6282423,40.301424 L60.3661766,41.7121714 C61.1850019,41.3184183 62.3311492,41.2528503 62.8882559,41.2856343 Z M63.3138091,42.9589988 L63.3138091,43.58224 C63.3138091,44.3038332 61.9382241,44.4680983 61.9382241,43.74616 C61.9382241,43.0901348 62.953512,42.9258697 63.3138091,42.9589988 Z" id="Fill-46" fill="#FFFFFF" sketch:type="MSShapeGroup"></path>
                <path d="M71.9605912,40.5312571 L71.9605912,37.8736823 L70.1264779,37.8736823 L70.1264779,45.3208274 L71.9605912,45.3208274 L71.9605912,42.4009806 C71.9605912,41.4167703 73.4670355,41.3836412 73.4670355,42.4009806 L73.4670355,45.3208274 L75.334124,45.3208274 L75.334124,41.9416594 C75.334124,40.43256 73.5656139,39.3827817 71.9605912,40.5312571" id="Fill-47" fill="#FFFFFF" sketch:type="MSShapeGroup"></path>
            </g>
        </g>
    </g>
</svg>