<?xml version="1.0" encoding="UTF-8" standalone="no"?>
<svg width="80px" height="14px" viewBox="0 0 80 14" version="1.1" xmlns="http://www.w3.org/2000/svg" xmlns:xlink="http://www.w3.org/1999/xlink" xmlns:sketch="http://www.bohemiancoding.com/sketch/ns">
    <!-- Generator: Sketch 3.3.3 (12081) - http://www.bohemiancoding.com/sketch -->
    <title>Payment/Neteller/Neteller-flat</title>
    <desc>Created with Sketch.</desc>
    <defs></defs>
    <g id="Icons:-Payment" stroke="none" stroke-width="1" fill="none" fill-rule="evenodd" sketch:type="MSPage">
        <g id="Neteller-flat" sketch:type="MSArtboardGroup" transform="translate(-10.000000, -23.000000)" fill="#9B9B9B">
            <g id="Payment/Neteller/Neteller-flat" sketch:type="MSLayerGroup" transform="translate(10.000000, 23.000000)">
                <path d="M74.6540443,6.138125 C74.2010666,6.448925 73.5436443,6.602575 72.6440888,6.602575 L72.2536888,6.602575 L71.7519999,6.602575 L72.4360888,2.965725 L72.7827555,2.965725 L73.0920888,2.965725 C73.8387555,2.965725 74.3841777,3.084025 74.7599999,3.324125 C75.0536888,3.512425 75.4017777,3.885175 75.4017777,4.592525 C75.4017777,5.444775 74.9967999,5.903275 74.6540443,6.138125 L74.6540443,6.138125 Z M21.4373332,10.702475 L14.533511,10.702475 L14.9797332,8.325275 L19.3100443,8.325275 L19.8021332,5.647775 L15.5134221,5.647775 L15.9279999,3.295075 L22.8197332,3.295075 L21.4373332,10.702475 L21.4373332,10.702475 Z M78.3731555,1.254575 C77.3580443,0.569625 75.8220443,0.224525 73.8081777,0.224525 L68.5338666,0.224525 L66.5733332,10.702825 L59.6641777,10.702825 L60.1071999,8.325625 L64.2696888,8.325625 L64.7646221,5.655475 L60.6046221,5.662825 L61.0501332,3.295775 L65.336711,3.295775 L65.9070221,0.224875 L57.1994666,0.224875 L55.3384888,10.165225 L52.1455999,10.165225 L54.0200888,0.224875 L49.467911,0.224875 L47.6069332,10.165225 L44.4936888,10.165225 L46.3699555,0.224875 L41.8223999,0.224875 L39.8568888,10.703175 L32.8986666,10.703175 L33.3370666,8.325975 L37.5183999,8.325975 L38.0108443,5.671225 L33.835911,5.667375 L34.2792888,3.295775 L38.613511,3.295775 L39.1809777,0.224875 L12.0531555,0.224875 L10.5089777,8.528625 L7.43271101,0.224525 L2.71128879,0.224525 L0.170133234,13.775475 L4.67893323,13.775475 L6.21671101,5.243525 L9.20231101,13.775475 L25.3630221,13.775475 L27.3274666,3.295425 L29.8561777,3.295425 L27.8906666,13.775475 L70.4143999,13.775475 L71.6460443,7.159425 L73.6424888,13.775475 L78.1537777,13.775475 L76.0869332,8.369725 L76.5587555,8.269275 C77.5983999,8.050175 78.4122666,7.578025 78.9768888,6.870675 C79.5425777,6.156675 79.8298666,5.240025 79.8298666,4.138925 C79.8302221,2.856525 79.3544888,1.913625 78.3731555,1.254575 L78.3731555,1.254575 Z" id="Shape" sketch:type="MSShapeGroup"></path>
            </g>
        </g>
    </g>
</svg>