<?xml version="1.0" encoding="UTF-8" standalone="no"?>
<svg width="68px" height="18px" viewBox="0 0 68 18" version="1.1" xmlns="http://www.w3.org/2000/svg" xmlns:xlink="http://www.w3.org/1999/xlink" xmlns:sketch="http://www.bohemiancoding.com/sketch/ns">
    <!-- Generator: Sketch 3.3.3 (12081) - http://www.bohemiancoding.com/sketch -->
    <title>Payment/Monero/Monero-alt</title>
    <desc>Created with Sketch.</desc>
    <defs></defs>
    <g id="Icons:-Payment" stroke="none" stroke-width="1" fill="none" fill-rule="evenodd" sketch:type="MSPage">
        <g id="Monero-alt" sketch:type="MSArtboardGroup" transform="translate(-16.000000, -21.000000)">
            <g id="Payment/Monero/Monero-alt" sketch:type="MSLayerGroup" transform="translate(16.000000, 21.000000)">
                <path d="M8.99432624,0.156 C4.0751773,0.156 0.0964539007,4.116 0.0964539007,9.012 C0.0964539007,9.996 0.265248227,10.932 0.554609929,11.82 L3.2070922,11.82 L3.2070922,4.38 L8.99432624,10.14 L14.7815603,4.38 L14.7815603,11.82 L17.4340426,11.82 C17.7234043,10.932 17.8921986,9.996 17.8921986,9.012 C17.8921986,4.116 13.9134752,0.156 8.99432624,0.156 L8.99432624,0.156 L8.99432624,0.156 Z" id="_149931032_2_" fill="#FF6600" sketch:type="MSShapeGroup"></path>
                <path d="M7.66808511,11.436 L5.13617021,8.916 L5.13617021,13.596 L4.17163121,13.596 L3.2070922,13.596 L1.39858156,13.596 C2.96595745,16.14 5.78723404,17.844 8.99432624,17.844 C12.2014184,17.844 15.0468085,16.14 16.5900709,13.596 L14.7815603,13.596 L13.0453901,13.596 L12.8524823,13.596 L12.8524823,8.916 L10.3446809,11.436 L9.01843972,12.756 L7.66808511,11.436 L7.66808511,11.436 Z" id="_149931160_2_" fill="#FFFFFF" sketch:type="MSShapeGroup"></path>
                <path d="M66.7460993,6.996 C65.9985816,6.228 65.0822695,5.868 64.0453901,5.868 C63.3460993,5.868 62.6950355,6.036 62.1163121,6.396 C61.5134752,6.732 61.0312057,7.212 60.693617,7.812 C60.3560284,8.412 60.187234,9.06 60.187234,9.756 C60.187234,10.812 60.5489362,11.724 61.2964539,12.492 C62.0439716,13.26 62.9602837,13.644 64.0695035,13.644 C65.1304965,13.644 66.0468085,13.26 66.7943262,12.516 C67.541844,11.772 67.9035461,10.86 67.9035461,9.78 C67.8794326,8.676 67.5177305,7.74 66.7460993,6.996 L66.7460993,6.996 Z M65.7574468,11.532 C65.2751773,12.012 64.7205674,12.252 64.0453901,12.252 C63.4425532,12.252 62.9361702,12.06 62.4780142,11.7 C61.8992908,11.22 61.5858156,10.572 61.5858156,9.756 C61.5858156,9.012 61.8269504,8.412 62.2851064,7.932 C62.7432624,7.452 63.3219858,7.212 64.0212766,7.212 C64.6964539,7.212 65.2751773,7.452 65.7574468,7.932 C66.2397163,8.412 66.4808511,9.012 66.4808511,9.708 C66.4808511,10.452 66.2397163,11.052 65.7574468,11.532 L65.7574468,11.532 Z" id="Shape" fill="#FFFFFF" sketch:type="MSShapeGroup"></path>
                <path d="M57.7035461,10.164 C58.1858156,9.996 58.5716312,9.732 58.812766,9.396 C59.0539007,9.06 59.1744681,8.628 59.1744681,8.124 C59.1744681,7.644 59.0539007,7.212 58.8368794,6.852 C58.6198582,6.492 58.3304965,6.252 57.9446809,6.084 C57.5588652,5.916 56.9560284,5.844 56.1120567,5.844 L53.387234,5.844 L53.387234,13.596 L54.8822695,13.596 L54.8822695,10.308 L56.1843972,10.308 L57.9446809,13.596 L59.5602837,13.596 L57.7035461,10.164 L57.7035461,10.164 Z M57.4624113,8.7 C57.293617,8.82 57.1971631,8.892 56.7148936,8.892 L54.858156,8.892 L54.858156,7.308 L56.6666667,7.308 C57.0283688,7.308 57.1007092,7.332 57.2453901,7.38 C57.3900709,7.428 57.5106383,7.524 57.6070922,7.644 C57.7035461,7.764 57.7276596,7.908 57.7276596,8.076 C57.7276596,8.388 57.6553191,8.58 57.4624113,8.7 L57.4624113,8.7 Z" id="Shape" fill="#FFFFFF" sketch:type="MSShapeGroup"></path>
                <path d="M46.7319149,5.868 L51.7957447,5.868 L51.7957447,7.308 L48.2028369,7.308 L48.2028369,8.892 L51.7957447,8.892 L51.7957447,10.308 L48.2028369,10.308 L48.2028369,12.156 L51.7957447,12.156 L51.7957447,13.62 L46.7319149,13.62 L46.7319149,5.868 L46.7319149,5.868 Z" id="Shape" fill="#FFFFFF" sketch:type="MSShapeGroup"></path>
                <path d="M38.8950355,5.868 L40.3177305,5.868 L43.6695035,10.956 L43.6695035,5.868 L45.1404255,5.868 L45.1404255,13.62 L43.7177305,13.62 L40.3900709,8.532 L40.3900709,13.62 L38.8950355,13.62 L38.8950355,5.868 Z" id="Shape" fill="#FFFFFF" sketch:type="MSShapeGroup"></path>
                <path d="M36.6042553,6.996 C35.8567376,6.252 34.9404255,5.868 33.9035461,5.868 C33.2042553,5.868 32.577305,6.036 31.9744681,6.396 C31.3716312,6.732 30.9134752,7.212 30.551773,7.812 C30.2141844,8.412 30.0453901,9.06 30.0453901,9.756 C30.0453901,10.812 30.4070922,11.724 31.1546099,12.492 C31.8780142,13.26 32.8184397,13.644 33.9276596,13.644 C34.9886525,13.644 35.8808511,13.284 36.6283688,12.516 C37.3758865,11.772 37.7375887,10.86 37.7375887,9.78 C37.7134752,8.676 37.351773,7.74 36.6042553,6.996 L36.6042553,6.996 Z M35.6156028,11.508 C35.1574468,11.988 34.5787234,12.228 33.9035461,12.228 C33.3007092,12.228 32.7943262,12.036 32.3361702,11.676 C31.7574468,11.196 31.4439716,10.548 31.4439716,9.732 C31.4439716,9.012 31.6851064,8.388 32.1432624,7.932 C32.6014184,7.452 33.1801418,7.212 33.8794326,7.212 C34.5546099,7.212 35.1333333,7.452 35.6156028,7.932 C36.0978723,8.412 36.3390071,9.012 36.3390071,9.708 C36.3148936,10.452 36.0737589,11.028 35.6156028,11.508 L35.6156028,11.508 Z" id="Shape" fill="#FFFFFF" sketch:type="MSShapeGroup"></path>
                <path d="M21.6297872,5.868 L23.0765957,5.868 L24.8851064,11.292 L26.7177305,5.868 L28.1404255,5.868 L29.4425532,13.62 L28.0198582,13.62 L27.1758865,8.724 L25.5120567,13.62 L24.2099291,13.62 L22.5702128,8.724 L21.7262411,13.62 L20.2794326,13.62 L21.6297872,5.868 L21.6297872,5.868 Z" id="_74749088_2_" fill="#FFFFFF" sketch:type="MSShapeGroup"></path>
            </g>
        </g>
    </g>
</svg>