<?xml version="1.0" encoding="UTF-8" standalone="no"?>
<svg width="76px" height="32px" viewBox="0 0 76 32" version="1.1" xmlns="http://www.w3.org/2000/svg" xmlns:xlink="http://www.w3.org/1999/xlink" xmlns:sketch="http://www.bohemiancoding.com/sketch/ns">
    <!-- Generator: Sketch 3.3.3 (12081) - http://www.bohemiancoding.com/sketch -->
    <title>Payment/Eway/Eway-flat</title>
    <desc>Created with Sketch.</desc>
    <defs></defs>
    <g id="Icons:-Payment" stroke="none" stroke-width="1" fill="none" fill-rule="evenodd" sketch:type="MSPage">
        <g id="Eway-flat" sketch:type="MSArtboardGroup" transform="translate(-12.000000, -14.000000)" fill="#9B9B9B">
            <g id="Payment/Eway/Eway-flat" sketch:type="MSLayerGroup" transform="translate(12.000000, 14.000000)">
                <path d="M18.9873418,0.0506329114 C19.3518987,0.167088608 19.7417722,0.172151899 20.1164557,0.237974684 C22.2835443,0.643037975 24.2177215,1.54936709 25.8936709,2.98227848 C27.964557,4.74936709 29.356962,6.95696203 29.9341772,9.62025316 C30.8253165,13.721519 29.8987342,17.3974684 27.1443038,20.5721519 C25.321519,22.6734177 23.0126582,23.9949367 20.278481,24.5164557 C16.8202532,25.1746835 13.6202532,24.4962025 10.7443038,22.4607595 C8.19240506,20.6531646 6.54177215,18.2025316 5.85316456,15.1493671 C5.09367089,11.7924051 5.6556962,8.63291139 7.49873418,5.72151899 C8.69873418,3.8278481 10.3240506,2.38481013 12.3189873,1.36202532 C13.6810127,0.663291139 15.1341772,0.243037975 16.6582278,0.0911392405 C16.7139241,0.0860759494 16.7797468,0.111392405 16.8101266,0.0405063291 C17.5341772,0.0506329114 18.2632911,0.0506329114 18.9873418,0.0506329114 L18.9873418,0.0506329114 Z M17.9037975,2.37468354 C12.5670886,2.31898734 7.94936709,6.66329114 7.85822785,12.2227848 C7.76202532,17.9139241 12.3797468,22.4202532 17.8531646,22.4405063 C23.321519,22.4607595 27.8987342,18.0556962 27.9392405,12.4962025 C27.9696203,6.87594937 23.478481,2.37468354 17.9037975,2.37468354 L17.9037975,2.37468354 Z" id="Shape" sketch:type="MSShapeGroup"></path>
                <path d="M35.4936709,31.9493671 C34.9518987,31.878481 34.4,31.9139241 33.8582278,31.8936709 C32.156962,31.8227848 30.4556962,31.7468354 28.7594937,31.6151899 C27.4075949,31.5139241 26.0556962,31.3924051 24.7088608,31.2455696 C23.1848101,31.078481 21.6658228,30.8810127 20.1468354,30.6531646 C18.3240506,30.3797468 16.5063291,30.0556962 14.7037975,29.6759494 C9.83797468,28.6481013 5.0835443,27.2708861 0.541772152,25.2050633 C0.506329114,25.1898734 0.470886076,25.164557 0.420253165,25.1392405 C0.551898734,25.0835443 0.658227848,25.1240506 0.769620253,25.1544304 C4.10632911,26.0455696 7.47848101,26.7898734 10.8810127,27.3873418 C13.4379747,27.8379747 16.0050633,28.2177215 18.5822785,28.521519 C20.3898734,28.7341772 22.1974684,28.921519 24.0151899,29.078481 C26.1316456,29.2607595 28.2481013,29.3974684 30.3696203,29.4936709 C32.1367089,29.5746835 33.9088608,29.6151899 35.6759494,29.6506329 C37.0531646,29.6759494 38.4253165,29.6810127 39.8025316,29.6658228 C42.035443,29.6405063 44.2683544,29.5797468 46.5012658,29.4632911 C48.6632911,29.3518987 50.8253165,29.2050633 52.9822785,29.0075949 C55.1696203,28.8050633 57.356962,28.5620253 59.5392405,28.2683544 C63.3822785,27.7518987 67.1949367,27.0835443 70.9772152,26.2278481 C72.5316456,25.878481 74.0759494,25.4936709 75.6101266,25.0734177 C75.6405063,25.0632911 75.6759494,25.0683544 75.7822785,25.0582278 C75.6556962,25.1291139 75.5949367,25.1696203 75.5240506,25.2 C72.7493671,26.4759494 69.8734177,27.478481 66.9367089,28.3139241 C64.5620253,28.9873418 62.156962,29.5443038 59.7316456,30.0101266 C57.7873418,30.3848101 55.8329114,30.6886076 53.8683544,30.9468354 C51.6303797,31.2455696 49.3822785,31.4683544 47.1291139,31.635443 C45.6506329,31.7468354 44.1670886,31.8227848 42.6886076,31.878481 C42.3341772,31.8936709 41.9746835,31.843038 41.6253165,31.9544304 C39.5797468,31.9493671 37.5341772,31.9493671 35.4936709,31.9493671 L35.4936709,31.9493671 Z" id="Shape" sketch:type="MSShapeGroup"></path>
                <path d="M37.635443,8.29873418 C37.2506329,9.5443038 36.8708861,10.7848101 36.4860759,12.0303797 C35.9341772,13.8329114 35.3772152,15.635443 34.835443,17.4379747 C34.7696203,17.6556962 34.6379747,17.6101266 34.4962025,17.6202532 C34.3392405,17.635443 34.2632911,17.5949367 34.2126582,17.4227848 C33.478481,14.764557 32.7341772,12.1113924 31.9949367,9.45316456 C31.8227848,8.82531646 31.6455696,8.20253165 31.4632911,7.57974684 C31.4126582,7.41265823 31.4531646,7.37721519 31.6202532,7.37721519 C32.121519,7.3721519 32.1164557,7.36708861 32.2531646,7.87848101 C32.9873418,10.678481 33.721519,13.478481 34.4556962,16.2835443 C34.4708861,16.3341772 34.4860759,16.3848101 34.5265823,16.5113924 C34.6582278,16.0708861 34.7746835,15.6962025 34.8860759,15.321519 C35.6658228,12.7594937 36.4405063,10.1974684 37.2101266,7.63544304 C37.2708861,7.43797468 37.3468354,7.3721519 37.5493671,7.37721519 C38.0253165,7.39240506 38.0303797,7.38227848 38.1670886,7.83797468 C39.0126582,10.6379747 39.8632911,13.443038 40.7088608,16.243038 C40.7291139,16.3139241 40.7544304,16.3797468 40.8,16.5113924 C40.9620253,15.9037975 41.1088608,15.3518987 41.2556962,14.8 C41.8886076,12.3898734 42.521519,9.97974684 43.1493671,7.56962025 C43.1898734,7.41265823 43.2556962,7.36708861 43.4075949,7.37721519 C43.564557,7.38734177 43.7265823,7.38227848 43.9088608,7.38227848 C43.6759494,8.2278481 43.4481013,9.04303797 43.2202532,9.86329114 C42.521519,12.3746835 41.8177215,14.8860759 41.1139241,17.3974684 C41.078481,17.5341772 41.0481013,17.6506329 40.8607595,17.6202532 C40.7037975,17.6 40.556962,17.6607595 40.4860759,17.4126582 C39.5898734,14.4607595 38.678481,11.5139241 37.7721519,8.56202532 C37.7468354,8.47594937 37.7113924,8.38987342 37.6860759,8.30379747 C37.6658228,8.30379747 37.6506329,8.29873418 37.635443,8.29873418 L37.635443,8.29873418 Z" id="Shape" sketch:type="MSShapeGroup"></path>
                <path d="M46.243038,8.24810127 C46.2177215,7.56962025 46.1316456,7.70632911 46.6987342,7.56962025 C48.1164557,7.24050633 49.5493671,7.11898734 50.9772152,7.49367089 C52.0860759,7.78227848 52.678481,8.50632911 52.8101266,9.64556962 C52.8455696,9.95443038 52.8607595,10.2683544 52.8607595,10.5772152 C52.8607595,12.8050633 52.8607595,15.0329114 52.8556962,17.2556962 C52.8556962,17.3417722 52.9518987,17.4835443 52.764557,17.5139241 C52.5822785,17.5493671 52.5113924,17.4582278 52.4607595,17.3012658 C52.4101266,17.1240506 52.3797468,16.8708861 52.2582278,16.8050633 C52.1265823,16.7291139 51.9493671,16.9417722 51.7772152,17.0126582 C50.364557,17.5898734 48.9063291,17.8278481 47.4075949,17.4278481 C46.1367089,17.0886076 45.3822785,16.1113924 45.3164557,14.7949367 C45.2759494,13.9493671 45.3924051,13.1443038 46,12.4911392 C46.5265823,11.9291139 47.2101266,11.6759494 47.9392405,11.5493671 C49.0177215,11.3620253 50.1063291,11.3772152 51.1898734,11.2911392 C51.4734177,11.2658228 51.7620253,11.2556962 52.0455696,11.2405063 C52.121519,11.235443 52.2025316,11.2405063 52.2025316,11.1291139 C52.2025316,10.4405063 52.2481013,9.74177215 51.9949367,9.07848101 C51.7265823,8.36962025 51.1443038,8.06075949 50.4405063,7.94936709 C49.0734177,7.72658228 47.721519,7.84810127 46.3898734,8.21265823 C46.3392405,8.2278481 46.2936709,8.23797468 46.243038,8.24810127 L46.243038,8.24810127 Z M52.2025316,13.9797468 C52.2025316,13.3063291 52.1974684,12.6329114 52.2025316,11.9544304 C52.2025316,11.8177215 52.1822785,11.7670886 52.0253165,11.7822785 C51.4126582,11.8329114 50.8,11.8531646 50.1873418,11.9037975 C49.443038,11.964557 48.6886076,11.9594937 47.9493671,12.1012658 C47.1392405,12.2582278 46.4708861,12.6227848 46.1417722,13.4278481 C45.9594937,13.8734177 45.9392405,14.3443038 45.9696203,14.8202532 C46.0303797,15.9037975 46.6075949,16.6582278 47.6607595,16.9113924 C49.235443,17.2911392 50.7139241,16.9620253 52.1113924,16.1924051 C52.2177215,16.1316456 52.2025316,16.0455696 52.2025316,15.9544304 C52.2025316,15.2962025 52.2025316,14.6379747 52.2025316,13.9797468 L52.2025316,13.9797468 Z" id="Shape" sketch:type="MSShapeGroup"></path>
                <path d="M56.1873418,22.5822785 C56.7240506,21.3113924 57.2405063,20.0810127 57.756962,18.8455696 C57.9341772,18.4253165 58.1012658,18.0050633 58.2835443,17.5898734 C58.3392405,17.4632911 58.3392405,17.356962 58.2886076,17.2303797 C57.3924051,14.9367089 56.5012658,12.6379747 55.6101266,10.3392405 C55.235443,9.36708861 54.8607595,8.39493671 54.4658228,7.38227848 C54.7037975,7.38227848 54.9164557,7.37721519 55.1291139,7.38227848 C55.2556962,7.38734177 55.2506329,7.50379747 55.2810127,7.58481013 C55.7468354,8.81518987 56.2025316,10.0455696 56.6582278,11.2759494 C57.3012658,13.0126582 57.9443038,14.7443038 58.5873418,16.4810127 C58.6025316,16.521519 58.6278481,16.5518987 58.6582278,16.6075949 C59.1037975,15.4177215 59.5443038,14.243038 59.9797468,13.0734177 C60.6582278,11.2556962 61.3417722,9.43291139 62.0101266,7.61012658 C62.0810127,7.42278481 62.1620253,7.3721519 62.3493671,7.37721519 C62.8253165,7.38734177 62.8253165,7.38227848 62.6531646,7.8278481 C60.9772152,12.1265823 59.3012658,16.4303797 57.6202532,20.7291139 C57.4075949,21.2759494 57.1848101,21.8227848 56.9822785,22.3746835 C56.921519,22.5316456 56.8556962,22.6075949 56.678481,22.5873418 C56.5265823,22.5670886 56.3746835,22.5822785 56.1873418,22.5822785 L56.1873418,22.5822785 Z" id="Shape" sketch:type="MSShapeGroup"></path>
                <path d="M65.8177215,10.4962025 C65.6658228,10.4860759 65.5139241,10.4962025 65.3620253,10.4708861 C64.3341772,10.3088608 64.0253165,9.62025316 64.0708861,8.55696203 C64.0759494,8.41518987 64.1063291,8.27341772 64.1367089,8.13670886 C64.2582278,7.56455696 64.6227848,7.22531646 65.1797468,7.10379747 C65.6455696,7.00253165 66.1164557,7.00759494 66.5822785,7.13924051 C67.0582278,7.27594937 67.3620253,7.58987342 67.4886076,8.06582278 C67.6101266,8.52658228 67.6101266,8.99746835 67.4936709,9.46329114 C67.3417722,10.0607595 66.8607595,10.4303797 66.1721519,10.4860759 C66.0556962,10.4962025 65.9341772,10.4860759 65.8177215,10.4860759 L65.8177215,10.4962025 L65.8177215,10.4962025 Z M65.8177215,10.1670886 C65.9291139,10.1670886 66.035443,10.1772152 66.1468354,10.1670886 C66.7189873,10.1164557 67.0227848,9.8835443 67.1544304,9.37721519 C67.2658228,8.95696203 67.2607595,8.52658228 67.1392405,8.10632911 C67.0227848,7.71139241 66.7544304,7.4835443 66.3594937,7.40759494 C66.121519,7.36202532 65.8734177,7.34683544 65.6303797,7.36202532 C64.8,7.41265823 64.4405063,7.78734177 64.4101266,8.62278481 L64.4101266,8.77468354 C64.4101266,9.78734177 64.8,10.1772152 65.8177215,10.1670886 L65.8177215,10.1670886 Z" id="Shape" sketch:type="MSShapeGroup"></path>
                <path d="M22.6835443,15.7164557 C22.6835443,16.5367089 22.678481,17.3620253 22.6886076,18.1873418 C22.6886076,18.3341772 22.5924051,18.3443038 22.5012658,18.3797468 C21.2810127,18.9063291 20,19.1544304 18.6734177,19.2 C17.6911392,19.235443 16.7189873,19.2 15.7772152,18.9164557 C14.0050633,18.3848101 12.9518987,17.1544304 12.4607595,15.4126582 C12.0202532,13.8582278 11.9949367,12.2683544 12.1316456,10.6734177 C12.2075949,9.7721519 12.3898734,8.89113924 12.7544304,8.0556962 C13.4278481,6.51139241 14.6075949,5.59493671 16.2481013,5.25063291 C17.3924051,5.00759494 18.5417722,4.98734177 19.6860759,5.22531646 C21.4075949,5.57974684 22.4860759,6.64303797 22.9873418,8.30886076 C23.2911392,9.32658228 23.3873418,10.3746835 23.4075949,11.4278481 C23.4177215,12.0202532 23.4075949,12.6075949 23.4227848,13.2 C23.4278481,13.3822785 23.3822785,13.443038 23.1848101,13.443038 C20.5164557,13.4379747 17.8481013,13.443038 15.1746835,13.4379747 C14.9620253,13.4379747 14.9113924,13.4936709 14.9518987,13.6911392 C15.0177215,14.0101266 15.078481,14.3341772 15.1848101,14.6481013 C15.6202532,15.9443038 16.5468354,16.6227848 17.9037975,16.6481013 C19.4936709,16.678481 21.0227848,16.4101266 22.4810127,15.7620253 C22.5367089,15.7367089 22.5924051,15.6911392 22.6835443,15.7164557 L22.6835443,15.7164557 Z M17.6962025,11.0379747 C18.5822785,11.0379747 19.4683544,11.0329114 20.3544304,11.043038 C20.5063291,11.043038 20.556962,11.0075949 20.5518987,10.8506329 C20.5316456,10.3088608 20.4962025,9.7721519 20.3493671,9.25063291 C20.1772152,8.65316456 19.8734177,8.16202532 19.2860759,7.8835443 C18.7037975,7.60506329 18.0911392,7.60506329 17.478481,7.67594937 C16.6987342,7.76708861 16.0405063,8.08607595 15.5898734,8.75443038 C15.1797468,9.36708861 15.0329114,10.0607595 14.9265823,10.7746835 C14.8911392,11.0177215 14.9518987,11.0481013 15.1696203,11.0481013 C16.0101266,11.0329114 16.8506329,11.0379747 17.6962025,11.0379747 L17.6962025,11.0379747 Z" id="Shape" sketch:type="MSShapeGroup"></path>
                <path d="M66.6835443,9.70632911 C66.4050633,9.79746835 66.2531646,9.69113924 66.1670886,9.44303797 C66.1367089,9.35696203 66.0708861,9.28101266 66.0455696,9.19493671 C65.9696203,8.90126582 65.7417722,8.9721519 65.5392405,8.96708861 C65.4531646,8.96708861 65.4531646,9.0278481 65.4531646,9.08860759 C65.4531646,9.23037975 65.4481013,9.3721519 65.4531646,9.51898734 C65.4582278,9.65063291 65.4531646,9.73670886 65.2759494,9.73670886 C65.1088608,9.73164557 65.1088608,9.6556962 65.1088608,9.53417722 C65.1139241,9.02278481 65.1189873,8.50632911 65.1088608,7.99493671 C65.1037975,7.83291139 65.1594937,7.79240506 65.3113924,7.79746835 C65.5696203,7.81265823 65.8329114,7.80253165 66.0911392,7.82278481 C66.2987342,7.83797468 66.4658228,7.94936709 66.5113924,8.16202532 C66.5620253,8.39493671 66.6025316,8.65316456 66.3949367,8.82025316 C66.2531646,8.93670886 66.2936709,9.00759494 66.3594937,9.12405063 C66.4759494,9.3164557 66.5822785,9.51392405 66.6835443,9.70632911 L66.6835443,9.70632911 Z M65.8177215,8.1164557 C65.4683544,8.1164557 65.3721519,8.26329114 65.4582278,8.56708861 C65.478481,8.63291139 65.5088608,8.64303797 65.564557,8.64303797 C65.7164557,8.63797468 65.8632911,8.63797468 66.0151899,8.6278481 C66.1518987,8.61772152 66.2227848,8.53670886 66.2278481,8.4 C66.2329114,8.25316456 66.1670886,8.15696203 66.0202532,8.13670886 C65.9341772,8.12151899 65.8531646,8.12151899 65.8177215,8.1164557 L65.8177215,8.1164557 Z" id="Shape" sketch:type="MSShapeGroup"></path>
            </g>
        </g>
    </g>
</svg>