<?xml version="1.0" encoding="UTF-8" standalone="no"?>
<svg width="33px" height="41px" viewBox="0 0 33 41" version="1.1" xmlns="http://www.w3.org/2000/svg" xmlns:xlink="http://www.w3.org/1999/xlink" xmlns:sketch="http://www.bohemiancoding.com/sketch/ns">
    <!-- Generator: Sketch 3.3.3 (12081) - http://www.bohemiancoding.com/sketch -->
    <title>Payment/Solo/Solo-alt</title>
    <desc>Created with Sketch.</desc>
    <defs></defs>
    <g id="Icons:-Payment" stroke="none" stroke-width="1" fill="none" fill-rule="evenodd" sketch:type="MSPage">
        <g id="Solo-alt" sketch:type="MSArtboardGroup" transform="translate(-34.000000, -10.000000)">
            <g id="Payment/Solo/Solo-alt" sketch:type="MSLayerGroup" transform="translate(34.000000, 10.000000)">
                <path d="M0.475958102,16.3856465 C0.475958102,7.59190377 7.73666837,0.461866298 16.6945218,0.461866298 C25.6514638,0.461866298 32.9130855,7.59190377 32.9130855,16.3856465 C32.9130855,25.1811791 25.6514638,32.3094267 16.6945218,32.3094267 C7.73666837,32.3094267 0.475958102,25.1811791 0.475958102,16.3856465 L0.475958102,16.3856465 Z M16.6945218,31.1961134 C25.0243776,31.1961134 31.7764918,24.5645611 31.7764918,16.3856465 C31.7764918,8.2067319 25.0243776,1.57696943 16.6945218,1.57696943 C8.36375457,1.57696943 1.61164038,8.2067319 1.61164038,16.3856465 C1.61164038,24.5645611 8.36375457,31.1961134 16.6945218,31.1961134 L16.6945218,31.1961134 Z" id="Fill-3" fill="#FFFFFF" sketch:type="MSShapeGroup"></path>
                <path d="M21.1661568,13.6512367 C23.7419498,17.4819741 22.6235854,22.610533 18.671484,25.1036928 C14.7193826,27.5986197 9.42925423,26.5172491 6.85528413,22.6865116 L9.30802971,21.0883096 C10.9805634,23.5752851 14.4158656,24.2794128 16.982544,22.659124 C19.5483109,21.0388351 20.2747465,17.7081432 18.6031243,15.2220511 L21.1661568,13.6512367" id="Fill-1" fill="#FFFFFF" sketch:type="MSShapeGroup"></path>
                <path d="M26.8782923,10.1367824 C24.2988534,6.30781186 19.0059907,5.23262563 15.0584466,7.73108633 C11.1090796,10.231314 9.99891829,15.3616397 12.5783572,19.1888433 L15.0748529,17.6551348 C13.4014078,15.1699262 14.1223746,11.8401177 16.6863186,10.2162949 C19.2502627,8.59247218 22.6855648,9.293066 24.3626558,11.7773911 L26.8782923,10.1367824" id="Fill-2" fill="#000000" sketch:type="MSShapeGroup"></path>
                <path d="M22.1423332,38.021502 C22.3437664,36.647702 23.6580953,35.531876 25.0772424,35.531876 C26.497301,35.531876 27.4825919,36.647702 27.2811587,38.021502 C27.0779026,39.3988359 25.7644851,40.5146618 24.345338,40.5146618 C22.9261909,40.5146618 21.939077,39.3988359 22.1423332,38.021502 L22.1423332,38.021502 Z M24.4738542,39.6417908 C25.3962543,39.6417908 26.2493832,38.9173433 26.3815452,38.021502 C26.5137073,37.1291946 25.8720377,36.4029801 24.9505491,36.4029801 C24.0263261,36.4029801 23.1731972,37.1291946 23.0410352,38.021502 C22.9097846,38.9173433 23.5505427,39.6417908 24.4738542,39.6417908 L24.4738542,39.6417908 Z" id="o" fill="#FFFFFF" sketch:type="MSShapeGroup"></path>
                <path d="M18.5584626,35.6967986 L19.5957069,35.6967986 L18.7398437,39.4689974 L21.5307418,39.4689974 L21.3356888,40.3183014 L17.5075464,40.3183014 L18.5584626,35.6967986" id="l" fill="#FFFFFF" sketch:type="MSShapeGroup"></path>
                <path d="M11.902052,37.9851763 C12.1034852,36.5935348 13.4178141,35.4632176 14.8360498,35.4632176 C16.2561083,35.4632176 17.2423108,36.5935348 17.0399661,37.9851763 C16.8385329,39.3803977 15.5232925,40.5107149 14.1032339,40.5107149 C12.6849983,40.5107149 11.6987958,39.3803977 11.902052,37.9851763 L11.902052,37.9851763 Z M14.2326616,39.6265079 C15.1559731,39.6265079 16.009102,38.8926519 16.1412641,37.9851763 C16.2725147,37.0812805 15.6317565,36.3456346 14.708445,36.3456346 C13.7869564,36.3456346 12.9329161,37.0812805 12.7998425,37.9851763 C12.6695034,38.8926519 13.3102615,39.6265079 14.2326616,39.6265079 L14.2326616,39.6265079 Z" id="o" fill="#FFFFFF" sketch:type="MSShapeGroup"></path>
                <path d="M6.87169046,38.9341292 C7.07768098,39.3210903 7.92898695,39.7955151 8.76479807,39.7690109 C9.64709376,39.7433902 9.96337125,39.4986683 10.0244392,39.0896204 C10.0463143,38.9270615 10.114674,38.5568864 9.38094671,38.472073 L8.19057669,38.3439695 C6.92546674,38.182294 6.72129914,37.6848989 6.75046594,37.0744193 C6.78965883,36.2351202 7.87247628,35.5866513 9.03459096,35.5725157 C10.0590748,35.5592637 10.92861,35.7783649 11.3332994,36.3128658 L10.6141555,36.7342823 C10.0189705,36.2766435 9.48303051,36.242188 8.84500677,36.2801774 C8.40112453,36.307565 7.8013822,36.4807256 7.70932449,36.8977247 C7.64461065,37.1928046 7.66010552,37.3783339 8.2972178,37.4498952 L9.80477678,37.6416087 C10.4993112,37.7193543 11.0790013,38.3528042 11.0252251,38.894373 C10.9431934,39.685081 10.2313412,40.6197951 8.52599489,40.5393991 C7.22169206,40.4784395 6.45697502,39.9854617 6.10697342,39.3670308 L6.87169046,38.9341292" id="s" fill="#FFFFFF" sketch:type="MSShapeGroup"></path>
            </g>
        </g>
    </g>
</svg>