<?xml version="1.0" encoding="UTF-8" standalone="no"?>
<svg width="70px" height="26px" viewBox="0 0 70 26" version="1.1" xmlns="http://www.w3.org/2000/svg" xmlns:xlink="http://www.w3.org/1999/xlink" xmlns:sketch="http://www.bohemiancoding.com/sketch/ns">
    <!-- Generator: Sketch 3.3.3 (12081) - http://www.bohemiancoding.com/sketch -->
    <title>Credit Card/AmericanExpress/AmericanExpress-alt</title>
    <desc>Created with Sketch.</desc>
    <defs></defs>
    <g id="Icons:-Credit-card" stroke="none" stroke-width="1" fill="none" fill-rule="evenodd" sketch:type="MSPage">
        <g id="AmericanExpress-alt" sketch:type="MSArtboardGroup" transform="translate(-15.000000, -17.000000)" fill="#FFFFFF">
            <g id="Credit-Card/AmericanExpress/AmericanExpress-alt" sketch:type="MSLayerGroup" transform="translate(15.000000, 17.000000)">
                <path d="M69.4073613,17.6655831 L65.8743204,17.6655831 C65.5215789,17.6655831 65.2872333,17.6787528 65.0898253,17.8116695 C64.8853233,17.9426352 64.8065558,18.1370107 64.8065558,18.3935765 C64.8065558,18.6986753 64.9792573,18.9062205 65.2304816,18.9959698 C65.4349836,19.06694 65.654652,19.0876701 65.9775498,19.0876701 L67.028191,19.1157168 C68.0883724,19.1418123 68.7960569,19.3235058 69.2275659,19.7666429 C69.3060888,19.8283455 69.3533003,19.8976086 69.4073613,19.9668716 L69.4073613,17.6655831 Z M69.4073613,22.9976169 C68.9364685,23.68415 68.0189004,24.0321724 66.7767221,24.0321724 L63.0330637,24.0321724 L63.0330637,22.2979139 L66.7615557,22.2979139 C67.1314205,22.2979139 67.390228,22.249381 67.5460507,22.0976853 C67.6810808,21.9725728 67.7752593,21.7908793 67.7752593,21.5701644 C67.7752593,21.3345725 67.6810808,21.1475136 67.5384675,21.035327 C67.3978113,20.9119217 67.1930646,20.8558284 66.8554896,20.8558284 C65.0352751,20.7941258 62.7644714,20.9119217 62.7644714,18.352604 C62.7644714,17.1795225 63.5115396,15.9447383 65.5457962,15.9447383 L69.4071167,15.9447383 L69.4071167,14.3355923 L65.8195256,14.3355923 C64.7368392,14.3355923 63.9503872,14.5941092 63.3933884,14.9960299 L63.3933884,14.3355923 L58.0868554,14.3355923 C57.23827,14.3355923 56.2421789,14.5453324 55.7710416,14.9960299 L55.7710416,14.3355923 L46.2949675,14.3355923 L46.2949675,14.9960299 C45.5408052,14.4536321 44.2682941,14.3355923 43.6809624,14.3355923 L37.4304424,14.3355923 L37.4304424,14.9960299 C36.8338152,14.4199761 35.5069984,14.3355923 34.698286,14.3355923 L27.7028993,14.3355923 L26.1021086,16.0627781 L24.6028351,14.3355923 L14.1531749,14.3355923 L14.1531749,25.6205882 L24.4061609,25.6205882 L26.0556309,23.8660874 L27.6094546,25.6205882 L33.9294466,25.6261976 L33.9294466,22.9715213 L34.5507804,22.9715213 C35.3893364,22.9844471 36.3783335,22.9507911 37.2508916,22.5747222 L37.2508916,25.6203444 L42.4637353,25.6203444 L42.4637353,22.6791045 L42.7152042,22.6791045 C43.0361451,22.6791045 43.0677011,22.6922742 43.0677011,23.012006 L43.0677011,25.6201005 L58.9033956,25.6201005 C59.9087822,25.6201005 60.959668,25.3635346 61.541618,24.8979602 L61.541618,25.6201005 L66.5646369,25.6201005 C67.6098964,25.6201005 68.630694,25.474014 69.4073613,25.0998961 L69.4073613,22.9976169 L69.4073613,22.9976169 Z M61.6746911,19.7666429 C62.0521391,20.1561255 62.2544395,20.6477954 62.2544395,21.4801712 C62.2544395,23.220039 61.1641699,24.0321724 59.2091701,24.0321724 L55.4334665,24.0321724 L55.4334665,22.2979139 L59.1940037,22.2979139 C59.5616669,22.2979139 59.8224314,22.249381 59.9858373,22.0976853 C60.119155,21.9725728 60.2148013,21.7908793 60.2148013,21.5701644 C60.2148013,21.3345725 60.1113272,21.1475136 59.9782541,21.035327 C59.8300146,20.9119217 59.6255127,20.8558284 59.2879376,20.8558284 C57.4750617,20.7941258 55.2047472,20.9119217 55.2047472,18.352604 C55.2047472,17.1795225 55.9439877,15.9447383 57.9762873,15.9447383 L61.8625589,15.9447383 L61.8625589,17.6660708 L58.3065238,17.6660708 C57.9540269,17.6660708 57.7248184,17.6792406 57.5298565,17.8121573 C57.3175267,17.943123 57.2387592,18.1374984 57.2387592,18.3940643 C57.2387592,18.6991631 57.4190439,18.9067083 57.6629296,18.9964575 C57.8674316,19.0674278 58.0871,19.0881579 58.4173364,19.0881579 L59.4608837,19.1162045 C60.5132372,19.1418123 61.2355989,19.323262 61.6746911,19.7666429 L61.6746911,19.7666429 Z M44.1824326,19.2671687 C43.9231358,19.4205716 43.6024395,19.4337414 43.2252361,19.4337414 L40.8702832,19.4337414 L40.8702832,17.6172941 L43.2572813,17.6172941 C43.6024395,17.6172941 43.9478424,17.6246106 44.1824326,17.7633805 C44.4336569,17.8943462 44.5838534,18.1448149 44.5838534,18.4908862 C44.5838534,18.8369575 44.4336569,19.1157168 44.1824326,19.2671687 L44.1824326,19.2671687 Z M45.353182,20.2736775 C45.784691,20.432446 46.1374325,20.7170585 46.3027953,20.9526503 C46.5765246,21.3474984 46.616153,21.7160069 46.6239808,22.4288796 L46.6239808,24.0321724 L44.6777873,24.0321724 L44.6777873,23.0202981 C44.6777873,22.5337497 44.7247543,21.8133166 44.3644296,21.4372476 C44.0811601,21.1475136 43.6494065,21.0782505 42.9422112,21.0782505 L40.8705278,21.0782505 L40.8705278,24.0321724 L38.9226219,24.0321724 L38.9226219,15.9444944 L43.3981822,15.9444944 C44.379596,15.9444944 45.0943745,15.9876618 45.7306301,16.3261727 C46.3424237,16.6946813 46.7272103,17.1995209 46.7272103,18.1221337 C46.7269657,19.4130112 45.8634585,20.0717417 45.353182,20.2736775 L45.353182,20.2736775 Z M47.8020688,15.9444944 L54.2720127,15.9444944 L54.2720127,17.6170502 L49.7326067,17.6170502 L49.7326067,19.0874262 L54.1612,19.0874262 L54.1612,20.7375447 L49.7326067,20.7375447 L49.7326067,22.3466907 L54.2720127,22.3540072 L54.2720127,24.0321724 L47.8020688,24.0321724 L47.8020688,15.9444944 L47.8020688,15.9444944 Z M34.7229926,19.6768936 L32.2178433,19.6768936 L32.2178433,17.6172941 L34.7454976,17.6172941 C35.4453543,17.6172941 35.9311688,17.9016627 35.9311688,18.608926 C35.9311688,19.308385 35.4678593,19.6768936 34.7229926,19.6768936 L34.7229926,19.6768936 Z M30.2870608,23.2966185 L27.3107741,20.0022348 L30.2870608,16.8124772 L30.2870608,23.2966185 L30.2870608,23.2966185 Z M22.6008683,22.3466907 L17.8347,22.3466907 L17.8347,20.7375447 L22.0905918,20.7375447 L22.0905918,19.0874262 L17.8347,19.0874262 L17.8347,17.6170502 L22.6948022,17.6170502 L24.8151649,19.9739442 L22.6008683,22.3466907 L22.6008683,22.3466907 Z M38.0123924,18.608926 C38.0123924,20.8555845 36.3311219,21.3194517 34.6366419,21.3194517 L32.2178433,21.3194517 L32.2178433,24.0321724 L28.4499676,24.0321724 L26.0629695,21.3548149 L23.5822821,24.0321724 L15.9036728,24.0321724 L15.9036728,15.9444944 L23.7004334,15.9444944 L26.0854745,18.5955124 L28.5512401,15.9444944 L34.7454976,15.9444944 C36.2839103,15.9444944 38.0123924,16.3690962 38.0123924,18.608926 L38.0123924,18.608926 Z" id="EXPRESS" sketch:type="MSShapeGroup"></path>
                <path d="M6.65485031,6.62422712 L5.32803359,3.40081357 L4.00880008,6.62422712 L6.65485031,6.62422712 Z M35.8844465,5.34066613 C35.6180557,5.50187339 35.3029857,5.50723884 34.9255376,5.50723884 L32.5705847,5.50723884 L32.5705847,3.71127778 L34.9575828,3.71127778 C35.2954025,3.71127778 35.6478993,3.72639858 35.8768633,3.85712035 C36.1283322,3.97491628 36.2839103,4.22562893 36.2839103,4.57194407 C36.2839103,4.92533185 36.1359154,5.20970048 35.8844465,5.34066613 L35.8844465,5.34066613 Z M52.6844315,6.62422712 L51.3429376,3.40081357 L50.0087823,6.62422712 L52.6844315,6.62422712 L52.6844315,6.62422712 Z M21.3682301,10.1132302 L19.3809405,10.1132302 L19.3736019,3.7805408 L16.562678,10.1132302 L14.8606148,10.1132302 L12.0423524,3.77493147 L12.0423524,10.1132302 L8.09957367,10.1132302 L7.35470699,8.30970877 L3.31848356,8.30970877 L2.56603367,10.1132302 L0.46059276,10.1132302 L3.93198952,2.02750331 L6.81214071,2.02750331 L10.1091237,9.68301903 L10.1091237,2.02750331 L13.2730336,2.02750331 L15.8099835,7.51269618 L18.1404745,2.02750331 L21.3679855,2.02750331 L21.3679855,10.1132302 L21.3682301,10.1132302 Z M29.2887682,10.1132302 L22.8129535,10.1132302 L22.8129535,2.02750331 L29.2887682,2.02750331 L29.2887682,3.71127778 L24.7515638,3.71127778 L24.7515638,5.16872798 L29.1799124,5.16872798 L29.1799124,6.82616299 L24.7515638,6.82616299 L24.7515638,8.44091831 L29.2887682,8.44091831 L29.2887682,10.1132302 L29.2887682,10.1132302 Z M38.4194394,4.20514268 C38.4194394,5.49431299 37.5564215,6.16035993 37.0534836,6.36034473 C37.4776539,6.52130811 37.8399356,6.80567674 38.0123924,7.04126859 C38.2861217,7.44343315 38.3333333,7.80267414 38.3333333,8.52481438 L38.3333333,10.1132302 L36.3780888,10.1132302 L36.3707502,9.09355164 C36.3707502,8.60700325 36.4174726,7.90730033 36.0647311,7.51830551 C35.7814616,7.23393688 35.349708,7.17223425 34.6518083,7.17223425 L32.5708294,7.17223425 L32.5708294,10.1132302 L30.6324636,10.1132302 L30.6324636,2.02750331 L35.0911451,2.02750331 C36.0818545,2.02750331 36.8117994,2.05359888 37.4385148,2.41479095 C38.0517761,2.77598301 38.4194394,3.30326001 38.4194394,4.20514268 L38.4194394,4.20514268 Z M41.5217052,10.1132302 L39.5437111,10.1132302 L39.5437111,2.02750331 L41.5217052,2.02750331 L41.5217052,10.1132302 L41.5217052,10.1132302 Z M64.4689808,10.1132302 L61.7219026,10.1132302 L58.0474716,4.04442319 L58.0474716,10.1132302 L54.0995559,10.1132302 L53.345149,8.30970877 L49.3182211,8.30970877 L48.5863193,10.1132302 L46.3179617,10.1132302 C45.375687,10.1132302 44.1826772,9.90544115 43.5070379,9.21890797 C42.8257723,8.53237478 42.4713185,7.60244545 42.4713185,6.1320694 C42.4713185,4.93289225 42.6831591,3.8366341 43.5163334,2.97035848 C44.1430488,2.32504167 45.1244627,2.02750331 46.4603303,2.02750331 L48.3370519,2.02750331 L48.3370519,3.76005456 L46.4997141,3.76005456 C45.7922742,3.76005456 45.3928104,3.86492463 45.0080238,4.23904254 C44.6775427,4.57950447 44.4507803,5.22311409 44.4507803,6.07061066 C44.4507803,6.93688628 44.6234817,7.56147296 44.9838064,7.96949073 C45.2822423,8.28946641 45.824564,8.3865322 46.3348405,8.3865322 L47.2054416,8.3865322 L49.937598,2.02774719 L52.8422111,2.02774719 L56.1242723,9.67570252 L56.1242723,2.02774719 L59.0758524,2.02774719 L62.4834035,7.65902652 L62.4834035,2.02774719 L64.4689808,2.02774719 L64.4689808,10.1132302 L64.4689808,10.1132302 Z M0.438087757,11.7014022 L3.75023716,11.7014022 L4.4970608,9.90544115 L6.16903578,9.90544115 L6.91390247,11.7014022 L13.4308133,11.7014022 L13.4308133,10.3283358 L14.0125187,11.7072554 L17.3956078,11.7072554 L17.9773132,10.3078496 L17.9773132,11.7014022 L34.1730877,11.7014022 L34.1655045,8.75333359 L34.4788623,8.75333359 C34.698286,8.760894 34.7623764,8.78113636 34.7623764,9.14232842 L34.7623764,11.7014022 L43.1388854,11.7014022 L43.1388854,11.0151129 C43.8145247,11.3760611 44.8654105,11.7014022 46.2482451,11.7014022 L49.7722351,11.7014022 L50.5263973,9.90544115 L52.1983723,9.90544115 L52.9359004,11.7014022 L59.7267852,11.7014022 L59.7267852,9.99543431 L60.755166,11.7014022 L66.1969736,11.7014022 L66.1969736,0.424210526 L60.8114285,0.424210526 L60.8114285,1.75606052 L60.0572663,0.424210526 L54.5310648,0.424210526 L54.5310648,1.75606052 L53.8385467,0.424210526 L46.3739796,0.424210526 C45.1244627,0.424210526 44.0261207,0.598099749 43.1388854,1.08269707 L43.1388854,0.424210526 L37.9876858,0.424210526 L37.9876858,1.08269707 C37.4231038,0.583222831 36.6537751,0.424210526 35.7983404,0.424210526 L16.9790206,0.424210526 L15.7162942,3.33691598 L14.4195657,0.424210526 L8.49194351,0.424210526 L8.49194351,1.75606052 L7.84076613,0.424210526 L2.78545745,0.424210526 L0.437843137,5.78599814 L0.437843137,11.7014022 L0.438087757,11.7014022 Z" id="AMERICAN" sketch:type="MSShapeGroup"></path>
            </g>
        </g>
    </g>
</svg>